<svg xmlns="http://www.w3.org/2000/svg" width="16.2" height="16.84" viewBox="0 0 16.2 16.84"><defs><style>.a{fill:#fff;stroke:#fff;}</style></defs><g transform="translate(-17.834 -1.077)"><g transform="translate(17.067 0)"><g transform="translate(0 0)"><path class="a" d="M340.451,467.227Z" transform="translate(-328.45 -449.888)"/><path class="a" d="M386.584,442.765Z" transform="translate(-372.871 -426.334)"/><path class="a" d="M66.395,46.8c0-.007,0-.014,0-.02s0-.01,0-.016a.32.32,0,0,0-.014-.045l0,0c0-.008-.007-.015-.011-.023l0-.006,0,0-.012-.021-.007-.01a.313.313,0,0,0-.024-.03l-.011-.012-.015-.014-.013-.011-.016-.012-.017-.011-.013-.008L58.945,42.7a.316.316,0,0,0-.3,0l-7.283,3.855,0,0-.016.008-.013.009-.007.005-.026.022-.006.005-.024.026,0,.006a.312.312,0,0,0-.02.029l0,.006a.318.318,0,0,0-.016.032l0,.006a.309.309,0,0,0-.012.034l0,.006a.315.315,0,0,0-.007.035V46.8a.319.319,0,0,0,0,.036s0,0,0,0v.007s0,0,0,0h0v7.478a.317.317,0,0,0,.169.28l7.283,3.855a.316.316,0,0,0,.3,0l7.283-3.855a.317.317,0,0,0,.169-.28V46.838c0-.005,0-.01,0-.015S66.4,46.811,66.395,46.8Zm-7.6-3.463,6.606,3.5L58.9,50.282a.314.314,0,0,0-.2,0l-6.508-3.444ZM51.83,47.364l6.65,3.52v6.774l-6.65-3.52Zm7.283,10.294V50.883l6.65-3.52v6.774Z" transform="translate(-49.93 -41.083)"/></g></g></g></svg>