<svg xmlns="http://www.w3.org/2000/svg" width="60" height="60" viewBox="0 0 60 60"><defs><style>.a{fill:#fff;}.b{fill:#f04274;}</style></defs><g transform="translate(-728 -1700)"><path class="a" d="M58.744,19.163H40.837V1.256A1.256,1.256,0,0,0,39.581,0H20.419a1.256,1.256,0,0,0-1.256,1.256V19.163H1.256A1.256,1.256,0,0,0,0,20.419V39.581a1.256,1.256,0,0,0,1.256,1.256H19.163V58.744A1.256,1.256,0,0,0,20.419,60H39.581a1.256,1.256,0,0,0,1.256-1.256V40.837H58.744A1.256,1.256,0,0,0,60,39.581V20.419A1.256,1.256,0,0,0,58.744,19.163Z" transform="translate(728 1700)"/><path class="b" d="M25.729,35.527h6.407A3.39,3.39,0,0,0,34.769,30a3.39,3.39,0,0,0-2.633-5.527H25.729a1.256,1.256,0,0,0-1.256,1.256v8.543A1.256,1.256,0,0,0,25.729,35.527Zm1.256-8.543h5.151a.88.88,0,0,1,0,1.76H26.985Zm0,4.271h5.151a.88.88,0,0,1,0,1.76H26.985ZM6.566,35.527a1.256,1.256,0,0,0,1.256-1.256V31.256h6.03v3.015a1.256,1.256,0,1,0,2.512,0V25.729a1.256,1.256,0,0,0-1.256-1.256H8.7A3.4,3.4,0,0,0,5.31,27.864v6.407A1.256,1.256,0,0,0,6.566,35.527Zm1.256-7.663a.881.881,0,0,1,.879-.88h5.151v1.76H7.822ZM24.473,51.3V47.027a3.4,3.4,0,0,1,3.392-3.391h6.407a1.256,1.256,0,0,1,0,2.512H27.864a.881.881,0,0,0-.88.88V51.3a.881.881,0,0,0,.88.88h6.407a1.256,1.256,0,0,1,0,2.512H27.864A3.4,3.4,0,0,1,24.473,51.3Zm1.256-34.934a1.256,1.256,0,0,0,1.256-1.256V12.093h6.03v3.015a1.256,1.256,0,0,0,2.512,0V6.566A1.256,1.256,0,0,0,34.271,5.31H27.864A3.4,3.4,0,0,0,24.473,8.7v6.407A1.256,1.256,0,0,0,25.729,16.364ZM26.985,8.7a.88.88,0,0,1,.879-.88h5.151V9.581h-6.03V8.7ZM43.636,32.136V27.864a3.4,3.4,0,0,1,3.391-3.392h6.407a1.256,1.256,0,0,1,0,2.512H47.027a.881.881,0,0,0-.88.88v4.271a.881.881,0,0,0,.88.88h6.407a1.256,1.256,0,0,1,0,2.512H47.027A3.4,3.4,0,0,1,43.636,32.136Z" transform="translate(728 1700)"/></g></svg>