<svg xmlns="http://www.w3.org/2000/svg" xmlns:xlink="http://www.w3.org/1999/xlink" width="41" height="41" viewBox="0 0 41 41"><defs><style>.a,.c{fill:#fff;stroke:#707070;}.b{opacity:0.5;clip-path:url(#a);}.c{stroke-width:0.07px;}</style><clipPath id="a"><rect class="a" width="41" height="41" transform="translate(57 341)"/></clipPath></defs><g class="b" transform="translate(-57 -341)"><g transform="translate(57 341)"><g transform="translate(0)"><path class="c" d="M20.5,0a20.332,20.332,0,0,0-6.785,1.179.129.129,0,0,0-.033.013A20.552,20.552,0,0,0,4.11,8.238c0,.005-.008.01-.013.018A20.474,20.474,0,1,0,20.5,0ZM36.441,12.313A17.806,17.806,0,0,1,38.3,18.4l-2.573-2.808ZM34.476,9.284l-1.258,5.8L29.2,17.051l-7.4-5.389v-5l5.271-2.834A17.955,17.955,0,0,1,34.476,9.284Zm-6.937,9.73L24.72,26.906H16.282L13.5,19.016,20.523,13.9ZM20.5,2.563a17.917,17.917,0,0,1,3.008.272l-2.983,1.6L17.543,2.826A18.127,18.127,0,0,1,20.5,2.563ZM13.971,3.81l5.271,2.844v5.007l-7.393,5.389L7.808,15.078,6.552,9.246A18,18,0,0,1,13.971,3.81ZM4.582,12.267,5.3,15.585,2.7,18.412A17.744,17.744,0,0,1,4.582,12.267Zm1.13,18.365a17.819,17.819,0,0,1-3.062-8.39L6.988,17.53l3.957,1.935,2.98,8.464-2.514,3.019Zm2.27,2.693,3.034.167.881,2.742A18.118,18.118,0,0,1,7.982,33.325Zm17.087,4.5a17.607,17.607,0,0,1-10.05-.251l-1.612-5.02,2.568-3.085H25.03l2.524,2.99Zm3.421-1.289,1.455-3.144,3.7-.73A17.99,17.99,0,0,1,28.49,36.536Zm1.066-5.679-2.478-2.934L30.1,19.465l3.939-1.93,4.313,4.707A17.75,17.75,0,0,1,35.931,29.6Z" transform="translate(0)"/></g></g></g></svg>