<svg xmlns="http://www.w3.org/2000/svg" xmlns:xlink="http://www.w3.org/1999/xlink" width="34" height="34" viewBox="0 0 34 34"><defs><style>.a,.j{fill:#fff;}.a{stroke:#707070;}.b{clip-path:url(#a);}.c{fill:#ffc850;}.d{fill:#ebaf4b;}.e{fill:#ffdc64;}.f{fill:#ff8087;}.g{fill:#5d5360;}.h{fill:#e1a546;}.i{fill:#4b3f4e;}.k{fill:#e6646e;}</style><clipPath id="a"><rect class="a" width="34" height="34" transform="translate(198 320)"/></clipPath></defs><g class="b" transform="translate(-198 -320)"><g transform="translate(198.488 320)"><path class="c" d="M27.1.245a1.084,1.084,0,0,1,1.768.841V15.612L16.942,8.565Z" transform="translate(1.488 0)"/><path class="d" d="M27.409,14.593,20.148,10.3l6.05-6.82a.693.693,0,0,1,1.211.46Z" transform="translate(1.862 0.379)"/><path class="c" d="M4.147.245a1.084,1.084,0,0,0-1.768.841V15.612L14.3,8.565Z" transform="translate(-0.211 0)"/><path class="d" d="M3.35,14.593l7.261-4.29-6.05-6.82a.693.693,0,0,0-1.211.46Z" transform="translate(-0.097 0.379)"/><ellipse class="e" cx="15.178" cy="14.364" rx="15.178" ry="14.364" transform="translate(1.084 4.771)"/><path class="f" d="M17.395,25.259v1.084a2.168,2.168,0,0,1-2.168,2.168h0a2.168,2.168,0,0,1-2.168-2.168V25.259l2.168-1.084Z" transform="translate(1.035 2.82)"/><path class="g" d="M16.386,20.148H13.992a.615.615,0,0,0-.478,1l1.2,1.481a.615.615,0,0,0,.956,0l1.2-1.481A.615.615,0,0,0,16.386,20.148Z" transform="translate(1.072 2.351)"/><g transform="translate(21.75 23.05)"><path class="h" d="M29.061,26.035a.54.54,0,0,1-.25-.061,38.545,38.545,0,0,0-8.459-2.727.542.542,0,0,1,.208-1.064,38.869,38.869,0,0,1,8.751,2.829.542.542,0,0,1-.251,1.023Z" transform="translate(-19.915 -20.464)"/><path class="h" d="M30.051,22.419a.542.542,0,0,1-.141-.019c-3.038-.817-8.563-.662-8.617-.659a.542.542,0,1,1-.033-1.084c.233-.007,5.741-.162,8.932.7a.542.542,0,0,1-.141,1.066Z" transform="translate(-19.819 -20.642)"/></g><path class="c" d="M20.38,31.9C12,31.9,5.2,25.467,5.2,17.533A14.351,14.351,0,0,1,14.135,4.442C6.918,5.551,1.408,11.474,1.408,18.617c0,7.933,6.8,14.364,15.178,14.364a15.842,15.842,0,0,0,6.245-1.273A16.118,16.118,0,0,1,20.38,31.9Z" transform="translate(-0.324 0.518)"/><g transform="translate(0 23.051)"><path class="h" d="M1.951,26.035A.542.542,0,0,1,1.7,25.012a38.871,38.871,0,0,1,8.751-2.829.542.542,0,0,1,.208,1.064A38.544,38.544,0,0,0,2.2,25.974.54.54,0,0,1,1.951,26.035Z" transform="translate(-0.324 -20.464)"/><path class="h" d="M.979,22.419a.542.542,0,0,1-.141-1.066c3.191-.858,8.7-.7,8.932-.7a.542.542,0,1,1-.033,1.084c-.056,0-5.581-.157-8.617.659A.543.543,0,0,1,.979,22.419Z" transform="translate(-0.437 -20.642)"/></g><path class="i" d="M9.616,19.345h0a1.9,1.9,0,0,1-1.9-1.9V16.364a1.9,1.9,0,0,1,1.9-1.9h0a1.9,1.9,0,0,1,1.9,1.9v1.084A1.9,1.9,0,0,1,9.616,19.345Z" transform="translate(0.412 1.688)"/><path class="g" d="M9.446,14.467a1.851,1.851,0,0,0-.271.028v2.683a1.084,1.084,0,1,0,2.168,0v-.813A1.9,1.9,0,0,0,9.446,14.467Z" transform="translate(0.582 1.688)"/><circle class="j" cx="0.813" cy="0.813" r="0.813" transform="translate(9.215 16.697)"/><path class="i" d="M20.781,19.345h0a1.9,1.9,0,0,1-1.9-1.9V16.364a1.9,1.9,0,0,1,1.9-1.9h0a1.9,1.9,0,0,1,1.9,1.9v1.084A1.9,1.9,0,0,1,20.781,19.345Z" transform="translate(1.715 1.688)"/><path class="g" d="M20.611,14.467a1.851,1.851,0,0,0-.271.028v2.683a1.084,1.084,0,1,0,2.168,0v-.813A1.9,1.9,0,0,0,20.611,14.467Z" transform="translate(1.885 1.688)"/><circle class="j" cx="0.813" cy="0.813" r="0.813" transform="translate(21.682 16.697)"/><path class="i" d="M15.609,22.653l-1.2-2.37a1.2,1.2,0,0,1-.05-.136h-.369a.615.615,0,0,0-.478,1l1.2,1.481a.608.608,0,0,0,.907.038C15.615,22.663,15.612,22.659,15.609,22.653Z" transform="translate(1.072 2.351)"/><path class="k" d="M15.226,24.175l-2.168,1.084v1.084a2.159,2.159,0,0,0,.063.5,4.884,4.884,0,0,0,1.563-.468v.512a.542.542,0,1,0,1.084,0v-.512a4.884,4.884,0,0,0,1.563.468,2.16,2.16,0,0,0,.063-.5V25.259Z" transform="translate(1.035 2.82)"/><path class="d" d="M18.277,25.832a3.77,3.77,0,0,1-2.136-.659,1.038,1.038,0,0,0-1.148,0,3.785,3.785,0,0,1-4.667-.313.542.542,0,1,1,.724-.807,2.757,2.757,0,0,0,3.331.225,2.116,2.116,0,0,1,2.371,0,2.759,2.759,0,0,0,3.331-.224.542.542,0,0,1,.724.807A3.786,3.786,0,0,1,18.277,25.832Z" transform="translate(0.695 2.79)"/></g></g></svg>