<svg xmlns="http://www.w3.org/2000/svg" xmlns:xlink="http://www.w3.org/1999/xlink" width="14" height="14" viewBox="0 0 14 14"><defs><style>.a,.c{fill:#fff;}.a{stroke:#707070;}.b{clip-path:url(#a);}</style><clipPath id="a"><rect class="a" width="14" height="14" transform="translate(327 117)"/></clipPath></defs><g class="b" transform="translate(-327 -117)"><g transform="translate(327 117)"><path class="c" d="M7,14a7,7,0,1,1,7-7A7.008,7.008,0,0,1,7,14ZM7,1a6,6,0,1,0,6,6A6.007,6.007,0,0,0,7,1ZM7,1"/><path class="c" d="M9.5,10a.5.5,0,0,1-.354-.147l-5-5a.5.5,0,0,1,.707-.707l5,5A.5.5,0,0,1,9.5,10Zm0,0"/><path class="c" d="M4.5,10a.5.5,0,0,1-.353-.854l5-5a.5.5,0,0,1,.707.707l-5,5A.5.5,0,0,1,4.5,10Zm0,0"/></g></g></svg>