<svg xmlns="http://www.w3.org/2000/svg" width="15.5" height="14.792" viewBox="0 0 15.5 14.792"><defs><style>.a{fill:#1f627d;}.b{fill:#56d8f1;}</style></defs><g transform="translate(-1096 -23)"><g transform="translate(1096.708 23)"><path class="a" d="M17.517,13.73H14.868V11.081a.569.569,0,1,0-1.138,0V13.73H11.081a.545.545,0,0,0-.569.569.551.551,0,0,0,.569.569H13.73v2.649a.551.551,0,0,0,.569.569.566.566,0,0,0,.569-.569V14.868h2.649a.569.569,0,0,0,0-1.138Z" transform="translate(-6.903 -6.903)"/><path class="a" d="M10.771,4.371A6.4,6.4,0,1,1,6.245,6.245a6.358,6.358,0,0,1,4.527-1.874m0-1a7.4,7.4,0,1,0,7.4,7.4,7.395,7.395,0,0,0-7.4-7.4Z" transform="translate(-3.375 -3.375)"/></g><g transform="translate(1096 23)"><path class="b" d="M17.517,13.73H14.868V11.081a.569.569,0,1,0-1.138,0V13.73H11.081a.545.545,0,0,0-.569.569.551.551,0,0,0,.569.569H13.73v2.649a.551.551,0,0,0,.569.569.566.566,0,0,0,.569-.569V14.868h2.649a.569.569,0,0,0,0-1.138Z" transform="translate(-6.903 -6.903)"/><path class="b" d="M10.771,4.371A6.4,6.4,0,1,1,6.245,6.245a6.358,6.358,0,0,1,4.527-1.874m0-1a7.4,7.4,0,1,0,7.4,7.4,7.395,7.395,0,0,0-7.4-7.4Z" transform="translate(-3.375 -3.375)"/></g></g></svg>