<svg xmlns="http://www.w3.org/2000/svg" width="17.719" height="15" viewBox="0 0 17.719 15"><defs><style>.a{fill:#56d8f1;}</style></defs><g transform="translate(0 -39.279)"><g transform="translate(9.739 43.22)"><path class="a" d="M284.7,153.145,281.4,163.6l7.98-10.457Z" transform="translate(-281.402 -153.145)"/></g><g transform="translate(0.037 39.521)"><g transform="translate(0 0)"><path class="a" d="M3.617,46.263,1.082,49.305h4.31Z" transform="translate(-1.082 -46.263)"/></g></g><g transform="translate(13.372 39.521)"><g transform="translate(0 0)"><path class="a" d="M388.161,46.263l-1.775,3.042h4.31Z" transform="translate(-386.386 -46.263)"/></g></g><g transform="translate(0 43.22)"><path class="a" d="M4.678,153.145H0L7.98,163.6Z" transform="translate(0 -153.145)"/></g><g transform="translate(9.652 39.279)"><path class="a" d="M278.906,39.279l3.079,3.079,1.8-3.079Z" transform="translate(-278.906 -39.279)"/></g><g transform="translate(3.192 39.279)"><path class="a" d="M92.232,39.279l1.8,3.079,3.079-3.079Z" transform="translate(-92.232 -39.279)"/></g><g transform="translate(5.367 43.22)"><path class="a" d="M155.076,153.145l3.493,11.06,3.493-11.06Z" transform="translate(-155.076 -153.145)"/></g><g transform="translate(5.712 39.415)"><g transform="translate(0 0)"><path class="a" d="M168.188,43.208l-3.148,3.148h6.3Z" transform="translate(-165.04 -43.208)"/></g></g></g></svg>