<svg xmlns="http://www.w3.org/2000/svg" xmlns:xlink="http://www.w3.org/1999/xlink" width="18" height="19" viewBox="0 0 18 19"><defs><style>.a{fill:#fff;stroke:#fff;stroke-width:0.2px;}.b{clip-path:url(#a);}</style><clipPath id="a"><rect class="a" width="18" height="19" transform="translate(0.474)"/></clipPath></defs><g class="b" transform="translate(-0.474)"><path class="a" d="M14.419.653a2.243,2.243,0,0,0-3.17,0l-.793.8L2.01,9.893l-.018.018s0,.009-.009.009-.022.027-.031.04,0,0,0,.009-.013.022-.022.036,0,.009-.009.013-.009.022-.014.036,0,0,0,.009L.024,15.7a.441.441,0,0,0,.108.457.451.451,0,0,0,.318.13.529.529,0,0,0,.143-.022l5.631-1.878s0,0,.009,0a.162.162,0,0,0,.04-.018.016.016,0,0,0,.009,0l.045-.027c.013-.009.027-.022.04-.031s.009,0,.009-.009.014-.009.018-.018l9.24-9.24a2.243,2.243,0,0,0,0-3.17ZM6.081,13.331l-3.12-3.12L10.77,2.4l3.12,3.12Zm-3.56-2.291,2.726,2.726L1.154,15.129ZM15,4.405l-.475.48-3.12-3.12.48-.48a1.345,1.345,0,0,1,1.9,0L15.007,2.5a1.349,1.349,0,0,1,0,1.9Zm0,0" transform="translate(1.075 1.078)"/></g></svg>