<svg xmlns="http://www.w3.org/2000/svg" xmlns:xlink="http://www.w3.org/1999/xlink" width="19" height="19" viewBox="0 0 19 19"><defs><style>.a{fill:#fff;stroke:#fff;stroke-width:0.3px;}.b{clip-path:url(#a);}</style><clipPath id="a"><rect class="a" width="19" height="19"/></clipPath></defs><g class="b"><g transform="translate(1.397 3.929)"><path class="a" d="M16.195,4.239a.5.5,0,0,0-.02-.1,1,1,0,0,0-.981-.857H1.013a1,1,0,0,0-.981.857.5.5,0,0,0-.02.1c0,.019-.011.035-.011.055V13.41c0,.019.01.036.011.056a.489.489,0,0,0,.02.1,1,1,0,0,0,.981.857h14.18a1,1,0,0,0,.981-.858.489.489,0,0,0,.02-.1c0-.018.011-.035.011-.055V4.294C16.206,4.275,16.2,4.259,16.195,4.239Zm-1.352.055L9.221,8.416,8.1,9.237,6.986,8.418a0,0,0,0,1,0,0L1.363,4.294Zm-13.83,1L5.867,8.853,1.013,12.411Zm.35,8.116,5.36-3.929,1.08.792a.507.507,0,0,0,.6,0l1.08-.792,5.36,3.929Zm13.83-1L10.339,8.853l4.854-3.559Z" transform="translate(0 -3.281)"/></g></g></svg>