<svg xmlns="http://www.w3.org/2000/svg" width="19.421" height="14.8" viewBox="0 0 19.421 14.8"><defs><style>.a{fill:#fff;stroke:#fff;}</style></defs><g transform="translate(0.51 -2.5)"><g transform="translate(0 3)"><path class="a" d="M9.2,16.8A9.7,9.7,0,0,1,.179,10.81a2.406,2.406,0,0,1,0-1.818A9.7,9.7,0,0,1,9.2,3a9.7,9.7,0,0,1,9.022,5.991,2.406,2.406,0,0,1,0,1.818A9.7,9.7,0,0,1,9.2,16.8Zm0-13.034A8.932,8.932,0,0,0,.888,9.282a1.64,1.64,0,0,0,0,1.235A8.931,8.931,0,0,0,9.2,16.034a8.932,8.932,0,0,0,8.312-5.516,1.64,1.64,0,0,0,0-1.235A8.931,8.931,0,0,0,9.2,3.767Z" transform="translate(0 -3)"/></g><g transform="translate(6.134 6.833)"><path class="a" d="M11.067,14.134a3.067,3.067,0,1,1,3.067-3.067A3.07,3.07,0,0,1,11.067,14.134Zm0-5.367a2.3,2.3,0,1,0,2.3,2.3A2.3,2.3,0,0,0,11.067,8.767Z" transform="translate(-8 -8)"/></g></g></svg>