<svg xmlns="http://www.w3.org/2000/svg" xmlns:xlink="http://www.w3.org/1999/xlink" width="48" height="48" viewBox="0 0 48 48"><defs><style>.a{fill:#fff;}.b{opacity:0.5;clip-path:url(#a);}</style><clipPath id="a"><rect class="a" width="48" height="48" transform="translate(-0.333)"/></clipPath></defs><g class="b" transform="translate(0.333)"><g transform="translate(0 1.5)"><g transform="translate(9 24)"><path class="a" d="M20.249,28.125H17.87L15.3,25.554a4.543,4.543,0,1,0-2.121,2.121l3.012,3.012a1.5,1.5,0,0,0,1.059.438h3a1.5,1.5,0,0,0,0-3Zm-9-3a1.5,1.5,0,1,1,1.5-1.5A1.5,1.5,0,0,1,11.249,25.125Z" transform="translate(-6.75 -19.125)"/></g><path class="a" d="M44.782,37.335A7.314,7.314,0,0,0,45,35.625a7.481,7.481,0,0,0-5.142-7.083C44.2,20.317,44.878,9.592,44.98,6.85A16.582,16.582,0,0,0,47.8,3.376a1.5,1.5,0,1,0-2.6-1.494c-.033.051-3.063,5.244-7.7,5.244a1.5,1.5,0,0,0,0,3,9.677,9.677,0,0,0,4.329-1.05c-.366,4.4-1.542,12.848-5.19,19.049h-9.72a13.483,13.483,0,0,0-12.3-11.894l-2.037-6.1H15a1.5,1.5,0,1,0,0-3H6a1.5,1.5,0,1,0,0,3H9.42l2.067,6.2A13.394,13.394,0,0,0,2.622,37.548a4.491,4.491,0,1,0,6.312,4.728,13.349,13.349,0,0,0,4.566.849h24a7.314,7.314,0,0,0,1.71-.216,4.487,4.487,0,1,0,5.574-5.574ZM4.5,43.125a1.5,1.5,0,1,1,1.5-1.5A1.5,1.5,0,0,1,4.5,43.125Zm33-3h-24A10.5,10.5,0,1,1,24,29.625a1.5,1.5,0,0,0,1.5,1.5h12a4.5,4.5,0,0,1,0,9Zm6,3a1.5,1.5,0,0,1-1.5-1.5.3.3,0,0,1,.009-.045,7.636,7.636,0,0,0,1.413-1.4,1.476,1.476,0,1,1,.078,2.949Z" transform="translate(0 -1.125)"/></g></g></svg>