<svg xmlns="http://www.w3.org/2000/svg" width="22.329" height="14.788" viewBox="0 0 22.329 14.788"><defs><style>.a{fill:#fff;stroke:#fff;stroke-width:0.4px;}</style></defs><g transform="translate(0.199 -54.926)"><g transform="translate(0 55.109)"><g transform="translate(0 0)"><path class="a" d="M21.918,65.07a20.47,20.47,0,0,0-.6-3.961,15.2,15.2,0,0,0-1.229-3.332c-1.912-3.36-3.988-2.841-6.473-2.185a17.792,17.792,0,0,1-2.513.492h-.273a17.792,17.792,0,0,1-2.513-.492C5.83,54.964,3.754,54.418,1.842,57.8A13.925,13.925,0,0,0,.613,61.137a20.47,20.47,0,0,0-.6,3.961,7.443,7.443,0,0,0,.382,3.114,2.07,2.07,0,0,0,1.311,1.229,2.671,2.671,0,0,0,1.748-.191,12.838,12.838,0,0,0,3.5-2.486,6.03,6.03,0,0,1,4.015-1.229,6.03,6.03,0,0,1,4.015,1.229,12.838,12.838,0,0,0,3.5,2.486,2.857,2.857,0,0,0,1.748.191,2.041,2.041,0,0,0,1.311-1.256A7.3,7.3,0,0,0,21.918,65.07ZM20.607,67.8a1.083,1.083,0,0,1-.656.683,1.886,1.886,0,0,1-1.12-.137,11.139,11.139,0,0,1-3.168-2.267,6.82,6.82,0,0,0-4.7-1.557,7.2,7.2,0,0,0-4.725,1.5,11.35,11.35,0,0,1-3.168,2.267,1.694,1.694,0,0,1-1.12.137,1.083,1.083,0,0,1-.656-.683,6.459,6.459,0,0,1-.273-2.622A18.841,18.841,0,0,1,1.6,61.356a13.033,13.033,0,0,1,1.147-3.087c1.5-2.7,3.25-2.267,5.326-1.721a16.023,16.023,0,0,0,2.677.519h.41a15.824,15.824,0,0,0,2.7-.519c2.076-.519,3.824-.983,5.326,1.721a12.6,12.6,0,0,1,1.147,3.087,20.674,20.674,0,0,1,.574,3.769A6.32,6.32,0,0,1,20.607,67.8Z" transform="translate(0 -55.109)"/></g></g><g transform="translate(2.826 57.832)"><path class="a" d="M47,96.893a1.66,1.66,0,0,0-.983-.464,1.554,1.554,0,0,0-.437-.956l-.027-.027a1.547,1.547,0,0,0-1.12-.464,1.613,1.613,0,0,0-1.12.464,1.588,1.588,0,0,0-.464.983,1.627,1.627,0,0,0-.983.437l-.027.027a1.547,1.547,0,0,0-.464,1.12,1.613,1.613,0,0,0,.464,1.12,1.523,1.523,0,0,0,1.011.464,1.457,1.457,0,0,0,.464.983,1.547,1.547,0,0,0,1.12.464,1.613,1.613,0,0,0,1.12-.464,1.66,1.66,0,0,0,.464-.983A1.457,1.457,0,0,0,47,99.133a1.547,1.547,0,0,0,.464-1.12A1.613,1.613,0,0,0,47,96.893Zm-.683,1.53a.556.556,0,0,1-.41.164h-.382a.519.519,0,0,0-.519.519v.355a.574.574,0,1,1-1.147,0v-.382a.519.519,0,0,0-.519-.519h-.382a.56.56,0,0,1-.41-.956l.027-.027a.653.653,0,0,1,.382-.137h.382a.519.519,0,0,0,.519-.519v-.382a.579.579,0,0,1,.983-.41l.027.027a.653.653,0,0,1,.137.382v.382a.519.519,0,0,0,.519.519h.382a.579.579,0,0,1,.41.983Z" transform="translate(-41.373 -94.981)"/></g><g transform="translate(14.762 57.969)"><g transform="translate(0 0)"><circle class="a" cx="0.956" cy="0.956" r="0.956"/></g></g><g transform="translate(14.762 61.847)"><g transform="translate(0 0)"><circle class="a" cx="0.956" cy="0.956" r="0.956"/></g></g><g transform="translate(12.823 59.908)"><circle class="a" cx="0.956" cy="0.956" r="0.956"/></g><g transform="translate(16.701 59.908)"><circle class="a" cx="0.956" cy="0.956" r="0.956"/></g></g></svg>