<svg xmlns="http://www.w3.org/2000/svg" width="36" height="36" viewBox="0 0 36 36"><defs><style>.a,.d{fill:none;}.a{stroke:#fff;}.b{fill:#fff;}.c{stroke:none;}</style></defs><g transform="translate(-939 -488)"><g class="a" transform="translate(939 488)"><rect class="c" width="36" height="36" rx="5"/><rect class="d" x="0.5" y="0.5" width="35" height="35" rx="4.5"/></g><g transform="translate(947 496)"><path class="b" d="M13.119,0H8.437A7,7,0,0,0,3.606,1.531,4.623,4.623,0,0,0,1.973,4.961,4.043,4.043,0,0,0,6.214,8.982c.265,0,.558-.027.817-.051l-.038.093a2.128,2.128,0,0,0-.216.906A2.575,2.575,0,0,0,7.5,11.612l.045.057-.079.005a10.9,10.9,0,0,0-4.8,1.174A3.673,3.673,0,0,0,.695,15.972c0,1.823,1.7,3.662,5.493,3.662,4.413,0,6.721-2.434,6.721-4.839,0-1.779-1.043-2.657-2.149-3.589l-.934-.726a1.381,1.381,0,0,1-.648-1.088,1.737,1.737,0,0,1,.676-1.215l.033-.033A4.347,4.347,0,0,0,12.039,4.5a4.294,4.294,0,0,0-1.812-3.457h1.554a.1.1,0,0,0,.054-.016L13.173.187A.1.1,0,0,0,13.119,0ZM7.441,18.562c-2.69,0-4.5-1.256-4.5-3.126,0-1.221.739-2.108,2.195-2.636a10.322,10.322,0,0,1,2.686-.412,4.129,4.129,0,0,1,.587.026C10.293,13.753,11.2,14.456,11.2,15.8,11.2,17.5,9.758,18.562,7.441,18.562Zm-.025-10.3c-2.257,0-3.194-2.967-3.194-4.556a2.909,2.909,0,0,1,.562-1.9A2.367,2.367,0,0,1,6.573.967c2.073,0,3.219,2.786,3.219,4.711a2.624,2.624,0,0,1-.638,1.87A2.619,2.619,0,0,1,7.416,8.265Z" transform="translate(-0.695)"/><path class="b" d="M39.323,19.393H36.856V16.935a.1.1,0,0,0-.1-.1H35.693a.1.1,0,0,0-.1.1v2.459H33.136a.1.1,0,0,0-.1.1V20.57a.1.1,0,0,0,.1.1h2.455v2.475a.1.1,0,0,0,.1.1h1.061a.1.1,0,0,0,.1-.1V20.671h2.467a.1.1,0,0,0,.1-.1V19.495A.1.1,0,0,0,39.323,19.393Z" transform="translate(-20.335 -10.223)"/></g></g></svg>