<svg xmlns="http://www.w3.org/2000/svg" width="48" height="54.372" viewBox="0 0 48 54.372"><defs><style>.a{fill:#fff;}</style></defs><g transform="translate(-50)"><path class="a" d="M96.252,0h-44.5A1.748,1.748,0,0,0,50,1.748V52.624a1.748,1.748,0,0,0,1.748,1.748h16.48a1.748,1.748,0,0,0,0-3.5H56.99V27.141L77.141,6.99h9.534V19.068H86.3a1.748,1.748,0,1,0,0,3.5,1.747,1.747,0,0,0-.992,3.185c-1.6,2.489-3.7,6.3-3.7,9.165a7.24,7.24,0,0,0,2.02,5.46,7.391,7.391,0,0,0,9.591,0,7.24,7.24,0,0,0,2.02-5.46c0-2.862-2.1-6.676-3.7-9.165a1.747,1.747,0,0,0-.992-3.185,1.748,1.748,0,0,0,0-3.5h-.087a4.622,4.622,0,0,1,2.226-1.9A1.747,1.747,0,1,0,91,14.113c-.278.154-.555.312-.827.48V6.99h6.082A1.748,1.748,0,0,0,98,5.243v-3.5A1.748,1.748,0,0,0,96.252,0ZM56.99,17.255V6.99H67.255ZM91.743,34.913c0,2.511-1.086,3.731-3.32,3.731s-3.32-1.221-3.32-3.731c0-1.846,1.7-5.061,3.32-7.548C90.039,29.852,91.743,33.067,91.743,34.913Z" transform="translate(0)"/></g></svg>