<svg xmlns="http://www.w3.org/2000/svg" width="23.183" height="21.091" viewBox="0 0 23.183 21.091"><defs><style>.a{fill:#fff;stroke:#fff;stroke-width:0.5px;}</style></defs><g transform="translate(-30.083 -796.083)"><path class="a" d="M-4258.609-4279.054h0a9.135,9.135,0,0,1-4.585-3.282,9.117,9.117,0,0,1-1.8-5.473,9.13,9.13,0,0,1,2.69-6.5,9.13,9.13,0,0,1,6.5-2.69,9.128,9.128,0,0,1,6.5,2.69,9.133,9.133,0,0,1,2.689,6.5v.043a11.129,11.129,0,0,0-1.211-.066h-.07a7.92,7.92,0,0,0-7.907-7.885,7.917,7.917,0,0,0-7.908,7.907,7.9,7.9,0,0,0,5.441,7.513,10.86,10.86,0,0,0-.332,1.242Zm2.158-4.615v-4.52a.641.641,0,0,1,.641-.64.641.641,0,0,1,.642.64v3.159a11.069,11.069,0,0,0-1.28,1.358Zm.641-6.749a.642.642,0,0,1-.641-.642v-.769a.642.642,0,0,1,.641-.641.642.642,0,0,1,.642.641v.769A.642.642,0,0,1-4255.811-4290.418Z" transform="translate(4295.333 5093.333)"/><g transform="translate(39 715.165)"><g transform="translate(0 92.835)"><path class="a" d="M13.911,97.024c-.125-.171-3.105-4.189-6.911-4.189S.214,96.853.089,97.024a.462.462,0,0,0,0,.545c.125.171,3.105,4.189,6.911,4.189s6.786-4.018,6.911-4.189A.461.461,0,0,0,13.911,97.024ZM7,100.835c-2.8,0-5.232-2.667-5.95-3.539.718-.873,3.141-3.538,5.95-3.538s5.231,2.666,5.95,3.539C12.233,98.169,9.809,100.835,7,100.835Z" transform="translate(0 -92.835)"/></g><g transform="translate(4.231 94.527)"><path class="a" d="M157.491,154.725a2.769,2.769,0,1,0,2.769,2.769A2.772,2.772,0,0,0,157.491,154.725Zm0,4.615a1.846,1.846,0,1,1,1.846-1.846A1.848,1.848,0,0,1,157.491,159.34Z" transform="translate(-154.722 -154.725)"/></g></g></g></svg>