<svg xmlns="http://www.w3.org/2000/svg" width="15" height="15" viewBox="0 0 15 15"><defs><style>.a{fill:#fff;}</style></defs><g transform="translate(-0.449 0)"><path class="a" d="M15.411,4.41a5.48,5.48,0,0,0-.349-1.82A3.843,3.843,0,0,0,12.867.4a5.5,5.5,0,0,0-1.82-.349C10.243.009,9.989,0,7.952,0S5.66.009,4.859.044A5.485,5.485,0,0,0,3.04.393a3.661,3.661,0,0,0-1.331.867A3.693,3.693,0,0,0,.844,2.588,5.5,5.5,0,0,0,.5,4.407C.457,5.21.449,5.465.449,7.5s.009,2.291.044,3.091a5.48,5.48,0,0,0,.349,1.82,3.842,3.842,0,0,0,2.2,2.195,5.5,5.5,0,0,0,1.82.349c.8.035,1.055.044,3.092.044s2.292-.009,3.092-.044a5.482,5.482,0,0,0,1.82-.349,3.837,3.837,0,0,0,2.2-2.195,5.5,5.5,0,0,0,.349-1.82c.035-.8.044-1.055.044-3.091s0-2.291-.038-3.091ZM14.06,10.534a4.111,4.111,0,0,1-.258,1.392,2.489,2.489,0,0,1-1.424,1.424,4.128,4.128,0,0,1-1.392.258c-.791.035-1.029.044-3.03.044s-2.242-.009-3.031-.044a4.111,4.111,0,0,1-1.392-.258,2.309,2.309,0,0,1-.862-.56,2.332,2.332,0,0,1-.56-.861,4.126,4.126,0,0,1-.258-1.392c-.035-.791-.044-1.029-.044-3.03s.009-2.242.044-3.03A4.109,4.109,0,0,1,2.11,3.086a2.28,2.28,0,0,1,.563-.862,2.329,2.329,0,0,1,.862-.56,4.13,4.13,0,0,1,1.392-.258c.791-.035,1.029-.044,3.03-.044s2.242.009,3.031.044a4.113,4.113,0,0,1,1.392.258,2.307,2.307,0,0,1,.862.56,2.332,2.332,0,0,1,.56.862,4.127,4.127,0,0,1,.258,1.392c.035.791.044,1.028.044,3.03s-.009,2.236-.044,3.027Zm0,0" transform="translate(0 0)"/><path class="a" d="M128.755,124.5a3.8,3.8,0,1,0,3.806,3.8A3.806,3.806,0,0,0,128.755,124.5Zm0,6.272a2.468,2.468,0,1,1,2.469-2.468A2.469,2.469,0,0,1,128.755,130.772Zm0,0" transform="translate(-120.803 -120.803)"/><path class="a" d="M364.273,89.513a.912.912,0,1,1-.912-.912A.912.912,0,0,1,364.273,89.513Zm0,0" transform="translate(-351.41 -86.01)"/></g></svg>