<svg xmlns="http://www.w3.org/2000/svg" width="16.415" height="16.518" viewBox="0 0 16.415 16.518"><defs><style>.a{fill:#fff;stroke:#0a0f13;stroke-width:0.2px;}</style></defs><path class="a" d="M14.719,4.1,10.412.813A3.809,3.809,0,0,0,5.8.813L1.5,4.1A3.822,3.822,0,0,0,0,7.119v5.329a3.8,3.8,0,0,0,3.8,3.8h8.614a3.8,3.8,0,0,0,3.8-3.8V7.119A3.822,3.822,0,0,0,14.719,4.1Zm.229,8.351a2.536,2.536,0,0,1-2.534,2.534H3.8a2.536,2.536,0,0,1-2.534-2.534V7.119a2.548,2.548,0,0,1,1-2.014L6.571,1.82a2.54,2.54,0,0,1,3.073,0l4.307,3.285a2.548,2.548,0,0,1,1,2.014ZM13.583,7.821a.633.633,0,0,1-.119.888l-3.051,2.328a3.809,3.809,0,0,1-4.609,0l-3.02-2.3a.633.633,0,0,1,.768-1.007l3.02,2.3a2.54,2.54,0,0,0,3.073,0L12.7,7.7a.633.633,0,0,1,.888.119ZM5.574,6.146a.633.633,0,0,1,.633-.633H7.474V4.246a.633.633,0,1,1,1.267,0V5.513h1.267a.633.633,0,0,1,0,1.267H8.741V8.046a.633.633,0,1,1-1.267,0V6.78H6.207A.633.633,0,0,1,5.574,6.146Z" transform="translate(0.1 0.169)"/></svg>