<svg xmlns="http://www.w3.org/2000/svg" xmlns:xlink="http://www.w3.org/1999/xlink" width="48" height="48" viewBox="0 0 48 48"><defs><style>.a{fill:#fff;stroke:#fff;stroke-width:0.8px;}.b{opacity:0.5;clip-path:url(#a);}</style><clipPath id="a"><rect class="a" width="48" height="48" transform="translate(0.333)"/></clipPath></defs><g class="b" transform="translate(-0.333)"><g transform="translate(0 1.481)"><g transform="translate(3.003 0)"><path class="a" d="M23.269,45.788A19.888,19.888,0,0,1,6.285,36.37a.9.9,0,0,1-.058-.082,20.777,20.777,0,0,1-1.285-2.44,20.078,20.078,0,0,1-1.689-8.077,89.917,89.917,0,0,1-1-10.008c0-9.662,8.589-10.845,10.595-10.989A16.248,16.248,0,0,1,23.269.751C32,.751,44.287,5.409,44.287,15.763a96.84,96.84,0,0,1-1.011,10.154A19.911,19.911,0,0,1,41.6,33.854a20.525,20.525,0,0,1-1.461,2.692.936.936,0,0,1-.132.162,19.744,19.744,0,0,1-16.742,9.08ZM7.889,35.171a.688.688,0,0,1,.058.082,18.016,18.016,0,0,0,30.491.23,1.015,1.015,0,0,1,.136-.17,21.042,21.042,0,0,0,1.2-2.27,18.244,18.244,0,0,0,1.511-7.272c.02-.212,1-6.838,1-10.008,0-8.973-11.119-13.011-19.016-13.011a14.316,14.316,0,0,0-9.3,3.711,1.016,1.016,0,0,1-.707.292c-.368,0-9.01.14-9.01,9.008a94.677,94.677,0,0,0,.991,9.86,18.045,18.045,0,0,0,2.644,9.548Z" transform="translate(-2.252 -0.751)"/></g><g transform="translate(4.429 11.125)"><path class="a" d="M41.5,27.994a1,1,0,0,1-.961-.725l-2.372-8.287c-14.48-.12-20.345-3.727-22.679-6.247-1.511,3.883-6.137,5.577-7.786,6.067L5.284,27.268a1,1,0,0,1-1.924-.55L5.939,17.71a1,1,0,0,1,.733-.7c.074-.018,7.3-1.783,7.3-6.914a1,1,0,0,1,.881-.993.989.989,0,0,1,1.093.755c.016.054,2.278,7.126,22.977,7.126a1,1,0,0,1,.961.725l2.578,9.008a1,1,0,0,1-.687,1.237.928.928,0,0,1-.274.04Z" transform="translate(-3.322 -9.094)"/></g><g transform="translate(41.394 21.034)"><path class="a" d="M32.647,26.518c-.232,0-.466-.022-.7-.042a1,1,0,0,1-.9-1.095,1.016,1.016,0,0,1,1.093-.9c.168.016.336.034.5.034a3.008,3.008,0,0,0,.362-5.993,1,1,0,0,1,.238-1.988,5.01,5.01,0,0,1-.6,9.982Z" transform="translate(-31.045 -16.526)"/></g><g transform="translate(0 21.039)"><path class="a" d="M5,26.517a5.006,5.006,0,0,1-.55-9.982,1,1,0,0,1,.22,1.99A3,3,0,0,0,5,24.515a2.24,2.24,0,0,0,.438-.04,1,1,0,0,1,.4,1.96A4.159,4.159,0,0,1,5,26.517Z" transform="translate(0 -16.53)"/></g><g transform="translate(13.011 23.019)"><path class="a" d="M12.761,24.02a3,3,0,1,1,3-3A3.006,3.006,0,0,1,12.761,24.02Zm0-4a1,1,0,1,0,1,1A1,1,0,0,0,12.761,20.017Z" transform="translate(-9.758 -18.015)"/></g><g transform="translate(29.024 23.019)"><path class="a" d="M24.771,24.02a3,3,0,1,1,3-3A3.006,3.006,0,0,1,24.771,24.02Zm0-4a1,1,0,1,0,1,1A1,1,0,0,0,24.771,20.017Z" transform="translate(-21.768 -18.015)"/></g><g transform="translate(18.065 33.027)"><path class="a" d="M19.5,29.571a7.985,7.985,0,0,1-5.663-2.342,1,1,0,0,1,1.415-1.415,6.012,6.012,0,0,0,8.493,0,1,1,0,1,1,1.415,1.415A7.969,7.969,0,0,1,19.5,29.571Z" transform="translate(-13.548 -25.521)"/></g></g></g></svg>