<svg xmlns="http://www.w3.org/2000/svg" width="40.885" height="45" viewBox="0 0 40.885 45"><defs><style>.a{opacity:0.5;}.b{fill:#fff;}</style></defs><g class="a"><path class="b" d="M51.935,24.368a5.877,5.877,0,0,0-4.049-2.04,5.817,5.817,0,0,0-2.026.2,6.054,6.054,0,0,0-2.715-3.642,5.971,5.971,0,0,0-4.476-.552,5.946,5.946,0,0,0-8.982-3.486c-2.845,1.705-5.773,3.384-8.606,5.008-1.425.817-2.85,1.635-4.243,2.441a8.038,8.038,0,0,0-4.322,7.282c-.043,4.627-.043,9.319,0,13.92a8.064,8.064,0,0,0,4.31,7.365l11.754,6.787A8.229,8.229,0,0,0,32.941,58.9a8.142,8.142,0,0,0,4.319-1.228q2.949-1.691,5.885-3.4c1.938-1.124,3.879-2.247,5.793-3.344a8.24,8.24,0,0,0,4.4-7.567v-7.29c0-.768,0-1.537-.013-2.3-.013-1.679-.028-3.414.028-5.11a5.886,5.886,0,0,0-1.418-4.288ZM50.683,43.314v.037a5.645,5.645,0,0,1-3,5.194q-5.923,3.423-11.87,6.855a5.465,5.465,0,0,1-5.776-.016L18.162,48.532A5.6,5.6,0,0,1,15.194,43.4c-.011-4.561-.011-9.121,0-13.712a5.405,5.405,0,0,1,2.838-4.965c4.414-2.587,8.9-5.173,13.319-7.693a3.183,3.183,0,0,1,1.624-.447,3.243,3.243,0,0,1,.8.1A3.19,3.19,0,0,1,35.74,18.16a3.225,3.225,0,0,1,.385,1.017l.025.1a.3.3,0,0,1-.169.369l-.087.043c-2.282,1.3-4.555,2.611-6.822,3.926-1.722,1-3.443,1.993-5.14,2.964a7.717,7.717,0,0,0-4.147,7.089V42.1a5.193,5.193,0,0,0,2.429,4.655,5.064,5.064,0,0,0,4.853.011,5.075,5.075,0,0,0,2.445,4.195A5.217,5.217,0,0,0,34.8,50.7L36.8,49.528c1.707-.993,3.414-1.985,5.107-2.943a7.746,7.746,0,0,0,4.168-7.153v-.25c.008-4.457.016-9.066-.016-13.6v-.092a.268.268,0,0,1,.2-.288l.087-.025a3.238,3.238,0,0,1,4.133,1.968,3.279,3.279,0,0,1,.185,1.122c.028,1.617.021,3.237.016,4.857V43.314ZM38.9,21.067a3.245,3.245,0,0,1,4.256,1.716,3.285,3.285,0,0,1,.242.951l-1.659.958q-1.438.833-2.883,1.663v-.461c0-1.605,0-3.179-.013-4.806Zm4.52,5.766c-.009,1.441-.007,2.88,0,4.32v8.274a5.12,5.12,0,0,1-2.758,4.785q-1.99,1.141-3.974,2.3L33.3,48.466a2.7,2.7,0,0,1-2.818.039,1.929,1.929,0,0,1-.8-1.968c.07-.512.28-2.072-.722-2.77a1.577,1.577,0,0,0-.919-.282,2.5,2.5,0,0,0-1.162.322c-.2.1-.393.218-.589.333s-.392.231-.614.344a2.16,2.16,0,0,1-2.919-.89,2.128,2.128,0,0,1-.247-.84c-.1-3.218-.1-6.576.016-9.975a4.147,4.147,0,0,1,2.125-3.458c3-1.79,6.09-3.562,9.073-5.276l2.449-1.407.007.875c.013,1.553.025,3.02,0,4.51a1.651,1.651,0,0,0,.717,1.585,1.933,1.933,0,0,0,2.018-.193c1.5-.837,3.023-1.7,4.506-2.586Z" transform="translate(-12.484 -13.897)"/><path class="b" d="M35.471,33.574a1.472,1.472,0,0,0-.774,1.3v10.59a1.481,1.481,0,0,0,1.472,1.483h.024a1.484,1.484,0,0,0,.792-.231l8.244-5.3a1.488,1.488,0,0,0,0-2.49l-8.244-5.3A1.472,1.472,0,0,0,35.471,33.574Zm2.188,9.179V37.59l4.018,2.587Z" transform="translate(-17.275 -18.175)"/></g></svg>