<svg xmlns="http://www.w3.org/2000/svg" xmlns:xlink="http://www.w3.org/1999/xlink" width="149.122" height="37" viewBox="0 0 149.122 37"><defs><style>.a{fill:#4ee3ff;font-size:28px;font-family:SegoeUI, Segoe UI;}.b{fill:url(#a);}</style><linearGradient id="a" x1="0.5" x2="0.734" y2="0.5" gradientUnits="objectBoundingBox"><stop offset="0" stop-color="#10a5f7"/><stop offset="1" stop-color="#31deb1"/></linearGradient></defs><g transform="translate(-77.842 -61)"><text class="a" transform="translate(111.964 91)"><tspan x="0" y="0">Murabbo</tspan></text><g transform="translate(77.844 66.95)"><path class="b" d="M36.49,20.269a3.576,3.576,0,0,0-2.464-1.241,3.54,3.54,0,0,0-1.233.124,3.684,3.684,0,0,0-1.652-2.216,3.633,3.633,0,0,0-2.723-.336,3.618,3.618,0,0,0-5.466-2.121c-1.731,1.038-3.513,2.059-5.237,3.047-.867.5-1.735.995-2.582,1.485a4.891,4.891,0,0,0-2.63,4.431c-.026,2.815-.026,5.671,0,8.471a4.907,4.907,0,0,0,2.623,4.482l7.152,4.13a5.007,5.007,0,0,0,2.654.756,4.954,4.954,0,0,0,2.628-.747q1.795-1.029,3.581-2.068c1.179-.684,2.36-1.367,3.525-2.035a5.014,5.014,0,0,0,2.677-4.6V27.389c0-.467,0-.935-.008-1.4-.008-1.021-.017-2.077.017-3.109a3.581,3.581,0,0,0-.863-2.61ZM35.729,31.8v.023A3.435,3.435,0,0,1,33.9,34.981l-7.223,4.171a3.326,3.326,0,0,1-3.515-.01l-7.227-4.17a3.41,3.41,0,0,1-1.806-3.122c-.007-2.776-.007-5.55,0-8.344a3.289,3.289,0,0,1,1.727-3.021c2.686-1.574,5.414-3.148,8.1-4.681a1.937,1.937,0,0,1,.988-.272,1.974,1.974,0,0,1,.488.063,1.941,1.941,0,0,1,1.194.9,1.962,1.962,0,0,1,.234.619l.015.061a.182.182,0,0,1-.1.225l-.053.026c-1.389.789-2.771,1.589-4.151,2.389-1.048.606-2.1,1.213-3.128,1.8a4.7,4.7,0,0,0-2.523,4.314v5.128a3.16,3.16,0,0,0,1.478,2.833,3.082,3.082,0,0,0,2.953.007,3.088,3.088,0,0,0,1.488,2.553,3.174,3.174,0,0,0,3.216-.158l1.221-.711c1.039-.6,2.077-1.208,3.108-1.791a4.714,4.714,0,0,0,2.536-4.353v-.152c0-2.712.01-5.517-.01-8.276v-.056a.163.163,0,0,1,.122-.175l.053-.015a1.971,1.971,0,0,1,2.515,1.2,2,2,0,0,1,.112.683c.017.984.013,1.97.01,2.955v6.2ZM28.556,18.26a1.975,1.975,0,0,1,2.59,1.044,2,2,0,0,1,.147.579l-1.009.583q-.875.507-1.754,1.012V21.2c0-.977,0-1.935-.008-2.925Zm2.75,3.509c-.006.877,0,1.752,0,2.629v5.035a3.116,3.116,0,0,1-1.678,2.911q-1.211.694-2.418,1.4l-2.061,1.192a1.644,1.644,0,0,1-1.715.024,1.174,1.174,0,0,1-.488-1.2c.042-.312.17-1.261-.44-1.686a.96.96,0,0,0-.559-.172,1.521,1.521,0,0,0-.707.2c-.121.063-.239.133-.358.2s-.238.141-.374.209a1.315,1.315,0,0,1-1.776-.541,1.3,1.3,0,0,1-.151-.511c-.062-1.958-.059-4,.01-6.07a2.523,2.523,0,0,1,1.293-2.1c1.827-1.089,3.706-2.168,5.521-3.21l1.49-.856,0,.532c.008.945.015,1.838,0,2.745a1,1,0,0,0,.436.965,1.176,1.176,0,0,0,1.228-.117c.916-.51,1.84-1.037,2.742-1.573Z" transform="translate(-12.486 -13.896)"/><path class="b" d="M35.125,33.492a.814.814,0,0,0-.428.72v5.855a.819.819,0,0,0,.814.82h.013a.82.82,0,0,0,.438-.128l4.558-2.93a.823.823,0,0,0,0-1.376l-4.558-2.93A.814.814,0,0,0,35.125,33.492Zm1.21,5.075V35.712l2.221,1.43Z" transform="translate(-23.732 -23.766)"/></g></g></svg>