<svg xmlns="http://www.w3.org/2000/svg" width="28.36" height="28" viewBox="0 0 28.36 28"><defs><style>.a{fill:#1b74d6;}.b{fill:#1e8aff;}.c{fill:#ffeac3;}.d{fill:#ffd17e;}.e{fill:#ffb739;}.f{fill:#22343c;}</style></defs><g transform="translate(0 0)"><path class="a" d="M13.417,358.913l5.466,7.291a2.151,2.151,0,0,1-3.042,0l-4.857-4.857Z" transform="translate(8.848 -338.834)"/><path class="b" d="M0,350.131l4.857,4.857c.84.84,1.657,1.385,1.825,1.217a2.151,2.151,0,0,0,0-3.042l-4.857-4.857Z" transform="translate(21.048 -328.835)"/><path class="c" d="M0,2.581H4.3V0H0Z" transform="translate(20.442 21.903) rotate(-135)"/><path class="d" d="M133.129,279.419l.8,1.859a.43.43,0,0,1-.091.473l-2.63,2.63a.43.43,0,0,1-.473.091l-1.859-.8Z" transform="translate(-112.991 -263.9)"/><path class="e" d="M117.125,370.738l1.217-1.217,1.217,1.217-1.217,1.217a.86.86,0,0,1-1.217-1.217Z" transform="translate(-97.902 -348.833)"/><path class="d" d="M80.911,336.6a.86.86,0,0,1,0-1.217l1.825-1.825a.86.86,0,0,1,1.217,1.217L82.128,336.6A.86.86,0,0,1,80.911,336.6Z" transform="translate(-60.472 -314.697)"/><ellipse class="e" cx="10.5" cy="10.5" rx="10.5" ry="10.5" transform="translate(0 0)"/><path class="f" d="M317.591,30V48.185a9.092,9.092,0,1,1,0-18.184Z" transform="translate(-306.926 -28.788)"/><path class="f" d="M150,39.093C150,34.072,153.3,30,157.37,30a9.092,9.092,0,1,1,0,18.184C153.3,48.185,150,44.114,150,39.093Z" transform="translate(-146.706 -28.788)"/></g></svg>