<svg xmlns="http://www.w3.org/2000/svg" width="64" height="42.207" viewBox="0 0 64 42.207"><defs><style>.a{opacity:0.05;}.b{fill:#fefefe;}</style></defs><g class="a" transform="translate(-4.557 -24.8)"><path class="b" d="M63.272,24.8H9.842a5.292,5.292,0,0,0-5.285,5.286V61.72a5.292,5.292,0,0,0,5.285,5.286H63.272a5.292,5.292,0,0,0,5.285-5.286V30.085A5.292,5.292,0,0,0,63.272,24.8Zm3.4,5.286V34.24H56.543V26.684h6.729a3.405,3.405,0,0,1,3.4,3.4Zm-19.285-3.4h7.271v13.6L51.689,37.32a.942.942,0,0,0-1.332,0l-2.969,2.969Zm-37.545,0H45.5v7.554H6.441V30.085a3.405,3.405,0,0,1,3.4-3.4ZM63.272,65.121H9.842a3.405,3.405,0,0,1-3.4-3.4v-25.6H45.5v6.442a.942.942,0,0,0,1.608.666l3.912-3.911,3.912,3.911a.942.942,0,0,0,1.608-.666V36.123h10.13v25.6A3.405,3.405,0,0,1,63.272,65.121Z" transform="translate(0 0)"/><path class="b" d="M35.331,56.047H19.213a.942.942,0,0,0-.942.942V73.107a.942.942,0,0,0,.942.942H35.331a.942.942,0,0,0,.942-.942V56.991a.942.942,0,0,0-.942-.944Zm-9.946,7.421a1.884,1.884,0,1,1,1.884,1.884,1.884,1.884,0,0,1-1.884-1.884Zm1.884,3.768a3.21,3.21,0,0,1,3.206,3.206v1.719h-6.41V70.446a3.21,3.21,0,0,1,3.206-3.206Zm7.117,4.926H32.362V70.446a5.086,5.086,0,0,0-2.415-4.323,3.771,3.771,0,1,0-5.35,0,5.087,5.087,0,0,0-2.415,4.323v1.719H20.155V57.931H34.389Z" transform="translate(-6.331 -14.426)"/><path class="b" d="M87.608,85.988H64.8a.942.942,0,1,0,0,1.884H87.608a.942.942,0,1,0,0-1.884Z" transform="translate(-27.376 -28.249)"/><path class="b" d="M87.608,75.973H64.8a.942.942,0,0,0,0,1.884H87.608a.942.942,0,1,0,0-1.884Z" transform="translate(-27.376 -23.625)"/><path class="b" d="M87.608,65.869H64.8a.942.942,0,0,0,0,1.884H87.608a.942.942,0,0,0,0-1.884Z" transform="translate(-27.376 -18.96)"/></g></svg>