<svg xmlns="http://www.w3.org/2000/svg" width="28.5" height="18.795" viewBox="0 0 28.5 18.795"><defs><style>.a{fill:#fefefe;}</style></defs><g transform="translate(-4.557 -24.8)"><path class="a" d="M30.7,24.8H6.911a2.357,2.357,0,0,0-2.354,2.354V41.241A2.357,2.357,0,0,0,6.911,43.6H30.7a2.357,2.357,0,0,0,2.354-2.354V27.153A2.357,2.357,0,0,0,30.7,24.8Zm1.515,2.354V29H27.707V25.639h3a1.517,1.517,0,0,1,1.515,1.514ZM23.63,25.639h3.238V31.7l-1.322-1.322a.42.42,0,0,0-.593,0L23.63,31.7Zm-16.719,0h15.88V29H5.4v-1.85a1.517,1.517,0,0,1,1.515-1.514ZM30.7,42.756H6.911A1.517,1.517,0,0,1,5.4,41.24v-11.4h17.4v2.869a.42.42,0,0,0,.716.3l1.742-1.742,1.742,1.742a.42.42,0,0,0,.716-.3V29.842h4.511v11.4A1.517,1.517,0,0,1,30.7,42.756Z" transform="translate(0 0)"/><path class="a" d="M25.868,56.047H18.691a.42.42,0,0,0-.42.42v7.178a.419.419,0,0,0,.42.42h7.178a.419.419,0,0,0,.42-.42V56.467a.42.42,0,0,0-.42-.42Zm-4.429,3.3a.839.839,0,1,1,.839.839.839.839,0,0,1-.839-.839Zm.839,1.678a1.429,1.429,0,0,1,1.428,1.428v.766H20.851v-.764a1.429,1.429,0,0,1,1.428-1.428Zm3.169,2.193h-.9v-.764a2.265,2.265,0,0,0-1.076-1.925,1.679,1.679,0,1,0-2.382,0,2.265,2.265,0,0,0-1.076,1.925v.766h-.9V56.886h6.339Z" transform="translate(-10.426 -23.756)"/><path class="a" d="M74.433,85.988H64.275a.42.42,0,0,0,0,.839H74.433a.42.42,0,1,0,0-.839Z" transform="translate(-45.083 -46.52)"/><path class="a" d="M74.433,75.973H64.275a.42.42,0,0,0,0,.839H74.433a.42.42,0,0,0,0-.839Z" transform="translate(-45.083 -38.905)"/><path class="a" d="M74.433,65.869H64.275a.42.42,0,0,0,0,.839H74.433a.42.42,0,0,0,0-.839Z" transform="translate(-45.083 -31.224)"/></g></svg>