<svg xmlns="http://www.w3.org/2000/svg" xmlns:xlink="http://www.w3.org/1999/xlink" width="48" height="48" viewBox="0 0 48 48"><defs><style>.a{fill:#fff;stroke:#fff;stroke-width:0.5px;}.b{opacity:0.5;clip-path:url(#a);}</style><clipPath id="a"><rect class="a" width="48" height="48"/></clipPath></defs><g class="b"><g transform="translate(0 2.205)"><g transform="translate(0 0)"><path class="a" d="M19.3,6.331C15.1,2.139,6.9,1.653,1.09,1.653A1.09,1.09,0,0,0,0,2.743C0,8.552.484,16.758,4.677,20.951a10.15,10.15,0,0,0,7.173,2.561c2.923,0,5.819-.935,7.448-2.563C22.421,17.826,22.994,10.025,19.3,6.331ZM17.757,19.41c-2.332,2.33-8.808,2.729-11.536,0C2.836,16.025,2.249,9.149,2.186,3.84,7.5,3.9,14.372,4.489,17.757,7.874,20.486,10.6,20.087,17.08,17.757,19.41Z" transform="translate(0 -1.653)"/></g><g transform="translate(26.14 4.311)"><path class="a" d="M40.375,4.887c-5.808,0-14.014.484-18.208,4.677-3.7,3.694-3.123,11.495,0,14.618,1.628,1.626,4.523,2.561,7.445,2.561a10.161,10.161,0,0,0,7.175-2.559c4.191-4.193,4.677-12.4,4.677-18.208A1.09,1.09,0,0,0,40.375,4.887ZM35.242,22.641c-2.729,2.729-9.206,2.33-11.536,0s-2.729-8.808,0-11.536C27.091,7.72,33.967,7.134,39.277,7.071,39.214,12.382,38.627,19.259,35.242,22.641Z" transform="translate(-19.605 -4.887)"/></g><g transform="translate(8.718 8.72)"><path class="a" d="M36.861,13.218a1.177,1.177,0,0,0-1.537-.482c-8.359,3.93-12.465,10.782-14.331,17.826C18.685,15.585,12.009,11.019,9.178,9.081a6.845,6.845,0,0,1-.78-.569,1.09,1.09,0,1,0-1.541,1.541,8.767,8.767,0,0,0,1.092.826c3.191,2.182,11.667,7.982,11.667,31.1a1.09,1.09,0,0,0,2.18,0c0-9.339,2.509-21.652,14.457-27.266,0,0,.177-.085.177-.085A1.01,1.01,0,0,0,36.861,13.218Z" transform="translate(-6.538 -8.193)"/></g></g></g></svg>