<svg xmlns="http://www.w3.org/2000/svg" xmlns:xlink="http://www.w3.org/1999/xlink" width="21" height="21" viewBox="0 0 21 21"><defs><style>.a,.c{fill:#fff;stroke:#fff;}.a{stroke-width:0.5px;}.b{clip-path:url(#a);}.c{stroke-width:0.041px;}</style><clipPath id="a"><rect class="a" width="21" height="21"/></clipPath></defs><g class="b"><g transform="translate(2.333 1.167)"><path class="c" d="M12.4,3.5a.584.584,0,0,0,.583-.583V1.167A1.169,1.169,0,0,0,11.813,0H2.479A1.169,1.169,0,0,0,1.313,1.167V17.5a1.169,1.169,0,0,0,1.167,1.167h9.333A1.169,1.169,0,0,0,12.979,17.5V14.583A.584.584,0,0,0,12.4,14H2.479V3.5ZM2.479,1.167h9.333V2.333H2.479Zm9.333,14V17.5H2.479V15.167Z" transform="translate(-1.313)"/><g transform="translate(7 4.667)"><path class="c" d="M17.354,5.25h-7A1.169,1.169,0,0,0,9.188,6.417v4.667a1.169,1.169,0,0,0,1.167,1.167h1.167v.583a.583.583,0,0,0,.845.522l2.21-1.1h2.779a1.169,1.169,0,0,0,1.167-1.167V6.417A1.169,1.169,0,0,0,17.354,5.25Zm0,5.833H14.438a.582.582,0,0,0-.261.062l-1.489.744v-.223a.584.584,0,0,0-.583-.583h-1.75V6.417h7Z" transform="translate(-9.188 -5.25)"/></g><g transform="translate(9.934 7.583)"><path class="c" d="M13.078,8.531h-.012a.579.579,0,0,0-.578.583.586.586,0,1,0,.589-.583Z" transform="translate(-12.488 -8.531)"/></g><g transform="translate(12.268 7.583)"><path class="c" d="M15.7,8.531h-.012a.579.579,0,0,0-.578.583.586.586,0,1,0,.589-.583Z" transform="translate(-15.113 -8.531)"/></g></g></g></svg>