<svg xmlns="http://www.w3.org/2000/svg" width="19.098" height="18.313" viewBox="0 0 19.098 18.313"><defs><style>.a{fill:#39636d;}.b{fill:#ffc542;}</style></defs><g transform="translate(-976 -21)"><g transform="translate(998.462 35.527) rotate(169)"><g transform="translate(6.817 10.535)"><path class="a" d="M83.347,344.363a1.377,1.377,0,1,0,1.377,1.377A1.379,1.379,0,0,0,83.347,344.363Zm0,1.836a.459.459,0,1,1,.459-.459A.46.46,0,0,1,83.347,346.2Z" transform="translate(-81.97 -344.363)"/></g><g transform="translate(4.445 0)"><path class="a" d="M19.836.761a.458.458,0,0,0-.415-.435h0L15.793,0A.459.459,0,0,0,15.3.369l-.264,1.323-1.323.265a.459.459,0,0,0-.36.36L13.09,3.639,11.767,3.9a.459.459,0,0,0-.344.3l-.542,1.56A5.031,5.031,0,1,0,14.3,9.056l5.4-5.35a.459.459,0,0,0,.136-.326V.783C19.838.776,19.837.769,19.836.761ZM9.493,14.745A4.13,4.13,0,1,1,11,6.771a.459.459,0,0,0,.6-.277l.6-1.741L13.57,4.48a.459.459,0,0,0,.36-.36L14.195,2.8l1.323-.265a.459.459,0,0,0,.36-.36L16.122.953l2.232.2L12.416,7.042a.459.459,0,0,0,0,.651A4.137,4.137,0,0,1,9.493,14.745ZM18.919,3.189,13.905,8.154a5.039,5.039,0,0,0-.53-.77l5.544-5.5Z" transform="translate(-4.445 0)"/></g></g><g transform="translate(999.462 35.527) rotate(169)"><g transform="translate(6.817 10.535)"><path class="b" d="M83.347,344.363a1.377,1.377,0,1,0,1.377,1.377A1.379,1.379,0,0,0,83.347,344.363Zm0,1.836a.459.459,0,1,1,.459-.459A.46.46,0,0,1,83.347,346.2Z" transform="translate(-81.97 -344.363)"/></g><g transform="translate(4.445 0)"><path class="b" d="M19.836.761a.458.458,0,0,0-.415-.435h0L15.793,0A.459.459,0,0,0,15.3.369l-.264,1.323-1.323.265a.459.459,0,0,0-.36.36L13.09,3.639,11.767,3.9a.459.459,0,0,0-.344.3l-.542,1.56A5.031,5.031,0,1,0,14.3,9.056l5.4-5.35a.459.459,0,0,0,.136-.326V.783C19.838.776,19.837.769,19.836.761ZM9.493,14.745A4.13,4.13,0,1,1,11,6.771a.459.459,0,0,0,.6-.277l.6-1.741L13.57,4.48a.459.459,0,0,0,.36-.36L14.195,2.8l1.323-.265a.459.459,0,0,0,.36-.36L16.122.953l2.232.2L12.416,7.042a.459.459,0,0,0,0,.651A4.137,4.137,0,0,1,9.493,14.745ZM18.919,3.189,13.905,8.154a5.039,5.039,0,0,0-.53-.77l5.544-5.5Z" transform="translate(-4.445 0)"/></g></g></g></svg>