<svg xmlns="http://www.w3.org/2000/svg" width="67.833" height="74.659" viewBox="0 0 67.833 74.659"><defs><style>.a{opacity:0.03;}</style></defs><g class="a"><path d="M77.937,31.269a9.751,9.751,0,0,0-6.718-3.384,9.651,9.651,0,0,0-3.362.337,10.044,10.044,0,0,0-4.5-6.043,9.907,9.907,0,0,0-7.425-.917,9.864,9.864,0,0,0-14.9-5.783c-4.72,2.829-9.578,5.615-14.278,8.309-2.363,1.356-4.729,2.712-7.039,4.05a13.335,13.335,0,0,0-7.17,12.081c-.071,7.676-.071,15.461,0,23.1a13.38,13.38,0,0,0,7.15,12.219l19.5,11.26a13.653,13.653,0,0,0,7.237,2.062,13.508,13.508,0,0,0,7.166-2.037q4.893-2.805,9.765-5.639c3.216-1.864,6.436-3.728,9.611-5.548a13.67,13.67,0,0,0,7.3-12.554V50.683c0-1.274,0-2.55-.022-3.821-.022-2.785-.047-5.663.047-8.477a9.765,9.765,0,0,0-2.352-7.115ZM75.86,62.7v.062a9.365,9.365,0,0,1-4.975,8.617Q61.058,77.06,51.191,82.755a9.068,9.068,0,0,1-9.583-.027L21.9,71.359a9.3,9.3,0,0,1-4.924-8.513c-.018-7.568-.018-15.133,0-22.749a8.968,8.968,0,0,1,4.709-8.238c7.323-4.292,14.76-8.582,22.1-12.763a5.282,5.282,0,0,1,2.694-.741,5.381,5.381,0,0,1,1.332.173,5.293,5.293,0,0,1,3.256,2.441,5.35,5.35,0,0,1,.639,1.687l.042.166a.5.5,0,0,1-.28.612l-.144.071c-3.786,2.15-7.556,4.332-11.318,6.513-2.856,1.653-5.712,3.307-8.528,4.918A12.8,12.8,0,0,0,24.6,46.7V60.68a8.615,8.615,0,0,0,4.03,7.723,8.4,8.4,0,0,0,8.051.018,8.42,8.42,0,0,0,4.057,6.959A8.655,8.655,0,0,0,49.5,74.95l3.329-1.937c2.832-1.647,5.663-3.293,8.473-4.882a12.851,12.851,0,0,0,6.915-11.868v-.415c.013-7.394.027-15.042-.027-22.565v-.153a.444.444,0,0,1,.333-.477l.144-.042a5.373,5.373,0,0,1,6.857,3.264,5.439,5.439,0,0,1,.306,1.862c.047,2.683.036,5.37.027,8.058v3.471ZM56.3,25.792a5.384,5.384,0,0,1,7.062,2.847,5.451,5.451,0,0,1,.4,1.578l-2.752,1.589q-2.386,1.383-4.782,2.758V33.8c0-2.663,0-5.275-.022-7.974Zm7.5,9.567c-.016,2.39-.011,4.778,0,7.168V56.255a8.5,8.5,0,0,1-4.576,7.938q-3.3,1.893-6.593,3.808l-5.619,3.249a4.483,4.483,0,0,1-4.676.064,3.2,3.2,0,0,1-1.332-3.264c.115-.85.464-3.438-1.2-4.6a2.617,2.617,0,0,0-1.525-.468,4.148,4.148,0,0,0-1.928.535c-.331.173-.652.362-.976.553s-.65.384-1.019.57a3.584,3.584,0,0,1-4.842-1.476,3.531,3.531,0,0,1-.411-1.394c-.169-5.339-.16-10.91.027-16.549a6.88,6.88,0,0,1,3.526-5.737c4.982-2.969,10.1-5.91,15.053-8.753L51.777,28.4l.011,1.451c.022,2.576.042,5.011,0,7.483a2.739,2.739,0,0,0,1.189,2.63,3.207,3.207,0,0,0,3.349-.32c2.5-1.389,5.015-2.827,7.477-4.29Z" transform="translate(-12.484 -13.897)"/><path d="M35.864,33.667A2.219,2.219,0,0,0,34.7,35.629V51.592a2.233,2.233,0,0,0,2.219,2.235h.035a2.237,2.237,0,0,0,1.194-.348l12.428-7.989a2.244,2.244,0,0,0,0-3.753L38.146,33.747A2.219,2.219,0,0,0,35.864,33.667Zm3.3,13.837V39.721l6.056,3.9Z" transform="translate(-4.795 -7.152)"/></g></svg>