<svg xmlns="http://www.w3.org/2000/svg" xmlns:xlink="http://www.w3.org/1999/xlink" width="44" height="44" viewBox="0 0 44 44"><defs><style>.a{fill:#fff;stroke:#fff;stroke-width:1.4px;}.b{opacity:0.5;clip-path:url(#a);}</style><clipPath id="a"><rect class="a" width="44" height="44" transform="translate(57 743)"/></clipPath></defs><g class="b" transform="translate(-57 -743)"><g transform="translate(58.833 744.833)"><path class="a" d="M37.813,39.611H2.521A2.524,2.524,0,0,1,0,37.09V20.285a2.524,2.524,0,0,1,2.521-2.521H8.4V11.882a.84.84,0,0,1,.487-.763L19.814,6.077a.836.836,0,0,1,.706,0l10.924,5.042a.84.84,0,0,1,.487.763v5.882h5.882a2.524,2.524,0,0,1,2.521,2.521V37.09A2.524,2.524,0,0,1,37.813,39.611ZM2.521,19.445a.842.842,0,0,0-.84.84V37.09a.842.842,0,0,0,.84.84H37.813a.842.842,0,0,0,.84-.84V20.285a.842.842,0,0,0-.84-.84H31.09a.841.841,0,0,1-.84-.84V12.42L20.167,7.766,10.083,12.42V18.6a.841.841,0,0,1-.84.84Z" transform="translate(0 0.722)"/><path class="a" d="M20.882,3.931H15.84a.84.84,0,0,1,0-1.681h5.042a.84.84,0,1,1,0,1.681Z" transform="translate(1.806 0.271)"/><path class="a" d="M18.09,8.4a.841.841,0,0,1-.84-.84V.84a.84.84,0,1,1,1.681,0V7.563A.841.841,0,0,1,18.09,8.4Z" transform="translate(2.076)"/><path class="a" d="M24.6,37.625a.841.841,0,0,1-.84-.84V29.222a5.042,5.042,0,0,0-10.083,0v7.563a.84.84,0,1,1-1.681,0V29.222a6.722,6.722,0,0,1,13.444,0v7.563A.841.841,0,0,1,24.6,37.625Z" transform="translate(1.444 2.708)"/></g></g></svg>