<svg xmlns="http://www.w3.org/2000/svg" width="50.428" height="50.43" viewBox="0 0 50.428 50.43"><defs><style>.a{opacity:0.05;}.b{fill:#fff;}</style></defs><g class="a" transform="translate(-0.007)"><g transform="translate(0.007)"><path class="b" d="M42.041,14.651a1,1,0,0,0,1.015-.985V2.955A3,3,0,0,0,40.011,0H3.053A3,3,0,0,0,.007,2.955v44.52A3,3,0,0,0,3.053,50.43H40.011a3,3,0,0,0,3.046-2.955V40.218a1.016,1.016,0,0,0-2.031,0v7.256a1,1,0,0,1-1.015.985H3.053a1,1,0,0,1-1.015-.985V2.955A1,1,0,0,1,3.053,1.97H40.011a1,1,0,0,1,1.015.985V13.666A1,1,0,0,0,42.041,14.651Z" transform="translate(-0.007)"/></g><g transform="translate(12.812 4.528)"><path class="b" d="M127.722,54a7.711,7.711,0,0,0-5.293,13.323.827.827,0,0,0,.09.084,7.7,7.7,0,0,0,10.406,0,.839.839,0,0,0,.09-.084A7.711,7.711,0,0,0,127.722,54Zm0,13.753a6.006,6.006,0,0,1-3.647-1.23,4.193,4.193,0,0,1,7.294,0A6.006,6.006,0,0,1,127.722,67.753ZM126.38,61.38v-.545a1.342,1.342,0,1,1,2.684,0v.545a1.342,1.342,0,1,1-2.684,0Zm6.2,3.915a5.818,5.818,0,0,0-2.471-2.071,3,3,0,0,0,.631-1.844v-.545a3.019,3.019,0,1,0-6.038,0v.545a3,3,0,0,0,.631,1.844,5.818,5.818,0,0,0-2.471,2.071,6.038,6.038,0,1,1,9.718,0Z" transform="translate(-120.007 -54)"/></g><g transform="translate(20.403 44.224)"><path class="b" d="M207.374,438h-4.528a.839.839,0,1,0,0,1.677h4.528a.839.839,0,1,0,0-1.677Z" transform="translate(-202.007 -438)"/></g><g transform="translate(12.008 37.853)"><path class="b" d="M126.754,382H114.846a.839.839,0,0,0,0,1.677h11.908a.839.839,0,0,0,0-1.677Z" transform="translate(-114.007 -382)"/></g><g transform="translate(12.008 32.303)"><path class="b" d="M126.754,326H114.846a.839.839,0,1,0,0,1.677h11.908a.839.839,0,1,0,0-1.677Z" transform="translate(-114.007 -326)"/></g><g transform="translate(5.985 26.754)"><path class="b" d="M72.719,270.246a.838.838,0,1,0,.246.593A.845.845,0,0,0,72.719,270.246Z" transform="translate(-71.287 -270)"/></g><g transform="translate(5.985 32.303)"><path class="b" d="M72.719,326.246a.838.838,0,1,0,.246.593A.847.847,0,0,0,72.719,326.246Z" transform="translate(-71.287 -326)"/></g><g transform="translate(5.985 37.853)"><path class="b" d="M72.719,382.246a.838.838,0,1,0,.246.593A.847.847,0,0,0,72.719,382.246Z" transform="translate(-71.287 -382)"/></g><g transform="translate(12.008 26.754)"><path class="b" d="M126.754,270H114.846a.839.839,0,1,0,0,1.677h11.908a.839.839,0,1,0,0-1.677Z" transform="translate(-114.007 -270)"/></g><g transform="translate(32.455 17.949)"><path class="b" d="M313.809,125.149A3.522,3.522,0,0,0,309,126.438l-10.553,18.278a.839.839,0,0,0-.107.326l-.743,6.654a.839.839,0,0,0,1.331.768l5.391-3.97a.837.837,0,0,0,.229-.256L315.1,129.96A3.526,3.526,0,0,0,313.809,125.149Zm-14.335,24.829.388-3.474,2.427,1.4Zm4.038-3.3-3.2-1.845,8.469-14.668,3.2,1.845Zm10.134-17.552-.827,1.432-3.2-1.845.827-1.432a1.845,1.845,0,0,1,3.2,1.845Z" transform="translate(-297.589 -124.675)"/></g></g></svg>