<svg xmlns="http://www.w3.org/2000/svg" width="23" height="22.999" viewBox="0 0 23 22.999"><defs><style>.a{fill:#fff;}</style></defs><g transform="translate(0 -0.007)"><g transform="translate(0 0.007)"><path class="a" d="M378.159,53.544a.449.449,0,0,0,0-.9h0a.449.449,0,1,0,0,.9Z" transform="translate(-360.741 -50.281)"/><path class="a" d="M432.13,53.544a.449.449,0,0,0,0-.9h0a.449.449,0,1,0,0,.9Z" transform="translate(-412.287 -50.281)"/><path class="a" d="M324.188,53.544a.449.449,0,0,0,0-.9h0a.449.449,0,1,0,0,.9Z" transform="translate(-309.195 -50.281)"/><path class="a" d="M60.712,53.544h6.75a.449.449,0,0,0,0-.9h-6.75a.449.449,0,0,0,0,.9Z" transform="translate(-57.556 -50.281)"/><path class="a" d="M21.559.007H1.441A1.443,1.443,0,0,0,0,1.448V18.082a1.443,1.443,0,0,0,1.441,1.441h3.6a7.81,7.81,0,0,0,1,1.218,7.736,7.736,0,0,0,11.929-1.218h3.6A1.443,1.443,0,0,0,23,18.082V1.448A1.443,1.443,0,0,0,21.559.007ZM1.441.905H21.559a.543.543,0,0,1,.543.543V4.737H.9V1.448A.543.543,0,0,1,1.441.905ZM21.559,18.625h-3.09a7.745,7.745,0,0,0-1.5-8.818,7.662,7.662,0,0,0-4.438-2.2,7.79,7.79,0,0,0-4.772.894.449.449,0,0,0,.435.786,6.835,6.835,0,0,1,8.139,10.814,6.833,6.833,0,0,1-9.665,0,6.864,6.864,0,0,1-1.151-8.138.449.449,0,1,0-.786-.435A7.789,7.789,0,0,0,3.836,16.3a7.7,7.7,0,0,0,.691,2.32H1.441A.543.543,0,0,1,.9,18.082V5.636H22.1V18.082a.543.543,0,0,1-.543.543Z" transform="translate(0 -0.007)"/><path class="a" d="M246.435,355.593a.449.449,0,0,0,.449-.449v-1.072a.449.449,0,0,0-.9,0v1.072A.449.449,0,0,0,246.435,355.593Z" transform="translate(-234.936 -337.737)"/><path class="a" d="M174.152,235.054A3.853,3.853,0,0,0,178,231.205v-1.718a1.2,1.2,0,0,0-.969-1.171v-1.178a2.408,2.408,0,0,0-2.405-2.405h-.95a2.408,2.408,0,0,0-2.405,2.405v1.178a1.2,1.2,0,0,0-.969,1.171v1.718A3.853,3.853,0,0,0,174.152,235.054Zm-1.982-7.916a1.508,1.508,0,0,1,1.507-1.507h.95a1.508,1.508,0,0,1,1.507,1.507v1.156H172.17Zm-.969,2.349a.3.3,0,0,1,.3-.294h5.311a.3.3,0,0,1,.294.294v1.718a2.951,2.951,0,1,1-5.9,0Z" transform="translate(-162.653 -214.638)"/><path class="a" d="M131.487,215.363a.449.449,0,1,0,.635.635h0a.449.449,0,0,0-.637-.634Z" transform="translate(-125.455 -205.562)"/></g></g></svg>