<svg xmlns="http://www.w3.org/2000/svg" width="47.11" height="47.109" viewBox="0 0 47.11 47.109"><defs><style>.a{opacity:0.05;}.b{fill:#fff;}</style></defs><g class="a" transform="translate(0 -0.007)"><g transform="translate(0 0.007)"><path class="b" d="M378.631,54.486a.92.92,0,0,0,0-1.84h-.005a.92.92,0,1,0,.005,1.84Z" transform="translate(-342.954 -47.803)"/><path class="b" d="M432.6,54.486a.92.92,0,0,0,0-1.84H432.6a.92.92,0,1,0,.005,1.84Z" transform="translate(-391.959 -47.803)"/><path class="b" d="M324.661,54.486a.92.92,0,0,0,0-1.84h-.005a.92.92,0,1,0,.005,1.84Z" transform="translate(-293.95 -47.803)"/><path class="b" d="M61.183,54.486H75.009a.92.92,0,1,0,0-1.84H61.183a.92.92,0,0,0,0,1.84Z" transform="translate(-54.718 -47.803)"/><path class="b" d="M44.159.007H2.952A2.955,2.955,0,0,0,0,2.959V37.03a2.955,2.955,0,0,0,2.952,2.952h7.364a16,16,0,0,0,2.04,2.5,15.845,15.845,0,0,0,24.434-2.5h7.369A2.955,2.955,0,0,0,47.11,37.03V2.959A2.955,2.955,0,0,0,44.159.007ZM2.952,1.847H44.159A1.113,1.113,0,0,1,45.27,2.959V9.7H1.84V2.959A1.113,1.113,0,0,1,2.952,1.847ZM44.159,38.141h-6.33A15.864,15.864,0,0,0,34.755,20.08a15.7,15.7,0,0,0-9.089-4.5,15.957,15.957,0,0,0-9.773,1.832.92.92,0,0,0,.891,1.61A14,14,0,0,1,33.453,41.175a14,14,0,0,1-19.8,0A14.059,14.059,0,0,1,11.3,24.507a.92.92,0,1,0-1.61-.891,15.954,15.954,0,0,0-1.832,9.772,15.769,15.769,0,0,0,1.415,4.753H2.952A1.113,1.113,0,0,1,1.84,37.03V11.536H45.27V37.03a1.113,1.113,0,0,1-1.112,1.112Z" transform="translate(0 -0.007)"/><path class="b" d="M246.906,357.658a.92.92,0,0,0,.92-.92v-2.2a.92.92,0,0,0-1.84,0v2.2A.92.92,0,0,0,246.906,357.658Z" transform="translate(-223.352 -321.085)"/><path class="b" d="M178.187,245.874a7.893,7.893,0,0,0,7.884-7.884v-3.518a2.447,2.447,0,0,0-1.985-2.4v-2.413a4.932,4.932,0,0,0-4.926-4.926h-1.946a4.932,4.932,0,0,0-4.926,4.926v2.413a2.448,2.448,0,0,0-1.985,2.4v3.518A7.893,7.893,0,0,0,178.187,245.874Zm-4.059-16.215a3.09,3.09,0,0,1,3.086-3.086h1.946a3.09,3.09,0,0,1,3.086,3.086v2.369h-8.118Zm-1.985,4.812a.612.612,0,0,1,.606-.6h10.879a.611.611,0,0,1,.6.6v3.518a6.044,6.044,0,1,1-12.087,0Z" transform="translate(-154.633 -204.055)"/><path class="b" d="M131.625,215.5a.92.92,0,1,0,1.3,1.3l0,0a.92.92,0,0,0-1.3-1.3Z" transform="translate(-119.269 -195.427)"/></g></g></svg>