<svg xmlns="http://www.w3.org/2000/svg" xmlns:xlink="http://www.w3.org/1999/xlink" width="48" height="48" viewBox="0 0 48 48"><defs><style>.a{fill:#fff;}.b{opacity:0.5;clip-path:url(#a);}</style><clipPath id="a"><rect class="a" width="48" height="48" transform="translate(0.333 0)"/></clipPath></defs><g class="b" transform="translate(-0.333 0)"><g transform="translate(2.133 5.798)"><g transform="translate(0.048 5.461)"><path class="a" d="M39.134,38.435H4.551A4.506,4.506,0,0,1,0,33.885V12.042A4.506,4.506,0,0,1,4.551,7.492H39.134a4.506,4.506,0,0,1,4.55,4.551V33.885A4.506,4.506,0,0,1,39.134,38.435ZM4.551,9.312a2.8,2.8,0,0,0-2.73,2.73V33.885a2.8,2.8,0,0,0,2.73,2.73H39.134a2.8,2.8,0,0,0,2.73-2.73V12.042a2.8,2.8,0,0,0-2.73-2.73Z" transform="translate(0 -7.492)"/></g><g transform="translate(14.61 0)"><path class="a" d="M25.638,10.277a.86.86,0,0,1-.91-.91V5.727a.86.86,0,0,0-.91-.91h-9.1a.86.86,0,0,0-.91.91v3.64a.91.91,0,0,1-1.82,0V5.727A2.8,2.8,0,0,1,14.717,3h9.1a2.8,2.8,0,0,1,2.73,2.73v3.64A.86.86,0,0,1,25.638,10.277Z" transform="translate(-11.987 -2.997)"/></g><g transform="translate(0 12.673)"><path class="a" d="M21.851,22.6h-.364L.555,15.317a1.11,1.11,0,0,1-.546-1.274A1.11,1.11,0,0,1,1.283,13.5l20.568,7.281L42.419,13.5a.763.763,0,0,1,1.092.546.763.763,0,0,1-.546,1.092L22.033,22.416c0,.182,0,.182-.182.182Z" transform="translate(0.04 -13.429)"/></g></g></g></svg>