<svg xmlns="http://www.w3.org/2000/svg" xmlns:xlink="http://www.w3.org/1999/xlink" width="41" height="40" viewBox="0 0 41 40"><defs><style>.a,.c{fill:#fff;stroke:#fff;}.b{opacity:0.5;clip-path:url(#a);}.c{stroke-width:1.5px;}</style><clipPath id="a"><rect class="a" width="41" height="40" transform="translate(170 743.5)"/></clipPath></defs><g class="b" transform="translate(-170 -743.5)"><g transform="translate(171.969 744.969)"><path class="c" d="M32.753,36.3H3.808A3.814,3.814,0,0,1,0,32.5V17.261a.762.762,0,0,1,1.523,0V32.5A2.288,2.288,0,0,0,3.808,34.78H32.753A2.288,2.288,0,0,0,35.038,32.5V17.261a.762.762,0,0,1,1.523,0V32.5A3.814,3.814,0,0,1,32.753,36.3Z" transform="translate(0 0.258)"/><path class="c" d="M35.8,18.281H.762a.761.761,0,0,1-.734-.963L3.988,2.8A3.82,3.82,0,0,1,7.663,0H9.948a.762.762,0,0,1,.759.695,7.605,7.605,0,0,0,15.149,0A.762.762,0,0,1,26.614,0H28.9a3.821,3.821,0,0,1,3.674,2.8l3.962,14.519a.761.761,0,0,1-.736.963ZM1.76,16.757H34.8L31.1,3.2a2.292,2.292,0,0,0-2.2-1.679H27.284a9.07,9.07,0,0,1-9,7.617,9.073,9.073,0,0,1-9-7.617H7.663A2.294,2.294,0,0,0,5.457,3.2Z" transform="translate(0 0)"/><path class="c" d="M35.354,30.14h-4.57A2.288,2.288,0,0,1,28.5,27.855v-4.57A2.288,2.288,0,0,1,30.784,21h4.57a.762.762,0,1,1,0,1.523h-4.57a.762.762,0,0,0-.762.762v4.57a.762.762,0,0,0,.762.762h4.57a.762.762,0,1,1,0,1.523Z" transform="translate(0.445 0.328)"/><path class="c" d="M5.332,30.14H.762a.762.762,0,1,1,0-1.523h4.57a.762.762,0,0,0,.762-.762v-4.57a.762.762,0,0,0-.762-.762H.762A.762.762,0,0,1,.762,21h4.57a2.288,2.288,0,0,1,2.285,2.285v4.57A2.288,2.288,0,0,1,5.332,30.14Z" transform="translate(0 0.328)"/><path class="c" d="M23.425,26.273H12.761a.762.762,0,1,1,0-1.523H23.425a.762.762,0,1,1,0,1.523Z" transform="translate(0.187 0.387)"/></g></g></svg>