<svg xmlns="http://www.w3.org/2000/svg" width="23" height="15.999" viewBox="0 0 23 15.999"><defs><style>.a{fill:#ffffff;}</style></defs><path class="a" d="M-4647.479,9641a.454.454,0,0,1-.449-.457.454.454,0,0,1,.449-.457h6.334a2.26,2.26,0,0,0,2.2-1.83h-21.113a2.261,2.261,0,0,0,2.2,1.83h6.334a.454.454,0,0,1,.449.457.454.454,0,0,1-.449.457h-6.334a3.176,3.176,0,0,1-3.145-3.2.453.453,0,0,1,.449-.458h1.572v-11.885a.453.453,0,0,1,.449-.457h18.059a.453.453,0,0,1,.449.457v11.885h1.572a.453.453,0,0,1,.449.458,3.176,3.176,0,0,1-3.144,3.2Zm1.123-5.028v1.371h5.435v-11.427h-17.16v11.427h5.436v-1.371a3.176,3.176,0,0,1,3.145-3.2A3.177,3.177,0,0,1-4646.355,9635.972Zm-5.391,0v1.371h4.492v-1.371a2.269,2.269,0,0,0-2.246-2.286A2.269,2.269,0,0,0-4651.746,9635.972Zm.449-5.028a1.815,1.815,0,0,1,1.8-1.828,1.815,1.815,0,0,1,1.8,1.828,1.815,1.815,0,0,1-1.8,1.828A1.815,1.815,0,0,1-4651.3,9630.943Zm.9,0a.907.907,0,0,0,.9.914.908.908,0,0,0,.9-.914.908.908,0,0,0-.9-.914A.907.907,0,0,0-4650.4,9630.943Z" transform="translate(4661 -9625.001)"/></svg>