<svg xmlns="http://www.w3.org/2000/svg" width="33.129" height="30.771" viewBox="0 0 33.129 30.771"><defs><style>.a{fill:#adbac1;stroke:#324b55;stroke-linecap:round;}</style></defs><g transform="translate(0.499 0.5)"><path class="a" d="M27.02,0H5A5.009,5.009,0,0,0,0,5V22.516a5.009,5.009,0,0,0,5,5H22.078a1.251,1.251,0,0,0,0-2.5H17.471L14.6,21.287,23.709,9.694l6.136,6.781a1.251,1.251,0,0,0,2.178-.839V5a5.009,5.009,0,0,0-5-5Zm2.5,12.389L24.57,6.916a1.251,1.251,0,0,0-1.911.066l-9.639,12.26L9.747,15a1.251,1.251,0,0,0-.991-.487h0A1.251,1.251,0,0,0,7.765,15L5.012,18.577A1.251,1.251,0,0,0,7,20.1l1.762-2.291,5.555,7.206H5a2.5,2.5,0,0,1-2.5-2.5V5A2.5,2.5,0,0,1,5,2.5H27.02a2.5,2.5,0,0,1,2.5,2.5Zm0,0" transform="translate(0.001 0)"/><path class="a" d="M83.753,72a3.753,3.753,0,1,0,3.753,3.753A3.757,3.757,0,0,0,83.753,72Zm0,5A1.251,1.251,0,1,1,85,75.753,1.252,1.252,0,0,1,83.753,77Zm0,0" transform="translate(-74.995 -67.497)"/><path class="a" d="M360.222,288.934l-.011-.011a3.118,3.118,0,0,0-4.424-.005l-2.415,2.382a1.251,1.251,0,0,0,1.757,1.781l1.617-1.594v7.021a1.251,1.251,0,1,0,2.5,0v-6.983l1.547,1.6a1.251,1.251,0,1,0,1.8-1.74Zm0,0" transform="translate(-330.92 -269.987)"/></g></svg>