<svg xmlns="http://www.w3.org/2000/svg">
<defs>
<font id="GTEestiProDisplay-Medium" horiz-adv-x="600" >
  <font-face 
    font-family="GT Eesti Pro Display Medium"
    font-weight="500"
    font-stretch="normal"
    units-per-em="1000"
    panose-1="0 0 6 0 0 0 0 0 0 0"
    ascent="750"
    descent="-250"
    x-height="462"
    cap-height="700"
    bbox="-424.999 -252 1204 882"
    underline-thickness="50"
    underline-position="-50"
    unicode-range="U+0020-U+FB02"
  />
<missing-glyph horiz-adv-x="770" 
d="M385 -15c-105.333 0 -192.5 34.5 -261.5 103.5s-103.5 156.167 -103.5 261.5c0 106 34.5 193.333 103.5 262s156.167 103 261.5 103c106 0 193.333 -34.333 262 -103s103 -156 103 -262c0 -105.333 -34.333 -192.5 -103 -261.5s-156 -103.5 -262 -103.5zM385 10
c98.667 0 180.332 32.667 244.999 98s97 147.666 97 246.999l-51 65l-70 -30l-68 90l-79 -44l-74 118l-74 -118l-79 44l-68 -90l-70 30l-51 -65c0 -99.333 32.333 -181.666 97 -246.999s146.334 -98 245.001 -98zM281.998 318c-10 0 -18.333 3.33301 -25 10s-10 15 -10 25
s3.33301 18.333 10 25s15 10 25 10s18.333 -3.33301 25 -10s10 -15 10 -25s-3.33301 -18.333 -10 -25s-15 -10 -25 -10zM486.998 318c-10 0 -18.333 3.33301 -25 10s-10 15 -10 25s3.33301 18.333 10 25s15 10 25 10s18.333 -3.33301 25 -10s10 -15 10 -25
s-3.33301 -18.333 -10 -25s-15 -10 -25 -10zM342.998 255l36 101c1.33301 6 5 7.66699 11 5c6 -1.33301 7.66699 -5 5 -11l-28 -78h34c6 0 9 -3 9 -9c0 -5.33301 -3 -8 -9 -8h-58zM187.998 171c-20 0 -36.5 6.5 -49.5 19.5s-19.5 29.5 -19.5 49.5s6.5 36.5 19.5 49.5
s29.5 19.5 49.5 19.5s36.5 -6.5 49.5 -19.5s19.5 -29.5 19.5 -49.5s-6.5 -36.5 -19.5 -49.5s-29.5 -19.5 -49.5 -19.5zM580.998 171c-20 0 -36.5 6.5 -49.5 19.5s-19.5 29.5 -19.5 49.5s6.5 36.5 19.5 49.5s29.5 19.5 49.5 19.5s36.5 -6.5 49.5 -19.5s19.5 -29.5 19.5 -49.5
s-6.5 -36.5 -19.5 -49.5s-29.5 -19.5 -49.5 -19.5zM384.998 193c-30.667 0 -51.332 -10 -61.999 -30c-2 -4 -5 -6 -9 -6c-5.33301 0 -8 3 -8 9c0 11.333 8.16699 21.666 24.5 30.999s34.5 14 54.5 14s38.167 -4.66699 54.5 -14s24.5 -19.666 24.5 -30.999

<glyph glyph-name="fi" unicode="fi" horiz-adv-x="562" 
d="M93 508c0 66.667 16.667 117 50 151s82.666 51 147.999 51h25v-114h-14c-29.333 0 -51.166 -6.66699 -65.499 -20s-21.5 -36 -21.5 -68v-46h95v-103h-95v-359h-122v359h-77v103h77v46zM374 694h140v-135h-140v135zM382 0v462h123v-462h-123z" />
    <glyph glyph-name="fl" unicode="fl" horiz-adv-x="562" 
d="M93 508c0 66.667 16.667 117 50 151s82.666 51 147.999 51h25v-114h-14c-29.333 0 -51.166 -6.66699 -65.499 -20s-21.5 -36 -21.5 -68v-46h95v-103h-95v-359h-122v359h-77v103h77v46zM382 700h123v-700h-123v700z" />
    <glyph glyph-name="f_f" unicode="ff" horiz-adv-x="654" 
d="M93 508c0 66.667 16.667 117 50 151s82.666 51 147.999 51h25v-114h-14c-29.333 0 -51.166 -6.66699 -65.499 -20s-21.5 -36 -21.5 -68v-46h95v-103h-95v-359h-122v359h-77v103h77v46zM630 596c-29.333 0 -51.166 -6.66699 -65.499 -20s-21.5 -36 -21.5 -68v-46h95v-103
h-95v-359h-122v359h-77v103h77v46c0 66.667 16.667 117 50 151s82.666 51 147.999 51h25v-114h-14z" />
    <glyph glyph-name="f_f_i" unicode="ffi" horiz-adv-x="890" 
d="M93 508c0 66.667 16.667 117 50 151s82.666 51 147.999 51h25v-114h-14c-29.333 0 -51.166 -6.66699 -65.499 -20s-21.5 -36 -21.5 -68v-46h95v-103h-95v-359h-122v359h-77v103h77v46zM421 508c0 66.667 16.667 117 50 151s82.666 51 147.999 51h25v-114h-14
c-29.333 0 -51.166 -6.66699 -65.499 -20s-21.5 -36 -21.5 -68v-46h95v-103h-95v-359h-122v359h-77v103h77v46zM702 694h140v-135h-140v135zM710 0v462h123v-462h-123z" />
    <glyph glyph-name="f_f_l" unicode="ffl" horiz-adv-x="890" 
d="M93 508c0 66.667 16.667 117 50 151s82.666 51 147.999 51h25v-114h-14c-29.333 0 -51.166 -6.66699 -65.499 -20s-21.5 -36 -21.5 -68v-46h95v-103h-95v-359h-122v359h-77v103h77v46zM421 508c0 66.667 16.667 117 50 151s82.666 51 147.999 51h25v-114h-14
c-29.333 0 -51.166 -6.66699 -65.499 -20s-21.5 -36 -21.5 -68v-46h95v-103h-95v-359h-122v359h-77v103h77v46zM710 700h123v-700h-123v700z" />
    <glyph glyph-name=".notdef" horiz-adv-x="770" 
d="M385 -15c-105.333 0 -192.5 34.5 -261.5 103.5s-103.5 156.167 -103.5 261.5c0 106 34.5 193.333 103.5 262s156.167 103 261.5 103c106 0 193.333 -34.333 262 -103s103 -156 103 -262c0 -105.333 -34.333 -192.5 -103 -261.5s-156 -103.5 -262 -103.5zM385 10
c98.667 0 180.332 32.667 244.999 98s97 147.666 97 246.999l-51 65l-70 -30l-68 90l-79 -44l-74 118l-74 -118l-79 44l-68 -90l-70 30l-51 -65c0 -99.333 32.333 -181.666 97 -246.999s146.334 -98 245.001 -98zM281.998 318c-10 0 -18.333 3.33301 -25 10s-10 15 -10 25
s3.33301 18.333 10 25s15 10 25 10s18.333 -3.33301 25 -10s10 -15 10 -25s-3.33301 -18.333 -10 -25s-15 -10 -25 -10zM486.998 318c-10 0 -18.333 3.33301 -25 10s-10 15 -10 25s3.33301 18.333 10 25s15 10 25 10s18.333 -3.33301 25 -10s10 -15 10 -25
s-3.33301 -18.333 -10 -25s-15 -10 -25 -10zM342.998 255l36 101c1.33301 6 5 7.66699 11 5c6 -1.33301 7.66699 -5 5 -11l-28 -78h34c6 0 9 -3 9 -9c0 -5.33301 -3 -8 -9 -8h-58zM187.998 171c-20 0 -36.5 6.5 -49.5 19.5s-19.5 29.5 -19.5 49.5s6.5 36.5 19.5 49.5
s29.5 19.5 49.5 19.5s36.5 -6.5 49.5 -19.5s19.5 -29.5 19.5 -49.5s-6.5 -36.5 -19.5 -49.5s-29.5 -19.5 -49.5 -19.5zM580.998 171c-20 0 -36.5 6.5 -49.5 19.5s-19.5 29.5 -19.5 49.5s6.5 36.5 19.5 49.5s29.5 19.5 49.5 19.5s36.5 -6.5 49.5 -19.5s19.5 -29.5 19.5 -49.5
s-6.5 -36.5 -19.5 -49.5s-29.5 -19.5 -49.5 -19.5zM384.998 193c-30.667 0 -51.332 -10 -61.999 -30c-2 -4 -5 -6 -9 -6c-5.33301 0 -8 3 -8 9c0 11.333 8.16699 21.666 24.5 30.999s34.5 14 54.5 14s38.167 -4.66699 54.5 -14s24.5 -19.666 24.5 -30.999
c0 -6 -2.66699 -9 -8 -9c-4 0 -7 2 -9 6c-10.667 20 -31.334 30 -62.001 30z" />
    <glyph glyph-name="space" unicode=" " horiz-adv-x="277" 
 />
    <glyph glyph-name="exclam" unicode="!" horiz-adv-x="323" 
d="M118 220l-28 480h142l-27 -480h-87zM231 139v-139h-139v139h139z" />
    <glyph glyph-name="quotedbl" unicode="&#x22;" horiz-adv-x="321" 
d="M73 462l-23 253h96l-23 -253h-50zM198 462l-23 253h96l-23 -253h-50z" />
    <glyph glyph-name="numbersign" unicode="#" horiz-adv-x="636" 
d="M586 447h-120l-31 -174h113v-58h-124l-39 -215h-63l39 215h-136l-39 -215h-63l39 215h-112v58h123l31 174h-116v58h127l35 195h63l-35 -195h136l35 195h63l-35 -195h109v-58zM372 273l31 174h-136l-31 -174h136z" />
    <glyph glyph-name="dollar" unicode="$" horiz-adv-x="532" 
d="M502 189c0 -60.667 -19.334 -109.001 -58.001 -145.001s-91.334 -55.667 -158.001 -59v-62h-28v62c-71.333 2 -127.166 22.667 -167.499 62s-60.5 90.666 -60.5 153.999h126c5.33301 -65.333 39.333 -100 102 -104v198c-61.333 26 -102.666 46.667 -123.999 62
c-50 36.667 -75 87 -75 151c0 55.333 17.667 98.833 53 130.5s84 48.834 146 51.501v72h28v-72c62 -2.66699 111.5 -20.667 148.5 -54s55.5 -82 55.5 -146h-125c-2 54 -28.333 82.667 -79 86v-161c62.667 -25.333 104 -44.666 124 -57.999c61.333 -40 92 -96 92 -168z
M182.999 508.999c0 -31.333 25 -58.667 75 -82v150c-50 -4 -75 -26.667 -75 -68zM285.999 96.998c60.667 4.66699 91 32 91 82c0 24.667 -7.83301 44.667 -23.5 60s-38.167 30 -67.5 44v-186z" />
    <glyph glyph-name="percent" unicode="%" horiz-adv-x="774" 
d="M212 690c47.333 0 86.167 -15 116.5 -45s45.5 -69 45.5 -117s-15 -87 -45 -117s-69 -45 -117 -45c-47.333 0 -86.166 15 -116.499 45s-45.5 69 -45.5 117s15.167 87 45.5 117s69.166 45 116.499 45zM152.001 0l395 675h67l-395 -675h-67zM212.001 627
c-28.667 0 -51.667 -9.16699 -69 -27.5s-26 -42.166 -26 -71.499s8.66699 -53.166 26 -71.499s40.333 -27.5 69 -27.5s51.667 9.16699 69 27.5s26 42.166 26 71.499s-8.66699 53.166 -26 71.499s-40.333 27.5 -69 27.5zM562.001 319c48 0 86.998 -15 116.998 -45
s45 -69 45 -117s-15.167 -87 -45.5 -117s-69.166 -45 -116.499 -45s-86.166 15 -116.499 45s-45.5 69 -45.5 117s15 87 45 117s69 45 117 45zM561.999 256c-28.667 0 -51.667 -9.16699 -69 -27.5s-26 -42.166 -26 -71.499s8.66699 -53.166 26 -71.499s40.333 -27.5 69 -27.5
s51.667 9.16699 69 27.5s26 42.166 26 71.499s-8.66699 53.166 -26 71.499s-40.333 27.5 -69 27.5z" />
    <glyph glyph-name="ampersand" unicode="&#x26;" horiz-adv-x="700" 
d="M666 311c-36 -74 -69.999 -132.669 -101.999 -176.002l98 -135h-146l-35 49c-55.333 -42.667 -118.666 -64 -189.999 -64c-74 0 -134.167 20 -180.5 60s-69.5 96.333 -69.5 169c0 52.667 13.833 98.167 41.5 136.5s67.167 65.833 118.5 82.5
c-28 40.667 -42 81.334 -42 122.001c0 42 14.833 75 44.5 99s71.5 36 125.5 36c49.333 0 99.666 -9 150.999 -27l-35 -108c-43.333 13.333 -79 20 -107 20c-33.333 0 -50 -12.333 -50 -37c0 -15.333 8.66699 -35 26 -59l176 -242
c23.333 34.667 46.666 77.334 69.999 128.001zM290.001 104.998c43.333 0 83 14 119 42l-142 195c-31.333 -9.33301 -56 -24.5 -74 -45.5s-27 -46.5 -27 -76.5c0 -36 11.167 -64.167 33.5 -84.5s52.5 -30.5 90.5 -30.5z" />
    <glyph glyph-name="quotesingle" unicode="'" horiz-adv-x="206" 
d="M156 715l-23 -253h-60l-23 253h106z" />
    <glyph glyph-name="parenleft" unicode="(" horiz-adv-x="315" 
d="M206 777l88.999 -58.999c-45.333 -64.667 -80 -130.834 -104 -198.501s-36 -143.834 -36 -228.501c0 -161.333 46 -310.333 138 -447l-89 -59c-51.333 77.333 -90.833 155.5 -118.5 234.5s-41.5 169.5 -41.5 271.5c0 100 13.833 187.333 41.5 262
s67.834 149.334 120.501 224.001z" />
    <glyph glyph-name="parenright" unicode=")" horiz-adv-x="315" 
d="M111 -215l-88.999 59c91.333 136 137 285 137 447c0 85.333 -12 161.833 -36 229.5s-58.667 133.5 -104 197.5l90 59c52 -75.333 91.833 -150.166 119.5 -224.499s41.5 -161.5 41.5 -261.5c0 -102.667 -13.833 -193.334 -41.5 -272.001s-66.834 -156.667 -117.501 -234z
" />
    <glyph glyph-name="asterisk" unicode="*" horiz-adv-x="421" 
d="M391 553l-124 -31l82 -98l-71 -52l-67 108l-69 -109l-70 53l82 98l-124 31l27 82l119 -48l-9 128h87l-9 -127l119 47z" />
    <glyph glyph-name="plus" unicode="+" 
d="M329 541v-216h215v-54h-215v-216h-58v216h-215v54h215v216h58z" />
    <glyph glyph-name="comma" unicode="," horiz-adv-x="236" 
d="M187 139v-139l-80 -153h-56l54 153h-56v139h138z" />
    <glyph glyph-name="hyphen" unicode="-" horiz-adv-x="358" 
d="M315 322v-114h-272v114h272z" />
    <glyph glyph-name="period" unicode="." horiz-adv-x="235" 
d="M187 139v-139h-139v139h139z" />
    <glyph glyph-name="slash" unicode="/" horiz-adv-x="622" 
d="M501 786l91 -50l-471 -848l-91 49z" />
    <glyph glyph-name="zero" unicode="0" horiz-adv-x="592" 
d="M296 690c82.667 0 146.167 -30.5 190.5 -91.5s66.5 -147.833 66.5 -260.5s-22.333 -199.667 -67 -261s-108 -92 -190 -92c-82.667 0 -146.167 30.5 -190.5 91.5s-66.5 148.167 -66.5 261.5c0 112.667 22.167 199.5 66.5 260.5s107.833 91.5 190.5 91.5zM296 574
c-41.333 0 -73.333 -20.667 -96 -62s-34 -99.333 -34 -174s11.5 -132.834 34.5 -174.501s54.833 -62.5 95.5 -62.5s72.334 20.833 95.001 62.5s34 99.834 34 174.501s-11.333 132.667 -34 174s-54.334 62 -95.001 62z" />
    <glyph glyph-name="one" unicode="1" horiz-adv-x="326" 
d="M226 675v-675h-124v555h-40v120h164z" />
    <glyph glyph-name="two" unicode="2" horiz-adv-x="515" 
d="M33 0v94.0029l230 246c32 33.333 54.5 61.166 67.5 83.499s19.5 44.166 19.5 65.499c0 27.333 -8.33301 48.666 -25 63.999s-39.334 23 -68.001 23c-31.333 0 -56 -8.83301 -74 -26.5s-27.333 -42.5 -28 -74.5h-124c1.33301 67.333 22.333 120 63 158
s96.334 57 167.001 57c67.333 0 120.166 -17.167 158.499 -51.5s57.5 -81.5 57.5 -141.5c0 -37.333 -8.66699 -72.5 -26 -105.5s-46.666 -70.5 -87.999 -112.5l-160 -167l275 1v-113h-445z" />
    <glyph glyph-name="three" unicode="3" horiz-adv-x="529" 
d="M256 690c68.667 0 122.335 -15.5 161.002 -46.5s58 -74.167 58 -129.5c0 -39.333 -10.5 -72.5 -31.5 -99.5s-50.5 -44.833 -88.5 -53.5v-2c46 -6 81.333 -23.5 106 -52.5s37 -67.833 37 -116.5c0 -64 -20.833 -114.167 -62.5 -150.5s-99.5 -54.5 -173.5 -54.5
c-75.333 0 -134 18.167 -176 54.5s-63.667 87.5 -65 153.5h127c2 -30 13 -53.167 33 -69.5s47.333 -24.5 82 -24.5c70.667 0 106 34 106 102c0 36 -11.333 61.667 -34 77s-60.334 22.666 -113.001 21.999h-28v100h28c81.333 0 122 30.667 122 92
c0 26.667 -8 47.334 -24 62.001s-38.667 22 -68 22c-30 0 -53.5 -7.16699 -70.5 -21.5s-25.833 -34.5 -26.5 -60.5h-125c0.666992 61.333 21.167 109.333 61.5 144s95.166 52 164.499 52z" />
    <glyph glyph-name="four" unicode="4" horiz-adv-x="559" 
d="M532 228v-112h-67v-116h-117v116h-330v98l324 461h123v-447h67zM146 228h202v282h-4z" />
    <glyph glyph-name="five" unicode="5" horiz-adv-x="535" 
d="M297 445c64.667 0 116.333 -20 155 -60s58 -93.333 58 -160c0 -74.667 -22.333 -133.334 -67 -176.001s-106 -64 -184 -64c-104 0 -182.333 38 -235 114l85 84c38 -56 88 -84 150 -84c38 0 68 11.333 90 34s33 53.667 33 93c0 36.667 -10.167 65.834 -30.5 87.501
s-48.166 32.5 -83.499 32.5c-46.667 0 -81.334 -17.667 -104.001 -53h-102l35 382h353v-113h-261l-16 -156h2c30 26 70.667 39 122 39z" />
    <glyph glyph-name="six" unicode="6" horiz-adv-x="548" 
d="M280 -15c-78 0 -139.833 22.668 -185.5 68.001s-68.5 106.333 -68.5 183c0 51.333 10 100.166 30 146.499s52.333 95.833 97 148.5l125 149h150l-242 -280l3 -2c36.667 36 78 54 124 54c63.333 0 115 -21 155 -63s60 -97 60 -165c0 -70.667 -23 -128.167 -69 -172.5
s-105.667 -66.5 -179 -66.5zM277 99.001c36.667 0 66.334 11.333 89.001 34s34 52.667 34 90s-11.333 67.333 -34 90s-52.667 34 -90 34c-36.667 0 -66.334 -11.333 -89.001 -34s-34 -52.667 -34 -90s11.333 -67.333 34 -90s52.667 -34 90 -34z" />
    <glyph glyph-name="seven" unicode="7" horiz-adv-x="471" 
d="M453 675v-109l-267 -566h-131l268 558h-304v117h434z" />
    <glyph glyph-name="eight" unicode="8" horiz-adv-x="557" 
d="M278 -15c-75.333 0 -134.666 17.833 -177.999 53.5s-65 84.834 -65 147.501c0 43.333 11.333 80.333 34 111s53.667 51 93 61v3c-32.667 9.33301 -58.834 27.666 -78.501 54.999s-29.5 58.666 -29.5 93.999c0 54.667 20.333 98.334 61 131.001s95 49 163 49
c68.667 0 123.167 -16.167 163.5 -48.5s60.5 -76.166 60.5 -131.499c0 -36 -9.66699 -67.5 -29 -94.5s-45.333 -45.167 -78 -54.5v-3c39.333 -10 70.333 -30.333 93 -61s34 -67.667 34 -111c0 -62.667 -21.833 -111.834 -65.5 -147.501s-103.167 -53.5 -178.5 -53.5z
M278 411c28.667 0 51.5 7.83301 68.5 23.5s25.5 36.5 25.5 62.5c0 26.667 -8.5 47.667 -25.5 63s-39.833 23 -68.5 23s-51.5 -7.66699 -68.5 -23s-25.5 -36.333 -25.5 -63c0 -26 8.66699 -46.833 26 -62.5s40 -23.5 68 -23.5zM278 95c35.333 0 63 9.66699 83 29
s30 45.666 30 78.999c0 32.667 -10.333 58.834 -31 78.501s-48 29.5 -82 29.5c-33.333 0 -60.333 -9.83301 -81 -29.5s-31 -45.834 -31 -78.501c0 -33.333 10 -59.666 30 -78.999s47.333 -29 82 -29z" />
    <glyph glyph-name="nine" unicode="9" horiz-adv-x="533" 
d="M118 0l236.001 273l-2 2c-34.667 -30.667 -75.334 -46 -122.001 -46c-59.333 0 -109.333 21.833 -150 65.5s-61 97.167 -61 160.5c0 69.333 23.167 125.833 69.5 169.5s105.833 65.5 178.5 65.5c76 0 136.333 -22.833 181 -68.5s67 -107.5 67 -185.5
c0 -50.667 -10.667 -99.667 -32 -147s-56 -99 -104 -155l-114 -134h-147zM268.001 334c35.333 0 64.167 10.999 86.5 32.999s33.5 51 33.5 87s-11.167 65.167 -33.5 87.5s-51.5 33.5 -87.5 33.5s-65.167 -11 -87.5 -33s-33.5 -51.333 -33.5 -88
c0 -35.333 11.167 -64.166 33.5 -86.499s51.833 -33.5 88.5 -33.5z" />
    <glyph glyph-name="colon" unicode=":" horiz-adv-x="235" 
d="M188 462v-139h-139v139h139zM187 139v-139h-139v139h139z" />
    <glyph glyph-name="semicolon" unicode=";" horiz-adv-x="236" 
d="M188 462v-139h-139v139h139zM187 139v-139l-80 -153h-56l54 153h-56v139h138z" />
    <glyph glyph-name="less" unicode="&#x3c;" 
d="M529 532v-64l-391 -169l391 -168v-64l-458 202v61z" />
    <glyph glyph-name="equal" unicode="=" 
d="M553 428v-56h-506v56h506zM553 228v-56h-506v56h506z" />
    <glyph glyph-name="greater" unicode="&#x3e;" 
d="M71 532l458 -202v-61l-458 -202v64l391 168l-391 169v64z" />
    <glyph glyph-name="question" unicode="?" horiz-adv-x="485" 
d="M245 715c64 0 113.666 -17.501 148.999 -52.501s53 -80.167 53 -135.5s-24 -106.333 -72 -153c-2 -2 -7.83301 -7.33301 -17.5 -16s-15.667 -14.5 -18 -17.5s-7.16602 -8.33301 -14.499 -16s-12.166 -14 -14.499 -19s-5.5 -11.333 -9.5 -19s-6.66699 -15.5 -8 -23.5
s-2 -16.667 -2 -26v-17h-121v29c0 12.667 0.833008 24.667 2.5 36s5 22.333 10 33l12 26c3 6.66699 8.83301 15.167 17.5 25.5s14.5 17.166 17.5 20.499s9.83301 10.333 20.5 21l19 19c36 34.667 54 65.334 54 92.001c0 22.667 -6.83301 40.834 -20.5 54.501
s-33.834 20.5 -60.501 20.5c-28 0 -50.5 -8.66699 -67.5 -26s-25.5 -40 -25.5 -68h-121c0 66 19.167 117.833 57.5 155.5s91.5 56.5 159.5 56.5zM299.999 138.999v-139h-139v139h139z" />
    <glyph glyph-name="at" unicode="@" horiz-adv-x="937" 
d="M480 690c122.667 0 221.833 -35.1689 297.5 -105.502s113.5 -163.166 113.5 -278.499c0 -71.333 -15.833 -131.666 -47.5 -180.999s-76.5 -74 -134.5 -74c-60 0 -100.667 26.667 -122 80h-3c-28.667 -53.333 -75.667 -80 -141 -80c-55.333 0 -101.833 19.667 -139.5 59
s-56.5 92.333 -56.5 159c0 67.333 19 120.5 57 159.5s84.667 58.5 140 58.5c58.667 0 102.334 -24.667 131.001 -74h1v59h101v-279c0 -38.667 14.667 -58 44 -58c23.333 0 42.333 13.833 57 41.5s22 67.167 22 118.5c0 100 -30 176.667 -90 230s-136 80 -228 80
c-100.667 0 -183.334 -29 -248.001 -87s-97 -142 -97 -252c0 -55.333 10 -104.666 30 -147.999s46.833 -78 80.5 -104s70.667 -45.667 111 -59s82.833 -20 127.5 -20c62.667 0 124 12.333 184 37l32 -80c-75.333 -28 -147.666 -42 -216.999 -42
c-54 0 -106.333 8.33301 -157 25s-97.334 41 -140.001 73s-77 75.333 -103 130s-39 116.667 -39 186c0 133.333 40 237.666 120 312.999s184.667 113 314 113zM468.999 383.998c-32 0 -58.333 -10.667 -79 -32s-31 -48.666 -31 -81.999s10.167 -60.833 30.5 -82.5
s46.833 -32.5 79.5 -32.5c32 0 58.167 10.833 78.5 32.5s30.5 49.167 30.5 82.5s-10.167 60.666 -30.5 81.999s-46.5 32 -78.5 32z" />
    <glyph glyph-name="A" unicode="A" horiz-adv-x="696" 
d="M551 0l-59 159h-288l-59 -159h-142l281 700h128l281 -700h-142zM246 275h204l-102 275z" />
    <glyph glyph-name="B" unicode="B" horiz-adv-x="621" 
d="M446 371c43.333 -6.66699 77.834 -24.499 103.501 -53.499s38.5 -68.833 38.5 -119.5c0 -64.667 -21.333 -113.834 -64 -147.501s-96.667 -50.5 -162 -50.5h-296v700h277c63.333 0 114.166 -15.167 152.499 -45.5s57.5 -73.833 57.5 -130.5
c0 -78 -35.667 -128.333 -107 -151v-2zM323.001 582.001h-129.001v-168h124c32.667 0 57.667 7.33301 75 22s26 35.667 26 63c0 26.667 -8.66699 47.167 -26 61.5s-40.666 21.5 -69.999 21.5zM340 118.001c34.667 0 62 8.16895 82 24.502s30 39.166 30 68.499
s-10 52.166 -30 68.499s-49 24.5 -87 24.5h-141v-186h146z" />
    <glyph glyph-name="C" unicode="C" horiz-adv-x="675" 
d="M407 -15c-111.333 0 -202.166 33.502 -272.499 100.502s-105.5 155.167 -105.5 264.5s35.167 197.5 105.5 264.5s161.166 100.5 272.499 100.5c93.333 0 176.666 -25.667 249.999 -77l-74 -112c-55.333 38.667 -114.333 58 -177 58
c-69.333 0 -126.166 -21.333 -170.499 -64s-66.5 -99.334 -66.5 -170.001s22.167 -127.334 66.5 -170.001s101.166 -64 170.499 -64c62.667 0 121.667 19.333 177 58l74 -112c-73.333 -51.333 -156.666 -77 -249.999 -77z" />
    <glyph glyph-name="D" unicode="D" horiz-adv-x="683" 
d="M290 700c107.333 0 194.833 -31.5 262.5 -94.5s101.5 -148.167 101.5 -255.5s-33.833 -192.5 -101.5 -255.5s-155.167 -94.5 -262.5 -94.5h-224v700h224zM296 582h-102v-464h102c65.333 0 118.333 20.333 159 61s61 97.667 61 171s-20.333 130.333 -61 171
s-93.667 61 -159 61z" />
    <glyph glyph-name="E" unicode="E" horiz-adv-x="525" 
d="M194 120h292v-120h-420v700h415v-120h-287v-140h262v-118h-262v-202z" />
    <glyph glyph-name="F" unicode="F" horiz-adv-x="510" 
d="M490 580h-296v-172h266v-118h-266v-290h-128v700h424v-120z" />
    <glyph glyph-name="G" unicode="G" horiz-adv-x="767" 
d="M746 396c0.666992 -9.33301 0.99707 -22.6641 0.99707 -39.9971c0 -50.667 -7.16699 -98 -21.5 -142s-35.5 -83.333 -63.5 -118s-64.5 -61.834 -109.5 -81.501s-96.167 -29.5 -153.5 -29.5c-108.667 0 -197.5 33.167 -266.5 99.5s-103.5 154.833 -103.5 265.5
c0 108.667 34.167 196.667 102.5 264s159.5 101 273.5 101c104.667 0 195.334 -31 272.001 -93l-85 -109c-56.667 47.333 -120.667 71 -192 71c-70 0 -126 -22 -168 -66s-63 -100 -63 -168c0 -68.667 21.5 -124.834 64.5 -168.501s100.167 -65.5 171.5 -65.5
c62.667 0 111.334 16.167 146.001 48.5s54.334 70.166 59.001 113.499h-201v118h337z" />
    <glyph glyph-name="H" unicode="H" horiz-adv-x="720" 
d="M526 700h128v-700h-128v307h-332v-307h-128v700h128v-271h332v271z" />
    <glyph glyph-name="I" unicode="I" horiz-adv-x="261" 
d="M195 700v-700h-129v700h129z" />
    <glyph glyph-name="J" unicode="J" horiz-adv-x="287" 
d="M221 700v-525c0 -61.333 -13.667 -106.5 -41 -135.5s-69 -43.5 -125 -43.5h-42v122h29c34 0 51 21 51 63v519h128z" />
    <glyph glyph-name="K" unicode="K" horiz-adv-x="685" 
d="M683 0h-186l-303 343v-343h-128v700h128v-310l264 310h176l-297 -324z" />
    <glyph glyph-name="L" unicode="L" horiz-adv-x="489" 
d="M194 700v-579h292v-121h-420v700h128z" />
    <glyph glyph-name="M" unicode="M" horiz-adv-x="873" 
d="M696 700l174 -700h-135l-106 455h-2l-144 -351h-93l-144 351h-2l-107 -455h-134l174 700h100l158 -398h2l159 398h100z" />
    <glyph glyph-name="N" unicode="N" horiz-adv-x="720" 
d="M654 700v-700h-119l-340 480h-1v-480h-128v700h119l340 -481h1v481h128z" />
    <glyph glyph-name="O" unicode="O" horiz-adv-x="791" 
d="M395 715c105.333 0 192.833 -34 262.5 -102s104.5 -155.667 104.5 -263s-34.833 -195 -104.5 -263s-157.167 -102 -262.5 -102s-192.666 34 -261.999 102s-104 155.667 -104 263s34.667 195 104 263s156.666 102 261.999 102zM395 584c-66 0 -120.167 -21.667 -162.5 -65
s-63.5 -99.666 -63.5 -168.999s21.167 -125.666 63.5 -168.999s96.5 -65 162.5 -65s120.167 21.667 162.5 65s63.5 99.666 63.5 168.999s-21.167 125.666 -63.5 168.999s-96.5 65 -162.5 65z" />
    <glyph glyph-name="P" unicode="P" horiz-adv-x="557" 
d="M310 700c76 0 134.333 -20.167 175 -60.5s61 -92.833 61 -157.5c0 -66.667 -20.333 -120.5 -61 -161.5s-99 -61.5 -175 -61.5h-116v-259h-128v700h244zM296 377c35.333 0 63 8.83301 83 26.5s30 43.5 30 77.5c0 33.333 -10 58.5 -30 75.5s-47.667 25.5 -83 25.5h-102
v-205h102z" />
    <glyph glyph-name="Q" unicode="Q" horiz-adv-x="796" 
d="M789 0h-153.001l-39 40c-59.333 -36.667 -126.666 -55 -201.999 -55c-105.333 0 -192.666 34 -261.999 102s-104 155.667 -104 263s34.667 195 104 263s156.666 102 261.999 102s192.833 -34 262.5 -102s104.5 -155.667 104.5 -263c0 -93.333 -27.667 -173 -83 -239z
M394.999 116c38 0 72.333 7.66504 103 22.998l-152 153h154l81 -82c26.667 38.667 40 85.334 40 140.001c0 69.333 -21.167 125.666 -63.5 168.999s-96.5 65 -162.5 65s-120.167 -21.667 -162.5 -65s-63.5 -99.666 -63.5 -168.999s21.167 -125.666 63.5 -168.999
s96.5 -65 162.5 -65z" />
    <glyph glyph-name="R" unicode="R" horiz-adv-x="598" 
d="M432 0l-191 279h-47v-279h-128v700h258c68.667 0 123.5 -19.5 164.5 -58.5s61.5 -90.167 61.5 -153.5c0 -52 -14.5 -96.167 -43.5 -132.5s-69.167 -59.833 -120.5 -70.5l207 -285h-161zM194 582v-189.999h110c72.667 0 109 31.333 109 94
c0 29.333 -9.16699 52.666 -27.5 69.999s-45.5 26 -81.5 26h-110z" />
    <glyph glyph-name="S" unicode="S" horiz-adv-x="521" 
d="M269 715c66 0 134.333 -16.333 205 -49l-55 -117c-56 28.667 -105.667 43 -149 43c-48.667 0 -73 -17 -73 -51c0 -13.333 4 -25.166 12 -35.499s22 -22.5 42 -36.5l121 -85c40.667 -28 70.834 -57.167 90.501 -87.5s29.5 -66.833 29.5 -109.5
c0 -65.333 -21.167 -115.333 -63.5 -150s-100.833 -52 -175.5 -52c-88.667 0 -169.334 22.667 -242.001 68l57 117c69.333 -40.667 132.333 -61 189 -61c32 0 56.5 6.5 73.5 19.5s25.5 30.167 25.5 51.5c0 16.667 -5.66699 31.667 -17 45s-29.333 29 -54 47l-113 81
c-74 51.333 -111 112.666 -111 183.999c0 55.333 18.167 98.833 54.5 130.5s87.5 47.5 153.5 47.5z" />
    <glyph glyph-name="T" unicode="T" horiz-adv-x="526" 
d="M518 700v-120h-191v-580h-128v580h-191v120h510z" />
    <glyph glyph-name="U" unicode="U" horiz-adv-x="693" 
d="M635 700v-424c0 -89.333 -25.333 -160 -76 -212s-121.334 -78 -212.001 -78c-91.333 0 -162.333 26 -213 78s-76 122.667 -76 212v424h135v-416c0 -50.667 14 -91 42 -121s65.333 -45 112 -45s83.834 15 111.501 45s41.5 70.333 41.5 121v416h135z" />
    <glyph glyph-name="V" unicode="V" horiz-adv-x="653" 
d="M650 700l-259 -700h-129l-259 700h150l172 -528h3l172 528h150z" />
    <glyph glyph-name="W" unicode="W" horiz-adv-x="1023" 
d="M1012 700l-222 -700h-118l-159 491h-3l-159 -491h-118l-222 700h147l135 -495h2l157 495h119l158 -495h2l135 495h146z" />
    <glyph glyph-name="X" unicode="X" horiz-adv-x="668" 
d="M662 0h-158l-170 267l-170 -267h-158l247 371l-220 329h159l142 -224l143 224h158l-220 -329z" />
    <glyph glyph-name="Y" unicode="Y" horiz-adv-x="597" 
d="M597 700l-234 -431v-269h-129v267l-234 433h151l146 -301h3l146 301h151z" />
    <glyph glyph-name="Z" unicode="Z" horiz-adv-x="554" 
d="M177 120h357v-120h-514v120l346 460h-317v120h473v-120z" />
    <glyph glyph-name="bracketleft" unicode="[" horiz-adv-x="345" 
d="M335 759v-98h-130v-779h130v-97h-242v974h242z" />
    <glyph glyph-name="backslash" unicode="\" horiz-adv-x="622" 
d="M500 -112l-470 848l91 50l471 -849z" />
    <glyph glyph-name="bracketright" unicode="]" horiz-adv-x="345" 
d="M10 -215v97h130v779h-130v98h242v-974h-242z" />
    <glyph glyph-name="asciicircum" unicode="^" 
d="M358 715l144 -322h-90l-112 257l-112 -257h-90l144 322h116z" />
    <glyph glyph-name="underscore" unicode="_" horiz-adv-x="533" 
d="M523 -15v-96h-513v96h513z" />
    <glyph glyph-name="grave" unicode="`" horiz-adv-x="349" 
d="M195 707l104 -154h-96l-153 154h145z" />
    <glyph glyph-name="a" unicode="a" horiz-adv-x="578" 
d="M248 -15c-63.333 0 -116.166 22 -158.499 66s-63.5 104 -63.5 180s21.167 136 63.5 180s95.166 66 158.499 66c70.667 0 122 -26.667 154 -80h2v65h122v-462h-122v65h-2c-32 -53.333 -83.333 -80 -154 -80zM279 101c37.333 0 67.5 12 90.5 36s34.5 55.333 34.5 94
s-11.5 70 -34.5 94s-53.167 36 -90.5 36s-67.5 -12 -90.5 -36s-34.5 -55.333 -34.5 -94s11.5 -70 34.5 -94s53.167 -36 90.5 -36z" />
    <glyph glyph-name="b" unicode="b" horiz-adv-x="583" 
d="M335 -15c-70.667 0 -122 26.667 -154 80h-2v-65h-123v700h123v-303h2c32 53.333 83.333 80 154 80c63.333 0 116.166 -22 158.499 -66s63.5 -104 63.5 -180s-21.167 -136 -63.5 -180s-95.166 -66 -158.499 -66zM304 101c37.333 0 67.5 12 90.5 36s34.5 55.333 34.5 94
s-11.5 70 -34.5 94s-53.167 36 -90.5 36s-67.5 -12 -90.5 -36s-34.5 -55.333 -34.5 -94s11.5 -70 34.5 -94s53.167 -36 90.5 -36z" />
    <glyph glyph-name="c" unicode="c" horiz-adv-x="457" 
d="M281 -15c-75.333 0 -136.666 22.6689 -183.999 68.002s-71 104.666 -71 177.999s23.667 132.666 71 177.999s108.666 68 183.999 68c58.667 0 112.667 -15.333 162 -46l-53 -101c-34 21.333 -69.667 32 -107 32c-38 0 -69.333 -12.167 -94 -36.5s-37 -55.833 -37 -94.5
s12.333 -70.167 37 -94.5s56 -36.5 94 -36.5c37.333 0 73 10.667 107 32l53 -101c-49.333 -30.667 -103.333 -46 -162 -46z" />
    <glyph glyph-name="d" unicode="d" horiz-adv-x="583" 
d="M248 -15c-63.333 0 -116.166 22 -158.499 66s-63.5 104 -63.5 180s21.167 136 63.5 180s95.166 66 158.499 66c70.667 0 122 -26.667 154 -80h2v303h122v-700h-122v65h-2c-32 -53.333 -83.333 -80 -154 -80zM279 101c37.333 0 67.5 12 90.5 36s34.5 55.333 34.5 94
s-11.5 70 -34.5 94s-53.167 36 -90.5 36s-67.5 -12 -90.5 -36s-34.5 -55.333 -34.5 -94s11.5 -70 34.5 -94s53.167 -36 90.5 -36z" />
    <glyph glyph-name="e" unicode="e" horiz-adv-x="514" 
d="M266 477c70.667 0 125.666 -21.5 164.999 -64.5s59 -103.833 59 -182.5v-24h-345c3.33301 -35.333 16.833 -62.833 40.5 -82.5s53.5 -29.5 89.5 -29.5c50 0 96 21 138 63l62 -89c-60 -55.333 -126.667 -83 -200 -83c-75.333 0 -135.666 22.333 -180.999 67
s-68 104 -68 178s22 133.667 66 179s102 68 174 68zM259.999 378c-64.667 0 -102 -30.999 -112 -92.999h218c-2 29.333 -12.5 52.166 -31.5 68.499s-43.833 24.5 -74.5 24.5z" />
    <glyph glyph-name="f" unicode="f" horiz-adv-x="326" 
d="M302 596c-29.333 0 -51.166 -6.66699 -65.499 -20s-21.5 -36 -21.5 -68v-46h95v-103h-95v-359h-122v359h-77v103h77v46c0 66.667 16.667 117 50 151s82.666 51 147.999 51h25v-114h-14z" />
    <glyph glyph-name="g" unicode="g" horiz-adv-x="578" 
d="M294 -215c-50 0 -112.665 7.33398 -187.998 22.001l22 117c64 -15.333 117.667 -23 161 -23c42 0 71.667 8.83301 89 26.5s26 49.167 26 94.5v43h-2c-34.667 -51.333 -86.334 -77 -155.001 -77c-63.333 0 -116 21.667 -158 65s-63 102.666 -63 177.999
c0 76 21.167 136 63.5 180s95.166 66 158.499 66c70.667 0 122 -26.667 154 -80h2v65h122v-462c-0.666992 -78 -21 -133.333 -61 -166s-97 -49 -171 -49zM279.002 101.001c37.333 0 67.5 12 90.5 36s34.5 55.333 34.5 94s-11.5 70 -34.5 94s-53.167 36 -90.5 36
s-67.5 -12 -90.5 -36s-34.5 -55.333 -34.5 -94s11.5 -70 34.5 -94s53.167 -36 90.5 -36z" />
    <glyph glyph-name="h" unicode="h" horiz-adv-x="554" 
d="M179 700l-0.000976562 -303.999h2c34 54 84 81 150 81c52.667 0 94.834 -15.833 126.501 -47.5s47.5 -79.834 47.5 -144.501v-285h-123v256c0 71.333 -32 107 -96 107c-71.333 0 -107 -45.667 -107 -137v-226h-123v700h123z" />
    <glyph glyph-name="i" unicode="i" horiz-adv-x="236" 
d="M188 694v-135h-140v135h140zM56 0v462h123v-462h-123z" />
    <glyph glyph-name="j" unicode="j" horiz-adv-x="236" 
d="M188 694v-135h-140v135h140zM-21 -90h21c20 0 34.333 4.83301 43 14.5s13 25.167 13 46.5v491h123v-496c0 -112.667 -53.333 -169 -160 -169h-40v113z" />
    <glyph glyph-name="k" unicode="k" horiz-adv-x="517" 
d="M512 0h-160l-173 221v-221h-123v700h123v-429l152 191h156l-189 -210z" />
    <glyph glyph-name="l" unicode="l" horiz-adv-x="236" 
d="M179 700v-700h-123v700h123z" />
    <glyph glyph-name="m" unicode="m" horiz-adv-x="822" 
d="M54 0l0.000976562 462h121v-70h2c26 56.667 73 85 141 85c69.333 0 116.666 -30.667 141.999 -92h2c30.667 61.333 81 92 151 92c47.333 0 86 -15.667 116 -47s45 -77 45 -137v-293h-123v267c0 64 -28 96 -84 96c-62 0 -93 -42.667 -93 -128v-235h-121v267
c0 64 -27.667 96 -83 96c-62.667 0 -94 -43 -94 -129v-234h-122z" />
    <glyph glyph-name="n" unicode="n" horiz-adv-x="551" 
d="M328 477c53.333 0 95.668 -15.832 127.001 -47.499s47 -79.834 47 -144.501v-285h-123v256c0 71.333 -31.667 107 -95 107c-72 0 -108 -45.667 -108 -137v-226h-122v462h121v-70h2c33.333 56.667 83.666 85 150.999 85z" />
    <glyph glyph-name="o" unicode="o" horiz-adv-x="563" 
d="M282 477c74 0 135.167 -23 183.5 -69s72.5 -105 72.5 -177s-24.167 -131 -72.5 -177s-109.5 -69 -183.5 -69s-135.167 23 -183.5 69s-72.5 105 -72.5 177s24.167 131 72.5 177s109.5 69 183.5 69zM282 361c-38 0 -69.167 -11.833 -93.5 -35.5s-36.5 -55.167 -36.5 -94.5
s12.167 -70.833 36.5 -94.5s55.5 -35.5 93.5 -35.5s69 11.833 93 35.5s36 55.167 36 94.5s-12 70.833 -36 94.5s-55 35.5 -93 35.5z" />
    <glyph glyph-name="p" unicode="p" horiz-adv-x="580" 
d="M54 -200v662h122v-65h2c32 53.333 83.333 80 154 80c63.333 0 116.166 -22 158.499 -66s63.5 -104 63.5 -180s-21.167 -136 -63.5 -180s-95.166 -66 -158.499 -66c-70.667 0 -122 26.667 -154 80h-2v-265h-122zM301 101c37.333 0 67.5 12 90.5 36s34.5 55.333 34.5 94
s-11.5 70 -34.5 94s-53.167 36 -90.5 36s-67.5 -12 -90.5 -36s-34.5 -55.333 -34.5 -94s11.5 -70 34.5 -94s53.167 -36 90.5 -36z" />
    <glyph glyph-name="q" unicode="q" horiz-adv-x="578" 
d="M404 -200v265h-2c-32 -53.333 -83.333 -80 -154 -80c-63.333 0 -116.166 22 -158.499 66s-63.5 104 -63.5 180s21.167 136 63.5 180s95.166 66 158.499 66c70.667 0 122 -26.667 154 -80h2v65h122v-662h-122zM279 101c37.333 0 67.5 12 90.5 36s34.5 55.333 34.5 94
s-11.5 70 -34.5 94s-53.167 36 -90.5 36s-67.5 -12 -90.5 -36s-34.5 -55.333 -34.5 -94s11.5 -70 34.5 -94s53.167 -36 90.5 -36z" />
    <glyph glyph-name="r" unicode="r" horiz-adv-x="345" 
d="M335 476v-132h-14c-50 0 -86.667 -12 -110 -36s-35 -63.667 -35 -119v-189h-122v462h121v-98h2c24.667 74.667 75.667 112 153 112h5z" />
    <glyph glyph-name="s" unicode="s" horiz-adv-x="418" 
d="M211 -15c-73.333 0 -139.334 16.334 -198.001 49.001l50 104c54.667 -32 106.334 -48 155.001 -48c38 0 57 11 57 33c0 8.66699 -3 15.667 -9 21s-16.333 11.666 -31 18.999l-83 36c-69.333 30.667 -104 76.667 -104 138c0 45.333 15.333 80 46 104s75 36 133 36
c52 0 106.667 -10.667 164 -32l-41 -103c-50 21.333 -93.333 32 -130 32c-31.333 0 -47 -9.33301 -47 -28c0 -8.66699 3.16699 -16 9.5 -22s17.833 -12.667 34.5 -20l83 -36c68 -28 102 -73 102 -135c0 -49.333 -17 -86.333 -51 -111s-80.667 -37 -140 -37z" />
    <glyph glyph-name="t" unicode="t" horiz-adv-x="334" 
d="M316 359h-95v-194c0 -18.667 3.66699 -32 11 -40s20 -12 38 -12h21v-114h-54c-44.667 0 -79 11.5 -103 34.5s-36 57.167 -36 102.5v223h-85v103h85v185h123v-185h95v-103z" />
    <glyph glyph-name="u" unicode="u" horiz-adv-x="541" 
d="M220 -15c-50.667 0 -91.833 16 -123.5 48s-47.5 80.667 -47.5 146v283h126v-261c0 -68.667 29 -103 87 -103c68 0 102 47.333 102 142v222h123v-462h-121v71h-2c-32 -57.333 -80 -86 -144 -86z" />
    <glyph glyph-name="v" unicode="v" horiz-adv-x="507" 
d="M362 462h140l-189 -462h-120l-188 462h139l109 -320z" />
    <glyph glyph-name="w" unicode="w" horiz-adv-x="762" 
d="M629 462h128l-161 -462h-109l-106 302l-106 -302h-109l-161 462h128l89 -303l101 303h116l101 -305z" />
    <glyph glyph-name="x" unicode="x" horiz-adv-x="527" 
d="M373 0l-110 156l-110 -156h-148l184 243l-162 219h149l87 -134l88 134h149l-162 -219l184 -243h-149z" />
    <glyph glyph-name="y" unicode="y" horiz-adv-x="520" 
d="M386 462h129l-296 -662h-127l113 243l-200 419h144l117 -281z" />
    <glyph glyph-name="z" unicode="z" horiz-adv-x="443" 
d="M169 108h254v-108h-402v99l235 255h-222v108h372v-98z" />
    <glyph glyph-name="braceleft" unicode="{" horiz-adv-x="408" 
d="M398 754v-104.003h-30c-29.333 0 -52.5 -7.5 -69.5 -22.5s-25.5 -43.167 -25.5 -84.5v-106c0 -45.333 -9.16699 -81.166 -27.5 -107.499s-47.5 -44.166 -87.5 -53.499v-2c40 -9.33301 69.167 -27.166 87.5 -53.499s27.5 -62.166 27.5 -107.499v-118
c0 -41.333 8.5 -69.333 25.5 -84s40.167 -22 69.5 -22h30v-104h-39c-55.333 0 -101.833 16.167 -139.5 48.5s-56.5 84.166 -56.5 155.499v128c0 30.667 -11.333 54.667 -34 72s-54 27 -94 29v114c40 2 71.333 11.667 94 29s34 41.333 34 72v116
c0 71.333 18.833 123.333 56.5 156s84.167 49 139.5 49h39z" />
    <glyph glyph-name="bar" unicode="|" horiz-adv-x="317" 
d="M207 727v-942h-97v942h97z" />
    <glyph glyph-name="braceright" unicode="}" horiz-adv-x="408" 
d="M10 -215v103.999h30c29.333 0 52.666 7.33301 69.999 22s26 42.667 26 84v118c0 90 38 143.667 114 161v2c-76 17.333 -114 71 -114 161v106c0 41.333 -8.66699 69.5 -26 84.5s-40.666 22.5 -69.999 22.5h-30v104h39c55.333 0 101.833 -16.333 139.5 -49
s56.5 -84.667 56.5 -156v-116c0 -30.667 11.333 -54.667 34 -72s54 -27 94 -29v-114c-40 -2 -71.333 -11.667 -94 -29s-34 -41.333 -34 -72v-128c0 -71.333 -18.833 -123.166 -56.5 -155.499s-84.167 -48.5 -139.5 -48.5h-39z" />
    <glyph glyph-name="asciitilde" unicode="~" 
d="M196 390c34 0 72.332 -10.168 114.999 -30.501s75.334 -30.5 98.001 -30.5c15.333 0 30.5 3 45.5 9s26.667 11.833 35 17.5s20.5 15.167 36.5 28.5l53 -84c-60 -50 -118 -75 -174 -75c-32.667 0 -70.334 10 -113.001 30s-76 30 -100 30c-16 0 -31.667 -3.16699 -47 -9.5
s-26.666 -12.166 -33.999 -17.499s-19.666 -15 -36.999 -29l-53 84c61.333 51.333 119.666 77 174.999 77z" />
    <glyph glyph-name="exclamdown" unicode="&#xa1;" horiz-adv-x="323" 
d="M92 361v139h139v-139h-139zM90 -200l28 480h87l27 -480h-142z" />
    <glyph glyph-name="cent" unicode="&#xa2;" horiz-adv-x="452" 
d="M422 139v-120c-41.333 -22 -85.333 -33.333 -132 -34v-49h-28v50c-68 5.33301 -123.167 30.5 -165.5 75.5s-63.5 101.5 -63.5 169.5s21.5 124.667 64.5 170s97.833 70.333 164.5 75v55h28v-54c45.333 -2 88.333 -12.333 129 -31v-119c-48.667 22.667 -91.667 34 -129 34
v-260c36.667 0 80.667 12.667 132 38zM160 232c0 -34.667 9.50098 -63.333 28.501 -86s43.5 -37 73.5 -43v256c-30.667 -5.33301 -55.334 -19.333 -74.001 -42s-28 -51 -28 -85z" />
    <glyph glyph-name="sterling" unicode="&#xa3;" horiz-adv-x="539" 
d="M197 116l1 -2.99902h294v-113h-434v92c33.333 18.667 60.666 41.167 81.999 67.5s32 53.833 32 82.5c0 23.333 -13.667 57.666 -41 102.999h-91v30h73c-22 39.333 -33 78.666 -33 117.999c0 59.333 19.5 107 58.5 143s93.167 54 162.5 54
c64.667 0 116.667 -17.167 156 -51.5s59 -85.5 59 -153.5h-127c-3.33301 60 -33.666 90 -90.999 90c-28 0 -50 -8 -66 -24s-24 -37 -24 -63c0 -27.333 14.333 -65 43 -113h169v-30h-151c20 -37.333 30 -68.666 30 -93.999c0 -54 -34 -99 -102 -135z" />
    <glyph glyph-name="currency" unicode="&#xa4;" 
d="M538 324c0 -64 -20.001 -117 -60.001 -159l55 -55l-20 -19l-55 55c-44.667 -36 -97.334 -54 -158.001 -54c-62 0 -114.667 18 -158 54l-56 -55l-19 20l55 55c-40 42 -60 94.667 -60 158s20 116 60 158l-55 55l20 20l55 -55c44.667 36 97.334 54 158.001 54
c62.667 0 115.334 -18.333 158.001 -55l55 56l20 -20l-55 -55c40 -42 60 -94.667 60 -158zM299.999 202c36 0 65.333 11.167 88 33.5s34 51.833 34 88.5c0 36 -11.333 65.333 -34 88s-52 34 -88 34s-65.333 -11.333 -88 -34s-34 -52 -34 -88
c0 -36.667 11.333 -66.167 34 -88.5s52 -33.5 88 -33.5z" />
    <glyph glyph-name="yen" unicode="&#xa5;" horiz-adv-x="609" 
d="M586 675l-170 -338h115v-30h-130l-29 -56h159v-30h-167v-221h-120v221h-167v30h159l-28 56h-131v30h116l-170 338h146l135 -312l136 312h146z" />
    <glyph glyph-name="brokenbar" unicode="&#xa6;" horiz-adv-x="317" 
d="M207 727v-388h-97v388h97zM207 181v-396h-97v396h97z" />
    <glyph glyph-name="section" unicode="&#xa7;" horiz-adv-x="565" 
d="M515 268c0 -66 -30.0029 -119.667 -90.0029 -161c28 -29.333 42 -64.333 42 -105c0 -49.333 -17 -88.333 -51 -117s-82 -43 -144 -43c-70 0 -133.333 19 -190 57l60 97c46 -30.667 92.333 -46 139 -46s70 16.333 70 49c0 15.333 -7.5 29.333 -22.5 42
s-33.5 23.334 -55.5 32.001s-46.167 19.334 -72.5 32.001s-50.5 26 -72.5 40s-40.5 33.5 -55.5 58.5s-22.5 53.5 -22.5 85.5c0 67.333 29.667 120.666 89 159.999c-28 30 -42 65 -42 105c0 49.333 17.167 88.5 51.5 117.5s82.5 43.5 144.5 43.5
c66 0 129.333 -18.333 190 -55l-60 -99c-46 30 -92.667 45 -140 45c-22.667 0 -40 -4.33301 -52 -13s-18 -20.334 -18 -35.001c0 -18 10.333 -34 31 -48s45.834 -27 75.501 -39s59.334 -25.667 89.001 -41s54.834 -36.833 75.501 -64.5s31 -60.167 31 -97.5zM165.997 298
c0 -12.667 2.83203 -24.1719 8.49902 -34.5049s15.334 -20.166 29.001 -29.499s25.334 -16.666 35.001 -21.999s25.834 -13 48.501 -23l47 -21c42.667 25.333 64 55.333 64 90c0 10.667 -2.5 20.667 -7.5 30s-10.833 17.333 -17.5 24s-16.334 13.834 -29.001 21.501
s-23.834 13.834 -33.501 18.501l-40 18.5c-17 7.66699 -30.167 13.834 -39.5 18.501c-43.333 -26.667 -65 -57 -65 -91z" />
    <glyph glyph-name="dieresis" unicode="&#xa8;" horiz-adv-x="399" 
d="M161 690v-127h-111v127h111zM349 690v-127h-111v127h111z" />
    <glyph glyph-name="copyright" unicode="&#xa9;" horiz-adv-x="828" 
d="M414 -15c-102.667 0 -189 34.5 -259 103.5s-105 156.167 -105 261.5s35 192.5 105 261.5s156.333 103.5 259 103.5s189 -34.5 259 -103.5s105 -156.167 105 -261.5s-35 -192.5 -105 -261.5s-156.333 -103.5 -259 -103.5zM414 51c83.333 0 153.166 27.833 209.499 83.5
s84.5 127.5 84.5 215.5s-28.167 159.833 -84.5 215.5s-126.166 83.5 -209.499 83.5s-153.166 -27.833 -209.499 -83.5s-84.5 -127.5 -84.5 -215.5s28.167 -159.833 84.5 -215.5s126.166 -83.5 209.499 -83.5zM420 128c-67.333 0 -123 21.5 -167 64.5s-66 97.167 -66 162.5
s22 119.5 66 162.5s99.667 64.5 167 64.5c54 0 104.333 -16.333 151 -49l-43 -75c-37.333 24 -74.333 36 -111 36c-40 0 -72.5 -12.833 -97.5 -38.5s-37.5 -59.167 -37.5 -100.5c0 -42 12.5 -75.667 37.5 -101s57.5 -38 97.5 -38c35.333 0 72.333 11.667 111 35l43 -75
c-46 -32 -96.333 -48 -151 -48z" />
    <glyph glyph-name="ordfeminine" unicode="&#xaa;" horiz-adv-x="448" 
d="M197 338c-41.333 0 -76.5 14.5 -105.5 43.5s-43.5 68.833 -43.5 119.5s14.5 90.5 43.5 119.5s64.167 43.5 105.5 43.5c48 0 83 -19.333 105 -58h2v48h96v-306h-96v48h-2c-22 -38.667 -57 -58 -105 -58zM226 426c22 0 40.167 6.8291 54.5 20.4961s21.5 31.834 21.5 54.501
s-7.16699 40.834 -21.5 54.501s-32.5 20.5 -54.5 20.5c-22.667 0 -41.167 -6.66699 -55.5 -20s-21.5 -31.666 -21.5 -54.999s7.16699 -41.666 21.5 -54.999s32.833 -20 55.5 -20z" />
    <glyph glyph-name="guillemotleft" unicode="&#xab;" horiz-adv-x="520" 
d="M307 402l-155 -166l155 -167h-134l-155 167l155 166h134zM510 402l-155 -166l155 -167h-134l-155 167l155 166h134z" />
    <glyph glyph-name="logicalnot" unicode="&#xac;" 
d="M71 432h458v-265h-59v208h-399v57z" />
    <glyph glyph-name="uni00AD" unicode="&#xad;" horiz-adv-x="358" 
d="M315 322v-114h-272v114h272z" />
    <glyph glyph-name="registered" unicode="&#xae;" horiz-adv-x="560" 
d="M280 715c68 0 124 -22 168 -66s66 -100.667 66 -170c0 -70 -22 -127 -66 -171s-100 -66 -168 -66s-124 22 -168 66s-66 101 -66 171c0 69.333 22 126 66 170s100 66 168 66zM280 288c54.667 0 99.334 17.667 134.001 53s52 81.333 52 138s-17.333 102.5 -52 137.5
s-79.334 52.5 -134.001 52.5s-99.334 -17.5 -134.001 -52.5s-52 -80.833 -52 -137.5s17.333 -102.667 52 -138s79.334 -53 134.001 -53zM380 540c0 -19.333 -5.16699 -36 -15.5 -50s-24.5 -23.333 -42.5 -28l67 -105h-52l-61 102h-31v-102h-44v260h96
c24.667 0 44.667 -7 60 -21s23 -32.667 23 -56zM245 576v-76h46c13.333 0 23.833 3.5 31.5 10.5s11.5 16.167 11.5 27.5c0 25.333 -14.333 38 -43 38h-46z" />
    <glyph glyph-name="macron" unicode="&#xaf;" horiz-adv-x="406" 
d="M356 667v-85h-306v85h306z" />
    <glyph glyph-name="degree" unicode="&#xb0;" horiz-adv-x="361" 
d="M180 690c40.667 0 74.334 -13 101.001 -39s40 -59.667 40 -101s-13.333 -75.166 -40 -101.499s-60.334 -39.5 -101.001 -39.5s-74.167 13.167 -100.5 39.5s-39.5 60.166 -39.5 101.499s13.167 75 39.5 101s59.833 39 100.5 39zM180 634
c-24 0 -43.833 -7.83301 -59.5 -23.5s-23.5 -35.834 -23.5 -60.501c0 -25.333 7.83301 -45.833 23.5 -61.5s35.5 -23.5 59.5 -23.5s43.833 7.83301 59.5 23.5s23.5 36.167 23.5 61.5c0 24.667 -7.83301 44.834 -23.5 60.501s-35.5 23.5 -59.5 23.5z" />
    <glyph glyph-name="plusminus" unicode="&#xb1;" 
d="M329 521v-133h210v-55h-210v-133h-58v133h-210v55h210v133h58zM539 156v-57h-478v57h478z" />
    <glyph glyph-name="acute" unicode="&#xb4;" horiz-adv-x="349" 
d="M299 707l-153 -154h-96l104 154h145z" />
    <glyph glyph-name="uni00B5" unicode="&#xb5;" 
d="M396 462h123v-462h-121v71h-2c-32 -57.333 -80 -86 -144 -86c-20.667 0 -39 2.33301 -55 7v-192h-115v353c-0.666992 5.33301 -1 14 -1 26v283h126v-261c0 -68.667 29 -103 87 -103c68 0 102 47.333 102 142v222z" />
    <glyph glyph-name="paragraph" unicode="&#xb6;" horiz-adv-x="638" 
d="M588 700l-0.000976562 -92h-62v-714h-93v714h-97v-714h-92v416c-57.333 0 -104 18.333 -140 55s-54 84.667 -54 144c0 57.333 18.833 103.5 56.5 138.5s86.834 52.5 147.501 52.5h334z" />
    <glyph glyph-name="periodcentered" unicode="&#xb7;" horiz-adv-x="235" 
d="M187 462v-139h-139v139h139z" />
    <glyph glyph-name="cedilla" unicode="&#xb8;" horiz-adv-x="262" 
d="M161 33l-26.998 -69.999c52 -10.667 78 -33 78 -67c0 -8.66699 -1.5 -16.5 -4.5 -23.5s-8.5 -13.833 -16.5 -20.5l-21 -17c-6 -4.66699 -16.5 -10.334 -31.5 -17.001s-26.333 -11.5 -34 -14.5l-40.5 -15.5l-14 32l34.5 16.5c6.33301 3 14.166 7.33301 23.499 13
s15.666 10.5 18.999 14.5s5 8.33301 5 13c0 10 -4.5 17.333 -13.5 22s-24.833 9.66699 -47.5 15l44 119h46z" />
    <glyph glyph-name="ordmasculine" unicode="&#xba;" horiz-adv-x="443" 
d="M221 664c50.667 0 92.334 -15 125.001 -45s49 -69.333 49 -118s-16.333 -88 -49 -118s-74.334 -45 -125.001 -45c-50 0 -91.333 15 -124 45s-49 69.333 -49 118s16.333 88 49 118s74 45 124 45zM221 575c-21.333 0 -39.166 -6.66699 -53.499 -20s-21.5 -31.333 -21.5 -54
s7.16699 -40.667 21.5 -54s32.166 -20 53.499 -20s39.166 6.66699 53.499 20s21.5 31.333 21.5 54s-7.16699 40.667 -21.5 54s-32.166 20 -53.499 20z" />
    <glyph glyph-name="guillemotright" unicode="&#xbb;" horiz-adv-x="520" 
d="M10 402h134l155 -166l-155 -167h-134l155 167zM213 402h134l155 -166l-155 -167h-134l155 167z" />
    <glyph glyph-name="onequarter" unicode="&#xbc;" horiz-adv-x="667" 
d="M75 289v318h-33v68h101v-386h-68zM454 675h67l-395 -675h-67zM642 132v-63h-44v-69h-68v69h-201v59l191 258h78v-254h44zM403 132h127v170h-2z" />
    <glyph glyph-name="onehalf" unicode="&#xbd;" horiz-adv-x="687" 
d="M143 675v-386h-68v318h-33v68h101zM59 0l395 675h67l-395 -675h-67zM520 395c41.333 0 73.333 -10.501 96 -31.501s34 -48.833 34 -83.5c0 -40.667 -22.333 -81.667 -67 -123l-97 -91h166v-66h-268l-1 57l143 136c34 32.667 51 60.334 51 83.001
c0 16 -5.16699 28.833 -15.5 38.5s-24.5 14.5 -42.5 14.5c-41.333 0 -64.333 -20.667 -69 -62h-68c1.33301 40 13.833 71.333 37.5 94s57.167 34 100.5 34z" />
    <glyph glyph-name="threequarters" unicode="&#xbe;" horiz-adv-x="800" 
d="M321 396c0 -34.667 -12 -62.6689 -36 -84.002s-60 -32 -108 -32c-44.667 0 -79.334 10.5 -104.001 31.5s-38 50.833 -40 89.5h70c4.66699 -37.333 29.334 -56 74.001 -56c48 0 72 19 72 57c0 20.667 -8.33301 35.334 -25 44.001s-42.334 13 -77.001 13v61
c59.333 0 89 17.333 89 52c0 32 -20 48 -60 48c-42.667 0 -65 -18.667 -67 -56h-68c2 38 14.833 67.5 38.5 88.5s56.834 31.5 99.501 31.5c40.667 0 72.167 -9.16699 94.5 -27.5s33.5 -42.5 33.5 -72.5c0 -47.333 -24.333 -76.666 -73 -87.999v-1
c58 -9.33301 87 -42.333 87 -99zM587 674.998h67l-395 -675h-67zM775 131.998v-63h-44v-69h-68v69h-201v59l191 258h78v-254h44zM536 131.998h127v170h-2z" />
    <glyph glyph-name="questiondown" unicode="&#xbf;" horiz-adv-x="429" 
d="M163 361v139h139v-139h-139zM218 -215c-64 0 -113.666 17.501 -148.999 52.501s-53 80.167 -53 135.5s24 106.333 72 153c2 2 7.83301 7.33301 17.5 16s15.667 14.5 18 17.5s7.16602 8.33301 14.499 16s12.166 14 14.499 19s5.5 11.333 9.5 19s6.66699 15.5 8 23.5
s2 16.667 2 26v17h121v-29c0 -12.667 -0.833008 -24.667 -2.5 -36s-5 -22.333 -10 -33l-12 -26c-3 -6.66699 -8.83301 -15.167 -17.5 -25.5s-14.5 -17.166 -17.5 -20.499s-9.83301 -10.333 -20.5 -21l-19 -19c-36 -34.667 -54 -65.334 -54 -92.001
c0 -22.667 6.83301 -40.834 20.5 -54.501s33.834 -20.5 60.501 -20.5c28 0 50.5 8.66699 67.5 26s25.5 40 25.5 68h121c0 -66 -19.167 -117.833 -57.5 -155.5s-91.5 -56.5 -159.5 -56.5z" />
    <glyph glyph-name="Agrave" unicode="&#xc0;" horiz-adv-x="696" 
d="M397 743h-90l-159 120h144zM551 0l-59 159h-288l-59 -159h-142l281 700h128l281 -700h-142zM246 275h204l-102 275z" />
    <glyph glyph-name="Aacute" unicode="&#xc1;" horiz-adv-x="696" 
d="M548 863l-159 -120h-90l104 120h145zM551 0l-59 159h-288l-59 -159h-142l281 700h128l281 -700h-142zM246 275h204l-102 275z" />
    <glyph glyph-name="Acircumflex" unicode="&#xc2;" horiz-adv-x="696" 
d="M347 812l-71 -69h-108l120 120h119l120 -120h-108zM551 0l-59 159h-288l-59 -159h-142l281 700h128l281 -700h-142zM246 275h204l-102 275z" />
    <glyph glyph-name="Atilde" unicode="&#xc3;" horiz-adv-x="696" 
d="M261 782c-22.667 0 -40.665 -14 -53.998 -42l-42 13c20 76 56.333 114 109 114c19.333 0 49.5 -6.83301 90.5 -20.5s67.5 -20.5 79.5 -20.5c23.333 0 41.666 14 54.999 42l41 -14c-20 -75.333 -56 -113 -108 -113c-20 0 -50.333 6.83301 -91 20.5
s-67.334 20.5 -80.001 20.5zM551.002 0l-59 159h-288l-59 -159h-142l281 700h128l281 -700h-142zM246.002 275h204l-102 275z" />
    <glyph glyph-name="Adieresis" unicode="&#xc4;" horiz-adv-x="696" 
d="M301 852v-109h-119v109h119zM514 852v-109h-119v109h119zM551 0l-59 159h-288l-59 -159h-142l281 700h128l281 -700h-142zM246 275h204l-102 275z" />
    <glyph glyph-name="Aring" unicode="&#xc5;" horiz-adv-x="696" 
d="M551 0l-59 159.001h-288l-59 -159h-142l269 670c-28.667 22 -43 53 -43 93c0 34 11.167 62 33.5 84s50.833 33 85.5 33s63 -11 85 -33s33 -50 33 -84c0 -38.667 -14 -69.334 -42 -92.001l269 -671h-142zM347 826.001c-18 0 -32.833 -6 -44.5 -18s-17.5 -27 -17.5 -45
s5.83301 -33 17.5 -45s26.5 -18 44.5 -18c18.667 0 33.834 6 45.501 18s17.5 27 17.5 45s-5.83301 33 -17.5 45s-26.834 18 -45.501 18zM246 275.001h204l-102 275z" />
    <glyph glyph-name="AE" unicode="&#xc6;" horiz-adv-x="964" 
d="M656 118h269v-118h-393v159h-266l-99 -159h-164l458 700h460v-118h-265v-142h239v-118h-239v-204zM338 275h194v312z" />
    <glyph glyph-name="Ccedilla" unicode="&#xc7;" horiz-adv-x="675" 
d="M657 62c-72 -49.333 -151.33 -74.9971 -237.997 -76.9971l-9 -22c52 -10.667 78 -33 78 -67c0 -8.66699 -1.5 -16.5 -4.5 -23.5s-8.5 -13.833 -16.5 -20.5l-21 -17c-6 -4.66699 -16.5 -10.334 -31.5 -17.001s-26.333 -11.5 -34 -14.5l-40.5 -15.5l-14 32l34.5 16.5
c6.33301 3 14.166 7.33301 23.499 13s15.666 10.5 18.999 14.5s5 8.33301 5 13c0 10 -4.5 17.333 -13.5 22s-24.833 9.66699 -47.5 15l27 72c-103.333 7.33301 -186.666 43.833 -249.999 109.5s-95 150.5 -95 254.5c0 109.333 35.167 197.5 105.5 264.5
s161.166 100.5 272.499 100.5c93.333 0 176.666 -25.667 249.999 -77l-74 -112c-55.333 38.667 -114.333 58 -177 58c-69.333 0 -126.166 -21.333 -170.499 -64s-66.5 -99.334 -66.5 -170.001s22.167 -127.334 66.5 -170.001s101.166 -64 170.499 -64
c62.667 0 121.667 19.333 177 58z" />
    <glyph glyph-name="Egrave" unicode="&#xc8;" horiz-adv-x="525" 
d="M340 743h-90l-159 120h144zM194 120h292v-120h-420v700h415v-120h-287v-140h262v-118h-262v-202z" />
    <glyph glyph-name="Eacute" unicode="&#xc9;" horiz-adv-x="525" 
d="M491 863l-159 -120h-90l104 120h145zM194 322v-202h292v-120h-420v700h415v-120h-287v-140h262v-118h-262z" />
    <glyph glyph-name="Ecircumflex" unicode="&#xca;" horiz-adv-x="525" 
d="M290 812l-71 -69h-108l120 120h119l120 -120h-108zM194 120h292v-120h-420v700h415v-120h-287v-140h262v-118h-262v-202z" />
    <glyph glyph-name="Edieresis" unicode="&#xcb;" horiz-adv-x="525" 
d="M244 852v-109h-119v109h119zM457 852v-109h-119v109h119zM194 120h292v-120h-420v700h415v-120h-287v-140h262v-118h-262v-202z" />
    <glyph glyph-name="Igrave" unicode="&#xcc;" horiz-adv-x="261" 
d="M74 863l105 -120h-90l-159 120h144zM195 700v-700h-129v700h129z" />
    <glyph glyph-name="Iacute" unicode="&#xcd;" horiz-adv-x="261" 
d="M330 863l-159 -120h-90l104 120h145zM195 700v-700h-129v700h129z" />
    <glyph glyph-name="Icircumflex" unicode="&#xce;" horiz-adv-x="261" 
d="M189 863l120 -120h-108l-72 69l-71 -69h-108l120 120h119zM195 700v-700h-129v700h129z" />
    <glyph glyph-name="Idieresis" unicode="&#xcf;" horiz-adv-x="261" 
d="M83 852v-109h-119v109h119zM296 852v-109h-119v109h119zM195 700v-700h-129v700h129z" />
    <glyph glyph-name="Eth" unicode="&#xd0;" horiz-adv-x="689" 
d="M296 700c107.333 0 194.833 -31.5 262.5 -94.5s101.5 -148.167 101.5 -255.5s-33.833 -192.5 -101.5 -255.5s-155.167 -94.5 -262.5 -94.5h-224v304h-76v103h76v293h224zM302 118c65.333 0 118.333 20.333 159 61s61 97.667 61 171s-20.333 130.333 -61 171
s-93.667 61 -159 61h-102v-175h147v-103h-147v-186h102z" />
    <glyph glyph-name="Ntilde" unicode="&#xd1;" horiz-adv-x="720" 
d="M444 741c-20 0 -50.3311 6.83301 -90.998 20.5s-67.334 20.5 -80.001 20.5c-22.667 0 -40.667 -14 -54 -42l-42 13c20 76 56.333 114 109 114c19.333 0 49.5 -6.83301 90.5 -20.5s67.5 -20.5 79.5 -20.5c23.333 0 41.666 14 54.999 42l41 -14
c-20 -75.333 -56 -113 -108 -113zM654.002 700v-700h-119l-340 480h-1v-480h-128v700h119l340 -481h1v481h128z" />
    <glyph glyph-name="Ograve" unicode="&#xd2;" horiz-adv-x="791" 
d="M340 863l105 -120h-90l-159 120h144zM395 715c105.333 0 192.833 -34 262.5 -102s104.5 -155.667 104.5 -263s-34.833 -195 -104.5 -263s-157.167 -102 -262.5 -102s-192.666 34 -261.999 102s-104 155.667 -104 263s34.667 195 104 263s156.666 102 261.999 102z
M395 584c-66 0 -120.167 -21.667 -162.5 -65s-63.5 -99.666 -63.5 -168.999s21.167 -125.666 63.5 -168.999s96.5 -65 162.5 -65s120.167 21.667 162.5 65s63.5 99.666 63.5 168.999s-21.167 125.666 -63.5 168.999s-96.5 65 -162.5 65z" />
    <glyph glyph-name="Oacute" unicode="&#xd3;" horiz-adv-x="791" 
d="M596 863l-159 -120h-90l104 120h145zM395 715c105.333 0 192.833 -34 262.5 -102s104.5 -155.667 104.5 -263s-34.833 -195 -104.5 -263s-157.167 -102 -262.5 -102s-192.666 34 -261.999 102s-104 155.667 -104 263s34.667 195 104 263s156.666 102 261.999 102z
M395 584c-66 0 -120.167 -21.667 -162.5 -65s-63.5 -99.666 -63.5 -168.999s21.167 -125.666 63.5 -168.999s96.5 -65 162.5 -65s120.167 21.667 162.5 65s63.5 99.666 63.5 168.999s-21.167 125.666 -63.5 168.999s-96.5 65 -162.5 65z" />
    <glyph glyph-name="Ocircumflex" unicode="&#xd4;" horiz-adv-x="791" 
d="M455 863l120 -120h-108l-72 69l-71 -69h-108l120 120h119zM395 715c105.333 0 192.833 -34 262.5 -102s104.5 -155.667 104.5 -263s-34.833 -195 -104.5 -263s-157.167 -102 -262.5 -102s-192.666 34 -261.999 102s-104 155.667 -104 263s34.667 195 104 263
s156.666 102 261.999 102zM395 584c-66 0 -120.167 -21.667 -162.5 -65s-63.5 -99.666 -63.5 -168.999s21.167 -125.666 63.5 -168.999s96.5 -65 162.5 -65s120.167 21.667 162.5 65s63.5 99.666 63.5 168.999s-21.167 125.666 -63.5 168.999s-96.5 65 -162.5 65z" />
    <glyph glyph-name="Otilde" unicode="&#xd5;" horiz-adv-x="791" 
d="M480 741c-20 0 -50.3311 6.83301 -90.998 20.5s-67.334 20.5 -80.001 20.5c-22.667 0 -40.667 -14 -54 -42l-42 13c20 76 56.333 114 109 114c19.333 0 49.5 -6.83301 90.5 -20.5s67.5 -20.5 79.5 -20.5c23.333 0 41.666 14 54.999 42l41 -14
c-20 -75.333 -56 -113 -108 -113zM395.002 715c105.333 0 192.833 -34 262.5 -102s104.5 -155.667 104.5 -263s-34.833 -195 -104.5 -263s-157.167 -102 -262.5 -102s-192.666 34 -261.999 102s-104 155.667 -104 263s34.667 195 104 263s156.666 102 261.999 102z
M395.002 584c-66 0 -120.167 -21.667 -162.5 -65s-63.5 -99.666 -63.5 -168.999s21.167 -125.666 63.5 -168.999s96.5 -65 162.5 -65s120.167 21.667 162.5 65s63.5 99.666 63.5 168.999s-21.167 125.666 -63.5 168.999s-96.5 65 -162.5 65z" />
    <glyph glyph-name="Odieresis" unicode="&#xd6;" horiz-adv-x="791" 
d="M349 852v-109h-119v109h119zM562 852v-109h-119v109h119zM395 715c105.333 0 192.833 -34 262.5 -102s104.5 -155.667 104.5 -263s-34.833 -195 -104.5 -263s-157.167 -102 -262.5 -102s-192.666 34 -261.999 102s-104 155.667 -104 263s34.667 195 104 263
s156.666 102 261.999 102zM395 584c-66 0 -120.167 -21.667 -162.5 -65s-63.5 -99.666 -63.5 -168.999s21.167 -125.666 63.5 -168.999s96.5 -65 162.5 -65s120.167 21.667 162.5 65s63.5 99.666 63.5 168.999s-21.167 125.666 -63.5 168.999s-96.5 65 -162.5 65z" />
    <glyph glyph-name="multiply" unicode="&#xd7;" 
d="M478 517l41 -41l-178 -178l178 -178l-41 -41l-178 178l-178 -178l-41 41l178 178l-178 178l41 41l178 -178z" />
    <glyph glyph-name="Oslash" unicode="&#xd8;" horiz-adv-x="791" 
d="M634 634c85.333 -70 128.001 -164.667 128.001 -284c0 -107.333 -34.833 -195 -104.5 -263s-157.167 -102 -262.5 -102c-75.333 0 -142.333 18 -201 54l-39 -53l-38 25l40 54c-85.333 70 -128 165 -128 285c0 107.333 34.667 195 104 263s156.666 102 261.999 102
c74.667 0 142 -18.333 202 -55l40 54l38 -25zM169.001 350c0 -72 23.333 -130.334 70 -175.001l278 377c-37.333 21.333 -78 32 -122 32c-66 0 -120.167 -21.667 -162.5 -65s-63.5 -99.666 -63.5 -168.999zM395.001 115.999c66 0 120.167 21.668 162.5 65.001
s63.5 99.666 63.5 168.999c0 72 -22.667 130 -68 174l-278 -376c34.667 -21.333 74.667 -32 120 -32z" />
    <glyph glyph-name="Ugrave" unicode="&#xd9;" horiz-adv-x="693" 
d="M291 863l105 -120h-90l-159 120h144zM635 700v-424c0 -89.333 -25.333 -160 -76 -212s-121.334 -78 -212.001 -78c-91.333 0 -162.333 26 -213 78s-76 122.667 -76 212v424h135v-416c0 -50.667 14 -91 42 -121s65.333 -45 112 -45s83.834 15 111.501 45
s41.5 70.333 41.5 121v416h135z" />
    <glyph glyph-name="Uacute" unicode="&#xda;" horiz-adv-x="693" 
d="M547 863l-159 -120h-90l104 120h145zM635 700v-424c0 -89.333 -25.333 -160 -76 -212s-121.334 -78 -212.001 -78c-91.333 0 -162.333 26 -213 78s-76 122.667 -76 212v424h135v-416c0 -50.667 14 -91 42 -121s65.333 -45 112 -45s83.834 15 111.501 45
s41.5 70.333 41.5 121v416h135z" />
    <glyph glyph-name="Ucircumflex" unicode="&#xdb;" horiz-adv-x="693" 
d="M406 863l120 -120h-108l-72 69l-71 -69h-108l120 120h119zM635 700v-424c0 -89.333 -25.333 -160 -76 -212s-121.334 -78 -212.001 -78c-91.333 0 -162.333 26 -213 78s-76 122.667 -76 212v424h135v-416c0 -50.667 14 -91 42 -121s65.333 -45 112 -45
s83.834 15 111.501 45s41.5 70.333 41.5 121v416h135z" />
    <glyph glyph-name="Udieresis" unicode="&#xdc;" horiz-adv-x="693" 
d="M300 852v-109h-119v109h119zM513 852v-109h-119v109h119zM635 700v-424c0 -89.333 -25.333 -160 -76 -212s-121.334 -78 -212.001 -78c-91.333 0 -162.333 26 -213 78s-76 122.667 -76 212v424h135v-416c0 -50.667 14 -91 42 -121s65.333 -45 112 -45
s83.834 15 111.501 45s41.5 70.333 41.5 121v416h135z" />
    <glyph glyph-name="Yacute" unicode="&#xdd;" horiz-adv-x="597" 
d="M499 863l-159 -120h-90l104 120h145zM597 700l-234 -431v-269h-129v267l-234 433h151l146 -301h3l146 301h151z" />
    <glyph glyph-name="Thorn" unicode="&#xde;" horiz-adv-x="578" 
d="M192 700v-124h113c78.667 0 139.167 -20.5 181.5 -61.5s63.5 -94.5 63.5 -160.5s-21.333 -119.833 -64 -161.5s-103 -62.5 -181 -62.5h-113v-130h-126v700h126zM305 461l-113 -0.000976562v-215h113c36.667 0 65.667 9.33301 87 28s32 45.334 32 80.001
s-10.667 61.167 -32 79.5s-50.333 27.5 -87 27.5z" />
    <glyph glyph-name="germandbls" unicode="&#xdf;" horiz-adv-x="575" 
d="M357 397c62 -3.33301 109.669 -21.166 143.002 -53.499s50 -77.166 50 -134.499c0 -69.333 -23.833 -122.333 -71.5 -159s-114.167 -55 -199.5 -55h-48v110h39c53.333 0 92.333 8.83301 117 26.5s37 46.167 37 85.5c0 46 -15.333 78.167 -46 96.5s-76.667 27.5 -138 27.5
v98c83.333 0 125 28.333 125 85c0 26 -7.83301 46 -23.5 60s-36.834 21 -63.501 21c-30 0 -54 -8.66699 -72 -26s-27 -43 -27 -77v-632h-123v623c0 67.333 19.333 121.166 58 161.499s95 60.5 169 60.5c65.333 0 115.666 -15.667 150.999 -47s53 -72 53 -122
c0 -38 -10.833 -69.833 -32.5 -95.5s-54.167 -42.834 -97.5 -51.501v-2z" />
    <glyph glyph-name="agrave" unicode="&#xe0;" horiz-adv-x="578" 
d="M223 707l104 -154h-96l-153 154h145zM248 -15c-63.333 0 -116.166 22 -158.499 66s-63.5 104 -63.5 180s21.167 136 63.5 180s95.166 66 158.499 66c70.667 0 122 -26.667 154 -80h2v65h122v-462h-122v65h-2c-32 -53.333 -83.333 -80 -154 -80zM279 101
c37.333 0 67.5 12 90.5 36s34.5 55.333 34.5 94s-11.5 70 -34.5 94s-53.167 36 -90.5 36s-67.5 -12 -90.5 -36s-34.5 -55.333 -34.5 -94s11.5 -70 34.5 -94s53.167 -36 90.5 -36z" />
    <glyph glyph-name="aacute" unicode="&#xe1;" horiz-adv-x="578" 
d="M479 707l-153 -154h-96l104 154h145zM248 -15c-63.333 0 -116.166 22 -158.499 66s-63.5 104 -63.5 180s21.167 136 63.5 180s95.166 66 158.499 66c70.667 0 122 -26.667 154 -80h2v65h122v-462h-122v65h-2c-32 -53.333 -83.333 -80 -154 -80zM279 101
c37.333 0 67.5 12 90.5 36s34.5 55.333 34.5 94s-11.5 70 -34.5 94s-53.167 36 -90.5 36s-67.5 -12 -90.5 -36s-34.5 -55.333 -34.5 -94s11.5 -70 34.5 -94s53.167 -36 90.5 -36z" />
    <glyph glyph-name="acircumflex" unicode="&#xe2;" horiz-adv-x="578" 
d="M339 707l123 -154h-108l-74 89l-73 -89h-109l123 154h118zM248 -15c-63.333 0 -116.166 22 -158.499 66s-63.5 104 -63.5 180s21.167 136 63.5 180s95.166 66 158.499 66c70.667 0 122 -26.667 154 -80h2v65h122v-462h-122v65h-2c-32 -53.333 -83.333 -80 -154 -80z
M279 101c37.333 0 67.5 12 90.5 36s34.5 55.333 34.5 94s-11.5 70 -34.5 94s-53.167 36 -90.5 36s-67.5 -12 -90.5 -36s-34.5 -55.333 -34.5 -94s11.5 -70 34.5 -94s53.167 -36 90.5 -36z" />
    <glyph glyph-name="atilde" unicode="&#xe3;" horiz-adv-x="578" 
d="M206 705c20.667 0 49.499 -8 86.499 -24s61.5 -24 73.5 -24c21.333 0 39 15 53 45l48 -15c-18 -80.667 -53.667 -121 -107 -121c-20.667 0 -49.667 8.16699 -87 24.5s-61.666 24.5 -72.999 24.5c-22 0 -40 -15.333 -54 -46l-48 15c18 80.667 54 121 108 121zM247.999 -15
c-63.333 0 -116.166 22 -158.499 66s-63.5 104 -63.5 180s21.167 136 63.5 180s95.166 66 158.499 66c70.667 0 122 -26.667 154 -80h2v65h122v-462h-122v65h-2c-32 -53.333 -83.333 -80 -154 -80zM278.999 101c37.333 0 67.5 12 90.5 36s34.5 55.333 34.5 94
s-11.5 70 -34.5 94s-53.167 36 -90.5 36s-67.5 -12 -90.5 -36s-34.5 -55.333 -34.5 -94s11.5 -70 34.5 -94s53.167 -36 90.5 -36z" />
    <glyph glyph-name="adieresis" unicode="&#xe4;" horiz-adv-x="578" 
d="M241 690v-127h-111v127h111zM429 690v-127h-111v127h111zM248 -15c-63.333 0 -116.166 22 -158.499 66s-63.5 104 -63.5 180s21.167 136 63.5 180s95.166 66 158.499 66c70.667 0 122 -26.667 154 -80h2v65h122v-462h-122v65h-2c-32 -53.333 -83.333 -80 -154 -80z
M279 101c37.333 0 67.5 12 90.5 36s34.5 55.333 34.5 94s-11.5 70 -34.5 94s-53.167 36 -90.5 36s-67.5 -12 -90.5 -36s-34.5 -55.333 -34.5 -94s11.5 -70 34.5 -94s53.167 -36 90.5 -36z" />
    <glyph glyph-name="aring" unicode="&#xe5;" horiz-adv-x="578" 
d="M279 747c34.667 0 63.334 -11 86.001 -33s34 -50 34 -84s-11.333 -62 -34 -84s-51.334 -33 -86.001 -33s-63.167 11 -85.5 33s-33.5 50 -33.5 84s11.167 62 33.5 84s50.833 33 85.5 33zM279 693c-18.667 0 -33.834 -6 -45.501 -18s-17.5 -27 -17.5 -45
s5.83301 -33 17.5 -45s26.834 -18 45.501 -18c19.333 0 34.833 6 46.5 18s17.5 27 17.5 45s-5.83301 33 -17.5 45s-27.167 18 -46.5 18zM248 -15c-63.333 0 -116.166 22 -158.499 66s-63.5 104 -63.5 180s21.167 136 63.5 180s95.166 66 158.499 66
c70.667 0 122 -26.667 154 -80h2v65h122v-462h-122v65h-2c-32 -53.333 -83.333 -80 -154 -80zM279 101c37.333 0 67.5 12 90.5 36s34.5 55.333 34.5 94s-11.5 70 -34.5 94s-53.167 36 -90.5 36s-67.5 -12 -90.5 -36s-34.5 -55.333 -34.5 -94s11.5 -70 34.5 -94
s53.167 -36 90.5 -36z" />
    <glyph glyph-name="ae" unicode="&#xe6;" horiz-adv-x="820" 
d="M203 -15c-55.333 0 -100.329 15 -134.996 45s-52 69.667 -52 119c0 48.667 16.667 87.667 50 117s77.666 44 132.999 44c61.333 0 107.333 -16.333 138 -49h2v30c0 56.667 -35 85 -105 85c-37.333 0 -85 -7.33301 -143 -22l-25 101c64 14.667 121.333 22 172 22
c83.333 0 137.666 -29 162.999 -87h2c16 26 39.167 47 69.5 63s65.5 24 105.5 24c67.333 0 120.666 -21.5 159.999 -64.5s59 -103.833 59 -182.5v-24h-342c4.66699 -34.667 17.667 -62 39 -82s50.666 -30 87.999 -30c50 0 96 21 138 63l61 -87
c-58 -56.667 -123.667 -85 -197 -85c-44.667 0 -83.5 9 -116.5 27s-57.833 42.333 -74.5 73h-2c-39.333 -66.667 -102 -100 -188 -100zM458.004 285l213 0.000976562c-0.666992 28 -10.5 50.5 -29.5 67.5s-43.5 25.5 -73.5 25.5c-28.667 0 -53 -7.83301 -73 -23.5
s-32.333 -38.834 -37 -69.501zM240.004 83.001c28.667 0 52.5 6.33398 71.5 19.001s28.5 29.334 28.5 50.001c0 21.333 -9.33301 38.166 -28 50.499s-42.334 18.5 -71.001 18.5c-29.333 0 -51.833 -6.5 -67.5 -19.5s-23.5 -29.5 -23.5 -49.5
c0 -20.667 7.83301 -37.334 23.5 -50.001s37.834 -19 66.501 -19z" />
    <glyph glyph-name="ccedilla" unicode="&#xe7;" horiz-adv-x="457" 
d="M443 31c-47.333 -30 -98.3301 -45.3311 -152.997 -45.998l-9 -22c52 -10.667 78 -33 78 -67c0 -8.66699 -1.5 -16.5 -4.5 -23.5s-8.5 -13.833 -16.5 -20.5l-21 -17c-6 -4.66699 -16.5 -10.334 -31.5 -17.001s-26.333 -11.5 -34 -14.5l-40.5 -15.5l-14 32l34.5 16.5
c6.33301 3 14.166 7.33301 23.499 13s15.666 10.5 18.999 14.5s5 8.33301 5 13c0 10 -4.5 17.333 -13.5 22s-24.833 9.66699 -47.5 15l27 73c-66 7.33301 -119 33 -159 77s-60 99.667 -60 167c0 73.333 23.667 132.666 71 177.999s108.666 68 183.999 68
c58.667 0 112.667 -15.333 162 -46l-53 -101c-34 21.333 -69.667 32 -107 32c-38 0 -69.333 -12.167 -94 -36.5s-37 -55.833 -37 -94.5s12.333 -70.167 37 -94.5s56 -36.5 94 -36.5c37.333 0 73 10.667 107 32z" />
    <glyph glyph-name="egrave" unicode="&#xe8;" horiz-adv-x="514" 
d="M210 707l104 -154h-96l-153 154h145zM266 477c70.667 0 125.666 -21.5 164.999 -64.5s59 -103.833 59 -182.5v-24h-345c3.33301 -35.333 16.833 -62.833 40.5 -82.5s53.5 -29.5 89.5 -29.5c50 0 96 21 138 63l62 -89c-60 -55.333 -126.667 -83 -200 -83
c-75.333 0 -135.666 22.333 -180.999 67s-68 104 -68 178s22 133.667 66 179s102 68 174 68zM259.999 378c-64.667 0 -102 -30.999 -112 -92.999h218c-2 29.333 -12.5 52.166 -31.5 68.499s-43.833 24.5 -74.5 24.5z" />
    <glyph glyph-name="eacute" unicode="&#xe9;" horiz-adv-x="514" 
d="M466 707l-153 -154h-96l104 154h145zM266 477c70.667 0 125.666 -21.5 164.999 -64.5s59 -103.833 59 -182.5v-24h-345c3.33301 -35.333 16.833 -62.833 40.5 -82.5s53.5 -29.5 89.5 -29.5c50 0 96 21 138 63l62 -89c-60 -55.333 -126.667 -83 -200 -83
c-75.333 0 -135.666 22.333 -180.999 67s-68 104 -68 178s22 133.667 66 179s102 68 174 68zM259.999 378c-64.667 0 -102 -30.999 -112 -92.999h218c-2 29.333 -12.5 52.166 -31.5 68.499s-43.833 24.5 -74.5 24.5z" />
    <glyph glyph-name="ecircumflex" unicode="&#xea;" horiz-adv-x="514" 
d="M326 707l123 -154h-108l-74 89l-73 -89h-109l123 154h118zM266 477c70.667 0 125.666 -21.5 164.999 -64.5s59 -103.833 59 -182.5v-24h-345c3.33301 -35.333 16.833 -62.833 40.5 -82.5s53.5 -29.5 89.5 -29.5c50 0 96 21 138 63l62 -89
c-60 -55.333 -126.667 -83 -200 -83c-75.333 0 -135.666 22.333 -180.999 67s-68 104 -68 178s22 133.667 66 179s102 68 174 68zM259.999 378c-64.667 0 -102 -30.999 -112 -92.999h218c-2 29.333 -12.5 52.166 -31.5 68.499s-43.833 24.5 -74.5 24.5z" />
    <glyph glyph-name="edieresis" unicode="&#xeb;" horiz-adv-x="514" 
d="M228 690v-127h-111v127h111zM416 690v-127h-111v127h111zM266 477c70.667 0 125.666 -21.5 164.999 -64.5s59 -103.833 59 -182.5v-24h-345c3.33301 -35.333 16.833 -62.833 40.5 -82.5s53.5 -29.5 89.5 -29.5c50 0 96 21 138 63l62 -89
c-60 -55.333 -126.667 -83 -200 -83c-75.333 0 -135.666 22.333 -180.999 67s-68 104 -68 178s22 133.667 66 179s102 68 174 68zM259.999 378c-64.667 0 -102 -30.999 -112 -92.999h218c-2 29.333 -12.5 52.166 -31.5 68.499s-43.833 24.5 -74.5 24.5z" />
    <glyph glyph-name="igrave" unicode="&#xec;" horiz-adv-x="236" 
d="M102 707l64 -154h-96l-86 154h118zM56 0v462h123v-462h-123z" />
    <glyph glyph-name="iacute" unicode="&#xed;" horiz-adv-x="236" 
d="M70 553l64 154h118l-86 -154h-96zM56 0v462h123v-462h-123z" />
    <glyph glyph-name="icircumflex" unicode="&#xee;" horiz-adv-x="236" 
d="M177 707l89 -154h-102l-46 93l-46 -93h-102l89 154h118zM56 0v462h123v-462h-123z" />
    <glyph glyph-name="idieresis" unicode="&#xef;" horiz-adv-x="236" 
d="M100 690v-127h-100v127h100zM236 690v-127h-100v127h100zM56 0v462h123v-462h-123z" />
    <glyph glyph-name="eth" unicode="&#xf0;" horiz-adv-x="572" 
d="M394 665c95.333 -78 143.004 -197 143.004 -357c0 -58.667 -7.5 -109.667 -22.5 -153s-35.333 -77 -61 -101s-53.334 -41.5 -83.001 -52.5s-61.5 -16.5 -95.5 -16.5c-76.667 0 -137.334 23 -182.001 69s-67 104.667 -67 176c0 75.333 22.5 135.333 67.5 180
s100.167 67 165.5 67c75.333 0 130 -29 164 -87h2c-10.667 88.667 -48.334 157 -113.001 205l-101 -86l-47 51l84 71c-34.667 16 -76.334 27.667 -125.001 35l22 97c74.667 -11.333 138 -31 190 -59l78 66l45 -51zM279.004 99c38.667 0 70.332 12.166 94.999 36.499
s37 56.5 37 96.5c0 40.667 -12.333 72.834 -37 96.501s-56.667 35.5 -96 35.5s-71 -12.333 -95 -37s-36 -56.667 -36 -96c0 -40 12.333 -72 37 -96s56.334 -36 95.001 -36z" />
    <glyph glyph-name="ntilde" unicode="&#xf1;" horiz-adv-x="551" 
d="M214 705c20.667 0 49.499 -8 86.499 -24s61.5 -24 73.5 -24c21.333 0 39 15 53 45l48 -15c-18 -80.667 -53.667 -121 -107 -121c-20.667 0 -49.667 8.16699 -87 24.5s-61.666 24.5 -72.999 24.5c-22 0 -40 -15.333 -54 -46l-48 15c18 80.667 54 121 108 121zM327.999 477
c53.333 0 95.668 -15.832 127.001 -47.499s47 -79.834 47 -144.501v-285h-123v256c0 71.333 -31.667 107 -95 107c-72 0 -108 -45.667 -108 -137v-226h-122v462h121v-70h2c33.333 56.667 83.666 85 150.999 85z" />
    <glyph glyph-name="ograve" unicode="&#xf2;" horiz-adv-x="563" 
d="M225 707l104 -154h-96l-153 154h145zM282 477c74 0 135.167 -23 183.5 -69s72.5 -105 72.5 -177s-24.167 -131 -72.5 -177s-109.5 -69 -183.5 -69s-135.167 23 -183.5 69s-72.5 105 -72.5 177s24.167 131 72.5 177s109.5 69 183.5 69zM282 361
c-38 0 -69.167 -11.833 -93.5 -35.5s-36.5 -55.167 -36.5 -94.5s12.167 -70.833 36.5 -94.5s55.5 -35.5 93.5 -35.5s69 11.833 93 35.5s36 55.167 36 94.5s-12 70.833 -36 94.5s-55 35.5 -93 35.5z" />
    <glyph glyph-name="oacute" unicode="&#xf3;" horiz-adv-x="563" 
d="M481 707l-153 -154h-96l104 154h145zM282 477c74 0 135.167 -23 183.5 -69s72.5 -105 72.5 -177s-24.167 -131 -72.5 -177s-109.5 -69 -183.5 -69s-135.167 23 -183.5 69s-72.5 105 -72.5 177s24.167 131 72.5 177s109.5 69 183.5 69zM282 361
c-38 0 -69.167 -11.833 -93.5 -35.5s-36.5 -55.167 -36.5 -94.5s12.167 -70.833 36.5 -94.5s55.5 -35.5 93.5 -35.5s69 11.833 93 35.5s36 55.167 36 94.5s-12 70.833 -36 94.5s-55 35.5 -93 35.5z" />
    <glyph glyph-name="ocircumflex" unicode="&#xf4;" horiz-adv-x="563" 
d="M341 707l123 -154h-108l-74 89l-73 -89h-109l123 154h118zM282 477c74 0 135.167 -23 183.5 -69s72.5 -105 72.5 -177s-24.167 -131 -72.5 -177s-109.5 -69 -183.5 -69s-135.167 23 -183.5 69s-72.5 105 -72.5 177s24.167 131 72.5 177s109.5 69 183.5 69zM282 361
c-38 0 -69.167 -11.833 -93.5 -35.5s-36.5 -55.167 -36.5 -94.5s12.167 -70.833 36.5 -94.5s55.5 -35.5 93.5 -35.5s69 11.833 93 35.5s36 55.167 36 94.5s-12 70.833 -36 94.5s-55 35.5 -93 35.5z" />
    <glyph glyph-name="otilde" unicode="&#xf5;" horiz-adv-x="563" 
d="M208 705c20.667 0 49.499 -8 86.499 -24s61.5 -24 73.5 -24c21.333 0 39 15 53 45l48 -15c-18 -80.667 -53.667 -121 -107 -121c-20.667 0 -49.667 8.16699 -87 24.5s-61.666 24.5 -72.999 24.5c-22 0 -40 -15.333 -54 -46l-48 15c18 80.667 54 121 108 121zM281.999 477
c74 0 135.167 -23 183.5 -69s72.5 -105 72.5 -177s-24.167 -131 -72.5 -177s-109.5 -69 -183.5 -69s-135.167 23 -183.5 69s-72.5 105 -72.5 177s24.167 131 72.5 177s109.5 69 183.5 69zM281.999 361c-38 0 -69.167 -11.833 -93.5 -35.5s-36.5 -55.167 -36.5 -94.5
s12.167 -70.833 36.5 -94.5s55.5 -35.5 93.5 -35.5s69 11.833 93 35.5s36 55.167 36 94.5s-12 70.833 -36 94.5s-55 35.5 -93 35.5z" />
    <glyph glyph-name="odieresis" unicode="&#xf6;" horiz-adv-x="563" 
d="M243 690v-127h-111v127h111zM431 690v-127h-111v127h111zM282 477c74 0 135.167 -23 183.5 -69s72.5 -105 72.5 -177s-24.167 -131 -72.5 -177s-109.5 -69 -183.5 -69s-135.167 23 -183.5 69s-72.5 105 -72.5 177s24.167 131 72.5 177s109.5 69 183.5 69zM282 361
c-38 0 -69.167 -11.833 -93.5 -35.5s-36.5 -55.167 -36.5 -94.5s12.167 -70.833 36.5 -94.5s55.5 -35.5 93.5 -35.5s69 11.833 93 35.5s36 55.167 36 94.5s-12 70.833 -36 94.5s-55 35.5 -93 35.5z" />
    <glyph glyph-name="divide" unicode="&#xf7;" 
d="M344 505v-91h-88v91h88zM559 326v-55h-518v55h518zM344 184v-92h-88v92h88z" />
    <glyph glyph-name="oslash" unicode="&#xf8;" horiz-adv-x="563" 
d="M461 412c51.333 -46 77 -106.333 77 -181c0 -72 -24.167 -131 -72.5 -177s-109.5 -69 -183.5 -69c-60 0 -112.333 15.667 -157 47l-40 -46l-27 23l40 45c-48 46.667 -72 105.667 -72 177c0 72 24.167 131 72.5 177s109.5 69 183.5 69c58 0 108 -14.333 150 -43l38 43
l27 -24zM152 231c0 -32.667 9 -60.667 27 -84l173 196c-20 12 -43.333 18 -70 18c-38 0 -69.167 -11.833 -93.5 -35.5s-36.5 -55.167 -36.5 -94.5zM282 101c38 0 69 11.832 93 35.499s36 55.167 36 94.5c0 36.667 -10.333 66.334 -31 89.001l-174 -197
c22 -14.667 47.333 -22 76 -22z" />
    <glyph glyph-name="ugrave" unicode="&#xf9;" horiz-adv-x="541" 
d="M214 707l104 -154h-96l-153 154h145zM220 -15c-50.667 0 -91.833 16 -123.5 48s-47.5 80.667 -47.5 146v283h126v-261c0 -68.667 29 -103 87 -103c68 0 102 47.333 102 142v222h123v-462h-121v71h-2c-32 -57.333 -80 -86 -144 -86z" />
    <glyph glyph-name="uacute" unicode="&#xfa;" horiz-adv-x="541" 
d="M470 707l-153 -154h-96l104 154h145zM220 -15c-50.667 0 -91.833 16 -123.5 48s-47.5 80.667 -47.5 146v283h126v-261c0 -68.667 29 -103 87 -103c68 0 102 47.333 102 142v222h123v-462h-121v71h-2c-32 -57.333 -80 -86 -144 -86z" />
    <glyph glyph-name="ucircumflex" unicode="&#xfb;" horiz-adv-x="541" 
d="M330 707l123 -154h-108l-74 89l-73 -89h-109l123 154h118zM220 -15c-50.667 0 -91.833 16 -123.5 48s-47.5 80.667 -47.5 146v283h126v-261c0 -68.667 29 -103 87 -103c68 0 102 47.333 102 142v222h123v-462h-121v71h-2c-32 -57.333 -80 -86 -144 -86z" />
    <glyph glyph-name="udieresis" unicode="&#xfc;" horiz-adv-x="541" 
d="M232 690v-127h-111v127h111zM420 690v-127h-111v127h111zM220 -15c-50.667 0 -91.833 16 -123.5 48s-47.5 80.667 -47.5 146v283h126v-261c0 -68.667 29 -103 87 -103c68 0 102 47.333 102 142v222h123v-462h-121v71h-2c-32 -57.333 -80 -86 -144 -86z" />
    <glyph glyph-name="yacute" unicode="&#xfd;" horiz-adv-x="520" 
d="M465 707l-153 -154h-96l104 154h145zM386 462h129l-296 -662h-127l113 243l-200 419h144l117 -281z" />
    <glyph glyph-name="thorn" unicode="&#xfe;" horiz-adv-x="582" 
d="M56 -200v900h123v-303h2c32 53.333 83.333 80 154 80c62.667 0 115.167 -22 157.5 -66s63.5 -104 63.5 -180s-21.167 -136 -63.5 -180s-94.833 -66 -157.5 -66c-70.667 0 -122 26.667 -154 80h-2v-265h-123zM304 101c37.333 0 67.5 12 90.5 36s34.5 55.333 34.5 94
s-11.5 70 -34.5 94s-53.167 36 -90.5 36s-67.5 -12 -90.5 -36s-34.5 -55.333 -34.5 -94s11.5 -70 34.5 -94s53.167 -36 90.5 -36z" />
    <glyph glyph-name="ydieresis" unicode="&#xff;" horiz-adv-x="520" 
d="M227 690v-127h-111v127h111zM415 690v-127h-111v127h111zM386 462h129l-296 -662h-127l113 243l-200 419h144l117 -281z" />
    <glyph glyph-name="Amacron" unicode="&#x100;" horiz-adv-x="696" 
d="M500 838v-83h-306v83h306zM551 0l-59 159h-288l-59 -159h-142l281 700h128l281 -700h-142zM246 275h204l-102 275z" />
    <glyph glyph-name="amacron" unicode="&#x101;" horiz-adv-x="578" 
d="M433 667v-85h-306v85h306zM248 -15c-63.333 0 -116.166 22 -158.499 66s-63.5 104 -63.5 180s21.167 136 63.5 180s95.166 66 158.499 66c70.667 0 122 -26.667 154 -80h2v65h122v-462h-122v65h-2c-32 -53.333 -83.333 -80 -154 -80zM279 101c37.333 0 67.5 12 90.5 36
s34.5 55.333 34.5 94s-11.5 70 -34.5 94s-53.167 36 -90.5 36s-67.5 -12 -90.5 -36s-34.5 -55.333 -34.5 -94s11.5 -70 34.5 -94s53.167 -36 90.5 -36z" />
    <glyph glyph-name="Abreve" unicode="&#x102;" horiz-adv-x="696" 
d="M348 739c-42.667 0 -77.166 11 -103.499 33s-41.5 52.333 -45.5 91h84c3.33301 -34 25 -51 65 -51s61.667 17 65 51h85c-4 -38.667 -19.333 -69 -46 -91s-61.334 -33 -104.001 -33zM551.001 0l-59 159h-288l-59 -159h-142l281 700h128l281 -700h-142zM246.001 275h204
l-102 275z" />
    <glyph glyph-name="abreve" unicode="&#x103;" horiz-adv-x="578" 
d="M430 700c0 -46 -13.998 -82.5 -41.998 -109.5s-64 -40.5 -108 -40.5s-79.833 13.5 -107.5 40.5s-41.5 63.5 -41.5 109.5h81c1.33301 -21.333 7.66602 -38.666 18.999 -51.999s27.666 -20 48.999 -20s37.833 6.66699 49.5 20s18.167 30.666 19.5 51.999h81zM248.002 -15
c-63.333 0 -116.166 22 -158.499 66s-63.5 104 -63.5 180s21.167 136 63.5 180s95.166 66 158.499 66c70.667 0 122 -26.667 154 -80h2v65h122v-462h-122v65h-2c-32 -53.333 -83.333 -80 -154 -80zM279.002 101c37.333 0 67.5 12 90.5 36s34.5 55.333 34.5 94
s-11.5 70 -34.5 94s-53.167 36 -90.5 36s-67.5 -12 -90.5 -36s-34.5 -55.333 -34.5 -94s11.5 -70 34.5 -94s53.167 -36 90.5 -36z" />
    <glyph glyph-name="Aogonek" unicode="&#x104;" horiz-adv-x="696" 
d="M571 -118c10.667 0 23.667 1.66699 39 5l12 -77c-26 -6 -49.333 -9 -70 -9c-30 0 -53.667 6.66699 -71 20s-26 33.333 -26 60c0 39.333 30.333 83 91 131l-54 147h-288l-59 -159h-142l281 700h128l281 -700h-84c-43.333 -43.333 -65 -75.333 -65 -96
c0 -14.667 9 -22 27 -22zM246 275h204l-102 275z" />
    <glyph glyph-name="aogonek" unicode="&#x105;" horiz-adv-x="578" 
d="M526 0h-56c-43.333 -43.333 -65 -75.333 -65 -96c0 -14.667 9 -22 27 -22c10.667 0 23.667 1.66699 39 5l12 -77c-26 -6 -49.333 -9 -70 -9c-30 0 -53.667 6.66699 -71 20s-26 33.333 -26 60c0 39.333 29.333 82.333 88 129v55h-2c-32 -53.333 -83.333 -80 -154 -80
c-63.333 0 -116.166 22 -158.499 66s-63.5 104 -63.5 180s21.167 136 63.5 180s95.166 66 158.499 66c70.667 0 122 -26.667 154 -80h2v65h122v-462zM279 101c37.333 0 67.5 12 90.5 36s34.5 55.333 34.5 94s-11.5 70 -34.5 94s-53.167 36 -90.5 36s-67.5 -12 -90.5 -36
s-34.5 -55.333 -34.5 -94s11.5 -70 34.5 -94s53.167 -36 90.5 -36z" />
    <glyph glyph-name="Cacute" unicode="&#x106;" horiz-adv-x="675" 
d="M604 863l-159 -120h-90l104 120h145zM407 -15c-111.333 0 -202.166 33.502 -272.499 100.502s-105.5 155.167 -105.5 264.5s35.167 197.5 105.5 264.5s161.166 100.5 272.499 100.5c93.333 0 176.666 -25.667 249.999 -77l-74 -112c-55.333 38.667 -114.333 58 -177 58
c-69.333 0 -126.166 -21.333 -170.499 -64s-66.5 -99.334 -66.5 -170.001s22.167 -127.334 66.5 -170.001s101.166 -64 170.499 -64c62.667 0 121.667 19.333 177 58l74 -112c-73.333 -51.333 -156.666 -77 -249.999 -77z" />
    <glyph glyph-name="cacute" unicode="&#x107;" horiz-adv-x="457" 
d="M472 707l-153 -154h-96l104 154h145zM281 -15c-75.333 0 -136.666 22.6689 -183.999 68.002s-71 104.666 -71 177.999s23.667 132.666 71 177.999s108.666 68 183.999 68c58.667 0 112.667 -15.333 162 -46l-53 -101c-34 21.333 -69.667 32 -107 32
c-38 0 -69.333 -12.167 -94 -36.5s-37 -55.833 -37 -94.5s12.333 -70.167 37 -94.5s56 -36.5 94 -36.5c37.333 0 73 10.667 107 32l53 -101c-49.333 -30.667 -103.333 -46 -162 -46z" />
    <glyph glyph-name="Ccircumflex" unicode="&#x108;" horiz-adv-x="675" 
d="M463 863l120 -120h-108l-72 69l-71 -69h-108l120 120h119zM407 -15c-111.333 0 -202.166 33.502 -272.499 100.502s-105.5 155.167 -105.5 264.5s35.167 197.5 105.5 264.5s161.166 100.5 272.499 100.5c93.333 0 176.666 -25.667 249.999 -77l-74 -112
c-55.333 38.667 -114.333 58 -177 58c-69.333 0 -126.166 -21.333 -170.499 -64s-66.5 -99.334 -66.5 -170.001s22.167 -127.334 66.5 -170.001s101.166 -64 170.499 -64c62.667 0 121.667 19.333 177 58l74 -112c-73.333 -51.333 -156.666 -77 -249.999 -77z" />
    <glyph glyph-name="ccircumflex" unicode="&#x109;" horiz-adv-x="457" 
d="M332 707l123 -154h-108l-74 89l-73 -89h-109l123 154h118zM281 -15c-75.333 0 -136.666 22.6689 -183.999 68.002s-71 104.666 -71 177.999s23.667 132.666 71 177.999s108.666 68 183.999 68c58.667 0 112.667 -15.333 162 -46l-53 -101c-34 21.333 -69.667 32 -107 32
c-38 0 -69.333 -12.167 -94 -36.5s-37 -55.833 -37 -94.5s12.333 -70.167 37 -94.5s56 -36.5 94 -36.5c37.333 0 73 10.667 107 32l53 -101c-49.333 -30.667 -103.333 -46 -162 -46z" />
    <glyph glyph-name="Cdotaccent" unicode="&#x10a;" horiz-adv-x="675" 
d="M465 858v-115h-123v115h123zM407 -15c-111.333 0 -202.166 33.502 -272.499 100.502s-105.5 155.167 -105.5 264.5s35.167 197.5 105.5 264.5s161.166 100.5 272.499 100.5c93.333 0 176.666 -25.667 249.999 -77l-74 -112c-55.333 38.667 -114.333 58 -177 58
c-69.333 0 -126.166 -21.333 -170.499 -64s-66.5 -99.334 -66.5 -170.001s22.167 -127.334 66.5 -170.001s101.166 -64 170.499 -64c62.667 0 121.667 19.333 177 58l74 -112c-73.333 -51.333 -156.666 -77 -249.999 -77z" />
    <glyph glyph-name="cdotaccent" unicode="&#x10b;" horiz-adv-x="457" 
d="M343 694v-135h-140v135h140zM281 -15c-75.333 0 -136.666 22.6689 -183.999 68.002s-71 104.666 -71 177.999s23.667 132.666 71 177.999s108.666 68 183.999 68c58.667 0 112.667 -15.333 162 -46l-53 -101c-34 21.333 -69.667 32 -107 32
c-38 0 -69.333 -12.167 -94 -36.5s-37 -55.833 -37 -94.5s12.333 -70.167 37 -94.5s56 -36.5 94 -36.5c37.333 0 73 10.667 107 32l53 -101c-49.333 -30.667 -103.333 -46 -162 -46z" />
    <glyph glyph-name="Ccaron" unicode="&#x10c;" horiz-adv-x="675" 
d="M463 743h-119l-120 120h108l71 -69l72 69h108zM407 -15c-111.333 0 -202.166 33.502 -272.499 100.502s-105.5 155.167 -105.5 264.5s35.167 197.5 105.5 264.5s161.166 100.5 272.499 100.5c93.333 0 176.666 -25.667 249.999 -77l-74 -112
c-55.333 38.667 -114.333 58 -177 58c-69.333 0 -126.166 -21.333 -170.499 -64s-66.5 -99.334 -66.5 -170.001s22.167 -127.334 66.5 -170.001s101.166 -64 170.499 -64c62.667 0 121.667 19.333 177 58l74 -112c-73.333 -51.333 -156.666 -77 -249.999 -77z" />
    <glyph glyph-name="ccaron" unicode="&#x10d;" horiz-adv-x="457" 
d="M455 700l-123 -154h-118l-123 154h109l73 -89l74 89h108zM281 -15c-75.333 0 -136.666 22.6689 -183.999 68.002s-71 104.666 -71 177.999s23.667 132.666 71 177.999s108.666 68 183.999 68c58.667 0 112.667 -15.333 162 -46l-53 -101c-34 21.333 -69.667 32 -107 32
c-38 0 -69.333 -12.167 -94 -36.5s-37 -55.833 -37 -94.5s12.333 -70.167 37 -94.5s56 -36.5 94 -36.5c37.333 0 73 10.667 107 32l53 -101c-49.333 -30.667 -103.333 -46 -162 -46z" />
    <glyph glyph-name="Dcaron" unicode="&#x10e;" horiz-adv-x="683" 
d="M341 743h-119l-120 120h108l71 -69l72 69h108zM290 700c107.333 0 194.833 -31.5 262.5 -94.5s101.5 -148.167 101.5 -255.5s-33.833 -192.5 -101.5 -255.5s-155.167 -94.5 -262.5 -94.5h-224v700h224zM296 582h-102v-464h102c65.333 0 118.333 20.333 159 61
s61 97.667 61 171s-20.333 130.333 -61 171s-93.667 61 -159 61z" />
    <glyph glyph-name="dcaron" unicode="&#x10f;" horiz-adv-x="698" 
d="M569 715h121v-121l-80 -96h-44l44 96h-41v121zM404 397v303h122v-700h-122v65h-2c-32 -53.333 -83.333 -80 -154 -80c-63.333 0 -116.166 22 -158.499 66s-63.5 104 -63.5 180s21.167 136 63.5 180s95.166 66 158.499 66c70.667 0 122 -26.667 154 -80h2zM279 101
c37.333 0 67.5 12 90.5 36s34.5 55.333 34.5 94s-11.5 70 -34.5 94s-53.167 36 -90.5 36s-67.5 -12 -90.5 -36s-34.5 -55.333 -34.5 -94s11.5 -70 34.5 -94s53.167 -36 90.5 -36z" />
    <glyph glyph-name="Dcroat" unicode="&#x110;" horiz-adv-x="689" 
d="M296 700c107.333 0 194.833 -31.5 262.5 -94.5s101.5 -148.167 101.5 -255.5s-33.833 -192.5 -101.5 -255.5s-155.167 -94.5 -262.5 -94.5h-224v304h-76v103h76v293h224zM302 118c65.333 0 118.333 20.333 159 61s61 97.667 61 171s-20.333 130.333 -61 171
s-93.667 61 -159 61h-102v-175h147v-103h-147v-186h102z" />
    <glyph glyph-name="dcroat" unicode="&#x111;" horiz-adv-x="592" 
d="M592 629v-73h-66v-556h-122v65h-2c-32 -53.333 -83.333 -80 -154 -80c-63.333 0 -116.166 22 -158.499 66s-63.5 104 -63.5 180s21.167 136 63.5 180s95.166 66 158.499 66c70.667 0 122 -26.667 154 -80h2v159h-133v73h133v71h122v-71h66zM279 101
c37.333 0 67.5 12 90.5 36s34.5 55.333 34.5 94s-11.5 70 -34.5 94s-53.167 36 -90.5 36s-67.5 -12 -90.5 -36s-34.5 -55.333 -34.5 -94s11.5 -70 34.5 -94s53.167 -36 90.5 -36z" />
    <glyph glyph-name="Emacron" unicode="&#x112;" horiz-adv-x="525" 
d="M443 838v-83h-306v83h306zM194 120h292v-120h-420v700h415v-120h-287v-140h262v-118h-262v-202z" />
    <glyph glyph-name="emacron" unicode="&#x113;" horiz-adv-x="514" 
d="M420 667v-85h-306v85h306zM266 477c70.667 0 125.666 -21.5 164.999 -64.5s59 -103.833 59 -182.5v-24h-345c3.33301 -35.333 16.833 -62.833 40.5 -82.5s53.5 -29.5 89.5 -29.5c50 0 96 21 138 63l62 -89c-60 -55.333 -126.667 -83 -200 -83
c-75.333 0 -135.666 22.333 -180.999 67s-68 104 -68 178s22 133.667 66 179s102 68 174 68zM259.999 378c-64.667 0 -102 -30.999 -112 -92.999h218c-2 29.333 -12.5 52.166 -31.5 68.499s-43.833 24.5 -74.5 24.5z" />
    <glyph glyph-name="Ebreve" unicode="&#x114;" horiz-adv-x="525" 
d="M291 739c-42.667 0 -77.166 11 -103.499 33s-41.5 52.333 -45.5 91h84c3.33301 -34 25 -51 65 -51s61.667 17 65 51h85c-4 -38.667 -19.333 -69 -46 -91s-61.334 -33 -104.001 -33zM194.001 120h292v-120h-420v700h415v-120h-287v-140h262v-118h-262v-202z" />
    <glyph glyph-name="ebreve" unicode="&#x115;" horiz-adv-x="514" 
d="M417 700c0 -46 -13.998 -82.5 -41.998 -109.5s-64 -40.5 -108 -40.5s-79.833 13.5 -107.5 40.5s-41.5 63.5 -41.5 109.5h81c1.33301 -21.333 7.66602 -38.666 18.999 -51.999s27.666 -20 48.999 -20s37.833 6.66699 49.5 20s18.167 30.666 19.5 51.999h81zM266.002 477
c70.667 0 125.666 -21.5 164.999 -64.5s59 -103.833 59 -182.5v-24h-345c3.33301 -35.333 16.833 -62.833 40.5 -82.5s53.5 -29.5 89.5 -29.5c50 0 96 21 138 63l62 -89c-60 -55.333 -126.667 -83 -200 -83c-75.333 0 -135.666 22.333 -180.999 67s-68 104 -68 178
s22 133.667 66 179s102 68 174 68zM260.001 378c-64.667 0 -102 -30.999 -112 -92.999h218c-2 29.333 -12.5 52.166 -31.5 68.499s-43.833 24.5 -74.5 24.5z" />
    <glyph glyph-name="Edotaccent" unicode="&#x116;" horiz-adv-x="525" 
d="M352 858v-115h-123v115h123zM194 120h292v-120h-420v700h415v-120h-287v-140h262v-118h-262v-202z" />
    <glyph glyph-name="edotaccent" unicode="&#x117;" horiz-adv-x="514" 
d="M337 694v-135h-140v135h140zM266 477c70.667 0 125.666 -21.5 164.999 -64.5s59 -103.833 59 -182.5v-24h-345c3.33301 -35.333 16.833 -62.833 40.5 -82.5s53.5 -29.5 89.5 -29.5c50 0 96 21 138 63l62 -89c-60 -55.333 -126.667 -83 -200 -83
c-75.333 0 -135.666 22.333 -180.999 67s-68 104 -68 178s22 133.667 66 179s102 68 174 68zM259.999 378c-64.667 0 -102 -30.999 -112 -92.999h218c-2 29.333 -12.5 52.166 -31.5 68.499s-43.833 24.5 -74.5 24.5z" />
    <glyph glyph-name="Eogonek" unicode="&#x118;" horiz-adv-x="525" 
d="M486 0l-30 -0.000976562c-43.333 -43.333 -65 -75.333 -65 -96c0 -14.667 9 -22 27 -22c10.667 0 23.667 1.66699 39 5l12 -77c-26 -6 -49.333 -9 -70 -9c-30 0 -53.667 6.66699 -71 20s-26 33.333 -26 60c0 36.667 25.333 76.334 76 119.001h-312v700h415v-120h-287
v-140h262v-118h-262v-202h292v-120z" />
    <glyph glyph-name="eogonek" unicode="&#x119;" horiz-adv-x="514" 
d="M490 230l-0.00195312 -24h-345c3.33301 -35.333 16.833 -62.833 40.5 -82.5s53.5 -29.5 89.5 -29.5c50 0 96 21 138 63l62 -89c-25.333 -24 -52.666 -43 -81.999 -57l3 -1c-50 -48.667 -75 -84 -75 -106c0 -14.667 9 -22 27 -22c10.667 0 23.667 1.66699 39 5l12 -77
c-26 -6 -49.333 -9 -70 -9c-30 0 -53.667 6.66699 -71 20s-26 33.333 -26 60c0 33.333 20 68 60 104h-17c-75.333 0 -135.666 22.333 -180.999 67s-68 104 -68 178s22 133.667 66 179s102 68 174 68c70.667 0 125.667 -21.5 165 -64.5s59 -103.833 59 -182.5zM147.998 285
l218 0.000976562c-2 29.333 -12.5 52.166 -31.5 68.499s-43.833 24.5 -74.5 24.5c-64.667 0 -102 -31 -112 -93z" />
    <glyph glyph-name="Ecaron" unicode="&#x11a;" horiz-adv-x="525" 
d="M350 743h-119l-120 120h108l71 -69l72 69h108zM194 120h292v-120h-420v700h415v-120h-287v-140h262v-118h-262v-202z" />
    <glyph glyph-name="ecaron" unicode="&#x11b;" horiz-adv-x="514" 
d="M449 700l-123 -154h-118l-123 154h109l73 -89l74 89h108zM266 477c70.667 0 125.666 -21.5 164.999 -64.5s59 -103.833 59 -182.5v-24h-345c3.33301 -35.333 16.833 -62.833 40.5 -82.5s53.5 -29.5 89.5 -29.5c50 0 96 21 138 63l62 -89
c-60 -55.333 -126.667 -83 -200 -83c-75.333 0 -135.666 22.333 -180.999 67s-68 104 -68 178s22 133.667 66 179s102 68 174 68zM259.999 378c-64.667 0 -102 -30.999 -112 -92.999h218c-2 29.333 -12.5 52.166 -31.5 68.499s-43.833 24.5 -74.5 24.5z" />
    <glyph glyph-name="Gcircumflex" unicode="&#x11c;" horiz-adv-x="767" 
d="M390 812l-71 -69h-108l120 120h119l120 -120h-108zM746 396c0.666992 -9.33301 0.99707 -22.6641 0.99707 -39.9971c0 -50.667 -7.16699 -98 -21.5 -142s-35.5 -83.333 -63.5 -118s-64.5 -61.834 -109.5 -81.501s-96.167 -29.5 -153.5 -29.5
c-108.667 0 -197.5 33.167 -266.5 99.5s-103.5 154.833 -103.5 265.5c0 108.667 34.167 196.667 102.5 264s159.5 101 273.5 101c104.667 0 195.334 -31 272.001 -93l-85 -109c-56.667 47.333 -120.667 71 -192 71c-70 0 -126 -22 -168 -66s-63 -100 -63 -168
c0 -68.667 21.5 -124.834 64.5 -168.501s100.167 -65.5 171.5 -65.5c62.667 0 111.334 16.167 146.001 48.5s54.334 70.166 59.001 113.499h-201v118h337z" />
    <glyph glyph-name="gcircumflex" unicode="&#x11d;" horiz-adv-x="578" 
d="M346 707l123 -154h-108l-74 89l-73 -89h-109l123 154h118zM294 -215c-50 0 -112.665 7.33398 -187.998 22.001l22 117c64 -15.333 117.667 -23 161 -23c42 0 71.667 8.83301 89 26.5s26 49.167 26 94.5v43h-2c-34.667 -51.333 -86.334 -77 -155.001 -77
c-63.333 0 -116 21.667 -158 65s-63 102.666 -63 177.999c0 76 21.167 136 63.5 180s95.166 66 158.499 66c70.667 0 122 -26.667 154 -80h2v65h122v-462c-0.666992 -78 -21 -133.333 -61 -166s-97 -49 -171 -49zM279.002 101.001c37.333 0 67.5 12 90.5 36
s34.5 55.333 34.5 94s-11.5 70 -34.5 94s-53.167 36 -90.5 36s-67.5 -12 -90.5 -36s-34.5 -55.333 -34.5 -94s11.5 -70 34.5 -94s53.167 -36 90.5 -36z" />
    <glyph glyph-name="Gbreve" unicode="&#x11e;" horiz-adv-x="767" 
d="M391 739c-42.667 0 -77.166 11 -103.499 33s-41.5 52.333 -45.5 91h84c3.33301 -34 25 -51 65 -51s61.667 17 65 51h85c-4 -38.667 -19.333 -69 -46 -91s-61.334 -33 -104.001 -33zM746.001 396c0.666992 -9.33301 0.99707 -22.6641 0.99707 -39.9971
c0 -50.667 -7.16699 -98 -21.5 -142s-35.5 -83.333 -63.5 -118s-64.5 -61.834 -109.5 -81.501s-96.167 -29.5 -153.5 -29.5c-108.667 0 -197.5 33.167 -266.5 99.5s-103.5 154.833 -103.5 265.5c0 108.667 34.167 196.667 102.5 264s159.5 101 273.5 101
c104.667 0 195.334 -31 272.001 -93l-85 -109c-56.667 47.333 -120.667 71 -192 71c-70 0 -126 -22 -168 -66s-63 -100 -63 -168c0 -68.667 21.5 -124.834 64.5 -168.501s100.167 -65.5 171.5 -65.5c62.667 0 111.334 16.167 146.001 48.5s54.334 70.166 59.001 113.499
h-201v118h337z" />
    <glyph glyph-name="gbreve" unicode="&#x11f;" horiz-adv-x="578" 
d="M437 700c0 -46 -13.998 -82.5 -41.998 -109.5s-64 -40.5 -108 -40.5s-79.833 13.5 -107.5 40.5s-41.5 63.5 -41.5 109.5h81c1.33301 -21.333 7.66602 -38.666 18.999 -51.999s27.666 -20 48.999 -20s37.833 6.66699 49.5 20s18.167 30.666 19.5 51.999h81zM294.002 -215
c-50 0 -112.665 7.33398 -187.998 22.001l22 117c64 -15.333 117.667 -23 161 -23c42 0 71.667 8.83301 89 26.5s26 49.167 26 94.5v43h-2c-34.667 -51.333 -86.334 -77 -155.001 -77c-63.333 0 -116 21.667 -158 65s-63 102.666 -63 177.999c0 76 21.167 136 63.5 180
s95.166 66 158.499 66c70.667 0 122 -26.667 154 -80h2v65h122v-462c-0.666992 -78 -21 -133.333 -61 -166s-97 -49 -171 -49zM279.004 101.001c37.333 0 67.5 12 90.5 36s34.5 55.333 34.5 94s-11.5 70 -34.5 94s-53.167 36 -90.5 36s-67.5 -12 -90.5 -36
s-34.5 -55.333 -34.5 -94s11.5 -70 34.5 -94s53.167 -36 90.5 -36z" />
    <glyph glyph-name="Gdotaccent" unicode="&#x120;" horiz-adv-x="767" 
d="M452 858v-115h-123v115h123zM746 396c0.666992 -9.33301 0.99707 -22.6641 0.99707 -39.9971c0 -50.667 -7.16699 -98 -21.5 -142s-35.5 -83.333 -63.5 -118s-64.5 -61.834 -109.5 -81.501s-96.167 -29.5 -153.5 -29.5c-108.667 0 -197.5 33.167 -266.5 99.5
s-103.5 154.833 -103.5 265.5c0 108.667 34.167 196.667 102.5 264s159.5 101 273.5 101c104.667 0 195.334 -31 272.001 -93l-85 -109c-56.667 47.333 -120.667 71 -192 71c-70 0 -126 -22 -168 -66s-63 -100 -63 -168c0 -68.667 21.5 -124.834 64.5 -168.501
s100.167 -65.5 171.5 -65.5c62.667 0 111.334 16.167 146.001 48.5s54.334 70.166 59.001 113.499h-201v118h337z" />
    <glyph glyph-name="gdotaccent" unicode="&#x121;" horiz-adv-x="578" 
d="M357 694v-135h-140v135h140zM294 -215c-50 0 -112.665 7.33398 -187.998 22.001l22 117c64 -15.333 117.667 -23 161 -23c42 0 71.667 8.83301 89 26.5s26 49.167 26 94.5v43h-2c-34.667 -51.333 -86.334 -77 -155.001 -77c-63.333 0 -116 21.667 -158 65
s-63 102.666 -63 177.999c0 76 21.167 136 63.5 180s95.166 66 158.499 66c70.667 0 122 -26.667 154 -80h2v65h122v-462c-0.666992 -78 -21 -133.333 -61 -166s-97 -49 -171 -49zM279.002 101.001c37.333 0 67.5 12 90.5 36s34.5 55.333 34.5 94s-11.5 70 -34.5 94
s-53.167 36 -90.5 36s-67.5 -12 -90.5 -36s-34.5 -55.333 -34.5 -94s11.5 -70 34.5 -94s53.167 -36 90.5 -36z" />
    <glyph glyph-name="Gcommaaccent" unicode="&#x122;" horiz-adv-x="767" 
d="M746 396c0.666992 -9.33301 0.99707 -22.6641 0.99707 -39.9971c0 -50.667 -7.16699 -98 -21.5 -142s-35.5 -83.333 -63.5 -118s-64.5 -61.834 -109.5 -81.501s-96.167 -29.5 -153.5 -29.5c-108.667 0 -197.5 33.167 -266.5 99.5s-103.5 154.833 -103.5 265.5
c0 108.667 34.167 196.667 102.5 264s159.5 101 273.5 101c104.667 0 195.334 -31 272.001 -93l-85 -109c-56.667 47.333 -120.667 71 -192 71c-70 0 -126 -22 -168 -66s-63 -100 -63 -168c0 -68.667 21.5 -124.834 64.5 -168.501s100.167 -65.5 171.5 -65.5
c62.667 0 111.334 16.167 146.001 48.5s54.334 70.166 59.001 113.499h-201v118h337zM343.997 -141.998v95h117v-95l-65 -68h-44l35 68h-43z" />
    <glyph glyph-name="gcommaaccent" unicode="&#x123;" horiz-adv-x="578" 
d="M348 635v-95h-117v95l65 68h44l-35 -68h43zM404 462l122.002 0.000976562v-462c-0.666992 -78 -21 -133.333 -61 -166s-97 -49 -171 -49c-50 0 -112.667 7.33301 -188 22l22 117c64 -15.333 117.667 -23 161 -23c42 0 71.667 8.83301 89 26.5s26 49.167 26 94.5v43h-2
c-34.667 -51.333 -86.334 -77 -155.001 -77c-63.333 0 -116 21.667 -158 65s-63 102.666 -63 177.999c0 76 21.167 136 63.5 180s95.166 66 158.499 66c70.667 0 122 -26.667 154 -80h2v65zM279.002 101.001c37.333 0 67.5 12 90.5 36s34.5 55.333 34.5 94
s-11.5 70 -34.5 94s-53.167 36 -90.5 36s-67.5 -12 -90.5 -36s-34.5 -55.333 -34.5 -94s11.5 -70 34.5 -94s53.167 -36 90.5 -36z" />
    <glyph glyph-name="Hcircumflex" unicode="&#x124;" horiz-adv-x="720" 
d="M359 812l-71 -69h-108l120 120h119l120 -120h-108zM526 700h128v-700h-128v307h-332v-307h-128v700h128v-271h332v271z" />
    <glyph glyph-name="hcircumflex" unicode="&#x125;" horiz-adv-x="554" 
d="M177 863l120 -120h-108l-72 69l-71 -69h-108l120 120h119zM179 700l-0.000976562 -303.999h2c34 54 84 81 150 81c52.667 0 94.834 -15.833 126.501 -47.5s47.5 -79.834 47.5 -144.501v-285h-123v256c0 71.333 -32 107 -96 107c-71.333 0 -107 -45.667 -107 -137v-226
h-123v700h123z" />
    <glyph glyph-name="Hbar" unicode="&#x126;" horiz-adv-x="728" 
d="M728 606v-101h-70v-505h-128v307h-332v-307h-128v505h-70v101h70v94h128v-94h332v94h128v-94h70zM530 429v76h-332v-76h332z" />
    <glyph glyph-name="hbar" unicode="&#x127;" horiz-adv-x="554" 
d="M331 477c52.667 0 94.833 -15.832 126.5 -47.499s47.5 -79.834 47.5 -144.501v-285h-123v256c0 71.333 -32 107 -96 107c-71.333 0 -107 -45.667 -107 -137v-226h-123v556h-65v73h65v71h123v-71h137v-73h-137v-160h2c34 54 84 81 150 81z" />
    <glyph glyph-name="Itilde" unicode="&#x128;" horiz-adv-x="261" 
d="M214 741c-20 0 -50.3311 6.83301 -90.998 20.5s-67.334 20.5 -80.001 20.5c-22.667 0 -40.667 -14 -54 -42l-42 13c20 76 56.333 114 109 114c19.333 0 49.5 -6.83301 90.5 -20.5s67.5 -20.5 79.5 -20.5c23.333 0 41.666 14 54.999 42l41 -14
c-20 -75.333 -56 -113 -108 -113zM195.002 700v-700h-129v700h129z" />
    <glyph glyph-name="itilde" unicode="&#x129;" horiz-adv-x="236" 
d="M62 705c16 0 38.667 -8 68 -24s48 -24 56 -24c15.333 0 27.333 15 36 45l46 -15c-14 -80.667 -44 -121 -90 -121c-16.667 0 -39.5 8.16699 -68.5 24.5s-47.5 24.5 -55.5 24.5c-15.333 0 -27.333 -15.333 -36 -46l-46 15c14 80.667 44 121 90 121zM56 0v462h123v-462h-123
z" />
    <glyph glyph-name="Imacron" unicode="&#x12a;" horiz-adv-x="261" 
d="M282 838v-83h-306v83h306zM195 700v-700h-129v700h129z" />
    <glyph glyph-name="imacron" unicode="&#x12b;" horiz-adv-x="236" 
d="M221 667v-85h-206v85h206zM56 0v462h123v-462h-123z" />
    <glyph glyph-name="Ibreve" unicode="&#x12c;" horiz-adv-x="261" 
d="M280 863c-4 -38.667 -19.332 -69 -45.999 -91s-61.334 -33 -104.001 -33s-77.167 11 -103.5 33s-41.5 52.333 -45.5 91h84c3.33301 -34 25 -51 65 -51s61.667 17 65 51h85zM195.001 700v-700h-129v700h129z" />
    <glyph glyph-name="ibreve" unicode="&#x12d;" horiz-adv-x="236" 
d="M242 700c0 -50 -11 -87.5 -33 -112.5s-52.333 -37.5 -91 -37.5c-38 0 -68 12.5 -90 37.5s-33 62.5 -33 112.5h79c0 -48 14.667 -72 44 -72s44 24 44 72h80zM56 0v462h123v-462h-123z" />
    <glyph glyph-name="Iogonek" unicode="&#x12e;" horiz-adv-x="261" 
d="M195 0l-31 -0.000976562c-43.333 -43.333 -65 -75.333 -65 -96c0 -14.667 9 -22 27 -22c10.667 0 23.667 1.66699 39 5l12 -77c-26 -6 -49.333 -9 -70 -9c-30 0 -53.667 6.66699 -71 20s-26 33.333 -26 60c0 36.667 25.333 76.334 76 119.001h-20v700h129v-700z" />
    <glyph glyph-name="iogonek" unicode="&#x12f;" horiz-adv-x="236" 
d="M48 694h140v-135h-140v135zM56 0v461.999h123v-462h-40c-43.333 -43.333 -65 -75.333 -65 -96c0 -14.667 9 -22 27 -22c10.667 0 23.667 1.66699 39 5l12 -77c-26 -6 -49.333 -9 -70 -9c-30 0 -53.667 6.66699 -71 20s-26 33.333 -26 60
c0 36.667 25.333 76.334 76 119.001h-5z" />
    <glyph glyph-name="Idotaccent" unicode="&#x130;" horiz-adv-x="261" 
d="M191 858v-115h-123v115h123zM195 700v-700h-129v700h129z" />
    <glyph glyph-name="dotlessi" unicode="&#x131;" horiz-adv-x="236" 
d="M56 0v462h123v-462h-123z" />
    <glyph glyph-name="IJ" unicode="&#x132;" horiz-adv-x="548" 
d="M195 700v-700h-129v700h129zM482 700v-525c0 -61.333 -13.667 -106.5 -41 -135.5s-69 -43.5 -125 -43.5h-42v122h29c34 0 51 21 51 63v519h128z" />
    <glyph glyph-name="ij" unicode="&#x133;" horiz-adv-x="472" 
d="M188 694v-135h-140v135h140zM424 694v-135h-140v135h140zM56 0v462h123v-462h-123zM215 -90h21c20 0 34.333 4.83301 43 14.5s13 25.167 13 46.5v491h123v-496c0 -112.667 -53.333 -169 -160 -169h-40v113z" />
    <glyph glyph-name="Jcircumflex" unicode="&#x134;" horiz-adv-x="287" 
d="M216 863l120 -120h-108l-72 69l-71 -69h-108l120 120h119zM221 700v-525c0 -61.333 -13.667 -106.5 -41 -135.5s-69 -43.5 -125 -43.5h-42v122h29c34 0 51 21 51 63v519h128z" />
    <glyph glyph-name="jcircumflex" unicode="&#x135;" horiz-adv-x="236" 
d="M177 707l89 -154h-102l-46 93l-46 -93h-102l89 154h118zM-21 -90h21c20 0 34.333 4.83301 43 14.5s13 25.167 13 46.5v491h123v-496c0 -112.667 -53.333 -169 -160 -169h-40v113z" />
    <glyph glyph-name="Kcommaaccent" unicode="&#x136;" horiz-adv-x="685" 
d="M337 376l346 -376h-186l-303 343v-343h-128v700h128v-310l264 310h176zM274 -142v95h117v-95l-65 -68h-44l35 68h-43z" />
    <glyph glyph-name="kcommaaccent" unicode="&#x137;" horiz-adv-x="517" 
d="M298 252l214 -252h-160l-173 221v-221h-123v700h123v-429l152 191h156zM200 -142v95h117v-95l-65 -68h-44l35 68h-43z" />
    <glyph glyph-name="kgreenlandic" unicode="&#x138;" horiz-adv-x="514" 
d="M509 0h-160l-173 221v-221h-122v462h122v-191l152 191h156l-189 -210z" />
    <glyph glyph-name="Lacute" unicode="&#x139;" horiz-adv-x="489" 
d="M353 863l-159 -120h-90l104 120h145zM194 700v-579h292v-121h-420v700h128z" />
    <glyph glyph-name="lacute" unicode="&#x13a;" horiz-adv-x="236" 
d="M319 863l-159 -120h-90l104 120h145zM179 700v-700h-123v700h123z" />
    <glyph glyph-name="Lcommaaccent" unicode="&#x13b;" horiz-adv-x="489" 
d="M194 121h292v-121h-420v700h128v-579zM221 -142v95h117v-95l-65 -68h-44l35 68h-43z" />
    <glyph glyph-name="lcommaaccent" unicode="&#x13c;" horiz-adv-x="236" 
d="M56 700h123v-700h-123v700zM60 -142v95h117v-95l-65 -68h-44l35 68h-43z" />
    <glyph glyph-name="Lcaron" unicode="&#x13d;" horiz-adv-x="489" 
d="M355 442h-44l53 152h-50v121h121v-121zM194 121h292v-121h-420v700h128v-579z" />
    <glyph glyph-name="lcaron" unicode="&#x13e;" horiz-adv-x="354" 
d="M225 715h122v-121l-81 -96h-44l45 96h-42v121zM56 0v700h123v-700h-123z" />
    <glyph glyph-name="Ldot" unicode="&#x13f;" horiz-adv-x="489" 
d="M194 700v-579h292v-121h-420v700h128zM420 462v-139h-139v139h139z" />
    <glyph glyph-name="ldot" unicode="&#x140;" horiz-adv-x="359" 
d="M179 700v-700h-123v700h123zM349 463v-139h-139v139h139z" />
    <glyph glyph-name="Lslash" unicode="&#x141;" horiz-adv-x="489" 
d="M194 121h292v-121h-420v282l-76 -39v83l76 39v335h128v-268l172 89v-83l-172 -89v-228z" />
    <glyph glyph-name="lslash" unicode="&#x142;" horiz-adv-x="294" 
d="M284 498v-82l-76 -40v-376h-123v311l-75 -39v83l75 39v306h123v-242z" />
    <glyph glyph-name="Nacute" unicode="&#x143;" horiz-adv-x="720" 
d="M560 863l-159 -120h-90l104 120h145zM654 700v-700h-119l-340 480h-1v-480h-128v700h119l340 -481h1v481h128z" />
    <glyph glyph-name="nacute" unicode="&#x144;" horiz-adv-x="551" 
d="M487 707l-153 -154h-96l104 154h145zM328 477c53.333 0 95.668 -15.832 127.001 -47.499s47 -79.834 47 -144.501v-285h-123v256c0 71.333 -31.667 107 -95 107c-72 0 -108 -45.667 -108 -137v-226h-122v462h121v-70h2c33.333 56.667 83.666 85 150.999 85z" />
    <glyph glyph-name="Ncommaaccent" unicode="&#x145;" horiz-adv-x="720" 
d="M526 700h128v-700h-119l-340 480h-1v-480h-128v700h119l340 -481h1v481zM301 -142v95h117v-95l-65 -68h-44l35 68h-43z" />
    <glyph glyph-name="ncommaaccent" unicode="&#x146;" horiz-adv-x="551" 
d="M328 477c53.333 0 95.668 -15.832 127.001 -47.499s47 -79.834 47 -144.501v-285h-123v256c0 71.333 -31.667 107 -95 107c-72 0 -108 -45.667 -108 -137v-226h-122v462h121v-70h2c33.333 56.667 83.666 85 150.999 85zM227.002 -141.999v95h117v-95l-65 -68h-44l35 68
h-43z" />
    <glyph glyph-name="Ncaron" unicode="&#x147;" horiz-adv-x="720" 
d="M419 743h-119l-120 120h108l71 -69l72 69h108zM654 700v-700h-119l-340 480h-1v-480h-128v700h119l340 -481h1v481h128z" />
    <glyph glyph-name="ncaron" unicode="&#x148;" horiz-adv-x="551" 
d="M470 700l-123 -154h-118l-123 154h109l73 -89l74 89h108zM328 477c53.333 0 95.668 -15.832 127.001 -47.499s47 -79.834 47 -144.501v-285h-123v256c0 71.333 -31.667 107 -95 107c-72 0 -108 -45.667 -108 -137v-226h-122v462h121v-70h2
c33.333 56.667 83.666 85 150.999 85z" />
    <glyph glyph-name="napostrophe" unicode="&#x149;" horiz-adv-x="619" 
d="M135 715v-121l-80 -152h-44l53 152h-50v121h121zM396 477c53.333 0 95.668 -15.832 127.001 -47.499s47 -79.834 47 -144.501v-285h-123v256c0 71.333 -31.667 107 -95 107c-72 0 -108 -45.667 -108 -137v-226h-122v462h121v-70h2c33.333 56.667 83.666 85 150.999 85z
" />
    <glyph glyph-name="Eng" unicode="&#x14a;" horiz-adv-x="720" 
d="M526 700h127.999v-733c0 -111.333 -54.667 -167 -164 -167h-66v121h42c20.667 0 35.834 4.33301 45.501 13s14.5 24 14.5 46v35l-331 464h-1v-479h-128v700h119l340 -477h1v477z" />
    <glyph glyph-name="eng" unicode="&#x14b;" horiz-adv-x="551" 
d="M328 477c53.333 0 95.668 -15.832 127.001 -47.499s47 -79.834 47 -144.501v-329c0 -104 -49.333 -156 -148 -156h-64v112h42c31.333 0 47 16.667 47 50v294c0 71.333 -31.667 107 -95 107c-72 0 -108 -45.667 -108 -137v-226h-122v462h121v-70h2
c33.333 56.667 83.666 85 150.999 85z" />
    <glyph glyph-name="Omacron" unicode="&#x14c;" horiz-adv-x="791" 
d="M548 838v-83h-306v83h306zM395 715c105.333 0 192.833 -34 262.5 -102s104.5 -155.667 104.5 -263s-34.833 -195 -104.5 -263s-157.167 -102 -262.5 -102s-192.666 34 -261.999 102s-104 155.667 -104 263s34.667 195 104 263s156.666 102 261.999 102zM395 584
c-66 0 -120.167 -21.667 -162.5 -65s-63.5 -99.666 -63.5 -168.999s21.167 -125.666 63.5 -168.999s96.5 -65 162.5 -65s120.167 21.667 162.5 65s63.5 99.666 63.5 168.999s-21.167 125.666 -63.5 168.999s-96.5 65 -162.5 65z" />
    <glyph glyph-name="omacron" unicode="&#x14d;" horiz-adv-x="563" 
d="M435 667v-85h-306v85h306zM282 477c74 0 135.167 -23 183.5 -69s72.5 -105 72.5 -177s-24.167 -131 -72.5 -177s-109.5 -69 -183.5 -69s-135.167 23 -183.5 69s-72.5 105 -72.5 177s24.167 131 72.5 177s109.5 69 183.5 69zM282 361c-38 0 -69.167 -11.833 -93.5 -35.5
s-36.5 -55.167 -36.5 -94.5s12.167 -70.833 36.5 -94.5s55.5 -35.5 93.5 -35.5s69 11.833 93 35.5s36 55.167 36 94.5s-12 70.833 -36 94.5s-55 35.5 -93 35.5z" />
    <glyph glyph-name="Obreve" unicode="&#x14e;" horiz-adv-x="791" 
d="M546 863c-4 -38.667 -19.332 -69 -45.999 -91s-61.334 -33 -104.001 -33s-77.167 11 -103.5 33s-41.5 52.333 -45.5 91h84c3.33301 -34 25 -51 65 -51s61.667 17 65 51h85zM395.001 715c105.333 0 192.833 -34 262.5 -102s104.5 -155.667 104.5 -263
s-34.833 -195 -104.5 -263s-157.167 -102 -262.5 -102s-192.666 34 -261.999 102s-104 155.667 -104 263s34.667 195 104 263s156.666 102 261.999 102zM395.001 584c-66 0 -120.167 -21.667 -162.5 -65s-63.5 -99.666 -63.5 -168.999s21.167 -125.666 63.5 -168.999
s96.5 -65 162.5 -65s120.167 21.667 162.5 65s63.5 99.666 63.5 168.999s-21.167 125.666 -63.5 168.999s-96.5 65 -162.5 65z" />
    <glyph glyph-name="obreve" unicode="&#x14f;" horiz-adv-x="563" 
d="M432 700c0 -46 -13.998 -82.5 -41.998 -109.5s-64 -40.5 -108 -40.5s-79.833 13.5 -107.5 40.5s-41.5 63.5 -41.5 109.5h81c1.33301 -21.333 7.66602 -38.666 18.999 -51.999s27.666 -20 48.999 -20s37.833 6.66699 49.5 20s18.167 30.666 19.5 51.999h81zM282.002 477
c74 0 135.167 -23 183.5 -69s72.5 -105 72.5 -177s-24.167 -131 -72.5 -177s-109.5 -69 -183.5 -69s-135.167 23 -183.5 69s-72.5 105 -72.5 177s24.167 131 72.5 177s109.5 69 183.5 69zM282.002 361c-38 0 -69.167 -11.833 -93.5 -35.5s-36.5 -55.167 -36.5 -94.5
s12.167 -70.833 36.5 -94.5s55.5 -35.5 93.5 -35.5s69 11.833 93 35.5s36 55.167 36 94.5s-12 70.833 -36 94.5s-55 35.5 -93 35.5z" />
    <glyph glyph-name="Ohungarumlaut" unicode="&#x150;" horiz-adv-x="791" 
d="M488 863l-108 -120h-84l90 120h102zM626 863l-107 -120h-84l90 120h101zM395 715c105.333 0 192.833 -34 262.5 -102s104.5 -155.667 104.5 -263s-34.833 -195 -104.5 -263s-157.167 -102 -262.5 -102s-192.666 34 -261.999 102s-104 155.667 -104 263
s34.667 195 104 263s156.666 102 261.999 102zM395 584c-66 0 -120.167 -21.667 -162.5 -65s-63.5 -99.666 -63.5 -168.999s21.167 -125.666 63.5 -168.999s96.5 -65 162.5 -65s120.167 21.667 162.5 65s63.5 99.666 63.5 168.999s-21.167 125.666 -63.5 168.999
s-96.5 65 -162.5 65z" />
    <glyph glyph-name="ohungarumlaut" unicode="&#x151;" horiz-adv-x="563" 
d="M386 707l-132 -154h-85l113 154h104zM529 707l-132 -154h-85l112 154h105zM282 477c74 0 135.167 -23 183.5 -69s72.5 -105 72.5 -177s-24.167 -131 -72.5 -177s-109.5 -69 -183.5 -69s-135.167 23 -183.5 69s-72.5 105 -72.5 177s24.167 131 72.5 177s109.5 69 183.5 69
zM282 361c-38 0 -69.167 -11.833 -93.5 -35.5s-36.5 -55.167 -36.5 -94.5s12.167 -70.833 36.5 -94.5s55.5 -35.5 93.5 -35.5s69 11.833 93 35.5s36 55.167 36 94.5s-12 70.833 -36 94.5s-55 35.5 -93 35.5z" />
    <glyph glyph-name="OE" unicode="&#x152;" horiz-adv-x="1080" 
d="M748 118h293v-118h-421v69c-59.333 -56 -135 -84 -227 -84c-104 0 -190.667 34 -260 102s-104 155.667 -104 263s34.667 195 104 263s156 102 260 102c91.333 0 167 -28 227 -84v69h411v-118h-283v-142h262v-118h-262v-204zM393 115c66.667 0 121.5 22.167 164.5 66.5
s64.5 100.5 64.5 168.5s-21.5 124.167 -64.5 168.5s-97.833 66.5 -164.5 66.5c-64.667 0 -118.334 -21.833 -161.001 -65.5s-64 -100.167 -64 -169.5s21.333 -125.833 64 -169.5s96.334 -65.5 161.001 -65.5z" />
    <glyph glyph-name="oe" unicode="&#x153;" horiz-adv-x="884" 
d="M637 477c69.333 0 124.001 -21.833 164.001 -65.5s60 -103.5 60 -179.5v-27h-345c4 -34 17.667 -60.667 41 -80s52.666 -29 87.999 -29c50 0 96 20.333 138 61l62 -90c-60 -54.667 -127 -82 -201 -82c-84.667 0 -147 29.333 -187 88h-2c-36.667 -58.667 -96 -88 -178 -88
c-73.333 0 -133.5 23 -180.5 69s-70.5 105 -70.5 177s23.5 131 70.5 177s107.167 69 180.5 69c81.333 0 141 -29.333 179 -88h2c39.333 58.667 99 88 179 88zM630.001 375c-64 0 -101.667 -30.001 -113 -90.001h217c-0.666992 28.667 -10.667 50.834 -30 66.501
s-44 23.5 -74 23.5zM276.001 361.999c-37.333 0 -68.166 -11.833 -92.499 -35.5s-36.5 -55.5 -36.5 -95.5s12.167 -71.833 36.5 -95.5s55.166 -35.5 92.499 -35.5c36.667 0 67.167 12 91.5 36s36.5 55.667 36.5 95s-12.167 71 -36.5 95s-54.833 36 -91.5 36z" />
    <glyph glyph-name="Racute" unicode="&#x154;" horiz-adv-x="598" 
d="M474 863l-159 -120h-90l104 120h145zM432 0l-191 279h-47v-279h-128v700h258c68.667 0 123.5 -19.5 164.5 -58.5s61.5 -90.167 61.5 -153.5c0 -52 -14.5 -96.167 -43.5 -132.5s-69.167 -59.833 -120.5 -70.5l207 -285h-161zM194 582v-189.999h110
c72.667 0 109 31.333 109 94c0 29.333 -9.16699 52.666 -27.5 69.999s-45.5 26 -81.5 26h-110z" />
    <glyph glyph-name="racute" unicode="&#x155;" horiz-adv-x="345" 
d="M392 707l-153 -154h-96l104 154h145zM335 476v-132h-14c-50 0 -86.667 -12 -110 -36s-35 -63.667 -35 -119v-189h-122v462h121v-98h2c24.667 74.667 75.667 112 153 112h5z" />
    <glyph glyph-name="Rcommaaccent" unicode="&#x156;" horiz-adv-x="598" 
d="M386 285l207 -285h-161l-191 279h-47v-279h-128v700h258c68.667 0 123.5 -19.5 164.5 -58.5s61.5 -90.167 61.5 -153.5c0 -52 -14.5 -96.167 -43.5 -132.5s-69.167 -59.833 -120.5 -70.5zM194 582v-189.999h110c72.667 0 109 31.333 109 94
c0 29.333 -9.16699 52.666 -27.5 69.999s-45.5 26 -81.5 26h-110zM251 -141.999v95h117v-95l-65 -68h-44l35 68h-43z" />
    <glyph glyph-name="rcommaaccent" unicode="&#x157;" horiz-adv-x="345" 
d="M330 476h5v-132h-14c-50 0 -86.667 -12 -110 -36s-35 -63.667 -35 -119v-189h-122v462h121v-98h2c24.667 74.667 75.667 112 153 112zM58 -142v95h117v-95l-65 -68h-44l35 68h-43z" />
    <glyph glyph-name="Rcaron" unicode="&#x158;" horiz-adv-x="598" 
d="M333 743h-119l-120 120h108l71 -69l72 69h108zM432 0l-191 279h-47v-279h-128v700h258c68.667 0 123.5 -19.5 164.5 -58.5s61.5 -90.167 61.5 -153.5c0 -52 -14.5 -96.167 -43.5 -132.5s-69.167 -59.833 -120.5 -70.5l207 -285h-161zM194 582v-189.999h110
c72.667 0 109 31.333 109 94c0 29.333 -9.16699 52.666 -27.5 69.999s-45.5 26 -81.5 26h-110z" />
    <glyph glyph-name="rcaron" unicode="&#x159;" horiz-adv-x="345" 
d="M375 700l-123 -154h-118l-123 154h109l73 -89l74 89h108zM335 476v-132h-14c-50 0 -86.667 -12 -110 -36s-35 -63.667 -35 -119v-189h-122v462h121v-98h2c24.667 74.667 75.667 112 153 112h5z" />
    <glyph glyph-name="Sacute" unicode="&#x15a;" horiz-adv-x="521" 
d="M476 863l-159 -120h-90l104 120h145zM269 715c66 0 134.333 -16.333 205 -49l-55 -117c-56 28.667 -105.667 43 -149 43c-48.667 0 -73 -17 -73 -51c0 -13.333 4 -25.166 12 -35.499s22 -22.5 42 -36.5l121 -85c40.667 -28 70.834 -57.167 90.501 -87.5
s29.5 -66.833 29.5 -109.5c0 -65.333 -21.167 -115.333 -63.5 -150s-100.833 -52 -175.5 -52c-88.667 0 -169.334 22.667 -242.001 68l57 117c69.333 -40.667 132.333 -61 189 -61c32 0 56.5 6.5 73.5 19.5s25.5 30.167 25.5 51.5c0 16.667 -5.66699 31.667 -17 45
s-29.333 29 -54 47l-113 81c-74 51.333 -111 112.666 -111 183.999c0 55.333 18.167 98.833 54.5 130.5s87.5 47.5 153.5 47.5z" />
    <glyph glyph-name="sacute" unicode="&#x15b;" horiz-adv-x="418" 
d="M421 707l-153 -154h-96l104 154h145zM211 -15c-73.333 0 -139.334 16.334 -198.001 49.001l50 104c54.667 -32 106.334 -48 155.001 -48c38 0 57 11 57 33c0 8.66699 -3 15.667 -9 21s-16.333 11.666 -31 18.999l-83 36c-69.333 30.667 -104 76.667 -104 138
c0 45.333 15.333 80 46 104s75 36 133 36c52 0 106.667 -10.667 164 -32l-41 -103c-50 21.333 -93.333 32 -130 32c-31.333 0 -47 -9.33301 -47 -28c0 -8.66699 3.16699 -16 9.5 -22s17.833 -12.667 34.5 -20l83 -36c68 -28 102 -73 102 -135
c0 -49.333 -17 -86.333 -51 -111s-80.667 -37 -140 -37z" />
    <glyph glyph-name="Scircumflex" unicode="&#x15c;" horiz-adv-x="521" 
d="M335 863l120 -120h-108l-72 69l-71 -69h-108l120 120h119zM269 715c66 0 134.333 -16.333 205 -49l-55 -117c-56 28.667 -105.667 43 -149 43c-48.667 0 -73 -17 -73 -51c0 -13.333 4 -25.166 12 -35.499s22 -22.5 42 -36.5l121 -85
c40.667 -28 70.834 -57.167 90.501 -87.5s29.5 -66.833 29.5 -109.5c0 -65.333 -21.167 -115.333 -63.5 -150s-100.833 -52 -175.5 -52c-88.667 0 -169.334 22.667 -242.001 68l57 117c69.333 -40.667 132.333 -61 189 -61c32 0 56.5 6.5 73.5 19.5s25.5 30.167 25.5 51.5
c0 16.667 -5.66699 31.667 -17 45s-29.333 29 -54 47l-113 81c-74 51.333 -111 112.666 -111 183.999c0 55.333 18.167 98.833 54.5 130.5s87.5 47.5 153.5 47.5z" />
    <glyph glyph-name="scircumflex" unicode="&#x15d;" horiz-adv-x="418" 
d="M281 707l123 -154h-108l-74 89l-73 -89h-109l123 154h118zM211 -15c-73.333 0 -139.334 16.334 -198.001 49.001l50 104c54.667 -32 106.334 -48 155.001 -48c38 0 57 11 57 33c0 8.66699 -3 15.667 -9 21s-16.333 11.666 -31 18.999l-83 36
c-69.333 30.667 -104 76.667 -104 138c0 45.333 15.333 80 46 104s75 36 133 36c52 0 106.667 -10.667 164 -32l-41 -103c-50 21.333 -93.333 32 -130 32c-31.333 0 -47 -9.33301 -47 -28c0 -8.66699 3.16699 -16 9.5 -22s17.833 -12.667 34.5 -20l83 -36
c68 -28 102 -73 102 -135c0 -49.333 -17 -86.333 -51 -111s-80.667 -37 -140 -37z" />
    <glyph glyph-name="Scedilla" unicode="&#x15e;" horiz-adv-x="521" 
d="M492 187c0 -61.333 -18.666 -109.166 -55.999 -143.499s-89.333 -53.5 -156 -57.5l-9 -23c52 -10.667 78 -33 78 -67c0 -8.66699 -1.5 -16.5 -4.5 -23.5s-8.5 -13.833 -16.5 -20.5l-21 -17c-6 -4.66699 -16.5 -10.334 -31.5 -17.001s-26.333 -11.5 -34 -14.5l-40.5 -15.5
l-14 32l34.5 16.5c6.33301 3 14.166 7.33301 23.499 13s15.666 10.5 18.999 14.5s5 8.33301 5 13c0 10 -4.5 17.333 -13.5 22s-24.833 9.66699 -47.5 15l26 71c-82 4 -156.333 26.667 -223 68l57 117c69.333 -40.667 132.333 -61 189 -61c32 0 56.5 6.5 73.5 19.5
s25.5 30.167 25.5 51.5c0 16.667 -5.66699 31.667 -17 45s-29.333 29 -54 47l-113 81c-74 51.333 -111 112.666 -111 183.999c0 55.333 18.167 98.833 54.5 130.5s87.5 47.5 153.5 47.5s134.333 -16.333 205 -49l-55 -117c-56 28.667 -105.667 43 -149 43
c-48.667 0 -73 -17 -73 -51c0 -13.333 4 -25.166 12 -35.499s22 -22.5 42 -36.5l121 -85c40.667 -28 70.834 -57.167 90.501 -87.5s29.5 -66.833 29.5 -109.5z" />
    <glyph glyph-name="scedilla" unicode="&#x15f;" horiz-adv-x="418" 
d="M402 133c0 -46.667 -15.166 -82.3301 -45.499 -106.997s-72.5 -38.334 -126.5 -41.001l-9 -22c52 -10.667 78 -33 78 -67c0 -8.66699 -1.5 -16.5 -4.5 -23.5s-8.5 -13.833 -16.5 -20.5l-21 -17c-6 -4.66699 -16.5 -10.334 -31.5 -17.001s-26.333 -11.5 -34 -14.5
l-40.5 -15.5l-14 32l34.5 16.5c6.33301 3 14.166 7.33301 23.499 13s15.666 10.5 18.999 14.5s5 8.33301 5 13c0 10 -4.5 17.333 -13.5 22s-24.833 9.66699 -47.5 15l27 72c-62 3.33301 -119.333 19.333 -172 48l50 104c54.667 -32 106.334 -48 155.001 -48
c38 0 57 11 57 33c0 8.66699 -3 15.667 -9 21s-16.333 11.666 -31 18.999l-83 36c-69.333 30.667 -104 76.667 -104 138c0 45.333 15.333 80 46 104s75 36 133 36c52 0 106.667 -10.667 164 -32l-41 -103c-50 21.333 -93.333 32 -130 32c-31.333 0 -47 -9.33301 -47 -28
c0 -8.66699 3.16699 -16 9.5 -22s17.833 -12.667 34.5 -20l83 -36c68 -28 102 -73 102 -135z" />
    <glyph glyph-name="Scaron" unicode="&#x160;" horiz-adv-x="521" 
d="M335 743h-119l-120 120h108l71 -69l72 69h108zM269 715c66 0 134.333 -16.333 205 -49l-55 -117c-56 28.667 -105.667 43 -149 43c-48.667 0 -73 -17 -73 -51c0 -13.333 4 -25.166 12 -35.499s22 -22.5 42 -36.5l121 -85c40.667 -28 70.834 -57.167 90.501 -87.5
s29.5 -66.833 29.5 -109.5c0 -65.333 -21.167 -115.333 -63.5 -150s-100.833 -52 -175.5 -52c-88.667 0 -169.334 22.667 -242.001 68l57 117c69.333 -40.667 132.333 -61 189 -61c32 0 56.5 6.5 73.5 19.5s25.5 30.167 25.5 51.5c0 16.667 -5.66699 31.667 -17 45
s-29.333 29 -54 47l-113 81c-74 51.333 -111 112.666 -111 183.999c0 55.333 18.167 98.833 54.5 130.5s87.5 47.5 153.5 47.5z" />
    <glyph glyph-name="scaron" unicode="&#x161;" horiz-adv-x="418" 
d="M404 700l-123 -154h-118l-123 154h109l73 -89l74 89h108zM211 -15c-73.333 0 -139.334 16.334 -198.001 49.001l50 104c54.667 -32 106.334 -48 155.001 -48c38 0 57 11 57 33c0 8.66699 -3 15.667 -9 21s-16.333 11.666 -31 18.999l-83 36
c-69.333 30.667 -104 76.667 -104 138c0 45.333 15.333 80 46 104s75 36 133 36c52 0 106.667 -10.667 164 -32l-41 -103c-50 21.333 -93.333 32 -130 32c-31.333 0 -47 -9.33301 -47 -28c0 -8.66699 3.16699 -16 9.5 -22s17.833 -12.667 34.5 -20l83 -36
c68 -28 102 -73 102 -135c0 -49.333 -17 -86.333 -51 -111s-80.667 -37 -140 -37z" />
    <glyph glyph-name="uni0162" unicode="&#x162;" horiz-adv-x="526" 
d="M327 0l-43.998 0.000976562l-14 -37c52 -10.667 78 -33 78 -67c0 -8.66699 -1.5 -16.5 -4.5 -23.5s-8.5 -13.833 -16.5 -20.5l-21 -17c-6 -4.66699 -16.5 -10.334 -31.5 -17.001s-26.333 -11.5 -34 -14.5l-40.5 -15.5l-14 32l34.5 16.5
c6.33301 3 14.166 7.33301 23.499 13s15.666 10.5 18.999 14.5s5 8.33301 5 13c0 10 -4.5 17.333 -13.5 22s-24.833 9.66699 -47.5 15l32 86h-39v580h-191v120h510v-120h-191v-580z" />
    <glyph glyph-name="uni0163" unicode="&#x163;" horiz-adv-x="334" 
d="M316 359l-94.998 0.000976562v-194c0 -18.667 3.66699 -32 11 -40s20 -12 38 -12h21v-114h-54h-4l-14 -36c52 -10.667 78 -33 78 -67c0 -8.66699 -1.5 -16.5 -4.5 -23.5s-8.5 -13.833 -16.5 -20.5l-21 -17c-6 -4.66699 -16.5 -10.334 -31.5 -17.001
s-26.333 -11.5 -34 -14.5l-40.5 -15.5l-14 32l34.5 16.5c6.33301 3 14.166 7.33301 23.499 13s15.666 10.5 18.999 14.5s5 8.33301 5 13c0 10 -4.5 17.333 -13.5 22s-24.833 9.66699 -47.5 15l33 90c-60.667 14.667 -91 58.667 -91 132v223h-85v103h85v185h123v-185h95v-103
z" />
    <glyph glyph-name="Tcaron" unicode="&#x164;" horiz-adv-x="526" 
d="M322 743h-119l-120 120h108l71 -69l72 69h108zM518 700v-120h-191v-580h-128v580h-191v120h510z" />
    <glyph glyph-name="tcaron" unicode="&#x165;" horiz-adv-x="417" 
d="M285 715h122v-121l-81 -96h-44l45 96h-42v121zM221 647v-185h95v-103h-95v-194c0 -18.667 3.66699 -32 11 -40s20 -12 38 -12h21v-114h-54c-44.667 0 -79 11.5 -103 34.5s-36 57.167 -36 102.5v223h-85v103h85v185h123z" />
    <glyph glyph-name="Tbar" unicode="&#x166;" horiz-adv-x="526" 
d="M518 580h-191v-118h126v-101h-126v-361h-128v361h-127v101h127v118h-191v120h510v-120z" />
    <glyph glyph-name="tbar" unicode="&#x167;" horiz-adv-x="335" 
d="M316 359h-95v-55h88v-72h-88v-67c0 -18.667 3.66699 -32 11 -40s20 -12 38 -12h21v-114h-54c-44.667 0 -79 11.5 -103 34.5s-36 57.167 -36 102.5v96h-77v72h77v55h-85v103h85v185h123v-185h95v-103z" />
    <glyph glyph-name="Utilde" unicode="&#x168;" horiz-adv-x="693" 
d="M431 741c-20 0 -50.3311 6.83301 -90.998 20.5s-67.334 20.5 -80.001 20.5c-22.667 0 -40.667 -14 -54 -42l-42 13c20 76 56.333 114 109 114c19.333 0 49.5 -6.83301 90.5 -20.5s67.5 -20.5 79.5 -20.5c23.333 0 41.666 14 54.999 42l41 -14
c-20 -75.333 -56 -113 -108 -113zM635.002 700v-424c0 -89.333 -25.333 -160 -76 -212s-121.334 -78 -212.001 -78c-91.333 0 -162.333 26 -213 78s-76 122.667 -76 212v424h135v-416c0 -50.667 14 -91 42 -121s65.333 -45 112 -45s83.834 15 111.501 45
s41.5 70.333 41.5 121v416h135z" />
    <glyph glyph-name="utilde" unicode="&#x169;" horiz-adv-x="541" 
d="M197 705c20.667 0 49.499 -8 86.499 -24s61.5 -24 73.5 -24c21.333 0 39 15 53 45l48 -15c-18 -80.667 -53.667 -121 -107 -121c-20.667 0 -49.667 8.16699 -87 24.5s-61.666 24.5 -72.999 24.5c-22 0 -40 -15.333 -54 -46l-48 15c18 80.667 54 121 108 121zM219.999 -15
c-50.667 0 -91.833 16 -123.5 48s-47.5 80.667 -47.5 146v283h126v-261c0 -68.667 29 -103 87 -103c68 0 102 47.333 102 142v222h123v-462h-121v71h-2c-32 -57.333 -80 -86 -144 -86z" />
    <glyph glyph-name="Umacron" unicode="&#x16a;" horiz-adv-x="693" 
d="M499 838v-83h-306v83h306zM635 700v-424c0 -89.333 -25.333 -160 -76 -212s-121.334 -78 -212.001 -78c-91.333 0 -162.333 26 -213 78s-76 122.667 -76 212v424h135v-416c0 -50.667 14 -91 42 -121s65.333 -45 112 -45s83.834 15 111.501 45s41.5 70.333 41.5 121v416
h135z" />
    <glyph glyph-name="umacron" unicode="&#x16b;" horiz-adv-x="541" 
d="M424 667v-85h-306v85h306zM220 -15c-50.667 0 -91.833 16 -123.5 48s-47.5 80.667 -47.5 146v283h126v-261c0 -68.667 29 -103 87 -103c68 0 102 47.333 102 142v222h123v-462h-121v71h-2c-32 -57.333 -80 -86 -144 -86z" />
    <glyph glyph-name="Ubreve" unicode="&#x16c;" horiz-adv-x="693" 
d="M497 863c-4 -38.667 -19.332 -69 -45.999 -91s-61.334 -33 -104.001 -33s-77.167 11 -103.5 33s-41.5 52.333 -45.5 91h84c3.33301 -34 25 -51 65 -51s61.667 17 65 51h85zM635.001 700v-424c0 -89.333 -25.333 -160 -76 -212s-121.334 -78 -212.001 -78
c-91.333 0 -162.333 26 -213 78s-76 122.667 -76 212v424h135v-416c0 -50.667 14 -91 42 -121s65.333 -45 112 -45s83.834 15 111.501 45s41.5 70.333 41.5 121v416h135z" />
    <glyph glyph-name="ubreve" unicode="&#x16d;" horiz-adv-x="541" 
d="M421 700c0 -46 -13.998 -82.5 -41.998 -109.5s-64 -40.5 -108 -40.5s-79.833 13.5 -107.5 40.5s-41.5 63.5 -41.5 109.5h81c1.33301 -21.333 7.66602 -38.666 18.999 -51.999s27.666 -20 48.999 -20s37.833 6.66699 49.5 20s18.167 30.666 19.5 51.999h81zM220.002 -15
c-50.667 0 -91.833 16 -123.5 48s-47.5 80.667 -47.5 146v283h126v-261c0 -68.667 29 -103 87 -103c68 0 102 47.333 102 142v222h123v-462h-121v71h-2c-32 -57.333 -80 -86 -144 -86z" />
    <glyph glyph-name="Uring" unicode="&#x16e;" horiz-adv-x="693" 
d="M347 880c34.667 0 63 -11 85 -33s33 -50 33 -84s-11 -62 -33 -84s-50.333 -33 -85 -33s-63.167 11 -85.5 33s-33.5 50 -33.5 84s11.167 62 33.5 84s50.833 33 85.5 33zM346 826c-18 0 -32.833 -6 -44.5 -18s-17.5 -27 -17.5 -45s5.83301 -33 17.5 -45s26.5 -18 44.5 -18
c18.667 0 33.834 6 45.501 18s17.5 27 17.5 45s-5.83301 33 -17.5 45s-26.834 18 -45.501 18zM635 700v-424c0 -89.333 -25.333 -160 -76 -212s-121.334 -78 -212.001 -78c-91.333 0 -162.333 26 -213 78s-76 122.667 -76 212v424h135v-416c0 -50.667 14 -91 42 -121
s65.333 -45 112 -45s83.834 15 111.501 45s41.5 70.333 41.5 121v416h135z" />
    <glyph glyph-name="uring" unicode="&#x16f;" horiz-adv-x="541" 
d="M270 747c34.667 0 63.334 -11 86.001 -33s34 -50 34 -84s-11.333 -62 -34 -84s-51.334 -33 -86.001 -33s-63.167 11 -85.5 33s-33.5 50 -33.5 84s11.167 62 33.5 84s50.833 33 85.5 33zM270 693c-18.667 0 -33.834 -6 -45.501 -18s-17.5 -27 -17.5 -45
s5.83301 -33 17.5 -45s26.834 -18 45.501 -18c19.333 0 34.833 6 46.5 18s17.5 27 17.5 45s-5.83301 33 -17.5 45s-27.167 18 -46.5 18zM220 -15c-50.667 0 -91.833 16 -123.5 48s-47.5 80.667 -47.5 146v283h126v-261c0 -68.667 29 -103 87 -103c68 0 102 47.333 102 142
v222h123v-462h-121v71h-2c-32 -57.333 -80 -86 -144 -86z" />
    <glyph glyph-name="Uhungarumlaut" unicode="&#x170;" horiz-adv-x="693" 
d="M439 863l-108 -120h-84l90 120h102zM577 863l-107 -120h-84l90 120h101zM635 700v-424c0 -89.333 -25.333 -160 -76 -212s-121.334 -78 -212.001 -78c-91.333 0 -162.333 26 -213 78s-76 122.667 -76 212v424h135v-416c0 -50.667 14 -91 42 -121s65.333 -45 112 -45
s83.834 15 111.501 45s41.5 70.333 41.5 121v416h135z" />
    <glyph glyph-name="uhungarumlaut" unicode="&#x171;" horiz-adv-x="541" 
d="M375 707l-132 -154h-85l113 154h104zM518 707l-132 -154h-85l112 154h105zM220 -15c-50.667 0 -91.833 16 -123.5 48s-47.5 80.667 -47.5 146v283h126v-261c0 -68.667 29 -103 87 -103c68 0 102 47.333 102 142v222h123v-462h-121v71h-2c-32 -57.333 -80 -86 -144 -86z
" />
    <glyph glyph-name="Uogonek" unicode="&#x172;" horiz-adv-x="693" 
d="M500 700h134.998v-424c0 -78.667 -19.667 -143 -59 -193s-94.666 -80.667 -165.999 -92c-37.333 -39.333 -56 -68.333 -56 -87c0 -14.667 9 -22 27 -22c10.667 0 23.667 1.66699 39 5l12 -77c-26 -6 -49.333 -9 -70 -9c-30 0 -53.667 6.66699 -71 20s-26 33.333 -26 60
c0 32.667 20.333 68 61 106c-84.667 4 -150.5 31.667 -197.5 83s-70.5 120 -70.5 206v424h135v-416c0 -50.667 14 -91 42 -121s65.333 -45 112 -45s83.834 15 111.501 45s41.5 70.333 41.5 121v416z" />
    <glyph glyph-name="uogonek" unicode="&#x173;" horiz-adv-x="541" 
d="M487 0h-57.999c-43.333 -43.333 -65 -75.333 -65 -96c0 -14.667 9 -22 27 -22c10.667 0 23.667 1.66699 39 5l12 -77c-26 -6 -49.333 -9 -70 -9c-30 0 -53.667 6.66699 -71 20s-26 33.333 -26 60c0 39.333 30.333 83 91 131v59h-2c-32 -57.333 -80 -86 -144 -86
c-50.667 0 -91.834 16 -123.501 48s-47.5 80.667 -47.5 146v283h126v-261c0 -68.667 29 -103 87 -103c68 0 102 47.333 102 142v222h123v-462z" />
    <glyph glyph-name="Wcircumflex" unicode="&#x174;" horiz-adv-x="1023" 
d="M571 863l120 -120h-108l-72 69l-71 -69h-108l120 120h119zM1012 700l-222 -700h-118l-159 491h-3l-159 -491h-118l-222 700h147l135 -495h2l157 495h119l158 -495h2l135 495h146z" />
    <glyph glyph-name="wcircumflex" unicode="&#x175;" horiz-adv-x="762" 
d="M381 642l-73 -89h-109l123 154h118l123 -154h-108zM629 462h128l-161 -462h-109l-106 302l-106 -302h-109l-161 462h128l89 -303l101 303h116l101 -305z" />
    <glyph glyph-name="Ycircumflex" unicode="&#x176;" horiz-adv-x="597" 
d="M298 812l-71 -69h-108l120 120h119l120 -120h-108zM597 700l-234 -431v-269h-129v267l-234 433h151l146 -301h3l146 301h151z" />
    <glyph glyph-name="ycircumflex" unicode="&#x177;" horiz-adv-x="520" 
d="M266 642l-73 -89h-109l123 154h118l123 -154h-108zM386 462h129l-296 -662h-127l113 243l-200 419h144l117 -281z" />
    <glyph glyph-name="Ydieresis" unicode="&#x178;" horiz-adv-x="597" 
d="M252 852v-109h-119v109h119zM465 852v-109h-119v109h119zM597 700l-234 -431v-269h-129v267l-234 433h151l146 -301h3l146 301h151z" />
    <glyph glyph-name="Zacute" unicode="&#x179;" horiz-adv-x="554" 
d="M480 863l-159 -120h-90l104 120h145zM177 120h357v-120h-514v120l346 460h-317v120h473v-120z" />
    <glyph glyph-name="zacute" unicode="&#x17a;" horiz-adv-x="443" 
d="M426 707l-153 -154h-96l104 154h145zM406 364l-237 -256h254v-108h-402v99l235 255h-222v108h372v-98z" />
    <glyph glyph-name="Zdotaccent" unicode="&#x17b;" horiz-adv-x="554" 
d="M341 858v-115h-123v115h123zM177 120h357v-120h-514v120l346 460h-317v120h473v-120z" />
    <glyph glyph-name="zdotaccent" unicode="&#x17c;" horiz-adv-x="443" 
d="M297 694v-135h-140v135h140zM169 108h254v-108h-402v99l235 255h-222v108h372v-98z" />
    <glyph glyph-name="Zcaron" unicode="&#x17d;" horiz-adv-x="554" 
d="M339 743h-119l-120 120h108l71 -69l72 69h108zM177 120h357v-120h-514v120l346 460h-317v120h473v-120z" />
    <glyph glyph-name="zcaron" unicode="&#x17e;" horiz-adv-x="443" 
d="M286 546h-118l-123 154h109l73 -89l74 89h108zM169 108h254v-108h-402v99l235 255h-222v108h372v-98z" />
    <glyph glyph-name="uni018F" unicode="&#x18f;" horiz-adv-x="772" 
d="M362 715c118 0 211 -32.5 279 -97.5s102 -154.5 102 -268.5c0 -110 -32 -198.167 -96 -264.5s-151.667 -99.5 -263 -99.5c-112 0 -199.167 33.333 -261.5 100s-93.5 154 -93.5 262v57l11 -1v1h560c-10 58 -35.333 103 -76 135s-94.667 48 -162 48
c-77.333 0 -152.333 -21.333 -225 -64l-63 121c93.333 47.333 189.333 71 288 71zM385 110c62.667 0 112.167 15.667 148.5 47s58.833 75.333 67.5 132h-429c16.667 -119.333 87.667 -179 213 -179z" />
    <glyph glyph-name="florin" unicode="&#x192;" horiz-adv-x="403" 
d="M340 565c-58.667 0 -88 -27.334 -88 -82.001v-21h125v-30h-125v-434c0 -63.333 -15.333 -112.166 -46 -146.499s-76 -51.5 -136 -51.5h-50v110h40c48 0 72 26 72 78v444h-98v30h98v16c0 64 17 112.833 51 146.5s84 50.5 150 50.5h44v-110h-37z" />
    <glyph glyph-name="uni01E5" unicode="&#x1e5;" horiz-adv-x="578" 
d="M578 -35l0.00195312 -24.998h-58c-10 -56 -34.167 -95.833 -72.5 -119.5s-89.5 -35.5 -153.5 -35.5c-50 0 -112.667 7.33301 -188 22l22 117c64 -15.333 117.667 -23 161 -23c49.333 0 82 13 98 39h-152v25h163c4 16 6 35 6 57v43h-2
c-34.667 -51.333 -86.334 -77 -155.001 -77c-63.333 0 -116 21.667 -158 65s-63 102.666 -63 177.999c0 76 21.167 136 63.5 180s95.166 66 158.499 66c70.667 0 122 -26.667 154 -80h2v65h122v-462c0 -8.66699 -0.666992 -20.334 -2 -35.001h54zM279.002 101.002
c37.333 0 67.5 12 90.5 36s34.5 55.333 34.5 94s-11.5 70 -34.5 94s-53.167 36 -90.5 36s-67.5 -12 -90.5 -36s-34.5 -55.333 -34.5 -94s11.5 -70 34.5 -94s53.167 -36 90.5 -36z" />
    <glyph glyph-name="uni01E9" unicode="&#x1e9;" horiz-adv-x="517" 
d="M323 743h-119l-120 120h108l71 -69l72 69h108zM512 0h-160l-173 221v-221h-123v700h123v-429l152 191h156l-189 -210z" />
    <glyph glyph-name="AEacute" unicode="&#x1fc;" horiz-adv-x="964" 
d="M888 863l-159 -120h-90l104 120h145zM656 118h269v-118h-393v159h-266l-99 -159h-164l458 700h460v-118h-265v-142h239v-118h-239v-204zM338 275h194v312z" />
    <glyph glyph-name="aeacute" unicode="&#x1fd;" horiz-adv-x="820" 
d="M614 707l-153 -154h-96l104 154h145zM203 -15c-55.333 0 -100.329 15 -134.996 45s-52 69.667 -52 119c0 48.667 16.667 87.667 50 117s77.666 44 132.999 44c61.333 0 107.333 -16.333 138 -49h2v30c0 56.667 -35 85 -105 85c-37.333 0 -85 -7.33301 -143 -22l-25 101
c64 14.667 121.333 22 172 22c83.333 0 137.666 -29 162.999 -87h2c16 26 39.167 47 69.5 63s65.5 24 105.5 24c67.333 0 120.666 -21.5 159.999 -64.5s59 -103.833 59 -182.5v-24h-342c4.66699 -34.667 17.667 -62 39 -82s50.666 -30 87.999 -30c50 0 96 21 138 63l61 -87
c-58 -56.667 -123.667 -85 -197 -85c-44.667 0 -83.5 9 -116.5 27s-57.833 42.333 -74.5 73h-2c-39.333 -66.667 -102 -100 -188 -100zM458.004 285l213 0.000976562c-0.666992 28 -10.5 50.5 -29.5 67.5s-43.5 25.5 -73.5 25.5c-28.667 0 -53 -7.83301 -73 -23.5
s-32.333 -38.834 -37 -69.501zM240.004 83.001c28.667 0 52.5 6.33398 71.5 19.001s28.5 29.334 28.5 50.001c0 21.333 -9.33301 38.166 -28 50.499s-42.334 18.5 -71.001 18.5c-29.333 0 -51.833 -6.5 -67.5 -19.5s-23.5 -29.5 -23.5 -49.5
c0 -20.667 7.83301 -37.334 23.5 -50.001s37.834 -19 66.501 -19z" />
    <glyph glyph-name="Oslashacute" unicode="&#x1fe;" horiz-adv-x="791" 
d="M595 863l-159 -120h-90l104 120h145zM634 634c85.333 -70 128.001 -164.667 128.001 -284c0 -107.333 -34.833 -195 -104.5 -263s-157.167 -102 -262.5 -102c-75.333 0 -142.333 18 -201 54l-39 -53l-38 25l40 54c-85.333 70 -128 165 -128 285
c0 107.333 34.667 195 104 263s156.666 102 261.999 102c74.667 0 142 -18.333 202 -55l40 54l38 -25zM169.001 350c0 -72 23.333 -130.334 70 -175.001l278 377c-37.333 21.333 -78 32 -122 32c-66 0 -120.167 -21.667 -162.5 -65s-63.5 -99.666 -63.5 -168.999z
M395.001 115.999c66 0 120.167 21.668 162.5 65.001s63.5 99.666 63.5 168.999c0 72 -22.667 130 -68 174l-278 -376c34.667 -21.333 74.667 -32 120 -32z" />
    <glyph glyph-name="oslashacute" unicode="&#x1ff;" horiz-adv-x="563" 
d="M480 707l-153 -154h-96l104 154h145zM461 412c51.333 -46 77 -106.333 77 -181c0 -72 -24.167 -131 -72.5 -177s-109.5 -69 -183.5 -69c-60 0 -112.333 15.667 -157 47l-40 -46l-27 23l40 45c-48 46.667 -72 105.667 -72 177c0 72 24.167 131 72.5 177s109.5 69 183.5 69
c58 0 108 -14.333 150 -43l38 43l27 -24zM152 231c0 -32.667 9 -60.667 27 -84l173 196c-20 12 -43.333 18 -70 18c-38 0 -69.167 -11.833 -93.5 -35.5s-36.5 -55.167 -36.5 -94.5zM282 101c38 0 69 11.832 93 35.499s36 55.167 36 94.5c0 36.667 -10.333 66.334 -31 89.001
l-174 -197c22 -14.667 47.333 -22 76 -22z" />
    <glyph glyph-name="Scommaaccent" unicode="&#x218;" horiz-adv-x="521" 
d="M372 384c40.667 -28 70.834 -57.167 90.501 -87.5s29.5 -66.833 29.5 -109.5c0 -65.333 -21.167 -115.333 -63.5 -150s-100.833 -52 -175.5 -52c-88.667 0 -169.334 22.667 -242.001 68l57 117c69.333 -40.667 132.333 -61 189 -61c32 0 56.5 6.5 73.5 19.5
s25.5 30.167 25.5 51.5c0 16.667 -5.66699 31.667 -17 45s-29.333 29 -54 47l-113 81c-74 51.333 -111 112.666 -111 183.999c0 55.333 18.167 98.833 54.5 130.5s87.5 47.5 153.5 47.5s134.333 -16.333 205 -49l-55 -117c-56 28.667 -105.667 43 -149 43
c-48.667 0 -73 -17 -73 -51c0 -13.333 4 -25.166 12 -35.499s22 -22.5 42 -36.5zM206 -142v95h117v-95l-65 -68h-44l35 68h-43z" />
    <glyph glyph-name="scommaaccent" unicode="&#x219;" horiz-adv-x="418" 
d="M300 268c68 -28 101.999 -72.999 101.999 -134.999c0 -49.333 -17 -86.333 -51 -111s-80.667 -37 -140 -37c-73.333 0 -139.333 16.333 -198 49l50 104c54.667 -32 106.334 -48 155.001 -48c38 0 57 11 57 33c0 8.66699 -3 15.667 -9 21s-16.333 11.666 -31 18.999
l-83 36c-69.333 30.667 -104 76.667 -104 138c0 45.333 15.333 80 46 104s75 36 133 36c52 0 106.667 -10.667 164 -32l-41 -103c-50 21.333 -93.333 32 -130 32c-31.333 0 -47 -9.33301 -47 -28c0 -8.66699 3.16699 -16 9.5 -22s17.833 -12.667 34.5 -20zM155.999 -141.999
v95h117v-95l-65 -68h-44l35 68h-43z" />
    <glyph glyph-name="uni021A" unicode="&#x21a;" horiz-adv-x="526" 
d="M518 700v-120h-191v-580h-128v580h-191v120h510zM204 -142v95h117v-95l-65 -68h-44l35 68h-43z" />
    <glyph glyph-name="uni021B" unicode="&#x21b;" horiz-adv-x="334" 
d="M316 359h-95v-194c0 -18.667 3.66699 -32 11 -40s20 -12 38 -12h21v-114h-54c-44.667 0 -79 11.5 -103 34.5s-36 57.167 -36 102.5v223h-85v103h85v185h123v-185h95v-103zM154 -142v95h117v-95l-65 -68h-44l35 68h-43z" />
    <glyph glyph-name="uni0232" unicode="&#x232;" horiz-adv-x="597" 
d="M451 838v-83h-306v83h306zM597 700l-234 -431v-269h-129v267l-234 433h151l146 -301h3l146 301h151z" />
    <glyph glyph-name="uni0233" unicode="&#x233;" horiz-adv-x="520" 
d="M419 667v-85h-306v85h306zM386 462h129l-296 -662h-127l113 243l-200 419h144l117 -281z" />
    <glyph glyph-name="uni0237" unicode="&#x237;" horiz-adv-x="236" 
d="M-21 -90h21c20 0 34.333 4.83301 43 14.5s13 25.167 13 46.5v491h123v-496c0 -112.667 -53.333 -169 -160 -169h-40v113z" />
    <glyph glyph-name="uni0259" unicode="&#x259;" horiz-adv-x="514" 
d="M248 -15c-70.667 0 -125.666 21.5 -164.999 64.5s-59 103.833 -59 182.5v24h345c-3.33301 35.333 -16.833 62.833 -40.5 82.5s-53.5 29.5 -89.5 29.5c-50 0 -96 -21 -138 -63l-62 89c60 55.333 126.667 83 200 83c75.333 0 135.666 -22.333 180.999 -67s68 -104 68 -178
s-22 -133.667 -66 -179s-102 -68 -174 -68zM254.001 84c64.667 0 102 30.999 112 92.999h-218c2 -29.333 12.5 -52.166 31.5 -68.499s43.833 -24.5 74.5 -24.5z" />
    <glyph glyph-name="uni0292" unicode="&#x292;" horiz-adv-x="487" 
d="M206 -215c-80.667 0 -154.332 16.3311 -220.999 48.998l47 109c58 -30 116.333 -45 175 -45c42 0 74.333 9.33301 97 28s34 44.334 34 77.001c0 66 -50.333 99 -151 99h-88v90l178 157h-251v113h404v-111l-201 -166c14 2.66699 29.667 4 47 4
c53.333 0 97.666 -16.667 132.999 -50s53 -79.333 53 -138c0 -67.333 -21.5 -120.166 -64.5 -158.499s-106.833 -57.5 -191.5 -57.5z" />
    <glyph glyph-name="uni02BC" unicode="&#x2bc;" horiz-adv-x="182" 
d="M33 715h121v-121l-80 -152h-44l53 152h-50v121z" />
    <glyph glyph-name="circumflex" unicode="&#x2c6;" horiz-adv-x="464" 
d="M291 707l123 -154h-108l-74 89l-73 -89h-109l123 154h118z" />
    <glyph glyph-name="caron" unicode="&#x2c7;" horiz-adv-x="464" 
d="M414 700l-123 -154h-118l-123 154h109l73 -89l74 89h108z" />
    <glyph glyph-name="breve" unicode="&#x2d8;" horiz-adv-x="399" 
d="M349 700c0 -46 -13.998 -82.5 -41.998 -109.5s-64 -40.5 -108 -40.5s-79.833 13.5 -107.5 40.5s-41.5 63.5 -41.5 109.5h81c1.33301 -21.333 7.66602 -38.666 18.999 -51.999s27.666 -20 48.999 -20s37.833 6.66699 49.5 20s18.167 30.666 19.5 51.999h81z" />
    <glyph glyph-name="dotaccent" unicode="&#x2d9;" horiz-adv-x="240" 
d="M190 694v-135h-140v135h140z" />
    <glyph glyph-name="ring" unicode="&#x2da;" horiz-adv-x="339" 
d="M169 747c34.667 0 63.334 -11 86.001 -33s34 -50 34 -84s-11.333 -62 -34 -84s-51.334 -33 -86.001 -33s-63.167 11 -85.5 33s-33.5 50 -33.5 84s11.167 62 33.5 84s50.833 33 85.5 33zM169 693c-18.667 0 -33.834 -6 -45.501 -18s-17.5 -27 -17.5 -45
s5.83301 -33 17.5 -45s26.834 -18 45.501 -18c19.333 0 34.833 6 46.5 18s17.5 27 17.5 45s-5.83301 33 -17.5 45s-27.167 18 -46.5 18z" />
    <glyph glyph-name="ogonek" unicode="&#x2db;" horiz-adv-x="270" 
d="M157 24l57 -14.001c-50 -48.667 -75 -84 -75 -106c0 -14.667 9 -22 27 -22c10.667 0 23.667 1.66699 39 5l12 -77c-26 -6 -49.333 -9 -70 -9c-30 0 -53.667 6.66699 -71 20s-26 33.333 -26 60c0 42.667 35.667 90.334 107 143.001z" />
    <glyph glyph-name="tilde" unicode="&#x2dc;" horiz-adv-x="469" 
d="M158 705c20.667 0 49.499 -8 86.499 -24s61.5 -24 73.5 -24c21.333 0 39 15 53 45l48 -15c-18 -80.667 -53.667 -121 -107 -121c-20.667 0 -49.667 8.16699 -87 24.5s-61.666 24.5 -72.999 24.5c-22 0 -40 -15.333 -54 -46l-48 15c18 80.667 54 121 108 121z" />
    <glyph glyph-name="hungarumlaut" unicode="&#x2dd;" horiz-adv-x="460" 
d="M267 707l-132 -154h-85l113 154h104zM410 707l-132 -154h-85l112 154h105z" />
    <glyph glyph-name="gravecomb" unicode="&#x300;" horiz-adv-x="0" 
d="M-154 707l104 -154h-96l-153 154h145z" />
    <glyph glyph-name="acutecomb" unicode="&#x301;" horiz-adv-x="0" 
d="M-50 707l-153 -154h-96l104 154h145z" />
    <glyph glyph-name="uni0302" unicode="&#x302;" horiz-adv-x="0" 
d="M-173 707l123 -154h-108l-74 89l-73 -89h-109l123 154h118z" />
    <glyph glyph-name="tildecomb" unicode="&#x303;" horiz-adv-x="0" 
d="M-311 705c20.667 0 49.499 -8 86.499 -24s61.5 -24 73.5 -24c21.333 0 39 15 53 45l48 -15c-18 -80.667 -53.667 -121 -107 -121c-20.667 0 -49.667 8.16699 -87 24.5s-61.666 24.5 -72.999 24.5c-22 0 -40 -15.333 -54 -46l-48 15c18 80.667 54 121 108 121z" />
    <glyph glyph-name="uni0304" unicode="&#x304;" horiz-adv-x="0" 
d="M-50 667v-85h-306v85h306z" />
    <glyph glyph-name="uni0306" unicode="&#x306;" horiz-adv-x="0" 
d="M-50 700c0 -46 -13.998 -82.5 -41.998 -109.5s-64 -40.5 -108 -40.5s-79.833 13.5 -107.5 40.5s-41.5 63.5 -41.5 109.5h81c1.33301 -21.333 7.66602 -38.666 18.999 -51.999s27.666 -20 48.999 -20s37.833 6.66699 49.5 20s18.167 30.666 19.5 51.999h81z" />
    <glyph glyph-name="uni0307" unicode="&#x307;" horiz-adv-x="0" 
d="M-50 694v-135h-140v135h140z" />
    <glyph glyph-name="uni0308" unicode="&#x308;" horiz-adv-x="0" 
d="M-238 690v-127h-111v127h111zM-50 690v-127h-111v127h111z" />
    <glyph glyph-name="uni030A" unicode="&#x30a;" horiz-adv-x="0" 
d="M-170 747c34.667 0 63.334 -11 86.001 -33s34 -50 34 -84s-11.333 -62 -34 -84s-51.334 -33 -86.001 -33s-63.167 11 -85.5 33s-33.5 50 -33.5 84s11.167 62 33.5 84s50.833 33 85.5 33zM-170 693c-18.667 0 -33.834 -6 -45.501 -18s-17.5 -27 -17.5 -45
s5.83301 -33 17.5 -45s26.834 -18 45.501 -18c19.333 0 34.833 6 46.5 18s17.5 27 17.5 45s-5.83301 33 -17.5 45s-27.167 18 -46.5 18z" />
    <glyph glyph-name="uni030B" unicode="&#x30b;" horiz-adv-x="0" 
d="M-193 707l-132 -154h-85l113 154h104zM-50 707l-132 -154h-85l112 154h105z" />
    <glyph glyph-name="uni030C" unicode="&#x30c;" horiz-adv-x="0" 
d="M-50 700l-123 -154h-118l-123 154h109l73 -89l74 89h108z" />
    <glyph glyph-name="uni0312" unicode="&#x312;" horiz-adv-x="0" 
d="M-94 635h43v-95h-117v95l65 68h44z" />
    <glyph glyph-name="uni0326" unicode="&#x326;" horiz-adv-x="0" 
d="M-167 -47h117v-95l-65 -68h-44l35 68h-43v95z" />
    <glyph glyph-name="uni0327" unicode="&#x327;" horiz-adv-x="0" 
d="M-101 33l-26.998 -69.999c52 -10.667 78 -33 78 -67c0 -8.66699 -1.5 -16.5 -4.5 -23.5s-8.5 -13.833 -16.5 -20.5l-21 -17c-6 -4.66699 -16.5 -10.334 -31.5 -17.001s-26.333 -11.5 -34 -14.5l-40.5 -15.5l-14 32l34.5 16.5c6.33301 3 14.166 7.33301 23.499 13
s15.666 10.5 18.999 14.5s5 8.33301 5 13c0 10 -4.5 17.333 -13.5 22s-24.833 9.66699 -47.5 15l44 119h46z" />
    <glyph glyph-name="uni0328" unicode="&#x328;" horiz-adv-x="0" 
d="M-113 24l57 -14.001c-50 -48.667 -75 -84 -75 -106c0 -14.667 9 -22 27 -22c10.667 0 23.667 1.66699 39 5l12 -77c-26 -6 -49.333 -9 -70 -9c-30 0 -53.667 6.66699 -71 20s-26 33.333 -26 60c0 42.667 35.667 90.334 107 143.001z" />
    <glyph glyph-name="uni0394" unicode="&#x394;" horiz-adv-x="628" 
d="M358 700l250 -700h-588l250 700h88zM314 523l-148 -453h296z" />
    <glyph glyph-name="uni03A9" unicode="&#x3a9;" horiz-adv-x="746" 
d="M373 715c103.333 0 185.833 -29.832 247.5 -89.499s92.5 -137.167 92.5 -232.5c0 -70 -19.333 -129.833 -58 -179.5s-86.667 -82.834 -144 -99.501v-3h191v-111h-289v178c54.667 10 98 34.167 130 72.5s48 84.5 48 138.5c0 63.333 -19.333 114 -58 152s-92 57 -160 57
s-121.333 -19 -160 -57s-58 -88.667 -58 -152c0 -54 16.167 -100.167 48.5 -138.5s75.5 -62.5 129.5 -72.5v-178h-288v111h191v3c-58 16 -106.333 49 -145 99s-58 110 -58 180c0 95.333 30.833 172.833 92.5 232.5s144.167 89.5 247.5 89.5z" />
    <glyph glyph-name="uni03BC" unicode="&#x3bc;" horiz-adv-x="541" 
d="M364 462h123v-462h-121v71h-2c-32 -57.333 -80 -86 -144 -86c-20 0 -38 2.33301 -54 7v-192h-115v342c-1.33301 16 -2 28.333 -2 37v283h126v-261c0 -68.667 29 -103 87 -103c68 0 102 47.333 102 142v222z" />
    <glyph glyph-name="pi" unicode="&#x3c0;" horiz-adv-x="620" 
d="M590 477v-112h-99v-365h-112v365h-115l-86 -365h-114l87 364c-40 -0.666992 -80.333 -7 -121 -19v112c41.333 13.333 90.333 20 147 20h413z" />
    <glyph glyph-name="uni0401" unicode="&#x401;" horiz-adv-x="525" 
d="M244 852v-109h-119v109h119zM457 852v-109h-119v109h119zM194 120h292v-120h-420v700h415v-120h-287v-140h262v-118h-262v-202z" />
    <glyph glyph-name="uni0402" unicode="&#x402;" horiz-adv-x="728" 
d="M507 428c68 0 118.834 -14.5 152.501 -43.5s50.5 -74.5 50.5 -136.5v-57c0 -127.333 -65.333 -191 -196 -191h-77v118h53c31.333 0 54.5 6.16699 69.5 18.5s22.5 33.5 22.5 63.5v36c0 25.333 -7.83301 43.5 -23.5 54.5s-41.5 16.5 -77.5 16.5
c-50.667 0 -105.334 -2.66699 -164.001 -8v-299h-128v580h-181v120h555v-120h-246v-160c78.667 5.33301 142 8 190 8z" />
    <glyph glyph-name="uni0403" unicode="&#x403;" horiz-adv-x="484" 
d="M468 863l-159 -120h-90l104 120h145zM476 700v-120h-282v-580h-128v700h410z" />
    <glyph glyph-name="uni0404" unicode="&#x404;" horiz-adv-x="669" 
d="M389 115c67.333 0 131.666 20.667 192.999 62l68 -112c-78.667 -53.333 -166.334 -80 -263.001 -80c-107.333 0 -193.833 32.333 -259.5 97s-98.5 154 -98.5 268s32.833 203.333 98.5 268s152.167 97 259.5 97c96.667 0 184.334 -26.667 263.001 -80l-68 -112
c-61.333 41.333 -125.666 62 -192.999 62c-55.333 0 -102 -14.333 -140 -43s-62.667 -69.667 -74 -123h285v-118h-289c8.66699 -60 32.5 -106 71.5 -138s87.833 -48 146.5 -48z" />
    <glyph glyph-name="uni0405" unicode="&#x405;" horiz-adv-x="521" 
d="M269 715c66 0 134.333 -16.333 205 -49l-55 -117c-56 28.667 -105.667 43 -149 43c-48.667 0 -73 -17 -73 -51c0 -13.333 4 -25.166 12 -35.499s22 -22.5 42 -36.5l121 -85c40.667 -28 70.834 -57.167 90.501 -87.5s29.5 -66.833 29.5 -109.5
c0 -65.333 -21.167 -115.333 -63.5 -150s-100.833 -52 -175.5 -52c-88.667 0 -169.334 22.667 -242.001 68l57 117c69.333 -40.667 132.333 -61 189 -61c32 0 56.5 6.5 73.5 19.5s25.5 30.167 25.5 51.5c0 16.667 -5.66699 31.667 -17 45s-29.333 29 -54 47l-113 81
c-74 51.333 -111 112.666 -111 183.999c0 55.333 18.167 98.833 54.5 130.5s87.5 47.5 153.5 47.5z" />
    <glyph glyph-name="uni0406" unicode="&#x406;" horiz-adv-x="261" 
d="M195 700v-700h-129v700h129z" />
    <glyph glyph-name="uni0407" unicode="&#x407;" horiz-adv-x="261" 
d="M83 852v-109h-119v109h119zM296 852v-109h-119v109h119zM195 700v-700h-129v700h129z" />
    <glyph glyph-name="uni0408" unicode="&#x408;" horiz-adv-x="287" 
d="M221 700v-525c0 -61.333 -13.667 -106.5 -41 -135.5s-69 -43.5 -125 -43.5h-42v122h29c34 0 51 21 51 63v519h128z" />
    <glyph glyph-name="uni0409" unicode="&#x409;" horiz-adv-x="1038" 
d="M793 435c66.667 0 121.5 -18.333 164.5 -55s64.5 -91 64.5 -163c0 -71.333 -21.5 -125.333 -64.5 -162s-97.833 -55 -164.5 -55h-268v580h-284v-405c0 -61.333 -13.667 -106.5 -41 -135.5s-69 -43.5 -125 -43.5h-62v122h49c34 0 51 21 51 63v519h540v-265h140zM778 118
c34 0 60.667 8.66797 80 26.001s29 41.666 29 72.999c0 32 -9.5 56.667 -28.5 74s-45.833 26 -80.5 26h-125v-199h125z" />
    <glyph glyph-name="uni040A" unicode="&#x40a;" horiz-adv-x="1026" 
d="M781 435c66.667 0 121.5 -18.333 164.5 -55s64.5 -91 64.5 -163c0 -71.333 -21.5 -125.333 -64.5 -162s-97.833 -55 -164.5 -55h-267v317h-320v-317h-128v700h128v-265h320v265h128v-265h139zM766 118c34 0 60.667 8.66797 80 26.001s29 41.666 29 72.999
c0 32 -9.5 56.667 -28.5 74s-45.833 26 -80.5 26h-124v-199h124z" />
    <glyph glyph-name="uni040B" unicode="&#x40b;" horiz-adv-x="727" 
d="M508 427c134 0 201 -66 201 -198v-229h-128v221c0 56.667 -30 85 -90 85h-175v-306h-128v580h-180v120h555v-120h-247v-153h192z" />
    <glyph glyph-name="uni040C" unicode="&#x40c;" horiz-adv-x="685" 
d="M533 863l-159 -120h-90l104 120h145zM683 0h-186l-303 343v-343h-128v700h128v-310l264 310h176l-297 -324z" />
    <glyph glyph-name="uni040E" unicode="&#x40e;" horiz-adv-x="653" 
d="M335 723c-46 0 -81.8311 12.333 -107.498 37s-39.5 59 -41.5 103h84c0 -22.667 5.5 -40.334 16.5 -53.001s27.167 -19 48.5 -19s37.666 6.33301 48.999 19s16.666 30.334 15.999 53.001h85c-2 -44 -16 -78.333 -42 -103s-62 -37 -108 -37zM511.002 700h142l-330 -700
h-143l85 179l-265 521h160l175 -373z" />
    <glyph glyph-name="uni040F" unicode="&#x40f;" horiz-adv-x="714" 
d="M648 700v-700h-232v-140h-119v140h-231v700h128v-580h326v580h128z" />
    <glyph glyph-name="uni0410" unicode="&#x410;" horiz-adv-x="696" 
d="M551 0l-59 159h-288l-59 -159h-142l281 700h128l281 -700h-142zM246 275h204l-102 275z" />
    <glyph glyph-name="uni0411" unicode="&#x411;" 
d="M344 435c66 0 120.5 -18.333 163.5 -55s64.5 -91 64.5 -163c0 -71.333 -21.5 -125.333 -64.5 -162s-97.5 -55 -163.5 -55h-278v700h472v-120h-344v-145h150zM328 118c34 0 60.667 8.66797 80 26.001s29 41.666 29 72.999c0 32 -9.5 56.667 -28.5 74s-45.833 26 -80.5 26
h-134v-199h134z" />
    <glyph glyph-name="uni0412" unicode="&#x412;" horiz-adv-x="621" 
d="M446 371c43.333 -6.66699 77.834 -24.499 103.501 -53.499s38.5 -68.833 38.5 -119.5c0 -64.667 -21.333 -113.834 -64 -147.501s-96.667 -50.5 -162 -50.5h-296v700h277c63.333 0 114.166 -15.167 152.499 -45.5s57.5 -73.833 57.5 -130.5
c0 -78 -35.667 -128.333 -107 -151v-2zM323.001 582.001h-129.001v-168h124c32.667 0 57.667 7.33301 75 22s26 35.667 26 63c0 26.667 -8.66699 47.167 -26 61.5s-40.666 21.5 -69.999 21.5zM340 118.001c34.667 0 62 8.16895 82 24.502s30 39.166 30 68.499
s-10 52.166 -30 68.499s-49 24.5 -87 24.5h-141v-186h146z" />
    <glyph glyph-name="uni0413" unicode="&#x413;" horiz-adv-x="484" 
d="M476 700v-120h-282v-580h-128v700h410z" />
    <glyph glyph-name="uni0414" unicode="&#x414;" horiz-adv-x="691" 
d="M595 105h77v-245h-120v125h-428v-125h-119v245h76c36 84 54 182.667 54 296v299h460v-595zM263 403c0 -112 -16.667 -211.333 -50 -298h254v475h-204v-177z" />
    <glyph glyph-name="uni0415" unicode="&#x415;" horiz-adv-x="525" 
d="M194 120h292v-120h-420v700h415v-120h-287v-140h262v-118h-262v-202z" />
    <glyph glyph-name="uni0416" unicode="&#x416;" horiz-adv-x="1057" 
d="M1054 0h-181l-283 352v-352h-123v352l-284 -352h-180l316 370l-266 330h171l243 -321v321h123v-321l241 321h173l-266 -330z" />
    <glyph glyph-name="uni0417" unicode="&#x417;" horiz-adv-x="588" 
d="M285 715c78 0 138.001 -15.1689 180.001 -45.502s63 -73.833 63 -130.5c0 -43.333 -12.833 -79.166 -38.5 -107.499s-62.834 -47.833 -111.501 -58.5v-2c117.333 -15.333 176 -75.333 176 -180c0 -61.333 -22.333 -111 -67 -149s-114.334 -57 -209.001 -57
c-96.667 0 -183 21.667 -259 65l57 114c68.667 -38.667 136.334 -58 203.001 -58c46.667 0 82.667 8.33301 108 25s38 40.334 38 71.001c0 68.667 -64.667 103 -194 103h-67v118h67c53.333 0 94.333 8 123 24s43 39 43 69c0 52 -40.333 78 -121 78
c-62 0 -127 -17.333 -195 -52l-51 115c84 38.667 169 58 255 58z" />
    <glyph glyph-name="uni0418" unicode="&#x418;" horiz-adv-x="720" 
d="M66 700h128v-488h1l340 488h119v-700h-128v487h-1l-340 -487h-119v700z" />
    <glyph glyph-name="uni0419" unicode="&#x419;" horiz-adv-x="720" 
d="M514 863c-2 -44 -15.998 -78.333 -41.998 -103s-62 -37 -108 -37s-81.833 12.333 -107.5 37s-39.5 59 -41.5 103h84c0 -22.667 5.5 -40.334 16.5 -53.001s27.167 -19 48.5 -19s37.666 6.33301 48.999 19s16.666 30.334 15.999 53.001h85zM66.002 700h128v-488h1l340 488
h119v-700h-128v487h-1l-340 -487h-119v700z" />
    <glyph glyph-name="uni041A" unicode="&#x41a;" horiz-adv-x="685" 
d="M683 0h-186l-303 343v-343h-128v700h128v-310l264 310h176l-297 -324z" />
    <glyph glyph-name="uni041B" unicode="&#x41b;" horiz-adv-x="707" 
d="M641 700v-700h-128v580h-282v-405c0 -61.333 -13.667 -106.5 -41 -135.5s-69 -43.5 -125 -43.5h-52v122h39c34 0 51 21 51 63v519h538z" />
    <glyph glyph-name="uni041C" unicode="&#x41c;" horiz-adv-x="873" 
d="M696 700l174 -700h-135l-106 455h-2l-144 -351h-93l-144 351h-2l-107 -455h-134l174 700h100l158 -398h2l159 398h100z" />
    <glyph glyph-name="uni041D" unicode="&#x41d;" horiz-adv-x="720" 
d="M526 700h128v-700h-128v307h-332v-307h-128v700h128v-271h332v271z" />
    <glyph glyph-name="uni041E" unicode="&#x41e;" horiz-adv-x="791" 
d="M395 715c105.333 0 192.833 -34 262.5 -102s104.5 -155.667 104.5 -263s-34.833 -195 -104.5 -263s-157.167 -102 -262.5 -102s-192.666 34 -261.999 102s-104 155.667 -104 263s34.667 195 104 263s156.666 102 261.999 102zM395 584c-66 0 -120.167 -21.667 -162.5 -65
s-63.5 -99.666 -63.5 -168.999s21.167 -125.666 63.5 -168.999s96.5 -65 162.5 -65s120.167 21.667 162.5 65s63.5 99.666 63.5 168.999s-21.167 125.666 -63.5 168.999s-96.5 65 -162.5 65z" />
    <glyph glyph-name="uni041F" unicode="&#x41f;" horiz-adv-x="714" 
d="M649 700v-700h-128v580h-327v-580h-128v700h583z" />
    <glyph glyph-name="uni0420" unicode="&#x420;" horiz-adv-x="557" 
d="M310 700c76 0 134.333 -20.167 175 -60.5s61 -92.833 61 -157.5c0 -66.667 -20.333 -120.5 -61 -161.5s-99 -61.5 -175 -61.5h-116v-259h-128v700h244zM296 377c35.333 0 63 8.83301 83 26.5s30 43.5 30 77.5c0 33.333 -10 58.5 -30 75.5s-47.667 25.5 -83 25.5h-102
v-205h102z" />
    <glyph glyph-name="uni0421" unicode="&#x421;" horiz-adv-x="675" 
d="M407 -15c-111.333 0 -202.166 33.502 -272.499 100.502s-105.5 155.167 -105.5 264.5s35.167 197.5 105.5 264.5s161.166 100.5 272.499 100.5c93.333 0 176.666 -25.667 249.999 -77l-74 -112c-55.333 38.667 -114.333 58 -177 58
c-69.333 0 -126.166 -21.333 -170.499 -64s-66.5 -99.334 -66.5 -170.001s22.167 -127.334 66.5 -170.001s101.166 -64 170.499 -64c62.667 0 121.667 19.333 177 58l74 -112c-73.333 -51.333 -156.666 -77 -249.999 -77z" />
    <glyph glyph-name="uni0422" unicode="&#x422;" horiz-adv-x="526" 
d="M518 700v-120h-191v-580h-128v580h-191v120h510z" />
    <glyph glyph-name="uni0423" unicode="&#x423;" horiz-adv-x="653" 
d="M511 700h142l-330 -700h-143l85 179l-265 521h160l175 -373z" />
    <glyph glyph-name="uni0424" unicode="&#x424;" horiz-adv-x="838" 
d="M809 350c0 -97.333 -29.333 -173.833 -88 -229.5s-139 -84.167 -241 -85.5v-65h-122v65c-102 1.33301 -182.333 29.833 -241 85.5s-88 132.167 -88 229.5s29.333 173.666 88 228.999s139 83.666 241 84.999v65h122v-65c102 -1.33301 182.333 -29.666 241 -84.999
s88 -131.666 88 -228.999zM164 350c0 -63.333 16.833 -111.5 50.5 -144.5s82.834 -49.5 147.501 -49.5v388c-64.667 0 -113.834 -16.333 -147.501 -49s-50.5 -81 -50.5 -145zM476 156c64.667 0 113.834 16.5 147.501 49.5s50.5 81.167 50.5 144.5
c0 64 -16.833 112.333 -50.5 145s-82.834 49 -147.501 49v-388z" />
    <glyph glyph-name="uni0425" unicode="&#x425;" horiz-adv-x="668" 
d="M662 0h-158l-170 267l-170 -267h-158l247 371l-220 329h159l142 -224l143 224h158l-220 -329z" />
    <glyph glyph-name="uni0426" unicode="&#x426;" horiz-adv-x="717" 
d="M617 120h81v-260h-120v140h-512v700h128v-580h295v580h128v-580z" />
    <glyph glyph-name="uni0427" unicode="&#x427;" horiz-adv-x="604" 
d="M411 700h128v-700h-128v273h-192c-134 0 -201 66 -201 198v229h128v-221c0 -56.667 30 -85 90 -85h175v306z" />
    <glyph glyph-name="uni0428" unicode="&#x428;" horiz-adv-x="1030" 
d="M66 0v700h128v-580h257v580h128v-580h258v580h128v-700h-899z" />
    <glyph glyph-name="uni0429" unicode="&#x429;" horiz-adv-x="1065" 
d="M965 120h80v-260h-119v140h-860v700h128v-580h257v580h128v-580h258v580h128v-580z" />
    <glyph glyph-name="uni042A" unicode="&#x42a;" horiz-adv-x="716" 
d="M472 435c66 0 120.5 -18.333 163.5 -55s64.5 -91 64.5 -163c0 -71.333 -21.5 -125.333 -64.5 -162s-97.5 -55 -163.5 -55h-278v580h-186v120h314v-265h150zM456 118c34 0 60.667 8.66797 80 26.001s29 41.666 29 72.999c0 32 -9.5 56.667 -28.5 74s-45.833 26 -80.5 26
h-134v-199h134z" />
    <glyph glyph-name="uni042B" unicode="&#x42b;" horiz-adv-x="843" 
d="M344 435c66 0 120.5 -18.333 163.5 -55s64.5 -91 64.5 -163c0 -71.333 -21.5 -125.333 -64.5 -162s-97.5 -55 -163.5 -55h-278v700h128v-265h150zM648 700h129v-700h-129v700zM328 118c34 0 60.667 8.66797 80 26.001s29 41.666 29 72.999c0 32 -9.5 56.667 -28.5 74
s-45.833 26 -80.5 26h-134v-199h134z" />
    <glyph glyph-name="uni042C" unicode="&#x42c;" horiz-adv-x="588" 
d="M344 435c66 0 120.5 -18.333 163.5 -55s64.5 -91 64.5 -163c0 -71.333 -21.5 -125.333 -64.5 -162s-97.5 -55 -163.5 -55h-278v700h128v-265h150zM328 118c34 0 60.667 8.66797 80 26.001s29 41.666 29 72.999c0 32 -9.5 56.667 -28.5 74s-45.833 26 -80.5 26h-134v-199
h134z" />
    <glyph glyph-name="uni042D" unicode="&#x42d;" horiz-adv-x="669" 
d="M282 715c107.333 0 193.833 -32.333 259.5 -97s98.5 -154 98.5 -268s-32.833 -203.333 -98.5 -268s-152.167 -97 -259.5 -97c-96.667 0 -184.334 26.667 -263.001 80l68 112c61.333 -41.333 125.666 -62 192.999 -62c58.667 0 107.5 16 146.5 48s62.833 78 71.5 138h-289
v118h285c-11.333 53.333 -36 94.333 -74 123s-84.667 43 -140 43c-67.333 0 -131.666 -20.667 -192.999 -62l-68 112c78.667 53.333 166.334 80 263.001 80z" />
    <glyph glyph-name="uni042E" unicode="&#x42e;" horiz-adv-x="1038" 
d="M642 715c105.333 0 192.833 -34 262.5 -102s104.5 -155.667 104.5 -263s-34.833 -195 -104.5 -263s-157.167 -102 -262.5 -102c-94.667 0 -175.5 28 -242.5 84s-106.833 130 -119.5 222h-86v-291h-128v700h128v-291h86c12.667 92 52.5 166 119.5 222s147.833 84 242.5 84
zM642 116c66 0 120.167 21.667 162.5 65s63.5 99.666 63.5 168.999s-21.167 125.666 -63.5 168.999s-96.5 65 -162.5 65s-120.167 -21.667 -162.5 -65s-63.5 -99.666 -63.5 -168.999s21.167 -125.666 63.5 -168.999s96.5 -65 162.5 -65z" />
    <glyph glyph-name="uni042F" unicode="&#x42f;" horiz-adv-x="618" 
d="M284 700h268.998v-700h-128v278h-64l-187 -278h-158l199 286c-49.333 11.333 -87.666 35 -114.999 71s-41 79.667 -41 131c0 63.333 20.333 114.5 61 153.5s95.334 58.5 164.001 58.5zM303.998 392l120.999 -0.000976562v190h-121
c-35.333 0 -62.166 -8.66699 -80.499 -26s-27.5 -40.666 -27.5 -69.999c0 -62.667 36 -94 108 -94z" />
    <glyph glyph-name="uni0430" unicode="&#x430;" horiz-adv-x="578" 
d="M248 -15c-63.333 0 -116.166 22 -158.499 66s-63.5 104 -63.5 180s21.167 136 63.5 180s95.166 66 158.499 66c70.667 0 122 -26.667 154 -80h2v65h122v-462h-122v65h-2c-32 -53.333 -83.333 -80 -154 -80zM279 101c37.333 0 67.5 12 90.5 36s34.5 55.333 34.5 94
s-11.5 70 -34.5 94s-53.167 36 -90.5 36s-67.5 -12 -90.5 -36s-34.5 -55.333 -34.5 -94s11.5 -70 34.5 -94s53.167 -36 90.5 -36z" />
    <glyph glyph-name="uni0431" unicode="&#x431;" horiz-adv-x="572" 
d="M289 -15c-78 0 -141.334 24.833 -190.001 74.5s-73 128.167 -73 235.5c0 68 10 129 30 183s51.333 94 94 120c15.333 8.66699 33.666 16.834 54.999 24.501s49.333 16.167 84 25.5s52.334 14 53.001 14c30.667 9.33301 46.334 23.333 47.001 42h123
c0 -35.333 -7 -63.333 -21 -84s-36.667 -36 -68 -46c-8 -2.66699 -39.667 -10.834 -95 -24.501s-92.666 -25.5 -111.999 -35.5c-46.667 -25.333 -74.334 -79.333 -83.001 -162h3c16 38 40.333 67 73 87s70.667 30 114 30c66.667 0 120.5 -21.5 161.5 -64.5
s61.5 -100.167 61.5 -171.5c0 -74 -23.167 -133.833 -69.5 -179.5s-108.833 -68.5 -187.5 -68.5zM287.999 101c37.333 0 68.333 11.833 93 35.5s37 55.167 37 94.5s-12.333 70.833 -37 94.5s-55.667 35.5 -93 35.5c-36.667 0 -67.334 -11.833 -92.001 -35.5
s-37 -55.167 -37 -94.5s12.333 -70.833 37 -94.5s55.334 -35.5 92.001 -35.5z" />
    <glyph glyph-name="uni0432" unicode="&#x432;" horiz-adv-x="513" 
d="M384 243c66.667 -8.66699 100 -45.668 100 -111.001c0 -44 -15.167 -77 -45.5 -99s-67.5 -33 -111.5 -33h-273v462h273c44 0 78.833 -10.167 104.5 -30.5s38.5 -48.166 38.5 -83.499c0 -57.333 -28.667 -92 -86 -104v-1zM287 370.999h-111v-89h112
c36.667 0 55 15.333 55 46c0 28.667 -18.667 43 -56 43zM294 90.999c19.333 0 34.667 4.5 46 13.5s17 21.833 17 38.5c0 34 -19.333 51 -58 51h-123v-103h118z" />
    <glyph glyph-name="uni0433" unicode="&#x433;" horiz-adv-x="374" 
d="M369 462v-113h-193v-349h-122v462h315z" />
    <glyph glyph-name="uni0434" unicode="&#x434;" horiz-adv-x="551" 
d="M476 92h62v-222h-105v117h-326v-117h-105v222h60c23.333 40 35 86.333 35 139v231h379v-370zM219 226c0 -49.333 -10.333 -94 -31 -134h166v261h-135v-127z" />
    <glyph glyph-name="uni0435" unicode="&#x435;" horiz-adv-x="514" 
d="M266 477c70.667 0 125.666 -21.5 164.999 -64.5s59 -103.833 59 -182.5v-24h-345c3.33301 -35.333 16.833 -62.833 40.5 -82.5s53.5 -29.5 89.5 -29.5c50 0 96 21 138 63l62 -89c-60 -55.333 -126.667 -83 -200 -83c-75.333 0 -135.666 22.333 -180.999 67
s-68 104 -68 178s22 133.667 66 179s102 68 174 68zM259.999 378c-64.667 0 -102 -30.999 -112 -92.999h218c-2 29.333 -12.5 52.166 -31.5 68.499s-43.833 24.5 -74.5 24.5z" />
    <glyph glyph-name="uni0436" unicode="&#x436;" horiz-adv-x="793" 
d="M788 0h-160l-173 223v-223h-117v224l-173 -224h-160l207 251l-182 211h156l152 -195v195h117v-193l151 193h157l-182 -211z" />
    <glyph glyph-name="uni0437" unicode="&#x437;" horiz-adv-x="452" 
d="M211 -15c-76.667 0 -142.333 13.334 -197 40.001l41 97c53.333 -23.333 105 -35 155 -35c62.667 0 94 17.333 94 52c0 36 -28 54 -84 54h-94v92h91c46.667 0 70 15.333 70 46c0 30 -26.333 45 -79 45c-39.333 0 -88.333 -9.33301 -147 -28l-33 98
c69.333 20.667 133 31 191 31c129.333 0 194 -41 194 -123c0 -28.667 -9 -52.334 -27 -71.001s-43.333 -30.334 -76 -35.001v-3c36 -3.33301 64.333 -15.166 85 -35.499s31 -47.5 31 -81.5c0 -95.333 -71.667 -143 -215 -143z" />
    <glyph glyph-name="uni0438" unicode="&#x438;" horiz-adv-x="556" 
d="M54 0v462h122v-280h2l214 280h111v-462h-123v280h-2l-214 -280h-110z" />
    <glyph glyph-name="uni0439" unicode="&#x439;" horiz-adv-x="556" 
d="M432 646c0 -46 -13.998 -82.5 -41.998 -109.5s-64 -40.5 -108 -40.5s-79.833 13.5 -107.5 40.5s-41.5 63.5 -41.5 109.5h81c1.33301 -21.333 7.66602 -38.666 18.999 -51.999s27.666 -20 48.999 -20s37.833 6.66699 49.5 20s18.167 30.666 19.5 51.999h81zM54.002 0v462
h122v-280h2l214 280h111v-462h-123v280h-2l-214 -280h-110z" />
    <glyph glyph-name="uni043A" unicode="&#x43a;" horiz-adv-x="514" 
d="M509 0h-160l-173 221v-221h-122v462h122v-191l152 191h156l-189 -210z" />
    <glyph glyph-name="uni043B" unicode="&#x43b;" horiz-adv-x="546" 
d="M493 462l0.000976562 -462.001h-123v349h-165v-203c0 -49.333 -12.833 -86.666 -38.5 -111.999s-60.834 -38 -105.501 -38h-51v113h32c27.333 0 41 17 41 51v302h410z" />
    <glyph glyph-name="uni043C" unicode="&#x43c;" horiz-adv-x="680" 
d="M13 0l135 462h98l93 -225h2l93 225h98l135 -462h-121l-75 283h-2l-89 -216h-80l-89 216h-2l-75 -283h-121z" />
    <glyph glyph-name="uni043D" unicode="&#x43d;" horiz-adv-x="556" 
d="M379 462h123v-462h-123v184h-203v-184h-122v462h122v-166h203v166z" />
    <glyph glyph-name="uni043E" unicode="&#x43e;" horiz-adv-x="563" 
d="M282 477c74 0 135.167 -23 183.5 -69s72.5 -105 72.5 -177s-24.167 -131 -72.5 -177s-109.5 -69 -183.5 -69s-135.167 23 -183.5 69s-72.5 105 -72.5 177s24.167 131 72.5 177s109.5 69 183.5 69zM282 361c-38 0 -69.167 -11.833 -93.5 -35.5s-36.5 -55.167 -36.5 -94.5
s12.167 -70.833 36.5 -94.5s55.5 -35.5 93.5 -35.5s69 11.833 93 35.5s36 55.167 36 94.5s-12 70.833 -36 94.5s-55 35.5 -93 35.5z" />
    <glyph glyph-name="uni043F" unicode="&#x43f;" horiz-adv-x="546" 
d="M493 462v-462h-123v349h-194v-349h-122v462h439z" />
    <glyph glyph-name="uni0440" unicode="&#x440;" horiz-adv-x="580" 
d="M54 -200v662h122v-65h2c32 53.333 83.333 80 154 80c63.333 0 116.166 -22 158.499 -66s63.5 -104 63.5 -180s-21.167 -136 -63.5 -180s-95.166 -66 -158.499 -66c-70.667 0 -122 26.667 -154 80h-2v-265h-122zM301 101c37.333 0 67.5 12 90.5 36s34.5 55.333 34.5 94
s-11.5 70 -34.5 94s-53.167 36 -90.5 36s-67.5 -12 -90.5 -36s-34.5 -55.333 -34.5 -94s11.5 -70 34.5 -94s53.167 -36 90.5 -36z" />
    <glyph glyph-name="uni0441" unicode="&#x441;" horiz-adv-x="457" 
d="M281 -15c-75.333 0 -136.666 22.6689 -183.999 68.002s-71 104.666 -71 177.999s23.667 132.666 71 177.999s108.666 68 183.999 68c58.667 0 112.667 -15.333 162 -46l-53 -101c-34 21.333 -69.667 32 -107 32c-38 0 -69.333 -12.167 -94 -36.5s-37 -55.833 -37 -94.5
s12.333 -70.167 37 -94.5s56 -36.5 94 -36.5c37.333 0 73 10.667 107 32l53 -101c-49.333 -30.667 -103.333 -46 -162 -46z" />
    <glyph glyph-name="uni0442" unicode="&#x442;" horiz-adv-x="441" 
d="M436 462v-111h-154v-351h-123v351h-154v111h431z" />
    <glyph glyph-name="uni0443" unicode="&#x443;" horiz-adv-x="520" 
d="M386 462h129l-296 -662h-127l113 243l-200 419h144l117 -281z" />
    <glyph glyph-name="uni0444" unicode="&#x444;" horiz-adv-x="867" 
d="M374 -200v265h-2c-30 -53.333 -77.333 -80 -142 -80c-60 0 -108.167 21.667 -144.5 65s-54.5 103.666 -54.5 180.999s18.167 137.666 54.5 180.999s84.5 65 144.5 65c64.667 0 112 -26.667 142 -80h2v278h118v-278h2c30 53.333 77.667 80 143 80
c60 0 108.167 -21.667 144.5 -65s54.5 -103.666 54.5 -180.999s-18.167 -137.666 -54.5 -180.999s-84.5 -65 -144.5 -65c-65.333 0 -113 26.667 -143 80h-2v-265h-118zM268 94c35.333 0 62.666 12.333 81.999 37s29 58 29 100s-9.66699 75.333 -29 100
s-46.666 37 -81.999 37s-62 -12.167 -80 -36.5s-27 -57.833 -27 -100.5s9 -76.167 27 -100.5s44.667 -36.5 80 -36.5zM599 94c34.667 0 61.167 12.167 79.5 36.5s27.5 57.833 27.5 100.5s-9.16699 76.167 -27.5 100.5s-44.833 36.5 -79.5 36.5
c-35.333 0 -62.833 -12.333 -82.5 -37s-29.5 -58 -29.5 -100s9.83301 -75.333 29.5 -100s47.167 -37 82.5 -37z" />
    <glyph glyph-name="uni0445" unicode="&#x445;" horiz-adv-x="527" 
d="M373 0l-110 156l-110 -156h-148l184 243l-162 219h149l87 -134l88 134h149l-162 -219l184 -243h-149z" />
    <glyph glyph-name="uni0446" unicode="&#x446;" horiz-adv-x="557" 
d="M484 113h60v-243h-113v130h-377v462h122v-349h185v349h123v-349z" />
    <glyph glyph-name="uni0447" unicode="&#x447;" horiz-adv-x="482" 
d="M306 462h122v-462h-122v163h-137c-104 0 -156 49.667 -156 149v150h123v-138c0 -18.667 4.33301 -32.167 13 -40.5s23 -12.5 43 -12.5h114v191z" />
    <glyph glyph-name="uni0448" unicode="&#x448;" horiz-adv-x="819" 
d="M643 462h123v-462h-712v462h122v-349h172v349h123v-349h172v349z" />
    <glyph glyph-name="uni0449" unicode="&#x449;" horiz-adv-x="838" 
d="M766 113h59v-243h-113v130h-658v462h122v-349h172v349h123v-349h172v349h123v-349z" />
    <glyph glyph-name="uni044A" unicode="&#x44a;" horiz-adv-x="579" 
d="M391 315c53.333 0 95.333 -13.667 126 -41s46 -66 46 -116c0 -48.667 -15.5 -87.167 -46.5 -115.5s-72.833 -42.5 -125.5 -42.5h-234v349h-152v113h274v-147h112zM371 101c44 0 66 18.667 66 56c0 38 -22 57 -66 57h-92v-113h92z" />
    <glyph glyph-name="uni044B" unicode="&#x44b;" horiz-adv-x="680" 
d="M288 315c53.333 0 95.333 -13.667 126 -41s46 -66 46 -116c0 -48.667 -15.5 -87.167 -46.5 -115.5s-72.833 -42.5 -125.5 -42.5h-234v462h122v-147h112zM503 462h123v-462h-123v462zM268 101c44 0 66 18.667 66 56c0 38 -22 57 -66 57h-92v-113h92z" />
    <glyph glyph-name="uni044C" unicode="&#x44c;" horiz-adv-x="476" 
d="M288 315c53.333 0 95.333 -13.667 126 -41s46 -66 46 -116c0 -48.667 -15.5 -87.167 -46.5 -115.5s-72.833 -42.5 -125.5 -42.5h-234v462h122v-147h112zM268 101c44 0 66 18.667 66 56c0 38 -22 57 -66 57h-92v-113h92z" />
    <glyph glyph-name="uni044D" unicode="&#x44d;" horiz-adv-x="456" 
d="M185 477c74 0 132.5 -21.3311 175.5 -63.998s64.5 -103.334 64.5 -182.001s-21.5 -139.334 -64.5 -182.001s-101.5 -64 -175.5 -64c-63.333 0 -120.333 15 -171 45l52 103c38 -21.333 76 -32 114 -32c65.333 0 104.666 29 117.999 87h-156v86h156
c-13.333 58 -52.666 87 -117.999 87c-38 0 -76 -10.667 -114 -32l-52 103c52.667 30 109.667 45 171 45z" />
    <glyph glyph-name="uni044E" unicode="&#x44e;" horiz-adv-x="776" 
d="M494 477c74 0 135.167 -23.001 183.5 -69.001s72.5 -105 72.5 -177s-24.167 -131 -72.5 -177s-109.5 -69 -183.5 -69c-64.667 0 -119.834 17.833 -165.501 53.5s-74.167 82.834 -85.5 141.501h-67v-180h-123v462h123v-179h67c11.333 58.667 39.833 105.667 85.5 141
s100.834 53 165.501 53zM494 100.999c38 0 69 11.833 93 35.5s36 55.167 36 94.5s-12 70.833 -36 94.5s-55 35.5 -93 35.5s-69.167 -11.833 -93.5 -35.5s-36.5 -55.167 -36.5 -94.5s12.167 -70.833 36.5 -94.5s55.5 -35.5 93.5 -35.5z" />
    <glyph glyph-name="uni044F" unicode="&#x44f;" horiz-adv-x="516" 
d="M202 462h260v-462h-123v158h-48l-125 -158h-151l135 164c-36 8.66699 -64 26 -84 52s-30 57 -30 93c0 46 15 83 45 111s70.333 42 121 42zM239 252h100v108h-100c-45.333 0 -68 -18 -68 -54s22.667 -54 68 -54z" />
    <glyph glyph-name="uni0451" unicode="&#x451;" horiz-adv-x="514" 
d="M234 644v-127h-104v127h104zM403 644v-127h-104v127h104zM266 477c70.667 0 125.666 -21.5 164.999 -64.5s59 -103.833 59 -182.5v-24h-345c3.33301 -35.333 16.833 -62.833 40.5 -82.5s53.5 -29.5 89.5 -29.5c50 0 96 21 138 63l62 -89
c-60 -55.333 -126.667 -83 -200 -83c-75.333 0 -135.666 22.333 -180.999 67s-68 104 -68 178s22 133.667 66 179s102 68 174 68zM259.999 378c-64.667 0 -102 -30.999 -112 -92.999h218c-2 29.333 -12.5 52.166 -31.5 68.499s-43.833 24.5 -74.5 24.5z" />
    <glyph glyph-name="uni0452" unicode="&#x452;" horiz-adv-x="554" 
d="M331 477c52.667 0 94.833 -15.832 126.5 -47.499s47.5 -79.834 47.5 -144.501v-329c0 -104 -49.333 -156 -148 -156h-64v112h42c31.333 0 47 16.667 47 50v294c0 71.333 -32 107 -96 107c-71.333 0 -107 -45.667 -107 -137v-226h-123v556h-65v73h65v71h123v-71h137v-73
h-137v-160h2c34 54 84 81 150 81z" />
    <glyph glyph-name="uni0453" unicode="&#x453;" horiz-adv-x="374" 
d="M421 657l-153 -154h-96l104 154h145zM369 462v-113h-193v-349h-122v462h315z" />
    <glyph glyph-name="uni0454" unicode="&#x454;" horiz-adv-x="456" 
d="M276 101c38 0 76 10.665 114 31.998l52 -103c-50.667 -30 -107.667 -45 -171 -45c-74 0 -132.5 21.333 -175.5 64s-64.5 103.334 -64.5 182.001s21.5 139.334 64.5 182.001s101.5 64 175.5 64c61.333 0 118.333 -15 171 -45l-52 -103c-38 21.333 -76 32 -114 32
c-65.333 0 -104.666 -29 -117.999 -87h156v-86h-156c13.333 -58 52.666 -87 117.999 -87z" />
    <glyph glyph-name="uni0455" unicode="&#x455;" horiz-adv-x="418" 
d="M211 -15c-73.333 0 -139.334 16.334 -198.001 49.001l50 104c54.667 -32 106.334 -48 155.001 -48c38 0 57 11 57 33c0 8.66699 -3 15.667 -9 21s-16.333 11.666 -31 18.999l-83 36c-69.333 30.667 -104 76.667 -104 138c0 45.333 15.333 80 46 104s75 36 133 36
c52 0 106.667 -10.667 164 -32l-41 -103c-50 21.333 -93.333 32 -130 32c-31.333 0 -47 -9.33301 -47 -28c0 -8.66699 3.16699 -16 9.5 -22s17.833 -12.667 34.5 -20l83 -36c68 -28 102 -73 102 -135c0 -49.333 -17 -86.333 -51 -111s-80.667 -37 -140 -37z" />
    <glyph glyph-name="uni0456" unicode="&#x456;" horiz-adv-x="236" 
d="M188 694v-135h-140v135h140zM56 0v462h123v-462h-123z" />
    <glyph glyph-name="uni0457" unicode="&#x457;" horiz-adv-x="236" 
d="M102 644v-127h-104v127h104zM237 644v-127h-104v127h104zM56 0v462h123v-462h-123z" />
    <glyph glyph-name="uni0458" unicode="&#x458;" horiz-adv-x="236" 
d="M188 694v-135h-140v135h140zM-21 -90h21c20 0 34.333 4.83301 43 14.5s13 25.167 13 46.5v491h123v-496c0 -112.667 -53.333 -169 -160 -169h-40v113z" />
    <glyph glyph-name="uni0459" unicode="&#x459;" horiz-adv-x="764" 
d="M576 315c53.333 0 95.333 -13.667 126 -41s46 -66 46 -116c0 -48.667 -15.5 -87.167 -46.5 -115.5s-73.167 -42.5 -126.5 -42.5h-228v349h-154v-204c0 -48.667 -13 -85.667 -39 -111s-61 -38 -105 -38h-39v113h19c27.333 0 41 17 41 51v302h400v-147h106zM556 100
c44 0 66 19 66 57s-22 57 -66 57h-86v-114h86z" />
    <glyph glyph-name="uni045A" unicode="&#x45a;" horiz-adv-x="786" 
d="M598 312c53.333 0 95.333 -13.5 126 -40.5s46 -65.5 46 -115.5c0 -48 -15.5 -86 -46.5 -114s-72.833 -42 -125.5 -42h-229v208h-193v-208h-122v462h122v-150h193v150h123v-150h106zM578 101c44.667 0 67 18 67 54c0 35.333 -22.333 53 -67 53h-86v-107h86z" />
    <glyph glyph-name="uni045B" unicode="&#x45b;" horiz-adv-x="554" 
d="M331 477c52.667 0 94.833 -15.832 126.5 -47.499s47.5 -79.834 47.5 -144.501v-285h-123v256c0 71.333 -32 107 -96 107c-71.333 0 -107 -45.667 -107 -137v-226h-123v556h-65v73h65v71h123v-71h137v-73h-137v-160h2c34 54 84 81 150 81z" />
    <glyph glyph-name="uni045C" unicode="&#x45c;" horiz-adv-x="514" 
d="M451 657l-153 -154h-96l104 154h145zM509 0h-160l-173 221v-221h-122v462h122v-191l152 191h156l-189 -210z" />
    <glyph glyph-name="uni045E" unicode="&#x45e;" horiz-adv-x="520" 
d="M266 496c-44 0 -79.8311 13.5 -107.498 40.5s-41.5 63.5 -41.5 109.5h81c1.33301 -21.333 7.66602 -38.666 18.999 -51.999s27.666 -20 48.999 -20s37.833 6.66699 49.5 20s18.167 30.666 19.5 51.999h81c0 -46 -14 -82.5 -42 -109.5s-64 -40.5 -108 -40.5zM386.002 462
h129l-296 -662h-127l113 243l-200 419h144l117 -281z" />
    <glyph glyph-name="uni045F" unicode="&#x45f;" horiz-adv-x="544" 
d="M368 462h123v-462h-164v-130h-110v130h-163v462h122v-352h192v352z" />
    <glyph glyph-name="uni0462" unicode="&#x462;" horiz-adv-x="644" 
d="M400 435c66 0 120.5 -18.333 163.5 -55s64.5 -91 64.5 -163c0 -71.333 -21.5 -125.333 -64.5 -162s-97.5 -55 -163.5 -55h-278v514h-114v104h114v82h128v-82h206v-104h-206v-79h150zM384 118c34 0 60.667 8.66797 80 26.001s29 41.666 29 72.999
c0 32 -9.5 56.667 -28.5 74s-45.833 26 -80.5 26h-134v-199h134z" />
    <glyph glyph-name="uni0463" unicode="&#x463;" horiz-adv-x="509" 
d="M317 315c54 0 96.833 -13.667 128.5 -41s47.5 -66 47.5 -116c0 -48.667 -16 -87.167 -48 -115.5s-75 -42.5 -129 -42.5h-234v384h-91v78h91v238h123v-238h141v-78h-141v-69h112zM297 104c43.333 0 65 17.667 65 53c0 36 -21.667 54 -65 54h-92v-107h92z" />
    <glyph glyph-name="uni0472" unicode="&#x472;" horiz-adv-x="791" 
d="M395 715c105.333 0 192.833 -34 262.5 -102s104.5 -155.667 104.5 -263s-34.833 -195 -104.5 -263s-157.167 -102 -262.5 -102s-192.666 34 -261.999 102s-104 155.667 -104 263s34.667 195 104 263s156.666 102 261.999 102zM395 586
c-61.333 0 -113.333 -18.333 -156 -55s-67.667 -85.334 -75 -146.001h463c-7.33301 60.667 -32.333 109.334 -75 146.001s-95 55 -157 55zM395 114c62 0 114.333 18.333 157 55s67.667 85.334 75 146.001h-463c7.33301 -60.667 32.333 -109.334 75 -146.001
s94.667 -55 156 -55z" />
    <glyph glyph-name="uni0473" unicode="&#x473;" horiz-adv-x="563" 
d="M282 477c74 0 135.167 -23 183.5 -69s72.5 -105 72.5 -177s-24.167 -131 -72.5 -177s-109.5 -69 -183.5 -69s-135.167 23 -183.5 69s-72.5 105 -72.5 177s24.167 131 72.5 177s109.5 69 183.5 69zM282 368c-35.333 0 -65 -9.66699 -89 -29s-39 -45.333 -45 -78h268
c-6 32.667 -21.167 58.667 -45.5 78s-53.833 29 -88.5 29zM282 94c34.667 0 64.167 9.66699 88.5 29s39.5 45.333 45.5 78h-268c6 -32.667 21 -58.667 45 -78s53.667 -29 89 -29z" />
    <glyph glyph-name="uni0474" unicode="&#x474;" horiz-adv-x="691" 
d="M581 536l-193.999 -536.001h-129l-255 700h150l168 -522h2l132 399c16 48 36.833 82.667 62.5 104s64.167 32 115.5 32c8.66699 0 27 -1.33301 55 -4v-118c-10 1.33301 -23 2 -39 2c-16.667 0 -30.334 -4.16699 -41.001 -12.5s-19.667 -23.166 -27 -44.499z" />
    <glyph glyph-name="uni0475" unicode="&#x475;" horiz-adv-x="506" 
d="M491 471h10v-116h-8c-26 0 -44.333 -14.333 -55 -43l-125 -312h-120l-188 462h137l111 -321l81 233c12 36 30.167 61.167 54.5 75.5s58.5 21.5 102.5 21.5z" />
    <glyph glyph-name="uni048A" unicode="&#x48a;" horiz-adv-x="734" 
d="M364 723c-46 0 -81.8311 12.333 -107.498 37s-39.5 59 -41.5 103h84c0 -22.667 5.5 -40.334 16.5 -53.001s27.167 -19 48.5 -19s37.666 6.33301 48.999 19s16.666 30.334 15.999 53.001h85c-2 -44 -16 -78.333 -42 -103s-62 -37 -108 -37zM654.002 79h75l-94 -209h-101
l53 130h-61v487h-1l-340 -487h-119v700h128v-488h1l340 488h119v-621z" />
    <glyph glyph-name="uni048B" unicode="&#x48b;" horiz-adv-x="568" 
d="M282 496c-44 0 -79.8311 13.5 -107.498 40.5s-41.5 63.5 -41.5 109.5h81c1.33301 -21.333 7.66602 -38.666 18.999 -51.999s27.666 -20 48.999 -20s37.833 6.66699 49.5 20s18.167 30.666 19.5 51.999h81c0 -46 -14 -82.5 -42 -109.5s-64 -40.5 -108 -40.5zM503.002 79
h75l-94 -209h-101l53 130h-56v280h-2l-214 -280h-110v462h122v-280h2l214 280h111v-383z" />
    <glyph glyph-name="uni048E" unicode="&#x48e;" horiz-adv-x="557" 
d="M546 482c0 -85.333 -31 -147.667 -93 -187l54 -77l-44 -31l-60 85c-29.333 -8.66699 -60.333 -13 -93 -13h-116v-259h-128v700h244c76 0 134.333 -20.167 175 -60.5s61 -92.833 61 -157.5zM296 376.999c12 0 22.333 1 31 3l-52 74l44 31l58 -83
c21.333 18 32 44.333 32 79c0 33.333 -10 58.5 -30 75.5s-47.667 25.5 -83 25.5h-102v-205h102z" />
    <glyph glyph-name="uni048F" unicode="&#x48f;" horiz-adv-x="580" 
d="M554 231c0 -88 -28.332 -154.667 -84.999 -200l51 -63l-38 -32l-56 69c-30 -13.333 -61.333 -20 -94 -20c-70.667 0 -122 26.667 -154 80h-2v-265h-122v662h122v-65h2c32 53.333 83.333 80 154 80c63.333 0 116.166 -22 158.499 -66s63.5 -104 63.5 -180zM301.001 101
c14 0 27.667 2 41 6l-49 60l38 32l55 -67c26.667 24.667 40 57.667 40 99c0 38.667 -11.5 70 -34.5 94s-53.167 36 -90.5 36s-67.5 -12 -90.5 -36s-34.5 -55.333 -34.5 -94s11.5 -70 34.5 -94s53.167 -36 90.5 -36z" />
    <glyph glyph-name="uni0490" unicode="&#x490;" horiz-adv-x="503" 
d="M367 840h128v-261h-301v-579h-128v700h301v140z" />
    <glyph glyph-name="uni0491" unicode="&#x491;" horiz-adv-x="398" 
d="M284 557h109v-205h-217v-352h-122v462h230v95z" />
    <glyph glyph-name="uni0492" unicode="&#x492;" horiz-adv-x="508" 
d="M500 580h-282v-181h193v-112h-193v-287h-128v287h-82v112h82v301h410v-120z" />
    <glyph glyph-name="uni0493" unicode="&#x493;" horiz-adv-x="410" 
d="M405 349h-193v-87h136v-100h-136v-162h-122v162h-77v100h77v200h315v-113z" />
    <glyph glyph-name="uni0494" unicode="&#x494;" horiz-adv-x="609" 
d="M388 404c68.667 0 119.666 -14.499 152.999 -43.499s50 -74.5 50 -136.5v-228c0 -64.667 -16.667 -113.5 -50 -146.5s-80.666 -49.5 -141.999 -49.5h-73v120h61c24.667 0 43.5 6.66699 56.5 20s19.5 36.666 19.5 69.999v202c0 24.667 -7.83301 42.667 -23.5 54
s-41.167 17 -76.5 17c-52 0 -108.333 -2.66699 -169 -8v-275h-128v700h410v-120h-282v-185c72 6 136.667 9 194 9z" />
    <glyph glyph-name="uni0495" unicode="&#x495;" horiz-adv-x="507" 
d="M309 254c114.667 0 172 -52.667 172 -158v-111c0 -123.333 -59.667 -185 -179 -185h-60v113h49c44.667 0 67 24.667 67 74v97c0 42.667 -23.667 64 -71 64c-28 0 -65 -2.66699 -111 -8v-140h-122v462h355v-113h-233v-103c46 5.33301 90.333 8 133 8z" />
    <glyph glyph-name="uni0496" unicode="&#x496;" horiz-adv-x="1059" 
d="M978 89h76v-229h-119v140h-62l-283 352v-352h-123v352l-284 -352h-180l316 370l-266 330h171l243 -321v321h123v-321l241 321h173l-266 -330z" />
    <glyph glyph-name="uni0497" unicode="&#x497;" horiz-adv-x="808" 
d="M733 67h63v-197h-105v130h-63l-173 223v-223h-117v224l-173 -224h-160l207 251l-182 211h156l152 -195v195h117v-193l151 193h157l-182 -211z" />
    <glyph glyph-name="uni0498" unicode="&#x498;" horiz-adv-x="588" 
d="M554 191c0 -56.667 -18.8311 -103.334 -56.498 -140.001s-96.5 -58 -176.5 -64l-9 -24c52 -10.667 78 -33 78 -67c0 -8.66699 -1.5 -16.5 -4.5 -23.5s-8.5 -13.833 -16.5 -20.5l-21 -17c-6 -4.66699 -16.5 -10.334 -31.5 -17.001s-26.333 -11.5 -34 -14.5l-40.5 -15.5
l-14 32l34.5 16.5c6.33301 3 14.166 7.33301 23.499 13s15.666 10.5 18.999 14.5s5 8.33301 5 13c0 10 -4.5 17.333 -13.5 22s-24.833 9.66699 -47.5 15l26 71c-96 0 -181.333 21.667 -256 65l57 114c68.667 -38.667 136.334 -58 203.001 -58
c46.667 0 82.667 8.33301 108 25s38 40.334 38 71.001c0 68.667 -64.667 103 -194 103h-67v118h67c53.333 0 94.333 8 123 24s43 39 43 69c0 52 -40.333 78 -121 78c-62 0 -127 -17.333 -195 -52l-51 115c84 38.667 169 58 255 58c78 0 138 -15.167 180 -45.5
s63 -73.833 63 -130.5c0 -43.333 -12.833 -79.166 -38.5 -107.499s-62.834 -47.833 -111.501 -58.5v-2c117.333 -15.333 176 -75.333 176 -180z" />
    <glyph glyph-name="uni0499" unicode="&#x499;" horiz-adv-x="452" 
d="M426 128c0 -88.667 -62.665 -135.997 -187.998 -141.997l-9 -23c52 -10.667 78 -33 78 -67c0 -8.66699 -1.5 -16.5 -4.5 -23.5s-8.5 -13.833 -16.5 -20.5l-21 -17c-6 -4.66699 -16.5 -10.334 -31.5 -17.001s-26.333 -11.5 -34 -14.5l-40.5 -15.5l-14 32l34.5 16.5
c6.33301 3 14.166 7.33301 23.499 13s15.666 10.5 18.999 14.5s5 8.33301 5 13c0 10 -4.5 17.333 -13.5 22s-24.833 9.66699 -47.5 15l26 71c-72 3.33301 -131.333 16.666 -178 39.999l41 97c53.333 -23.333 105 -35 155 -35c62.667 0 94 17.333 94 52c0 36 -28 54 -84 54
h-94v92h91c46.667 0 70 15.333 70 46c0 30 -26.333 45 -79 45c-39.333 0 -88.333 -9.33301 -147 -28l-33 98c69.333 20.667 133 31 191 31c129.333 0 194 -41 194 -123c0 -28.667 -9 -52.334 -27 -71.001s-43.333 -30.334 -76 -35.001v-3
c36 -3.33301 64.333 -15.166 85 -35.499s31 -47.5 31 -81.5z" />
    <glyph glyph-name="uni049A" unicode="&#x49a;" horiz-adv-x="688" 
d="M683 0h-1v-140h-119v140h-66l-303 343v-343h-128v700h128v-310l264 310h176l-297 -324l264 -287h81v-88z" />
    <glyph glyph-name="uni049B" unicode="&#x49b;" horiz-adv-x="529" 
d="M452 67h65v-197h-105v130h-63l-173 221v-221h-122v462h122v-191l152 191h156l-189 -210z" />
    <glyph glyph-name="uni049C" unicode="&#x49c;" horiz-adv-x="765" 
d="M579 0l-250 314h-35v-126h-46v126h-54v-314h-128v700h128v-267h54v138h46v-138h43l194 267h170l-258 -324l320 -376h-184z" />
    <glyph glyph-name="uni049D" unicode="&#x49d;" horiz-adv-x="547" 
d="M387 0l-137 204h-16v-106h-28v106h-30v-204h-122v462h122v-170h30v105h28v-105h16l125 170h152l-174 -210l189 -252h-155z" />
    <glyph glyph-name="uni049E" unicode="&#x49e;" horiz-adv-x="725" 
d="M723 0h-186l-303 343v-343h-128v553h-98v84h98v63h128v-63h111v-84h-111v-163l264 310h176l-297 -324z" />
    <glyph glyph-name="uni049F" unicode="&#x49f;" horiz-adv-x="517" 
d="M512 0h-160l-173 221v-221h-123v556h-65v73h65v71h123v-71h137v-73h-137v-285l152 191h156l-189 -210z" />
    <glyph glyph-name="uni04A0" unicode="&#x4a0;" horiz-adv-x="817" 
d="M815 0h-186l-303 343v-343h-128v580h-190v120h318v-310l264 310h176l-297 -324z" />
    <glyph glyph-name="uni04A1" unicode="&#x4a1;" horiz-adv-x="617" 
d="M612 0h-160l-173 221v-221h-122v349h-152v113h274v-191l152 191h156l-189 -210z" />
    <glyph glyph-name="uni04A2" unicode="&#x4a2;" horiz-adv-x="711" 
d="M654 89h52v-229h-119v140h-61v307h-332v-307h-128v700h128v-271h332v271h128v-611z" />
    <glyph glyph-name="uni04A3" unicode="&#x4a3;" horiz-adv-x="574" 
d="M502 67h60v-197h-105v130h-78v184h-203v-184h-122v462h122v-166h203v166h123v-395z" />
    <glyph glyph-name="uni04A4" unicode="&#x4a4;" horiz-adv-x="924" 
d="M916 700v-120h-282v-580h-128v307h-312v-307h-128v700h128v-271h312v271h410z" />
    <glyph glyph-name="uni04A5" unicode="&#x4a5;" horiz-adv-x="680" 
d="M675 462v-113h-189v-349h-122v184h-188v-184h-122v462h122v-166h188v166h311z" />
    <glyph glyph-name="uni04A6" unicode="&#x4a6;" horiz-adv-x="1059" 
d="M838 435c68.667 0 119.834 -14.333 153.501 -43s50.5 -74 50.5 -136v-65c0 -127.333 -65.667 -191 -197 -191h-70v118h56c28 0 48.833 6.16699 62.5 18.5s20.5 33.5 20.5 63.5v44c0 48.667 -33.667 73 -101 73c-50.667 0 -105.334 -2.66699 -164.001 -8v-309h-128v580
h-327v-580h-128v700h583v-273c62.667 5.33301 125.667 8 189 8z" />
    <glyph glyph-name="uni04A7" unicode="&#x4a7;" horiz-adv-x="824" 
d="M626 293c58.667 0 102.168 -12.832 130.501 -38.499s42.5 -65.834 42.5 -120.501v-147c0 -124.667 -56 -187 -168 -187h-59v113h48c37.333 0 56 25.333 56 76v133c0 22.667 -5.66699 39 -17 49s-29.333 15 -54 15c-36.667 0 -74 -2.66699 -112 -8v-178h-123v349h-194
v-349h-122v462h439v-178c51.333 6 95.666 9 132.999 9z" />
    <glyph glyph-name="uni04A8" unicode="&#x4a8;" horiz-adv-x="811" 
d="M803 19c-52.667 -22.667 -103.335 -34 -152.002 -34c-52 0 -96.667 9.33301 -134 28c-35.333 -18.667 -80.333 -28 -135 -28c-105.333 0 -188.833 33.5 -250.5 100.5s-92.5 155.5 -92.5 265.5c0 114.667 34.167 204 102.5 268s160.5 96 276.5 96
c33.333 0 69 -4.33301 107 -13l-32 -118c-21.333 5.33301 -45.666 8 -72.999 8c-73.333 0 -131.833 -21.333 -175.5 -64s-65.5 -103.667 -65.5 -183c0 -75.333 19.5 -136.333 58.5 -183s92.5 -70 160.5 -70h5c-53.333 55.333 -80 125.333 -80 210
c0 70 19.333 124.667 58 164s88.334 59 149.001 59c59.333 0 107 -19 143 -57s54 -89.667 54 -155c0 -89.333 -30.333 -163.333 -91 -222c4 -0.666992 10.333 -1 19 -1c33.333 0 70 9 110 27zM450.999 293c0 -71.333 24.667 -125.666 74 -162.999
c54 39.333 81 95.666 81 168.999c0 69.333 -25.333 104 -76 104c-52.667 0 -79 -36.667 -79 -110z" />
    <glyph glyph-name="uni04A9" unicode="&#x4a9;" horiz-adv-x="585" 
d="M552 86l27.998 -79c-33.333 -14.667 -66.333 -22 -99 -22c-38.667 0 -70.667 8.33301 -96 25c-25.333 -16.667 -60.666 -25 -105.999 -25c-78 0 -139.667 22 -185 66s-68 105 -68 183c0 81.333 24.667 142.166 74 182.499s115.333 60.5 198 60.5
c34.667 0 67.334 -3 98.001 -9l-23 -101c-20 4 -41.333 6 -64 6c-48 0 -86.333 -11.333 -115 -34s-43 -58.667 -43 -108c0 -40.667 9.83301 -74.5 29.5 -101.5s47.5 -43.833 83.5 -50.5c-22.667 29.333 -34 65.333 -34 108c0 48.667 15 85.834 45 111.501s68 38.5 114 38.5
c45.333 0 81.5 -12 108.5 -36s40.5 -59.333 40.5 -106c0 -48.667 -17.333 -91 -52 -127c22 2 44 8 66 18zM387.998 246c-16 0 -28.833 -5.83301 -38.5 -17.5s-14.5 -28.5 -14.5 -50.5c0 -37.333 13.667 -66 41 -86c42 19.333 63 49.666 63 90.999
c0 18.667 -4.5 33.834 -13.5 45.501s-21.5 17.5 -37.5 17.5z" />
    <glyph glyph-name="uni04AA" unicode="&#x4aa;" horiz-adv-x="675" 
d="M657 62c-72 -49.333 -151.33 -74.9971 -237.997 -76.9971l-9 -22c52 -10.667 78 -33 78 -67c0 -8.66699 -1.5 -16.5 -4.5 -23.5s-8.5 -13.833 -16.5 -20.5l-21 -17c-6 -4.66699 -16.5 -10.334 -31.5 -17.001s-26.333 -11.5 -34 -14.5l-40.5 -15.5l-14 32l34.5 16.5
c6.33301 3 14.166 7.33301 23.499 13s15.666 10.5 18.999 14.5s5 8.33301 5 13c0 10 -4.5 17.333 -13.5 22s-24.833 9.66699 -47.5 15l27 72c-103.333 7.33301 -186.666 43.833 -249.999 109.5s-95 150.5 -95 254.5c0 109.333 35.167 197.5 105.5 264.5
s161.166 100.5 272.499 100.5c93.333 0 176.666 -25.667 249.999 -77l-74 -112c-55.333 38.667 -114.333 58 -177 58c-69.333 0 -126.166 -21.333 -170.499 -64s-66.5 -99.334 -66.5 -170.001s22.167 -127.334 66.5 -170.001s101.166 -64 170.499 -64
c62.667 0 121.667 19.333 177 58z" />
    <glyph glyph-name="uni04AB" unicode="&#x4ab;" horiz-adv-x="457" 
d="M443 31c-47.333 -30 -98.3301 -45.3311 -152.997 -45.998l-9 -22c52 -10.667 78 -33 78 -67c0 -8.66699 -1.5 -16.5 -4.5 -23.5s-8.5 -13.833 -16.5 -20.5l-21 -17c-6 -4.66699 -16.5 -10.334 -31.5 -17.001s-26.333 -11.5 -34 -14.5l-40.5 -15.5l-14 32l34.5 16.5
c6.33301 3 14.166 7.33301 23.499 13s15.666 10.5 18.999 14.5s5 8.33301 5 13c0 10 -4.5 17.333 -13.5 22s-24.833 9.66699 -47.5 15l27 73c-66 7.33301 -119 33 -159 77s-60 99.667 -60 167c0 73.333 23.667 132.666 71 177.999s108.666 68 183.999 68
c58.667 0 112.667 -15.333 162 -46l-53 -101c-34 21.333 -69.667 32 -107 32c-38 0 -69.333 -12.167 -94 -36.5s-37 -55.833 -37 -94.5s12.333 -70.167 37 -94.5s56 -36.5 94 -36.5c37.333 0 73 10.667 107 32z" />
    <glyph glyph-name="uni04AC" unicode="&#x4ac;" horiz-adv-x="526" 
d="M518 580h-191v-491h79v-229h-119v140h-88v580h-191v120h510v-120z" />
    <glyph glyph-name="uni04AD" unicode="&#x4ad;" horiz-adv-x="441" 
d="M436 351h-154v-284h60v-197h-105v130h-78v351h-154v111h431v-111z" />
    <glyph glyph-name="uni04AE" unicode="&#x4ae;" horiz-adv-x="597" 
d="M597 700l-234 -431v-269h-129v267l-234 433h151l146 -301h3l146 301h151z" />
    <glyph glyph-name="uni04AF" unicode="&#x4af;" horiz-adv-x="506" 
d="M501 462l-186 -457v-205h-123v202l-187 460h137l112 -320l111 320h136z" />
    <glyph glyph-name="uni04B0" unicode="&#x4b0;" horiz-adv-x="597" 
d="M597 700l-226 -416h120v-101h-128v-183h-129v183h-128v100h119l-225 417h151l146 -301h3l146 301h151z" />
    <glyph glyph-name="uni04B1" unicode="&#x4b1;" horiz-adv-x="506" 
d="M501 462l-186 -457h119v-94h-119v-111h-123v111h-120v94h119l-186 457h137l112 -320l111 320h136z" />
    <glyph glyph-name="uni04B2" unicode="&#x4b2;" horiz-adv-x="700" 
d="M603 89h93v-229h-119v140h-73l-170 267l-170 -267h-158l247 371l-220 329h159l142 -224l143 224h158l-220 -329z" />
    <glyph glyph-name="uni04B3" unicode="&#x4b3;" horiz-adv-x="540" 
d="M471 67h70v-197h-105v130h-63l-110 156l-110 -156h-148l184 243l-162 219h149l87 -134l88 134h149l-162 -219z" />
    <glyph glyph-name="uni04B4" unicode="&#x4b4;" horiz-adv-x="856" 
d="M756 120h81v-260h-120v140h-512v580h-197v120h493v-120h-168v-460h295v580h128v-580z" />
    <glyph glyph-name="uni04B5" unicode="&#x4b5;" horiz-adv-x="664" 
d="M591 113h60v-243h-113v130h-377v349h-156v113h397v-113h-119v-236h185v349h123v-349z" />
    <glyph glyph-name="uni04B6" unicode="&#x4b6;" horiz-adv-x="623" 
d="M539 89h79v-229h-119v140h-88v273h-192c-134 0 -201 66 -201 198v229h128v-221c0 -56.667 30 -85 90 -85h175v306h128v-611z" />
    <glyph glyph-name="uni04B7" unicode="&#x4b7;" horiz-adv-x="505" 
d="M428 67h64v-197h-105v130h-81v163h-137c-104 0 -156 49.667 -156 149v150h123v-138c0 -18.667 4.33301 -32.167 13 -40.5s23 -12.5 43 -12.5h114v191h122v-395z" />
    <glyph glyph-name="uni04B8" unicode="&#x4b8;" horiz-adv-x="604" 
d="M411 700h128v-700h-128v273h-95v-131h-54v131h-43c-134 0 -201 66 -201 198v229h128v-221c0 -56.667 30 -85 90 -85h26v132h54v-132h95v306z" />
    <glyph glyph-name="uni04B9" unicode="&#x4b9;" horiz-adv-x="482" 
d="M306 462h122v-462h-122v163h-47v-83h-30v83h-60c-104 0 -156 49.667 -156 149v150h123v-138c0 -18.667 4.33301 -32.167 13 -40.5s23 -12.5 43 -12.5h37v91h30v-91h47v191z" />
    <glyph glyph-name="uni04BA" unicode="&#x4ba;" horiz-adv-x="604" 
d="M385 427c134 0 201 -66 201 -198v-229h-128v221c0 56.667 -30 85 -90 85h-175v-306h-128v700h128v-273h192z" />
    <glyph glyph-name="uni04BB" unicode="&#x4bb;" horiz-adv-x="554" 
d="M179 700l-0.000976562 -303.999h2c34 54 84 81 150 81c52.667 0 94.834 -15.833 126.501 -47.5s47.5 -79.834 47.5 -144.501v-285h-123v256c0 71.333 -32 107 -96 107c-71.333 0 -107 -45.667 -107 -137v-226h-123v700h123z" />
    <glyph glyph-name="uni04BC" unicode="&#x4bc;" horiz-adv-x="944" 
d="M916 350l0.00195312 -54l-12 1v-1h-559c11.333 -56.667 37.666 -101.334 78.999 -134.001s95.333 -49 162 -49c73.333 0 147 24.667 221 74l65 -115c-86.667 -58 -180.667 -87 -282 -87c-107.333 0 -195.333 28 -264 84s-109 131.333 -121 226h-26
c-49.333 0 -89 13 -119 39s-45 66.333 -45 121c0 21.333 3 43 9 65h117c-5.33301 -16.667 -8 -34.667 -8 -54c0 -38 19 -57 57 -57h15c11.333 92.667 49.5 166.834 114.5 222.501s147.833 83.5 248.5 83.5c109.333 0 194.666 -33.5 255.999 -100.5s92 -155.167 92 -264.5z
M568.002 590c-62.667 0 -113.333 -16 -152 -48s-62.667 -76.333 -72 -133h428c-16 120.667 -84 181 -204 181z" />
    <glyph glyph-name="uni04BD" unicode="&#x4bd;" horiz-adv-x="623" 
d="M599 230l-0.00390625 -24.001h-345c3.33301 -35.333 16.833 -62.833 40.5 -82.5s53.5 -29.5 89.5 -29.5c50 0 96 21 138 63l62 -89c-60 -55.333 -126.667 -83 -200 -83c-71.333 0 -129.166 20 -173.499 60s-69.166 93.667 -74.499 161h-9
c-38.667 0 -68.667 9.33301 -90 28s-32 46.667 -32 84c0 17.333 2.66699 35 8 53h84c-4.66699 -16 -7 -31 -7 -45c0 -27.333 14.667 -41 44 -41h6c10.667 58.667 36.834 105.334 78.501 140.001s93.834 52 156.501 52c70.667 0 125.667 -21.5 165 -64.5
s59 -103.833 59 -182.5zM256.996 284.999l218 0.000976562c-2 29.333 -12.5 52.166 -31.5 68.499s-43.833 24.5 -74.5 24.5c-64.667 0 -102 -31 -112 -93z" />
    <glyph glyph-name="uni04BE" unicode="&#x4be;" horiz-adv-x="944" 
d="M916 350l0.00195312 -54l-12 1v-1h-559c11.333 -56.667 37.666 -101.334 78.999 -134.001s95.333 -49 162 -49c73.333 0 147 24.667 221 74l65 -115c-44 -29.333 -88.333 -51 -133 -65c-48 -46.667 -72 -81 -72 -103c0 -14.667 9 -22 27 -22
c10.667 0 23.667 1.66699 39 5l12 -77c-26 -6 -49.333 -9 -70 -9c-30 0 -53.667 6.66699 -71 20s-26 33.333 -26 60c0 34 20.667 69.333 62 106c-21.333 -1.33301 -38 -2 -50 -2c-107.333 0 -195.333 28 -264 84s-109 131.333 -121 226h-26c-49.333 0 -89 13 -119 39
s-45 66.333 -45 121c0 21.333 3 43 9 65h117c-5.33301 -16.667 -8 -34.667 -8 -54c0 -38 19 -57 57 -57h15c11.333 92.667 49.5 166.834 114.5 222.501s147.833 83.5 248.5 83.5c109.333 0 194.666 -33.5 255.999 -100.5s92 -155.167 92 -264.5zM568.002 590
c-62.667 0 -113.333 -16 -152 -48s-62.667 -76.333 -72 -133h428c-16 120.667 -84 181 -204 181z" />
    <glyph glyph-name="uni04BF" unicode="&#x4bf;" horiz-adv-x="623" 
d="M599 230l-0.00488281 -24.001h-345c3.33301 -35.333 16.833 -62.833 40.5 -82.5s53.5 -29.5 89.5 -29.5c50 0 96 21 138 63l62 -89c-25.333 -24 -52.666 -43 -81.999 -57l3 -1c-50 -48.667 -75 -84 -75 -106c0 -14.667 9 -22 27 -22c10.667 0 23.667 1.66699 39 5l12 -77
c-26 -6 -49.333 -9 -70 -9c-30 0 -53.667 6.66699 -71 20s-26 33.333 -26 60c0 33.333 20 68 60 104h-17c-71.333 0 -129.166 20 -173.499 60s-69.166 93.667 -74.499 161h-9c-38.667 0 -68.667 9.33301 -90 28s-32 46.667 -32 84c0 17.333 2.66699 35 8 53h84
c-4.66699 -16 -7 -31 -7 -45c0 -27.333 14.667 -41 44 -41h6c10.667 58.667 36.834 105.334 78.501 140.001s93.834 52 156.501 52c70.667 0 125.667 -21.5 165 -64.5s59 -103.833 59 -182.5zM256.995 284.999l218 0.000976562c-2 29.333 -12.5 52.166 -31.5 68.499
s-43.833 24.5 -74.5 24.5c-64.667 0 -102 -31 -112 -93z" />
    <glyph glyph-name="uni04C0" unicode="&#x4c0;" horiz-adv-x="261" 
d="M195 700v-700h-129v700h129z" />
    <glyph glyph-name="uni04C1" unicode="&#x4c1;" horiz-adv-x="1057" 
d="M528 723c-46 0 -81.8311 12.333 -107.498 37s-39.5 59 -41.5 103h84c0 -22.667 5.5 -40.334 16.5 -53.001s27.167 -19 48.5 -19s37.666 6.33301 48.999 19s16.666 30.334 15.999 53.001h85c-2 -44 -16 -78.333 -42 -103s-62 -37 -108 -37zM1054 0h-181l-283 352v-352
h-123v352l-284 -352h-180l316 370l-266 330h171l243 -321v321h123v-321l241 321h173l-266 -330z" />
    <glyph glyph-name="uni04C2" unicode="&#x4c2;" horiz-adv-x="793" 
d="M396 496c-44 0 -79.8311 13.5 -107.498 40.5s-41.5 63.5 -41.5 109.5h81c1.33301 -21.333 7.66602 -38.666 18.999 -51.999s27.666 -20 48.999 -20s37.833 6.66699 49.5 20s18.167 30.666 19.5 51.999h81c0 -46 -14 -82.5 -42 -109.5s-64 -40.5 -108 -40.5zM788.002 0
h-160l-173 223v-223h-117v224l-173 -224h-160l207 251l-182 211h156l152 -195v195h117v-193l151 193h157l-182 -211z" />
    <glyph glyph-name="uni04C3" unicode="&#x4c3;" horiz-adv-x="647" 
d="M403 385c69.333 0 120.333 -13.832 153 -41.499s49 -74.167 49 -139.5v-208c0 -64.667 -16.667 -113.5 -50 -146.5s-80.666 -49.5 -141.999 -49.5h-73v120h60c24.667 0 43.667 6.66699 57 20s20 36.666 20 69.999v175c0 30.667 -8.33301 53 -25 67s-43.334 21 -80.001 21
c-50.667 0 -110 -3.33301 -178 -10v-263h-128v700h128v-313l259 313h173l-291 -317c29.333 1.33301 52 2 68 2z" />
    <glyph glyph-name="uni04C4" unicode="&#x4c4;" horiz-adv-x="501" 
d="M319 258c110.667 0 166.001 -52.333 166.001 -157v-116c0 -123.333 -59.667 -185 -179 -185h-59v113h48c22.667 0 39.5 5.83301 50.5 17.5s16.5 30.5 16.5 56.5v110c0 44.667 -23.667 67 -71 67c-18 0 -56.333 -2 -115 -6v-158h-122v462h122v-182l152 182h156l-196 -205
c7.33301 0.666992 17.666 1 30.999 1z" />
    <glyph glyph-name="uni04C5" unicode="&#x4c5;" horiz-adv-x="737" 
d="M641 79h91l-94 -209h-101l53 130h-77v580h-282v-405c0 -61.333 -13.667 -106.5 -41 -135.5s-69 -43.5 -125 -43.5h-52v122h39c34 0 51 21 51 63v519h538v-621z" />
    <glyph glyph-name="uni04C6" unicode="&#x4c6;" horiz-adv-x="580" 
d="M493 79l97.001 -0.000976562l-94 -209h-101l53 130h-78v349h-165v-203c0 -49.333 -12.833 -86.666 -38.5 -111.999s-60.834 -38 -105.501 -38h-51v113h32c27.333 0 41 17 41 51v302h410v-383z" />
    <glyph glyph-name="uni04C7" unicode="&#x4c7;" horiz-adv-x="720" 
d="M526 700h128v-733c0 -111.333 -54.667 -167 -164 -167h-76v120h51c21.333 0 36.833 4.5 46.5 13.5s14.5 24.5 14.5 46.5v327h-332v-307h-128v700h128v-271h332v271z" />
    <glyph glyph-name="uni04C8" unicode="&#x4c8;" horiz-adv-x="556" 
d="M379 462h123v-506c0 -104 -49.333 -156 -148 -156h-64v112h42c31.333 0 47 16.667 47 50v222h-203v-184h-122v462h122v-166h203v166z" />
    <glyph glyph-name="uni04C9" unicode="&#x4c9;" horiz-adv-x="749" 
d="M654 79h90l-94 -209h-101l53 130h-76v307h-332v-307h-128v700h128v-271h332v271h128v-621z" />
    <glyph glyph-name="uni04CA" unicode="&#x4ca;" horiz-adv-x="587" 
d="M502 79h95l-94 -209h-101l53 130h-76v184h-203v-184h-122v462h122v-166h203v166h123v-383z" />
    <glyph glyph-name="uni04CB" unicode="&#x4cb;" horiz-adv-x="604" 
d="M539 700v-700h-105v-140h-119v229h96v184h-192c-134 0 -201 66 -201 198v229h128v-221c0 -56.667 30 -85 90 -85h175v306h128z" />
    <glyph glyph-name="uni04CC" unicode="&#x4cc;" horiz-adv-x="482" 
d="M428 462v-462h-78v-130h-105v197h61v96h-137c-104 0 -156 49.667 -156 149v150h123v-138c0 -18.667 4.33301 -32.167 13 -40.5s23 -12.5 43 -12.5h114v191h122z" />
    <glyph glyph-name="uni04CD" unicode="&#x4cd;" horiz-adv-x="945" 
d="M850 79h90l-94 -209h-101l53 130h-63l-106 455h-2l-144 -351h-93l-144 351h-2l-107 -455h-134l174 700h100l158 -398h2l159 398h100z" />
    <glyph glyph-name="uni04CE" unicode="&#x4ce;" horiz-adv-x="734" 
d="M644 79h100l-94 -209h-101l53 130h-56l-75 283h-2l-89 -216h-80l-89 216h-2l-75 -283h-121l135 462h98l93 -225h2l93 225h98z" />
    <glyph glyph-name="uni04CF" unicode="&#x4cf;" horiz-adv-x="236" 
d="M56 0v462h123v-462h-123z" />
    <glyph glyph-name="uni04D0" unicode="&#x4d0;" horiz-adv-x="696" 
d="M348 723c-46 0 -81.8311 12.333 -107.498 37s-39.5 59 -41.5 103h84c0 -22.667 5.5 -40.334 16.5 -53.001s27.167 -19 48.5 -19s37.666 6.33301 48.999 19s16.666 30.334 15.999 53.001h85c-2 -44 -16 -78.333 -42 -103s-62 -37 -108 -37zM551.002 0l-59 159h-288
l-59 -159h-142l281 700h128l281 -700h-142zM246.002 275h204l-102 275z" />
    <glyph glyph-name="uni04D1" unicode="&#x4d1;" horiz-adv-x="578" 
d="M430 646c0 -46 -13.998 -82.5 -41.998 -109.5s-64 -40.5 -108 -40.5s-79.833 13.5 -107.5 40.5s-41.5 63.5 -41.5 109.5h81c1.33301 -21.333 7.66602 -38.666 18.999 -51.999s27.666 -20 48.999 -20s37.833 6.66699 49.5 20s18.167 30.666 19.5 51.999h81zM248.002 -15
c-63.333 0 -116.166 22 -158.499 66s-63.5 104 -63.5 180s21.167 136 63.5 180s95.166 66 158.499 66c70.667 0 122 -26.667 154 -80h2v65h122v-462h-122v65h-2c-32 -53.333 -83.333 -80 -154 -80zM279.002 101c37.333 0 67.5 12 90.5 36s34.5 55.333 34.5 94
s-11.5 70 -34.5 94s-53.167 36 -90.5 36s-67.5 -12 -90.5 -36s-34.5 -55.333 -34.5 -94s11.5 -70 34.5 -94s53.167 -36 90.5 -36z" />
    <glyph glyph-name="uni04D2" unicode="&#x4d2;" horiz-adv-x="696" 
d="M301 852v-109h-119v109h119zM514 852v-109h-119v109h119zM551 0l-59 159h-288l-59 -159h-142l281 700h128l281 -700h-142zM246 275h204l-102 275z" />
    <glyph glyph-name="uni04D3" unicode="&#x4d3;" horiz-adv-x="578" 
d="M247 644v-127h-104v127h104zM416 644v-127h-104v127h104zM248 -15c-63.333 0 -116.166 22 -158.499 66s-63.5 104 -63.5 180s21.167 136 63.5 180s95.166 66 158.499 66c70.667 0 122 -26.667 154 -80h2v65h122v-462h-122v65h-2c-32 -53.333 -83.333 -80 -154 -80z
M279 101c37.333 0 67.5 12 90.5 36s34.5 55.333 34.5 94s-11.5 70 -34.5 94s-53.167 36 -90.5 36s-67.5 -12 -90.5 -36s-34.5 -55.333 -34.5 -94s11.5 -70 34.5 -94s53.167 -36 90.5 -36z" />
    <glyph glyph-name="uni04D4" unicode="&#x4d4;" horiz-adv-x="964" 
d="M656 118h269v-118h-393v159h-266l-99 -159h-164l458 700h460v-118h-265v-142h239v-118h-239v-204zM338 275h194v312z" />
    <glyph glyph-name="uni04D5" unicode="&#x4d5;" horiz-adv-x="820" 
d="M203 -15c-55.333 0 -100.329 15 -134.996 45s-52 69.667 -52 119c0 48.667 16.667 87.667 50 117s77.666 44 132.999 44c61.333 0 107.333 -16.333 138 -49h2v30c0 56.667 -35 85 -105 85c-37.333 0 -85 -7.33301 -143 -22l-25 101c64 14.667 121.333 22 172 22
c83.333 0 137.666 -29 162.999 -87h2c16 26 39.167 47 69.5 63s65.5 24 105.5 24c67.333 0 120.666 -21.5 159.999 -64.5s59 -103.833 59 -182.5v-24h-342c4.66699 -34.667 17.667 -62 39 -82s50.666 -30 87.999 -30c50 0 96 21 138 63l61 -87
c-58 -56.667 -123.667 -85 -197 -85c-44.667 0 -83.5 9 -116.5 27s-57.833 42.333 -74.5 73h-2c-39.333 -66.667 -102 -100 -188 -100zM458.004 285l213 0.000976562c-0.666992 28 -10.5 50.5 -29.5 67.5s-43.5 25.5 -73.5 25.5c-28.667 0 -53 -7.83301 -73 -23.5
s-32.333 -38.834 -37 -69.501zM240.004 83.001c28.667 0 52.5 6.33398 71.5 19.001s28.5 29.334 28.5 50.001c0 21.333 -9.33301 38.166 -28 50.499s-42.334 18.5 -71.001 18.5c-29.333 0 -51.833 -6.5 -67.5 -19.5s-23.5 -29.5 -23.5 -49.5
c0 -20.667 7.83301 -37.334 23.5 -50.001s37.834 -19 66.501 -19z" />
    <glyph glyph-name="uni04D6" unicode="&#x4d6;" horiz-adv-x="525" 
d="M291 723c-46 0 -81.8311 12.333 -107.498 37s-39.5 59 -41.5 103h84c0 -22.667 5.5 -40.334 16.5 -53.001s27.167 -19 48.5 -19s37.666 6.33301 48.999 19s16.666 30.334 15.999 53.001h85c-2 -44 -16 -78.333 -42 -103s-62 -37 -108 -37zM194.002 120h292v-120h-420v700
h415v-120h-287v-140h262v-118h-262v-202z" />
    <glyph glyph-name="uni04D7" unicode="&#x4d7;" horiz-adv-x="514" 
d="M417 646c0 -46 -13.998 -82.5 -41.998 -109.5s-64 -40.5 -108 -40.5s-79.833 13.5 -107.5 40.5s-41.5 63.5 -41.5 109.5h81c1.33301 -21.333 7.66602 -38.666 18.999 -51.999s27.666 -20 48.999 -20s37.833 6.66699 49.5 20s18.167 30.666 19.5 51.999h81zM266.002 477
c70.667 0 125.666 -21.5 164.999 -64.5s59 -103.833 59 -182.5v-24h-345c3.33301 -35.333 16.833 -62.833 40.5 -82.5s53.5 -29.5 89.5 -29.5c50 0 96 21 138 63l62 -89c-60 -55.333 -126.667 -83 -200 -83c-75.333 0 -135.666 22.333 -180.999 67s-68 104 -68 178
s22 133.667 66 179s102 68 174 68zM260.001 378c-64.667 0 -102 -30.999 -112 -92.999h218c-2 29.333 -12.5 52.166 -31.5 68.499s-43.833 24.5 -74.5 24.5z" />
    <glyph glyph-name="uni04D8" unicode="&#x4d8;" horiz-adv-x="772" 
d="M362 715c118 0 211 -32.5 279 -97.5s102 -154.5 102 -268.5c0 -110 -32 -198.167 -96 -264.5s-151.667 -99.5 -263 -99.5c-112 0 -199.167 33.333 -261.5 100s-93.5 154 -93.5 262v57l11 -1v1h560c-10 58 -35.333 103 -76 135s-94.667 48 -162 48
c-77.333 0 -152.333 -21.333 -225 -64l-63 121c93.333 47.333 189.333 71 288 71zM385 110c62.667 0 112.167 15.667 148.5 47s58.833 75.333 67.5 132h-429c16.667 -119.333 87.667 -179 213 -179z" />
    <glyph glyph-name="uni04D9" unicode="&#x4d9;" horiz-adv-x="514" 
d="M248 -15c-70.667 0 -125.666 21.5 -164.999 64.5s-59 103.833 -59 182.5v24h345c-3.33301 35.333 -16.833 62.833 -40.5 82.5s-53.5 29.5 -89.5 29.5c-50 0 -96 -21 -138 -63l-62 89c60 55.333 126.667 83 200 83c75.333 0 135.666 -22.333 180.999 -67s68 -104 68 -178
s-22 -133.667 -66 -179s-102 -68 -174 -68zM254.001 84c64.667 0 102 30.999 112 92.999h-218c2 -29.333 12.5 -52.166 31.5 -68.499s43.833 -24.5 74.5 -24.5z" />
    <glyph glyph-name="uni04DA" unicode="&#x4da;" horiz-adv-x="772" 
d="M335 852v-109h-119v109h119zM548 852v-109h-119v109h119zM362 715c118 0 211 -32.5 279 -97.5s102 -154.5 102 -268.5c0 -110 -32 -198.167 -96 -264.5s-151.667 -99.5 -263 -99.5c-112 0 -199.167 33.333 -261.5 100s-93.5 154 -93.5 262v57l11 -1v1h560
c-10 58 -35.333 103 -76 135s-94.667 48 -162 48c-77.333 0 -152.333 -21.333 -225 -64l-63 121c93.333 47.333 189.333 71 288 71zM385 110c62.667 0 112.167 15.667 148.5 47s58.833 75.333 67.5 132h-429c16.667 -119.333 87.667 -179 213 -179z" />
    <glyph glyph-name="uni04DB" unicode="&#x4db;" horiz-adv-x="514" 
d="M225 644v-127h-104v127h104zM394 644v-127h-104v127h104zM248 -15c-70.667 0 -125.666 21.5 -164.999 64.5s-59 103.833 -59 182.5v24h345c-3.33301 35.333 -16.833 62.833 -40.5 82.5s-53.5 29.5 -89.5 29.5c-50 0 -96 -21 -138 -63l-62 89c60 55.333 126.667 83 200 83
c75.333 0 135.666 -22.333 180.999 -67s68 -104 68 -178s-22 -133.667 -66 -179s-102 -68 -174 -68zM254.001 84c64.667 0 102 30.999 112 92.999h-218c2 -29.333 12.5 -52.166 31.5 -68.499s43.833 -24.5 74.5 -24.5z" />
    <glyph glyph-name="uni04DC" unicode="&#x4dc;" horiz-adv-x="1057" 
d="M481 852v-109h-119v109h119zM694 852v-109h-119v109h119zM1054 0h-181l-283 352v-352h-123v352l-284 -352h-180l316 370l-266 330h171l243 -321v321h123v-321l241 321h173l-266 -330z" />
    <glyph glyph-name="uni04DD" unicode="&#x4dd;" horiz-adv-x="793" 
d="M363 644v-127h-104v127h104zM532 644v-127h-104v127h104zM788 0h-160l-173 223v-223h-117v224l-173 -224h-160l207 251l-182 211h156l152 -195v195h117v-193l151 193h157l-182 -211z" />
    <glyph glyph-name="uni04DE" unicode="&#x4de;" horiz-adv-x="588" 
d="M248 852v-109h-119v109h119zM461 852v-109h-119v109h119zM285 715c78 0 138.001 -15.1689 180.001 -45.502s63 -73.833 63 -130.5c0 -43.333 -12.833 -79.166 -38.5 -107.499s-62.834 -47.833 -111.501 -58.5v-2c117.333 -15.333 176 -75.333 176 -180
c0 -61.333 -22.333 -111 -67 -149s-114.334 -57 -209.001 -57c-96.667 0 -183 21.667 -259 65l57 114c68.667 -38.667 136.334 -58 203.001 -58c46.667 0 82.667 8.33301 108 25s38 40.334 38 71.001c0 68.667 -64.667 103 -194 103h-67v118h67c53.333 0 94.333 8 123 24
s43 39 43 69c0 52 -40.333 78 -121 78c-62 0 -127 -17.333 -195 -52l-51 115c84 38.667 169 58 255 58z" />
    <glyph glyph-name="uni04DF" unicode="&#x4df;" horiz-adv-x="452" 
d="M178 644v-127h-104v127h104zM347 644v-127h-104v127h104zM211 -15c-76.667 0 -142.333 13.334 -197 40.001l41 97c53.333 -23.333 105 -35 155 -35c62.667 0 94 17.333 94 52c0 36 -28 54 -84 54h-94v92h91c46.667 0 70 15.333 70 46c0 30 -26.333 45 -79 45
c-39.333 0 -88.333 -9.33301 -147 -28l-33 98c69.333 20.667 133 31 191 31c129.333 0 194 -41 194 -123c0 -28.667 -9 -52.334 -27 -71.001s-43.333 -30.334 -76 -35.001v-3c36 -3.33301 64.333 -15.166 85 -35.499s31 -47.5 31 -81.5c0 -95.333 -71.667 -143 -215 -143z
" />
    <glyph glyph-name="uni04E0" unicode="&#x4e0;" horiz-adv-x="555" 
d="M260 -15c-98 0 -182 21.667 -252 65l59 114c64.667 -36 128 -54 190 -54c87.333 0 131 33 131 99c0 68.667 -58 103 -174 103h-76v103l182 168h-261v117h440v-111l-226 -189c19.333 5.33301 38 8 56 8c55.333 0 101.666 -18 138.999 -54s56 -85.667 56 -149
c0 -64 -21.167 -116.667 -63.5 -158s-109.166 -62 -200.499 -62z" />
    <glyph glyph-name="uni04E1" unicode="&#x4e1;" horiz-adv-x="487" 
d="M206 -215c-80.667 0 -154.332 16.3311 -220.999 48.998l47 109c58 -30 116.333 -45 175 -45c42 0 74.333 9.33301 97 28s34 44.334 34 77.001c0 66 -50.333 99 -151 99h-88v90l178 157h-251v113h404v-111l-201 -166c14 2.66699 29.667 4 47 4
c53.333 0 97.666 -16.667 132.999 -50s53 -79.333 53 -138c0 -67.333 -21.5 -120.166 -64.5 -158.499s-106.833 -57.5 -191.5 -57.5z" />
    <glyph glyph-name="uni04E2" unicode="&#x4e2;" horiz-adv-x="720" 
d="M516 838v-83h-306v83h306zM66 700h128v-488h1l340 488h119v-700h-128v487h-1l-340 -487h-119v700z" />
    <glyph glyph-name="uni04E3" unicode="&#x4e3;" horiz-adv-x="556" 
d="M435 611v-84h-306v84h306zM54 0v462h122v-280h2l214 280h111v-462h-123v280h-2l-214 -280h-110z" />
    <glyph glyph-name="uni04E4" unicode="&#x4e4;" horiz-adv-x="720" 
d="M317 852v-109h-119v109h119zM530 852v-109h-119v109h119zM66 700h128v-488h1l340 488h119v-700h-128v487h-1l-340 -487h-119v700z" />
    <glyph glyph-name="uni04E5" unicode="&#x4e5;" horiz-adv-x="556" 
d="M249 644v-127h-104v127h104zM418 644v-127h-104v127h104zM54 0v462h122v-280h2l214 280h111v-462h-123v280h-2l-214 -280h-110z" />
    <glyph glyph-name="uni04E6" unicode="&#x4e6;" horiz-adv-x="791" 
d="M349 852v-109h-119v109h119zM562 852v-109h-119v109h119zM395 715c105.333 0 192.833 -34 262.5 -102s104.5 -155.667 104.5 -263s-34.833 -195 -104.5 -263s-157.167 -102 -262.5 -102s-192.666 34 -261.999 102s-104 155.667 -104 263s34.667 195 104 263
s156.666 102 261.999 102zM395 584c-66 0 -120.167 -21.667 -162.5 -65s-63.5 -99.666 -63.5 -168.999s21.167 -125.666 63.5 -168.999s96.5 -65 162.5 -65s120.167 21.667 162.5 65s63.5 99.666 63.5 168.999s-21.167 125.666 -63.5 168.999s-96.5 65 -162.5 65z" />
    <glyph glyph-name="uni04E7" unicode="&#x4e7;" horiz-adv-x="563" 
d="M249 644v-127h-104v127h104zM418 644v-127h-104v127h104zM282 477c74 0 135.167 -23 183.5 -69s72.5 -105 72.5 -177s-24.167 -131 -72.5 -177s-109.5 -69 -183.5 -69s-135.167 23 -183.5 69s-72.5 105 -72.5 177s24.167 131 72.5 177s109.5 69 183.5 69zM282 361
c-38 0 -69.167 -11.833 -93.5 -35.5s-36.5 -55.167 -36.5 -94.5s12.167 -70.833 36.5 -94.5s55.5 -35.5 93.5 -35.5s69 11.833 93 35.5s36 55.167 36 94.5s-12 70.833 -36 94.5s-55 35.5 -93 35.5z" />
    <glyph glyph-name="uni04E8" unicode="&#x4e8;" horiz-adv-x="791" 
d="M395 715c105.333 0 192.833 -34 262.5 -102s104.5 -155.667 104.5 -263s-34.833 -195 -104.5 -263s-157.167 -102 -262.5 -102s-192.666 34 -261.999 102s-104 155.667 -104 263s34.667 195 104 263s156.666 102 261.999 102zM395 586
c-61.333 0 -113.333 -18.333 -156 -55s-67.667 -85.334 -75 -146.001h463c-7.33301 60.667 -32.333 109.334 -75 146.001s-95 55 -157 55zM395 114c62 0 114.333 18.333 157 55s67.667 85.334 75 146.001h-463c7.33301 -60.667 32.333 -109.334 75 -146.001
s94.667 -55 156 -55z" />
    <glyph glyph-name="uni04E9" unicode="&#x4e9;" horiz-adv-x="563" 
d="M282 477c74 0 135.167 -23 183.5 -69s72.5 -105 72.5 -177s-24.167 -131 -72.5 -177s-109.5 -69 -183.5 -69s-135.167 23 -183.5 69s-72.5 105 -72.5 177s24.167 131 72.5 177s109.5 69 183.5 69zM282 368c-35.333 0 -65 -9.66699 -89 -29s-39 -45.333 -45 -78h268
c-6 32.667 -21.167 58.667 -45.5 78s-53.833 29 -88.5 29zM282 94c34.667 0 64.167 9.66699 88.5 29s39.5 45.333 45.5 78h-268c6 -32.667 21 -58.667 45 -78s53.667 -29 89 -29z" />
    <glyph glyph-name="uni04EA" unicode="&#x4ea;" horiz-adv-x="791" 
d="M349 852v-109h-119v109h119zM562 852v-109h-119v109h119zM395 715c105.333 0 192.833 -34 262.5 -102s104.5 -155.667 104.5 -263s-34.833 -195 -104.5 -263s-157.167 -102 -262.5 -102s-192.666 34 -261.999 102s-104 155.667 -104 263s34.667 195 104 263
s156.666 102 261.999 102zM395 586c-61.333 0 -113.333 -18.333 -156 -55s-67.667 -85.334 -75 -146.001h463c-7.33301 60.667 -32.333 109.334 -75 146.001s-95 55 -157 55zM395 114c62 0 114.333 18.333 157 55s67.667 85.334 75 146.001h-463
c7.33301 -60.667 32.333 -109.334 75 -146.001s94.667 -55 156 -55z" />
    <glyph glyph-name="uni04EB" unicode="&#x4eb;" horiz-adv-x="563" 
d="M242 644v-127h-104v127h104zM411 644v-127h-104v127h104zM282 477c74 0 135.167 -23 183.5 -69s72.5 -105 72.5 -177s-24.167 -131 -72.5 -177s-109.5 -69 -183.5 -69s-135.167 23 -183.5 69s-72.5 105 -72.5 177s24.167 131 72.5 177s109.5 69 183.5 69zM282 368
c-35.333 0 -65 -9.66699 -89 -29s-39 -45.333 -45 -78h268c-6 32.667 -21.167 58.667 -45.5 78s-53.833 29 -88.5 29zM282 94c34.667 0 64.167 9.66699 88.5 29s39.5 45.333 45.5 78h-268c6 -32.667 21 -58.667 45 -78s53.667 -29 89 -29z" />
    <glyph glyph-name="uni04EC" unicode="&#x4ec;" horiz-adv-x="669" 
d="M247 852v-109h-119v109h119zM460 852v-109h-119v109h119zM282 715c107.333 0 193.833 -32.333 259.5 -97s98.5 -154 98.5 -268s-32.833 -203.333 -98.5 -268s-152.167 -97 -259.5 -97c-96.667 0 -184.334 26.667 -263.001 80l68 112
c61.333 -41.333 125.666 -62 192.999 -62c58.667 0 107.5 16 146.5 48s62.833 78 71.5 138h-289v118h285c-11.333 53.333 -36 94.333 -74 123s-84.667 43 -140 43c-67.333 0 -131.666 -20.667 -192.999 -62l-68 112c78.667 53.333 166.334 80 263.001 80z" />
    <glyph glyph-name="uni04ED" unicode="&#x4ed;" horiz-adv-x="456" 
d="M175 644v-127h-104v127h104zM344 644v-127h-104v127h104zM185 477c74 0 132.5 -21.3311 175.5 -63.998s64.5 -103.334 64.5 -182.001s-21.5 -139.334 -64.5 -182.001s-101.5 -64 -175.5 -64c-63.333 0 -120.333 15 -171 45l52 103c38 -21.333 76 -32 114 -32
c65.333 0 104.666 29 117.999 87h-156v86h156c-13.333 58 -52.666 87 -117.999 87c-38 0 -76 -10.667 -114 -32l-52 103c52.667 30 109.667 45 171 45z" />
    <glyph glyph-name="uni04EE" unicode="&#x4ee;" horiz-adv-x="653" 
d="M487 838v-83h-306v83h306zM511 700h142l-330 -700h-143l85 179l-265 521h160l175 -373z" />
    <glyph glyph-name="uni04EF" unicode="&#x4ef;" horiz-adv-x="520" 
d="M419 611v-84h-306v84h306zM386 462h129l-296 -662h-127l113 243l-200 419h144l117 -281z" />
    <glyph glyph-name="uni04F0" unicode="&#x4f0;" horiz-adv-x="653" 
d="M288 852v-109h-119v109h119zM501 852v-109h-119v109h119zM511 700h142l-330 -700h-143l85 179l-265 521h160l175 -373z" />
    <glyph glyph-name="uni04F1" unicode="&#x4f1;" horiz-adv-x="520" 
d="M233 644v-127h-104v127h104zM402 644v-127h-104v127h104zM386 462h129l-296 -662h-127l113 243l-200 419h144l117 -281z" />
    <glyph glyph-name="uni04F2" unicode="&#x4f2;" horiz-adv-x="653" 
d="M427 863l-108 -120h-84l90 120h102zM458 743h-84l90 120h101zM511 700h142l-330 -700h-143l85 179l-265 521h160l175 -373z" />
    <glyph glyph-name="uni04F3" unicode="&#x4f3;" horiz-adv-x="520" 
d="M370 657l-132 -154h-85l113 154h104zM381 503h-85l112 154h105zM386 462h129l-296 -662h-127l113 243l-200 419h144l117 -281z" />
    <glyph glyph-name="uni04F4" unicode="&#x4f4;" horiz-adv-x="604" 
d="M232 852v-109h-119v109h119zM445 852v-109h-119v109h119zM411 700h128v-700h-128v273h-192c-134 0 -201 66 -201 198v229h128v-221c0 -56.667 30 -85 90 -85h175v306z" />
    <glyph glyph-name="uni04F5" unicode="&#x4f5;" horiz-adv-x="482" 
d="M185 644v-127h-104v127h104zM354 644v-127h-104v127h104zM306 462h122v-462h-122v163h-137c-104 0 -156 49.667 -156 149v150h123v-138c0 -18.667 4.33301 -32.167 13 -40.5s23 -12.5 43 -12.5h114v191z" />
    <glyph glyph-name="uni04F6" unicode="&#x4f6;" horiz-adv-x="484" 
d="M476 580h-282v-491h68v-229h-119v140h-77v700h410v-120z" />
    <glyph glyph-name="uni04F7" unicode="&#x4f7;" horiz-adv-x="374" 
d="M369 349h-193v-282h58v-197h-105v130h-75v462h315v-113z" />
    <glyph glyph-name="uni04F8" unicode="&#x4f8;" horiz-adv-x="843" 
d="M379 852v-109h-119v109h119zM473 743v109h119v-109h-119zM344 435c66 0 120.5 -18.333 163.5 -55s64.5 -91 64.5 -163c0 -71.333 -21.5 -125.333 -64.5 -162s-97.5 -55 -163.5 -55h-278v700h128v-265h150zM648 700h129v-700h-129v700zM328 118
c34 0 60.667 8.66797 80 26.001s29 41.666 29 72.999c0 32 -9.5 56.667 -28.5 74s-45.833 26 -80.5 26h-134v-199h134z" />
    <glyph glyph-name="uni04F9" unicode="&#x4f9;" horiz-adv-x="680" 
d="M310 644v-127h-104v127h104zM375 517v127h104v-127h-104zM288 315c53.333 0 95.333 -13.667 126 -41s46 -66 46 -116c0 -48.667 -15.5 -87.167 -46.5 -115.5s-72.833 -42.5 -125.5 -42.5h-234v462h122v-147h112zM503 462h123v-462h-123v462zM268 101
c44 0 66 18.667 66 56c0 38 -22 57 -66 57h-92v-113h92z" />
    </font>
</defs>
</svg>
