<svg xmlns="http://www.w3.org/2000/svg">
<defs>
<font id="GTEestiProDisplay-Regular" horiz-adv-x="600" >
  <font-face 
    font-family="GT Eesti Pro Display"
    font-weight="400"
    font-stretch="normal"
    units-per-em="1000"
    panose-1="0 0 5 0 0 0 0 0 0 0"
    ascent="750"
    descent="-250"
    x-height="462"
    cap-height="700"
    bbox="-398 -252 1207 886"
    underline-thickness="50"
    underline-position="-50"
    unicode-range="U+0020-U+FB02"
  />
<missing-glyph horiz-adv-x="770" 
d="M197.5 32c-55.667 31.333 -99.167 74.833 -130.5 130.5s-47 118.167 -47 187.5c0 70 15.667 132.667 47 188s74.833 98.666 130.5 129.999s118.167 47 187.5 47c70 0 132.667 -15.667 188 -47s98.666 -74.666 129.999 -129.999s47 -118 47 -188
c0 -69.333 -15.667 -131.833 -47 -187.5s-74.666 -99.167 -129.999 -130.5s-118 -47 -188 -47c-69.333 0 -131.833 15.667 -187.5 47zM560 54.5c52 29.667 92.833 70.834 122.5 123.501s44.5 111.667 44.5 177l-51 65l-70 -30l-68 90l-79 -44l-74 118l-74 -118l-79 44
l-68 -90l-70 30l-51 -65c0 -65.333 14.833 -124.333 44.5 -177s70.5 -93.834 122.5 -123.501s110.333 -44.5 175 -44.5s123 14.833 175 44.5zM257 328c-6.66699 6.66699 -10 15 -10 25s3.33301 18.333 10 25s15 10 25 10s18.333 -3.33301 25 -10s10 -15 10 -25
s-3.33301 -18.333 -10 -25s-15 -10 -25 -10s-18.333 3.33301 -25 10zM462 328c-6.66699 6.66699 -10 15 -10 25s3.33301 18.333 10 25s15 10 25 10s18.333 -3.33301 25 -10s10 -15 10 -25s-3.33301 -18.333 -10 -25s-15 -10 -25 -10s-18.333 3.33301 -25 10zM379 356
c0.666992 2.66699 2 4.50098 4 5.50098s4.33301 0.833008 7 -0.5c2 -0.666992 3.5 -2 4.5 -4s1.16699 -4.33301 0.5 -7l-28 -78h34c2.66699 0 4.83398 -0.833008 6.50098 -2.5s2.5 -3.83398 2.5 -6.50098c0 -2 -0.833008 -3.83301 -2.5 -5.5s-3.83398 -2.5 -6.50098 -2.5
h-58zM138.5 190.501c-13 13 -19.5 29.5 -19.5 49.5s6.5 36.5 19.5 49.5s29.5 19.5 49.5 19.5s36.5 -6.5 49.5 -19.5s19.5 -29.5 19.5 -49.5s-6.5 -36.5 -19.5 -49.5s-29.5 -19.5 -49.5 -19.5s-36.5 6.5 -49.5 19.5zM531.5 190.501c-13 13 -19.5 29.5 -19.5 49.5

<glyph glyph-name="fi" unicode="fi" horiz-adv-x="528" 
d="M214 597.5c-15.333 -14.333 -23.001 -37.167 -23.001 -68.5v-67h91v-83h-91v-379h-98v379h-73v83h73v64c0 57.333 15.5 102.333 46.5 135s74.833 49 131.5 49h19v-91h-15c-25.333 0 -45.666 -7.16699 -60.999 -21.5zM364.999 461.999h98v-462h-98v462zM473.999 569.999
h-120v120h120v-120z" />
    <glyph glyph-name="fl" unicode="fl" horiz-adv-x="528" 
d="M214 597.5c-15.333 -14.333 -23.001 -37.167 -23.001 -68.5v-67h91v-83h-91v-379h-98v379h-73v83h73v64c0 57.333 15.5 102.333 46.5 135s74.833 49 131.5 49h19v-91h-15c-25.333 0 -45.666 -7.16699 -60.999 -21.5zM462.999 -0.000976562h-98v700h98v-700z" />
    <glyph glyph-name="f_f" unicode="ff" 
d="M214 597.5c-15.333 -14.333 -23.001 -37.167 -23.001 -68.5v-67h91v-83h-91v-379h-98v379h-73v83h73v64c0 57.333 15.5 102.333 46.5 135s74.833 49 131.5 49h19v-91h-15c-25.333 0 -45.666 -7.16699 -60.999 -21.5zM513.999 597.499
c-15.333 -14.333 -23.001 -37.167 -23.001 -68.5v-67h91v-83h-91v-379h-98v379h-73v83h73v64c0 57.333 15.5 102.333 46.5 135s74.833 49 131.5 49h19v-91h-15c-25.333 0 -45.666 -7.16699 -60.999 -21.5z" />
    <glyph glyph-name="f_f_i" unicode="ffi" horiz-adv-x="828" 
d="M214 597.5c-15.333 -14.333 -23.001 -37.167 -23.001 -68.5v-67h91v-83h-91v-379h-98v379h-73v83h73v64c0 57.333 15.5 102.333 46.5 135s74.833 49 131.5 49h19v-91h-15c-25.333 0 -45.666 -7.16699 -60.999 -21.5zM513.999 597.499
c-15.333 -14.333 -23.001 -37.167 -23.001 -68.5v-67h91v-83h-91v-379h-98v379h-73v83h73v64c0 57.333 15.5 102.333 46.5 135s74.833 49 131.5 49h19v-91h-15c-25.333 0 -45.666 -7.16699 -60.999 -21.5zM664.998 461.998h98v-462h-98v462zM773.998 569.998h-120v120h120
v-120z" />
    <glyph glyph-name="f_f_l" unicode="ffl" horiz-adv-x="828" 
d="M214 597.5c-15.333 -14.333 -23.001 -37.167 -23.001 -68.5v-67h91v-83h-91v-379h-98v379h-73v83h73v64c0 57.333 15.5 102.333 46.5 135s74.833 49 131.5 49h19v-91h-15c-25.333 0 -45.666 -7.16699 -60.999 -21.5zM513.999 597.499
c-15.333 -14.333 -23.001 -37.167 -23.001 -68.5v-67h91v-83h-91v-379h-98v379h-73v83h73v64c0 57.333 15.5 102.333 46.5 135s74.833 49 131.5 49h19v-91h-15c-25.333 0 -45.666 -7.16699 -60.999 -21.5zM762.998 -0.00195312h-98v700h98v-700z" />
    <glyph glyph-name=".notdef" horiz-adv-x="770" 
d="M197.5 32c-55.667 31.333 -99.167 74.833 -130.5 130.5s-47 118.167 -47 187.5c0 70 15.667 132.667 47 188s74.833 98.666 130.5 129.999s118.167 47 187.5 47c70 0 132.667 -15.667 188 -47s98.666 -74.666 129.999 -129.999s47 -118 47 -188
c0 -69.333 -15.667 -131.833 -47 -187.5s-74.666 -99.167 -129.999 -130.5s-118 -47 -188 -47c-69.333 0 -131.833 15.667 -187.5 47zM560 54.5c52 29.667 92.833 70.834 122.5 123.501s44.5 111.667 44.5 177l-51 65l-70 -30l-68 90l-79 -44l-74 118l-74 -118l-79 44
l-68 -90l-70 30l-51 -65c0 -65.333 14.833 -124.333 44.5 -177s70.5 -93.834 122.5 -123.501s110.333 -44.5 175 -44.5s123 14.833 175 44.5zM257 328c-6.66699 6.66699 -10 15 -10 25s3.33301 18.333 10 25s15 10 25 10s18.333 -3.33301 25 -10s10 -15 10 -25
s-3.33301 -18.333 -10 -25s-15 -10 -25 -10s-18.333 3.33301 -25 10zM462 328c-6.66699 6.66699 -10 15 -10 25s3.33301 18.333 10 25s15 10 25 10s18.333 -3.33301 25 -10s10 -15 10 -25s-3.33301 -18.333 -10 -25s-15 -10 -25 -10s-18.333 3.33301 -25 10zM379 356
c0.666992 2.66699 2 4.50098 4 5.50098s4.33301 0.833008 7 -0.5c2 -0.666992 3.5 -2 4.5 -4s1.16699 -4.33301 0.5 -7l-28 -78h34c2.66699 0 4.83398 -0.833008 6.50098 -2.5s2.5 -3.83398 2.5 -6.50098c0 -2 -0.833008 -3.83301 -2.5 -5.5s-3.83398 -2.5 -6.50098 -2.5
h-58zM138.5 190.501c-13 13 -19.5 29.5 -19.5 49.5s6.5 36.5 19.5 49.5s29.5 19.5 49.5 19.5s36.5 -6.5 49.5 -19.5s19.5 -29.5 19.5 -49.5s-6.5 -36.5 -19.5 -49.5s-29.5 -19.5 -49.5 -19.5s-36.5 6.5 -49.5 19.5zM531.5 190.501c-13 13 -19.5 29.5 -19.5 49.5
s6.5 36.5 19.5 49.5s29.5 19.5 49.5 19.5s36.5 -6.5 49.5 -19.5s19.5 -29.5 19.5 -49.5s-6.5 -36.5 -19.5 -49.5s-29.5 -19.5 -49.5 -19.5s-36.5 6.5 -49.5 19.5zM346.5 185.001c-11 -5.33301 -18.833 -12.666 -23.5 -21.999c-2 -4 -5 -6 -9 -6c-5.33301 0 -8 3 -8 9
c0 11.333 8.16699 21.666 24.5 30.999s34.5 14 54.5 14s38.167 -4.66699 54.5 -14s24.5 -19.666 24.5 -30.999c0 -6 -2.66699 -9 -8 -9c-4 0 -7 2 -9 6c-4.66699 9.33301 -12.5 16.666 -23.5 21.999s-23.833 8 -38.5 8s-27.5 -2.66699 -38.5 -8z" />
    <glyph glyph-name="space" unicode=" " horiz-adv-x="290" 
 />
    <glyph glyph-name="exclam" unicode="!" horiz-adv-x="319" 
d="M102 700h115l-24 -488h-67zM219 0h-119v119h119v-119z" />
    <glyph glyph-name="quotedbl" unicode="&#x22;" horiz-adv-x="292" 
d="M50 715h83l-23 -253h-37zM159 715h83l-23 -253h-37z" />
    <glyph glyph-name="numbersign" unicode="#" horiz-adv-x="630" 
d="M458 452l-33 -182h119v-50h-128l-40 -220h-54l40 220h-141l-40 -220h-54l40 220h-117v50h126l33 182h-123v50h132l36 198h54l-36 -198h141l36 198h54l-36 -198h113v-50h-122zM404 452h-141l-33 -182h141z" />
    <glyph glyph-name="dollar" unicode="$" horiz-adv-x="506" 
d="M421.5 42.5c-36.333 -35 -86.501 -54.1709 -150.501 -57.5039v-62h-28v62c-67.333 2.66699 -119.666 22.334 -156.999 59.001s-56 85.334 -56 146.001h100c3.33301 -39.333 14.5 -67.666 33.5 -84.999s45.5 -26.666 79.5 -27.999v234c-42 18 -74.833 33.667 -98.5 47
s-44.167 32.5 -61.5 57.5s-26 57.167 -26 96.5c0 52 16.167 94 48.5 126s78.166 49.333 137.499 52v72h28v-72c57.333 -2 103.666 -18.167 138.999 -48.5s53 -74.833 53 -133.5h-100c-1.33301 29.333 -9.66602 51.333 -24.999 66s-37.666 22.667 -66.999 24v-191
c48.667 -21.333 85.167 -38.833 109.5 -52.5s46.333 -34.5 66 -62.5s29.5 -64 29.5 -108c0 -59.333 -18.167 -106.5 -54.5 -141.5zM180.499 460.996c14.333 -14.667 35.168 -28.666 62.501 -41.999v178c-26.667 -2.66699 -47.334 -10.667 -62.001 -24s-22 -32 -22 -56
c0 -22.667 7.16699 -41.334 21.5 -56.001zM348.501 106.497c17 17 25.5 39.834 25.5 68.501c0 30 -8.83301 54.167 -26.5 72.5s-43.167 35.166 -76.5 50.499v-220c34.667 2 60.5 11.5 77.5 28.5z" />
    <glyph glyph-name="percent" unicode="%" horiz-adv-x="757" 
d="M325.5 645c29.667 -30 44.5 -68.333 44.5 -115s-14.833 -85 -44.5 -115s-68.167 -45 -115.5 -45s-85.833 15 -115.5 45s-44.5 68.333 -44.5 115s14.833 85 44.5 115s68.167 45 115.5 45s85.833 -15 115.5 -45zM543 675h57l-395 -675h-57zM137 605
c-18 -19.333 -27 -44.333 -27 -75s9 -55.667 27 -75s42.333 -29 73 -29s55 9.66699 73 29s27 44.333 27 75s-9 55.667 -27 75s-42.333 29 -73 29s-55 -9.66699 -73 -29zM662.5 270c29.667 -30 44.5 -68.333 44.5 -115s-14.833 -85 -44.5 -115s-68.167 -45 -115.5 -45
s-85.833 15 -115.5 45s-44.5 68.333 -44.5 115s14.833 85 44.5 115s68.167 45 115.5 45s85.833 -15 115.5 -45zM474 230c-18 -19.333 -27 -44.333 -27 -75s9 -55.667 27 -75s42.333 -29 73 -29s55 9.66699 73 29s27 44.333 27 75s-9 55.667 -27 75s-42.333 29 -73 29
s-55 -9.66699 -73 -29z" />
    <glyph glyph-name="ampersand" unicode="&#x26;" horiz-adv-x="673" 
d="M539 130l93.001 -129.998h-116l-41 57c-54 -48 -118.333 -72 -193 -72c-46 0 -87 8.66699 -123 26s-64 42.5 -84 75.5s-30 71.5 -30 115.5c0 53.333 14.667 99.333 44 138s70.666 67 123.999 85l-11 15c-30.667 43.333 -46 85 -46 125c0 39.333 14.167 70 42.5 92
s66.833 33 115.5 33c22.667 0 46.167 -2.33301 70.5 -7s46.166 -10.667 65.499 -18l-31 -89c-39.333 12.667 -74.666 19 -105.999 19c-38 0 -57 -13.333 -57 -40c0 -10.667 2.66699 -21.334 8 -32.001s13 -23.334 23 -38.001l194 -273c22 35.333 43.333 80.333 64 135
l88 -33c-28.667 -74.667 -60 -136 -94 -184zM420.001 135.002l-156 218c-38 -12 -67.5 -30.333 -88.5 -55s-31.5 -54.667 -31.5 -90c0 -40 12.5 -71.333 37.5 -94s58.833 -34 101.5 -34c51.333 0 97 18.333 137 55z" />
    <glyph glyph-name="quotesingle" unicode="'" horiz-adv-x="192" 
d="M120 462h-47l-23 253h92z" />
    <glyph glyph-name="parenleft" unicode="(" horiz-adv-x="298" 
d="M283 713c-50.667 -67.333 -87.668 -135.501 -111.001 -204.501s-35 -145.833 -35 -230.5c0 -84 11.5 -161.333 34.5 -232s58.833 -139.334 107.5 -206.001l-74 -55c-53.333 74.667 -94.166 150.834 -122.499 228.501s-42.5 165.834 -42.5 264.501
c0 99.333 14.333 187.333 43 264s70.667 152 126 226z" />
    <glyph glyph-name="parenright" unicode=")" horiz-adv-x="298" 
d="M19 -160c48.667 66.667 84.499 135.335 107.499 206.002s34.5 148 34.5 232c0 84.667 -11.667 161.5 -35 230.5s-60.333 137.167 -111 204.5l74 55c55.333 -74 97.333 -149.333 126 -226s43 -164.667 43 -264c0 -98.667 -14.167 -186.834 -42.5 -264.501
s-69.166 -153.834 -122.499 -228.501z" />
    <glyph glyph-name="asterisk" unicode="*" horiz-adv-x="408" 
d="M254 528l80 -100l-59 -44l-71 108l-71 -109l-59 44l80 100l-124 35l23 69l120 -45l-6 129h74l-6 -128l120 45l23 -69z" />
    <glyph glyph-name="plus" unicode="+" 
d="M325 321h219v-46h-219v-220h-50v220h-219v46h219v220h50v-220z" />
    <glyph glyph-name="comma" unicode="," horiz-adv-x="230" 
d="M175 0l-71 -143h-49l53 143h-52v119h119v-119z" />
    <glyph glyph-name="hyphen" unicode="-" horiz-adv-x="351" 
d="M306 217h-261v96h261v-96z" />
    <glyph glyph-name="period" unicode="." horiz-adv-x="229" 
d="M174 0h-119v119h119v-119z" />
    <glyph glyph-name="slash" unicode="/" horiz-adv-x="607" 
d="M577 739l-469 -840l-78 42l470 841z" />
    <glyph glyph-name="zero" unicode="0" horiz-adv-x="566" 
d="M459.5 599c41 -60.667 61.5 -147.667 61.5 -261s-20.5 -200.5 -61.5 -261.5s-99.833 -91.5 -176.5 -91.5s-135.5 30.5 -176.5 91.5s-61.5 148.167 -61.5 261.5s20.5 200.333 61.5 261s99.833 91 176.5 91s135.5 -30.333 176.5 -91zM183 529
c-24 -46 -36 -109.667 -36 -191s12 -145.166 36 -191.499s57.333 -69.5 100 -69.5s76 23.167 100 69.5s36 110.166 36 191.499s-12 145 -36 191s-57.333 69 -100 69s-76 -23 -100 -69z" />
    <glyph glyph-name="one" unicode="1" horiz-adv-x="315" 
d="M215 0h-98v577h-42v98h140v-675z" />
    <glyph glyph-name="two" unicode="2" horiz-adv-x="498" 
d="M30 72l233.002 264c32.667 36.667 55.5 67 68.5 91s19.5 47.333 19.5 70c0 30.667 -9.5 55.167 -28.5 73.5s-44.833 27.5 -77.5 27.5c-34.667 0 -62.334 -9.83301 -83.001 -29.5s-31.334 -46.834 -32.001 -81.501h-98c1.33301 62.667 21.5 112.167 60.5 148.5
s91.167 54.5 156.5 54.5c63.333 0 113.166 -16.667 149.499 -50s54.5 -79.333 54.5 -138c0 -34.667 -8.16699 -68.667 -24.5 -102s-44.166 -71.666 -83.499 -114.999l-172 -191h279v-94h-422v72z" />
    <glyph glyph-name="three" unicode="3" horiz-adv-x="515" 
d="M399.5 642.5c37.667 -31.667 56.501 -73.501 56.501 -125.501c0 -39.333 -10.667 -73 -32 -101s-51 -46.333 -89 -55v-2c46.667 -5.33301 82.5 -22.833 107.5 -52.5s37.5 -69.167 37.5 -118.5c0 -63.333 -19.833 -113 -59.5 -149s-94.167 -54 -163.5 -54
s-124 17.333 -164 52s-61 82.667 -63 144h98c2.66699 -32.667 15.334 -58.167 38.001 -76.5s53 -27.5 91 -27.5c39.333 0 69.166 9.83301 89.499 29.5s30.5 48.834 30.5 87.501c0 41.333 -12.5 71 -37.5 89s-65.5 26.667 -121.5 26h-32v88h32c90.667 0 136 34.333 136 103
c0 31.333 -9.16699 55.5 -27.5 72.5s-44.833 25.5 -79.5 25.5c-35.333 0 -62.833 -8.16699 -82.5 -24.5s-29.834 -39.833 -30.501 -70.5h-98c2 57.333 22.167 102.833 60.5 136.5s89.166 50.5 152.499 50.5c62.667 0 112.834 -15.833 150.501 -47.5z" />
    <glyph glyph-name="four" unicode="4" horiz-adv-x="540" 
d="M515 119h-71v-119h-96v119h-328v82l331 474h93v-462h71v-94zM348 213v313h-4l-218 -313h222z" />
    <glyph glyph-name="five" unicode="5" horiz-adv-x="524" 
d="M443 384c37.333 -40 56.001 -93.333 56.001 -160c0 -74 -21 -132.333 -63 -175s-99.333 -64 -172 -64c-55.333 0 -103.166 12 -143.499 36s-70.5 58.667 -90.5 104l83 51c17.333 -34.667 38.166 -59.834 62.499 -75.501s53.833 -23.5 88.5 -23.5
c41.333 0 73.833 12.833 97.5 38.5s35.5 61.167 35.5 106.5c0 42.667 -11.667 76.334 -35 101.001s-54.666 37 -93.999 37c-24 0 -46.5 -5 -67.5 -15s-37.167 -23.333 -48.5 -40h-87l35 370h345v-94h-266l-19 -181h2c15.333 13.333 34.666 24 57.999 32s47.666 12 72.999 12
c62.667 0 112.667 -20 150 -60z" />
    <glyph glyph-name="six" unicode="6" horiz-adv-x="526" 
d="M143 15c-36 20 -63.8311 48.333 -83.498 85s-29.5 79.334 -29.5 128.001c0 55.333 10.333 106.833 31 154.5s55.667 100.167 105 157.5l118 140h122l-248 -290l3 -2c19.333 21.333 39.666 36.833 60.999 46.5s45 14.5 71 14.5c41.333 0 78.166 -9.66699 110.499 -29
s57.5 -46.5 75.5 -81.5s27 -74.833 27 -119.5c0 -45.333 -10 -85.833 -30 -121.5s-48 -63.334 -84 -83.001s-77 -29.5 -123 -29.5c-48 0 -90 10 -126 30zM367.002 115.5c24.667 25.667 37 60.167 37 103.5s-12.333 77.666 -37 102.999s-58 38 -100 38
c-41.333 0 -74.333 -12.833 -99 -38.5s-37 -60.167 -37 -103.5s12.333 -77.666 37 -102.999s58 -38 100 -38c41.333 0 74.333 12.833 99 38.5z" />
    <glyph glyph-name="seven" unicode="7" horiz-adv-x="455" 
d="M435 590l-271 -590h-104l270 580h-315v95h420v-85z" />
    <glyph glyph-name="eight" unicode="8" horiz-adv-x="530" 
d="M97 39.5c-41.333 36.333 -62.002 85.5 -62.002 147.5c0 42.667 11 79.5 33 110.5s52.333 52.167 91 63.5v2c-31.333 9.33301 -56.666 27.666 -75.999 54.999s-29 58.666 -29 93.999c0 53.333 19.333 96.333 58 129s89.667 49 153 49s114.333 -16.333 153 -49
s58 -75.667 58 -129c0 -35.333 -9.66699 -66.666 -29 -93.999s-44.666 -45.666 -75.999 -54.999v-2c38.667 -11.333 69 -32.5 91 -63.5s33 -67.833 33 -110.5c0 -62 -20.667 -111.167 -62 -147.5s-97.333 -54.5 -168 -54.5s-126.667 18.167 -168 54.5zM343.998 431.5
c19.333 17.667 29 41.834 29 72.501s-9.66699 54.834 -29 72.501s-45.666 26.5 -78.999 26.5s-59.666 -8.83301 -78.999 -26.5s-29 -41.834 -29 -72.501s9.66699 -54.834 29 -72.501s45.666 -26.5 78.999 -26.5s59.666 8.83301 78.999 26.5zM358.998 104
c22 21.333 33 51.666 33 90.999c0 37.333 -11.5 66.833 -34.5 88.5s-53.833 32.5 -92.5 32.5s-69.5 -10.833 -92.5 -32.5s-34.5 -51.167 -34.5 -88.5c0 -39.333 11 -69.666 33 -90.999s53.333 -32 94 -32s72 10.667 94 32z" />
    <glyph glyph-name="nine" unicode="9" horiz-adv-x="512" 
d="M372 293l-2.00098 1.99805c-16.667 -18 -36.667 -32 -60 -42s-48.333 -15 -75 -15c-39.333 0 -75 9.66699 -107 29s-57.167 46 -75.5 80s-27.5 72 -27.5 114c0 44.667 9.83301 84.334 29.5 119.001s47.334 61.667 83.001 81s76.167 29 121.5 29
c72 0 128.833 -22.667 170.5 -68s62.5 -106.666 62.5 -183.999c0 -49.333 -9.83301 -96.833 -29.5 -142.5s-52.5 -97.167 -98.5 -154.5l-114 -141h-117zM354.999 364.498c24 24.333 36 56.835 36 97.502c0 41.333 -12 74.333 -36 99s-56.333 37 -97 37
c-39.333 0 -71 -12.333 -95 -37s-36 -57.334 -36 -98.001s12.167 -73.334 36.5 -98.001s56.5 -37 96.5 -37c39.333 0 71 12.167 95 36.5z" />
    <glyph glyph-name="colon" unicode=":" horiz-adv-x="229" 
d="M174 343h-119v119h119v-119zM174 0h-119v119h119v-119z" />
    <glyph glyph-name="semicolon" unicode=";" horiz-adv-x="230" 
d="M175 343h-119v119h119v-119zM175 0l-71 -143h-49l53 143h-52v119h119v-119z" />
    <glyph glyph-name="less" unicode="&#x3c;" 
d="M525 469l-392 -170l392 -169v-54l-450 198v51l450 198v-54z" />
    <glyph glyph-name="equal" unicode="=" 
d="M553 370h-506v48h506v-48zM553 181h-506v48h506v-48z" />
    <glyph glyph-name="greater" unicode="&#x3e;" 
d="M525 325v-51l-450 -198v54l392 169l-392 170v54z" />
    <glyph glyph-name="question" unicode="?" horiz-adv-x="480" 
d="M386.5 663c35.667 -34.667 53.5 -80.002 53.5 -136.002c0 -34 -6.83301 -63 -20.5 -87s-32.167 -47 -55.5 -69l-19 -17c-24 -21.333 -41.833 -40.166 -53.5 -56.499s-17.5 -38.166 -17.5 -65.499v-20h-95v29c0 25.333 4 47.833 12 67.5s17.667 36.167 29 49.5
s26.333 29 45 47l24 23c16.667 17.333 29.334 33.5 38.001 48.5s13 32.167 13 51.5c0 27.333 -8.33301 49.5 -25 66.5s-41.334 25.5 -74.001 25.5c-33.333 0 -60.333 -10.5 -81 -31.5s-31 -48.5 -31 -82.5h-99c0 65.333 19.167 116.5 57.5 153.5s89.5 55.5 153.5 55.5
c61.333 0 109.833 -17.333 145.5 -52zM286 -0.00195312h-119v119h119v-119z" />
    <glyph glyph-name="at" unicode="@" horiz-adv-x="940" 
d="M694.5 641.5c61.667 -32.333 109.669 -77.668 144.002 -136.001s51.5 -125.833 51.5 -202.5c0 -46 -7 -87.833 -21 -125.5s-34.167 -67.5 -60.5 -89.5s-57.166 -33 -92.499 -33c-31.333 0 -56.5 6.66699 -75.5 20s-33.5 32.666 -43.5 57.999h-3
c-10.667 -22.667 -28.5 -42 -53.5 -58s-55.167 -24 -90.5 -24c-36 0 -69.333 9 -100 27s-55 43.5 -73 76.5s-27 71.167 -27 114.5c0 44 9 82.5 27 115.5s42.333 58.333 73 76s64.334 26.5 101.001 26.5c61.333 0 106 -25.667 134 -77h1v62h88v-280
c0 -23.333 4.66699 -40.166 14 -50.499s21.333 -15.5 36 -15.5c27.333 0 48.166 15.167 62.499 45.5s21.5 72.5 21.5 126.5c0 66 -14.333 122.833 -43 170.5s-67.834 83.834 -117.501 108.501s-104.834 37 -165.501 37c-64.667 0 -123.5 -12.667 -176.5 -38
s-95.167 -64 -126.5 -116s-47 -116 -47 -192s17.5 -139.667 52.5 -191s79.833 -89.333 134.5 -114s112 -37 172 -37c34.667 0 69 3.83301 103 11.5s65 17.834 93 30.501l31 -72c-80.667 -30.667 -156.667 -46 -228 -46c-72.667 0 -142.5 15.167 -209.5 45.5
s-122.167 76.666 -165.5 138.999s-65 139.5 -65 231.5c0 89.333 18.5 165.833 55.5 229.5s88.167 112 153.5 145s139.666 49.5 222.999 49.5c80 0 150.833 -16.167 212.5 -48.5zM379.002 363.498c-23.333 -25 -35 -56.167 -35 -93.5c0 -38 11.5 -69.333 34.5 -94
s53.167 -37 90.5 -37c36.667 0 66.5 12.5 89.5 37.5s34.5 56.167 34.5 93.5s-11.5 68.5 -34.5 93.5s-52.833 37.5 -89.5 37.5s-66.667 -12.5 -90 -37.5z" />
    <glyph glyph-name="A" unicode="A" horiz-adv-x="678" 
d="M492 174h-306l-67 -174h-114l286 700h96l286 -700h-114zM455 270l-116 300l-116 -300h232z" />
    <glyph glyph-name="B" unicode="B" horiz-adv-x="618" 
d="M540 316c25.333 -30.667 38.002 -69.666 38.002 -116.999c0 -42 -9.5 -78 -28.5 -108s-44.833 -52.667 -77.5 -68s-69 -23 -109 -23h-293v700h266c61.333 0 110.666 -16 147.999 -48s56 -75.333 56 -130c0 -35.333 -9 -66.333 -27 -93s-43.333 -45 -76 -55v-2
c43.333 -6.66699 77.666 -25.334 102.999 -56.001zM174.002 602.001v-194h131c40.667 0 71.167 8.33301 91.5 25s30.5 40.667 30.5 72c0 32 -10.167 56.167 -30.5 72.5s-47.833 24.5 -82.5 24.5h-140zM432.502 127.501c21.667 19.667 32.499 45.832 32.499 78.499
s-11.167 58.834 -33.5 78.501s-55.5 29.5 -99.5 29.5h-158v-216h168c38.667 0 68.834 9.83301 90.501 29.5z" />
    <glyph glyph-name="C" unicode="C" horiz-adv-x="682" 
d="M215 31c-56.667 30.667 -100.834 73.4961 -132.501 128.496s-47.5 118.5 -47.5 190.5s15.833 135.5 47.5 190.5s75.834 97.833 132.501 128.5s121.667 46 195 46c93.333 0 175.666 -25.667 246.999 -77l-64 -91c-56.667 41.333 -119 62 -187 62
c-48.667 0 -92.5 -10.667 -131.5 -32s-69.667 -51.666 -92 -90.999s-33.5 -84.666 -33.5 -135.999s11.167 -96.666 33.5 -135.999s53 -69.666 92 -90.999s82.833 -32 131.5 -32c68 0 130.333 20.667 187 62l64 -91c-71.333 -51.333 -153.666 -77 -246.999 -77
c-73.333 0 -138.333 15.333 -195 46z" />
    <glyph glyph-name="D" unicode="D" horiz-adv-x="683" 
d="M477 657.5c53.333 -28.333 95.166 -68.833 125.499 -121.5s45.5 -114.667 45.5 -186s-15.167 -133.333 -45.5 -186s-72.166 -93.167 -125.499 -121.5s-113.666 -42.5 -180.999 -42.5h-226v700h226c67.333 0 127.666 -14.167 180.999 -42.5zM174 602v-504h121
c46 0 87.167 9.66699 123.5 29s64.666 48 84.999 86s30.5 83.667 30.5 137s-10.167 99 -30.5 137s-48.666 66.667 -84.999 86s-77.5 29 -123.5 29h-121z" />
    <glyph glyph-name="E" unicode="E" horiz-adv-x="520" 
d="M475 98v-98h-405v700h400v-98h-296v-166h273v-98h-273v-240h301z" />
    <glyph glyph-name="F" unicode="F" horiz-adv-x="505" 
d="M174 602v-197h278v-98h-278v-307h-104v700h405v-98h-301z" />
    <glyph glyph-name="G" unicode="G" horiz-adv-x="782" 
d="M757 387v-41.9971c0 -62.667 -13.167 -121.334 -39.5 -176.001s-66 -99 -119 -133s-117.5 -51 -193.5 -51c-70 0 -133.167 15 -189.5 45s-100.5 72.5 -132.5 127.5s-48 118.5 -48 190.5c0 71.333 15.5 134.666 46.5 189.999s74.667 98.666 131 129.999
s120.833 47 193.5 47c56 0 106.5 -8.66699 151.5 -26s84.167 -40 117.5 -68l-71 -87c-24.667 22 -54.334 40 -89.001 54s-72.667 21 -114 21c-50 0 -94 -11.333 -132 -34s-67.5 -53.667 -88.5 -93s-31.5 -83.666 -31.5 -132.999c0 -50 10.833 -94.5 32.5 -133.5
s52 -69.5 91 -91.5s84.167 -33 135.5 -33c48 0 89.5 9.66699 124.5 29s61.833 44.166 80.5 74.499s29.334 61.833 32.001 94.5h-220v98h332z" />
    <glyph glyph-name="H" unicode="H" horiz-adv-x="718" 
d="M648 700v-700h-104v319h-370v-319h-104v700h104v-281h370v281h104z" />
    <glyph glyph-name="I" unicode="I" horiz-adv-x="246" 
d="M176 0h-106v700h106v-700z" />
    <glyph glyph-name="J" unicode="J" horiz-adv-x="274" 
d="M204 172c0 -60 -12.832 -104.5 -38.499 -133.5s-63.834 -43.5 -114.501 -43.5h-36v101h26c20.667 0 35.667 5.5 45 16.5s14 30.833 14 59.5v528h104v-528z" />
    <glyph glyph-name="K" unicode="K" horiz-adv-x="649" 
d="M490 0l-316 349v-349h-104v700h104v-311l278 311h144l-304 -321l352 -379h-154z" />
    <glyph glyph-name="L" unicode="L" horiz-adv-x="483" 
d="M174 100h304v-100h-408v700h104v-600z" />
    <glyph glyph-name="M" unicode="M" horiz-adv-x="860" 
d="M855 0h-111l-116 500h-2l-157 -393h-78l-157 393h-2l-116 -500h-111l170 700h85l169 -430h2l169 430h85z" />
    <glyph glyph-name="N" unicode="N" horiz-adv-x="699" 
d="M629 0h-109l-344 523h-2v-523h-104v700h109l344 -523h2v523h104v-700z" />
    <glyph glyph-name="O" unicode="O" horiz-adv-x="800" 
d="M586.5 668.5c55.667 -31 99.334 -74.167 131.001 -129.5s47.5 -118.333 47.5 -189s-15.833 -133.667 -47.5 -189s-75.334 -98.5 -131.001 -129.5s-117.834 -46.5 -186.501 -46.5s-130.834 15.5 -186.501 46.5s-99.334 74.167 -131.001 129.5s-47.5 118.333 -47.5 189
s15.833 133.667 47.5 189s75.334 98.5 131.001 129.5s117.834 46.5 186.501 46.5s130.834 -15.5 186.501 -46.5zM270 575.5c-38 -22.333 -67.667 -53.166 -89 -92.499s-32 -83.666 -32 -132.999s10.667 -93.666 32 -132.999s51 -70.166 89 -92.499s81.333 -33.5 130 -33.5
s92 11.167 130 33.5s67.667 53.166 89 92.499s32 83.666 32 132.999s-10.667 93.666 -32 132.999s-51 70.166 -89 92.499s-81.333 33.5 -130 33.5s-92 -11.167 -130 -33.5z" />
    <glyph glyph-name="P" unicode="P" horiz-adv-x="541" 
d="M426 672.5c32.667 -18.333 57.5 -43.5 74.5 -75.5s25.5 -68.333 25.5 -109s-8.5 -77 -25.5 -109s-41.833 -57.167 -74.5 -75.5s-71.667 -27.5 -117 -27.5h-135v-276h-104v700h239c45.333 0 84.333 -9.16699 117 -27.5zM382 403.5c21.333 19.667 32 47.832 32 84.499
s-10.667 64.834 -32 84.501s-50.333 29.5 -87 29.5h-121v-228h121c36.667 0 65.667 9.83301 87 29.5z" />
    <glyph glyph-name="Q" unicode="Q" horiz-adv-x="799" 
d="M647 0l-42.002 43c-60.667 -38.667 -129 -58 -205 -58c-68.667 0 -130.834 15.5 -186.501 46.5s-99.334 74.167 -131.001 129.5s-47.5 118.333 -47.5 189s15.833 133.667 47.5 189s75.334 98.5 131.001 129.5s117.834 46.5 186.501 46.5s130.834 -15.5 186.501 -46.5
s99.334 -74.167 131.001 -129.5s47.5 -118.333 47.5 -189c0 -48 -7.66699 -93 -23 -135s-37 -78.667 -65 -110l102 -105h-132zM526.998 123l-149 151.998h133l88 -90c34.667 46 52 101 52 165c0 49.333 -10.667 93.666 -32 132.999s-51 70.166 -89 92.499
s-81.333 33.5 -130 33.5s-92 -11.167 -130 -33.5s-67.667 -53.166 -89 -92.499s-32 -83.666 -32 -132.999s10.667 -93.666 32 -132.999s51 -70.166 89 -92.499s81.333 -33.5 130 -33.5c48 0 90.333 10.667 127 32z" />
    <glyph glyph-name="R" unicode="R" horiz-adv-x="582" 
d="M237 291l-62.998 -0.000976562v-291h-104v700h239c41.333 0 78.166 -8.33301 110.499 -25s57.666 -40.5 75.999 -71.5s27.5 -67.5 27.5 -109.5c0 -52.667 -14.833 -96.667 -44.5 -132s-69.167 -57.666 -118.5 -66.999l212 -295h-131zM174.002 388.999l118 -0.000976562
c40 0 69.833 9.5 89.5 28.5s29.5 44.5 29.5 76.5c0 32.667 -9.83301 58.834 -29.5 78.501s-49.5 29.5 -89.5 29.5h-118v-213z" />
    <glyph glyph-name="S" unicode="S" horiz-adv-x="500" 
d="M445 668l-46.998 -99.001c-22 12.667 -45.333 22.667 -70 30s-48.334 11 -71.001 11c-53.333 0 -80 -20 -80 -60c0 -15.333 4.33301 -29.166 13 -41.499s22.667 -26.166 42 -41.499l125 -96c37.333 -28.667 64.666 -57.834 81.999 -87.501s26 -63.834 26 -102.501
c0 -62.667 -20.333 -111 -61 -145s-95 -51 -163 -51c-42 0 -82.667 6 -122 18s-74 27.667 -104 47l47 98c66 -38 126 -57 180 -57c36 0 63.5 7.83301 82.5 23.5s28.5 35.834 28.5 60.501c0 18.667 -5.83301 36 -17.5 52s-30.5 34.333 -56.5 55l-119 94
c-32 24.667 -56 50.5 -72 77.5s-24 57.833 -24 92.5c0 52 17.333 93.167 52 123.5s82.667 45.5 144 45.5c62 0 123.667 -15.667 185 -47z" />
    <glyph glyph-name="T" unicode="T" horiz-adv-x="518" 
d="M508 602h-197v-602h-104v602h-197v98h498v-98z" />
    <glyph glyph-name="U" unicode="U" horiz-adv-x="682" 
d="M622 270c0 -57.333 -11.5 -107.5 -34.5 -150.5s-55.667 -76.167 -98 -99.5s-91.833 -35 -148.5 -35s-106.167 11.667 -148.5 35s-75 56.5 -98 99.5s-34.5 93.167 -34.5 150.5v430h109v-427c0 -55.333 16.167 -99.166 48.5 -131.499s73.5 -48.5 123.5 -48.5
s91.167 16.167 123.5 48.5s48.5 76.166 48.5 131.499v427h109v-430z" />
    <glyph glyph-name="V" unicode="V" horiz-adv-x="615" 
d="M356 0h-97l-254 700h120l181 -552h3l181 552h120z" />
    <glyph glyph-name="W" unicode="W" horiz-adv-x="985" 
d="M760 0h-102l-164 524h-3l-164 -524h-102l-210 700h116l144 -534h2l164 534h103l164 -534h2l144 534h116z" />
    <glyph glyph-name="X" unicode="X" horiz-adv-x="620" 
d="M487 0l-177 287l-176 -287h-124l235 373l-204 327h124l145 -239l146 239h123l-204 -327l235 -373h-123z" />
    <glyph glyph-name="Y" unicode="Y" horiz-adv-x="543" 
d="M324 281v-281h-105v280l-219 420h121l149 -309h3l149 309h121z" />
    <glyph glyph-name="Z" unicode="Z" horiz-adv-x="542" 
d="M522 98v-98h-502v98l362 504h-330v98h455v-98l-362 -504h377z" />
    <glyph glyph-name="bracketleft" unicode="[" horiz-adv-x="348" 
d="M338 666h-130v-793h130v-88h-228v970h228v-89z" />
    <glyph glyph-name="backslash" unicode="\" horiz-adv-x="607" 
d="M30 739l77 43l470 -841l-78 -42z" />
    <glyph glyph-name="bracketright" unicode="]" horiz-adv-x="348" 
d="M10 -127h130v793h-130v89h228v-970h-228v88z" />
    <glyph glyph-name="asciicircum" unicode="^" 
d="M489 393h-77l-112 260l-112 -260h-77l144 322h90z" />
    <glyph glyph-name="underscore" unicode="_" horiz-adv-x="533" 
d="M523 -97h-513v82h513v-82z" />
    <glyph glyph-name="grave" unicode="`" horiz-adv-x="321" 
d="M271 553h-76l-145 154h127z" />
    <glyph glyph-name="a" unicode="a" horiz-adv-x="571" 
d="M142 15c-34 20 -61.167 48.5 -81.5 85.5s-30.5 80.5 -30.5 130.5s10.167 93.5 30.5 130.5s47.5 65.5 81.5 85.5s71.667 30 113 30c36.667 0 68 -7.33301 94 -22s46.667 -35 62 -61h2v68h98v-462h-98v68h-2c-15.333 -26 -36 -46.333 -62 -61s-57.333 -22 -94 -22
c-41.333 0 -79 10 -113 30zM379 122.5c26 27.667 39 63.834 39 108.501s-13 80.834 -39 108.501s-60.333 41.5 -103 41.5s-77 -13.833 -103 -41.5s-39 -63.834 -39 -108.501s13 -80.834 39 -108.501s60.333 -41.5 103 -41.5s77 13.833 103 41.5z" />
    <glyph glyph-name="b" unicode="b" horiz-adv-x="576" 
d="M227 7c-26 14.667 -46.667 35 -62 61h-2v-68h-98v700h98v-306h2c15.333 26 36 46.333 62 61s57.333 22 94 22c41.333 0 79 -10 113 -30s61.167 -48.5 81.5 -85.5s30.5 -80.5 30.5 -130.5s-10.167 -93.5 -30.5 -130.5s-47.5 -65.5 -81.5 -85.5s-71.667 -30 -113 -30
c-36.667 0 -68 7.33301 -94 22zM403 122.5c26 27.667 39 63.834 39 108.501s-13 80.834 -39 108.501s-60.333 41.5 -103 41.5s-77 -13.833 -103 -41.5s-39 -63.834 -39 -108.501s13 -80.834 39 -108.501s60.333 -41.5 103 -41.5s77 13.833 103 41.5z" />
    <glyph glyph-name="c" unicode="c" horiz-adv-x="462" 
d="M152.5 16c-38.333 20.667 -68.333 49.667 -90 87s-32.5 80 -32.5 128s10.833 90.667 32.5 128s51.667 66.333 90 87s82.166 31 131.499 31c58 0 110.667 -15.667 158 -47l-46 -83c-37.333 23.333 -75.666 35 -114.999 35c-44 0 -79.5 -14.167 -106.5 -42.5
s-40.5 -64.5 -40.5 -108.5s13.5 -80.167 40.5 -108.5s62.5 -42.5 106.5 -42.5c39.333 0 77.666 11.667 114.999 35l46 -83c-47.333 -31.333 -100 -47 -158 -47c-49.333 0 -93.166 10.333 -131.499 31z" />
    <glyph glyph-name="d" unicode="d" horiz-adv-x="576" 
d="M142 15c-34 20 -61.167 48.5 -81.5 85.5s-30.5 80.5 -30.5 130.5s10.167 93.5 30.5 130.5s47.5 65.5 81.5 85.5s71.667 30 113 30c36.667 0 68 -7.33301 94 -22s46.667 -35 62 -61h2v306h98v-700h-98v68h-2c-15.333 -26 -36 -46.333 -62 -61s-57.333 -22 -94 -22
c-41.333 0 -79 10 -113 30zM379 122.5c26 27.667 39 63.834 39 108.501s-13 80.834 -39 108.501s-60.333 41.5 -103 41.5s-77 -13.833 -103 -41.5s-39 -63.834 -39 -108.501s13 -80.834 39 -108.501s60.333 -41.5 103 -41.5s77 13.833 103 41.5z" />
    <glyph glyph-name="e" unicode="e" horiz-adv-x="517" 
d="M428.5 410.5c39 -44.333 58.501 -104.169 58.501 -179.502v-16h-358c2 -40.667 15.833 -73.5 41.5 -98.5s58.5 -37.5 98.5 -37.5c33.333 0 61.166 7.83301 83.499 23.5s41.833 34.834 58.5 57.501l69 -65c-53.333 -73.333 -123 -110 -209 -110
c-48.667 0 -91.167 10.167 -127.5 30.5s-64.333 49 -84 86s-29.5 79.833 -29.5 128.5c0 46.667 9.5 88.834 28.5 126.501s46.333 67.167 82 88.5s77.5 32 125.5 32c69.333 0 123.5 -22.167 162.5 -66.5zM176.001 360.997c-22 -17.333 -36 -42.333 -42 -75h247
c-2 32 -13.833 56.833 -35.5 74.5s-50.167 26.5 -85.5 26.5c-34 0 -62 -8.66699 -84 -26z" />
    <glyph glyph-name="f" unicode="f" horiz-adv-x="300" 
d="M214 597.5c-15.333 -14.333 -23.001 -37.167 -23.001 -68.5v-67h91v-83h-91v-379h-98v379h-73v83h73v64c0 57.333 15.5 102.333 46.5 135s74.833 49 131.5 49h19v-91h-15c-25.333 0 -45.666 -7.16699 -60.999 -21.5z" />
    <glyph glyph-name="g" unicode="g" horiz-adv-x="571" 
d="M115 -194l19 95c62.667 -14 115.667 -21 159 -21c30 0 53.667 4 71 12s29.833 21.667 37.5 41s11.5 46 11.5 80v55h-2c-15.333 -26 -36 -46.333 -62 -61s-57.333 -22 -94 -22c-41.333 0 -79 10 -113 30s-61.167 48.5 -81.5 85.5s-30.5 80.5 -30.5 130.5
s10.167 93.5 30.5 130.5s47.5 65.5 81.5 85.5s71.667 30 113 30c36.667 0 68 -7.33301 94 -22s46.667 -35 62 -61h2v68h98v-462c-1.33301 -57.333 -11.5 -101.833 -30.5 -133.5s-44 -53.167 -75 -64.5s-68.5 -17 -112.5 -17c-46 0 -105.333 7 -178 21zM379 122.5
c26 27.667 39 63.834 39 108.501s-13 80.834 -39 108.501s-60.333 41.5 -103 41.5s-77 -13.833 -103 -41.5s-39 -63.834 -39 -108.501s13 -80.834 39 -108.501s60.333 -41.5 103 -41.5s77 13.833 103 41.5z" />
    <glyph glyph-name="h" unicode="h" horiz-adv-x="545" 
d="M163 392h1.99902c32 56.667 82.333 85 151 85c52.667 0 94.834 -15.5 126.501 -46.5s47.5 -79.833 47.5 -146.5v-284h-98v267c0 74.667 -35.333 112 -106 112c-38 0 -68 -12.667 -90 -38s-33 -65.333 -33 -120v-221h-98v700h98v-308z" />
    <glyph glyph-name="i" unicode="i" horiz-adv-x="228" 
d="M65 462h98v-462h-98v462zM174 570h-120v120h120v-120z" />
    <glyph glyph-name="j" unicode="j" horiz-adv-x="228" 
d="M12 -114c18.667 0 32.167 4.33203 40.5 12.999s12.5 23 12.5 43v520h98v-530c0 -43.333 -11.833 -76.666 -35.5 -99.999s-57.167 -35 -100.5 -35h-33v89h18zM174 569.999h-120v120h120v-120z" />
    <glyph glyph-name="k" unicode="k" horiz-adv-x="483" 
d="M349 0l-186 227v-227h-98v700h98v-435l165 197h129l-194 -210l215 -252h-129z" />
    <glyph glyph-name="l" unicode="l" horiz-adv-x="228" 
d="M163 0h-98v700h98v-700z" />
    <glyph glyph-name="m" unicode="m" horiz-adv-x="799" 
d="M60 462h98.001v-72h2c12.667 30 31.167 52 55.5 66s52.166 21 83.499 21c67.333 0 114 -31.333 140 -94h2c13.333 31.333 33 54.833 59 70.5s54.667 23.5 86 23.5c46.667 0 84.667 -15.667 114 -47s44 -79.333 44 -144v-286h-98v281c0 32 -7.83301 56.333 -23.5 73
s-38.167 25 -67.5 25c-32 0 -57.333 -11.167 -76 -33.5s-28 -57.5 -28 -105.5v-240h-98v281c0 32 -7.83301 56.333 -23.5 73s-38.5 25 -68.5 25c-31.333 0 -56.333 -11.333 -75 -34s-28 -58 -28 -106v-239h-98v462z" />
    <glyph glyph-name="n" unicode="n" horiz-adv-x="540" 
d="M438 430.5c31.333 -31 47.001 -79.833 47.001 -146.5v-284h-98v267c0 74.667 -35.333 112 -106 112c-38 0 -68 -12.667 -90 -38s-33 -65.333 -33 -120v-221h-98v462h98v-70h2c32 56.667 82.333 85 151 85c53.333 0 95.666 -15.5 126.999 -46.5z" />
    <glyph glyph-name="o" unicode="o" horiz-adv-x="566" 
d="M412.5 445c38.333 -21.333 68.5 -50.666 90.5 -87.999s33 -79.333 33 -126s-11 -88.667 -33 -126s-52.167 -66.666 -90.5 -87.999s-81.5 -32 -129.5 -32s-91.167 10.667 -129.5 32s-68.5 50.666 -90.5 87.999s-33 79.333 -33 126s11 88.667 33 126
s52.167 66.666 90.5 87.999s81.5 32 129.5 32s91.167 -10.667 129.5 -32zM175.5 340c-27.667 -27.333 -41.5 -63.666 -41.5 -108.999s13.833 -81.666 41.5 -108.999s63.5 -41 107.5 -41s79.833 13.667 107.5 41s41.5 63.666 41.5 108.999s-13.833 81.666 -41.5 108.999
s-63.5 41 -107.5 41s-79.833 -13.667 -107.5 -41z" />
    <glyph glyph-name="p" unicode="p" horiz-adv-x="571" 
d="M60 462h98v-68h2c15.333 26 36 46.333 62 61s57.333 22 94 22c41.333 0 79 -10 113 -30s61.167 -48.5 81.5 -85.5s30.5 -80.5 30.5 -130.5s-10.167 -93.5 -30.5 -130.5s-47.5 -65.5 -81.5 -85.5s-71.667 -30 -113 -30c-36.667 0 -68 7.33301 -94 22s-46.667 35 -62 61h-2
v-268h-98v662zM398 122.5c26 27.667 39 63.834 39 108.501s-13 80.834 -39 108.501s-60.333 41.5 -103 41.5s-77 -13.833 -103 -41.5s-39 -63.834 -39 -108.501s13 -80.834 39 -108.501s60.333 -41.5 103 -41.5s77 13.833 103 41.5z" />
    <glyph glyph-name="q" unicode="q" horiz-adv-x="571" 
d="M413 68h-2c-15.333 -26 -36 -46.333 -62 -61s-57.333 -22 -94 -22c-41.333 0 -79 10 -113 30s-61.167 48.5 -81.5 85.5s-30.5 80.5 -30.5 130.5s10.167 93.5 30.5 130.5s47.5 65.5 81.5 85.5s71.667 30 113 30c36.667 0 68 -7.33301 94 -22s46.667 -35 62 -61h2v68h98
v-662h-98v268zM379 122.5c26 27.667 39 63.834 39 108.501s-13 80.834 -39 108.501s-60.333 41.5 -103 41.5s-77 -13.833 -103 -41.5s-39 -63.834 -39 -108.501s13 -80.834 39 -108.501s60.333 -41.5 103 -41.5s77 13.833 103 41.5z" />
    <glyph glyph-name="r" unicode="r" horiz-adv-x="330" 
d="M320 361h-14.998c-48.667 0 -85.334 -12.5 -110.001 -37.5s-37 -64.5 -37 -118.5v-205h-98v462h98v-101h2c11.333 35.333 30.166 63.333 56.499 84s58.5 31 96.5 31h7v-115z" />
    <glyph glyph-name="s" unicode="s" horiz-adv-x="403" 
d="M104.5 -2c-33 8.66699 -62.834 20.666 -89.501 35.999l44 87c50.667 -29.333 99.667 -44 147 -44c48 0 72 14.333 72 43c0 10 -3.5 18.833 -10.5 26.5s-19.833 16.167 -38.5 25.5l-84 41c-64.667 30.667 -97 75 -97 133c0 42 14.5 74.333 43.5 97s69.167 34 120.5 34
c26 0 52.833 -3.16699 80.5 -9.5s54.167 -15.166 79.5 -26.499l-40 -85c-46.667 20 -87.667 30 -123 30c-38 0 -57 -11.667 -57 -35c0 -11.333 3.83301 -21 11.5 -29s21.5 -16.667 41.5 -26l86 -41c30.667 -14 53.667 -31.5 69 -52.5s23 -46.833 23 -77.5
c0 -46 -16.167 -80.833 -48.5 -104.5s-76.166 -35.5 -131.499 -35.5c-32.667 0 -65.5 4.33301 -98.5 13z" />
    <glyph glyph-name="t" unicode="t" horiz-adv-x="309" 
d="M195 379l-0.000976562 -241.999c0 -16.667 3.83301 -28.834 11.5 -36.501s19.834 -11.5 36.501 -11.5h24v-90h-45c-40.667 0 -71.667 10.333 -93 31s-32 50 -32 88v261h-82v83h82v185h98v-185h94v-83h-94z" />
    <glyph glyph-name="u" unicode="u" horiz-adv-x="526" 
d="M102.5 33.5c-31.667 32.333 -47.501 81.833 -47.501 148.5v280h100v-270c0 -37.333 8.5 -65.333 25.5 -84s40.833 -28 71.5 -28c36 0 64.333 12.833 85 38.5s31 66.5 31 122.5v221h98v-462h-98v70h-2c-12.667 -25.333 -30.667 -45.833 -54 -61.5
s-52.666 -23.5 -87.999 -23.5c-49.333 0 -89.833 16.167 -121.5 48.5z" />
    <glyph glyph-name="v" unicode="v" horiz-adv-x="473" 
d="M468 462l-186 -462h-92l-185 462h115l116 -345l117 345h115z" />
    <glyph glyph-name="w" unicode="w" horiz-adv-x="721" 
d="M716 462l-155 -462h-90l-110 331l-111 -331h-90l-155 462h108l93 -333l107 333h95l107 -333l93 333h108z" />
    <glyph glyph-name="x" unicode="x" horiz-adv-x="494" 
d="M247 166l-117 -166h-125l183 243l-157 219h126l90 -144l90 144h126l-157 -219l183 -243h-125z" />
    <glyph glyph-name="y" unicode="y" horiz-adv-x="485" 
d="M480 462l-288 -662h-104l111 242l-194 420h117l127 -303l123 303h108z" />
    <glyph glyph-name="z" unicode="z" horiz-adv-x="436" 
d="M411 91v-91h-386v86l251 285h-241v91h358v-86l-250 -285h268z" />
    <glyph glyph-name="braceleft" unicode="{" horiz-adv-x="401" 
d="M391 659l-30 -0.00390625c-29.333 0 -53.333 -8.5 -72 -25.5s-28 -49.833 -28 -98.5v-98c0 -46 -8.33301 -82 -25 -108s-44 -43.667 -82 -53v-2c38 -9.33301 65.333 -27 82 -53s25 -62 25 -108v-118c0 -49.333 9.33301 -82.333 28 -99s42.667 -25 72 -25h30v-86h-39
c-53.333 0 -98.166 15.833 -134.499 47.5s-54.5 83.834 -54.5 156.501v137c0 28.667 -11.5 51.834 -34.5 69.501s-54.167 27.5 -93.5 29.5v100c39.333 2 70.5 11.833 93.5 29.5s34.5 40.834 34.5 69.501v117c0 72.667 18.167 124.834 54.5 156.501s81.166 47.5 134.499 47.5
h39v-86z" />
    <glyph glyph-name="bar" unicode="|" horiz-adv-x="308" 
d="M198 -215h-88v942h88v-942z" />
    <glyph glyph-name="braceright" unicode="}" horiz-adv-x="401" 
d="M10 -129l30 0.00390625c29.333 0 53.333 8.33301 72 25s28 49.667 28 99v118c0 46 8.33301 82 25 108s44 43.667 82 53v2c-38 9.33301 -65.333 27 -82 53s-25 62 -25 108v98c0 48.667 -9.33301 81.5 -28 98.5s-42.667 25.5 -72 25.5h-30v86h39
c53.333 0 98.166 -15.833 134.499 -47.5s54.5 -83.834 54.5 -156.501v-117c0 -28.667 11.5 -51.834 34.5 -69.501s54.167 -27.5 93.5 -29.5v-100c-39.333 -2 -70.5 -11.833 -93.5 -29.5s-34.5 -40.834 -34.5 -69.501v-137c0 -72.667 -18.167 -124.834 -54.5 -156.501
s-81.166 -47.5 -134.499 -47.5h-39v86z" />
    <glyph glyph-name="asciitilde" unicode="~" 
d="M253.5 370c17 -5.33301 37.165 -13.667 60.498 -25c20.667 -10 37.667 -17.167 51 -21.5s28 -6.5 44 -6.5c22.667 0 42.667 4.83301 60 14.5s37 23.834 59 42.501l44 -70c-29.333 -24.667 -57.166 -43 -83.499 -55s-54.166 -18 -83.499 -18
c-20.667 0 -39.167 2.5 -55.5 7.5s-35.833 12.833 -58.5 23.5c-19.333 9.33301 -36.333 16.5 -51 21.5s-30.667 7.5 -48 7.5c-23.333 0 -43.833 -4.83301 -61.5 -14.5s-37.5 -23.834 -59.5 -42.501l-43 70c29.333 25.333 57.333 44 84 56s54.667 18 84 18
c21.333 0 40.5 -2.66699 57.5 -8z" />
    <glyph glyph-name="uni00A0" unicode="&#xa0;" horiz-adv-x="290" 
 />
    <glyph glyph-name="exclamdown" unicode="&#xa1;" horiz-adv-x="319" 
d="M100 500h119v-119h-119v119zM126 288h67l24 -488h-115z" />
    <glyph glyph-name="cent" unicode="&#xa2;" horiz-adv-x="462" 
d="M355 87.5c22 7 47.667 18.166 77 33.499v-98c-43.333 -25.333 -89 -38 -137 -38h-3v-49h-28v51c-43.333 4 -81.5 17.167 -114.5 39.5s-58.667 51.333 -77 87s-27.5 74.834 -27.5 117.501c0 43.333 9.33301 82.833 28 118.5s44.667 64.667 78 87s71 35.5 113 39.5v55h28
v-54c25.333 0 50 -3.16699 74 -9.5s44.333 -13.833 61 -22.5v-97c-27.333 13.333 -50.833 22.833 -70.5 28.5s-40.167 8.5 -61.5 8.5h-3v-308c20 0 41 3.5 63 10.5zM179.5 128.999c21.667 -27.333 49.832 -44 84.499 -50v303c-35.333 -6 -63.666 -22.333 -84.999 -49
s-32 -60.334 -32 -101.001c0 -41.333 10.833 -75.666 32.5 -102.999z" />
    <glyph glyph-name="sterling" unicode="&#xa3;" horiz-adv-x="522" 
d="M179 96l300.999 0.00195312v-96h-424v75c32.667 19.333 60.167 43.333 82.5 72s33.5 58.667 33.5 90c0 17.333 -3.16699 33.666 -9.5 48.999s-16.166 35 -29.499 59h-93v30h77c-20.667 41.333 -31 81.333 -31 120c0 37.333 8.16699 70.666 24.5 99.999
s40.166 52.5 71.499 69.5s68 25.5 110 25.5c58.667 0 106.667 -16.333 144 -49s56 -80.334 56 -143.001h-100c-1.33301 33.333 -10.833 58.333 -28.5 75s-41.5 25 -71.5 25c-32.667 0 -58.167 -9.66699 -76.5 -29s-27.5 -44.333 -27.5 -75c0 -18.667 3.33301 -37 10 -55
s16.334 -39.333 29.001 -64h180v-30h-165c10 -20 17.667 -38.167 23 -54.5s8 -32.5 8 -48.5c0 -31.333 -9.5 -59.166 -28.5 -83.499s-40.833 -44.5 -65.5 -60.5v-2z" />
    <glyph glyph-name="currency" unicode="&#xa4;" 
d="M522.5 236c-10.333 -27.333 -25.167 -51.002 -44.5 -71.002l55 -55l-20 -19l-55 55c-20.667 -17.333 -44.5 -30.666 -71.5 -39.999s-55.833 -14 -86.5 -14c-61.333 0 -114.333 18 -159 54l-55 -55l-19 20l54 54c-39.333 43.333 -59 96.333 -59 159s19.667 115.667 59 159
l-54 54l20 20l55 -55c20.667 17.333 44.5 30.666 71.5 39.999s55.833 14 86.5 14s59.5 -4.66699 86.5 -14s50.833 -22.666 71.5 -39.999l55 55l20 -20l-54 -54c39.333 -43.333 59 -96.333 59 -159c0 -31.333 -5.16699 -60.666 -15.5 -87.999zM401.499 222.498
c25.667 25.667 38.5 59.5 38.5 101.5s-12.833 75.833 -38.5 101.5s-59.5 38.5 -101.5 38.5s-75.833 -12.833 -101.5 -38.5s-38.5 -59.5 -38.5 -101.5s12.833 -75.833 38.5 -101.5s59.5 -38.5 101.5 -38.5s75.833 12.833 101.5 38.5z" />
    <glyph glyph-name="yen" unicode="&#xa5;" horiz-adv-x="570" 
d="M388 352h115v-30h-129l-27 -56h156v-30h-170v-236h-98v236h-169v30h157l-27 56h-130v30h116l-157 323h115l145 -337l145 337h115z" />
    <glyph glyph-name="brokenbar" unicode="&#xa6;" horiz-adv-x="308" 
d="M198 339h-88v388h88v-388zM198 -215h-88v396h88v-396z" />
    <glyph glyph-name="section" unicode="&#xa7;" horiz-adv-x="548" 
d="M454 -4c0 -46.667 -16.333 -84 -49 -112s-79.334 -42 -140.001 -42c-35.333 0 -68.5 4.83301 -99.5 14.5s-61.5 23.834 -91.5 42.501l54 83c47.333 -31.333 95.333 -47 144 -47c27.333 0 48.166 5.33301 62.499 16s21.5 25 21.5 43c0 22.667 -9.83301 41 -29.5 55
s-50.167 29.667 -91.5 47c-38.667 15.333 -70.334 30.166 -95.001 44.499s-45.834 33.833 -63.501 58.5s-26.5 55.334 -26.5 92.001c0 36 8.5 67.167 25.5 93.5s39.5 48.166 67.5 65.499c-32.667 29.333 -49 66.333 -49 111c0 46.667 16.333 84 49 112s79.334 42 140.001 42
c35.333 0 68.5 -4.83301 99.5 -14.5s61.5 -23.834 91.5 -42.501l-54 -83c-47.333 31.333 -95.333 47 -144 47c-27.333 0 -48.166 -5.33301 -62.499 -16s-21.5 -25 -21.5 -43c0 -22.667 9.83301 -41 29.5 -55s50.167 -29.667 91.5 -47
c38.667 -15.333 70.334 -30.166 95.001 -44.499s45.834 -33.833 63.501 -58.5s26.5 -55.334 26.5 -92.001c0 -36 -8.5 -67.167 -25.5 -93.5s-39.5 -48.166 -67.5 -65.499c32.667 -29.333 49 -66.333 49 -111zM166 248.5c12 -15 27 -27.5 45 -37.5s42 -21.333 72 -34l49 -23
c45.333 28 68 62 68 102c0 20 -6 37.5 -18 52.5s-27 27.5 -45 37.5s-42 21.333 -72 34l-49 23c-45.333 -28 -68 -62 -68 -102c0 -20 6 -37.5 18 -52.5z" />
    <glyph glyph-name="dieresis" unicode="&#xa8;" horiz-adv-x="388" 
d="M150 570h-100v120h100v-120zM338 570h-100v120h100v-120z" />
    <glyph glyph-name="copyright" unicode="&#xa9;" horiz-adv-x="828" 
d="M231 32.5c-55.333 31.667 -99.333 75.334 -132 131.001s-49 117.834 -49 186.501s16.333 130.834 49 186.501s76.667 99.334 132 131.001s116.333 47.5 183 47.5s127.667 -15.833 183 -47.5s99.333 -75.334 132 -131.001s49 -117.834 49 -186.501
s-16.333 -130.834 -49 -186.501s-76.667 -99.334 -132 -131.001s-116.333 -47.5 -183 -47.5s-127.667 15.833 -183 47.5zM566 83c46 26 82.333 62.167 109 108.5s40 99.166 40 158.499s-13.333 112.166 -40 158.499s-63 82.5 -109 108.5s-96.667 39 -152 39
s-106 -13 -152 -39s-82.333 -62.167 -109 -108.5s-40 -99.166 -40 -158.499s13.333 -112.166 40 -158.499s63 -82.5 109 -108.5s96.667 -39 152 -39s106 13 152 39zM299.5 157.5c-35 19.667 -62.5 46.8301 -82.5 81.4971s-30 73.334 -30 116.001s10 81.334 30 116.001
s47.5 61.834 82.5 81.501s74.5 29.5 118.5 29.5c55.333 0 105.666 -16.333 150.999 -49l-37 -68c-18.667 11.333 -37 20.5 -55 27.5s-38.667 10.5 -62 10.5c-42.667 0 -77.334 -13.667 -104.001 -41s-40 -63 -40 -107s13.333 -79.667 40 -107s61.334 -41 104.001 -41
c23.333 0 44 3.5 62 10.5s36.333 16.167 55 27.5l37 -68c-45.333 -32.667 -95.666 -49 -150.999 -49c-44 0 -83.5 9.83301 -118.5 29.5z" />
    <glyph glyph-name="ordfeminine" unicode="&#xaa;" horiz-adv-x="452" 
d="M127 357.5c-23.333 13 -42 31.833 -56 56.5s-21 53.667 -21 87s7 62.333 21 87s32.667 43.5 56 56.5s48.666 19.5 75.999 19.5c52 0 89.333 -20.667 112 -62h2v52h85v-306h-85v52h-2c-22.667 -41.333 -60 -62 -112 -62c-27.333 0 -52.666 6.5 -75.999 19.5zM290 437
c16.667 15.333 25 36.666 25 63.999s-8.33301 48.666 -25 63.999s-37.667 23 -63 23s-46.166 -7.66699 -62.499 -23s-24.5 -36.666 -24.5 -63.999s8.16699 -48.666 24.5 -63.999s37.166 -23 62.499 -23s46.333 7.66699 63 23z" />
    <glyph glyph-name="guillemotleft" unicode="&#xab;" horiz-adv-x="468" 
d="M130 234l147 -159h-110l-147 159l147 159h110zM311 234l147 -159h-110l-147 159l147 159h110z" />
    <glyph glyph-name="logicalnot" unicode="&#xac;" 
d="M529 432v-265h-50v217h-408v48h458z" />
    <glyph glyph-name="uni00AD" unicode="&#xad;" horiz-adv-x="351" 
d="M306 217h-261v96h261v-96z" />
    <glyph glyph-name="registered" unicode="&#xae;" horiz-adv-x="560" 
d="M399 686c34.667 -19.333 61.834 -46.666 81.501 -81.999s29.5 -75.666 29.5 -120.999s-9.83301 -85.666 -29.5 -120.999s-46.834 -62.666 -81.501 -81.999s-74.334 -29 -119.001 -29s-84.334 9.66699 -119.001 29s-61.834 46.666 -81.501 81.999
s-29.5 75.666 -29.5 120.999s9.83301 85.666 29.5 120.999s46.834 62.666 81.501 81.999s74.334 29 119.001 29s84.334 -9.66699 119.001 -29zM379 310.5c29.333 16.333 52.333 39.333 69 69s25 64.167 25 103.5s-8.33301 73.833 -25 103.5s-39.667 52.667 -69 69
s-62.333 24.5 -99 24.5s-69.667 -8.16699 -99 -24.5s-52.333 -39.333 -69 -69s-25 -64.167 -25 -103.5s8.33301 -73.833 25 -103.5s39.667 -52.667 69 -69s62.333 -24.5 99 -24.5s69.667 8.16699 99 24.5zM359.5 497.5c-11 -13.667 -25.5 -22.5 -43.5 -26.5l72 -110h-44
l-67 108h-38v-108h-35v260h93c22.667 0 41.5 -6.83301 56.5 -20.5s22.5 -31.5 22.5 -53.5c0 -19.333 -5.5 -35.833 -16.5 -49.5zM239 501l51 0.000976562c16 0 28.167 4.16699 36.5 12.5s12.5 18.5 12.5 30.5c0 13.333 -4.33301 24.166 -13 32.499s-20.667 12.5 -36 12.5
h-51v-88z" />
    <glyph glyph-name="macron" unicode="&#xaf;" horiz-adv-x="390" 
d="M340 590h-290v72h290v-72z" />
    <glyph glyph-name="degree" unicode="&#xb0;" horiz-adv-x="352" 
d="M273.5 652c25.667 -25.333 38.5 -58 38.5 -98s-12.833 -72.667 -38.5 -98s-58.167 -38 -97.5 -38s-71.833 12.667 -97.5 38s-38.5 58 -38.5 98s12.833 72.667 38.5 98s58.167 38 97.5 38s71.833 -12.667 97.5 -38zM113 618c-16.667 -16.667 -25 -38 -25 -64
s8.33301 -47.333 25 -64s37.667 -25 63 -25c24.667 0 45.334 8.33301 62.001 25s25 38 25 64s-8.33301 47.333 -25 64s-37.334 25 -62.001 25c-25.333 0 -46.333 -8.33301 -63 -25z" />
    <glyph glyph-name="plusminus" unicode="&#xb1;" 
d="M325 385h214v-48h-214v-137h-50v137h-214v48h214v137h50v-137zM539 108h-478v48h478v-48z" />
    <glyph glyph-name="two.sups" unicode="&#xb2;" horiz-adv-x="391" 
d="M39 428l166 147.999c22.667 20 38.334 36.5 47.001 49.5s13 27.167 13 42.5c0 16.667 -6 29.834 -18 39.501s-28.333 14.5 -49 14.5c-21.333 0 -39 -5.83301 -53 -17.5s-21.333 -30.167 -22 -55.5h-88c0 50.667 14.5 89.167 43.5 115.5s69.5 39.5 121.5 39.5
c50 0 88.333 -11.833 115 -35.5s40 -56.167 40 -97.5c0 -28 -6.83301 -53.333 -20.5 -76s-32.834 -45 -57.501 -67l-112 -95h196v-85h-322v80z" />
    <glyph glyph-name="three.sups" unicode="&#xb3;" horiz-adv-x="407" 
d="M80.5 370.5c-29.667 21.667 -44.834 57.8311 -45.501 108.498h88c2 -39.333 28.667 -59 80 -59c26.667 0 46.834 5.5 60.501 16.5s20.5 26.833 20.5 47.5c0 22.667 -9 38.167 -27 46.5s-47 12.833 -87 13.5v73c36 0.666992 61.667 5.33398 77 14.001s23 21.334 23 38.001
s-5.66699 29.334 -17 38.001s-28 13 -50 13c-47.333 0 -72 -20 -74 -60h-88c0 44.667 14.333 79.667 43 105s69.667 38 123 38c48.667 0 86.5 -10.5 113.5 -31.5s40.5 -49.167 40.5 -84.5c0 -25.333 -7.33301 -46.833 -22 -64.5s-36 -28.834 -64 -33.501v-2
c64.667 -9.33301 97 -46 97 -110c0 -42 -14.167 -75.667 -42.5 -101s-71.833 -38 -130.5 -38c-49.333 0 -88.833 10.833 -118.5 32.5z" />
    <glyph glyph-name="acute" unicode="&#xb4;" horiz-adv-x="321" 
d="M127 553h-77l95 154h126z" />
    <glyph glyph-name="uni00B5" unicode="&#xb5;" 
d="M505 462l-0.000976562 -462h-98v70h-2c-12.667 -25.333 -30.667 -45.833 -54 -61.5s-52.666 -23.5 -87.999 -23.5c-30 0 -57 6 -81 18v-203h-88v662h100v-270c0 -37.333 8.5 -65.333 25.5 -84s40.833 -28 71.5 -28c36 0 64.333 12.833 85 38.5s31 66.5 31 122.5v221h98z
" />
    <glyph glyph-name="paragraph" unicode="&#xb6;" horiz-adv-x="616" 
d="M566 626h-60v-732h-79v732h-104v-732h-79v416c-59.333 0 -106.5 18.167 -141.5 54.5s-52.5 84.5 -52.5 144.5c0 58 18.5 104.333 55.5 139s86.5 52 148.5 52h312v-74z" />
    <glyph glyph-name="periodcentered" unicode="&#xb7;" horiz-adv-x="229" 
d="M174 343h-119v119h119v-119z" />
    <glyph glyph-name="cedilla" unicode="&#xb8;" horiz-adv-x="243" 
d="M124 -36c20.667 -6 37.333 -14.3301 50 -24.9971s19 -26 19 -46c0 -16 -5.5 -29.833 -16.5 -41.5s-24.667 -21.834 -41 -30.501s-40.5 -19.667 -72.5 -33l-13 28c29.333 14.667 50.333 26.167 63 34.5s19 16.833 19 25.5c0 11.333 -4.83301 19.666 -14.5 24.999
s-26.167 10.666 -49.5 15.999l40 111h38z" />
    <glyph glyph-name="one.sups" unicode="&#xb9;" horiz-adv-x="246" 
d="M80 706h-25v88h121v-446h-96v358z" />
    <glyph glyph-name="ordmasculine" unicode="&#xba;" horiz-adv-x="448" 
d="M348.5 619.5c33 -29.667 49.5 -69.167 49.5 -118.5s-16.5 -88.833 -49.5 -118.5s-74.5 -44.5 -124.5 -44.5s-91.5 14.833 -124.5 44.5s-49.5 69.167 -49.5 118.5s16.5 88.833 49.5 118.5s74.5 44.5 124.5 44.5s91.5 -14.833 124.5 -44.5zM163 564
c-16.667 -15.333 -25 -36.333 -25 -63s8.33301 -47.667 25 -63s37 -23 61 -23s44.333 7.66699 61 23s25 36.333 25 63s-8.33301 47.667 -25 63s-37 23 -61 23s-44.333 -7.66699 -61 -23z" />
    <glyph glyph-name="guillemotright" unicode="&#xbb;" horiz-adv-x="468" 
d="M120 393l147 -159l-147 -159h-110l147 159l-147 159h110zM301 393l147 -159l-147 -159h-110l147 159l-147 159h110z" />
    <glyph glyph-name="onequarter" unicode="&#xbc;" horiz-adv-x="655" 
d="M135 289h-57v329h-38v57h95v-386zM450 675h57l-395 -675h-57zM630 73h-51v-73h-59v73h-203v53l184 260h78v-257h51v-56zM520 129v194h-2l-136 -194h138z" />
    <glyph glyph-name="onehalf" unicode="&#xbd;" horiz-adv-x="679" 
d="M135 289h-57v329h-38v57h95v-386zM450 675h57l-395 -675h-57zM601.5 363.5c21.667 -21 32.501 -49.165 32.501 -84.498c0 -23.333 -5.66699 -44.333 -17 -63s-28.333 -38.334 -51 -59.001l-109 -101h177v-56h-261l-1 51l147 139c17.333 16 30.666 30.833 39.999 44.5
s14 28.167 14 43.5c0 17.333 -5.66699 31.5 -17 42.5s-27.333 16.5 -48 16.5c-22 0 -39.667 -5.16699 -53 -15.5s-21.333 -27.833 -24 -52.5h-58c2 41.333 14.833 72.666 38.5 93.999s55.5 32 95.5 32c41.333 0 72.833 -10.5 94.5 -31.5z" />
    <glyph glyph-name="threequarters" unicode="&#xbe;" horiz-adv-x="801" 
d="M275.5 657c21.667 -18 32.4971 -42.335 32.4971 -73.002c0 -46.667 -24 -75.667 -72 -87v-1c56.667 -9.33301 85 -42.666 85 -99.999c0 -35.333 -11.667 -63.5 -35 -84.5s-59.666 -31.5 -108.999 -31.5c-42.667 0 -76.5 10.167 -101.5 30.5s-38.5 49.166 -40.5 86.499h61
c3.33301 -19.333 11.333 -34 24 -44s31.667 -15 57 -15c56 0 84 21.333 84 64c0 22.667 -9.16699 38.834 -27.5 48.501s-46.166 14.5 -83.499 14.5v54c32.667 0.666992 57 5.5 73 14.5s24 22.833 24 41.5c0 34 -22 51 -66 51c-22 0 -40 -5 -54 -15s-21.667 -25.667 -23 -47
h-59c2.66699 38.667 15.667 68.334 39 89.001s56 31 98 31c40.667 0 71.834 -9 93.501 -27zM595.997 674.998h57l-395 -675h-57zM775.997 72.998h-51v-73h-59v73h-203v53l184 260h78v-257h51v-56zM665.997 128.998v194h-2l-136 -194h138z" />
    <glyph glyph-name="questiondown" unicode="&#xbf;" horiz-adv-x="420" 
d="M174 500h119v-119h-119v119zM73.5 -163c-35.667 34.667 -53.5 80.002 -53.5 136.002c0 34 6.83301 63 20.5 87s32.167 47 55.5 69l19 17c24 21.333 41.833 40.166 53.5 56.499s17.5 38.166 17.5 65.499v20h95v-29c0 -25.333 -4 -47.833 -12 -67.5
s-17.667 -36.167 -29 -49.5s-26.333 -29 -45 -47l-24 -23c-16.667 -17.333 -29.334 -33.5 -38.001 -48.5s-13 -32.167 -13 -51.5c0 -27.333 8.33301 -49.5 25 -66.5s41.334 -25.5 74.001 -25.5c33.333 0 60.333 10.5 81 31.5s31 48.5 31 82.5h99
c0 -65.333 -19.167 -116.5 -57.5 -153.5s-89.5 -55.5 -153.5 -55.5c-61.333 0 -109.833 17.333 -145.5 52z" />
    <glyph glyph-name="Agrave" unicode="&#xc0;" horiz-adv-x="678" 
d="M306 743l-147 120h126l95 -120h-74zM492 174h-306l-67 -174h-114l286 700h96l286 -700h-114zM455 270l-116 300l-116 -300h232z" />
    <glyph glyph-name="Aacute" unicode="&#xc1;" horiz-adv-x="678" 
d="M372 743h-74l95 120h126zM492 174h-306l-67 -174h-114l286 700h96l286 -700h-114zM455 270l-116 300l-116 -300h232z" />
    <glyph glyph-name="Acircumflex" unicode="&#xc2;" horiz-adv-x="678" 
d="M264 743h-93l120 120h97l120 -120h-93l-76 75zM492 174h-306l-67 -174h-114l286 700h96l286 -700h-114zM455 270l-116 300l-116 -300h232z" />
    <glyph glyph-name="Atilde" unicode="&#xc3;" horiz-adv-x="678" 
d="M205 744l-37 10.999c7.33301 30.667 19.5 56.334 36.5 77.001s39.167 31 66.5 31c12.667 0 25.667 -2 39 -6s31 -10.333 53 -19c17.333 -7.33301 31.5 -12.666 42.5 -15.999s20.833 -5 29.5 -5c24 0 42.333 15 55 45l37 -11
c-7.33301 -30.667 -19.333 -56.334 -36 -77.001s-38.667 -31 -66 -31c-12.667 0 -26.167 2.16699 -40.5 6.5s-31.5 10.5 -51.5 18.5c-34.667 14 -59 21 -73 21c-24 0 -42.333 -15 -55 -45zM492 173.999h-306l-67 -174h-114l286 700h96l286 -700h-114zM455 269.999l-116 300
l-116 -300h232z" />
    <glyph glyph-name="Adieresis" unicode="&#xc4;" horiz-adv-x="678" 
d="M287 743h-106v104h106v-104zM497 743h-106v104h106v-104zM492 174h-306l-67 -174h-114l286 700h96l286 -700h-114zM455 270l-116 300l-116 -300h232z" />
    <glyph glyph-name="Aring" unicode="&#xc5;" horiz-adv-x="678" 
d="M492 174h-306l-67 -174h-114l273 668c-17.333 10 -31 23.833 -41 41.5s-15 37.5 -15 59.5c0 34 11 62 33 84s50 33 84 33s62 -11 84 -33s33 -50 33 -84c0 -22 -5 -41.833 -15 -59.5s-23.667 -31.5 -41 -41.5l273 -668h-114zM289.5 819.5
c-12.333 -13 -18.5 -29.833 -18.5 -50.5c0 -20 6.16699 -36.5 18.5 -49.5s28.5 -19.5 48.5 -19.5s36.333 6.5 49 19.5s19 29.5 19 49.5c0 20.667 -6.16699 37.5 -18.5 50.5s-28.833 19.5 -49.5 19.5c-20 0 -36.167 -6.5 -48.5 -19.5zM455 270l-116 300l-116 -300h232z" />
    <glyph glyph-name="AE" unicode="&#xc6;" horiz-adv-x="933" 
d="M888 98v-98h-377v174h-265l-110 -174h-131l455 700h423v-98h-270v-166h246v-98h-246v-240h275zM511 270v322l-204 -322h204z" />
    <glyph glyph-name="Ccedilla" unicode="&#xc7;" horiz-adv-x="682" 
d="M419 -15l-7.00098 -21.002c20.667 -6 37.334 -14.333 50.001 -25s19 -26 19 -46c0 -16 -5.5 -29.833 -16.5 -41.5s-24.667 -21.834 -41 -30.501s-40.5 -19.667 -72.5 -33l-13 28c29.333 14.667 50.333 26.167 63 34.5s19 16.833 19 25.5
c0 11.333 -4.83301 19.666 -14.5 24.999s-26.167 10.666 -49.5 15.999l25 69c-68 4 -128.167 21.667 -180.5 53s-93 73.833 -122 127.5s-43.5 114.834 -43.5 183.501c0 72 15.833 135.5 47.5 190.5s75.834 97.833 132.501 128.5s121.667 46 195 46
c93.333 0 175.666 -25.667 246.999 -77l-64 -91c-56.667 41.333 -119 62 -187 62c-48.667 0 -92.5 -10.667 -131.5 -32s-69.667 -51.666 -92 -90.999s-33.5 -84.666 -33.5 -135.999s11.167 -96.666 33.5 -135.999s53 -69.666 92 -90.999s82.833 -32 131.5 -32
c68 0 130.333 20.667 187 62l64 -91c-68 -49.333 -147.333 -75 -238 -77z" />
    <glyph glyph-name="Egrave" unicode="&#xc8;" horiz-adv-x="520" 
d="M257 743l-147 120h126l95 -120h-74zM475 98v-98h-405v700h400v-98h-296v-166h273v-98h-273v-240h301z" />
    <glyph glyph-name="Eacute" unicode="&#xc9;" horiz-adv-x="520" 
d="M323 743h-74l95 120h126zM475 98v-98h-405v700h400v-98h-296v-166h273v-98h-273v-240h301z" />
    <glyph glyph-name="Ecircumflex" unicode="&#xca;" horiz-adv-x="520" 
d="M215 743h-93l120 120h97l120 -120h-93l-76 75zM475 98v-98h-405v700h400v-98h-296v-166h273v-98h-273v-240h301z" />
    <glyph glyph-name="Edieresis" unicode="&#xcb;" horiz-adv-x="520" 
d="M238 743h-106v104h106v-104zM448 743h-106v104h106v-104zM475 98v-98h-405v700h400v-98h-296v-166h273v-98h-273v-240h301z" />
    <glyph glyph-name="Igrave" unicode="&#xcc;" horiz-adv-x="246" 
d="M164 743h-74l-147 120h126zM176 0h-106v700h106v-700z" />
    <glyph glyph-name="Iacute" unicode="&#xcd;" horiz-adv-x="246" 
d="M156 743h-74l95 120h126zM176 0h-106v700h106v-700z" />
    <glyph glyph-name="Icircumflex" unicode="&#xce;" horiz-adv-x="246" 
d="M292 743h-93l-76 75l-75 -75h-93l120 120h97zM176 0h-106v700h106v-700z" />
    <glyph glyph-name="Idieresis" unicode="&#xcf;" horiz-adv-x="246" 
d="M71 743h-106v104h106v-104zM281 743h-106v104h106v-104zM176 0h-106v700h106v-700z" />
    <glyph glyph-name="Eth" unicode="&#xd0;" horiz-adv-x="693" 
d="M487 657.5c53.333 -28.333 95.166 -68.833 125.499 -121.5s45.5 -114.667 45.5 -186s-15.167 -133.333 -45.5 -186s-72.166 -93.167 -125.499 -121.5s-113.666 -42.5 -180.999 -42.5h-226v313h-80v84h80v303h226c67.333 0 127.666 -14.167 180.999 -42.5zM428.5 127
c36.333 19.333 64.666 48 84.999 86s30.5 83.667 30.5 137s-10.167 99 -30.5 137s-48.666 66.667 -84.999 86s-77.5 29 -123.5 29h-121v-205h162v-84h-162v-215h121c46 0 87.167 9.66699 123.5 29z" />
    <glyph glyph-name="Ntilde" unicode="&#xd1;" horiz-adv-x="699" 
d="M394.5 749.5c-14.333 4.33301 -31.5 10.499 -51.5 18.499c-34.667 14 -59 21 -73 21c-24 0 -42.333 -15 -55 -45l-37 11c7.33301 30.667 19.5 56.334 36.5 77.001s39.167 31 66.5 31c12.667 0 25.667 -2 39 -6s31 -10.333 53 -19
c17.333 -7.33301 31.5 -12.666 42.5 -15.999s20.833 -5 29.5 -5c24 0 42.333 15 55 45l37 -11c-7.33301 -30.667 -19.333 -56.334 -36 -77.001s-38.667 -31 -66 -31c-12.667 0 -26.167 2.16699 -40.5 6.5zM629 -0.000976562h-109l-344 523h-2v-523h-104v700h109l344 -523h2
v523h104v-700z" />
    <glyph glyph-name="Ograve" unicode="&#xd2;" horiz-adv-x="800" 
d="M442 743h-74l-147 120h126zM586.5 668.5c55.667 -31 99.334 -74.167 131.001 -129.5s47.5 -118.333 47.5 -189s-15.833 -133.667 -47.5 -189s-75.334 -98.5 -131.001 -129.5s-117.834 -46.5 -186.501 -46.5s-130.834 15.5 -186.501 46.5s-99.334 74.167 -131.001 129.5
s-47.5 118.333 -47.5 189s15.833 133.667 47.5 189s75.334 98.5 131.001 129.5s117.834 46.5 186.501 46.5s130.834 -15.5 186.501 -46.5zM270 575.5c-38 -22.333 -67.667 -53.166 -89 -92.499s-32 -83.666 -32 -132.999s10.667 -93.666 32 -132.999s51 -70.166 89 -92.499
s81.333 -33.5 130 -33.5s92 11.167 130 33.5s67.667 53.166 89 92.499s32 83.666 32 132.999s-10.667 93.666 -32 132.999s-51 70.166 -89 92.499s-81.333 33.5 -130 33.5s-92 -11.167 -130 -33.5z" />
    <glyph glyph-name="Oacute" unicode="&#xd3;" horiz-adv-x="800" 
d="M434 743h-74l95 120h126zM586.5 668.5c55.667 -31 99.334 -74.167 131.001 -129.5s47.5 -118.333 47.5 -189s-15.833 -133.667 -47.5 -189s-75.334 -98.5 -131.001 -129.5s-117.834 -46.5 -186.501 -46.5s-130.834 15.5 -186.501 46.5s-99.334 74.167 -131.001 129.5
s-47.5 118.333 -47.5 189s15.833 133.667 47.5 189s75.334 98.5 131.001 129.5s117.834 46.5 186.501 46.5s130.834 -15.5 186.501 -46.5zM270 575.5c-38 -22.333 -67.667 -53.166 -89 -92.499s-32 -83.666 -32 -132.999s10.667 -93.666 32 -132.999s51 -70.166 89 -92.499
s81.333 -33.5 130 -33.5s92 11.167 130 33.5s67.667 53.166 89 92.499s32 83.666 32 132.999s-10.667 93.666 -32 132.999s-51 70.166 -89 92.499s-81.333 33.5 -130 33.5s-92 -11.167 -130 -33.5z" />
    <glyph glyph-name="Ocircumflex" unicode="&#xd4;" horiz-adv-x="800" 
d="M570 743h-93l-76 75l-75 -75h-93l120 120h97zM586.5 668.5c55.667 -31 99.334 -74.167 131.001 -129.5s47.5 -118.333 47.5 -189s-15.833 -133.667 -47.5 -189s-75.334 -98.5 -131.001 -129.5s-117.834 -46.5 -186.501 -46.5s-130.834 15.5 -186.501 46.5
s-99.334 74.167 -131.001 129.5s-47.5 118.333 -47.5 189s15.833 133.667 47.5 189s75.334 98.5 131.001 129.5s117.834 46.5 186.501 46.5s130.834 -15.5 186.501 -46.5zM270 575.5c-38 -22.333 -67.667 -53.166 -89 -92.499s-32 -83.666 -32 -132.999
s10.667 -93.666 32 -132.999s51 -70.166 89 -92.499s81.333 -33.5 130 -33.5s92 11.167 130 33.5s67.667 53.166 89 92.499s32 83.666 32 132.999s-10.667 93.666 -32 132.999s-51 70.166 -89 92.499s-81.333 33.5 -130 33.5s-92 -11.167 -130 -33.5z" />
    <glyph glyph-name="Otilde" unicode="&#xd5;" horiz-adv-x="800" 
d="M446.5 749.5c-14.333 4.33301 -31.5 10.499 -51.5 18.499c-34.667 14 -59 21 -73 21c-24 0 -42.333 -15 -55 -45l-37 11c7.33301 30.667 19.5 56.334 36.5 77.001s39.167 31 66.5 31c12.667 0 25.667 -2 39 -6s31 -10.333 53 -19
c17.333 -7.33301 31.5 -12.666 42.5 -15.999s20.833 -5 29.5 -5c24 0 42.333 15 55 45l37 -11c-7.33301 -30.667 -19.333 -56.334 -36 -77.001s-38.667 -31 -66 -31c-12.667 0 -26.167 2.16699 -40.5 6.5zM586.5 668.499c55.667 -31 99.334 -74.167 131.001 -129.5
s47.5 -118.333 47.5 -189s-15.833 -133.667 -47.5 -189s-75.334 -98.5 -131.001 -129.5s-117.834 -46.5 -186.501 -46.5s-130.834 15.5 -186.501 46.5s-99.334 74.167 -131.001 129.5s-47.5 118.333 -47.5 189s15.833 133.667 47.5 189s75.334 98.5 131.001 129.5
s117.834 46.5 186.501 46.5s130.834 -15.5 186.501 -46.5zM270 575.499c-38 -22.333 -67.667 -53.166 -89 -92.499s-32 -83.666 -32 -132.999s10.667 -93.666 32 -132.999s51 -70.166 89 -92.499s81.333 -33.5 130 -33.5s92 11.167 130 33.5s67.667 53.166 89 92.499
s32 83.666 32 132.999s-10.667 93.666 -32 132.999s-51 70.166 -89 92.499s-81.333 33.5 -130 33.5s-92 -11.167 -130 -33.5z" />
    <glyph glyph-name="Odieresis" unicode="&#xd6;" horiz-adv-x="800" 
d="M349 743h-106v104h106v-104zM559 743h-106v104h106v-104zM586.5 668.5c55.667 -31 99.334 -74.167 131.001 -129.5s47.5 -118.333 47.5 -189s-15.833 -133.667 -47.5 -189s-75.334 -98.5 -131.001 -129.5s-117.834 -46.5 -186.501 -46.5s-130.834 15.5 -186.501 46.5
s-99.334 74.167 -131.001 129.5s-47.5 118.333 -47.5 189s15.833 133.667 47.5 189s75.334 98.5 131.001 129.5s117.834 46.5 186.501 46.5s130.834 -15.5 186.501 -46.5zM270 575.5c-38 -22.333 -67.667 -53.166 -89 -92.499s-32 -83.666 -32 -132.999
s10.667 -93.666 32 -132.999s51 -70.166 89 -92.499s81.333 -33.5 130 -33.5s92 11.167 130 33.5s67.667 53.166 89 92.499s32 83.666 32 132.999s-10.667 93.666 -32 132.999s-51 70.166 -89 92.499s-81.333 33.5 -130 33.5s-92 -11.167 -130 -33.5z" />
    <glyph glyph-name="multiply" unicode="&#xd7;" 
d="M516 479l-181 -181l181 -181l-35 -35l-181 181l-181 -181l-35 35l181 181l-181 181l35 35l181 -181l181 181z" />
    <glyph glyph-name="Oslash" unicode="&#xd8;" horiz-adv-x="800" 
d="M730.5 513c23 -49.333 34.501 -103.668 34.501 -163.001c0 -70.667 -15.833 -133.667 -47.5 -189s-75.334 -98.5 -131.001 -129.5s-117.834 -46.5 -186.501 -46.5c-74 0 -141 18.333 -201 55l-39 -54l-34 21l41 56c-42 32.667 -74.5 73.667 -97.5 123
s-34.5 104 -34.5 164c0 70.667 15.833 133.667 47.5 189s75.334 98.5 131.001 129.5s117.834 46.5 186.501 46.5c75.333 0 142.666 -18.667 201.999 -56l40 55l33 -21l-41 -56c41.333 -33.333 73.5 -74.666 96.5 -123.999zM171.001 237.998
c14.667 -34 35 -62.6689 61 -86.002l306 419c-41.333 25.333 -87.333 38 -138 38c-48.667 0 -92 -11.167 -130 -33.5s-67.667 -53.166 -89 -92.499s-32 -83.666 -32 -132.999c0 -40.667 7.33301 -78 22 -112zM530.001 124.496c38 22.333 67.668 53.167 89.001 92.5
s32 83.666 32 132.999c0 40.667 -7.16699 77.834 -21.5 111.501s-34.5 62.167 -60.5 85.5l-305 -419c39.333 -24.667 84.666 -37 135.999 -37c48.667 0 92 11.167 130 33.5z" />
    <glyph glyph-name="Ugrave" unicode="&#xd9;" horiz-adv-x="682" 
d="M382 743h-74l-147 120h126zM622 270c0 -57.333 -11.5 -107.5 -34.5 -150.5s-55.667 -76.167 -98 -99.5s-91.833 -35 -148.5 -35s-106.167 11.667 -148.5 35s-75 56.5 -98 99.5s-34.5 93.167 -34.5 150.5v430h109v-427c0 -55.333 16.167 -99.166 48.5 -131.499
s73.5 -48.5 123.5 -48.5s91.167 16.167 123.5 48.5s48.5 76.166 48.5 131.499v427h109v-430z" />
    <glyph glyph-name="Uacute" unicode="&#xda;" horiz-adv-x="682" 
d="M374 743h-74l95 120h126zM622 270c0 -57.333 -11.5 -107.5 -34.5 -150.5s-55.667 -76.167 -98 -99.5s-91.833 -35 -148.5 -35s-106.167 11.667 -148.5 35s-75 56.5 -98 99.5s-34.5 93.167 -34.5 150.5v430h109v-427c0 -55.333 16.167 -99.166 48.5 -131.499
s73.5 -48.5 123.5 -48.5s91.167 16.167 123.5 48.5s48.5 76.166 48.5 131.499v427h109v-430z" />
    <glyph glyph-name="Ucircumflex" unicode="&#xdb;" horiz-adv-x="682" 
d="M510 743h-93l-76 75l-75 -75h-93l120 120h97zM622 270c0 -57.333 -11.5 -107.5 -34.5 -150.5s-55.667 -76.167 -98 -99.5s-91.833 -35 -148.5 -35s-106.167 11.667 -148.5 35s-75 56.5 -98 99.5s-34.5 93.167 -34.5 150.5v430h109v-427
c0 -55.333 16.167 -99.166 48.5 -131.499s73.5 -48.5 123.5 -48.5s91.167 16.167 123.5 48.5s48.5 76.166 48.5 131.499v427h109v-430z" />
    <glyph glyph-name="Udieresis" unicode="&#xdc;" horiz-adv-x="682" 
d="M289 743h-106v104h106v-104zM499 743h-106v104h106v-104zM622 270c0 -57.333 -11.5 -107.5 -34.5 -150.5s-55.667 -76.167 -98 -99.5s-91.833 -35 -148.5 -35s-106.167 11.667 -148.5 35s-75 56.5 -98 99.5s-34.5 93.167 -34.5 150.5v430h109v-427
c0 -55.333 16.167 -99.166 48.5 -131.499s73.5 -48.5 123.5 -48.5s91.167 16.167 123.5 48.5s48.5 76.166 48.5 131.499v427h109v-430z" />
    <glyph glyph-name="Yacute" unicode="&#xdd;" horiz-adv-x="543" 
d="M305 743h-74l95 120h126zM324 281v-281h-105v280l-219 420h121l149 -309h3l149 309h121z" />
    <glyph glyph-name="Thorn" unicode="&#xde;" horiz-adv-x="556" 
d="M170 567h124c47.333 0 88 -9 122 -27s60 -43 78 -75s27 -68.333 27 -109s-9 -77 -27 -109s-44 -57.167 -78 -75.5s-74.667 -27.5 -122 -27.5h-124v-144h-100v700h100v-133zM170 471v-231h124c38.667 0 69.5 10 92.5 30s34.5 48.667 34.5 86s-11.5 65.833 -34.5 85.5
s-53.833 29.5 -92.5 29.5h-124z" />
    <glyph glyph-name="germandbls" unicode="&#xdf;" horiz-adv-x="559" 
d="M478.5 342.5c33.667 -32.333 50.498 -77.834 50.498 -136.501c0 -68 -22.833 -120.167 -68.5 -156.5s-109.167 -54.5 -190.5 -54.5h-48v92h39c55.333 0 96.833 9.66699 124.5 29s41.5 51 41.5 95c0 49.333 -16.833 83.833 -50.5 103.5s-84.167 29.5 -151.5 29.5v86
c48 0 83.667 7.66699 107 23s35 40 35 74c0 30.667 -8.66699 54 -26 70s-40.666 24 -69.999 24c-32 0 -58 -9.33301 -78 -28s-30 -46 -30 -82v-641h-98v635c0 62 18.167 112.5 54.5 151.5s87.833 58.5 154.5 58.5c41.333 0 76.333 -7.66699 105 -23s50.334 -36 65.001 -62
s22 -54.667 22 -86c0 -38 -10.833 -69.667 -32.5 -95s-54.167 -42.333 -97.5 -51v-2c61.333 -3.33301 108.833 -21.166 142.5 -53.499z" />
    <glyph glyph-name="agrave" unicode="&#xe0;" horiz-adv-x="571" 
d="M142 15c-34 20 -61.167 48.5 -81.5 85.5s-30.5 80.5 -30.5 130.5s10.167 93.5 30.5 130.5s47.5 65.5 81.5 85.5s71.667 30 113 30c36.667 0 68 -7.33301 94 -22s46.667 -35 62 -61h2v68h98v-462h-98v68h-2c-15.333 -26 -36 -46.333 -62 -61s-57.333 -22 -94 -22
c-41.333 0 -79 10 -113 30zM379 122.5c26 27.667 39 63.834 39 108.501s-13 80.834 -39 108.501s-60.333 41.5 -103 41.5s-77 -13.833 -103 -41.5s-39 -63.834 -39 -108.501s13 -80.834 39 -108.501s60.333 -41.5 103 -41.5s77 13.833 103 41.5zM319 553h-76l-145 154h127z
" />
    <glyph glyph-name="aacute" unicode="&#xe1;" horiz-adv-x="571" 
d="M142 15c-34 20 -61.167 48.5 -81.5 85.5s-30.5 80.5 -30.5 130.5s10.167 93.5 30.5 130.5s47.5 65.5 81.5 85.5s71.667 30 113 30c36.667 0 68 -7.33301 94 -22s46.667 -35 62 -61h2v68h98v-462h-98v68h-2c-15.333 -26 -36 -46.333 -62 -61s-57.333 -22 -94 -22
c-41.333 0 -79 10 -113 30zM379 122.5c26 27.667 39 63.834 39 108.501s-13 80.834 -39 108.501s-60.333 41.5 -103 41.5s-77 -13.833 -103 -41.5s-39 -63.834 -39 -108.501s13 -80.834 39 -108.501s60.333 -41.5 103 -41.5s77 13.833 103 41.5zM320 553h-77l95 154h126z
" />
    <glyph glyph-name="acircumflex" unicode="&#xe2;" horiz-adv-x="571" 
d="M142 15c-34 20 -61.167 48.5 -81.5 85.5s-30.5 80.5 -30.5 130.5s10.167 93.5 30.5 130.5s47.5 65.5 81.5 85.5s71.667 30 113 30c36.667 0 68 -7.33301 94 -22s46.667 -35 62 -61h2v68h98v-462h-98v68h-2c-15.333 -26 -36 -46.333 -62 -61s-57.333 -22 -94 -22
c-41.333 0 -79 10 -113 30zM379 122.5c26 27.667 39 63.834 39 108.501s-13 80.834 -39 108.501s-60.333 41.5 -103 41.5s-77 -13.833 -103 -41.5s-39 -63.834 -39 -108.501s13 -80.834 39 -108.501s60.333 -41.5 103 -41.5s77 13.833 103 41.5zM454 553h-94l-79 95l-79 -95
h-94l124 154h98z" />
    <glyph glyph-name="atilde" unicode="&#xe3;" horiz-adv-x="571" 
d="M142 15c-34 20 -61.167 48.5 -81.5 85.5s-30.5 80.5 -30.5 130.5s10.167 93.5 30.5 130.5s47.5 65.5 81.5 85.5s71.667 30 113 30c36.667 0 68 -7.33301 94 -22s46.667 -35 62 -61h2v68h98v-462h-98v68h-2c-15.333 -26 -36 -46.333 -62 -61s-57.333 -22 -94 -22
c-41.333 0 -79 10 -113 30zM379 122.5c26 27.667 39 63.834 39 108.501s-13 80.834 -39 108.501s-60.333 41.5 -103 41.5s-77 -13.833 -103 -41.5s-39 -63.834 -39 -108.501s13 -80.834 39 -108.501s60.333 -41.5 103 -41.5s77 13.833 103 41.5zM249.5 697.5
c12.333 -4.33301 28.834 -11.5 49.501 -21.5c16.667 -8 29.834 -13.833 39.501 -17.5s18.834 -5.5 27.501 -5.5c11.333 0 21.166 3.66699 29.499 11s16.166 18.666 23.499 33.999l40 -11c-6.66699 -32.667 -18.334 -59.334 -35.001 -80.001s-38.334 -31 -65.001 -31
c-13.333 0 -26.5 2.33301 -39.5 7s-29.5 11.667 -49.5 21c-15.333 8 -27.833 13.833 -37.5 17.5s-18.834 5.5 -27.501 5.5c-11.333 0 -21.166 -3.66699 -29.499 -11s-16.166 -18.666 -23.499 -33.999l-41 11c6.66699 32.667 18.5 59.334 35.5 80.001s38.833 31 65.5 31
c12.667 0 25.167 -2.16699 37.5 -6.5z" />
    <glyph glyph-name="adieresis" unicode="&#xe4;" horiz-adv-x="571" 
d="M142 15c-34 20 -61.167 48.5 -81.5 85.5s-30.5 80.5 -30.5 130.5s10.167 93.5 30.5 130.5s47.5 65.5 81.5 85.5s71.667 30 113 30c36.667 0 68 -7.33301 94 -22s46.667 -35 62 -61h2v68h98v-462h-98v68h-2c-15.333 -26 -36 -46.333 -62 -61s-57.333 -22 -94 -22
c-41.333 0 -79 10 -113 30zM379 122.5c26 27.667 39 63.834 39 108.501s-13 80.834 -39 108.501s-60.333 41.5 -103 41.5s-77 -13.833 -103 -41.5s-39 -63.834 -39 -108.501s13 -80.834 39 -108.501s60.333 -41.5 103 -41.5s77 13.833 103 41.5zM237 570h-100v120h100v-120z
M425 570h-100v120h100v-120z" />
    <glyph glyph-name="aring" unicode="&#xe5;" horiz-adv-x="571" 
d="M142 15c-34 20 -61.167 48.5 -81.5 85.5s-30.5 80.5 -30.5 130.5s10.167 93.5 30.5 130.5s47.5 65.5 81.5 85.5s71.667 30 113 30c36.667 0 68 -7.33301 94 -22s46.667 -35 62 -61h2v68h98v-462h-98v68h-2c-15.333 -26 -36 -46.333 -62 -61s-57.333 -22 -94 -22
c-41.333 0 -79 10 -113 30zM379 122.5c26 27.667 39 63.834 39 108.501s-13 80.834 -39 108.501s-60.333 41.5 -103 41.5s-77 -13.833 -103 -41.5s-39 -63.834 -39 -108.501s13 -80.834 39 -108.501s60.333 -41.5 103 -41.5s77 13.833 103 41.5zM366.5 714
c22.333 -22 33.5 -50 33.5 -84s-11.167 -62 -33.5 -84s-50.833 -33 -85.5 -33s-63.167 11 -85.5 33s-33.5 50 -33.5 84s11.167 62 33.5 84s50.833 33 85.5 33s63.167 -11 85.5 -33zM230.5 680c-13 -13.333 -19.5 -30 -19.5 -50s6.5 -36.667 19.5 -50s29.833 -20 50.5 -20
s37.5 6.66699 50.5 20s19.5 30 19.5 50s-6.5 36.667 -19.5 50s-29.833 20 -50.5 20s-37.5 -6.66699 -50.5 -20z" />
    <glyph glyph-name="ae" unicode="&#xe6;" horiz-adv-x="814" 
d="M101.5 5.5c-28.333 13.667 -50.6641 32.832 -66.9971 57.499s-24.5 53 -24.5 85c0 47.333 17 85.833 51 115.5s78 44.5 132 44.5c29.333 0 56.333 -4.83301 81 -14.5s44 -23.5 58 -41.5h2v40c0 64.667 -35.667 97 -107 97c-39.333 0 -90 -8 -152 -24l-21 87
c28 7.33301 58.833 13.333 92.5 18s62.834 7 87.501 7c81.333 0 133.666 -29.667 156.999 -89h2c15.333 26.667 38.333 48.167 69 64.5s66.334 24.5 107.001 24.5c66.667 0 119.167 -22.167 157.5 -66.5s57.5 -104.166 57.5 -179.499v-16h-354c2 -40 14.5 -72.667 37.5 -98
s56.167 -38 99.5 -38c35.333 0 63.166 7.5 83.499 22.5s39.833 34.5 58.5 58.5l67 -63c-20.667 -30.667 -47.834 -57 -81.501 -79s-74.834 -33 -123.501 -33c-44.667 0 -83.834 10 -117.501 30s-58.167 45.333 -73.5 76h-2c-14.667 -34 -38.667 -60.167 -72 -78.5
s-70 -27.5 -110 -27.5c-34.667 0 -66.167 6.83301 -94.5 20.5zM677.002 285.998c-1.33301 30 -12.667 54.333 -34 73s-49.333 28 -84 28c-32 0 -59 -8.66699 -81 -26s-36.333 -42.333 -43 -75h242zM300.501 91.498c22.333 15 33.501 34.168 33.501 57.501s-11 42 -33 56
s-49.667 21 -83 21c-34 0 -59.833 -7.33301 -77.5 -22s-26.5 -33.334 -26.5 -56.001c0 -23.333 9 -42.333 27 -57s43.333 -22 76 -22c33.333 0 61.166 7.5 83.499 22.5z" />
    <glyph glyph-name="ccedilla" unicode="&#xe7;" horiz-adv-x="462" 
d="M280 -15l-7 -20.9971c20.667 -6 37.334 -14.333 50.001 -25s19 -26 19 -46c0 -16 -5.5 -29.833 -16.5 -41.5s-24.667 -21.834 -41 -30.501s-40.5 -19.667 -72.5 -33l-13 28c29.333 14.667 50.333 26.167 63 34.5s19 16.833 19 25.5
c0 11.333 -4.83301 19.666 -14.5 24.999s-26.167 10.666 -49.5 15.999l25 71c-63.333 8 -114.5 34 -153.5 78s-58.5 99 -58.5 165c0 48 10.833 90.667 32.5 128s51.667 66.333 90 87s82.166 31 131.499 31c58 0 110.667 -15.667 158 -47l-46 -83
c-37.333 23.333 -75.666 35 -114.999 35c-44 0 -79.5 -14.167 -106.5 -42.5s-40.5 -64.5 -40.5 -108.5s13.5 -80.167 40.5 -108.5s62.5 -42.5 106.5 -42.5c39.333 0 77.666 11.667 114.999 35l46 -83c-47.333 -31.333 -100 -47 -158 -47h-4z" />
    <glyph glyph-name="egrave" unicode="&#xe8;" horiz-adv-x="517" 
d="M428.5 410.5c39 -44.333 58.501 -104.169 58.501 -179.502v-16h-358c2 -40.667 15.833 -73.5 41.5 -98.5s58.5 -37.5 98.5 -37.5c33.333 0 61.166 7.83301 83.499 23.5s41.833 34.834 58.5 57.501l69 -65c-53.333 -73.333 -123 -110 -209 -110
c-48.667 0 -91.167 10.167 -127.5 30.5s-64.333 49 -84 86s-29.5 79.833 -29.5 128.5c0 46.667 9.5 88.834 28.5 126.501s46.333 67.167 82 88.5s77.5 32 125.5 32c69.333 0 123.5 -22.167 162.5 -66.5zM176.001 360.997c-22 -17.333 -36 -42.333 -42 -75h247
c-2 32 -13.833 56.833 -35.5 74.5s-50.167 26.5 -85.5 26.5c-34 0 -62 -8.66699 -84 -26zM308.001 552.997h-76l-145 154h127z" />
    <glyph glyph-name="eacute" unicode="&#xe9;" horiz-adv-x="517" 
d="M428.5 410.5c39 -44.333 58.501 -104.169 58.501 -179.502v-16h-358c2 -40.667 15.833 -73.5 41.5 -98.5s58.5 -37.5 98.5 -37.5c33.333 0 61.166 7.83301 83.499 23.5s41.833 34.834 58.5 57.501l69 -65c-53.333 -73.333 -123 -110 -209 -110
c-48.667 0 -91.167 10.167 -127.5 30.5s-64.333 49 -84 86s-29.5 79.833 -29.5 128.5c0 46.667 9.5 88.834 28.5 126.501s46.333 67.167 82 88.5s77.5 32 125.5 32c69.333 0 123.5 -22.167 162.5 -66.5zM176.001 360.997c-22 -17.333 -36 -42.333 -42 -75h247
c-2 32 -13.833 56.833 -35.5 74.5s-50.167 26.5 -85.5 26.5c-34 0 -62 -8.66699 -84 -26zM309.001 552.997h-77l95 154h126z" />
    <glyph glyph-name="ecircumflex" unicode="&#xea;" horiz-adv-x="517" 
d="M428.5 410.5c39 -44.333 58.501 -104.169 58.501 -179.502v-16h-358c2 -40.667 15.833 -73.5 41.5 -98.5s58.5 -37.5 98.5 -37.5c33.333 0 61.166 7.83301 83.499 23.5s41.833 34.834 58.5 57.501l69 -65c-53.333 -73.333 -123 -110 -209 -110
c-48.667 0 -91.167 10.167 -127.5 30.5s-64.333 49 -84 86s-29.5 79.833 -29.5 128.5c0 46.667 9.5 88.834 28.5 126.501s46.333 67.167 82 88.5s77.5 32 125.5 32c69.333 0 123.5 -22.167 162.5 -66.5zM176.001 360.997c-22 -17.333 -36 -42.333 -42 -75h247
c-2 32 -13.833 56.833 -35.5 74.5s-50.167 26.5 -85.5 26.5c-34 0 -62 -8.66699 -84 -26zM443.001 552.997h-94l-79 95l-79 -95h-94l124 154h98z" />
    <glyph glyph-name="edieresis" unicode="&#xeb;" horiz-adv-x="517" 
d="M428.5 410.5c39 -44.333 58.501 -104.169 58.501 -179.502v-16h-358c2 -40.667 15.833 -73.5 41.5 -98.5s58.5 -37.5 98.5 -37.5c33.333 0 61.166 7.83301 83.499 23.5s41.833 34.834 58.5 57.501l69 -65c-53.333 -73.333 -123 -110 -209 -110
c-48.667 0 -91.167 10.167 -127.5 30.5s-64.333 49 -84 86s-29.5 79.833 -29.5 128.5c0 46.667 9.5 88.834 28.5 126.501s46.333 67.167 82 88.5s77.5 32 125.5 32c69.333 0 123.5 -22.167 162.5 -66.5zM176.001 360.997c-22 -17.333 -36 -42.333 -42 -75h247
c-2 32 -13.833 56.833 -35.5 74.5s-50.167 26.5 -85.5 26.5c-34 0 -62 -8.66699 -84 -26zM226.001 569.997h-100v120h100v-120zM414.001 569.997h-100v120h100v-120z" />
    <glyph glyph-name="igrave" unicode="&#xec;" horiz-adv-x="228" 
d="M65 462h98v-462h-98v462zM152 553h-76l-145 154h127z" />
    <glyph glyph-name="iacute" unicode="&#xed;" horiz-adv-x="228" 
d="M65 462h98v-462h-98v462zM153 553h-77l95 154h126z" />
    <glyph glyph-name="icircumflex" unicode="&#xee;" horiz-adv-x="228" 
d="M253 553h-90l-49 95l-49 -95h-90l90 154h98zM65 462h98v-462h-98v462z" />
    <glyph glyph-name="idieresis" unicode="&#xef;" horiz-adv-x="228" 
d="M95 570h-95v120h95v-120zM228 570h-95v120h95v-120zM65 462h98v-462h-98v462z" />
    <glyph glyph-name="eth" unicode="&#xf0;" horiz-adv-x="577" 
d="M537 308c0 -114.667 -24.501 -197.168 -73.501 -247.501s-110.167 -75.5 -183.5 -75.5c-51.333 0 -95.833 10.5 -133.5 31.5s-66.5 50 -86.5 87s-30 78.5 -30 124.5c0 50.667 10.5 94.834 31.5 132.501s49.833 66.5 86.5 86.5s77.667 30 123 30c78 0 134.667 -30 170 -90
h2c-11.333 94 -51.666 167.667 -120.999 221l-111 -91l-34 38l100 82c-42.667 22 -91 37.667 -145 47l19 80c79.333 -13.333 145.333 -36.333 198 -69l81 66l32 -39l-69 -57c96 -77.333 144 -196.333 144 -357zM391.999 121.499c28 27.667 42 64.5 42 110.5
s-14 82.5 -42 109.5s-64.333 40.5 -109 40.5s-80.667 -14 -108 -42s-41 -64.667 -41 -110c0 -46 14 -82.5 42 -109.5s64 -40.5 108 -40.5s80 13.833 108 41.5z" />
    <glyph glyph-name="ntilde" unicode="&#xf1;" horiz-adv-x="540" 
d="M438 430.5c31.333 -31 47.001 -79.833 47.001 -146.5v-284h-98v267c0 74.667 -35.333 112 -106 112c-38 0 -68 -12.667 -90 -38s-33 -65.333 -33 -120v-221h-98v462h98v-70h2c32 56.667 82.333 85 151 85c53.333 0 95.666 -15.5 126.999 -46.5zM256.501 697.5
c12.333 -4.33301 28.834 -11.5 49.501 -21.5c16.667 -8 29.834 -13.833 39.501 -17.5s18.834 -5.5 27.501 -5.5c11.333 0 21.166 3.66699 29.499 11s16.166 18.666 23.499 33.999l40 -11c-6.66699 -32.667 -18.334 -59.334 -35.001 -80.001s-38.334 -31 -65.001 -31
c-13.333 0 -26.5 2.33301 -39.5 7s-29.5 11.667 -49.5 21c-15.333 8 -27.833 13.833 -37.5 17.5s-18.834 5.5 -27.501 5.5c-11.333 0 -21.166 -3.66699 -29.499 -11s-16.166 -18.666 -23.499 -33.999l-41 11c6.66699 32.667 18.5 59.334 35.5 80.001s38.833 31 65.5 31
c12.667 0 25.167 -2.16699 37.5 -6.5z" />
    <glyph glyph-name="ograve" unicode="&#xf2;" horiz-adv-x="566" 
d="M412.5 445c38.333 -21.333 68.5 -50.666 90.5 -87.999s33 -79.333 33 -126s-11 -88.667 -33 -126s-52.167 -66.666 -90.5 -87.999s-81.5 -32 -129.5 -32s-91.167 10.667 -129.5 32s-68.5 50.666 -90.5 87.999s-33 79.333 -33 126s11 88.667 33 126
s52.167 66.666 90.5 87.999s81.5 32 129.5 32s91.167 -10.667 129.5 -32zM175.5 340c-27.667 -27.333 -41.5 -63.666 -41.5 -108.999s13.833 -81.666 41.5 -108.999s63.5 -41 107.5 -41s79.833 13.667 107.5 41s41.5 63.666 41.5 108.999s-13.833 81.666 -41.5 108.999
s-63.5 41 -107.5 41s-79.833 -13.667 -107.5 -41zM321 553h-76l-145 154h127z" />
    <glyph glyph-name="oacute" unicode="&#xf3;" horiz-adv-x="566" 
d="M412.5 445c38.333 -21.333 68.5 -50.666 90.5 -87.999s33 -79.333 33 -126s-11 -88.667 -33 -126s-52.167 -66.666 -90.5 -87.999s-81.5 -32 -129.5 -32s-91.167 10.667 -129.5 32s-68.5 50.666 -90.5 87.999s-33 79.333 -33 126s11 88.667 33 126
s52.167 66.666 90.5 87.999s81.5 32 129.5 32s91.167 -10.667 129.5 -32zM175.5 340c-27.667 -27.333 -41.5 -63.666 -41.5 -108.999s13.833 -81.666 41.5 -108.999s63.5 -41 107.5 -41s79.833 13.667 107.5 41s41.5 63.666 41.5 108.999s-13.833 81.666 -41.5 108.999
s-63.5 41 -107.5 41s-79.833 -13.667 -107.5 -41zM322 553h-77l95 154h126z" />
    <glyph glyph-name="ocircumflex" unicode="&#xf4;" horiz-adv-x="566" 
d="M412.5 445c38.333 -21.333 68.5 -50.666 90.5 -87.999s33 -79.333 33 -126s-11 -88.667 -33 -126s-52.167 -66.666 -90.5 -87.999s-81.5 -32 -129.5 -32s-91.167 10.667 -129.5 32s-68.5 50.666 -90.5 87.999s-33 79.333 -33 126s11 88.667 33 126
s52.167 66.666 90.5 87.999s81.5 32 129.5 32s91.167 -10.667 129.5 -32zM175.5 340c-27.667 -27.333 -41.5 -63.666 -41.5 -108.999s13.833 -81.666 41.5 -108.999s63.5 -41 107.5 -41s79.833 13.667 107.5 41s41.5 63.666 41.5 108.999s-13.833 81.666 -41.5 108.999
s-63.5 41 -107.5 41s-79.833 -13.667 -107.5 -41zM456 553h-94l-79 95l-79 -95h-94l124 154h98z" />
    <glyph glyph-name="otilde" unicode="&#xf5;" horiz-adv-x="566" 
d="M412.5 445c38.333 -21.333 68.5 -50.666 90.5 -87.999s33 -79.333 33 -126s-11 -88.667 -33 -126s-52.167 -66.666 -90.5 -87.999s-81.5 -32 -129.5 -32s-91.167 10.667 -129.5 32s-68.5 50.666 -90.5 87.999s-33 79.333 -33 126s11 88.667 33 126
s52.167 66.666 90.5 87.999s81.5 32 129.5 32s91.167 -10.667 129.5 -32zM175.5 340c-27.667 -27.333 -41.5 -63.666 -41.5 -108.999s13.833 -81.666 41.5 -108.999s63.5 -41 107.5 -41s79.833 13.667 107.5 41s41.5 63.666 41.5 108.999s-13.833 81.666 -41.5 108.999
s-63.5 41 -107.5 41s-79.833 -13.667 -107.5 -41zM251.5 697.5c12.333 -4.33301 28.834 -11.5 49.501 -21.5c16.667 -8 29.834 -13.833 39.501 -17.5s18.834 -5.5 27.501 -5.5c11.333 0 21.166 3.66699 29.499 11s16.166 18.666 23.499 33.999l40 -11
c-6.66699 -32.667 -18.334 -59.334 -35.001 -80.001s-38.334 -31 -65.001 -31c-13.333 0 -26.5 2.33301 -39.5 7s-29.5 11.667 -49.5 21c-15.333 8 -27.833 13.833 -37.5 17.5s-18.834 5.5 -27.501 5.5c-11.333 0 -21.166 -3.66699 -29.499 -11
s-16.166 -18.666 -23.499 -33.999l-41 11c6.66699 32.667 18.5 59.334 35.5 80.001s38.833 31 65.5 31c12.667 0 25.167 -2.16699 37.5 -6.5z" />
    <glyph glyph-name="odieresis" unicode="&#xf6;" horiz-adv-x="566" 
d="M412.5 445c38.333 -21.333 68.5 -50.666 90.5 -87.999s33 -79.333 33 -126s-11 -88.667 -33 -126s-52.167 -66.666 -90.5 -87.999s-81.5 -32 -129.5 -32s-91.167 10.667 -129.5 32s-68.5 50.666 -90.5 87.999s-33 79.333 -33 126s11 88.667 33 126
s52.167 66.666 90.5 87.999s81.5 32 129.5 32s91.167 -10.667 129.5 -32zM175.5 340c-27.667 -27.333 -41.5 -63.666 -41.5 -108.999s13.833 -81.666 41.5 -108.999s63.5 -41 107.5 -41s79.833 13.667 107.5 41s41.5 63.666 41.5 108.999s-13.833 81.666 -41.5 108.999
s-63.5 41 -107.5 41s-79.833 -13.667 -107.5 -41zM239 570h-100v120h100v-120zM427 570h-100v120h100v-120z" />
    <glyph glyph-name="divide" unicode="&#xf7;" 
d="M340 413h-80v84h80v-84zM559 275h-518v48h518v-48zM340 100h-80v85h80v-85z" />
    <glyph glyph-name="oslash" unicode="&#xf8;" horiz-adv-x="566" 
d="M515.5 331.5c13.667 -31 20.5 -64.5 20.5 -100.5c0 -46.667 -11 -88.667 -33 -126s-52.167 -66.666 -90.5 -87.999s-81.5 -32 -129.5 -32c-59.333 0 -111.666 16.333 -156.999 49l-42 -48l-27 23l43 48c-22.667 22.667 -40 48.667 -52 78s-18 61.333 -18 96
c0 46.667 11 88.667 33 126s52.167 66.666 90.5 87.999s81.5 32 129.5 32c55.333 0 104.666 -14.333 147.999 -43l38 43l27 -24l-37 -42c24 -22 42.833 -48.5 56.5 -79.5zM166 133l200.001 227c-24.667 14 -52.334 21 -83.001 21c-44 0 -79.833 -13.667 -107.5 -41
s-41.5 -63.666 -41.5 -108.999c0 -38.667 10.667 -71.334 32 -98.001zM390.501 122c27.667 27.333 41.501 63.668 41.501 109.001c0 43.333 -12.667 78.666 -38 105.999l-202 -229c25.333 -18 55.666 -27 90.999 -27c44 0 79.833 13.667 107.5 41z" />
    <glyph glyph-name="ugrave" unicode="&#xf9;" horiz-adv-x="526" 
d="M102.5 33.5c-31.667 32.333 -47.501 81.833 -47.501 148.5v280h100v-270c0 -37.333 8.5 -65.333 25.5 -84s40.833 -28 71.5 -28c36 0 64.333 12.833 85 38.5s31 66.5 31 122.5v221h98v-462h-98v70h-2c-12.667 -25.333 -30.667 -45.833 -54 -61.5
s-52.666 -23.5 -87.999 -23.5c-49.333 0 -89.833 16.167 -121.5 48.5zM299.999 553h-76l-145 154h127z" />
    <glyph glyph-name="uacute" unicode="&#xfa;" horiz-adv-x="526" 
d="M102.5 33.5c-31.667 32.333 -47.501 81.833 -47.501 148.5v280h100v-270c0 -37.333 8.5 -65.333 25.5 -84s40.833 -28 71.5 -28c36 0 64.333 12.833 85 38.5s31 66.5 31 122.5v221h98v-462h-98v70h-2c-12.667 -25.333 -30.667 -45.833 -54 -61.5
s-52.666 -23.5 -87.999 -23.5c-49.333 0 -89.833 16.167 -121.5 48.5zM300.999 553h-77l95 154h126z" />
    <glyph glyph-name="ucircumflex" unicode="&#xfb;" horiz-adv-x="526" 
d="M102.5 33.5c-31.667 32.333 -47.501 81.833 -47.501 148.5v280h100v-270c0 -37.333 8.5 -65.333 25.5 -84s40.833 -28 71.5 -28c36 0 64.333 12.833 85 38.5s31 66.5 31 122.5v221h98v-462h-98v70h-2c-12.667 -25.333 -30.667 -45.833 -54 -61.5
s-52.666 -23.5 -87.999 -23.5c-49.333 0 -89.833 16.167 -121.5 48.5zM434.999 553h-94l-79 95l-79 -95h-94l124 154h98z" />
    <glyph glyph-name="udieresis" unicode="&#xfc;" horiz-adv-x="526" 
d="M102.5 33.5c-31.667 32.333 -47.501 81.833 -47.501 148.5v280h100v-270c0 -37.333 8.5 -65.333 25.5 -84s40.833 -28 71.5 -28c36 0 64.333 12.833 85 38.5s31 66.5 31 122.5v221h98v-462h-98v70h-2c-12.667 -25.333 -30.667 -45.833 -54 -61.5
s-52.666 -23.5 -87.999 -23.5c-49.333 0 -89.833 16.167 -121.5 48.5zM217.999 570h-100v120h100v-120zM405.999 570h-100v120h100v-120z" />
    <glyph glyph-name="yacute" unicode="&#xfd;" horiz-adv-x="485" 
d="M480 462l-288 -662h-104l111 242l-194 420h117l127 -303l123 303h108zM286 553h-77l95 154h126z" />
    <glyph glyph-name="thorn" unicode="&#xfe;" horiz-adv-x="574" 
d="M65 700h98v-306h2c15.333 26 36 46.333 62 61s57.333 22 94 22c40.667 0 78 -10 112 -30s61 -48.5 81 -85.5s30 -80.5 30 -130.5s-10 -93.5 -30 -130.5s-47 -65.5 -81 -85.5s-71.333 -30 -112 -30c-36.667 0 -68 7.33301 -94 22s-46.667 35 -62 61h-2v-268h-98v900z
M403 122.5c26 27.667 39 63.834 39 108.501s-13 80.834 -39 108.501s-60.333 41.5 -103 41.5s-77 -13.833 -103 -41.5s-39 -63.834 -39 -108.501s13 -80.834 39 -108.501s60.333 -41.5 103 -41.5s77 13.833 103 41.5z" />
    <glyph glyph-name="ydieresis" unicode="&#xff;" horiz-adv-x="485" 
d="M480 462l-288 -662h-104l111 242l-194 420h117l127 -303l123 303h108zM203 570h-100v120h100v-120zM391 570h-100v120h100v-120z" />
    <glyph glyph-name="Amacron" unicode="&#x100;" horiz-adv-x="678" 
d="M483 761h-290v72h290v-72zM492 174h-306l-67 -174h-114l286 700h96l286 -700h-114zM455 270l-116 300l-116 -300h232z" />
    <glyph glyph-name="amacron" unicode="&#x101;" horiz-adv-x="571" 
d="M142 15c-34 20 -61.167 48.5 -81.5 85.5s-30.5 80.5 -30.5 130.5s10.167 93.5 30.5 130.5s47.5 65.5 81.5 85.5s71.667 30 113 30c36.667 0 68 -7.33301 94 -22s46.667 -35 62 -61h2v68h98v-462h-98v68h-2c-15.333 -26 -36 -46.333 -62 -61s-57.333 -22 -94 -22
c-41.333 0 -79 10 -113 30zM379 122.5c26 27.667 39 63.834 39 108.501s-13 80.834 -39 108.501s-60.333 41.5 -103 41.5s-77 -13.833 -103 -41.5s-39 -63.834 -39 -108.501s13 -80.834 39 -108.501s60.333 -41.5 103 -41.5s77 13.833 103 41.5zM426 590h-290v72h290v-72z
" />
    <glyph glyph-name="Abreve" unicode="&#x102;" horiz-adv-x="678" 
d="M244 775c-24 21.333 -37.668 50.666 -41.001 87.999h67c1.33301 -18.667 8 -32.834 20 -42.501s28.333 -14.5 49 -14.5s37 4.83301 49 14.5s18.667 23.834 20 42.501h67c-2.66699 -37.333 -16.167 -66.666 -40.5 -87.999s-56.166 -32 -95.499 -32s-71 10.667 -95 32z
M491.999 174h-306l-67 -174h-114l286 700h96l286 -700h-114zM454.999 270l-116 300l-116 -300h232z" />
    <glyph glyph-name="abreve" unicode="&#x103;" horiz-adv-x="571" 
d="M142 15c-34 20 -61.167 48.5 -81.5 85.5s-30.5 80.5 -30.5 130.5s10.167 93.5 30.5 130.5s47.5 65.5 81.5 85.5s71.667 30 113 30c36.667 0 68 -7.33301 94 -22s46.667 -35 62 -61h2v68h98v-462h-98v68h-2c-15.333 -26 -36 -46.333 -62 -61s-57.333 -22 -94 -22
c-41.333 0 -79 10 -113 30zM379 122.5c26 27.667 39 63.834 39 108.501s-13 80.834 -39 108.501s-60.333 41.5 -103 41.5s-77 -13.833 -103 -41.5s-39 -63.834 -39 -108.501s13 -80.834 39 -108.501s60.333 -41.5 103 -41.5s77 13.833 103 41.5zM379.5 597.5
c-25 -25 -57.833 -37.5 -98.5 -37.5s-73.5 12.5 -98.5 37.5s-37.5 59.167 -37.5 102.5h68c1.33301 -22.667 8 -40.5 20 -53.5s28 -19.5 48 -19.5s36 6.5 48 19.5s18.667 30.833 20 53.5h68c0 -43.333 -12.5 -77.5 -37.5 -102.5z" />
    <glyph glyph-name="Aogonek" unicode="&#x104;" horiz-adv-x="678" 
d="M608 -115l11.999 -62.001c-10.667 -3.33301 -22.667 -5.83301 -36 -7.5s-24.666 -2.5 -33.999 -2.5c-25.333 0 -45.833 6.5 -61.5 19.5s-23.5 31.5 -23.5 55.5c0 20.667 7 41.334 21 62.001s36.667 42 68 64l-62 160h-306l-67 -174h-114l286 700h96l286 -700h-73
c-20 -20.667 -35 -39.5 -45 -56.5s-15 -30.833 -15 -41.5c0 -7.33301 2.66699 -13 8 -17s12.333 -6 21 -6c7.33301 0 20.333 2 39 6zM454.999 269.999l-116 300l-116 -300h232z" />
    <glyph glyph-name="aogonek" unicode="&#x105;" horiz-adv-x="571" 
d="M467 0c-20 -20.667 -35.001 -39.5 -45.001 -56.5s-15 -30.833 -15 -41.5c0 -7.33301 2.66699 -13 8 -17s12.333 -6 21 -6c7.33301 0 20.333 2 39 6l12 -62c-10.667 -3.33301 -22.667 -5.83301 -36 -7.5s-24.666 -2.5 -33.999 -2.5c-25.333 0 -45.833 6.5 -61.5 19.5
s-23.5 31.5 -23.5 55.5c0 40.667 27 80.667 81 120v60h-2c-15.333 -26 -36 -46.333 -62 -61s-57.333 -22 -94 -22c-41.333 0 -79 10 -113 30s-61.167 48.5 -81.5 85.5s-30.5 80.5 -30.5 130.5s10.167 93.5 30.5 130.5s47.5 65.5 81.5 85.5s71.667 30 113 30
c36.667 0 68 -7.33301 94 -22s46.667 -35 62 -61h2v68h98v-462h-44zM378.999 122.5c26 27.667 39 63.834 39 108.501s-13 80.834 -39 108.501s-60.333 41.5 -103 41.5s-77 -13.833 -103 -41.5s-39 -63.834 -39 -108.501s13 -80.834 39 -108.501s60.333 -41.5 103 -41.5
s77 13.833 103 41.5z" />
    <glyph glyph-name="Cacute" unicode="&#x106;" horiz-adv-x="682" 
d="M439 743h-74l95 120h126zM215 31c-56.667 30.667 -100.834 73.4961 -132.501 128.496s-47.5 118.5 -47.5 190.5s15.833 135.5 47.5 190.5s75.834 97.833 132.501 128.5s121.667 46 195 46c93.333 0 175.666 -25.667 246.999 -77l-64 -91c-56.667 41.333 -119 62 -187 62
c-48.667 0 -92.5 -10.667 -131.5 -32s-69.667 -51.666 -92 -90.999s-33.5 -84.666 -33.5 -135.999s11.167 -96.666 33.5 -135.999s53 -69.666 92 -90.999s82.833 -32 131.5 -32c68 0 130.333 20.667 187 62l64 -91c-71.333 -51.333 -153.666 -77 -246.999 -77
c-73.333 0 -138.333 15.333 -195 46z" />
    <glyph glyph-name="cacute" unicode="&#x107;" horiz-adv-x="462" 
d="M152.5 16c-38.333 20.667 -68.333 49.667 -90 87s-32.5 80 -32.5 128s10.833 90.667 32.5 128s51.667 66.333 90 87s82.166 31 131.499 31c58 0 110.667 -15.667 158 -47l-46 -83c-37.333 23.333 -75.666 35 -114.999 35c-44 0 -79.5 -14.167 -106.5 -42.5
s-40.5 -64.5 -40.5 -108.5s13.5 -80.167 40.5 -108.5s62.5 -42.5 106.5 -42.5c39.333 0 77.666 11.667 114.999 35l46 -83c-47.333 -31.333 -100 -47 -158 -47c-49.333 0 -93.166 10.333 -131.499 31zM315 553h-77l95 154h126z" />
    <glyph glyph-name="Ccircumflex" unicode="&#x108;" horiz-adv-x="682" 
d="M575 743h-93l-76 75l-75 -75h-93l120 120h97zM215 31c-56.667 30.667 -100.834 73.4961 -132.501 128.496s-47.5 118.5 -47.5 190.5s15.833 135.5 47.5 190.5s75.834 97.833 132.501 128.5s121.667 46 195 46c93.333 0 175.666 -25.667 246.999 -77l-64 -91
c-56.667 41.333 -119 62 -187 62c-48.667 0 -92.5 -10.667 -131.5 -32s-69.667 -51.666 -92 -90.999s-33.5 -84.666 -33.5 -135.999s11.167 -96.666 33.5 -135.999s53 -69.666 92 -90.999s82.833 -32 131.5 -32c68 0 130.333 20.667 187 62l64 -91
c-71.333 -51.333 -153.666 -77 -246.999 -77c-73.333 0 -138.333 15.333 -195 46z" />
    <glyph glyph-name="ccircumflex" unicode="&#x109;" horiz-adv-x="462" 
d="M152.5 16c-38.333 20.667 -68.333 49.667 -90 87s-32.5 80 -32.5 128s10.833 90.667 32.5 128s51.667 66.333 90 87s82.166 31 131.499 31c58 0 110.667 -15.667 158 -47l-46 -83c-37.333 23.333 -75.666 35 -114.999 35c-44 0 -79.5 -14.167 -106.5 -42.5
s-40.5 -64.5 -40.5 -108.5s13.5 -80.167 40.5 -108.5s62.5 -42.5 106.5 -42.5c39.333 0 77.666 11.667 114.999 35l46 -83c-47.333 -31.333 -100 -47 -158 -47c-49.333 0 -93.166 10.333 -131.499 31zM449 553h-94l-79 95l-79 -95h-94l124 154h98z" />
    <glyph glyph-name="Cdotaccent" unicode="&#x10a;" horiz-adv-x="682" 
d="M458 743h-106v104h106v-104zM215 31c-56.667 30.667 -100.834 73.4961 -132.501 128.496s-47.5 118.5 -47.5 190.5s15.833 135.5 47.5 190.5s75.834 97.833 132.501 128.5s121.667 46 195 46c93.333 0 175.666 -25.667 246.999 -77l-64 -91
c-56.667 41.333 -119 62 -187 62c-48.667 0 -92.5 -10.667 -131.5 -32s-69.667 -51.666 -92 -90.999s-33.5 -84.666 -33.5 -135.999s11.167 -96.666 33.5 -135.999s53 -69.666 92 -90.999s82.833 -32 131.5 -32c68 0 130.333 20.667 187 62l64 -91
c-71.333 -51.333 -153.666 -77 -246.999 -77c-73.333 0 -138.333 15.333 -195 46z" />
    <glyph glyph-name="cdotaccent" unicode="&#x10b;" horiz-adv-x="462" 
d="M152.5 16c-38.333 20.667 -68.333 49.667 -90 87s-32.5 80 -32.5 128s10.833 90.667 32.5 128s51.667 66.333 90 87s82.166 31 131.499 31c58 0 110.667 -15.667 158 -47l-46 -83c-37.333 23.333 -75.666 35 -114.999 35c-44 0 -79.5 -14.167 -106.5 -42.5
s-40.5 -64.5 -40.5 -108.5s13.5 -80.167 40.5 -108.5s62.5 -42.5 106.5 -42.5c39.333 0 77.666 11.667 114.999 35l46 -83c-47.333 -31.333 -100 -47 -158 -47c-49.333 0 -93.166 10.333 -131.499 31zM336 570h-120v120h120v-120z" />
    <glyph glyph-name="Ccaron" unicode="&#x10c;" horiz-adv-x="682" 
d="M358 743l-120 120h93l75 -75l76 75h93l-120 -120h-97zM215 31c-56.667 30.667 -100.834 73.4961 -132.501 128.496s-47.5 118.5 -47.5 190.5s15.833 135.5 47.5 190.5s75.834 97.833 132.501 128.5s121.667 46 195 46c93.333 0 175.666 -25.667 246.999 -77l-64 -91
c-56.667 41.333 -119 62 -187 62c-48.667 0 -92.5 -10.667 -131.5 -32s-69.667 -51.666 -92 -90.999s-33.5 -84.666 -33.5 -135.999s11.167 -96.666 33.5 -135.999s53 -69.666 92 -90.999s82.833 -32 131.5 -32c68 0 130.333 20.667 187 62l64 -91
c-71.333 -51.333 -153.666 -77 -246.999 -77c-73.333 0 -138.333 15.333 -195 46z" />
    <glyph glyph-name="ccaron" unicode="&#x10d;" horiz-adv-x="462" 
d="M152.5 16c-38.333 20.667 -68.333 49.667 -90 87s-32.5 80 -32.5 128s10.833 90.667 32.5 128s51.667 66.333 90 87s82.166 31 131.499 31c58 0 110.667 -15.667 158 -47l-46 -83c-37.333 23.333 -75.666 35 -114.999 35c-44 0 -79.5 -14.167 -106.5 -42.5
s-40.5 -64.5 -40.5 -108.5s13.5 -80.167 40.5 -108.5s62.5 -42.5 106.5 -42.5c39.333 0 77.666 11.667 114.999 35l46 -83c-47.333 -31.333 -100 -47 -158 -47c-49.333 0 -93.166 10.333 -131.499 31zM325 546h-98l-124 154h94l79 -95l79 95h94z" />
    <glyph glyph-name="Dcaron" unicode="&#x10e;" horiz-adv-x="683" 
d="M233 743l-120 120h93l75 -75l76 75h93l-120 -120h-97zM477 657.5c53.333 -28.333 95.166 -68.833 125.499 -121.5s45.5 -114.667 45.5 -186s-15.167 -133.333 -45.5 -186s-72.166 -93.167 -125.499 -121.5s-113.666 -42.5 -180.999 -42.5h-226v700h226
c67.333 0 127.666 -14.167 180.999 -42.5zM174 602v-504h121c46 0 87.167 9.66699 123.5 29s64.666 48 84.999 86s30.5 83.667 30.5 137s-10.167 99 -30.5 137s-48.666 66.667 -84.999 86s-77.5 29 -123.5 29h-121z" />
    <glyph glyph-name="dcaron" unicode="&#x10f;" horiz-adv-x="672" 
d="M413 700h98v-700h-98v68h-2c-15.333 -26 -36 -46.333 -62 -61s-57.333 -22 -94 -22c-41.333 0 -79 10 -113 30s-61.167 48.5 -81.5 85.5s-30.5 80.5 -30.5 130.5s10.167 93.5 30.5 130.5s47.5 65.5 81.5 85.5s71.667 30 113 30c36.667 0 68 -7.33301 94 -22
s46.667 -35 62 -61h2v306zM672 700v-105l-78 -107h-35l44 107h-36v105h105zM379 122.5c26 27.667 39 63.834 39 108.501s-13 80.834 -39 108.501s-60.333 41.5 -103 41.5s-77 -13.833 -103 -41.5s-39 -63.834 -39 -108.501s13 -80.834 39 -108.501s60.333 -41.5 103 -41.5
s77 13.833 103 41.5z" />
    <glyph glyph-name="Dcroat" unicode="&#x110;" horiz-adv-x="693" 
d="M487 657.5c53.333 -28.333 95.166 -68.833 125.499 -121.5s45.5 -114.667 45.5 -186s-15.167 -133.333 -45.5 -186s-72.166 -93.167 -125.499 -121.5s-113.666 -42.5 -180.999 -42.5h-226v313h-80v84h80v303h226c67.333 0 127.666 -14.167 180.999 -42.5zM428.5 127
c36.333 19.333 64.666 48 84.999 86s30.5 83.667 30.5 137s-10.167 99 -30.5 137s-48.666 66.667 -84.999 86s-77.5 29 -123.5 29h-121v-205h162v-84h-162v-215h121c46 0 87.167 9.66699 123.5 29z" />
    <glyph glyph-name="dcroat" unicode="&#x111;" horiz-adv-x="574" 
d="M574 565h-63v-565h-98v68h-2c-15.333 -26 -36 -46.333 -62 -61s-57.333 -22 -94 -22c-41.333 0 -79 10 -113 30s-61.167 48.5 -81.5 85.5s-30.5 80.5 -30.5 130.5s10.167 93.5 30.5 130.5s47.5 65.5 81.5 85.5s71.667 30 113 30c36.667 0 68 -7.33301 94 -22
s46.667 -35 62 -61h2v171h-130v60h130v75h98v-75h63v-60zM379 122.5c26 27.667 39 63.834 39 108.501s-13 80.834 -39 108.501s-60.333 41.5 -103 41.5s-77 -13.833 -103 -41.5s-39 -63.834 -39 -108.501s13 -80.834 39 -108.501s60.333 -41.5 103 -41.5s77 13.833 103 41.5
z" />
    <glyph glyph-name="Emacron" unicode="&#x112;" horiz-adv-x="520" 
d="M434 761h-290v72h290v-72zM475 98v-98h-405v700h400v-98h-296v-166h273v-98h-273v-240h301z" />
    <glyph glyph-name="emacron" unicode="&#x113;" horiz-adv-x="517" 
d="M428.5 410.5c39 -44.333 58.501 -104.169 58.501 -179.502v-16h-358c2 -40.667 15.833 -73.5 41.5 -98.5s58.5 -37.5 98.5 -37.5c33.333 0 61.166 7.83301 83.499 23.5s41.833 34.834 58.5 57.501l69 -65c-53.333 -73.333 -123 -110 -209 -110
c-48.667 0 -91.167 10.167 -127.5 30.5s-64.333 49 -84 86s-29.5 79.833 -29.5 128.5c0 46.667 9.5 88.834 28.5 126.501s46.333 67.167 82 88.5s77.5 32 125.5 32c69.333 0 123.5 -22.167 162.5 -66.5zM176.001 360.997c-22 -17.333 -36 -42.333 -42 -75h247
c-2 32 -13.833 56.833 -35.5 74.5s-50.167 26.5 -85.5 26.5c-34 0 -62 -8.66699 -84 -26zM415.001 589.997h-290v72h290v-72z" />
    <glyph glyph-name="Ebreve" unicode="&#x114;" horiz-adv-x="520" 
d="M195 775c-24 21.333 -37.668 50.666 -41.001 87.999h67c1.33301 -18.667 8 -32.834 20 -42.501s28.333 -14.5 49 -14.5s37 4.83301 49 14.5s18.667 23.834 20 42.501h67c-2.66699 -37.333 -16.167 -66.666 -40.5 -87.999s-56.166 -32 -95.499 -32s-71 10.667 -95 32z
M474.999 98v-98h-405v700h400v-98h-296v-166h273v-98h-273v-240h301z" />
    <glyph glyph-name="ebreve" unicode="&#x115;" horiz-adv-x="517" 
d="M428.5 410.5c39 -44.333 58.501 -104.169 58.501 -179.502v-16h-358c2 -40.667 15.833 -73.5 41.5 -98.5s58.5 -37.5 98.5 -37.5c33.333 0 61.166 7.83301 83.499 23.5s41.833 34.834 58.5 57.501l69 -65c-53.333 -73.333 -123 -110 -209 -110
c-48.667 0 -91.167 10.167 -127.5 30.5s-64.333 49 -84 86s-29.5 79.833 -29.5 128.5c0 46.667 9.5 88.834 28.5 126.501s46.333 67.167 82 88.5s77.5 32 125.5 32c69.333 0 123.5 -22.167 162.5 -66.5zM176.001 360.997c-22 -17.333 -36 -42.333 -42 -75h247
c-2 32 -13.833 56.833 -35.5 74.5s-50.167 26.5 -85.5 26.5c-34 0 -62 -8.66699 -84 -26zM368.501 597.497c-25 -25 -57.833 -37.5 -98.5 -37.5s-73.5 12.5 -98.5 37.5s-37.5 59.167 -37.5 102.5h68c1.33301 -22.667 8 -40.5 20 -53.5s28 -19.5 48 -19.5s36 6.5 48 19.5
s18.667 30.833 20 53.5h68c0 -43.333 -12.5 -77.5 -37.5 -102.5z" />
    <glyph glyph-name="Edotaccent" unicode="&#x116;" horiz-adv-x="520" 
d="M342 743h-106v104h106v-104zM475 98v-98h-405v700h400v-98h-296v-166h273v-98h-273v-240h301z" />
    <glyph glyph-name="edotaccent" unicode="&#x117;" horiz-adv-x="517" 
d="M428.5 410.5c39 -44.333 58.501 -104.169 58.501 -179.502v-16h-358c2 -40.667 15.833 -73.5 41.5 -98.5s58.5 -37.5 98.5 -37.5c33.333 0 61.166 7.83301 83.499 23.5s41.833 34.834 58.5 57.501l69 -65c-53.333 -73.333 -123 -110 -209 -110
c-48.667 0 -91.167 10.167 -127.5 30.5s-64.333 49 -84 86s-29.5 79.833 -29.5 128.5c0 46.667 9.5 88.834 28.5 126.501s46.333 67.167 82 88.5s77.5 32 125.5 32c69.333 0 123.5 -22.167 162.5 -66.5zM176.001 360.997c-22 -17.333 -36 -42.333 -42 -75h247
c-2 32 -13.833 56.833 -35.5 74.5s-50.167 26.5 -85.5 26.5c-34 0 -62 -8.66699 -84 -26zM330.001 569.997h-120v120h120v-120z" />
    <glyph glyph-name="Eogonek" unicode="&#x118;" horiz-adv-x="520" 
d="M440 0c-20 -20.667 -35.001 -39.499 -45.001 -56.499s-15 -30.833 -15 -41.5c0 -7.33301 2.66699 -13 8 -17s12.333 -6 21 -6c7.33301 0 20.333 2 39 6l12 -62c-10.667 -3.33301 -22.667 -5.83301 -36 -7.5s-24.666 -2.5 -33.999 -2.5c-25.333 0 -45.833 6.5 -61.5 19.5
s-23.5 31.5 -23.5 55.5c0 37.333 23.333 74.666 70 111.999h-305v700h400v-98h-296v-166h273v-98h-273v-240h301v-98h-35z" />
    <glyph glyph-name="eogonek" unicode="&#x119;" horiz-adv-x="517" 
d="M487 215l-358 -0.00195312c2 -40.667 15.833 -73.5 41.5 -98.5s58.5 -37.5 98.5 -37.5c33.333 0 61.166 7.83301 83.499 23.5s41.833 34.834 58.5 57.501l69 -65c-28.667 -40.667 -63 -70 -103 -88c-22 -22.667 -38.667 -43 -50 -61s-17 -32.667 -17 -44
c0 -7.33301 2.66699 -13 8 -17s12.333 -6 21 -6c7.33301 0 20.333 2 39 6l12 -62c-10.667 -3.33301 -22.667 -5.83301 -36 -7.5s-24.666 -2.5 -33.999 -2.5c-25.333 0 -45.833 6.5 -61.5 19.5s-23.5 31.5 -23.5 55.5c0 33.333 17.667 65.666 53 96.999h-17
c-48.667 0 -91.167 10.167 -127.5 30.5s-64.333 49 -84 86s-29.5 79.833 -29.5 128.5c0 46.667 9.5 88.834 28.5 126.501s46.333 67.167 82 88.5s77.5 32 125.5 32c69.333 0 123.5 -22.167 162.5 -66.5s58.5 -104.166 58.5 -179.499v-16zM381 285.998
c-2 32 -13.833 56.833 -35.5 74.5s-50.167 26.5 -85.5 26.5c-34 0 -62 -8.66699 -84 -26s-36 -42.333 -42 -75h247z" />
    <glyph glyph-name="Ecaron" unicode="&#x11a;" horiz-adv-x="520" 
d="M242 743l-120 120h93l75 -75l76 75h93l-120 -120h-97zM475 98v-98h-405v700h400v-98h-296v-166h273v-98h-273v-240h301z" />
    <glyph glyph-name="ecaron" unicode="&#x11b;" horiz-adv-x="517" 
d="M428.5 410.5c39 -44.333 58.501 -104.169 58.501 -179.502v-16h-358c2 -40.667 15.833 -73.5 41.5 -98.5s58.5 -37.5 98.5 -37.5c33.333 0 61.166 7.83301 83.499 23.5s41.833 34.834 58.5 57.501l69 -65c-53.333 -73.333 -123 -110 -209 -110
c-48.667 0 -91.167 10.167 -127.5 30.5s-64.333 49 -84 86s-29.5 79.833 -29.5 128.5c0 46.667 9.5 88.834 28.5 126.501s46.333 67.167 82 88.5s77.5 32 125.5 32c69.333 0 123.5 -22.167 162.5 -66.5zM176.001 360.997c-22 -17.333 -36 -42.333 -42 -75h247
c-2 32 -13.833 56.833 -35.5 74.5s-50.167 26.5 -85.5 26.5c-34 0 -62 -8.66699 -84 -26zM319.001 545.997h-98l-124 154h94l79 -95l79 95h94z" />
    <glyph glyph-name="Gcircumflex" unicode="&#x11c;" horiz-adv-x="782" 
d="M319 743h-93l120 120h97l120 -120h-93l-76 75zM757 387v-41.9971c0 -62.667 -13.167 -121.334 -39.5 -176.001s-66 -99 -119 -133s-117.5 -51 -193.5 -51c-70 0 -133.167 15 -189.5 45s-100.5 72.5 -132.5 127.5s-48 118.5 -48 190.5c0 71.333 15.5 134.666 46.5 189.999
s74.667 98.666 131 129.999s120.833 47 193.5 47c56 0 106.5 -8.66699 151.5 -26s84.167 -40 117.5 -68l-71 -87c-24.667 22 -54.334 40 -89.001 54s-72.667 21 -114 21c-50 0 -94 -11.333 -132 -34s-67.5 -53.667 -88.5 -93s-31.5 -83.666 -31.5 -132.999
c0 -50 10.833 -94.5 32.5 -133.5s52 -69.5 91 -91.5s84.167 -33 135.5 -33c48 0 89.5 9.66699 124.5 29s61.833 44.166 80.5 74.499s29.334 61.833 32.001 94.5h-220v98h332z" />
    <glyph glyph-name="gcircumflex" unicode="&#x11d;" horiz-adv-x="571" 
d="M115 -194l19 95c62.667 -14 115.667 -21 159 -21c30 0 53.667 4 71 12s29.833 21.667 37.5 41s11.5 46 11.5 80v55h-2c-15.333 -26 -36 -46.333 -62 -61s-57.333 -22 -94 -22c-41.333 0 -79 10 -113 30s-61.167 48.5 -81.5 85.5s-30.5 80.5 -30.5 130.5
s10.167 93.5 30.5 130.5s47.5 65.5 81.5 85.5s71.667 30 113 30c36.667 0 68 -7.33301 94 -22s46.667 -35 62 -61h2v68h98v-462c-1.33301 -57.333 -11.5 -101.833 -30.5 -133.5s-44 -53.167 -75 -64.5s-68.5 -17 -112.5 -17c-46 0 -105.333 7 -178 21zM379 122.5
c26 27.667 39 63.834 39 108.501s-13 80.834 -39 108.501s-60.333 41.5 -103 41.5s-77 -13.833 -103 -41.5s-39 -63.834 -39 -108.501s13 -80.834 39 -108.501s60.333 -41.5 103 -41.5s77 13.833 103 41.5zM459 553h-94l-79 95l-79 -95h-94l124 154h98z" />
    <glyph glyph-name="Gbreve" unicode="&#x11e;" horiz-adv-x="782" 
d="M299 775c-24 21.333 -37.668 50.666 -41.001 87.999h67c1.33301 -18.667 8 -32.834 20 -42.501s28.333 -14.5 49 -14.5s37 4.83301 49 14.5s18.667 23.834 20 42.501h67c-2.66699 -37.333 -16.167 -66.666 -40.5 -87.999s-56.166 -32 -95.499 -32s-71 10.667 -95 32z
M756.999 387v-41.9971c0 -62.667 -13.167 -121.334 -39.5 -176.001s-66 -99 -119 -133s-117.5 -51 -193.5 -51c-70 0 -133.167 15 -189.5 45s-100.5 72.5 -132.5 127.5s-48 118.5 -48 190.5c0 71.333 15.5 134.666 46.5 189.999s74.667 98.666 131 129.999
s120.833 47 193.5 47c56 0 106.5 -8.66699 151.5 -26s84.167 -40 117.5 -68l-71 -87c-24.667 22 -54.334 40 -89.001 54s-72.667 21 -114 21c-50 0 -94 -11.333 -132 -34s-67.5 -53.667 -88.5 -93s-31.5 -83.666 -31.5 -132.999c0 -50 10.833 -94.5 32.5 -133.5
s52 -69.5 91 -91.5s84.167 -33 135.5 -33c48 0 89.5 9.66699 124.5 29s61.833 44.166 80.5 74.499s29.334 61.833 32.001 94.5h-220v98h332z" />
    <glyph glyph-name="gbreve" unicode="&#x11f;" horiz-adv-x="571" 
d="M115 -194l19 95c62.667 -14 115.667 -21 159 -21c30 0 53.667 4 71 12s29.833 21.667 37.5 41s11.5 46 11.5 80v55h-2c-15.333 -26 -36 -46.333 -62 -61s-57.333 -22 -94 -22c-41.333 0 -79 10 -113 30s-61.167 48.5 -81.5 85.5s-30.5 80.5 -30.5 130.5
s10.167 93.5 30.5 130.5s47.5 65.5 81.5 85.5s71.667 30 113 30c36.667 0 68 -7.33301 94 -22s46.667 -35 62 -61h2v68h98v-462c-1.33301 -57.333 -11.5 -101.833 -30.5 -133.5s-44 -53.167 -75 -64.5s-68.5 -17 -112.5 -17c-46 0 -105.333 7 -178 21zM379 122.5
c26 27.667 39 63.834 39 108.501s-13 80.834 -39 108.501s-60.333 41.5 -103 41.5s-77 -13.833 -103 -41.5s-39 -63.834 -39 -108.501s13 -80.834 39 -108.501s60.333 -41.5 103 -41.5s77 13.833 103 41.5zM384.5 597.5c-25 -25 -57.833 -37.5 -98.5 -37.5
s-73.5 12.5 -98.5 37.5s-37.5 59.167 -37.5 102.5h68c1.33301 -22.667 8 -40.5 20 -53.5s28 -19.5 48 -19.5s36 6.5 48 19.5s18.667 30.833 20 53.5h68c0 -43.333 -12.5 -77.5 -37.5 -102.5z" />
    <glyph glyph-name="Gdotaccent" unicode="&#x120;" horiz-adv-x="782" 
d="M446 743h-106v104h106v-104zM757 387v-41.9971c0 -62.667 -13.167 -121.334 -39.5 -176.001s-66 -99 -119 -133s-117.5 -51 -193.5 -51c-70 0 -133.167 15 -189.5 45s-100.5 72.5 -132.5 127.5s-48 118.5 -48 190.5c0 71.333 15.5 134.666 46.5 189.999
s74.667 98.666 131 129.999s120.833 47 193.5 47c56 0 106.5 -8.66699 151.5 -26s84.167 -40 117.5 -68l-71 -87c-24.667 22 -54.334 40 -89.001 54s-72.667 21 -114 21c-50 0 -94 -11.333 -132 -34s-67.5 -53.667 -88.5 -93s-31.5 -83.666 -31.5 -132.999
c0 -50 10.833 -94.5 32.5 -133.5s52 -69.5 91 -91.5s84.167 -33 135.5 -33c48 0 89.5 9.66699 124.5 29s61.833 44.166 80.5 74.499s29.334 61.833 32.001 94.5h-220v98h332z" />
    <glyph glyph-name="gdotaccent" unicode="&#x121;" horiz-adv-x="571" 
d="M115 -194l19 95c62.667 -14 115.667 -21 159 -21c30 0 53.667 4 71 12s29.833 21.667 37.5 41s11.5 46 11.5 80v55h-2c-15.333 -26 -36 -46.333 -62 -61s-57.333 -22 -94 -22c-41.333 0 -79 10 -113 30s-61.167 48.5 -81.5 85.5s-30.5 80.5 -30.5 130.5
s10.167 93.5 30.5 130.5s47.5 65.5 81.5 85.5s71.667 30 113 30c36.667 0 68 -7.33301 94 -22s46.667 -35 62 -61h2v68h98v-462c-1.33301 -57.333 -11.5 -101.833 -30.5 -133.5s-44 -53.167 -75 -64.5s-68.5 -17 -112.5 -17c-46 0 -105.333 7 -178 21zM379 122.5
c26 27.667 39 63.834 39 108.501s-13 80.834 -39 108.501s-60.333 41.5 -103 41.5s-77 -13.833 -103 -41.5s-39 -63.834 -39 -108.501s13 -80.834 39 -108.501s60.333 -41.5 103 -41.5s77 13.833 103 41.5zM346 570h-120v120h120v-120z" />
    <glyph glyph-name="uni0122" unicode="&#x122;" horiz-adv-x="782" 
d="M757 387v-41.9971c0 -62.667 -13.167 -121.334 -39.5 -176.001s-66 -99 -119 -133s-117.5 -51 -193.5 -51c-70 0 -133.167 15 -189.5 45s-100.5 72.5 -132.5 127.5s-48 118.5 -48 190.5c0 71.333 15.5 134.666 46.5 189.999s74.667 98.666 131 129.999
s120.833 47 193.5 47c56 0 106.5 -8.66699 151.5 -26s84.167 -40 117.5 -68l-71 -87c-24.667 22 -54.334 40 -89.001 54s-72.667 21 -114 21c-50 0 -94 -11.333 -132 -34s-67.5 -53.667 -88.5 -93s-31.5 -83.666 -31.5 -132.999c0 -50 10.833 -94.5 32.5 -133.5
s52 -69.5 91 -91.5s84.167 -33 135.5 -33c48 0 89.5 9.66699 124.5 29s61.833 44.166 80.5 74.499s29.334 61.833 32.001 94.5h-220v98h332zM453 -46.9971v-89l-64 -74h-37l37 74h-35v89h99z" />
    <glyph glyph-name="uni0123" unicode="&#x123;" horiz-adv-x="571" 
d="M115 -194l19 95c62.667 -14 115.667 -21 159 -21c30 0 53.667 4 71 12s29.833 21.667 37.5 41s11.5 46 11.5 80v55h-2c-15.333 -26 -36 -46.333 -62 -61s-57.333 -22 -94 -22c-41.333 0 -79 10 -113 30s-61.167 48.5 -81.5 85.5s-30.5 80.5 -30.5 130.5
s10.167 93.5 30.5 130.5s47.5 65.5 81.5 85.5s71.667 30 113 30c36.667 0 68 -7.33301 94 -22s46.667 -35 62 -61h2v68h98v-462c-1.33301 -57.333 -11.5 -101.833 -30.5 -133.5s-44 -53.167 -75 -64.5s-68.5 -17 -112.5 -17c-46 0 -105.333 7 -178 21zM379 122.5
c26 27.667 39 63.834 39 108.501s-13 80.834 -39 108.501s-60.333 41.5 -103 41.5s-77 -13.833 -103 -41.5s-39 -63.834 -39 -108.501s13 -80.834 39 -108.501s60.333 -41.5 103 -41.5s77 13.833 103 41.5zM303 629h35v-89h-99v89l64 74h37z" />
    <glyph glyph-name="Hcircumflex" unicode="&#x124;" horiz-adv-x="718" 
d="M284 743h-93l120 120h97l120 -120h-93l-76 75zM648 700v-700h-104v319h-370v-319h-104v700h104v-281h370v281h104z" />
    <glyph glyph-name="hcircumflex" unicode="&#x125;" horiz-adv-x="545" 
d="M283 743h-93l-76 75l-75 -75h-93l120 120h97zM163 392h1.99902c32 56.667 82.333 85 151 85c52.667 0 94.834 -15.5 126.501 -46.5s47.5 -79.833 47.5 -146.5v-284h-98v267c0 74.667 -35.333 112 -106 112c-38 0 -68 -12.667 -90 -38s-33 -65.333 -33 -120v-221h-98v700
h98v-308z" />
    <glyph glyph-name="Hbar" unicode="&#x126;" horiz-adv-x="717" 
d="M717 503h-69v-503h-104v319h-370v-319h-104v503h-70v86h70v111h104v-111h370v111h104v-111h69v-86zM544 503h-370v-84h370v84z" />
    <glyph glyph-name="hbar" unicode="&#x127;" horiz-adv-x="545" 
d="M442.5 430.5c31.667 -31 47.499 -79.833 47.499 -146.5v-284h-98v267c0 74.667 -35.333 112 -106 112c-38 0 -68 -12.667 -90 -38s-33 -65.333 -33 -120v-221h-98v565h-65v60h65v75h98v-75h140v-60h-140v-173h2c32 56.667 82.333 85 151 85
c52.667 0 94.834 -15.5 126.501 -46.5z" />
    <glyph glyph-name="Itilde" unicode="&#x128;" horiz-adv-x="246" 
d="M168.5 749.5c-14.333 4.33301 -31.5 10.499 -51.5 18.499c-34.667 14 -59 21 -73 21c-24 0 -42.333 -15 -55 -45l-37 11c7.33301 30.667 19.5 56.334 36.5 77.001s39.167 31 66.5 31c12.667 0 25.667 -2 39 -6s31 -10.333 53 -19
c17.333 -7.33301 31.5 -12.666 42.5 -15.999s20.833 -5 29.5 -5c24 0 42.333 15 55 45l37 -11c-7.33301 -30.667 -19.333 -56.334 -36 -77.001s-38.667 -31 -66 -31c-12.667 0 -26.167 2.16699 -40.5 6.5zM176 -0.000976562h-106v700h106v-700z" />
    <glyph glyph-name="itilde" unicode="&#x129;" horiz-adv-x="228" 
d="M95.5 696c11.667 -5.33301 25.167 -12.666 40.5 -21.999c8.66699 -5.33301 17.167 -10.166 25.5 -14.499s14.833 -6.5 19.5 -6.5c8 0 14.667 3.5 20 10.5s10.333 18.5 15 34.5l40 -11c-12 -74 -39.333 -111 -82 -111c-11.333 0 -22.833 2.66699 -34.5 8
s-25.167 12.666 -40.5 21.999c-8.66699 5.33301 -17.167 10.166 -25.5 14.499s-14.833 6.5 -19.5 6.5c-8 0 -14.667 -3.5 -20 -10.5s-10.333 -18.5 -15 -34.5l-40 11c12 74 39.333 111 82 111c11.333 0 22.833 -2.66699 34.5 -8zM65 462h98v-462h-98v462z" />
    <glyph glyph-name="Imacron" unicode="&#x12a;" horiz-adv-x="246" 
d="M267 761h-290v72h290v-72zM176 0h-106v700h106v-700z" />
    <glyph glyph-name="imacron" unicode="&#x12b;" horiz-adv-x="228" 
d="M209 590h-190v72h190v-72zM65 462h98v-462h-98v462z" />
    <glyph glyph-name="Ibreve" unicode="&#x12c;" horiz-adv-x="246" 
d="M218.5 775c-24.333 -21.333 -56.168 -32 -95.501 -32s-71.166 10.667 -95.499 32s-37.833 50.666 -40.5 87.999h67c1.33301 -18.667 8 -32.834 20 -42.501s28.333 -14.5 49 -14.5s37 4.83301 49 14.5s18.667 23.834 20 42.501h67
c-2.66699 -37.333 -16.167 -66.666 -40.5 -87.999zM175.998 0h-106v700h106v-700z" />
    <glyph glyph-name="ibreve" unicode="&#x12d;" horiz-adv-x="228" 
d="M197 596c-20 -24 -47.665 -36 -82.998 -36s-63 12 -83 36s-30 58.667 -30 104h68c0 -24.667 3.66699 -43 11 -55s18.666 -18 33.999 -18s26.666 6 33.999 18s11 30.333 11 55h68c0 -45.333 -10 -80 -30 -104zM65.002 462h98v-462h-98v462z" />
    <glyph glyph-name="Iogonek" unicode="&#x12e;" horiz-adv-x="246" 
d="M150 0c-20 -20.667 -35.001 -39.499 -45.001 -56.499s-15 -30.833 -15 -41.5c0 -7.33301 2.66699 -13 8 -17s12.333 -6 21 -6c7.33301 0 20.333 2 39 6l12 -62c-10.667 -3.33301 -22.667 -5.83301 -36 -7.5s-24.666 -2.5 -33.999 -2.5c-25.333 0 -45.833 6.5 -61.5 19.5
s-23.5 31.5 -23.5 55.5c0 37.333 23.333 74.666 70 111.999h-15v700h106v-700h-26z" />
    <glyph glyph-name="iogonek" unicode="&#x12f;" horiz-adv-x="228" 
d="M174 690v-120h-120v120h120zM65 462l97.999 -0.000976562v-462h-38c-20 -20.667 -35 -39.5 -45 -56.5s-15 -30.833 -15 -41.5c0 -7.33301 2.66699 -13 8 -17s12.333 -6 21 -6c7.33301 0 20.333 2 39 6l12 -62c-10.667 -3.33301 -22.667 -5.83301 -36 -7.5
s-24.666 -2.5 -33.999 -2.5c-25.333 0 -45.833 6.5 -61.5 19.5s-23.5 31.5 -23.5 55.5c0 38.667 25 77.334 75 116.001v458z" />
    <glyph glyph-name="Idotaccent" unicode="&#x130;" horiz-adv-x="246" 
d="M175 743h-106v104h106v-104zM176 0h-106v700h106v-700z" />
    <glyph glyph-name="dotlessi" unicode="&#x131;" horiz-adv-x="228" 
d="M65 462h98v-462h-98v462z" />
    <glyph glyph-name="IJ" unicode="&#x132;" horiz-adv-x="520" 
d="M176 0h-106v700h106v-700zM450 172c0 -60 -12.832 -104.5 -38.499 -133.5s-63.834 -43.5 -114.501 -43.5h-36v101h26c20.667 0 35.667 5.5 45 16.5s14 30.833 14 59.5v528h104v-528z" />
    <glyph glyph-name="ij" unicode="&#x133;" horiz-adv-x="456" 
d="M65 462h98v-462h-98v462zM174 570h-120v120h120v-120zM240 -114c18.667 0 32.167 4.33203 40.5 12.999s12.5 23 12.5 43v520h98v-530c0 -43.333 -11.833 -76.666 -35.5 -99.999s-57.167 -35 -100.5 -35h-33v89h18zM402 569.999h-120v120h120v-120z" />
    <glyph glyph-name="Jcircumflex" unicode="&#x134;" horiz-adv-x="274" 
d="M321 743h-93l-76 75l-75 -75h-93l120 120h97zM204 172c0 -60 -12.832 -104.5 -38.499 -133.5s-63.834 -43.5 -114.501 -43.5h-36v101h26c20.667 0 35.667 5.5 45 16.5s14 30.833 14 59.5v528h104v-528z" />
    <glyph glyph-name="jcircumflex" unicode="&#x135;" horiz-adv-x="228" 
d="M253 553h-90l-49 95l-49 -95h-90l90 154h98zM12 -114c18.667 0 32.167 4.33203 40.5 12.999s12.5 23 12.5 43v520h98v-530c0 -43.333 -11.833 -76.666 -35.5 -99.999s-57.167 -35 -100.5 -35h-33v89h18z" />
    <glyph glyph-name="uni0136" unicode="&#x136;" horiz-adv-x="649" 
d="M490 0l-316 349v-349h-104v700h104v-311l278 311h144l-304 -321l352 -379h-154zM369 -47v-89l-64 -74h-37l37 74h-35v89h99z" />
    <glyph glyph-name="uni0137" unicode="&#x137;" horiz-adv-x="483" 
d="M349 0l-186 227v-227h-98v700h98v-435l165 197h129l-194 -210l215 -252h-129zM291 -47v-89l-64 -74h-37l37 74h-35v89h99z" />
    <glyph glyph-name="kgreenlandic" unicode="&#x138;" horiz-adv-x="478" 
d="M344 0l-186 227v-227h-98v462h98v-197l165 197h129l-194 -210l215 -252h-129z" />
    <glyph glyph-name="Lacute" unicode="&#x139;" horiz-adv-x="483" 
d="M195 743h-74l95 120h126zM174 100h304v-100h-408v700h104v-600z" />
    <glyph glyph-name="lacute" unicode="&#x13a;" horiz-adv-x="228" 
d="M147 743h-74l95 120h126zM163 0h-98v700h98v-700z" />
    <glyph glyph-name="uni013B" unicode="&#x13b;" horiz-adv-x="483" 
d="M174 100h304v-100h-408v700h104v-600zM329 -47v-89l-64 -74h-37l37 74h-35v89h99z" />
    <glyph glyph-name="uni013C" unicode="&#x13c;" horiz-adv-x="228" 
d="M163 0h-98v700h98v-700zM163 -47v-89l-64 -74h-37l37 74h-35v89h99z" />
    <glyph glyph-name="Lcaron" unicode="&#x13d;" horiz-adv-x="483" 
d="M174 100h304v-100h-408v700h104v-600zM414 715v-105l-78 -147h-35l53 147h-45v105h105z" />
    <glyph glyph-name="lcaron" unicode="&#x13e;" horiz-adv-x="324" 
d="M65 700h98v-700h-98v700zM329 700v-105l-78 -107h-35l44 107h-36v105h105z" />
    <glyph glyph-name="Ldot" unicode="&#x13f;" horiz-adv-x="483" 
d="M174 100h304v-100h-408v700h104v-600zM397 343h-119v119h119v-119z" />
    <glyph glyph-name="ldot" unicode="&#x140;" horiz-adv-x="325" 
d="M163 0h-98v700h98v-700zM315 344h-119v119h119v-119z" />
    <glyph glyph-name="Lslash" unicode="&#x141;" horiz-adv-x="483" 
d="M478 100v-100h-408v288l-80 -42v75l80 42v337h104v-283l172 90v-75l-172 -90v-242h304z" />
    <glyph glyph-name="lslash" unicode="&#x142;" horiz-adv-x="278" 
d="M268 413l-80 -42v-371h-98v319l-80 -42v75l80 42v306h98v-254l80 42v-75z" />
    <glyph glyph-name="Nacute" unicode="&#x143;" horiz-adv-x="699" 
d="M382 743h-74l95 120h126zM629 0h-109l-344 523h-2v-523h-104v700h109l344 -523h2v523h104v-700z" />
    <glyph glyph-name="nacute" unicode="&#x144;" horiz-adv-x="540" 
d="M438 430.5c31.333 -31 47.001 -79.833 47.001 -146.5v-284h-98v267c0 74.667 -35.333 112 -106 112c-38 0 -68 -12.667 -90 -38s-33 -65.333 -33 -120v-221h-98v462h98v-70h2c32 56.667 82.333 85 151 85c53.333 0 95.666 -15.5 126.999 -46.5zM327.001 553h-77l95 154
h126z" />
    <glyph glyph-name="uni0145" unicode="&#x145;" horiz-adv-x="699" 
d="M629 0h-109l-344 523h-2v-523h-104v700h109l344 -523h2v523h104v-700zM398 -47v-89l-64 -74h-37l37 74h-35v89h99z" />
    <glyph glyph-name="uni0146" unicode="&#x146;" horiz-adv-x="540" 
d="M438 430.5c31.333 -31 47.001 -79.833 47.001 -146.5v-284h-98v267c0 74.667 -35.333 112 -106 112c-38 0 -68 -12.667 -90 -38s-33 -65.333 -33 -120v-221h-98v462h98v-70h2c32 56.667 82.333 85 151 85c53.333 0 95.666 -15.5 126.999 -46.5zM332.001 -47v-89l-64 -74
h-37l37 74h-35v89h99z" />
    <glyph glyph-name="Ncaron" unicode="&#x147;" horiz-adv-x="699" 
d="M301 743l-120 120h93l75 -75l76 75h93l-120 -120h-97zM629 0h-109l-344 523h-2v-523h-104v700h109l344 -523h2v523h104v-700z" />
    <glyph glyph-name="ncaron" unicode="&#x148;" horiz-adv-x="540" 
d="M438 430.5c31.333 -31 47.001 -79.833 47.001 -146.5v-284h-98v267c0 74.667 -35.333 112 -106 112c-38 0 -68 -12.667 -90 -38s-33 -65.333 -33 -120v-221h-98v462h98v-70h2c32 56.667 82.333 85 151 85c53.333 0 95.666 -15.5 126.999 -46.5zM337.001 546h-98l-124 154
h94l79 -95l79 95h94z" />
    <glyph glyph-name="napostrophe" unicode="&#x149;" horiz-adv-x="580" 
d="M478 430.5c31.333 -31 47.001 -79.833 47.001 -146.5v-284h-98v267c0 74.667 -35.333 112 -106 112c-38 0 -68 -12.667 -90 -38s-33 -65.333 -33 -120v-221h-98v462h98v-70h2c32 56.667 82.333 85 151 85c53.333 0 95.666 -15.5 126.999 -46.5zM123.001 715v-105
l-78 -147h-35l53 147h-45v105h105z" />
    <glyph glyph-name="Eng" unicode="&#x14a;" horiz-adv-x="699" 
d="M629 700v-744.002c0 -49.333 -12 -87.666 -36 -114.999s-60 -41 -108 -41h-61v100h40c20.667 0 36 4.33301 46 13s15 24.334 15 47.001v40l-349 521h-2v-521h-104v700h109l344 -517h2v517h104z" />
    <glyph glyph-name="eng" unicode="&#x14b;" horiz-adv-x="540" 
d="M438 430.5c31.333 -31 47.002 -79.834 47.002 -146.501v-346c0 -43.333 -10.5 -77.166 -31.5 -101.499s-53.167 -36.5 -96.5 -36.5h-61v92h43c15.333 0 27.166 4.16699 35.499 12.5s12.5 20.5 12.5 36.5v326c0 74.667 -35.333 112 -106 112c-38 0 -68 -12.667 -90 -38
s-33 -65.333 -33 -120v-221h-98v462h98v-70h2c32 56.667 82.333 85 151 85c53.333 0 95.666 -15.5 126.999 -46.5z" />
    <glyph glyph-name="Omacron" unicode="&#x14c;" horiz-adv-x="800" 
d="M545 761h-290v72h290v-72zM586.5 668.5c55.667 -31 99.334 -74.167 131.001 -129.5s47.5 -118.333 47.5 -189s-15.833 -133.667 -47.5 -189s-75.334 -98.5 -131.001 -129.5s-117.834 -46.5 -186.501 -46.5s-130.834 15.5 -186.501 46.5s-99.334 74.167 -131.001 129.5
s-47.5 118.333 -47.5 189s15.833 133.667 47.5 189s75.334 98.5 131.001 129.5s117.834 46.5 186.501 46.5s130.834 -15.5 186.501 -46.5zM270 575.5c-38 -22.333 -67.667 -53.166 -89 -92.499s-32 -83.666 -32 -132.999s10.667 -93.666 32 -132.999s51 -70.166 89 -92.499
s81.333 -33.5 130 -33.5s92 11.167 130 33.5s67.667 53.166 89 92.499s32 83.666 32 132.999s-10.667 93.666 -32 132.999s-51 70.166 -89 92.499s-81.333 33.5 -130 33.5s-92 -11.167 -130 -33.5z" />
    <glyph glyph-name="omacron" unicode="&#x14d;" horiz-adv-x="566" 
d="M412.5 445c38.333 -21.333 68.5 -50.666 90.5 -87.999s33 -79.333 33 -126s-11 -88.667 -33 -126s-52.167 -66.666 -90.5 -87.999s-81.5 -32 -129.5 -32s-91.167 10.667 -129.5 32s-68.5 50.666 -90.5 87.999s-33 79.333 -33 126s11 88.667 33 126
s52.167 66.666 90.5 87.999s81.5 32 129.5 32s91.167 -10.667 129.5 -32zM175.5 340c-27.667 -27.333 -41.5 -63.666 -41.5 -108.999s13.833 -81.666 41.5 -108.999s63.5 -41 107.5 -41s79.833 13.667 107.5 41s41.5 63.666 41.5 108.999s-13.833 81.666 -41.5 108.999
s-63.5 41 -107.5 41s-79.833 -13.667 -107.5 -41zM428 590h-290v72h290v-72z" />
    <glyph glyph-name="Obreve" unicode="&#x14e;" horiz-adv-x="800" 
d="M496.5 775c-24.333 -21.333 -56.167 -32 -95.5 -32s-71 10.667 -95 32s-37.667 50.666 -41 87.999h67c1.33301 -18.667 8 -32.834 20 -42.501s28.333 -14.5 49 -14.5s37 4.83301 49 14.5s18.667 23.834 20 42.501h67c-2.66699 -37.333 -16.167 -66.666 -40.5 -87.999z
M586.499 668.5c55.667 -31 99.334 -74.167 131.001 -129.5s47.5 -118.333 47.5 -189s-15.833 -133.667 -47.5 -189s-75.334 -98.5 -131.001 -129.5s-117.834 -46.5 -186.501 -46.5s-130.834 15.5 -186.501 46.5s-99.334 74.167 -131.001 129.5s-47.5 118.333 -47.5 189
s15.833 133.667 47.5 189s75.334 98.5 131.001 129.5s117.834 46.5 186.501 46.5s130.834 -15.5 186.501 -46.5zM269.999 575.5c-38 -22.333 -67.667 -53.166 -89 -92.499s-32 -83.666 -32 -132.999s10.667 -93.666 32 -132.999s51 -70.166 89 -92.499
s81.333 -33.5 130 -33.5s92 11.167 130 33.5s67.667 53.166 89 92.499s32 83.666 32 132.999s-10.667 93.666 -32 132.999s-51 70.166 -89 92.499s-81.333 33.5 -130 33.5s-92 -11.167 -130 -33.5z" />
    <glyph glyph-name="obreve" unicode="&#x14f;" horiz-adv-x="566" 
d="M412.5 445c38.333 -21.333 68.5 -50.666 90.5 -87.999s33 -79.333 33 -126s-11 -88.667 -33 -126s-52.167 -66.666 -90.5 -87.999s-81.5 -32 -129.5 -32s-91.167 10.667 -129.5 32s-68.5 50.666 -90.5 87.999s-33 79.333 -33 126s11 88.667 33 126
s52.167 66.666 90.5 87.999s81.5 32 129.5 32s91.167 -10.667 129.5 -32zM175.5 340c-27.667 -27.333 -41.5 -63.666 -41.5 -108.999s13.833 -81.666 41.5 -108.999s63.5 -41 107.5 -41s79.833 13.667 107.5 41s41.5 63.666 41.5 108.999s-13.833 81.666 -41.5 108.999
s-63.5 41 -107.5 41s-79.833 -13.667 -107.5 -41zM381.5 597.5c-25 -25 -57.833 -37.5 -98.5 -37.5s-73.5 12.5 -98.5 37.5s-37.5 59.167 -37.5 102.5h68c1.33301 -22.667 8 -40.5 20 -53.5s28 -19.5 48 -19.5s36 6.5 48 19.5s18.667 30.833 20 53.5h68
c0 -43.333 -12.5 -77.5 -37.5 -102.5z" />
    <glyph glyph-name="Ohungarumlaut" unicode="&#x150;" horiz-adv-x="800" 
d="M380 743h-69l84 120h87zM501 743h-69l84 120h87zM586.5 668.5c55.667 -31 99.334 -74.167 131.001 -129.5s47.5 -118.333 47.5 -189s-15.833 -133.667 -47.5 -189s-75.334 -98.5 -131.001 -129.5s-117.834 -46.5 -186.501 -46.5s-130.834 15.5 -186.501 46.5
s-99.334 74.167 -131.001 129.5s-47.5 118.333 -47.5 189s15.833 133.667 47.5 189s75.334 98.5 131.001 129.5s117.834 46.5 186.501 46.5s130.834 -15.5 186.501 -46.5zM270 575.5c-38 -22.333 -67.667 -53.166 -89 -92.499s-32 -83.666 -32 -132.999
s10.667 -93.666 32 -132.999s51 -70.166 89 -92.499s81.333 -33.5 130 -33.5s92 11.167 130 33.5s67.667 53.166 89 92.499s32 83.666 32 132.999s-10.667 93.666 -32 132.999s-51 70.166 -89 92.499s-81.333 33.5 -130 33.5s-92 -11.167 -130 -33.5z" />
    <glyph glyph-name="ohungarumlaut" unicode="&#x151;" horiz-adv-x="566" 
d="M412.5 445c38.333 -21.333 68.5 -50.666 90.5 -87.999s33 -79.333 33 -126s-11 -88.667 -33 -126s-52.167 -66.666 -90.5 -87.999s-81.5 -32 -129.5 -32s-91.167 10.667 -129.5 32s-68.5 50.666 -90.5 87.999s-33 79.333 -33 126s11 88.667 33 126
s52.167 66.666 90.5 87.999s81.5 32 129.5 32s91.167 -10.667 129.5 -32zM175.5 340c-27.667 -27.333 -41.5 -63.666 -41.5 -108.999s13.833 -81.666 41.5 -108.999s63.5 -41 107.5 -41s79.833 13.667 107.5 41s41.5 63.666 41.5 108.999s-13.833 81.666 -41.5 108.999
s-63.5 41 -107.5 41s-79.833 -13.667 -107.5 -41zM256 553h-70l104 154h89zM384 553h-70l104 154h89z" />
    <glyph glyph-name="OE" unicode="&#x152;" horiz-adv-x="1100" 
d="M1055 98l0.000976562 -97.999h-407v87c-33.333 -32.667 -71.5 -57.834 -114.5 -75.501s-88.833 -26.5 -137.5 -26.5c-67.333 0 -128.5 15.5 -183.5 46.5s-98.333 74.167 -130 129.5s-47.5 118.333 -47.5 189c0 70 15.833 132.833 47.5 188.5s75 99 130 130
s116.167 46.5 183.5 46.5c48 0 93.667 -9 137 -27s81.666 -43 114.999 -75v87h392v-98h-288v-166h273v-98h-273v-240h303zM528.001 123.501c38 23 67.5 54.332 88.5 93.999s31.5 83.834 31.5 132.501c0 48 -10.5 91.833 -31.5 131.5s-50.5 71.167 -88.5 94.5s-82 35 -132 35
c-47.333 0 -90 -11.167 -128 -33.5s-67.667 -53.333 -89 -93s-32 -84.5 -32 -134.5s10.667 -94.833 32 -134.5s51 -70.667 89 -93s80.667 -33.5 128 -33.5c50 0 94 11.5 132 34.5z" />
    <glyph glyph-name="oe" unicode="&#x153;" horiz-adv-x="905" 
d="M816.5 410.5c39 -44.333 58.5 -104.169 58.5 -179.502v-16h-358c2 -40.667 15.833 -73.5 41.5 -98.5s58.5 -37.5 98.5 -37.5c33.333 0 61.166 7.83301 83.499 23.5s41.833 34.834 58.5 57.501l69 -65c-23.333 -32 -51.666 -58.333 -84.999 -79s-75.333 -31 -126 -31
c-42.667 0 -80 8.33301 -112 25s-57 40.334 -75 71.001h-2c-16 -30 -40 -53.5 -72 -70.5s-68.667 -25.5 -110 -25.5c-49.333 0 -93.5 10.333 -132.5 31s-69.333 49.667 -91 87s-32.5 80 -32.5 128s10.833 90.667 32.5 128s52 66.333 91 87s83.167 31 132.5 31
c41.333 0 78 -8.5 110 -25.5s56.333 -40.833 73 -71.5h2c17.333 30 42 53.667 74 71s69.333 26 112 26c67.333 0 120.5 -22.167 159.5 -66.5zM564 360.997c-22 -17.333 -36 -42.333 -42 -75h247c-2 32 -13.833 56.833 -35.5 74.5s-50.167 26.5 -85.5 26.5
c-34 0 -62 -8.66699 -84 -26zM176 339.997c-28 -27.333 -42 -63.666 -42 -108.999s14 -81.666 42 -108.999s63.667 -41 107 -41c42.667 0 78.167 13.667 106.5 41s42.5 63.666 42.5 108.999s-14.167 81.666 -42.5 108.999s-63.833 41 -106.5 41
c-43.333 0 -79 -13.667 -107 -41z" />
    <glyph glyph-name="Racute" unicode="&#x154;" horiz-adv-x="582" 
d="M304 743h-74l95 120h126zM237 291l-62.998 -0.000976562v-291h-104v700h239c41.333 0 78.166 -8.33301 110.499 -25s57.666 -40.5 75.999 -71.5s27.5 -67.5 27.5 -109.5c0 -52.667 -14.833 -96.667 -44.5 -132s-69.167 -57.666 -118.5 -66.999l212 -295h-131z
M174.002 388.999l118 -0.000976562c40 0 69.833 9.5 89.5 28.5s29.5 44.5 29.5 76.5c0 32.667 -9.83301 58.834 -29.5 78.501s-49.5 29.5 -89.5 29.5h-118v-213z" />
    <glyph glyph-name="racute" unicode="&#x155;" horiz-adv-x="330" 
d="M320 361h-14.998c-48.667 0 -85.334 -12.5 -110.001 -37.5s-37 -64.5 -37 -118.5v-205h-98v462h98v-101h2c11.333 35.333 30.166 63.333 56.499 84s58.5 31 96.5 31h7v-115zM240.002 553h-77l95 154h126z" />
    <glyph glyph-name="uni0156" unicode="&#x156;" horiz-adv-x="582" 
d="M237 291l-62.998 -0.000976562v-291h-104v700h239c41.333 0 78.166 -8.33301 110.499 -25s57.666 -40.5 75.999 -71.5s27.5 -67.5 27.5 -109.5c0 -52.667 -14.833 -96.667 -44.5 -132s-69.167 -57.666 -118.5 -66.999l212 -295h-131zM174.002 388.999l118 -0.000976562
c40 0 69.833 9.5 89.5 28.5s29.5 44.5 29.5 76.5c0 32.667 -9.83301 58.834 -29.5 78.501s-49.5 29.5 -89.5 29.5h-118v-213zM346.002 -47.002v-89l-64 -74h-37l37 74h-35v89h99z" />
    <glyph glyph-name="uni0157" unicode="&#x157;" horiz-adv-x="330" 
d="M320 361h-14.998c-48.667 0 -85.334 -12.5 -110.001 -37.5s-37 -64.5 -37 -118.5v-205h-98v462h98v-101h2c11.333 35.333 30.166 63.333 56.499 84s58.5 31 96.5 31h7v-115zM160.002 -47v-89l-64 -74h-37l37 74h-35v89h99z" />
    <glyph glyph-name="Rcaron" unicode="&#x158;" horiz-adv-x="582" 
d="M223 743l-120 120h93l75 -75l76 75h93l-120 -120h-97zM237 291l-62.998 -0.000976562v-291h-104v700h239c41.333 0 78.166 -8.33301 110.499 -25s57.666 -40.5 75.999 -71.5s27.5 -67.5 27.5 -109.5c0 -52.667 -14.833 -96.667 -44.5 -132
s-69.167 -57.666 -118.5 -66.999l212 -295h-131zM174.002 388.999l118 -0.000976562c40 0 69.833 9.5 89.5 28.5s29.5 44.5 29.5 76.5c0 32.667 -9.83301 58.834 -29.5 78.501s-49.5 29.5 -89.5 29.5h-118v-213z" />
    <glyph glyph-name="rcaron" unicode="&#x159;" horiz-adv-x="330" 
d="M320 361h-14.998c-48.667 0 -85.334 -12.5 -110.001 -37.5s-37 -64.5 -37 -118.5v-205h-98v462h98v-101h2c11.333 35.333 30.166 63.333 56.499 84s58.5 31 96.5 31h7v-115zM250.002 546h-98l-124 154h94l79 -95l79 95h94z" />
    <glyph glyph-name="Sacute" unicode="&#x15a;" horiz-adv-x="500" 
d="M297 743h-74l95 120h126zM445 668l-46.998 -99.001c-22 12.667 -45.333 22.667 -70 30s-48.334 11 -71.001 11c-53.333 0 -80 -20 -80 -60c0 -15.333 4.33301 -29.166 13 -41.499s22.667 -26.166 42 -41.499l125 -96c37.333 -28.667 64.666 -57.834 81.999 -87.501
s26 -63.834 26 -102.501c0 -62.667 -20.333 -111 -61 -145s-95 -51 -163 -51c-42 0 -82.667 6 -122 18s-74 27.667 -104 47l47 98c66 -38 126 -57 180 -57c36 0 63.5 7.83301 82.5 23.5s28.5 35.834 28.5 60.501c0 18.667 -5.83301 36 -17.5 52s-30.5 34.333 -56.5 55
l-119 94c-32 24.667 -56 50.5 -72 77.5s-24 57.833 -24 92.5c0 52 17.333 93.167 52 123.5s82.667 45.5 144 45.5c62 0 123.667 -15.667 185 -47z" />
    <glyph glyph-name="sacute" unicode="&#x15b;" horiz-adv-x="403" 
d="M104.5 -2c-33 8.66699 -62.834 20.666 -89.501 35.999l44 87c50.667 -29.333 99.667 -44 147 -44c48 0 72 14.333 72 43c0 10 -3.5 18.833 -10.5 26.5s-19.833 16.167 -38.5 25.5l-84 41c-64.667 30.667 -97 75 -97 133c0 42 14.5 74.333 43.5 97s69.167 34 120.5 34
c26 0 52.833 -3.16699 80.5 -9.5s54.167 -15.166 79.5 -26.499l-40 -85c-46.667 20 -87.667 30 -123 30c-38 0 -57 -11.667 -57 -35c0 -11.333 3.83301 -21 11.5 -29s21.5 -16.667 41.5 -26l86 -41c30.667 -14 53.667 -31.5 69 -52.5s23 -46.833 23 -77.5
c0 -46 -16.167 -80.833 -48.5 -104.5s-76.166 -35.5 -131.499 -35.5c-32.667 0 -65.5 4.33301 -98.5 13zM245.999 552.999h-77l95 154h126z" />
    <glyph glyph-name="Scircumflex" unicode="&#x15c;" horiz-adv-x="500" 
d="M433 743h-93l-76 75l-75 -75h-93l120 120h97zM445 668l-46.998 -99.001c-22 12.667 -45.333 22.667 -70 30s-48.334 11 -71.001 11c-53.333 0 -80 -20 -80 -60c0 -15.333 4.33301 -29.166 13 -41.499s22.667 -26.166 42 -41.499l125 -96
c37.333 -28.667 64.666 -57.834 81.999 -87.501s26 -63.834 26 -102.501c0 -62.667 -20.333 -111 -61 -145s-95 -51 -163 -51c-42 0 -82.667 6 -122 18s-74 27.667 -104 47l47 98c66 -38 126 -57 180 -57c36 0 63.5 7.83301 82.5 23.5s28.5 35.834 28.5 60.501
c0 18.667 -5.83301 36 -17.5 52s-30.5 34.333 -56.5 55l-119 94c-32 24.667 -56 50.5 -72 77.5s-24 57.833 -24 92.5c0 52 17.333 93.167 52 123.5s82.667 45.5 144 45.5c62 0 123.667 -15.667 185 -47z" />
    <glyph glyph-name="scircumflex" unicode="&#x15d;" horiz-adv-x="403" 
d="M104.5 -2c-33 8.66699 -62.834 20.666 -89.501 35.999l44 87c50.667 -29.333 99.667 -44 147 -44c48 0 72 14.333 72 43c0 10 -3.5 18.833 -10.5 26.5s-19.833 16.167 -38.5 25.5l-84 41c-64.667 30.667 -97 75 -97 133c0 42 14.5 74.333 43.5 97s69.167 34 120.5 34
c26 0 52.833 -3.16699 80.5 -9.5s54.167 -15.166 79.5 -26.499l-40 -85c-46.667 20 -87.667 30 -123 30c-38 0 -57 -11.667 -57 -35c0 -11.333 3.83301 -21 11.5 -29s21.5 -16.667 41.5 -26l86 -41c30.667 -14 53.667 -31.5 69 -52.5s23 -46.833 23 -77.5
c0 -46 -16.167 -80.833 -48.5 -104.5s-76.166 -35.5 -131.499 -35.5c-32.667 0 -65.5 4.33301 -98.5 13zM379.999 552.999h-94l-79 95l-79 -95h-94l124 154h98z" />
    <glyph glyph-name="Scedilla" unicode="&#x15e;" horiz-adv-x="500" 
d="M410.5 41.5c-36.333 -33.667 -85.834 -52.165 -148.501 -55.498l-7 -22c20.667 -6 37.334 -14.333 50.001 -25s19 -26 19 -46c0 -16 -5.5 -29.833 -16.5 -41.5s-24.667 -21.834 -41 -30.501s-40.5 -19.667 -72.5 -33l-13 28c29.333 14.667 50.333 26.167 63 34.5
s19 16.833 19 25.5c0 11.333 -4.83301 19.666 -14.5 24.999s-26.167 10.666 -49.5 15.999l25 68c-39.333 2 -77.166 9 -113.499 21s-68.166 26.667 -95.499 44l47 98c66 -38 126 -57 180 -57c36 0 63.5 7.83301 82.5 23.5s28.5 35.834 28.5 60.501
c0 18.667 -5.83301 36 -17.5 52s-30.5 34.333 -56.5 55l-119 94c-32 24.667 -56 50.5 -72 77.5s-24 57.833 -24 92.5c0 52 17.333 93.167 52 123.5s82.667 45.5 144 45.5c62 0 123.667 -15.667 185 -47l-47 -99c-22 12.667 -45.333 22.667 -70 30s-48.334 11 -71.001 11
c-53.333 0 -80 -20 -80 -60c0 -15.333 4.33301 -29.166 13 -41.499s22.667 -26.166 42 -41.499l125 -96c37.333 -28.667 64.666 -57.834 81.999 -87.501s26 -63.834 26 -102.501c0 -59.333 -18.167 -105.833 -54.5 -139.5z" />
    <glyph glyph-name="scedilla" unicode="&#x15f;" horiz-adv-x="403" 
d="M338 23.5c-30 -23.667 -71.001 -36.498 -123.001 -38.498l-7 -21c20.667 -6 37.334 -14.333 50.001 -25s19 -26 19 -46c0 -16 -5.5 -29.833 -16.5 -41.5s-24.667 -21.834 -41 -30.501s-40.5 -19.667 -72.5 -33l-13 28c29.333 14.667 50.333 26.167 63 34.5
s19 16.833 19 25.5c0 11.333 -4.83301 19.666 -14.5 24.999s-26.167 10.666 -49.5 15.999l25 69c-60.667 4 -114.667 20 -162 48l44 87c50.667 -29.333 99.667 -44 147 -44c48 0 72 14.333 72 43c0 10 -3.5 18.833 -10.5 26.5s-19.833 16.167 -38.5 25.5l-84 41
c-64.667 30.667 -97 75 -97 133c0 42 14.5 74.333 43.5 97s69.167 34 120.5 34c26 0 52.833 -3.16699 80.5 -9.5s54.167 -15.166 79.5 -26.499l-40 -85c-46.667 20 -87.667 30 -123 30c-38 0 -57 -11.667 -57 -35c0 -11.333 3.83301 -21 11.5 -29s21.5 -16.667 41.5 -26
l86 -41c30.667 -14 53.667 -31.5 69 -52.5s23 -46.833 23 -77.5c0 -44 -15 -77.833 -45 -101.5z" />
    <glyph glyph-name="Scaron" unicode="&#x160;" horiz-adv-x="500" 
d="M216 743l-120 120h93l75 -75l76 75h93l-120 -120h-97zM445 668l-46.998 -99.001c-22 12.667 -45.333 22.667 -70 30s-48.334 11 -71.001 11c-53.333 0 -80 -20 -80 -60c0 -15.333 4.33301 -29.166 13 -41.499s22.667 -26.166 42 -41.499l125 -96
c37.333 -28.667 64.666 -57.834 81.999 -87.501s26 -63.834 26 -102.501c0 -62.667 -20.333 -111 -61 -145s-95 -51 -163 -51c-42 0 -82.667 6 -122 18s-74 27.667 -104 47l47 98c66 -38 126 -57 180 -57c36 0 63.5 7.83301 82.5 23.5s28.5 35.834 28.5 60.501
c0 18.667 -5.83301 36 -17.5 52s-30.5 34.333 -56.5 55l-119 94c-32 24.667 -56 50.5 -72 77.5s-24 57.833 -24 92.5c0 52 17.333 93.167 52 123.5s82.667 45.5 144 45.5c62 0 123.667 -15.667 185 -47z" />
    <glyph glyph-name="scaron" unicode="&#x161;" horiz-adv-x="403" 
d="M104.5 -2c-33 8.66699 -62.834 20.666 -89.501 35.999l44 87c50.667 -29.333 99.667 -44 147 -44c48 0 72 14.333 72 43c0 10 -3.5 18.833 -10.5 26.5s-19.833 16.167 -38.5 25.5l-84 41c-64.667 30.667 -97 75 -97 133c0 42 14.5 74.333 43.5 97s69.167 34 120.5 34
c26 0 52.833 -3.16699 80.5 -9.5s54.167 -15.166 79.5 -26.499l-40 -85c-46.667 20 -87.667 30 -123 30c-38 0 -57 -11.667 -57 -35c0 -11.333 3.83301 -21 11.5 -29s21.5 -16.667 41.5 -26l86 -41c30.667 -14 53.667 -31.5 69 -52.5s23 -46.833 23 -77.5
c0 -46 -16.167 -80.833 -48.5 -104.5s-76.166 -35.5 -131.499 -35.5c-32.667 0 -65.5 4.33301 -98.5 13zM255.999 545.999h-98l-124 154h94l79 -95l79 95h94z" />
    <glyph glyph-name="uni0162" unicode="&#x162;" horiz-adv-x="518" 
d="M280 0l-12.001 -35.9971c20.667 -6 37.334 -14.333 50.001 -25s19 -26 19 -46c0 -16 -5.5 -29.833 -16.5 -41.5s-24.667 -21.834 -41 -30.501s-40.5 -19.667 -72.5 -33l-13 28c29.333 14.667 50.333 26.167 63 34.5s19 16.833 19 25.5
c0 11.333 -4.83301 19.666 -14.5 24.999s-26.167 10.666 -49.5 15.999l30 83h-35v602h-197v98h498v-98h-197v-602h-31z" />
    <glyph glyph-name="uni0163" unicode="&#x163;" horiz-adv-x="309" 
d="M195 379l-0.00195312 -241.995c0 -16.667 3.83301 -28.834 11.5 -36.501s19.834 -11.5 36.501 -11.5h24v-90h-45h-5l-12 -35c20.667 -6 37.334 -14.333 50.001 -25s19 -26 19 -46c0 -16 -5.5 -29.833 -16.5 -41.5s-24.667 -21.834 -41 -30.501s-40.5 -19.667 -72.5 -33
l-13 28c29.333 14.667 50.333 26.167 63 34.5s19 16.833 19 25.5c0 11.333 -4.83301 19.666 -14.5 24.999s-26.167 10.666 -49.5 15.999l31 87c-26.667 6 -47.167 18.667 -61.5 38s-21.5 44.666 -21.5 75.999v261h-82v83h82v185h98v-185h94v-83h-94z" />
    <glyph glyph-name="Tcaron" unicode="&#x164;" horiz-adv-x="518" 
d="M211 743l-120 120h93l75 -75l76 75h93l-120 -120h-97zM508 602h-197v-602h-104v602h-197v98h498v-98z" />
    <glyph glyph-name="tcaron" unicode="&#x165;" horiz-adv-x="339" 
d="M365 700v-100l-78 -97h-35l43 97h-35v100h105zM195 462l93.999 0.000976562v-83h-94v-242c0 -16.667 3.83301 -28.834 11.5 -36.501s19.834 -11.5 36.501 -11.5h24v-90h-45c-40.667 0 -71.667 10.333 -93 31s-32 50 -32 88v261h-82v83h82v185h98v-185z" />
    <glyph glyph-name="Tbar" unicode="&#x166;" horiz-adv-x="518" 
d="M311 602v-140h136v-86h-136v-376h-104v376h-136v86h136v140h-197v98h498v-98h-197z" />
    <glyph glyph-name="tbar" unicode="&#x167;" horiz-adv-x="302" 
d="M195 379l-0.000976562 -62.999h89v-69h-89v-110c0 -16.667 3.83301 -28.834 11.5 -36.501s19.834 -11.5 36.501 -11.5h24v-90h-45c-40.667 0 -71.667 10.333 -93 31s-32 50 -32 88v129h-78v69h78v63h-82v83h82v185h98v-185h94v-83h-94z" />
    <glyph glyph-name="Utilde" unicode="&#x168;" horiz-adv-x="682" 
d="M386.5 749.5c-14.333 4.33301 -31.5 10.499 -51.5 18.499c-34.667 14 -59 21 -73 21c-24 0 -42.333 -15 -55 -45l-37 11c7.33301 30.667 19.5 56.334 36.5 77.001s39.167 31 66.5 31c12.667 0 25.667 -2 39 -6s31 -10.333 53 -19
c17.333 -7.33301 31.5 -12.666 42.5 -15.999s20.833 -5 29.5 -5c24 0 42.333 15 55 45l37 -11c-7.33301 -30.667 -19.333 -56.334 -36 -77.001s-38.667 -31 -66 -31c-12.667 0 -26.167 2.16699 -40.5 6.5zM622 269.999c0 -57.333 -11.5 -107.5 -34.5 -150.5
s-55.667 -76.167 -98 -99.5s-91.833 -35 -148.5 -35s-106.167 11.667 -148.5 35s-75 56.5 -98 99.5s-34.5 93.167 -34.5 150.5v430h109v-427c0 -55.333 16.167 -99.166 48.5 -131.499s73.5 -48.5 123.5 -48.5s91.167 16.167 123.5 48.5s48.5 76.166 48.5 131.499v427h109
v-430z" />
    <glyph glyph-name="utilde" unicode="&#x169;" horiz-adv-x="526" 
d="M102.5 33.5c-31.667 32.333 -47.501 81.833 -47.501 148.5v280h100v-270c0 -37.333 8.5 -65.333 25.5 -84s40.833 -28 71.5 -28c36 0 64.333 12.833 85 38.5s31 66.5 31 122.5v221h98v-462h-98v70h-2c-12.667 -25.333 -30.667 -45.833 -54 -61.5
s-52.666 -23.5 -87.999 -23.5c-49.333 0 -89.833 16.167 -121.5 48.5zM230.499 697.5c12.333 -4.33301 28.834 -11.5 49.501 -21.5c16.667 -8 29.834 -13.833 39.501 -17.5s18.834 -5.5 27.501 -5.5c11.333 0 21.166 3.66699 29.499 11s16.166 18.666 23.499 33.999l40 -11
c-6.66699 -32.667 -18.334 -59.334 -35.001 -80.001s-38.334 -31 -65.001 -31c-13.333 0 -26.5 2.33301 -39.5 7s-29.5 11.667 -49.5 21c-15.333 8 -27.833 13.833 -37.5 17.5s-18.834 5.5 -27.501 5.5c-11.333 0 -21.166 -3.66699 -29.499 -11
s-16.166 -18.666 -23.499 -33.999l-41 11c6.66699 32.667 18.5 59.334 35.5 80.001s38.833 31 65.5 31c12.667 0 25.167 -2.16699 37.5 -6.5z" />
    <glyph glyph-name="Umacron" unicode="&#x16a;" horiz-adv-x="682" 
d="M485 761h-290v72h290v-72zM622 270c0 -57.333 -11.5 -107.5 -34.5 -150.5s-55.667 -76.167 -98 -99.5s-91.833 -35 -148.5 -35s-106.167 11.667 -148.5 35s-75 56.5 -98 99.5s-34.5 93.167 -34.5 150.5v430h109v-427c0 -55.333 16.167 -99.166 48.5 -131.499
s73.5 -48.5 123.5 -48.5s91.167 16.167 123.5 48.5s48.5 76.166 48.5 131.499v427h109v-430z" />
    <glyph glyph-name="umacron" unicode="&#x16b;" horiz-adv-x="526" 
d="M102.5 33.5c-31.667 32.333 -47.501 81.833 -47.501 148.5v280h100v-270c0 -37.333 8.5 -65.333 25.5 -84s40.833 -28 71.5 -28c36 0 64.333 12.833 85 38.5s31 66.5 31 122.5v221h98v-462h-98v70h-2c-12.667 -25.333 -30.667 -45.833 -54 -61.5
s-52.666 -23.5 -87.999 -23.5c-49.333 0 -89.833 16.167 -121.5 48.5zM406.999 590h-290v72h290v-72z" />
    <glyph glyph-name="Ubreve" unicode="&#x16c;" horiz-adv-x="682" 
d="M436.5 775c-24.333 -21.333 -56.167 -32 -95.5 -32s-71 10.667 -95 32s-37.667 50.666 -41 87.999h67c1.33301 -18.667 8 -32.834 20 -42.501s28.333 -14.5 49 -14.5s37 4.83301 49 14.5s18.667 23.834 20 42.501h67c-2.66699 -37.333 -16.167 -66.666 -40.5 -87.999z
M621.999 270c0 -57.333 -11.5 -107.5 -34.5 -150.5s-55.667 -76.167 -98 -99.5s-91.833 -35 -148.5 -35s-106.167 11.667 -148.5 35s-75 56.5 -98 99.5s-34.5 93.167 -34.5 150.5v430h109v-427c0 -55.333 16.167 -99.166 48.5 -131.499s73.5 -48.5 123.5 -48.5
s91.167 16.167 123.5 48.5s48.5 76.166 48.5 131.499v427h109v-430z" />
    <glyph glyph-name="ubreve" unicode="&#x16d;" horiz-adv-x="526" 
d="M102.5 33.5c-31.667 32.333 -47.501 81.833 -47.501 148.5v280h100v-270c0 -37.333 8.5 -65.333 25.5 -84s40.833 -28 71.5 -28c36 0 64.333 12.833 85 38.5s31 66.5 31 122.5v221h98v-462h-98v70h-2c-12.667 -25.333 -30.667 -45.833 -54 -61.5
s-52.666 -23.5 -87.999 -23.5c-49.333 0 -89.833 16.167 -121.5 48.5zM360.499 597.5c-25 -25 -57.833 -37.5 -98.5 -37.5s-73.5 12.5 -98.5 37.5s-37.5 59.167 -37.5 102.5h68c1.33301 -22.667 8 -40.5 20 -53.5s28 -19.5 48 -19.5s36 6.5 48 19.5s18.667 30.833 20 53.5
h68c0 -43.333 -12.5 -77.5 -37.5 -102.5z" />
    <glyph glyph-name="Uring" unicode="&#x16e;" horiz-adv-x="682" 
d="M425 853c22 -22 33 -50 33 -84c0 -33.333 -11 -61 -33 -83s-50 -33 -84 -33s-62 11 -84 33s-33 49.667 -33 83c0 34 11 62 33 84s50 33 84 33s62 -11 84 -33zM291.5 819.5c-12.333 -13 -18.5 -29.833 -18.5 -50.5c0 -20 6.16699 -36.5 18.5 -49.5s28.5 -19.5 48.5 -19.5
s36.333 6.5 49 19.5s19 29.5 19 49.5c0 20.667 -6.16699 37.5 -18.5 50.5s-28.833 19.5 -49.5 19.5c-20 0 -36.167 -6.5 -48.5 -19.5zM622 270c0 -57.333 -11.5 -107.5 -34.5 -150.5s-55.667 -76.167 -98 -99.5s-91.833 -35 -148.5 -35s-106.167 11.667 -148.5 35
s-75 56.5 -98 99.5s-34.5 93.167 -34.5 150.5v430h109v-427c0 -55.333 16.167 -99.166 48.5 -131.499s73.5 -48.5 123.5 -48.5s91.167 16.167 123.5 48.5s48.5 76.166 48.5 131.499v427h109v-430z" />
    <glyph glyph-name="uring" unicode="&#x16f;" horiz-adv-x="526" 
d="M102.5 33.5c-31.667 32.333 -47.501 81.833 -47.501 148.5v280h100v-270c0 -37.333 8.5 -65.333 25.5 -84s40.833 -28 71.5 -28c36 0 64.333 12.833 85 38.5s31 66.5 31 122.5v221h98v-462h-98v70h-2c-12.667 -25.333 -30.667 -45.833 -54 -61.5
s-52.666 -23.5 -87.999 -23.5c-49.333 0 -89.833 16.167 -121.5 48.5zM347.499 714c22.333 -22 33.5 -50 33.5 -84s-11.167 -62 -33.5 -84s-50.833 -33 -85.5 -33s-63.167 11 -85.5 33s-33.5 50 -33.5 84s11.167 62 33.5 84s50.833 33 85.5 33s63.167 -11 85.5 -33z
M211.499 680c-13 -13.333 -19.5 -30 -19.5 -50s6.5 -36.667 19.5 -50s29.833 -20 50.5 -20s37.5 6.66699 50.5 20s19.5 30 19.5 50s-6.5 36.667 -19.5 50s-29.833 20 -50.5 20s-37.5 -6.66699 -50.5 -20z" />
    <glyph glyph-name="Uhungarumlaut" unicode="&#x170;" horiz-adv-x="682" 
d="M320 743h-69l84 120h87zM441 743h-69l84 120h87zM622 270c0 -57.333 -11.5 -107.5 -34.5 -150.5s-55.667 -76.167 -98 -99.5s-91.833 -35 -148.5 -35s-106.167 11.667 -148.5 35s-75 56.5 -98 99.5s-34.5 93.167 -34.5 150.5v430h109v-427
c0 -55.333 16.167 -99.166 48.5 -131.499s73.5 -48.5 123.5 -48.5s91.167 16.167 123.5 48.5s48.5 76.166 48.5 131.499v427h109v-430z" />
    <glyph glyph-name="uhungarumlaut" unicode="&#x171;" horiz-adv-x="526" 
d="M102.5 33.5c-31.667 32.333 -47.501 81.833 -47.501 148.5v280h100v-270c0 -37.333 8.5 -65.333 25.5 -84s40.833 -28 71.5 -28c36 0 64.333 12.833 85 38.5s31 66.5 31 122.5v221h98v-462h-98v70h-2c-12.667 -25.333 -30.667 -45.833 -54 -61.5
s-52.666 -23.5 -87.999 -23.5c-49.333 0 -89.833 16.167 -121.5 48.5zM234.999 553h-70l104 154h89zM362.999 553h-70l104 154h89z" />
    <glyph glyph-name="Uogonek" unicode="&#x172;" horiz-adv-x="682" 
d="M622 700v-429.999c0 -76 -19.667 -138.833 -59 -188.5s-93.333 -80.167 -162 -91.5c-34 -38 -51 -67.333 -51 -88c0 -7.33301 2.66699 -13 8 -17s12.333 -6 21 -6c7.33301 0 20.333 2 39 6l12 -62c-10.667 -3.33301 -22.667 -5.83301 -36 -7.5s-24.666 -2.5 -33.999 -2.5
c-25.333 0 -45.833 6.5 -61.5 19.5s-23.5 31.5 -23.5 55.5c0 33.333 17.667 65.666 53 96.999c-54 2 -101.333 14.833 -142 38.5s-71.834 56.667 -93.501 99s-32.5 91.5 -32.5 147.5v430h109v-427c0 -55.333 16.167 -99.166 48.5 -131.499s73.5 -48.5 123.5 -48.5
s91.167 16.167 123.5 48.5s48.5 76.166 48.5 131.499v427h109z" />
    <glyph glyph-name="uogonek" unicode="&#x173;" horiz-adv-x="526" 
d="M416 0c-20 -20.667 -35.0029 -39.5 -45.0029 -56.5s-15 -30.833 -15 -41.5c0 -7.33301 2.66699 -13 8 -17s12.333 -6 21 -6c7.33301 0 20.333 2 39 6l12 -62c-10.667 -3.33301 -22.667 -5.83301 -36 -7.5s-24.666 -2.5 -33.999 -2.5c-25.333 0 -45.833 6.5 -61.5 19.5
s-23.5 31.5 -23.5 55.5c0 20.667 6.83301 41 20.5 61s35.834 41 66.501 63v58h-2c-12.667 -25.333 -30.667 -45.833 -54 -61.5s-52.666 -23.5 -87.999 -23.5c-49.333 0 -89.833 16.167 -121.5 48.5s-47.5 81.833 -47.5 148.5v280h100v-270c0 -37.333 8.5 -65.333 25.5 -84
s40.833 -28 71.5 -28c36 0 64.333 12.833 85 38.5s31 66.5 31 122.5v221h98v-462h-50z" />
    <glyph glyph-name="Wcircumflex" unicode="&#x174;" horiz-adv-x="985" 
d="M662 743h-93l-76 75l-75 -75h-93l120 120h97zM760 0h-102l-164 524h-3l-164 -524h-102l-210 700h116l144 -534h2l164 534h103l164 -534h2l144 534h116z" />
    <glyph glyph-name="wcircumflex" unicode="&#x175;" horiz-adv-x="721" 
d="M716 462l-155 -462h-90l-110 331l-111 -331h-90l-155 462h108l93 -333l107 333h95l107 -333l93 333h108zM533 553h-94l-79 95l-79 -95h-94l124 154h98z" />
    <glyph glyph-name="Ycircumflex" unicode="&#x176;" horiz-adv-x="543" 
d="M197 743h-93l120 120h97l120 -120h-93l-76 75zM324 281v-281h-105v280l-219 420h121l149 -309h3l149 309h121z" />
    <glyph glyph-name="ycircumflex" unicode="&#x177;" horiz-adv-x="485" 
d="M480 462l-288 -662h-104l111 242l-194 420h117l127 -303l123 303h108zM420 553h-94l-79 95l-79 -95h-94l124 154h98z" />
    <glyph glyph-name="Ydieresis" unicode="&#x178;" horiz-adv-x="543" 
d="M220 743h-106v104h106v-104zM430 743h-106v104h106v-104zM324 281v-281h-105v280l-219 420h121l149 -309h3l149 309h121z" />
    <glyph glyph-name="Zacute" unicode="&#x179;" horiz-adv-x="542" 
d="M307 743h-74l95 120h126zM522 98v-98h-502v98l362 504h-330v98h455v-98l-362 -504h377z" />
    <glyph glyph-name="zacute" unicode="&#x17a;" horiz-adv-x="436" 
d="M411 91v-91h-386v86l251 285h-241v91h358v-86l-250 -285h268zM257 553h-77l95 154h126z" />
    <glyph glyph-name="Zdotaccent" unicode="&#x17b;" horiz-adv-x="542" 
d="M326 743h-106v104h106v-104zM522 98v-98h-502v98l362 504h-330v98h455v-98l-362 -504h377z" />
    <glyph glyph-name="zdotaccent" unicode="&#x17c;" horiz-adv-x="436" 
d="M411 91v-91h-386v86l251 285h-241v91h358v-86l-250 -285h268zM278 570h-120v120h120v-120z" />
    <glyph glyph-name="Zcaron" unicode="&#x17d;" horiz-adv-x="542" 
d="M226 743l-120 120h93l75 -75l76 75h93l-120 -120h-97zM522 98v-98h-502v98l362 504h-330v98h455v-98l-362 -504h377z" />
    <glyph glyph-name="zcaron" unicode="&#x17e;" horiz-adv-x="436" 
d="M411 91v-91h-386v86l251 285h-241v91h358v-86l-250 -285h268zM267 546h-98l-124 154h94l79 -95l79 95h94z" />
    <glyph glyph-name="uni018F" unicode="&#x18f;" horiz-adv-x="775" 
d="M562 671.5c56.667 -29 100.498 -71.335 131.498 -127.002s46.5 -121.834 46.5 -198.501c0 -71.333 -13.667 -134.166 -41 -188.499s-67.5 -96.666 -120.5 -126.999s-116.167 -45.5 -189.5 -45.5c-74 0 -137.667 15.333 -191 46s-93.833 73.5 -121.5 128.5
s-41.5 118.5 -41.5 190.5v45h591c-9.33301 66.667 -36.666 119.334 -81.999 158.001s-105.666 58 -180.999 58c-42.667 0 -83.5 -6 -122.5 -18s-72.5 -27.667 -100.5 -47l-55 95c89.333 49.333 182.333 74 279 74c75.333 0 141.333 -14.5 198 -43.5zM554.998 143.998
c40 36.667 64 87 72 151h-477c8.66699 -64.667 33.167 -115.167 73.5 -151.5s95.5 -54.5 165.5 -54.5c70.667 0 126 18.333 166 55z" />
    <glyph glyph-name="florin" unicode="&#x192;" horiz-adv-x="401" 
d="M238 494v-32.001h133v-30h-133v-451c0 -58.667 -14.333 -103.5 -43 -134.5s-72.667 -46.5 -132 -46.5h-43v90h40c24 0 43.333 6.33301 58 19s22 33.334 22 62.001v461h-101v30h101v22c0 63.333 16.5 111 49.5 143s79.5 48 139.5 48h42v-90h-38
c-63.333 0 -95 -30.333 -95 -91z" />
    <glyph glyph-name="uni01E5" unicode="&#x1e5;" horiz-adv-x="571" 
d="M571 -71h-68.001c-11.333 -55.333 -34.833 -93.166 -70.5 -113.499s-82.167 -30.5 -139.5 -30.5c-46 0 -105.333 7 -178 21l19 95c62.667 -14 115.667 -21 159 -21c29.333 0 52.333 3.83301 69 11.5s29.334 20.167 38.001 37.5h-172v30h181c2.66699 13.333 4 31.333 4 54
v55h-2c-15.333 -26 -36 -46.333 -62 -61s-57.333 -22 -94 -22c-41.333 0 -79 10 -113 30s-61.167 48.5 -81.5 85.5s-30.5 80.5 -30.5 130.5s10.167 93.5 30.5 130.5s47.5 65.5 81.5 85.5s71.667 30 113 30c36.667 0 68 -7.33301 94 -22s46.667 -35 62 -61h2v68h98v-462
c0 -14.667 -1 -28.334 -3 -41.001h63v-30zM378.999 122.5c26 27.667 39 63.834 39 108.501s-13 80.834 -39 108.501s-60.333 41.5 -103 41.5s-77 -13.833 -103 -41.5s-39 -63.834 -39 -108.501s13 -80.834 39 -108.501s60.333 -41.5 103 -41.5s77 13.833 103 41.5z" />
    <glyph glyph-name="uni01E9" unicode="&#x1e9;" horiz-adv-x="483" 
d="M66 743l-120 120h93l75 -75l76 75h93l-120 -120h-97zM349 0l-186 227v-227h-98v700h98v-435l165 197h129l-194 -210l215 -252h-129z" />
    <glyph glyph-name="AEacute" unicode="&#x1fc;" horiz-adv-x="933" 
d="M715 743h-74l95 120h126zM888 98v-98h-377v174h-265l-110 -174h-131l455 700h423v-98h-270v-166h246v-98h-246v-240h275zM511 270v322l-204 -322h204z" />
    <glyph glyph-name="aeacute" unicode="&#x1fd;" horiz-adv-x="814" 
d="M101.5 5.5c-28.333 13.667 -50.6641 32.832 -66.9971 57.499s-24.5 53 -24.5 85c0 47.333 17 85.833 51 115.5s78 44.5 132 44.5c29.333 0 56.333 -4.83301 81 -14.5s44 -23.5 58 -41.5h2v40c0 64.667 -35.667 97 -107 97c-39.333 0 -90 -8 -152 -24l-21 87
c28 7.33301 58.833 13.333 92.5 18s62.834 7 87.501 7c81.333 0 133.666 -29.667 156.999 -89h2c15.333 26.667 38.333 48.167 69 64.5s66.334 24.5 107.001 24.5c66.667 0 119.167 -22.167 157.5 -66.5s57.5 -104.166 57.5 -179.499v-16h-354c2 -40 14.5 -72.667 37.5 -98
s56.167 -38 99.5 -38c35.333 0 63.166 7.5 83.499 22.5s39.833 34.5 58.5 58.5l67 -63c-20.667 -30.667 -47.834 -57 -81.501 -79s-74.834 -33 -123.501 -33c-44.667 0 -83.834 10 -117.501 30s-58.167 45.333 -73.5 76h-2c-14.667 -34 -38.667 -60.167 -72 -78.5
s-70 -27.5 -110 -27.5c-34.667 0 -66.167 6.83301 -94.5 20.5zM677.002 285.998c-1.33301 30 -12.667 54.333 -34 73s-49.333 28 -84 28c-32 0 -59 -8.66699 -81 -26s-36.333 -42.333 -43 -75h242zM300.501 91.498c22.333 15 33.501 34.168 33.501 57.501s-11 42 -33 56
s-49.667 21 -83 21c-34 0 -59.833 -7.33301 -77.5 -22s-26.5 -33.334 -26.5 -56.001c0 -23.333 9 -42.333 27 -57s43.333 -22 76 -22c33.333 0 61.166 7.5 83.499 22.5zM448.002 552.999h-77l95 154h126z" />
    <glyph glyph-name="Oslashacute" unicode="&#x1fe;" horiz-adv-x="800" 
d="M433 743h-74l95 120h126zM730.5 513c23 -49.333 34.501 -103.668 34.501 -163.001c0 -70.667 -15.833 -133.667 -47.5 -189s-75.334 -98.5 -131.001 -129.5s-117.834 -46.5 -186.501 -46.5c-74 0 -141 18.333 -201 55l-39 -54l-34 21l41 56
c-42 32.667 -74.5 73.667 -97.5 123s-34.5 104 -34.5 164c0 70.667 15.833 133.667 47.5 189s75.334 98.5 131.001 129.5s117.834 46.5 186.501 46.5c75.333 0 142.666 -18.667 201.999 -56l40 55l33 -21l-41 -56c41.333 -33.333 73.5 -74.666 96.5 -123.999z
M171.001 237.998c14.667 -34 35 -62.6689 61 -86.002l306 419c-41.333 25.333 -87.333 38 -138 38c-48.667 0 -92 -11.167 -130 -33.5s-67.667 -53.166 -89 -92.499s-32 -83.666 -32 -132.999c0 -40.667 7.33301 -78 22 -112zM530.001 124.496
c38 22.333 67.668 53.167 89.001 92.5s32 83.666 32 132.999c0 40.667 -7.16699 77.834 -21.5 111.501s-34.5 62.167 -60.5 85.5l-305 -419c39.333 -24.667 84.666 -37 135.999 -37c48.667 0 92 11.167 130 33.5z" />
    <glyph glyph-name="oslashacute" unicode="&#x1ff;" horiz-adv-x="566" 
d="M515.5 331.5c13.667 -31 20.5 -64.5 20.5 -100.5c0 -46.667 -11 -88.667 -33 -126s-52.167 -66.666 -90.5 -87.999s-81.5 -32 -129.5 -32c-59.333 0 -111.666 16.333 -156.999 49l-42 -48l-27 23l43 48c-22.667 22.667 -40 48.667 -52 78s-18 61.333 -18 96
c0 46.667 11 88.667 33 126s52.167 66.666 90.5 87.999s81.5 32 129.5 32c55.333 0 104.666 -14.333 147.999 -43l38 43l27 -24l-37 -42c24 -22 42.833 -48.5 56.5 -79.5zM166 133l200.001 227c-24.667 14 -52.334 21 -83.001 21c-44 0 -79.833 -13.667 -107.5 -41
s-41.5 -63.666 -41.5 -108.999c0 -38.667 10.667 -71.334 32 -98.001zM390.501 122c27.667 27.333 41.501 63.668 41.501 109.001c0 43.333 -12.667 78.666 -38 105.999l-202 -229c25.333 -18 55.666 -27 90.999 -27c44 0 79.833 13.667 107.5 41zM320.002 553.002h-77
l95 154h126z" />
    <glyph glyph-name="uni0218" unicode="&#x218;" horiz-adv-x="500" 
d="M445 668l-46.998 -99.001c-22 12.667 -45.333 22.667 -70 30s-48.334 11 -71.001 11c-53.333 0 -80 -20 -80 -60c0 -15.333 4.33301 -29.166 13 -41.499s22.667 -26.166 42 -41.499l125 -96c37.333 -28.667 64.666 -57.834 81.999 -87.501s26 -63.834 26 -102.501
c0 -62.667 -20.333 -111 -61 -145s-95 -51 -163 -51c-42 0 -82.667 6 -122 18s-74 27.667 -104 47l47 98c66 -38 126 -57 180 -57c36 0 63.5 7.83301 82.5 23.5s28.5 35.834 28.5 60.501c0 18.667 -5.83301 36 -17.5 52s-30.5 34.333 -56.5 55l-119 94
c-32 24.667 -56 50.5 -72 77.5s-24 57.833 -24 92.5c0 52 17.333 93.167 52 123.5s82.667 45.5 144 45.5c62 0 123.667 -15.667 185 -47zM295.002 -47.001v-89l-64 -74h-37l37 74h-35v89h99z" />
    <glyph glyph-name="uni0219" unicode="&#x219;" horiz-adv-x="403" 
d="M104.5 -2c-33 8.66699 -62.834 20.666 -89.501 35.999l44 87c50.667 -29.333 99.667 -44 147 -44c48 0 72 14.333 72 43c0 10 -3.5 18.833 -10.5 26.5s-19.833 16.167 -38.5 25.5l-84 41c-64.667 30.667 -97 75 -97 133c0 42 14.5 74.333 43.5 97s69.167 34 120.5 34
c26 0 52.833 -3.16699 80.5 -9.5s54.167 -15.166 79.5 -26.499l-40 -85c-46.667 20 -87.667 30 -123 30c-38 0 -57 -11.667 -57 -35c0 -11.333 3.83301 -21 11.5 -29s21.5 -16.667 41.5 -26l86 -41c30.667 -14 53.667 -31.5 69 -52.5s23 -46.833 23 -77.5
c0 -46 -16.167 -80.833 -48.5 -104.5s-76.166 -35.5 -131.499 -35.5c-32.667 0 -65.5 4.33301 -98.5 13zM247.999 -47.001v-89l-64 -74h-37l37 74h-35v89h99z" />
    <glyph glyph-name="uni021A" unicode="&#x21a;" horiz-adv-x="518" 
d="M508 602h-197v-602h-104v602h-197v98h498v-98zM308 -47v-89l-64 -74h-37l37 74h-35v89h99z" />
    <glyph glyph-name="uni021B" unicode="&#x21b;" horiz-adv-x="309" 
d="M195 379l-0.000976562 -241.999c0 -16.667 3.83301 -28.834 11.5 -36.501s19.834 -11.5 36.501 -11.5h24v-90h-45c-40.667 0 -71.667 10.333 -93 31s-32 50 -32 88v261h-82v83h82v185h98v-185h94v-83h-94zM244.999 -46.999v-89l-64 -74h-37l37 74h-35v89h99z" />
    <glyph glyph-name="uni0232" unicode="&#x232;" horiz-adv-x="543" 
d="M416 761h-290v72h290v-72zM324 281v-281h-105v280l-219 420h121l149 -309h3l149 309h121z" />
    <glyph glyph-name="uni0233" unicode="&#x233;" horiz-adv-x="485" 
d="M480 462l-288 -662h-104l111 242l-194 420h117l127 -303l123 303h108zM392 590h-290v72h290v-72z" />
    <glyph glyph-name="uni0237" unicode="&#x237;" horiz-adv-x="228" 
d="M12 -114c18.667 0 32.167 4.33203 40.5 12.999s12.5 23 12.5 43v520h98v-530c0 -43.333 -11.833 -76.666 -35.5 -99.999s-57.167 -35 -100.5 -35h-33v89h18z" />
    <glyph glyph-name="uni0259" unicode="&#x259;" horiz-adv-x="517" 
d="M88.5 51.5c-39 44.333 -58.501 104.169 -58.501 179.502v16h358c-2 40.667 -15.833 73.5 -41.5 98.5s-58.5 37.5 -98.5 37.5c-33.333 0 -61.166 -7.83301 -83.499 -23.5s-41.833 -34.834 -58.5 -57.501l-69 65c53.333 73.333 123 110 209 110
c48.667 0 91.167 -10.167 127.5 -30.5s64.333 -49 84 -86s29.5 -79.833 29.5 -128.5c0 -46.667 -9.5 -88.834 -28.5 -126.501s-46.333 -67.167 -82 -88.5s-77.5 -32 -125.5 -32c-69.333 0 -123.5 22.167 -162.5 66.5zM340.999 101.003c22 17.333 36 42.333 42 75h-247
c2 -32 13.833 -56.833 35.5 -74.5s50.167 -26.5 85.5 -26.5c34 0 62 8.66699 84 26z" />
    <glyph glyph-name="uni0292" unicode="&#x292;" horiz-adv-x="469" 
d="M83.5 -202.5c-36.333 8.33301 -69.1699 20.165 -98.5029 35.498l42 92c27.333 -14.667 55.833 -26 85.5 -34s58.5 -12 86.5 -12c44.667 0 79.334 11 104.001 33s37 51.667 37 89c0 74 -52.667 111 -158 111h-84v80l191 178h-261v92h385v-98l-198 -175
c18.667 2.66699 34 4 46 4c33.333 0 63.833 -7.66699 91.5 -23s49.834 -37.666 66.501 -66.999s25 -63.666 25 -102.999c0 -68 -21.5 -120.833 -64.5 -158.5s-104.833 -56.5 -185.5 -56.5c-37.333 0 -74.166 4.16699 -110.499 12.5z" />
    <glyph glyph-name="uni02BC" unicode="&#x2bc;" horiz-adv-x="178" 
d="M148 715v-105l-78 -147h-35l53 147h-45v105h105z" />
    <glyph glyph-name="circumflex" unicode="&#x2c6;" horiz-adv-x="446" 
d="M396 553h-94l-79 95l-79 -95h-94l124 154h98z" />
    <glyph glyph-name="caron" unicode="&#x2c7;" horiz-adv-x="446" 
d="M272 546h-98l-124 154h94l79 -95l79 95h94z" />
    <glyph glyph-name="breve" unicode="&#x2d8;" horiz-adv-x="372" 
d="M284.5 597.5c-25 -25 -57.833 -37.5 -98.5 -37.5s-73.5 12.5 -98.5 37.5s-37.5 59.167 -37.5 102.5h68c1.33301 -22.667 8 -40.5 20 -53.5s28 -19.5 48 -19.5s36 6.5 48 19.5s18.667 30.833 20 53.5h68c0 -43.333 -12.5 -77.5 -37.5 -102.5z" />
    <glyph glyph-name="dotaccent" unicode="&#x2d9;" horiz-adv-x="220" 
d="M170 570h-120v120h120v-120z" />
    <glyph glyph-name="ring" unicode="&#x2da;" horiz-adv-x="338" 
d="M254.5 714c22.333 -22 33.5 -50 33.5 -84s-11.167 -62 -33.5 -84s-50.833 -33 -85.5 -33s-63.167 11 -85.5 33s-33.5 50 -33.5 84s11.167 62 33.5 84s50.833 33 85.5 33s63.167 -11 85.5 -33zM118.5 680c-13 -13.333 -19.5 -30 -19.5 -50s6.5 -36.667 19.5 -50
s29.833 -20 50.5 -20s37.5 6.66699 50.5 20s19.5 30 19.5 50s-6.5 36.667 -19.5 50s-29.833 20 -50.5 20s-37.5 -6.66699 -50.5 -20z" />
    <glyph glyph-name="ogonek" unicode="&#x2db;" horiz-adv-x="255" 
d="M195 10c-23.333 -23.333 -40.834 -44.333 -52.501 -63s-17.5 -33.667 -17.5 -45c0 -7.33301 2.66699 -13 8 -17s12.333 -6 21 -6c7.33301 0 20.333 2 39 6l12 -62c-10.667 -3.33301 -22.667 -5.83301 -36 -7.5s-24.666 -2.5 -33.999 -2.5
c-25.333 0 -45.833 6.5 -61.5 19.5s-23.5 31.5 -23.5 55.5c0 22.667 8.16699 45 24.5 67s42.833 45 79.5 69z" />
    <glyph glyph-name="tilde" unicode="&#x2dc;" horiz-adv-x="448" 
d="M188.5 697.5c12.333 -4.33301 28.834 -11.5 49.501 -21.5c16.667 -8 29.834 -13.833 39.501 -17.5s18.834 -5.5 27.501 -5.5c11.333 0 21.166 3.66699 29.499 11s16.166 18.666 23.499 33.999l40 -11c-6.66699 -32.667 -18.334 -59.334 -35.001 -80.001
s-38.334 -31 -65.001 -31c-13.333 0 -26.5 2.33301 -39.5 7s-29.5 11.667 -49.5 21c-15.333 8 -27.833 13.833 -37.5 17.5s-18.834 5.5 -27.501 5.5c-11.333 0 -21.166 -3.66699 -29.499 -11s-16.166 -18.666 -23.499 -33.999l-41 11
c6.66699 32.667 18.5 59.334 35.5 80.001s38.833 31 65.5 31c12.667 0 25.167 -2.16699 37.5 -6.5z" />
    <glyph glyph-name="hungarumlaut" unicode="&#x2dd;" horiz-adv-x="421" 
d="M120 553h-70l104 154h89zM248 553h-70l104 154h89z" />
    <glyph glyph-name="gravecomb" unicode="&#x300;" horiz-adv-x="0" 
d="M-50 553h-76l-145 154h127z" />
    <glyph glyph-name="acutecomb" unicode="&#x301;" horiz-adv-x="0" 
d="M-194 553h-77l95 154h126z" />
    <glyph glyph-name="uni0302" unicode="&#x302;" horiz-adv-x="0" 
d="M-50 553h-94l-79 95l-79 -95h-94l124 154h98z" />
    <glyph glyph-name="tildecomb" unicode="&#x303;" horiz-adv-x="0" 
d="M-259.5 697.5c12.333 -4.33301 28.834 -11.5 49.501 -21.5c16.667 -8 29.834 -13.833 39.501 -17.5s18.834 -5.5 27.501 -5.5c11.333 0 21.166 3.66699 29.499 11s16.166 18.666 23.499 33.999l40 -11c-6.66699 -32.667 -18.334 -59.334 -35.001 -80.001
s-38.334 -31 -65.001 -31c-13.333 0 -26.5 2.33301 -39.5 7s-29.5 11.667 -49.5 21c-15.333 8 -27.833 13.833 -37.5 17.5s-18.834 5.5 -27.501 5.5c-11.333 0 -21.166 -3.66699 -29.499 -11s-16.166 -18.666 -23.499 -33.999l-41 11
c6.66699 32.667 18.5 59.334 35.5 80.001s38.833 31 65.5 31c12.667 0 25.167 -2.16699 37.5 -6.5z" />
    <glyph glyph-name="uni0304" unicode="&#x304;" horiz-adv-x="0" 
d="M-50 590h-290v72h290v-72z" />
    <glyph glyph-name="uni0306" unicode="&#x306;" horiz-adv-x="0" 
d="M-87.5 597.5c-25 -25 -57.833 -37.5 -98.5 -37.5s-73.5 12.5 -98.5 37.5s-37.5 59.167 -37.5 102.5h68c1.33301 -22.667 8 -40.5 20 -53.5s28 -19.5 48 -19.5s36 6.5 48 19.5s18.667 30.833 20 53.5h68c0 -43.333 -12.5 -77.5 -37.5 -102.5z" />
    <glyph glyph-name="uni0307" unicode="&#x307;" horiz-adv-x="0" 
d="M-50 570h-120v120h120v-120z" />
    <glyph glyph-name="uni0308" unicode="&#x308;" horiz-adv-x="0" 
d="M-238 570h-100v120h100v-120zM-50 570h-100v120h100v-120z" />
    <glyph glyph-name="uni030A" unicode="&#x30a;" horiz-adv-x="0" 
d="M-83.5 714c22.333 -22 33.5 -50 33.5 -84s-11.167 -62 -33.5 -84s-50.833 -33 -85.5 -33s-63.167 11 -85.5 33s-33.5 50 -33.5 84s11.167 62 33.5 84s50.833 33 85.5 33s63.167 -11 85.5 -33zM-219.5 680c-13 -13.333 -19.5 -30 -19.5 -50s6.5 -36.667 19.5 -50
s29.833 -20 50.5 -20s37.5 6.66699 50.5 20s19.5 30 19.5 50s-6.5 36.667 -19.5 50s-29.833 20 -50.5 20s-37.5 -6.66699 -50.5 -20z" />
    <glyph glyph-name="uni030B" unicode="&#x30b;" horiz-adv-x="0" 
d="M-301 553h-70l104 154h89zM-173 553h-70l104 154h89z" />
    <glyph glyph-name="uni030C" unicode="&#x30c;" horiz-adv-x="0" 
d="M-174 546h-98l-124 154h94l79 -95l79 95h94z" />
    <glyph glyph-name="uni0312" unicode="&#x312;" horiz-adv-x="0" 
d="M-87 629h35v-89h-99v89l64 74h37z" />
    <glyph glyph-name="uni0326" unicode="&#x326;" horiz-adv-x="0" 
d="M-50 -47v-89l-64 -74h-37l37 74h-35v89h99z" />
    <glyph glyph-name="uni0327" unicode="&#x327;" horiz-adv-x="0" 
d="M-119 -36c20.667 -6 37.333 -14.3301 50 -24.9971s19 -26 19 -46c0 -16 -5.5 -29.833 -16.5 -41.5s-24.667 -21.834 -41 -30.501s-40.5 -19.667 -72.5 -33l-13 28c29.333 14.667 50.333 26.167 63 34.5s19 16.833 19 25.5c0 11.333 -4.83301 19.666 -14.5 24.999
s-26.167 10.666 -49.5 15.999l40 111h38z" />
    <glyph glyph-name="uni0328" unicode="&#x328;" horiz-adv-x="0" 
d="M-60 10c-23.333 -23.333 -40.834 -44.333 -52.501 -63s-17.5 -33.667 -17.5 -45c0 -7.33301 2.66699 -13 8 -17s12.333 -6 21 -6c7.33301 0 20.333 2 39 6l12 -62c-10.667 -3.33301 -22.667 -5.83301 -36 -7.5s-24.666 -2.5 -33.999 -2.5
c-25.333 0 -45.833 6.5 -61.5 19.5s-23.5 31.5 -23.5 55.5c0 22.667 8.16699 45 24.5 67s42.833 45 79.5 69z" />
    <glyph glyph-name="uni0394" unicode="&#x394;" horiz-adv-x="628" 
d="M608 0h-588l250 700h88zM139 44h350l-175 523z" />
    <glyph glyph-name="uni03A9" unicode="&#x3a9;" horiz-adv-x="751" 
d="M556 673c51.333 -28 90.832 -66.6699 118.499 -116.003s41.5 -105.333 41.5 -168c0 -73.333 -19.667 -135.666 -59 -186.999s-89 -86.666 -149 -105.999v-3h194v-93h-286v142c62.667 14 112 42.667 148 86s54 96 54 158c0 72 -21.5 129.333 -64.5 172
s-102.167 64 -177.5 64c-76 0 -135.5 -21.333 -178.5 -64s-64.5 -100 -64.5 -172c0 -62 18 -114.667 54 -158s85.667 -72 149 -86v-142h-287v93h194v3c-38 12.667 -72.833 32.334 -104.5 59.001s-56.834 60 -75.501 100s-28 84.667 -28 134
c0 62.667 13.833 118.667 41.5 168s67.334 88 119.001 116s111.834 42 180.501 42s128.667 -14 180 -42z" />
    <glyph glyph-name="uni03BC" unicode="&#x3bc;" horiz-adv-x="526" 
d="M466 462l-0.000976562 -462h-98v70h-2c-12.667 -25.333 -30.667 -45.833 -54 -61.5s-52.666 -23.5 -87.999 -23.5c-30 0 -57 6 -81 18v-203h-88v662h100v-270c0 -37.333 8.5 -65.333 25.5 -84s40.833 -28 71.5 -28c36 0 64.333 12.833 85 38.5s31 66.5 31 122.5v221h98z
" />
    <glyph glyph-name="pi" unicode="&#x3c0;" horiz-adv-x="603" 
d="M573 383h-106v-383h-92v383h-129l-95 -383h-92l95 383c-46.667 -2 -88 -8.66699 -124 -20v94c18.667 6.66699 38.5 11.667 59.5 15s47.167 5 78.5 5h405v-94z" />
    <glyph glyph-name="uni0401" unicode="&#x401;" horiz-adv-x="520" 
d="M238 743h-106v104h106v-104zM448 743h-106v104h106v-104zM475 98v-98h-405v700h400v-98h-296v-166h273v-98h-273v-240h301z" />
    <glyph glyph-name="uni0402" unicode="&#x402;" horiz-adv-x="715" 
d="M643 382c34.667 -28.667 52.001 -73.667 52.001 -135v-59c0 -58.667 -15.833 -104.667 -47.5 -138s-77.834 -50 -138.501 -50h-79v98h58c33.333 0 58.833 6.83301 76.5 20.5s26.5 38.167 26.5 73.5v53c0 27.333 -9.33301 47.833 -28 61.5s-47.667 20.5 -87 20.5
c-48 0 -104.667 -2.33301 -170 -7v-320h-104v602h-192v98h544v-98h-248v-185c72 5.33301 132.333 8 181 8c69.333 0 121.333 -14.333 156 -43z" />
    <glyph glyph-name="uni0403" unicode="&#x403;" horiz-adv-x="475" 
d="M300 743h-74l95 120h126zM465 602h-291v-602h-104v700h395v-98z" />
    <glyph glyph-name="uni0404" unicode="&#x404;" horiz-adv-x="678" 
d="M502.5 108.5c35.667 13 67.5 29.501 95.5 49.501l55 -90c-79.333 -55.333 -167 -83 -263 -83c-70.667 0 -132.667 14.333 -186 43s-94.833 70.5 -124.5 125.5s-44.5 120.5 -44.5 196.5s14.833 141.5 44.5 196.5s71.167 96.833 124.5 125.5s115.333 43 186 43
c96 0 183.667 -27.667 263 -83l-55 -90c-28 20 -59.833 36.5 -95.5 49.5s-73.5 19.5 -113.5 19.5c-63.333 0 -116.333 -17.5 -159 -52.5s-69 -84.833 -79 -149.5h310v-98h-312c6.66699 -70.667 31.667 -125.334 75 -164.001s98.333 -58 165 -58c40 0 77.833 6.5 113.5 19.5z
" />
    <glyph glyph-name="uni0405" unicode="&#x405;" horiz-adv-x="500" 
d="M445 668l-46.998 -99.001c-22 12.667 -45.333 22.667 -70 30s-48.334 11 -71.001 11c-53.333 0 -80 -20 -80 -60c0 -15.333 4.33301 -29.166 13 -41.499s22.667 -26.166 42 -41.499l125 -96c37.333 -28.667 64.666 -57.834 81.999 -87.501s26 -63.834 26 -102.501
c0 -62.667 -20.333 -111 -61 -145s-95 -51 -163 -51c-42 0 -82.667 6 -122 18s-74 27.667 -104 47l47 98c66 -38 126 -57 180 -57c36 0 63.5 7.83301 82.5 23.5s28.5 35.834 28.5 60.501c0 18.667 -5.83301 36 -17.5 52s-30.5 34.333 -56.5 55l-119 94
c-32 24.667 -56 50.5 -72 77.5s-24 57.833 -24 92.5c0 52 17.333 93.167 52 123.5s82.667 45.5 144 45.5c62 0 123.667 -15.667 185 -47z" />
    <glyph glyph-name="uni0406" unicode="&#x406;" horiz-adv-x="246" 
d="M176 0h-106v700h106v-700z" />
    <glyph glyph-name="uni0407" unicode="&#x407;" horiz-adv-x="246" 
d="M71 743h-106v104h106v-104zM281 743h-106v104h106v-104zM176 0h-106v700h106v-700z" />
    <glyph glyph-name="uni0408" unicode="&#x408;" horiz-adv-x="274" 
d="M204 172c0 -60 -12.832 -104.5 -38.499 -133.5s-63.834 -43.5 -114.501 -43.5h-36v101h26c20.667 0 35.667 5.5 45 16.5s14 30.833 14 59.5v528h104v-528z" />
    <glyph glyph-name="uni0409" unicode="&#x409;" horiz-adv-x="1032" 
d="M904 397c33.333 -16 59.667 -39.999 79 -71.999s29 -70.333 29 -115s-9.66699 -82.834 -29 -114.501s-45.666 -55.5 -78.999 -71.5s-70.666 -24 -111.999 -24h-258v602h-310v-430c0 -60 -12.833 -104.5 -38.5 -133.5s-63.834 -43.5 -114.501 -43.5h-56v101h46
c20.667 0 35.667 5.5 45 16.5s14 30.833 14 59.5v528h518v-279h154c41.333 0 78.666 -8 111.999 -24zM869.001 128.001c20.667 20 31 47.333 31 82s-10.333 62.167 -31 82.5s-49.667 30.5 -87 30.5h-144v-225h144c37.333 0 66.333 10 87 30z" />
    <glyph glyph-name="uni040A" unicode="&#x40a;" horiz-adv-x="1027" 
d="M899 397c33.333 -16 59.666 -39.999 78.999 -71.999s29 -70.333 29 -115s-9.66699 -82.834 -29 -114.501s-45.666 -55.5 -78.999 -71.5s-70.666 -24 -111.999 -24h-258v323h-355v-323h-104v700h104v-279h355v279h104v-279h154c41.333 0 78.666 -8 111.999 -24z
M864 128.001c20.667 20 31 47.333 31 82s-10.333 62.167 -31 82.5s-49.667 30.5 -87 30.5h-144v-225h144c37.333 0 66.333 10 87 30z" />
    <glyph glyph-name="uni040B" unicode="&#x40b;" horiz-adv-x="715" 
d="M646 368c32.667 -31.333 48.999 -78.333 48.999 -141v-227h-104v225c0 32 -8.16699 55.333 -24.5 70s-43.166 22 -80.499 22h-180v-317h-104v602h-192v98h544v-98h-248v-187h196c63.333 0 111.333 -15.667 144 -47z" />
    <glyph glyph-name="uni040C" unicode="&#x40c;" horiz-adv-x="649" 
d="M353 743h-74l95 120h126zM490 0l-316 349v-349h-104v700h104v-311l278 311h144l-304 -321l352 -379h-154z" />
    <glyph glyph-name="uni040E" unicode="&#x40e;" 
d="M206.5 760c-23.667 24.667 -36.167 59 -37.5 103h67c-0.666992 -26.667 5 -47 17 -61s29.333 -21 52 -21s40 7 52 21s17.667 34.333 17 61h67c-1.33301 -44 -13.833 -78.333 -37.5 -103s-56.5 -37 -98.5 -37s-74.833 12.333 -98.5 37zM600 700l-322 -700h-110l85 184
l-253 516h120l188 -395l182 395h110z" />
    <glyph glyph-name="uni040F" unicode="&#x40f;" horiz-adv-x="706" 
d="M636 0h-235v-140h-96v140h-235v700h104v-602h358v602h104v-700z" />
    <glyph glyph-name="uni0410" unicode="&#x410;" horiz-adv-x="678" 
d="M492 174h-306l-67 -174h-114l286 700h96l286 -700h-114zM455 270l-116 300l-116 -300h232z" />
    <glyph glyph-name="uni0411" unicode="&#x411;" horiz-adv-x="588" 
d="M450 397c33.333 -16 59.666 -39.999 78.999 -71.999s29 -70.333 29 -115s-9.66699 -82.834 -29 -114.501s-45.666 -55.5 -78.999 -71.5s-70.666 -24 -111.999 -24h-268v700h453v-98h-349v-181h164c41.333 0 78.666 -8 111.999 -24zM415 128.001
c20.667 20 31 47.333 31 82s-10.333 62.167 -31 82.5s-49.667 30.5 -87 30.5h-154v-225h154c37.333 0 66.333 10 87 30z" />
    <glyph glyph-name="uni0412" unicode="&#x412;" horiz-adv-x="618" 
d="M540 316c25.333 -30.667 38.002 -69.666 38.002 -116.999c0 -42 -9.5 -78 -28.5 -108s-44.833 -52.667 -77.5 -68s-69 -23 -109 -23h-293v700h266c61.333 0 110.666 -16 147.999 -48s56 -75.333 56 -130c0 -35.333 -9 -66.333 -27 -93s-43.333 -45 -76 -55v-2
c43.333 -6.66699 77.666 -25.334 102.999 -56.001zM174.002 602.001v-194h131c40.667 0 71.167 8.33301 91.5 25s30.5 40.667 30.5 72c0 32 -10.167 56.167 -30.5 72.5s-47.833 24.5 -82.5 24.5h-140zM432.502 127.501c21.667 19.667 32.499 45.832 32.499 78.499
s-11.167 58.834 -33.5 78.501s-55.5 29.5 -99.5 29.5h-158v-216h168c38.667 0 68.834 9.83301 90.501 29.5z" />
    <glyph glyph-name="uni0413" unicode="&#x413;" horiz-adv-x="475" 
d="M465 602h-291v-602h-104v700h395v-98z" />
    <glyph glyph-name="uni0414" unicode="&#x414;" horiz-adv-x="672" 
d="M642 83v-223h-96v125h-445v-125h-96v223h69c22.667 46.667 38.667 93 48 139s14 101.333 14 166v312h436v-617h70zM227.5 228.5c-8.33301 -47.667 -21.833 -96.167 -40.5 -145.5h281v519h-228v-210c0 -61.333 -4.16699 -115.833 -12.5 -163.5z" />
    <glyph glyph-name="uni0415" unicode="&#x415;" horiz-adv-x="520" 
d="M475 98v-98h-405v700h400v-98h-296v-166h273v-98h-273v-240h301z" />
    <glyph glyph-name="uni0416" unicode="&#x416;" horiz-adv-x="994" 
d="M842 0l-294 357v-357h-102v357l-294 -357h-147l320 373l-266 327h143l244 -321v321h102v-321l244 321h143l-266 -327l320 -373h-147z" />
    <glyph glyph-name="uni0417" unicode="&#x417;" horiz-adv-x="578" 
d="M455.5 669c38.333 -30.667 57.499 -73.334 57.499 -128.001c0 -42.667 -12.167 -78.5 -36.5 -107.5s-60.5 -48.833 -108.5 -59.5v-2c50 -6.66699 90.833 -25 122.5 -55s47.5 -72 47.5 -126c0 -61.333 -21.833 -111 -65.5 -149s-110.167 -57 -199.5 -57
s-172 21.667 -248 65l48 96c68 -40.667 136.667 -61 206 -61c47.333 0 84.5 9.5 111.5 28.5s40.5 46.5 40.5 82.5c0 80.667 -67.333 121 -202 121h-69v100h68c54.667 0 97.834 9 129.501 27s47.5 45 47.5 81c0 30.667 -11.5 53.334 -34.5 68.001s-54.167 22 -93.5 22
c-63.333 0 -128.666 -19.333 -195.999 -58l-47 91c34 19.333 73.333 35.333 118 48s91 19 139 19c71.333 0 126.166 -15.333 164.499 -46z" />
    <glyph glyph-name="uni0418" unicode="&#x418;" horiz-adv-x="699" 
d="M174 700v-528h2l344 528h109v-700h-104v528h-2l-344 -528h-109v700h104z" />
    <glyph glyph-name="uni0419" unicode="&#x419;" horiz-adv-x="699" 
d="M447.5 760c-23.667 -24.667 -56.5 -37 -98.5 -37s-74.833 12.333 -98.5 37s-36.167 59 -37.5 103h67c-0.666992 -26.667 5 -47 17 -61s29.333 -21 52 -21s40 7 52 21s17.667 34.333 17 61h67c-1.33301 -44 -13.833 -78.333 -37.5 -103zM174 700v-528h2l344 528h109v-700
h-104v528h-2l-344 -528h-109v700h104z" />
    <glyph glyph-name="uni041A" unicode="&#x41a;" horiz-adv-x="649" 
d="M490 0l-316 349v-349h-104v700h104v-311l278 311h144l-304 -321l352 -379h-154z" />
    <glyph glyph-name="uni041B" unicode="&#x41b;" horiz-adv-x="698" 
d="M628 0h-103.999v602h-310v-430c0 -60 -12.833 -104.5 -38.5 -133.5s-63.834 -43.5 -114.501 -43.5h-46v101h36c20.667 0 35.667 5.5 45 16.5s14 30.833 14 59.5v528h518v-700z" />
    <glyph glyph-name="uni041C" unicode="&#x41c;" horiz-adv-x="860" 
d="M855 0h-111l-116 500h-2l-157 -393h-78l-157 393h-2l-116 -500h-111l170 700h85l169 -430h2l169 430h85z" />
    <glyph glyph-name="uni041D" unicode="&#x41d;" horiz-adv-x="718" 
d="M648 700v-700h-104v319h-370v-319h-104v700h104v-281h370v281h104z" />
    <glyph glyph-name="uni041E" unicode="&#x41e;" horiz-adv-x="800" 
d="M586.5 668.5c55.667 -31 99.334 -74.167 131.001 -129.5s47.5 -118.333 47.5 -189s-15.833 -133.667 -47.5 -189s-75.334 -98.5 -131.001 -129.5s-117.834 -46.5 -186.501 -46.5s-130.834 15.5 -186.501 46.5s-99.334 74.167 -131.001 129.5s-47.5 118.333 -47.5 189
s15.833 133.667 47.5 189s75.334 98.5 131.001 129.5s117.834 46.5 186.501 46.5s130.834 -15.5 186.501 -46.5zM270 575.5c-38 -22.333 -67.667 -53.166 -89 -92.499s-32 -83.666 -32 -132.999s10.667 -93.666 32 -132.999s51 -70.166 89 -92.499s81.333 -33.5 130 -33.5
s92 11.167 130 33.5s67.667 53.166 89 92.499s32 83.666 32 132.999s-10.667 93.666 -32 132.999s-51 70.166 -89 92.499s-81.333 33.5 -130 33.5s-92 -11.167 -130 -33.5z" />
    <glyph glyph-name="uni041F" unicode="&#x41f;" horiz-adv-x="708" 
d="M638 0h-104v602h-360v-602h-104v700h568v-700z" />
    <glyph glyph-name="uni0420" unicode="&#x420;" horiz-adv-x="541" 
d="M426 672.5c32.667 -18.333 57.5 -43.5 74.5 -75.5s25.5 -68.333 25.5 -109s-8.5 -77 -25.5 -109s-41.833 -57.167 -74.5 -75.5s-71.667 -27.5 -117 -27.5h-135v-276h-104v700h239c45.333 0 84.333 -9.16699 117 -27.5zM382 403.5c21.333 19.667 32 47.832 32 84.499
s-10.667 64.834 -32 84.501s-50.333 29.5 -87 29.5h-121v-228h121c36.667 0 65.667 9.83301 87 29.5z" />
    <glyph glyph-name="uni0421" unicode="&#x421;" horiz-adv-x="682" 
d="M215 31c-56.667 30.667 -100.834 73.4961 -132.501 128.496s-47.5 118.5 -47.5 190.5s15.833 135.5 47.5 190.5s75.834 97.833 132.501 128.5s121.667 46 195 46c93.333 0 175.666 -25.667 246.999 -77l-64 -91c-56.667 41.333 -119 62 -187 62
c-48.667 0 -92.5 -10.667 -131.5 -32s-69.667 -51.666 -92 -90.999s-33.5 -84.666 -33.5 -135.999s11.167 -96.666 33.5 -135.999s53 -69.666 92 -90.999s82.833 -32 131.5 -32c68 0 130.333 20.667 187 62l64 -91c-71.333 -51.333 -153.666 -77 -246.999 -77
c-73.333 0 -138.333 15.333 -195 46z" />
    <glyph glyph-name="uni0422" unicode="&#x422;" horiz-adv-x="518" 
d="M508 602h-197v-602h-104v602h-197v98h498v-98z" />
    <glyph glyph-name="uni0423" unicode="&#x423;" 
d="M600 700l-322 -700h-110l85 184l-253 516h120l188 -395l182 395h110z" />
    <glyph glyph-name="uni0424" unicode="&#x424;" horiz-adv-x="838" 
d="M647 626.5c50 -24.333 88.5 -60 115.5 -107s40.5 -103.5 40.5 -169.5s-13.5 -122.5 -40.5 -169.5s-65.5 -82.833 -115.5 -107.5s-109 -37 -177 -37v-66h-102v66c-68 0 -127 12.333 -177 37s-88.5 60.5 -115.5 107.5s-40.5 103.5 -40.5 169.5s13.5 122.5 40.5 169.5
s65.5 82.667 115.5 107s109 36.5 177 36.5v66h102v-66c68 0 127 -12.167 177 -36.5zM204.5 190c37.667 -36 92.167 -53.999 163.5 -53.999h3v427h-3c-70.667 0 -125 -17.833 -163 -53.5s-57 -88.834 -57 -159.501s18.833 -124 56.5 -160zM633.5 190.001
c37.667 36 56.5 89.332 56.5 159.999s-19 123.834 -57 159.501s-92.333 53.5 -163 53.5h-3v-427h3c71.333 0 125.833 18 163.5 54z" />
    <glyph glyph-name="uni0425" unicode="&#x425;" horiz-adv-x="620" 
d="M487 0l-177 287l-176 -287h-124l235 373l-204 327h124l145 -239l146 239h123l-204 -327l235 -373h-123z" />
    <glyph glyph-name="uni0426" unicode="&#x426;" horiz-adv-x="692" 
d="M662 98v-238h-96v140h-496v700h104v-602h314v602h104v-602h70z" />
    <glyph glyph-name="uni0427" unicode="&#x427;" horiz-adv-x="583" 
d="M513 700l0.000976562 -700h-104v285h-196c-63.333 0 -111.333 15.667 -144 47s-49 78.333 -49 141v227h104v-225c0 -32 8.16699 -55.333 24.5 -70s43.166 -22 80.499 -22h180v317h104z" />
    <glyph glyph-name="uni0428" unicode="&#x428;" horiz-adv-x="972" 
d="M70 700h104v-602h260v602h104v-602h260v602h104v-700h-832v700z" />
    <glyph glyph-name="uni0429" unicode="&#x429;" horiz-adv-x="1002" 
d="M972 98v-238h-96v140h-806v700h104v-602h260v602h104v-602h260v602h104v-602h70z" />
    <glyph glyph-name="uni042A" unicode="&#x42a;" horiz-adv-x="699" 
d="M571 397c33.333 -16 59.666 -39.999 78.999 -71.999s29 -70.333 29 -115s-9.66699 -82.834 -29 -114.501s-45.666 -55.5 -78.999 -71.5s-70.666 -24 -111.999 -24h-268v602h-181v98h285v-279h164c41.333 0 78.666 -8 111.999 -24zM536 128.001c20.667 20 31 47.333 31 82
s-10.333 62.167 -31 82.5s-49.667 30.5 -87 30.5h-154v-225h154c37.333 0 66.333 10 87 30z" />
    <glyph glyph-name="uni042B" unicode="&#x42b;" horiz-adv-x="815" 
d="M450 397c33.333 -16 59.666 -39.999 78.999 -71.999s29 -70.333 29 -115s-9.66699 -82.834 -29 -114.501s-45.666 -55.5 -78.999 -71.5s-70.666 -24 -111.999 -24h-268v700h104v-279h164c41.333 0 78.666 -8 111.999 -24zM415 128.001c20.667 20 31 47.333 31 82
s-10.333 62.167 -31 82.5s-49.667 30.5 -87 30.5h-154v-225h154c37.333 0 66.333 10 87 30zM745 0.000976562h-106v700h106v-700z" />
    <glyph glyph-name="uni042C" unicode="&#x42c;" horiz-adv-x="578" 
d="M450 397c33.333 -16 59.666 -39.999 78.999 -71.999s29 -70.333 29 -115s-9.66699 -82.834 -29 -114.501s-45.666 -55.5 -78.999 -71.5s-70.666 -24 -111.999 -24h-268v700h104v-279h164c41.333 0 78.666 -8 111.999 -24zM415 128.001c20.667 20 31 47.333 31 82
s-10.333 62.167 -31 82.5s-49.667 30.5 -87 30.5h-154v-225h154c37.333 0 66.333 10 87 30z" />
    <glyph glyph-name="uni042D" unicode="&#x42d;" horiz-adv-x="678" 
d="M474 672c53.333 -28.667 94.833 -70.501 124.5 -125.501s44.5 -120.5 44.5 -196.5s-14.833 -141.5 -44.5 -196.5s-71.167 -96.833 -124.5 -125.5s-115.333 -43 -186 -43c-96 0 -183.667 27.667 -263 83l55 90c28 -20 59.833 -36.5 95.5 -49.5s73.5 -19.5 113.5 -19.5
c66.667 0 121.667 19.333 165 58s68.333 93.334 75 164.001h-312v98h310c-10 64.667 -36.333 114.5 -79 149.5s-95.667 52.5 -159 52.5c-40 0 -77.833 -6.5 -113.5 -19.5s-67.5 -29.5 -95.5 -49.5l-55 90c79.333 55.333 167 83 263 83c70.667 0 132.667 -14.333 186 -43z
" />
    <glyph glyph-name="uni042E" unicode="&#x42e;" horiz-adv-x="1025" 
d="M811.5 668.5c55.667 -31 99.334 -74.1689 131.001 -129.502s47.5 -118.333 47.5 -189s-15.833 -133.667 -47.5 -189s-75.334 -98.5 -131.001 -129.5s-117.834 -46.5 -186.501 -46.5c-63.333 0 -121.166 13.333 -173.499 40s-95 63.834 -128 111.501
s-53.167 102.5 -60.5 164.5h-89v-301h-104v700h104v-301h89c7.33301 62 27.5 116.833 60.5 164.5s75.667 84.834 128 111.501s110.166 40 173.499 40c68.667 0 130.834 -15.5 186.501 -46.5zM755 124.498c38 22.333 67.667 53.166 89 92.499s32 83.666 32 132.999
s-10.667 93.666 -32 132.999s-51 70.166 -89 92.499s-81.333 33.5 -130 33.5s-92 -11.167 -130 -33.5s-67.667 -53.166 -89 -92.499s-32 -83.666 -32 -132.999s10.667 -93.666 32 -132.999s51 -70.166 89 -92.499s81.333 -33.5 130 -33.5s92 11.167 130 33.5z" />
    <glyph glyph-name="uni042F" unicode="&#x42f;" horiz-adv-x="602" 
d="M532 700l0.00195312 -699.999h-104v291h-73l-204 -291h-131l212 295c-49.333 9.33301 -88.833 31.666 -118.5 66.999s-44.5 79.333 -44.5 132c0 42 9.16699 78.5 27.5 109.5s43.666 54.833 75.999 71.5s69.166 25 110.499 25h249zM428.002 389.001v213.001h-128
c-40 0 -69.833 -9.83301 -89.5 -29.5s-29.5 -45.834 -29.5 -78.501c0 -32 9.83301 -57.5 29.5 -76.5s49.5 -28.5 89.5 -28.5h128z" />
    <glyph glyph-name="uni0430" unicode="&#x430;" horiz-adv-x="571" 
d="M142 15c-34 20 -61.167 48.5 -81.5 85.5s-30.5 80.5 -30.5 130.5s10.167 93.5 30.5 130.5s47.5 65.5 81.5 85.5s71.667 30 113 30c36.667 0 68 -7.33301 94 -22s46.667 -35 62 -61h2v68h98v-462h-98v68h-2c-15.333 -26 -36 -46.333 -62 -61s-57.333 -22 -94 -22
c-41.333 0 -79 10 -113 30zM379 122.5c26 27.667 39 63.834 39 108.501s-13 80.834 -39 108.501s-60.333 41.5 -103 41.5s-77 -13.833 -103 -41.5s-39 -63.834 -39 -108.501s13 -80.834 39 -108.501s60.333 -41.5 103 -41.5s77 13.833 103 41.5z" />
    <glyph glyph-name="uni0431" unicode="&#x431;" horiz-adv-x="572" 
d="M101.5 59c-47.667 49.333 -71.5 126.002 -71.5 230.002c0 64 9 123.833 27 179.5s49.667 97.834 95 126.501c18 11.333 39.5 21.166 64.5 29.499s54.5 16.5 88.5 24.5l45 12c34.667 9.33301 52.334 23.666 53.001 42.999h97c0 -36.667 -7.16699 -63.834 -21.5 -81.501
s-37.833 -31.167 -70.5 -40.5c-14 -4.66699 -36 -10 -66 -16c-33.333 -7.33301 -60.333 -14 -81 -20s-38.667 -13.333 -54 -22c-27.333 -15.333 -47.833 -37.5 -61.5 -66.5s-22.834 -64.5 -27.501 -106.5h3c16.667 38.667 42 68.334 76 89.001s74 31 120 31
c44.667 0 84 -9.83301 118 -29.5s60.333 -47.334 79 -83.001s28 -76.5 28 -122.5c0 -48.667 -10.333 -92 -31 -130s-50.167 -67.667 -88.5 -89s-83.166 -32 -134.499 -32c-76.667 0 -138.834 24.667 -186.501 74zM395.5 121.502c28.333 27 42.5 63.5 42.5 109.5
s-14.167 82.5 -42.5 109.5s-63.833 40.5 -106.5 40.5s-78.167 -13.5 -106.5 -40.5s-42.5 -63.5 -42.5 -109.5s14.167 -82.5 42.5 -109.5s63.833 -40.5 106.5 -40.5s78.167 13.5 106.5 40.5z" />
    <glyph glyph-name="uni0432" unicode="&#x432;" horiz-adv-x="501" 
d="M440 207.5c17.333 -18.333 25.999 -44.166 25.999 -77.499c0 -42.667 -16.167 -75 -48.5 -97s-71.5 -33 -117.5 -33h-240v462h248c42.667 0 77.334 -10.167 104.001 -30.5s40 -48.833 40 -85.5c0 -56.667 -28.667 -91.334 -86 -104.001v-1c32 -4 56.667 -15.167 74 -33.5
zM157.999 382v-104h129c20 0 35.5 4.5 46.5 13.5s16.5 22.5 16.5 40.5c0 15.333 -5.5 27.5 -16.5 36.5s-26.833 13.5 -47.5 13.5h-128zM344.999 95c13.333 10 20 24.667 20 44c0 20.667 -5.66699 36 -17 46s-27.333 15 -48 15h-142v-120h133c22.667 0 40.667 5 54 15z" />
    <glyph glyph-name="uni0433" unicode="&#x433;" horiz-adv-x="365" 
d="M360 370h-202v-370h-98v462h300v-92z" />
    <glyph glyph-name="uni0434" unicode="&#x434;" horiz-adv-x="524" 
d="M509 75v-205h-86v115h-337v-115h-86v205h60c12.667 22.667 22.167 45.5 28.5 68.5s9.5 49.833 9.5 80.5v238h346v-387h65zM188 140.5c-5.33301 -22.333 -13.333 -44.168 -24 -65.501h182v297h-150v-154c0 -29.333 -2.66699 -55.166 -8 -77.499z" />
    <glyph glyph-name="uni0435" unicode="&#x435;" horiz-adv-x="517" 
d="M428.5 410.5c39 -44.333 58.501 -104.169 58.501 -179.502v-16h-358c2 -40.667 15.833 -73.5 41.5 -98.5s58.5 -37.5 98.5 -37.5c33.333 0 61.166 7.83301 83.499 23.5s41.833 34.834 58.5 57.501l69 -65c-53.333 -73.333 -123 -110 -209 -110
c-48.667 0 -91.167 10.167 -127.5 30.5s-64.333 49 -84 86s-29.5 79.833 -29.5 128.5c0 46.667 9.5 88.834 28.5 126.501s46.333 67.167 82 88.5s77.5 32 125.5 32c69.333 0 123.5 -22.167 162.5 -66.5zM176.001 360.997c-22 -17.333 -36 -42.333 -42 -75h247
c-2 32 -13.833 56.833 -35.5 74.5s-50.167 26.5 -85.5 26.5c-34 0 -62 -8.66699 -84 -26z" />
    <glyph glyph-name="uni0436" unicode="&#x436;" horiz-adv-x="736" 
d="M602 0l-186 232v-232h-96v232l-186 -232h-129l207 250l-187 212h130l165 -202v202h96v-202l165 202h130l-187 -212l207 -250h-129z" />
    <glyph glyph-name="uni0437" unicode="&#x437;" horiz-adv-x="454" 
d="M20 29l41.002 83.9971c47.333 -25.333 98.333 -38 153 -38c74.667 0 112 21 112 63c0 22.667 -8.5 38.667 -25.5 48s-40.833 14 -71.5 14h-96v85h89c56.667 0 85 16.667 85 50c0 34.667 -30 52 -90 52c-24 0 -49.333 -3 -76 -9s-51.667 -13.667 -75 -23l-33 88
c26 9.33301 55.667 17.333 89 24s67 10 101 10c59.333 0 105.166 -10.333 137.499 -31s48.5 -50 48.5 -88c0 -29.333 -9.66699 -53.666 -29 -72.999s-45.333 -31.333 -78 -36v-3c38 -3.33301 67.833 -14.666 89.5 -33.999s32.5 -47 32.5 -83
c0 -45.333 -17.833 -80.666 -53.5 -105.999s-88.834 -38 -159.501 -38c-76 0 -139.667 14.667 -191 44z" />
    <glyph glyph-name="uni0438" unicode="&#x438;" horiz-adv-x="540" 
d="M60 462h98v-307h2l229 307h91v-462h-98v307h-2l-229 -307h-91v462z" />
    <glyph glyph-name="uni0439" unicode="&#x439;" horiz-adv-x="540" 
d="M60 462h98v-307h2l229 307h91v-462h-98v307h-2l-229 -307h-91v462zM368.5 537.5c-25 -25 -57.833 -37.5 -98.5 -37.5s-73.5 12.5 -98.5 37.5s-37.5 59.167 -37.5 102.5h68c1.33301 -22.667 8 -40.5 20 -53.5s28 -19.5 48 -19.5s36 6.5 48 19.5s18.667 30.833 20 53.5h68
c0 -43.333 -12.5 -77.5 -37.5 -102.5z" />
    <glyph glyph-name="uni043A" unicode="&#x43a;" horiz-adv-x="478" 
d="M344 0l-186 227v-227h-98v462h98v-197l165 197h129l-194 -210l215 -252h-129z" />
    <glyph glyph-name="uni043B" unicode="&#x43b;" horiz-adv-x="529" 
d="M469 0h-98v370h-190v-243c0 -44 -11 -77.333 -33 -100s-52 -34 -90 -34h-48v89h32c15.333 0 26 3.83301 32 11.5s9 19.167 9 34.5v334h386v-462z" />
    <glyph glyph-name="uni043C" unicode="&#x43c;" horiz-adv-x="665" 
d="M142 462h89l100 -246h2l101 246h89l127 -462h-99l-80 317h-2l-102 -244h-69l-102 244h-2l-80 -317h-99z" />
    <glyph glyph-name="uni043D" unicode="&#x43d;" horiz-adv-x="551" 
d="M491 462v-462h-98v194h-235v-194h-98v462h98v-176h235v176h98z" />
    <glyph glyph-name="uni043E" unicode="&#x43e;" horiz-adv-x="566" 
d="M412.5 445c38.333 -21.333 68.5 -50.666 90.5 -87.999s33 -79.333 33 -126s-11 -88.667 -33 -126s-52.167 -66.666 -90.5 -87.999s-81.5 -32 -129.5 -32s-91.167 10.667 -129.5 32s-68.5 50.666 -90.5 87.999s-33 79.333 -33 126s11 88.667 33 126
s52.167 66.666 90.5 87.999s81.5 32 129.5 32s91.167 -10.667 129.5 -32zM175.5 340c-27.667 -27.333 -41.5 -63.666 -41.5 -108.999s13.833 -81.666 41.5 -108.999s63.5 -41 107.5 -41s79.833 13.667 107.5 41s41.5 63.666 41.5 108.999s-13.833 81.666 -41.5 108.999
s-63.5 41 -107.5 41s-79.833 -13.667 -107.5 -41z" />
    <glyph glyph-name="uni043F" unicode="&#x43f;" horiz-adv-x="531" 
d="M471 0h-98v370h-215v-370h-98v462h411v-462z" />
    <glyph glyph-name="uni0440" unicode="&#x440;" horiz-adv-x="571" 
d="M60 462h98v-68h2c15.333 26 36 46.333 62 61s57.333 22 94 22c41.333 0 79 -10 113 -30s61.167 -48.5 81.5 -85.5s30.5 -80.5 30.5 -130.5s-10.167 -93.5 -30.5 -130.5s-47.5 -65.5 -81.5 -85.5s-71.667 -30 -113 -30c-36.667 0 -68 7.33301 -94 22s-46.667 35 -62 61h-2
v-268h-98v662zM398 122.5c26 27.667 39 63.834 39 108.501s-13 80.834 -39 108.501s-60.333 41.5 -103 41.5s-77 -13.833 -103 -41.5s-39 -63.834 -39 -108.501s13 -80.834 39 -108.501s60.333 -41.5 103 -41.5s77 13.833 103 41.5z" />
    <glyph glyph-name="uni0441" unicode="&#x441;" horiz-adv-x="462" 
d="M152.5 16c-38.333 20.667 -68.333 49.667 -90 87s-32.5 80 -32.5 128s10.833 90.667 32.5 128s51.667 66.333 90 87s82.166 31 131.499 31c58 0 110.667 -15.667 158 -47l-46 -83c-37.333 23.333 -75.666 35 -114.999 35c-44 0 -79.5 -14.167 -106.5 -42.5
s-40.5 -64.5 -40.5 -108.5s13.5 -80.167 40.5 -108.5s62.5 -42.5 106.5 -42.5c39.333 0 77.666 11.667 114.999 35l46 -83c-47.333 -31.333 -100 -47 -158 -47c-49.333 0 -93.166 10.333 -131.499 31z" />
    <glyph glyph-name="uni0442" unicode="&#x442;" horiz-adv-x="429" 
d="M424 372h-161v-372h-98v372h-160v90h419v-90z" />
    <glyph glyph-name="uni0443" unicode="&#x443;" horiz-adv-x="485" 
d="M480 462l-288 -662h-104l111 242l-194 420h117l127 -303l123 303h108z" />
    <glyph glyph-name="uni0444" unicode="&#x444;" horiz-adv-x="848" 
d="M377 68h-2c-14.667 -26.667 -33.5 -47.167 -56.5 -61.5s-52.5 -21.5 -88.5 -21.5c-38.667 0 -72.667 10 -102 30s-52.166 48.5 -68.499 85.5s-24.5 80.5 -24.5 130.5s8.16699 93.5 24.5 130.5s39.166 65.5 68.499 85.5s63.333 30 102 30c36 0 65.5 -7.16699 88.5 -21.5
s41.833 -34.833 56.5 -61.5h2v281h94v-281h2c14.667 26.667 33.5 47.167 56.5 61.5s52.5 21.5 88.5 21.5c38.667 0 72.834 -10 102.501 -30s52.5 -48.5 68.5 -85.5s24 -80.5 24 -130.5s-8 -93.5 -24 -130.5s-38.833 -65.5 -68.5 -85.5s-63.834 -30 -102.501 -30
c-36 0 -65.5 7.16699 -88.5 21.5s-41.833 34.833 -56.5 61.5h-2v-268h-94v268zM348.5 117.5c22.333 29 33.5 66.833 33.5 113.5s-11.167 84.5 -33.5 113.5s-53.166 43.5 -92.499 43.5c-38.667 0 -67.834 -14.167 -87.501 -42.5s-29.5 -66.5 -29.5 -114.5
s9.83301 -86.167 29.5 -114.5s48.834 -42.5 87.501 -42.5c39.333 0 70.166 14.5 92.499 43.5zM679.5 116.5c19.667 28.333 29.5 66.5 29.5 114.5s-9.83301 86.167 -29.5 114.5s-48.834 42.5 -87.501 42.5c-39.333 0 -70.166 -14.5 -92.499 -43.5s-33.5 -66.833 -33.5 -113.5
s11.167 -84.5 33.5 -113.5s53.166 -43.5 92.499 -43.5c38.667 0 67.834 14.167 87.501 42.5z" />
    <glyph glyph-name="uni0445" unicode="&#x445;" horiz-adv-x="494" 
d="M247 166l-117 -166h-125l183 243l-157 219h126l90 -144l90 144h126l-157 -219l183 -243h-125z" />
    <glyph glyph-name="uni0446" unicode="&#x446;" horiz-adv-x="526" 
d="M511 92v-222h-86v130h-365v462h98v-370h200v370h98v-370h55z" />
    <glyph glyph-name="uni0447" unicode="&#x447;" horiz-adv-x="458" 
d="M398 462v-461.999h-98v175h-140c-96.667 0 -145 43.667 -145 131v156h98v-145c0 -18.667 4.33301 -32.334 13 -41.001s23 -13 43 -13h131v199h98z" />
    <glyph glyph-name="uni0448" unicode="&#x448;" horiz-adv-x="784" 
d="M724 462v-462h-664v462h98v-370h185v370h98v-370h185v370h98z" />
    <glyph glyph-name="uni0449" unicode="&#x449;" horiz-adv-x="794" 
d="M779 92v-222h-86v130h-633v462h98v-370h185v370h98v-370h185v370h98v-370h55z" />
    <glyph glyph-name="uni044A" unicode="&#x44a;" horiz-adv-x="566" 
d="M504.5 256c29.667 -26.667 44.5 -62.333 44.5 -107c0 -42.667 -15 -78.167 -45 -106.5s-70.667 -42.5 -122 -42.5h-217v370h-160v92h258v-166h120c51.333 0 91.833 -13.333 121.5 -40zM426.5 102.501c12.333 10.333 18.501 25.167 18.501 44.5c0 41.333 -24 62 -72 62
h-110v-122h110c23.333 0 41.166 5.16699 53.499 15.5z" />
    <glyph glyph-name="uni044B" unicode="&#x44b;" horiz-adv-x="647" 
d="M399.5 256c29.667 -26.667 44.5 -62.333 44.5 -107c0 -42.667 -15 -78.167 -45 -106.5s-70.667 -42.5 -122 -42.5h-217v462h98v-166h120c51.333 0 91.833 -13.333 121.5 -40zM321.5 102.501c12.333 10.333 18.501 25.167 18.501 44.5c0 41.333 -24 62 -72 62h-110v-122
h110c23.333 0 41.166 5.16699 53.499 15.5zM489.001 462.002h98v-462h-98v462z" />
    <glyph glyph-name="uni044C" unicode="&#x44c;" horiz-adv-x="461" 
d="M399.5 256c29.667 -26.667 44.5 -62.333 44.5 -107c0 -42.667 -15 -78.167 -45 -106.5s-70.667 -42.5 -122 -42.5h-217v462h98v-166h120c51.333 0 91.833 -13.333 121.5 -40zM321.5 102.501c12.333 10.333 18.501 25.167 18.501 44.5c0 41.333 -24 62 -72 62h-110v-122
h110c23.333 0 41.166 5.16699 53.499 15.5z" />
    <glyph glyph-name="uni044D" unicode="&#x44d;" horiz-adv-x="458" 
d="M360 413.5c42 -42.333 63 -103.166 63 -182.499s-21 -140.166 -63 -182.499s-99.333 -63.5 -172 -63.5c-28 0 -56.667 4.16699 -86 12.5s-56.666 20.166 -81.999 35.499l45 83c42 -23.333 82.667 -35 122 -35c35.333 0 64.833 9 88.5 27s38.834 45 45.501 81h-172v84h172
c-6.66699 36 -21.834 63 -45.501 81s-53.167 27 -88.5 27c-39.333 0 -80 -11.667 -122 -35l-45 83c25.333 15.333 52.666 27.166 81.999 35.499s58 12.5 86 12.5c72.667 0 130 -21.167 172 -63.5z" />
    <glyph glyph-name="uni044E" unicode="&#x44e;" horiz-adv-x="758" 
d="M604.5 445c38.333 -21.333 68.499 -50.668 90.499 -88.001s33 -79.333 33 -126s-11 -88.667 -33 -126s-52.167 -66.666 -90.5 -87.999s-81.5 -32 -129.5 -32c-43.333 0 -82.833 8.66699 -118.5 26s-65 41.5 -88 72.5s-37.5 66.5 -43.5 106.5h-67v-190h-98v462h98v-189h67
c6 39.333 20.667 74.5 44 105.5s52.833 55.167 88.5 72.5s74.834 26 117.501 26c48 0 91.167 -10.667 129.5 -32zM582.499 121.998c27.667 27.333 41.5 63.666 41.5 108.999s-13.833 81.666 -41.5 108.999s-63.5 41 -107.5 41s-79.833 -13.667 -107.5 -41
s-41.5 -63.666 -41.5 -108.999s13.833 -81.666 41.5 -108.999s63.5 -41 107.5 -41s79.833 13.667 107.5 41z" />
    <glyph glyph-name="uni044F" unicode="&#x44f;" horiz-adv-x="493" 
d="M433 462v-462h-98v167h-70l-132 -167h-118l138 171c-38 6.66699 -67.667 22.667 -89 48s-32 56.333 -32 93c0 44 15 80 45 108s70.333 42 121 42h235zM335 255v117h-126c-23.333 0 -41.333 -5 -54 -15s-19 -24.333 -19 -43c0 -19.333 6.33301 -34 19 -44
s30.667 -15 54 -15h126z" />
    <glyph glyph-name="uni0451" unicode="&#x451;" horiz-adv-x="517" 
d="M236 520h-95v120h95v-120zM399 520h-95v120h95v-120zM428.5 410.5c39 -44.333 58.501 -104.169 58.501 -179.502v-16h-358c2 -40.667 15.833 -73.5 41.5 -98.5s58.5 -37.5 98.5 -37.5c33.333 0 61.166 7.83301 83.499 23.5s41.833 34.834 58.5 57.501l69 -65
c-53.333 -73.333 -123 -110 -209 -110c-48.667 0 -91.167 10.167 -127.5 30.5s-64.333 49 -84 86s-29.5 79.833 -29.5 128.5c0 46.667 9.5 88.834 28.5 126.501s46.333 67.167 82 88.5s77.5 32 125.5 32c69.333 0 123.5 -22.167 162.5 -66.5zM176.001 360.997
c-22 -17.333 -36 -42.333 -42 -75h247c-2 32 -13.833 56.833 -35.5 74.5s-50.167 26.5 -85.5 26.5c-34 0 -62 -8.66699 -84 -26z" />
    <glyph glyph-name="uni0452" unicode="&#x452;" horiz-adv-x="545" 
d="M442.5 430.5c31.667 -31 47.5 -79.834 47.5 -146.501v-346c0 -43.333 -10.5 -77.166 -31.5 -101.499s-53.167 -36.5 -96.5 -36.5h-61v92h43c15.333 0 27.166 4.16699 35.499 12.5s12.5 20.5 12.5 36.5v326c0 74.667 -35.333 112 -106 112c-38 0 -68 -12.667 -90 -38
s-33 -65.333 -33 -120v-221h-98v565h-65v60h65v75h98v-75h140v-60h-140v-173h2c32 56.667 82.333 85 151 85c52.667 0 94.834 -15.5 126.501 -46.5z" />
    <glyph glyph-name="uni0453" unicode="&#x453;" horiz-adv-x="365" 
d="M262 503h-77l95 154h126zM360 370h-202v-370h-98v462h300v-92z" />
    <glyph glyph-name="uni0454" unicode="&#x454;" horiz-adv-x="458" 
d="M393 116l45 -83c-25.333 -15.333 -52.666 -27.166 -81.999 -35.499s-58 -12.5 -86 -12.5c-72.667 0 -130 21.167 -172 63.5s-63 103.166 -63 182.499s21 140.166 63 182.499s99.333 63.5 172 63.5c28 0 56.667 -4.16699 86 -12.5s56.666 -20.166 81.999 -35.499l-45 -83
c-42 23.333 -82.667 35 -122 35c-35.333 0 -64.833 -9 -88.5 -27s-38.834 -45 -45.501 -81h172v-84h-172c6.66699 -36 21.834 -63 45.501 -81s53.167 -27 88.5 -27c39.333 0 80 11.667 122 35z" />
    <glyph glyph-name="uni0455" unicode="&#x455;" horiz-adv-x="403" 
d="M104.5 -2c-33 8.66699 -62.834 20.666 -89.501 35.999l44 87c50.667 -29.333 99.667 -44 147 -44c48 0 72 14.333 72 43c0 10 -3.5 18.833 -10.5 26.5s-19.833 16.167 -38.5 25.5l-84 41c-64.667 30.667 -97 75 -97 133c0 42 14.5 74.333 43.5 97s69.167 34 120.5 34
c26 0 52.833 -3.16699 80.5 -9.5s54.167 -15.166 79.5 -26.499l-40 -85c-46.667 20 -87.667 30 -123 30c-38 0 -57 -11.667 -57 -35c0 -11.333 3.83301 -21 11.5 -29s21.5 -16.667 41.5 -26l86 -41c30.667 -14 53.667 -31.5 69 -52.5s23 -46.833 23 -77.5
c0 -46 -16.167 -80.833 -48.5 -104.5s-76.166 -35.5 -131.499 -35.5c-32.667 0 -65.5 4.33301 -98.5 13z" />
    <glyph glyph-name="uni0456" unicode="&#x456;" horiz-adv-x="228" 
d="M65 462h98v-462h-98v462zM174 570h-120v120h120v-120z" />
    <glyph glyph-name="uni0457" unicode="&#x457;" horiz-adv-x="228" 
d="M95 520h-95v120h95v-120zM228 520h-95v120h95v-120zM65 462h98v-462h-98v462z" />
    <glyph glyph-name="uni0458" unicode="&#x458;" horiz-adv-x="228" 
d="M12 -114c18.667 0 32.167 4.33203 40.5 12.999s12.5 23 12.5 43v520h98v-530c0 -43.333 -11.833 -76.666 -35.5 -99.999s-57.167 -35 -100.5 -35h-33v89h18zM174 569.999h-120v120h120v-120z" />
    <glyph glyph-name="uni0459" unicode="&#x459;" horiz-adv-x="737" 
d="M675.5 256c29.667 -26.667 44.5 -62.333 44.5 -107c0 -42.667 -15 -78.167 -45 -106.5s-70.667 -42.5 -122 -42.5h-207v370h-180v-243c0 -44 -11 -77.333 -33 -100s-52 -34 -90 -34h-33v89h17c15.333 0 26 3.83301 32 11.5s9 19.167 9 34.5v334h376v-166h110
c51.333 0 91.833 -13.333 121.5 -40zM597.5 102.501c12.333 10.333 18.501 25.167 18.501 44.5c0 41.333 -24 62 -72 62h-100v-122h100c23.333 0 41.166 5.16699 53.499 15.5z" />
    <glyph glyph-name="uni045A" unicode="&#x45a;" horiz-adv-x="774" 
d="M712.5 257.5c29.667 -27 44.5 -63.167 44.5 -108.5c0 -42.667 -15 -78.167 -45 -106.5s-70.667 -42.5 -122 -42.5h-207v206h-225v-206h-98v462h98v-164h225v164h98v-164h110c51.333 0 91.833 -13.5 121.5 -40.5zM635.5 102.5c13 10.333 19.5 25.167 19.5 44.5
c0 39.333 -24.667 59 -74 59h-100v-119h100c23.333 0 41.5 5.16699 54.5 15.5z" />
    <glyph glyph-name="uni045B" unicode="&#x45b;" horiz-adv-x="545" 
d="M442.5 430.5c31.667 -31 47.499 -79.833 47.499 -146.5v-284h-98v267c0 74.667 -35.333 112 -106 112c-38 0 -68 -12.667 -90 -38s-33 -65.333 -33 -120v-221h-98v565h-65v60h65v75h98v-75h140v-60h-140v-173h2c32 56.667 82.333 85 151 85
c52.667 0 94.834 -15.5 126.501 -46.5z" />
    <glyph glyph-name="uni045C" unicode="&#x45c;" horiz-adv-x="478" 
d="M276 503h-77l95 154h126zM344 0l-186 227v-227h-98v462h98v-197l165 197h129l-194 -210l215 -252h-129z" />
    <glyph glyph-name="uni045E" unicode="&#x45e;" horiz-adv-x="485" 
d="M480 462l-288 -662h-104l111 242l-194 420h117l127 -303l123 303h108zM345.5 537.5c-25 -25 -57.833 -37.5 -98.5 -37.5s-73.5 12.5 -98.5 37.5s-37.5 59.167 -37.5 102.5h68c1.33301 -22.667 8 -40.5 20 -53.5s28 -19.5 48 -19.5s36 6.5 48 19.5s18.667 30.833 20 53.5
h68c0 -43.333 -12.5 -77.5 -37.5 -102.5z" />
    <glyph glyph-name="uni045F" unicode="&#x45f;" horiz-adv-x="531" 
d="M471 462v-462h-162v-130h-87v130h-162v462h98v-370h215v370h98z" />
    <glyph glyph-name="uni0462" unicode="&#x462;" horiz-adv-x="645" 
d="M517 397c33.333 -16 59.666 -39.999 78.999 -71.999s29 -70.333 29 -115s-9.66699 -82.834 -29 -114.501s-45.666 -55.5 -78.999 -71.5s-70.666 -24 -111.999 -24h-268v511h-127v92h127v97h104v-97h206v-92h-206v-90h164c41.333 0 78.666 -8 111.999 -24zM482 128.001
c20.667 20 31 47.333 31 82s-10.333 62.167 -31 82.5s-49.667 30.5 -87 30.5h-154v-225h154c37.333 0 66.333 10 87 30z" />
    <glyph glyph-name="uni0463" unicode="&#x463;" horiz-adv-x="498" 
d="M436 256c30 -26.667 45 -62.333 45 -107c0 -42.667 -15.333 -78.167 -46 -106.5s-71.667 -42.5 -123 -42.5h-217v382h-95v80h95v238h98v-238h140v-80h-140v-86h120c52 0 93 -13.333 123 -40zM357.5 104.001c13 10 19.5 24.333 19.5 43c0 39.333 -24.667 59 -74 59h-110
v-117h110c23.333 0 41.5 5 54.5 15z" />
    <glyph glyph-name="uni0472" unicode="&#x472;" horiz-adv-x="800" 
d="M586.5 668.5c55.667 -31 99.334 -74.167 131.001 -129.5s47.5 -118.333 47.5 -189s-15.833 -133.667 -47.5 -189s-75.334 -98.5 -131.001 -129.5s-117.834 -46.5 -186.501 -46.5s-130.834 15.5 -186.501 46.5s-99.334 74.167 -131.001 129.5s-47.5 118.333 -47.5 189
s15.833 133.667 47.5 189s75.334 98.5 131.001 129.5s117.834 46.5 186.501 46.5s130.834 -15.5 186.501 -46.5zM275.5 580c-37 -19.333 -66.833 -46.166 -89.5 -80.499s-36 -73.5 -40 -117.5h508c-4 44 -17.333 83.167 -40 117.5s-52.5 61.166 -89.5 80.499
s-78.5 29 -124.5 29s-87.5 -9.66699 -124.5 -29zM524.5 120c37 19.333 66.833 46.166 89.5 80.499s36 73.5 40 117.5h-508c4 -44 17.333 -83.167 40 -117.5s52.5 -61.166 89.5 -80.499s78.5 -29 124.5 -29s87.5 9.66699 124.5 29z" />
    <glyph glyph-name="uni0473" unicode="&#x473;" horiz-adv-x="566" 
d="M412.5 445c38.333 -21.333 68.5 -50.666 90.5 -87.999s33 -79.333 33 -126s-11 -88.667 -33 -126s-52.167 -66.666 -90.5 -87.999s-81.5 -32 -129.5 -32s-91.167 10.667 -129.5 32s-68.5 50.666 -90.5 87.999s-33 79.333 -33 126s11 88.667 33 126
s52.167 66.666 90.5 87.999s81.5 32 129.5 32s91.167 -10.667 129.5 -32zM181 352.5c-27.333 -22.333 -44 -52.833 -50 -91.5h304c-6 38.667 -22.667 69.167 -50 91.5s-61.333 33.5 -102 33.5s-74.667 -11.167 -102 -33.5zM385 109.5c27.333 22.333 44 52.833 50 91.5h-304
c6 -38.667 22.667 -69.167 50 -91.5s61.333 -33.5 102 -33.5s74.667 11.167 102 33.5z" />
    <glyph glyph-name="uni0474" unicode="&#x474;" horiz-adv-x="652" 
d="M348 0h-95.999l-247 700h120l174 -539h2l134 419c10.667 33.333 22.5 59.5 35.5 78.5s29.833 33.167 50.5 42.5s47.667 14 81 14c12 0 27 -1 45 -3v-95c-10 0.666992 -22.333 1 -37 1c-17.333 0 -31.333 -4.5 -42 -13.5s-20.334 -26.167 -29.001 -51.5z" />
    <glyph glyph-name="uni0475" unicode="&#x475;" horiz-adv-x="482" 
d="M477 471v-96h-7c-16 0 -28.5 -3.83301 -37.5 -11.5s-17.167 -20.834 -24.5 -39.501l-126 -324h-92l-185 462h110l121 -346l92 265c12 34.667 28.167 58.334 48.5 71.001s51.5 19 93.5 19h7z" />
    <glyph glyph-name="uni048A" unicode="&#x48a;" horiz-adv-x="703" 
d="M250.5 760c-23.667 24.667 -36.167 59 -37.5 103h67c-0.666992 -26.667 5 -47 17 -61s29.333 -21 52 -21s40 7 52 21s17.667 34.333 17 61h67c-1.33301 -44 -13.833 -78.333 -37.5 -103s-56.5 -37 -98.5 -37s-74.833 12.333 -98.5 37zM698 66l-92 -196h-94l56 130h-43
v528h-2l-344 -528h-109v700h104v-528h2l344 528h109v-634h69z" />
    <glyph glyph-name="uni048B" unicode="&#x48b;" horiz-adv-x="540" 
d="M171.5 537.5c-25 25 -37.5 59.167 -37.5 102.5h68c1.33301 -22.667 8 -40.5 20 -53.5s28 -19.5 48 -19.5s36 6.5 48 19.5s18.667 30.833 20 53.5h68c0 -43.333 -12.5 -77.5 -37.5 -102.5s-57.833 -37.5 -98.5 -37.5s-73.5 12.5 -98.5 37.5zM550 66l-92 -196h-94l56 130
h-38v307h-2l-229 -307h-91v462h98v-307h2l229 307h91v-396h70z" />
    <glyph glyph-name="uni048E" unicode="&#x48e;" horiz-adv-x="541" 
d="M502.5 382.5c-15.667 -31.667 -38.5 -56.499 -68.5 -74.499l60 -85l-37 -27l-65 93c-24 -8.66699 -51.667 -13 -83 -13h-135v-276h-104v700h239c45.333 0 84.333 -9.16699 117 -27.5s57.5 -43.5 74.5 -75.5s25.5 -68.333 25.5 -109
c0 -38.667 -7.83301 -73.834 -23.5 -105.501zM329 377.001l-60 85.998l37 27l66 -94c28 18.667 42 49.334 42 92.001c0 36.667 -10.667 64.834 -32 84.501s-50.333 29.5 -87 29.5h-121v-228h121c12.667 0 24 1 34 3z" />
    <glyph glyph-name="uni048F" unicode="&#x48f;" horiz-adv-x="571" 
d="M517 113c-16 -34.667 -38.333 -62.667 -67 -84l58 -71l-32 -27l-62 76c-29.333 -14.667 -62 -22 -98 -22c-36.667 0 -68 7.33301 -94 22s-46.667 35 -62 61h-2v-268h-98v662h98v-68h2c15.333 26 36 46.333 62 61s57.333 22 94 22c41.333 0 79 -10 113 -30
s61.167 -48.5 81.5 -85.5s30.5 -80.5 30.5 -130.5c0 -44 -8 -83.333 -24 -118zM346 89l-53 65.001l32 27l59 -71c16.667 13.333 29.667 30.333 39 51s14 44 14 70c0 44.667 -13 80.834 -39 108.501s-60.333 41.5 -103 41.5s-77 -13.833 -103 -41.5s-39 -63.834 -39 -108.501
s13 -80.834 39 -108.501s60.333 -41.5 103 -41.5c18 0 35 2.66699 51 8z" />
    <glyph glyph-name="uni0490" unicode="&#x490;" horiz-adv-x="495" 
d="M485 840v-240h-311v-600h-104v700h311v140h104z" />
    <glyph glyph-name="uni0491" unicode="&#x491;" horiz-adv-x="382" 
d="M377 561v-191h-219v-370h-98v462h231v99h86z" />
    <glyph glyph-name="uni0492" unicode="&#x492;" horiz-adv-x="502" 
d="M201 602v-200h196v-92h-196v-310h-104v310h-87v92h87v298h395v-98h-291z" />
    <glyph glyph-name="uni0493" unicode="&#x493;" horiz-adv-x="395" 
d="M188 370v-100h145v-92h-145v-178h-98v178h-75v92h75v192h300v-92h-202z" />
    <glyph glyph-name="uni0494" unicode="&#x494;" horiz-adv-x="593" 
d="M521 362c34.667 -28.667 52.001 -73.666 52.001 -134.999v-238c0 -58.667 -15 -104.834 -45 -138.501s-72.333 -50.5 -127 -50.5h-73v98h65c50.667 0 76 31.667 76 95v232c0 27.333 -9.33301 47.833 -28 61.5s-47.667 20.5 -87 20.5c-54.667 0 -114.667 -2.66699 -180 -8
v-299h-104v700h395v-98h-291v-206l23 2c8 0.666992 28.667 2 62 4s68.666 3 105.999 3c69.333 0 121.333 -14.333 156 -43z" />
    <glyph glyph-name="uni0495" unicode="&#x495;" horiz-adv-x="486" 
d="M416 217c26.667 -23.333 40 -60.332 40 -110.999v-144c0 -54.667 -13.5 -95.334 -40.5 -122.001s-69.833 -40 -128.5 -40h-61v92h54c25.333 0 44.666 5.5 57.999 16.5s20 29.833 20 56.5v130c0 48.667 -27.333 73 -82 73c-20.667 0 -60 -1.66699 -118 -5v-163h-98v462
h340v-92h-242v-123c46.667 3.33301 91 5 133 5c56.667 0 98.334 -11.667 125.001 -35z" />
    <glyph glyph-name="uni0496" unicode="&#x496;" horiz-adv-x="1005" 
d="M990 70v-210h-96v140h-52l-294 357v-357h-102v357l-294 -357h-147l320 373l-266 327h143l244 -321v321h102v-321l244 321h143l-266 -327l260 -303h61z" />
    <glyph glyph-name="uni0497" unicode="&#x497;" horiz-adv-x="757" 
d="M742 61v-191h-86v130h-54l-186 232v-232h-96v232l-186 -232h-129l207 250l-187 212h130l165 -202v202h96v-202l165 202h130l-187 -212l156 -189h62z" />
    <glyph glyph-name="uni0498" unicode="&#x498;" horiz-adv-x="578" 
d="M483.5 52.5c-36.333 -37 -91.502 -58.8301 -165.502 -65.4971l-8 -23c20.667 -6 37.334 -14.333 50.001 -25s19 -26 19 -46c0 -16 -5.5 -29.833 -16.5 -41.5s-24.667 -21.834 -41 -30.501s-40.5 -19.667 -72.5 -33l-13 28c29.333 14.667 50.333 26.167 63 34.5
s19 16.833 19 25.5c0 11.333 -4.83301 19.666 -14.5 24.999s-26.167 10.666 -49.5 15.999l25 68h-6c-89.333 0 -172 21.667 -248 65l48 96c68 -40.667 136.667 -61 206 -61c47.333 0 84.5 9.5 111.5 28.5s40.5 46.5 40.5 82.5c0 80.667 -67.333 121 -202 121h-69v100h68
c54.667 0 97.834 9 129.501 27s47.5 45 47.5 81c0 30.667 -11.5 53.334 -34.5 68.001s-54.167 22 -93.5 22c-63.333 0 -128.666 -19.333 -195.999 -58l-47 91c34 19.333 73.333 35.333 118 48s91 19 139 19c71.333 0 126.166 -15.333 164.499 -46
s57.5 -73.334 57.5 -128.001c0 -42.667 -12.167 -78.5 -36.5 -107.5s-60.5 -48.833 -108.5 -59.5v-2c50 -6.66699 90.833 -25 122.5 -55s47.5 -72 47.5 -126c0 -55.333 -18.167 -101.5 -54.5 -138.5z" />
    <glyph glyph-name="uni0499" unicode="&#x499;" horiz-adv-x="454" 
d="M374 25.5c-33.333 -25 -83 -38.499 -149 -40.499l-7 -21c20.667 -6 37.334 -14.333 50.001 -25s19 -26 19 -46c0 -16 -5.5 -29.833 -16.5 -41.5s-24.667 -21.834 -41 -30.501s-40.5 -19.667 -72.5 -33l-13 28c29.333 14.667 50.333 26.167 63 34.5s19 16.833 19 25.5
c0 11.333 -4.83301 19.666 -14.5 24.999s-26.167 10.666 -49.5 15.999l25 69c-65.333 2 -121 16.333 -167 43l41 84c47.333 -25.333 98.333 -38 153 -38c74.667 0 112 21 112 63c0 22.667 -8.5 38.667 -25.5 48s-40.833 14 -71.5 14h-96v85h89c56.667 0 85 16.667 85 50
c0 34.667 -30 52 -90 52c-24 0 -49.333 -3 -76 -9s-51.667 -13.667 -75 -23l-33 88c26 9.33301 55.667 17.333 89 24s67 10 101 10c59.333 0 105.166 -10.333 137.499 -31s48.5 -50 48.5 -88c0 -29.333 -9.66699 -53.666 -29 -72.999s-45.333 -31.333 -78 -36v-3
c38 -3.33301 67.833 -14.666 89.5 -33.999s32.5 -47 32.5 -83c0 -44 -16.667 -78.5 -50 -103.5z" />
    <glyph glyph-name="uni049A" unicode="&#x49a;" horiz-adv-x="659" 
d="M642 0v-140h-96v140h-56l-316 349v-349h-104v700h104v-311l278 311h144l-304 -321l287 -309h63v-68l2 -2h-2z" />
    <glyph glyph-name="uni049B" unicode="&#x49b;" horiz-adv-x="498" 
d="M483 61v-191h-86v130h-53l-186 227v-227h-98v462h98v-197l165 197h129l-194 -210l163 -191h62z" />
    <glyph glyph-name="uni049C" unicode="&#x49c;" horiz-adv-x="729" 
d="M302 326h-35v-126h-40v126h-53v-326h-104v700h104v-278h53v153h40v-153h40l214 278h135l-261 -321l329 -379h-149z" />
    <glyph glyph-name="uni049D" unicode="&#x49d;" horiz-adv-x="513" 
d="M233 215h-15v-117h-28v117h-32v-215h-98v462h98v-179h32v114h28v-114h16l139 179h124l-179 -210l190 -252h-124z" />
    <glyph glyph-name="uni049E" unicode="&#x49e;" horiz-adv-x="695" 
d="M536 0l-316 349v-349h-104v559h-106v64h106v77h104v-77h116v-64h-116v-170l278 311h144l-304 -321l352 -379h-154z" />
    <glyph glyph-name="uni049F" unicode="&#x49f;" horiz-adv-x="483" 
d="M349 0l-186 227v-227h-98v565h-65v60h65v75h98v-75h140v-60h-140v-300l165 197h129l-194 -210l215 -252h-129z" />
    <glyph glyph-name="uni04A0" unicode="&#x4a0;" horiz-adv-x="778" 
d="M619 0l-316 349v-349h-104v602h-189v98h293v-311l278 311h144l-304 -321l352 -379h-154z" />
    <glyph glyph-name="uni04A1" unicode="&#x4a1;" horiz-adv-x="583" 
d="M449 0l-186 227v-227h-98v370h-160v92h258v-197l165 197h129l-194 -210l215 -252h-129z" />
    <glyph glyph-name="uni04A2" unicode="&#x4a2;" horiz-adv-x="698" 
d="M683 70v-210h-96v140h-43v319h-370v-319h-104v700h104v-281h370v281h104v-630h35z" />
    <glyph glyph-name="uni04A3" unicode="&#x4a3;" horiz-adv-x="561" 
d="M546 61v-191h-86v130h-67v194h-235v-194h-98v462h98v-176h235v176h98v-401h55z" />
    <glyph glyph-name="uni04A4" unicode="&#x4a4;" horiz-adv-x="944" 
d="M934 602h-306v-602h-104v319h-350v-319h-104v700h104v-281h350v281h410v-98z" />
    <glyph glyph-name="uni04A5" unicode="&#x4a5;" horiz-adv-x="668" 
d="M663 370h-192v-370h-98v194h-215v-194h-98v462h98v-176h215v176h290v-92z" />
    <glyph glyph-name="uni04A6" unicode="&#x4a6;" horiz-adv-x="1047" 
d="M975 382c34.667 -28.667 52.001 -73.667 52.001 -135v-59c0 -58.667 -15.833 -104.667 -47.5 -138s-77.834 -50 -138.501 -50h-69v98h58c30 0 53 6.83301 69 20.5s24 38.167 24 73.5v53c0 27.333 -9.33301 47.833 -28 61.5s-47.667 20.5 -87 20.5
c-48 0 -104.667 -2.33301 -170 -7v-320h-104v602h-360v-602h-104v700h568v-283c72 5.33301 132.333 8 181 8c69.333 0 121.333 -14.333 156 -43z" />
    <glyph glyph-name="uni04A7" unicode="&#x4a7;" horiz-adv-x="797" 
d="M727 248c26.667 -22.667 40 -60 40 -112v-170c0 -56 -12 -97.667 -36 -125s-61.667 -41 -113 -41h-61v92h54c19.333 0 33.833 5.83301 43.5 17.5s14.5 31.5 14.5 59.5v156c0 24.667 -6.33301 43 -19 55s-33.667 18 -63 18c-20.667 0 -59.334 -1.66699 -116.001 -5v-193
h-98v370h-215v-370h-98v462h411v-185c45.333 3.33301 89 5 131 5c56.667 0 98.334 -11.333 125.001 -34z" />
    </font>
</defs>
</svg>
