<svg xmlns="http://www.w3.org/2000/svg" width="23.214" height="23.214" viewBox="0 0 23.214 23.214"><defs><style>.a{fill:#fff;}</style></defs><path class="a" d="M20.493,1.814H19.405V0H17.592V1.814H5.622V0H3.809V1.814H2.72A2.723,2.723,0,0,0,0,4.534v15.96a2.723,2.723,0,0,0,2.72,2.72H12.05A8,8,0,0,1,10.433,21.4H2.72a.908.908,0,0,1-.907-.907V8.524H21.4v1.909a8,8,0,0,1,1.814,1.617V4.534A2.723,2.723,0,0,0,20.493,1.814Zm.907,4.9H1.814V4.534a.908.908,0,0,1,.907-.907H3.809V5.441H5.622V3.627h11.97V5.441h1.814V3.627h1.088a.908.908,0,0,1,.907.907Z"/><path class="a" d="M248.121,242a6.121,6.121,0,1,0,6.121,6.121A6.128,6.128,0,0,0,248.121,242Zm0,10.428a4.307,4.307,0,1,1,4.307-4.307A4.312,4.312,0,0,1,248.121,252.428Z" transform="translate(-231.028 -231.028)"/><path class="a" d="M357.814,310H356v3.945h3.355v-1.814h-1.542Z" transform="translate(-339.859 -295.945)"/></svg>