<svg xmlns="http://www.w3.org/2000/svg" width="17.508" height="17.508" viewBox="0 0 17.508 17.508"><defs><style>.a{fill:#6434e8;}</style></defs><g transform="translate(-0.979 -0.979)"><g transform="translate(0.979 0.979)"><path class="a" d="M15.456,1.368h-.821V0H13.268V1.368H4.24V0H2.872V1.368H2.052A2.054,2.054,0,0,0,0,3.419V15.456a2.054,2.054,0,0,0,2.052,2.052h13.4a2.054,2.054,0,0,0,2.052-2.052V3.419A2.054,2.054,0,0,0,15.456,1.368Zm.684,14.088a.685.685,0,0,1-.684.684H2.052a.685.685,0,0,1-.684-.684V6.429H16.14Zm0-10.4H1.368V3.419a.685.685,0,0,1,.684-.684h.821V4.1H4.24V2.736h9.027V4.1h1.368V2.736h.821a.685.685,0,0,1,.684.684Z"/></g></g></svg>