<svg xmlns="http://www.w3.org/2000/svg" width="19.472" height="19.472" viewBox="0 0 19.472 19.472"><defs><style>.a{fill:#6434e8;}</style></defs><path class="a" d="M7.5,6.491H1.42A1.421,1.421,0,0,1,0,5.071V1.42A1.421,1.421,0,0,1,1.42,0H7.5a1.421,1.421,0,0,1,1.42,1.42V5.071A1.421,1.421,0,0,1,7.5,6.491ZM1.42,1.217a.2.2,0,0,0-.2.2V5.071a.2.2,0,0,0,.2.2H7.5a.2.2,0,0,0,.2-.2V1.42a.2.2,0,0,0-.2-.2Zm0,0" transform="translate(0 0)"/><path class="a" d="M7.5,224.691H1.42A1.421,1.421,0,0,1,0,223.271v-8.519a1.421,1.421,0,0,1,1.42-1.42H7.5a1.421,1.421,0,0,1,1.42,1.42v8.519A1.421,1.421,0,0,1,7.5,224.691ZM1.42,214.549a.2.2,0,0,0-.2.2v8.519a.2.2,0,0,0,.2.2H7.5a.2.2,0,0,0,.2-.2v-8.519a.2.2,0,0,0-.2-.2Zm0,0" transform="translate(0 -205.219)"/><path class="a" d="M284.837,347.823h-6.085a1.421,1.421,0,0,1-1.42-1.42v-3.651a1.421,1.421,0,0,1,1.42-1.42h6.085a1.421,1.421,0,0,1,1.42,1.42V346.4A1.421,1.421,0,0,1,284.837,347.823Zm-6.085-5.274a.2.2,0,0,0-.2.2V346.4a.2.2,0,0,0,.2.2h6.085a.2.2,0,0,0,.2-.2v-3.651a.2.2,0,0,0-.2-.2Zm0,0" transform="translate(-266.785 -328.351)"/><path class="a" d="M284.837,11.359h-6.085a1.421,1.421,0,0,1-1.42-1.42V1.42A1.421,1.421,0,0,1,278.752,0h6.085a1.421,1.421,0,0,1,1.42,1.42V9.939A1.421,1.421,0,0,1,284.837,11.359ZM278.752,1.217a.2.2,0,0,0-.2.2V9.939a.2.2,0,0,0,.2.2h6.085a.2.2,0,0,0,.2-.2V1.42a.2.2,0,0,0-.2-.2Zm0,0" transform="translate(-266.785 0)"/></svg>