<svg xmlns="http://www.w3.org/2000/svg" width="18.067" height="20.465" viewBox="0 0 18.067 20.465"><defs><style>.a{fill:#ea4a4a;}</style></defs><g transform="translate(0 2.939)"><path class="a" d="M42.259,73.572a.8.8,0,0,0-.571,1.493,7.435,7.435,0,1,1-5.31,0,.8.8,0,1,0-.571-1.493,9.033,9.033,0,1,0,6.452,0Z" transform="translate(-30 -73.519)"/></g><g transform="translate(8.234)"><path class="a" d="M236.8,0a.8.8,0,0,0-.8.8V8.628a.8.8,0,1,0,1.6,0V.8A.8.8,0,0,0,236.8,0Z" transform="translate(-236 0)"/></g></svg>