<svg xmlns="http://www.w3.org/2000/svg" width="36.048" height="36.05" viewBox="0 0 36.048 36.05"><defs><style>.a{fill:#17bbb1;}</style></defs><path class="a" d="M12.145,30.328a.758.758,0,0,1-.532-.219.75.75,0,0,1-.206-.677l1.062-5.31a.736.736,0,0,1,.206-.385L24.359,12.054a2.257,2.257,0,0,1,3.186,0l2.124,2.124a2.255,2.255,0,0,1,0,3.186L17.986,29.047a.747.747,0,0,1-.385.206l-5.31,1.062A.8.8,0,0,1,12.145,30.328ZM13.9,24.637l-.8,3.982,3.982-.8L28.608,16.3a.752.752,0,0,0,0-1.062l-2.124-2.124a.752.752,0,0,0-1.062,0Zm3.555,3.878h.015Z" transform="translate(5.72 5.722)"/><path class="a" d="M14.27,30.038H3.755A3.759,3.759,0,0,1,0,26.282V6.755A3.759,3.759,0,0,1,3.755,3h3a.751.751,0,1,1,0,1.5h-3A2.256,2.256,0,0,0,1.5,6.755V26.282a2.256,2.256,0,0,0,2.253,2.253H14.27a.751.751,0,1,1,0,1.5Z" transform="translate(0 1.506)"/><path class="a" d="M18.759,16.519a.751.751,0,0,1-.751-.751V6.755A2.256,2.256,0,0,0,15.755,4.5h-3a.751.751,0,1,1,0-1.5h3A3.759,3.759,0,0,1,19.51,6.755v9.013A.751.751,0,0,1,18.759,16.519Z" transform="translate(6.025 1.506)"/><path class="a" d="M15.266,9.013H6.253A2.256,2.256,0,0,1,4,6.759v-3A.751.751,0,0,1,4.751,3H7.079a3.756,3.756,0,0,1,7.36,0h2.328a.751.751,0,0,1,.751.751v3A2.256,2.256,0,0,1,15.266,9.013ZM5.5,4.506V6.759a.753.753,0,0,0,.751.751h9.013a.753.753,0,0,0,.751-.751V4.506H13.764a.751.751,0,0,1-.751-.751,2.253,2.253,0,1,0-4.506,0,.751.751,0,0,1-.751.751Z" transform="translate(2.008)"/><path class="a" d="M18.772,9.5H3.751a.751.751,0,1,1,0-1.5H18.772a.751.751,0,1,1,0,1.5Z" transform="translate(1.506 4.017)"/><path class="a" d="M18.772,12.5H3.751a.751.751,0,1,1,0-1.5H18.772a.751.751,0,1,1,0,1.5Z" transform="translate(1.506 5.523)"/><path class="a" d="M18.772,15.5H3.751a.751.751,0,1,1,0-1.5H18.772a.751.751,0,1,1,0,1.5Z" transform="translate(1.506 7.029)"/></svg>