<svg xmlns="http://www.w3.org/2000/svg" width="23.217" height="23.215" viewBox="0 0 23.217 23.215"><defs><style>.a{fill:#fff;}</style></defs><path class="a" d="M20.55.905a3.2,3.2,0,0,0-4.518,0L14.9,2.042,2.863,14.074l-.026.026c-.006.006-.006.013-.013.013-.013.019-.032.038-.045.057s-.007.006-.007.013-.019.032-.032.051-.006.013-.013.019-.013.032-.019.051-.006.006-.006.013L.033,22.349A.629.629,0,0,0,.186,23a.643.643,0,0,0,.454.185.754.754,0,0,0,.2-.032L8.87,20.477c.006,0,.006,0,.013-.006a.231.231,0,0,0,.057-.026.023.023,0,0,0,.013-.006c.019-.013.045-.026.064-.039s.038-.032.058-.045.013-.007.013-.013.019-.013.026-.026L22.282,7.148a3.2,3.2,0,0,0,0-4.518ZM8.665,18.975,4.218,14.528,15.349,3.4,19.8,7.844ZM3.592,15.71l3.885,3.885L1.643,21.537ZM21.381,6.253l-.677.684L16.256,2.49l.684-.684a1.917,1.917,0,0,1,2.709,0l1.738,1.738a1.923,1.923,0,0,1-.006,2.709Zm0,0" transform="translate(0.001 0.029)"/></svg>