<svg xmlns="http://www.w3.org/2000/svg" width="11.108" height="11.116" viewBox="0 0 11.108 11.116"><defs><style>.a{fill:#929292;}</style></defs><g transform="translate(-12.015 -12.015)"><path class="a" d="M137.574,126.877a.688.688,0,0,0-.972,0l-4.376,4.376-4.376-4.376a.688.688,0,0,0-.989.955l.017.017,4.376,4.376-4.376,4.376a.688.688,0,0,0,.955.989l.017-.017,4.376-4.376,4.376,4.376a.688.688,0,0,0,.972-.972l-4.376-4.376,4.376-4.376A.688.688,0,0,0,137.574,126.877Zm0,0" transform="translate(-114.652 -114.652)"/></g></svg>