<svg xmlns="http://www.w3.org/2000/svg" xmlns:xlink="http://www.w3.org/1999/xlink" width="567.766" height="602.938" viewBox="0 0 567.766 602.938"><defs><style>.a{fill:none;}.b{fill:#f9f9f9;}.c{clip-path:url(#a);}.d{fill:#ffd5b8;}.e{fill:#fff;}.f{fill:#02709c;}</style><clipPath id="a"><ellipse class="a" cx="226.533" cy="226.533" rx="226.533" ry="226.533"/></clipPath></defs><g transform="matrix(0.966, -0.259, 0.259, 0.966, 0, 117.262)"><path class="b" d="M34.355,578.692c0-125.109,101.42-226.534,226.534-226.534S487.423,453.583,487.423,578.692,386,805.226,260.889,805.226A225.913,225.913,0,0,1,181.3,790.811l-79.912,64.156,16.367-100.71A226.051,226.051,0,0,1,34.355,578.692Z" transform="translate(-34.355 -352.158)"/><g transform="translate(0 0.001)"><g class="c"><g transform="translate(101.629 51.945)"><path class="d" d="M229.055,551.472s-17.937-53.79-48.291-88.588c-4.954-5.677-38.457-50.9-36-82.392.478-6.126-1.042-14.893-7.135-15.69-4.049-.528-9.24.349-15.345,4.7-15.47,11.022-18.63,33.166-11.944,55.546s21.978,33.818,10.05,50.978c-8.273,11.906-53.163,3.53-53.163,3.53L65.56,642.174s108.9,26.716,126.6,9.49Z" transform="translate(-7.213 -364.666)"/><path class="d" d="M91.779,408.412c-3.1,12.613,5.615,25.607,19.478,29.013l54.753,14.212c13.863,3.41,27.613-4.049,30.716-16.666h0c3.106-12.612-5.615-25.6-19.473-29.017L122.5,391.75c-13.867-3.41-27.617,4.049-30.72,16.662Z" transform="translate(-81.798 -281.874)"/><path class="d" d="M93.985,417.3c-2.87,11.678,6.034,23.913,19.893,27.327l54.757,14.2c13.863,3.414,27.426-3.289,30.3-14.972h0c2.874-11.674-6.03-23.9-19.893-27.323l-54.753-14.208c-13.863-3.41-27.431,3.289-30.3,14.972Z" transform="translate(-93.447 -248.733)"/><path class="d" d="M96.574,425.578c-2.571,10.453,5.436,21.409,17.887,24.474l46.962,12.284c12.451,3.069,24.631-2.919,27.206-13.373h0c2.571-10.457-5.44-21.417-17.891-24.482L123.78,412.193c-12.451-3.065-24.631,2.928-27.206,13.385Z" transform="translate(-94.072 -217.342)"/><path class="d" d="M97.931,436.421c-2,10.735,5.793,21.185,17.405,23.344l42.3,7.3c11.612,2.159,22.642-4.788,24.64-15.52h0c2-10.731-5.793-21.18-17.4-23.348L122.567,420.9c-11.608-2.159-22.638,4.788-24.636,15.52Z" transform="translate(-93.888 -188.595)"/><path class="d" d="M54.174,406.221,299.487,550.984l-69.76,109.8L7.783,522.472Z" transform="translate(162.303 -233.644)"/><path class="e" d="M116.56,406.705,52.513,550.993l24.864,9.989,64.641-143.628Z" transform="translate(134.011 -232.116)"/><path class="f" d="M33.576,405.741-41.135,574.85,372.954,776.608l45.563-193.374Z" transform="translate(246.431 -235.156)"/></g></g></g></g></svg>