<svg xmlns="http://www.w3.org/2000/svg" width="20.279" height="20.279" viewBox="0 0 20.279 20.279"><defs><style>.a{fill:#6434e8;}</style></defs><path class="a" d="M10.14,20.279a10.138,10.138,0,1,1,7.753-3.6,10.246,10.246,0,0,1-1.2,1.2,10.143,10.143,0,0,1-6.557,2.4Zm0-19.012a8.873,8.873,0,0,0-6.784,14.59A8.976,8.976,0,0,0,4.4,16.908a8.873,8.873,0,0,0,11.473,0,8.976,8.976,0,0,0,1.048-1.051A8.873,8.873,0,0,0,10.14,1.267Z" transform="translate(0 0)"/><path class="a" d="M163.8,71.6a3.8,3.8,0,1,1,3.8-3.8A3.807,3.807,0,0,1,163.8,71.6Zm0-6.337a2.535,2.535,0,1,0,2.535,2.535A2.538,2.538,0,0,0,163.8,65.267Z" transform="translate(-153.663 -61.465)"/><path class="a" d="M93.118,233.153a.634.634,0,0,1-.615-.788,5.709,5.709,0,0,0-5.449-7.1h-.167a5.709,5.709,0,0,0-5.449,7.1.634.634,0,0,1-1.229.309A6.973,6.973,0,0,1,86.872,224h.2a6.976,6.976,0,0,1,6.663,8.673A.634.634,0,0,1,93.118,233.153Z" transform="translate(-76.831 -215.128)"/></svg>