<svg xmlns="http://www.w3.org/2000/svg" width="43.997" height="27.724" viewBox="0 0 43.997 27.724"><defs><style>.a{fill:#6434e8;}</style></defs><path class="a" d="M43.541,2.473a.933.933,0,0,0-.923-.017L32.524,7.968V4.661A4.666,4.666,0,0,0,27.863,0H4.661A4.666,4.666,0,0,0,0,4.661v18.4a4.666,4.666,0,0,0,4.661,4.661h23.2a4.666,4.666,0,0,0,4.661-4.661V19.816l10.1,5.512A.932.932,0,0,0,44,24.51V3.274a.932.932,0,0,0-.457-.8ZM30.659,23.064a2.8,2.8,0,0,1-2.8,2.8H4.661a2.8,2.8,0,0,1-2.8-2.8V4.661a2.8,2.8,0,0,1,2.8-2.8h23.2a2.8,2.8,0,0,1,2.8,2.8Zm11.475-.125-9.61-5.247v-7.6l9.61-5.247Zm0,0" transform="translate(-0.001 0)"/></svg>