<svg xmlns="http://www.w3.org/2000/svg" width="70" height="70" viewBox="0 0 70 70"><defs><style>.a{fill:#e2e2e2;}.b{fill:#fff;}</style></defs><g transform="translate(-697 -295)"><rect class="a" width="70" height="70" rx="4" transform="translate(697 295)"/><g transform="translate(716.405 312.585)"><path class="b" d="M57.642,8.438H44.282V.7a.7.7,0,0,0-.7-.7H26.7a.7.7,0,0,0-.7.7V35.3a.7.7,0,0,0,.7.7H57.642a.7.7,0,0,0,.7-.7V9.141A.7.7,0,0,0,57.642,8.438ZM44.282,9.844H56.938V27.563H44.282Zm-11.25,24.75V28.97H37.25v5.625Zm4.922-7.031H32.328a.7.7,0,0,0-.7.7v6.328H27.406V1.406H42.876V34.595H38.657V28.266A.7.7,0,0,0,37.953,27.563Zm6.328,7.031V28.97H56.938v5.625Z" transform="translate(-26)"/><path class="b" d="M136.7,42.814h1.406a.7.7,0,0,0,.7-.7V40.7a.7.7,0,0,0-.7-.7H136.7a.7.7,0,0,0-.7.7V42.11A.7.7,0,0,0,136.7,42.814Z" transform="translate(-128.264 -37.188)"/><path class="b" d="M136.7,112.814h1.406a.7.7,0,0,0,.7-.7V110.7a.7.7,0,0,0-.7-.7H136.7a.7.7,0,0,0-.7.7v1.406A.7.7,0,0,0,136.7,112.814Z" transform="translate(-128.264 -102.266)"/><path class="b" d="M136.7,182.814h1.406a.7.7,0,0,0,.7-.7V180.7a.7.7,0,0,0-.7-.7H136.7a.7.7,0,0,0-.7.7v1.406A.7.7,0,0,0,136.7,182.814Z" transform="translate(-128.264 -167.344)"/><path class="b" d="M136.7,252.813h1.406a.7.7,0,0,0,.7-.7V250.7a.7.7,0,0,0-.7-.7H136.7a.7.7,0,0,0-.7.7v1.406A.7.7,0,0,0,136.7,252.813Z" transform="translate(-128.264 -232.421)"/><path class="b" d="M136.7,322.813h1.406a.7.7,0,0,0,.7-.7V320.7a.7.7,0,0,0-.7-.7H136.7a.7.7,0,0,0-.7.7v1.406A.7.7,0,0,0,136.7,322.813Z" transform="translate(-128.264 -297.499)"/><path class="b" d="M66.7,42.814H68.11a.7.7,0,0,0,.7-.7V40.7a.7.7,0,0,0-.7-.7H66.7a.7.7,0,0,0-.7.7V42.11A.7.7,0,0,0,66.7,42.814Z" transform="translate(-63.188 -37.188)"/><path class="b" d="M66.7,112.814H68.11a.7.7,0,0,0,.7-.7V110.7a.7.7,0,0,0-.7-.7H66.7a.7.7,0,0,0-.7.7v1.406A.7.7,0,0,0,66.7,112.814Z" transform="translate(-63.188 -102.266)"/><path class="b" d="M66.7,182.814H68.11a.7.7,0,0,0,.7-.7V180.7a.7.7,0,0,0-.7-.7H66.7a.7.7,0,0,0-.7.7v1.406A.7.7,0,0,0,66.7,182.814Z" transform="translate(-63.188 -167.344)"/><path class="b" d="M66.7,252.813H68.11a.7.7,0,0,0,.7-.7V250.7a.7.7,0,0,0-.7-.7H66.7a.7.7,0,0,0-.7.7v1.406A.7.7,0,0,0,66.7,252.813Z" transform="translate(-63.188 -232.421)"/><path class="b" d="M66.7,322.813H68.11a.7.7,0,0,0,.7-.7V320.7a.7.7,0,0,0-.7-.7H66.7a.7.7,0,0,0-.7.7v1.406A.7.7,0,0,0,66.7,322.813Z" transform="translate(-63.188 -297.499)"/><path class="b" d="M208.11,40H206.7a.7.7,0,0,0-.7.7V42.11a.7.7,0,0,0,.7.7h1.406a.7.7,0,0,0,.7-.7V40.7A.7.7,0,0,0,208.11,40Z" transform="translate(-193.344 -37.188)"/><path class="b" d="M208.11,110H206.7a.7.7,0,0,0-.7.7v1.406a.7.7,0,0,0,.7.7h1.406a.7.7,0,0,0,.7-.7V110.7A.7.7,0,0,0,208.11,110Z" transform="translate(-193.344 -102.265)"/><path class="b" d="M208.11,180H206.7a.7.7,0,0,0-.7.7v1.406a.7.7,0,0,0,.7.7h1.406a.7.7,0,0,0,.7-.7V180.7A.7.7,0,0,0,208.11,180Z" transform="translate(-193.344 -167.343)"/><path class="b" d="M208.11,250H206.7a.7.7,0,0,0-.7.7v1.406a.7.7,0,0,0,.7.7h1.406a.7.7,0,0,0,.7-.7V250.7A.7.7,0,0,0,208.11,250Z" transform="translate(-193.344 -232.421)"/><path class="b" d="M208.11,320H206.7a.7.7,0,0,0-.7.7v1.406a.7.7,0,0,0,.7.7h1.406a.7.7,0,0,0,.7-.7V320.7A.7.7,0,0,0,208.11,320Z" transform="translate(-193.344 -297.499)"/><path class="b" d="M393.109,180H391.7a.7.7,0,0,0-.7.7v1.406a.7.7,0,0,0,.7.7h1.406a.7.7,0,0,0,.7-.7V180.7A.7.7,0,0,0,393.109,180Z" transform="translate(-365.335 -167.343)"/><path class="b" d="M393.109,250H391.7a.7.7,0,0,0-.7.7v1.406a.7.7,0,0,0,.7.7h1.406a.7.7,0,0,0,.7-.7V250.7A.7.7,0,0,0,393.109,250Z" transform="translate(-365.335 -232.421)"/><path class="b" d="M393.109,320H391.7a.7.7,0,0,0-.7.7v1.406a.7.7,0,0,0,.7.7h1.406a.7.7,0,0,0,.7-.7V320.7A.7.7,0,0,0,393.109,320Z" transform="translate(-365.335 -297.499)"/><path class="b" d="M323.111,180h-1.406a.7.7,0,0,0-.7.7v1.406a.7.7,0,0,0,.7.7h1.406a.7.7,0,0,0,.7-.7V180.7A.7.7,0,0,0,323.111,180Z" transform="translate(-300.259 -167.343)"/><path class="b" d="M323.111,250h-1.406a.7.7,0,0,0-.7.7v1.406a.7.7,0,0,0,.7.7h1.406a.7.7,0,0,0,.7-.7V250.7A.7.7,0,0,0,323.111,250Z" transform="translate(-300.259 -232.421)"/><path class="b" d="M323.111,320h-1.406a.7.7,0,0,0-.7.7v1.406a.7.7,0,0,0,.7.7h1.406a.7.7,0,0,0,.7-.7V320.7A.7.7,0,0,0,323.111,320Z" transform="translate(-300.259 -297.499)"/></g></g></svg>