<svg xmlns="http://www.w3.org/2000/svg" width="52" height="52" viewBox="0 0 52 52"><defs><style>.a{fill:#fff;}.b{fill:#101b1d;}</style></defs><g transform="translate(-32 -619)"><path class="a" d="M50.911,16.607H35.392V1.088A1.088,1.088,0,0,0,34.3,0H17.7a1.088,1.088,0,0,0-1.088,1.088V16.607H1.088A1.088,1.088,0,0,0,0,17.7V34.3a1.088,1.088,0,0,0,1.088,1.088H16.608V50.911A1.088,1.088,0,0,0,17.7,52H34.3a1.088,1.088,0,0,0,1.088-1.088V35.392H50.911A1.088,1.088,0,0,0,52,34.3V17.7A1.088,1.088,0,0,0,50.911,16.607Z" transform="translate(32 619)"/><path class="b" d="M23.006,31.5h5.553a2.938,2.938,0,0,0,2.282-4.79,2.938,2.938,0,0,0-2.282-4.79H23.006a1.088,1.088,0,0,0-1.088,1.088v7.4A1.089,1.089,0,0,0,23.006,31.5Zm1.088-7.4h4.464a.763.763,0,0,1,0,1.525H24.095Zm0,3.7h4.464a.763.763,0,0,1,0,1.525H24.095ZM6.4,31.5A1.088,1.088,0,0,0,7.487,30.41V27.8h5.226V30.41a1.088,1.088,0,1,0,2.177,0v-7.4A1.088,1.088,0,0,0,13.8,21.918H8.249A2.942,2.942,0,0,0,5.31,24.857V30.41A1.088,1.088,0,0,0,6.4,31.5Zm1.088-6.641a.763.763,0,0,1,.762-.762h4.464v1.525H7.487Zm14.431,20.31v-3.7a2.943,2.943,0,0,1,2.939-2.939H30.41a1.088,1.088,0,0,1,0,2.177H24.857a.763.763,0,0,0-.762.762v3.7a.763.763,0,0,0,.762.762H30.41a1.088,1.088,0,0,1,0,2.177H24.857A2.943,2.943,0,0,1,21.918,45.167ZM23.007,14.89A1.088,1.088,0,0,0,24.095,13.8V11.189h5.226V13.8a1.088,1.088,0,0,0,2.177,0V6.4A1.088,1.088,0,0,0,30.409,5.31H24.857a2.942,2.942,0,0,0-2.939,2.939V13.8A1.089,1.089,0,0,0,23.007,14.89Zm1.088-6.641a.763.763,0,0,1,.762-.762h4.464V9.012H24.1V8.249Zm14.43,20.31v-3.7a2.943,2.943,0,0,1,2.939-2.939h5.553a1.088,1.088,0,0,1,0,2.177H41.464a.763.763,0,0,0-.762.762v3.7a.763.763,0,0,0,.762.762h5.553a1.088,1.088,0,0,1,0,2.177H41.464A2.943,2.943,0,0,1,38.525,28.559Z" transform="translate(31.292 618.292)"/></g></svg>