<svg xmlns="http://www.w3.org/2000/svg" width="51.163" height="43.167" viewBox="0 0 51.163 43.167"><defs><style>.a{opacity:0.05;}.b{fill:#fefefe;stroke:#1d2d34;stroke-width:0.5px;}</style></defs><g class="a" transform="translate(0.25 -3.445)"><path class="b" d="M44.879,111.573a5.79,5.79,0,1,0-8.286,0,9.886,9.886,0,0,0-1.161.63,12.726,12.726,0,0,0-5.2-3.8,7.172,7.172,0,0,0,2.081-8.1l9.873-9.273a5.587,5.587,0,1,0-2.078-2.108L30.669,97.8a7.175,7.175,0,0,0-10.66.615l-9.572-9.456a5.59,5.59,0,1,0-2.089,2.1l10.283,10.159A7.171,7.171,0,0,0,21,108.4a12.728,12.728,0,0,0-5.35,3.99,9.846,9.846,0,0,0-1.454-.826,5.79,5.79,0,1,0-8.29,0,9.94,9.94,0,0,0-5.784,9.02v2.7H50.663v-2.7A9.94,9.94,0,0,0,44.879,111.573ZM5.582,88.83a2.624,2.624,0,1,1,2.624-2.624A2.626,2.626,0,0,1,5.582,88.83ZM40.736,104.7a2.831,2.831,0,1,1-2.831,2.831A2.835,2.835,0,0,1,40.736,104.7Zm4.248-21.119a2.624,2.624,0,1,1-2.623,2.623A2.626,2.626,0,0,1,44.985,83.583ZM25.616,98.675a4.229,4.229,0,1,1-4.229,4.229A4.234,4.234,0,0,1,25.616,98.675ZM10.045,104.7a2.831,2.831,0,1,1-2.831,2.831A2.835,2.835,0,0,1,10.045,104.7Zm-6.963,15.63A6.969,6.969,0,0,1,14.1,114.927,12.592,12.592,0,0,0,12.95,120.2v.134H3.082Zm32.241,0H15.909V120.2a9.707,9.707,0,0,1,19.414,0v.134Zm2.959,0V120.2a12.59,12.59,0,0,0-1.258-5.5A6.967,6.967,0,0,1,47.7,120.332Z" transform="translate(0 -76.929)"/></g></svg>