<svg xmlns="http://www.w3.org/2000/svg" width="25.405" height="21.474" viewBox="0 0 25.405 21.474"><defs><style>.a{fill:#fefefe;stroke:#1d2d34;stroke-width:0.5px;}</style></defs><g transform="translate(0.25 -3.445)"><path class="a" d="M22.061,95.838a2.846,2.846,0,1,0-4.073,0,4.858,4.858,0,0,0-.571.31,6.256,6.256,0,0,0-2.554-1.867A3.526,3.526,0,0,0,15.886,90.3l4.853-4.559a2.746,2.746,0,1,0-1.021-1.036l-4.642,4.36a3.527,3.527,0,0,0-5.24.3L5.131,84.721A2.748,2.748,0,1,0,4.1,85.751l5.055,4.994a3.525,3.525,0,0,0,1.162,3.536,6.257,6.257,0,0,0-2.63,1.961,4.839,4.839,0,0,0-.715-.406,2.846,2.846,0,1,0-4.075,0,4.886,4.886,0,0,0-2.843,4.434V101.6H24.9v-1.326A4.886,4.886,0,0,0,22.061,95.838ZM2.744,84.658a1.29,1.29,0,1,1,1.29-1.29A1.291,1.291,0,0,1,2.744,84.658Zm17.281,7.8a1.392,1.392,0,1,1-1.392,1.392A1.393,1.393,0,0,1,20.025,92.46Zm2.088-10.382a1.29,1.29,0,1,1-1.29,1.29A1.291,1.291,0,0,1,22.113,82.079ZM12.592,89.5a2.079,2.079,0,1,1-2.079,2.079A2.081,2.081,0,0,1,12.592,89.5ZM4.938,92.46a1.392,1.392,0,1,1-1.392,1.392A1.393,1.393,0,0,1,4.938,92.46Zm-3.423,7.683a3.426,3.426,0,0,1,5.417-2.657,6.19,6.19,0,0,0-.566,2.591v.066H1.515Zm15.849,0H7.82v-.066a4.772,4.772,0,0,1,9.543,0v.066Zm1.455,0v-.066a6.189,6.189,0,0,0-.618-2.7,3.425,3.425,0,0,1,5.248,2.77Z" transform="translate(0 -76.929)"/></g></svg>