<svg xmlns="http://www.w3.org/2000/svg" xmlns:xlink="http://www.w3.org/1999/xlink" width="52" height="52" viewBox="0 0 52 52"><defs><style>.a{fill:#fff;}.b{opacity:0.5;clip-path:url(#a);}</style><clipPath id="a"><rect class="a" width="52" height="52" transform="translate(57 487.465)"/></clipPath></defs><g class="b" transform="translate(-57 -487.465)"><g transform="translate(59.918 489.864)"><g transform="translate(0 0)"><path class="a" d="M37.748,11.162h0a18.941,18.941,0,0,0-13.7-5.909c-2.427.037-5.658,1.017-7.431,6.2a.972.972,0,1,0,1.84.63C19.583,8.8,21.376,7.2,23.94,7.2h.084a16.817,16.817,0,0,1,12.323,5.31,23.387,23.387,0,0,1,6.167,16.057c-.251,9.423-6.123,14.614-16.532,14.614A15.274,15.274,0,0,1,14.6,37.6c-3.688-4.162-5.345-9.343-5.162-10.837a6.4,6.4,0,0,1,.44-1.69.973.973,0,1,0-1.8-.749,8.274,8.274,0,0,0-.574,2.2c-.263,2.153,1.591,7.8,5.634,12.362,3.61,4.075,8.048,6.231,12.834,6.231,11.461,0,18.195-6.016,18.477-16.5A25.442,25.442,0,0,0,37.748,11.162Z" transform="translate(2.224 1.553)"/><path class="a" d="M15.67,25.863a5.436,5.436,0,0,0-.105,1.044c0,3.057,3.462,6.6,7.262,7.433a22.431,22.431,0,0,0,4.314.667,1.945,1.945,0,0,0,1.776-.683c.632-.879.025-1.888-.677-3.055A8.822,8.822,0,0,1,26.6,26.907,5.5,5.5,0,0,0,21.6,21.448a4.509,4.509,0,0,0-1.114-2.9L5.016,1A2.864,2.864,0,0,0,2.972.007,2.893,2.893,0,0,0,.846.822,2.8,2.8,0,0,0,.481,4.4L13.159,24A4.549,4.549,0,0,0,15.67,25.863Zm4.973-2.47h0c.006,0,.012-.008.017-.008a3.371,3.371,0,0,1,.422-.043,3.576,3.576,0,0,1,3.577,3.567,10.512,10.512,0,0,0,1.914,5.364c.148.249.329.548.463.8a23.646,23.646,0,0,1-3.794-.626c-3.176-.7-5.734-3.6-5.734-5.535a3.541,3.541,0,0,1,.3-1.414l0,0a3.551,3.551,0,0,1,.445-.737c.027-.035.056-.068.086-.1A3.592,3.592,0,0,1,20.644,23.393ZM2.21,2.207h0a.906.906,0,0,1,.638-.259h.041a.9.9,0,0,1,.659.325L19.022,19.837a2.571,2.571,0,0,1,.642,1.766.329.329,0,0,0-.031.012,5.427,5.427,0,0,0-.943.35c-.023.012-.043.025-.066.035a5.547,5.547,0,0,0-.805.488c-.058.043-.111.093-.169.138a5.565,5.565,0,0,0-.585.527c-.09.093-.163.2-.245.3a5.837,5.837,0,0,0-.385.51c-.021.033-.049.058-.07.091a2.57,2.57,0,0,1-1.573-1.109L2.1,3.315A.863.863,0,0,1,2.21,2.207Z" transform="translate(0 -0.005)"/><path class="a" d="M24.138,8.252a3.89,3.89,0,1,0,3.89,3.89A3.894,3.894,0,0,0,24.138,8.252Zm0,5.835a1.945,1.945,0,1,1,1.945-1.945A1.948,1.948,0,0,1,24.138,14.086Z" transform="translate(6.012 2.443)"/><path class="a" d="M27,24.888A3.89,3.89,0,1,0,30.886,21,3.894,3.894,0,0,0,27,24.888Zm5.835,0a1.945,1.945,0,1,1-1.945-1.945A1.948,1.948,0,0,1,32.831,24.888Z" transform="translate(8.016 6.228)"/><path class="a" d="M29.387,13.5a3.89,3.89,0,1,0,3.89,3.89A3.894,3.894,0,0,0,29.387,13.5Zm0,5.835a1.945,1.945,0,1,1,1.945-1.945A1.948,1.948,0,0,1,29.387,19.335Z" transform="translate(7.571 4.002)"/></g></g></g></svg>