<svg xmlns="http://www.w3.org/2000/svg" width="51.966" height="59.125" viewBox="0 0 51.966 59.125"><defs><style>.a{fill:#fff;}</style></defs><g transform="translate(0 0)"><path class="a" d="M153.464,360.016c-.576.044-1.145.114-1.732.114s-1.157-.069-1.732-.114v3.578h3.464Zm0,0" transform="translate(-132.678 -318.442)"/><path class="a" d="M150,483.732A1.732,1.732,0,1,0,151.732,482,1.733,1.733,0,0,0,150,483.732Zm0,0" transform="translate(-132.678 -426.339)"/><path class="a" d="M38.108,297.452V269.441a22.588,22.588,0,0,1-13.858,9.934v.64h6.929v3.464H24.251v3.464H13.858v-7.569A22.586,22.586,0,0,1,0,269.441v28.011H14.177a5.139,5.139,0,0,1-.319-1.732,5.2,5.2,0,0,1,10.393,0,5.139,5.139,0,0,1-.319,1.732Zm0,0" transform="translate(0 -238.326)"/><path class="a" d="M23.949,186.155V181H7.492C9.878,183.5,16.911,185.818,23.949,186.155Zm0,0" transform="translate(-6.627 -160.099)"/><path class="a" d="M23.949,111.518v-5.155c-7.037.337-14.071,2.651-16.457,5.155Zm0,0" transform="translate(-6.627 -94.081)"/><path class="a" d="M180,111.518h16.457c-2.386-2.5-9.419-4.818-16.457-5.155Zm0,0" transform="translate(-159.214 -94.081)"/><path class="a" d="M180,186.155c7.037-.337,14.071-2.65,16.457-5.155H180Zm0,0" transform="translate(-159.214 -160.099)"/><path class="a" d="M8.227,13.933C12.257,11.445,18.5,9.768,24.6,9.5V.761A19.2,19.2,0,0,0,8.227,13.933Zm0,0" transform="translate(-7.277 -0.674)"/><path class="a" d="M180,230.231a19.085,19.085,0,0,0,16.372-13.056c-4.031,2.488-10.27,4.165-16.372,4.438Zm0,0" transform="translate(-159.214 -192.096)"/><path class="a" d="M180,.761V9.495c6.1.273,12.341,1.95,16.372,4.438A19.206,19.206,0,0,0,180,.761Zm0,0" transform="translate(-159.214 -0.674)"/><path class="a" d="M24.6,221.614c-6.1-.273-12.341-1.95-16.372-4.438A19.086,19.086,0,0,0,24.6,230.232Zm0,0" transform="translate(-7.277 -192.096)"/><path class="a" d="M348.426,27.83a5.2,5.2,0,0,0,5.2-5.2V10.189a5.189,5.189,0,0,0,3.464-4.878,5.2,5.2,0,1,0-10.393,0,5.189,5.189,0,0,0,3.464,4.878v7.248h-3.552c.044.574.088,1.148.088,1.732a22.391,22.391,0,0,1-1.737,8.661Zm0,0" transform="translate(-305.122)"/></g></svg>