<svg xmlns="http://www.w3.org/2000/svg" width="18.25" height="24.333" viewBox="0 0 18.25 24.333"><defs><style>.a{fill:#fff;}</style></defs><g transform="translate(-65)"><path class="a" d="M81.144,0H67.106A2.108,2.108,0,0,0,65,2.106V22.228a2.108,2.108,0,0,0,2.106,2.106H81.144a2.108,2.108,0,0,0,2.106-2.106V2.106A2.108,2.108,0,0,0,81.144,0Zm.7,22.228a.7.7,0,0,1-.7.7H67.106a.7.7,0,0,1-.7-.7v-.936h1.17a.7.7,0,1,0,0-1.4H66.4v-1.4h1.17a.7.7,0,1,0,0-1.4H66.4v-1.4h1.17a.7.7,0,1,0,0-1.4H66.4v-1.4h1.17a.7.7,0,1,0,0-1.4H66.4v-1.4h1.17a.7.7,0,1,0,0-1.4H66.4v-1.4h1.17a.7.7,0,1,0,0-1.4H66.4v-1.4h1.17a.7.7,0,1,0,0-1.4H66.4V2.106a.7.7,0,0,1,.7-.7H81.144a.7.7,0,0,1,.7.7Z" transform="translate(0 0)"/><path class="a" d="M175.061,105H165.7a.7.7,0,0,0-.7.7v3.744a.7.7,0,0,0,.7.7h9.359a.7.7,0,0,0,.7-.7V105.7A.7.7,0,0,0,175.061,105Zm-.7,3.744H166.4V106.4h7.955Z" transform="translate(-95.32 -100.087)"/><path class="a" d="M193.189,245H185.7a.7.7,0,0,0,0,1.4h7.487a.7.7,0,1,0,0-1.4Z" transform="translate(-114.385 -233.535)"/><path class="a" d="M229.446,305H225.7a.7.7,0,0,0,0,1.4h3.744a.7.7,0,1,0,0-1.4Z" transform="translate(-152.513 -290.727)"/></g></svg>