<svg xmlns="http://www.w3.org/2000/svg" width="52.466" height="52.466" viewBox="0 0 52.466 52.466"><defs><style>.a{fill:#fff;}</style></defs><path class="a" d="M43.141,28.68H37.71V33.1H49.965a10.667,10.667,0,0,0-2.722-16.037,7.028,7.028,0,0,0-3.92-8.073,9.68,9.68,0,0,0-15.45-7.063V12.092h4.816V9.94a1.537,1.537,0,1,1,3.074,0v2.152h.307a1.537,1.537,0,0,1,0,3.074h-8.2A3.078,3.078,0,0,1,24.8,12.092V2.083A9.677,9.677,0,0,0,11.8,3,9.591,9.591,0,0,0,9.144,8.989,7.031,7.031,0,0,0,5.056,16.1H15.064v-4.11a1.537,1.537,0,0,1,3.074,0V16.1h.922a3.078,3.078,0,0,1,3.074,3.074v1.64h1.5a1.537,1.537,0,0,1,0,3.074h-1.5v2.767a1.537,1.537,0,0,1-3.074,0v-7.48H13.321v4.611a1.537,1.537,0,0,1-3.074,0V19.173s-7.506-.005-7.567-.013A10.667,10.667,0,0,0,5.223,35.4,6.984,6.984,0,0,0,5.657,40a7.093,7.093,0,0,0,.491.9h9.837V34.021H13.321a1.537,1.537,0,1,1,0-3.074h2.664a3.078,3.078,0,0,1,3.074,3.074v1.9h1.332a1.537,1.537,0,1,1,0,3.074H19.06v1.9a3.078,3.078,0,0,1-3.074,3.074H9.192a9.686,9.686,0,0,0,9.612,8.5,9.689,9.689,0,0,0,5.892-2V42.526a3.078,3.078,0,0,1,3.074-3.074h2.767a1.537,1.537,0,1,1,0,3.074H27.77v7.937a9.677,9.677,0,0,0,12.9-1,9.591,9.591,0,0,0,2.652-5.989,7.03,7.03,0,0,0,4.065-7.3H27.77A3.078,3.078,0,0,1,24.7,33.1V30.332a1.537,1.537,0,1,1,3.074,0V33.1h6.866V22.942H31.561a1.537,1.537,0,0,1,0-3.074h3.074a3.078,3.078,0,0,1,3.074,3.074v2.664H41.6v-2.96a1.537,1.537,0,1,1,3.074,0s0,4.375,0,4.5a1.537,1.537,0,0,1-1.537,1.537Z"/></svg>