<svg xmlns="http://www.w3.org/2000/svg" width="14.333" height="14.333" viewBox="0 0 14.333 14.333"><defs><style>.b{fill:#fff;}</style></defs><g class="a"><path class="b" d="M12.654,1.12h-.672V0h-1.12V1.12H3.471V0H2.352V1.12H1.68A1.682,1.682,0,0,0,0,2.8v9.854a1.682,1.682,0,0,0,1.68,1.68H12.654a1.682,1.682,0,0,0,1.68-1.68V2.8A1.682,1.682,0,0,0,12.654,1.12Zm.56,11.534a.561.561,0,0,1-.56.56H1.68a.561.561,0,0,1-.56-.56V5.263H13.214Zm0-8.511H1.12V2.8a.561.561,0,0,1,.56-.56h.672v1.12h1.12V2.24h7.391v1.12h1.12V2.24h.672a.561.561,0,0,1,.56.56Z"/><g transform="translate(3 6.188)"><rect class="b" width="1" height="1" transform="translate(0 0.813)"/><rect class="b" width="1" height="1" transform="translate(0 2.813)"/><g transform="translate(0 4.812)"><g transform="translate(0 0)"><rect class="b" width="1" height="1" transform="translate(0 0)"/></g></g></g><g transform="translate(5 6.188)"><rect class="b" width="1" height="1" transform="translate(0 0.813)"/><rect class="b" width="1" height="1" transform="translate(0 2.813)"/><g transform="translate(0 4.812)"><g transform="translate(0 0)"><rect class="b" width="1" height="1" transform="translate(0 0)"/></g></g></g><g transform="translate(7 6.188)"><rect class="b" width="1" height="1" transform="translate(0 0.813)"/><rect class="b" width="1" height="1" transform="translate(0 2.813)"/><g transform="translate(0 4.812)"><g transform="translate(0 0)"><rect class="b" width="1" height="1" transform="translate(0 0)"/></g></g></g><g transform="translate(9 6.188)"><rect class="b" width="1" height="1" transform="translate(0 0.813)"/><rect class="b" width="1" height="1" transform="translate(0 2.813)"/><g transform="translate(0 4.812)"><g transform="translate(0 0)"><rect class="b" width="1" height="1" transform="translate(0 0)"/></g></g></g></g></svg>