<svg xmlns="http://www.w3.org/2000/svg" xmlns:xlink="http://www.w3.org/1999/xlink" width="58" height="58" viewBox="0 0 58 58"><defs><style>.a{fill:#fff;}.b{opacity:0.5;clip-path:url(#a);}</style><clipPath id="a"><rect class="a" width="58" height="58" transform="translate(283 743)"/></clipPath></defs><g class="b" transform="translate(-283 -743)"><g transform="translate(284.261 758.13)"><g transform="translate(4.623 16.181)"><path class="a" d="M8.779,19.5a5.779,5.779,0,1,0,5.779,5.779A5.787,5.787,0,0,0,8.779,19.5Zm0,9.246a3.467,3.467,0,1,1,3.467-3.467A3.472,3.472,0,0,1,8.779,28.746Z" transform="translate(-3 -19.5)"/></g><g transform="translate(39.297 16.181)"><path class="a" d="M31.279,19.5a5.779,5.779,0,1,0,5.779,5.779A5.787,5.787,0,0,0,31.279,19.5Zm0,9.246a3.467,3.467,0,1,1,3.467-3.467A3.472,3.472,0,0,1,31.279,28.746Z" transform="translate(-25.5 -19.5)"/></g><path class="a" d="M48.543,18.246H46.588a3.165,3.165,0,0,1-1.974-.693l-9.108-7.286A5.81,5.81,0,0,0,31.9,9H15.187a5.767,5.767,0,0,0-4.808,2.573L8.412,14.527a3.165,3.165,0,0,1-2.633,1.408A5.787,5.787,0,0,0,0,21.714v4.623a5.787,5.787,0,0,0,5.779,5.779,1.156,1.156,0,1,0,0-2.312,3.472,3.472,0,0,1-3.467-3.467V21.714a3.472,3.472,0,0,1,3.467-3.467,5.464,5.464,0,0,0,4.556-2.439L12.3,12.856a3.464,3.464,0,0,1,2.885-1.544H31.9a3.488,3.488,0,0,1,2.168.761l9.108,7.284a5.481,5.481,0,0,0,3.419,1.2h1.953c3.391,0,4.623,3.456,4.623,5.779A3.356,3.356,0,0,1,49.7,29.8a1.156,1.156,0,1,0,0,2.312,5.653,5.653,0,0,0,5.779-5.779C55.478,22.414,53.049,18.246,48.543,18.246Z" transform="translate(0 -9)"/><g transform="translate(13.87 20.804)"><path class="a" d="M35.583,22.5H10.156a1.156,1.156,0,1,0,0,2.312H35.583a1.156,1.156,0,1,0,0-2.312Z" transform="translate(-9 -22.5)"/></g><g transform="translate(25.427 4.623)"><path class="a" d="M29.214,16.623h-10.4V13.156a1.156,1.156,0,0,0-2.312,0v4.623a1.156,1.156,0,0,0,1.156,1.156H29.214a1.156,1.156,0,1,0,0-2.312Z" transform="translate(-16.5 -12)"/></g><g transform="translate(11.558 4.624)"><path class="a" d="M17.9,16.623H10.526L12,13.673A1.156,1.156,0,1,0,9.934,12.64L7.622,17.263a1.155,1.155,0,0,0,1.033,1.671H17.9a1.156,1.156,0,0,0,0-2.312Z" transform="translate(-7.5 -12)"/></g><g transform="translate(27.739 13.87)"><path class="a" d="M21.467,18H19.156a1.156,1.156,0,0,0,0,2.312h2.312a1.156,1.156,0,0,0,0-2.312Z" transform="translate(-18 -18)"/></g></g></g></svg>