<svg xmlns="http://www.w3.org/2000/svg" width="20.3" height="20.3" viewBox="0 0 20.3 20.3"><defs><style>.a{fill:#fff;stroke:#fff;stroke-width:0.3px;}</style></defs><g transform="translate(0.15 0.15)"><g transform="translate(9.225 4.64)"><path class="a" d="M240.507,125.905l-2.789-2.091v-4.26a.775.775,0,0,0-1.549,0V124.2a.773.773,0,0,0,.31.62l3.1,2.324a.775.775,0,0,0,.93-1.239Z" transform="translate(-236.169 -118.779)"/></g><path class="a" d="M10,0A10,10,0,1,0,20,10,10.011,10.011,0,0,0,10,0Zm0,18.451A8.451,8.451,0,1,1,18.451,10,8.461,8.461,0,0,1,10,18.451Z"/></g></svg>