<svg xmlns="http://www.w3.org/2000/svg" width="18.2" height="11.886" viewBox="0 0 18.2 11.886"><defs><style>.b{fill:#fff;stroke:#fff;stroke-width:0.2px;}</style></defs><g class="a" transform="translate(0.099 -55.147)"><g transform="translate(0 55.109)"><g transform="translate(0 0)"><path class="b" d="M17.991,63.285a16.8,16.8,0,0,0-.493-3.251A12.477,12.477,0,0,0,16.489,57.3c-1.569-2.758-3.273-2.332-5.313-1.794a14.6,14.6,0,0,1-2.063.4H8.888a14.6,14.6,0,0,1-2.063-.4c-2.04-.516-3.744-.964-5.313,1.816A11.429,11.429,0,0,0,.5,60.057,16.8,16.8,0,0,0,.01,63.308a6.109,6.109,0,0,0,.314,2.556A1.7,1.7,0,0,0,1.4,66.873a2.192,2.192,0,0,0,1.435-.157,10.538,10.538,0,0,0,2.87-2.04A4.95,4.95,0,0,1,9,63.667a4.95,4.95,0,0,1,3.3,1.009,10.538,10.538,0,0,0,2.87,2.04,2.345,2.345,0,0,0,1.435.157,1.675,1.675,0,0,0,1.076-1.031A6,6,0,0,0,17.991,63.285Zm-1.076,2.242a.889.889,0,0,1-.538.56,1.548,1.548,0,0,1-.919-.112,9.143,9.143,0,0,1-2.6-1.861A5.6,5.6,0,0,0,9,62.837,5.912,5.912,0,0,0,5.122,64.07a9.316,9.316,0,0,1-2.6,1.861,1.391,1.391,0,0,1-.919.112.889.889,0,0,1-.538-.56A5.3,5.3,0,0,1,.84,63.33a15.465,15.465,0,0,1,.471-3.094A10.7,10.7,0,0,1,2.252,57.7c1.233-2.22,2.668-1.861,4.372-1.412a13.151,13.151,0,0,0,2.2.426h.336a12.989,12.989,0,0,0,2.22-.426c1.7-.426,3.139-.807,4.372,1.412a10.338,10.338,0,0,1,.942,2.533,16.969,16.969,0,0,1,.471,3.094A5.188,5.188,0,0,1,16.915,65.527Z" transform="translate(0 -55.109)"/></g></g><g transform="translate(2.319 57.344)"><path class="b" d="M45.991,96.55a1.362,1.362,0,0,0-.807-.381,1.276,1.276,0,0,0-.359-.785l-.022-.022a1.27,1.27,0,0,0-.919-.381,1.324,1.324,0,0,0-.919.381,1.3,1.3,0,0,0-.381.807,1.336,1.336,0,0,0-.807.359l-.022.022a1.27,1.27,0,0,0-.381.919,1.324,1.324,0,0,0,.381.919,1.25,1.25,0,0,0,.83.381,1.2,1.2,0,0,0,.381.807,1.27,1.27,0,0,0,.919.381,1.324,1.324,0,0,0,.919-.381,1.362,1.362,0,0,0,.381-.807,1.2,1.2,0,0,0,.807-.381,1.27,1.27,0,0,0,.381-.919A1.324,1.324,0,0,0,45.991,96.55Zm-.56,1.256a.456.456,0,0,1-.336.135h-.314a.426.426,0,0,0-.426.426v.291a.471.471,0,1,1-.942,0v-.314a.426.426,0,0,0-.426-.426h-.314a.46.46,0,0,1-.336-.785l.022-.022A.536.536,0,0,1,42.673,97h.314a.426.426,0,0,0,.426-.426v-.314a.476.476,0,0,1,.807-.336l.022.022a.536.536,0,0,1,.112.314v.314a.426.426,0,0,0,.426.426h.314a.476.476,0,0,1,.336.807Z" transform="translate(-41.373 -94.981)"/></g><g transform="translate(12.117 57.456)"><g transform="translate(0 0)"><circle class="b" cx="0.785" cy="0.785" r="0.785"/></g></g><g transform="translate(12.117 60.64)"><g transform="translate(0 0)"><circle class="b" cx="0.785" cy="0.785" r="0.785"/></g></g><g transform="translate(10.525 59.048)"><circle class="b" cx="0.785" cy="0.785" r="0.785"/></g><g transform="translate(13.709 59.048)"><circle class="b" cx="0.785" cy="0.785" r="0.785"/></g></g></svg>