<svg xmlns="http://www.w3.org/2000/svg" width="28.19" height="28.992" viewBox="0 0 28.19 28.992"><defs><style>.a{fill:#ffd88f;}.b{fill:#ff7893;}.c{fill:#59a1a5;}.d{fill:#ff9e5e;}.e{fill:#3c6677;}.f{fill:#264f60;}.g{fill:#b5e8e0;}.h{fill:#97dbd1;}</style></defs><g transform="translate(-7.081 0)"><g transform="translate(7.081 0)"><g transform="translate(23.278 3.773)"><path class="a" d="M418.178,327.715H421.3a1.8,1.8,0,0,0,1.794-1.794v-5.259h-4.912Z" transform="translate(-418.178 -306.276)"/><path class="b" d="M418.178,243.5H421.3a1.8,1.8,0,0,0,1.794-1.795v-5.259h-4.912Z" transform="translate(-418.178 -226.831)"/><path class="c" d="M418.178,157.97H421.3a1.8,1.8,0,0,0,1.794-1.795v-5.338h-4.912Z" transform="translate(-418.178 -146.068)"/><path class="d" d="M418.178,73.679H421.3a1.8,1.8,0,0,0,1.795-1.794V68.419a1.8,1.8,0,0,0-1.795-1.794h-3.117Z" transform="translate(-418.178 -66.625)"/></g><path class="e" d="M74.691,28.992H58.623a3.242,3.242,0,0,1-3.242-3.242V3.242A3.242,3.242,0,0,1,58.623,0H74.691a3.242,3.242,0,0,1,3.242,3.242V25.75A3.242,3.242,0,0,1,74.691,28.992Z" transform="translate(-52.646 0)"/><path class="f" d="M357.513,0H355.18a3.242,3.242,0,0,1,3.242,3.242V25.75a3.242,3.242,0,0,1-3.242,3.242h2.333a3.242,3.242,0,0,0,3.242-3.242V3.242A3.242,3.242,0,0,0,357.513,0Z" transform="translate(-335.469 0)"/><g transform="translate(2.735)"><path class="c" d="M58.624,0a3.242,3.242,0,0,0-3.242,3.241V25.751a3.242,3.242,0,0,0,3.242,3.241h2.031V0Z" transform="translate(-55.382 0)"/></g><g transform="translate(0 3.641)"><path class="g" d="M11.367,66.71H8.284a1.2,1.2,0,1,1,0-2.406h3.083a1.2,1.2,0,1,1,0,2.406Z" transform="translate(-7.081 -64.304)"/><path class="g" d="M11.367,180.341H8.284a1.2,1.2,0,0,1,0-2.406h3.083a1.2,1.2,0,1,1,0,2.406Z" transform="translate(-7.081 -171.501)"/><path class="g" d="M11.367,293.974H8.284a1.2,1.2,0,0,1,0-2.406h3.083a1.2,1.2,0,0,1,0,2.406Z" transform="translate(-7.081 -278.698)"/><path class="g" d="M11.367,407.6H8.284a1.2,1.2,0,1,1,0-2.406h3.083a1.2,1.2,0,1,1,0,2.406Z" transform="translate(-7.081 -385.895)"/></g><g transform="translate(1.953 3.641)"><path class="h" d="M43.9,64.3H41.568a1.2,1.2,0,1,1,0,2.406H43.9a1.2,1.2,0,1,0,0-2.406Z" transform="translate(-41.568 -64.304)"/><path class="h" d="M43.9,177.935H41.568a1.2,1.2,0,1,1,0,2.406H43.9a1.2,1.2,0,0,0,0-2.406Z" transform="translate(-41.568 -171.501)"/><path class="h" d="M43.9,291.567H41.568a1.2,1.2,0,0,1,0,2.406H43.9a1.2,1.2,0,0,0,0-2.406Z" transform="translate(-41.568 -278.698)"/><path class="h" d="M43.9,405.2H41.568a1.2,1.2,0,1,1,0,2.406H43.9a1.2,1.2,0,1,0,0-2.406Z" transform="translate(-41.568 -385.895)"/></g></g><g transform="translate(18.042 5.3)"><path class="a" d="M201.1,105.324a.437.437,0,0,0,.437-.437,4.6,4.6,0,0,1,3.366-4.421.438.438,0,0,0,.07-.818,2.712,2.712,0,1,1,2.3,0,.438.438,0,0,0,.07.818,4.6,4.6,0,0,1,3.366,4.421.438.438,0,0,0,.875,0,5.478,5.478,0,0,0-3.154-4.95,3.587,3.587,0,1,0-4.616,0,5.478,5.478,0,0,0-3.154,4.95A.438.438,0,0,0,201.1,105.324Z" transform="translate(-200.66 -93.607)"/><path class="a" d="M211.148,351.826H201.1a.437.437,0,1,0,0,.875h10.049a.437.437,0,1,0,0-.875Z" transform="translate(-200.662 -337.204)"/><path class="a" d="M238.679,402.8h-6.533a.437.437,0,1,0,0,.875h6.533a.437.437,0,1,0,0-.875Z" transform="translate(-229.951 -385.288)"/></g></g></svg>