<svg xmlns="http://www.w3.org/2000/svg" width="53.667" height="39.429" viewBox="0 0 53.667 39.429"><defs><style>.a{fill:#fff;}</style></defs><g transform="translate(0 -102)"><path class="a" d="M279.843,197.841c0-4.281-5.6-5.188-7.809-1.051-.113-.058-.078-1.192-.078,10.352.909-.75,2-1.687,3.082-2.712,4.457-4.214,4.8-6.11,4.8-6.589Z" transform="translate(-243.334 -74.142)"/><path class="a" d="M163.18,197.839c0,.48.347,2.375,4.8,6.589,1.08,1.021,2.162,1.952,3.07,2.7,0-11.519.029-10.388-.064-10.341C168.772,192.641,163.175,193.571,163.18,197.839Z" transform="translate(-146.009 -74.141)"/><path class="a" d="M5.893,119.752H0V133.01H5.893v8.418H25.044v-4.41c-3.508-2.674-11.028-8.9-11.03-13.319,0-5.986,6.493-8.721,11.03-5.573V102H5.893Zm-2.736,10.1v-6.945H5.893v6.945Z"/><path class="a" d="M297.044,119.752h-5.893V102H272v16.135c4.571-3.184,11.047-.39,11.044,5.564,0,4.418-7.525,10.648-11.044,13.329v4.4h19.152V133.01h5.893Zm-3.157,10.1h-2.736v-6.945h2.736Z" transform="translate(-243.378)"/></g></svg>