<svg xmlns="http://www.w3.org/2000/svg" width="18" height="23.57" viewBox="0 0 18 23.57"><defs><style>.a{fill:#fff;}</style></defs><g transform="translate(-60.5)"><path class="a" d="M74.713,0H60.5V23.57h18V3.813Zm-.057,1.9,1.86,1.873h-1.86ZM61.881,22.189V1.381H73.275V5.156h3.844V22.189Z"/><path class="a" d="M192,342h8.655v1.381H192Z" transform="translate(-125.446 -326.256)"/><path class="a" d="M132,342h1.381v1.381H132Z" transform="translate(-68.208 -326.256)"/><path class="a" d="M192,402h8.655v1.381H192Z" transform="translate(-125.446 -383.494)"/><path class="a" d="M132,402h1.381v1.381H132Z" transform="translate(-68.208 -383.494)"/><path class="a" d="M149.772,136.486h-.691c-2.384-.066-4.69-2.324-4.884-2.486H139v6.583h10.772Zm-1.381,2.716h-8.01v-3.821h3.284a10.454,10.454,0,0,0,4.727,2.435Z" transform="translate(-74.886 -127.831)"/></g></svg>