<svg xmlns="http://www.w3.org/2000/svg" width="46.465" height="46.465" viewBox="0 0 46.465 46.465"><defs><style>.a{fill:#fff;}</style></defs><g transform="translate(0)"><path class="a" d="M46.207,42.037a7.66,7.66,0,0,0-7.048-4.648H35.393V35.132a14.91,14.91,0,0,0-9.506-13.9,12.142,12.142,0,0,1-7.7-10.081l-.165-1.568L19.061,6.67A4.991,4.991,0,0,0,14.361,0H9.895A5.009,5.009,0,0,0,6.777,1.094L3.606,3.63H1.361A1.361,1.361,0,0,0,0,4.991v5.445a3.188,3.188,0,0,0,3.182,3.176,2.273,2.273,0,0,1,2.253,2.053l-.327.885A14.294,14.294,0,0,0,6.353,28.984V39.438A4.091,4.091,0,0,0,3.63,43.288V45.1a1.361,1.361,0,0,0,1.361,1.361h38.3a3.176,3.176,0,0,0,2.919-4.427ZM6.353,43.288a1.363,1.363,0,0,1,1.361-1.361,1.361,1.361,0,0,0,1.361-1.361V28.587a1.362,1.362,0,0,0-.225-.75A11.56,11.56,0,0,1,7.661,17.5l.422-1.141a1.359,1.359,0,0,0,.085-.472A5,5,0,0,0,3.188,10.89a.461.461,0,0,1-.466-.454V6.353H4.084a1.361,1.361,0,0,0,.85-.3L8.478,3.22a2.276,2.276,0,0,1,1.417-.5H14.36A2.269,2.269,0,0,1,16.5,5.754l-1.2,3.374a.454.454,0,0,1-.848.018L13.286,6.294a1.361,1.361,0,0,0-2.522,1.025l1.159,2.852a3.153,3.153,0,0,0,3.011,1.98,3.239,3.239,0,0,0,.626-.077,14.9,14.9,0,0,0,9.342,11.7,12.111,12.111,0,0,1,7.77,11.358v6.341A2.271,2.271,0,0,1,30.4,43.742H19.058V42.381a1.363,1.363,0,0,1,1.361-1.361h2.723A1.361,1.361,0,0,0,24.5,39.658a4.088,4.088,0,0,1,4.084-4.084,1.361,1.361,0,1,0,0-2.723A6.818,6.818,0,0,0,21.917,38.3h-1.5a4.088,4.088,0,0,0-4.084,4.084v1.361H14.52V24.957a1.361,1.361,0,1,0-2.723,0V43.742H6.353Zm37.314.25a.442.442,0,0,1-.379.2H34.846a4.958,4.958,0,0,0,.548-2.269V40.112h3.765a4.94,4.94,0,0,1,4.546,3A.442.442,0,0,1,43.666,43.538Z" transform="translate(0 0)"/></g></svg>