<svg xmlns="http://www.w3.org/2000/svg" xmlns:xlink="http://www.w3.org/1999/xlink" width="101.349" height="92.9" viewBox="0 0 101.349 92.9"><defs><style>.a{fill:url(#a);}</style><linearGradient id="a" x1="0.5" x2="0.5" y2="1" gradientUnits="objectBoundingBox"><stop offset="0" stop-color="#10a5f7"/><stop offset="1" stop-color="#31deb1"/></linearGradient></defs><path class="a" d="M46.45,92.908A46.45,46.45,0,1,1,71.508,7.351a3.169,3.169,0,0,1-3.425,5.334A40.11,40.11,0,1,0,86.566,46.458c0-1.322-.063-2.631-.186-3.919a3.167,3.167,0,0,1,6.3-.612q.215,2.236.215,4.531a46.5,46.5,0,0,1-46.45,46.45Zm0,0" transform="translate(0 -0.008)"/><path class="a" d="M171.508,74.131a3.144,3.144,0,0,1-2.238-.929l-19-19a3.168,3.168,0,1,1,4.48-4.481l16.765,16.765L215.72,22.276a3.168,3.168,0,1,1,4.481,4.48l-46.45,46.45a3.173,3.173,0,0,1-2.242.925Zm0,0" transform="translate(-119.779 -17.124)"/></svg>