<svg xmlns="http://www.w3.org/2000/svg" xmlns:xlink="http://www.w3.org/1999/xlink" width="50" height="49" viewBox="0 0 50 49"><defs><style>.a,.c{fill:#fff;stroke:#fff;}.b{opacity:0.5;clip-path:url(#a);}.c{stroke-width:1.5px;}</style><clipPath id="a"><rect class="a" width="50" height="49" transform="translate(170 871.5)"/></clipPath></defs><g class="b" transform="translate(-170 -871.5)"><g transform="translate(174.122 875.124)"><path class="c" d="M27.673,38.628a.861.861,0,0,1-.514-.17C26.725,38.133,16.5,30.43,16.5,24.24a6.243,6.243,0,0,1,11.173-3.826A6.243,6.243,0,0,1,38.847,24.24c0,6.19-10.225,13.893-10.659,14.218A.861.861,0,0,1,27.673,38.628ZM22.74,19.719a4.526,4.526,0,0,0-4.521,4.521c0,4.177,6.4,10.054,9.454,12.445,3.053-2.393,9.454-8.273,9.454-12.445a4.522,4.522,0,0,0-8.665-1.808.9.9,0,0,1-1.576,0,4.515,4.515,0,0,0-4.146-2.713Z" transform="translate(2.409 2.623)"/><path class="c" d="M14.023,26.506a.848.848,0,0,1-.351-.076A11.709,11.709,0,0,0,7.4,25.47a2.627,2.627,0,0,1-2.046-.641,2.541,2.541,0,0,1-.853-1.9V2.733A2.607,2.607,0,0,1,6.735.163,14.4,14.4,0,0,1,18.252,3.57,14.384,14.384,0,0,1,29.774.164,2.6,2.6,0,0,1,32,2.733v13.6a.859.859,0,0,1-1.719,0V2.733a.882.882,0,0,0-.756-.868c-3.868-.576-7.374.564-10.711,3.476a.86.86,0,0,1-1.129,0C14.35,2.427,10.848,1.289,6.98,1.863a.883.883,0,0,0-.762.87v20.2a.808.808,0,0,0,.275.614.9.9,0,0,0,.708.217,13.57,13.57,0,0,1,7.173,1.1.859.859,0,0,1-.352,1.643Z" transform="translate(0.657 -0.004)"/><path class="c" d="M33.016,16.752a.86.86,0,0,1-.859-.859V5.578a.86.86,0,0,0-.859-.859H27.859a.859.859,0,1,1,0-1.719H31.3a2.582,2.582,0,0,1,2.578,2.578V15.892A.86.86,0,0,1,33.016,16.752Z" transform="translate(3.942 0.433)"/><path class="c" d="M14.611,28.785H2.578A2.582,2.582,0,0,1,0,26.206V5.578A2.608,2.608,0,0,1,2.563,3H6.016a.859.859,0,0,1,0,1.719H2.578a.877.877,0,0,0-.859.859V26.206a.86.86,0,0,0,.859.859H14.611a.859.859,0,0,1,0,1.719Z" transform="translate(0 0.433)"/><path class="c" d="M16.609,18.471a.86.86,0,0,1-.859-.859V3.859a.859.859,0,1,1,1.719,0V17.611A.86.86,0,0,1,16.609,18.471Z" transform="translate(2.299 0.433)"/></g></g></svg>