<svg xmlns="http://www.w3.org/2000/svg" xmlns:xlink="http://www.w3.org/1999/xlink" width="48" height="48" viewBox="0 0 48 48"><defs><style>.a{fill:#fff;}.b{opacity:0.5;clip-path:url(#a);}</style><clipPath id="a"><rect class="a" width="48" height="48" transform="translate(0 0)"/></clipPath></defs><g class="b" transform="translate(0 0)"><g transform="translate(1.795 1.778)"><g transform="translate(1.801 16.656)"><path class="a" d="M43.155,13.492H2.4a.927.927,0,0,0-.926.926v22.23A4.637,4.637,0,0,0,6.1,41.279H39.449a4.637,4.637,0,0,0,4.631-4.631V14.418A.926.926,0,0,0,43.155,13.492Zm-.926,23.156a2.782,2.782,0,0,1-2.779,2.779H6.1a2.782,2.782,0,0,1-2.779-2.779v-21.3h38.9Z" transform="translate(-1.473 -13.492)"/></g><g transform="translate(0 0)"><path class="a" d="M44.394,8.085,42.817,2.1A2.8,2.8,0,0,0,39.5.069L2.174,8.924A2.776,2.776,0,0,0,.1,12.308l1.745,6.9a.923.923,0,0,0,.9.7.914.914,0,0,0,.23-.028.924.924,0,0,0,.669-1.124l-.1-.4L43.7,9.226a.929.929,0,0,0,.691-1.141ZM3.084,16.554l-1.189-4.7a.928.928,0,0,1,.7-1.132L39.916,1.873a.835.835,0,0,1,.2-.024.937.937,0,0,1,.9.713l1.336,5.067Z" transform="translate(-0.014 0)"/></g><g transform="translate(5.505 16.657)"><path class="a" d="M9.52,13.588A.934.934,0,0,0,8.276,14L4.57,21.413a.928.928,0,0,0,1.66.828l3.705-7.41A.928.928,0,0,0,9.52,13.588Z" transform="translate(-4.473 -13.492)"/></g><g transform="translate(14.768 16.657)"><path class="a" d="M17.021,13.588A.931.931,0,0,0,15.778,14l-3.705,7.41a.927.927,0,1,0,1.658.828l3.705-7.41A.928.928,0,0,0,17.021,13.588Z" transform="translate(-11.976 -13.492)"/></g><g transform="translate(24.031 16.657)"><path class="a" d="M24.524,13.588A.932.932,0,0,0,23.281,14l-3.705,7.41a.927.927,0,1,0,1.658.828l3.705-7.41A.928.928,0,0,0,24.524,13.588Z" transform="translate(-19.479 -13.492)"/></g><g transform="translate(33.293 16.657)"><path class="a" d="M32.027,13.588A.931.931,0,0,0,30.784,14l-3.705,7.41a.927.927,0,1,0,1.658.828l3.705-7.41A.928.928,0,0,0,32.027,13.588Z" transform="translate(-26.981 -13.492)"/></g><g transform="translate(1.801 24.066)"><path class="a" d="M43.155,19.494H2.4a.926.926,0,0,0,0,1.853H43.155a.926.926,0,0,0,0-1.853Z" transform="translate(-1.473 -19.494)"/></g><g transform="translate(3.724 8.388)"><path class="a" d="M10.991,13.445l-6.38-6.38A.926.926,0,0,0,3.3,8.375l6.38,6.382a.931.931,0,0,0,.656.27.917.917,0,0,0,.654-.272A.927.927,0,0,0,10.991,13.445Z" transform="translate(-3.03 -6.794)"/></g><g transform="translate(12.781 6.33)"><path class="a" d="M18.333,11.778,11.947,5.4a.926.926,0,1,0-1.31,1.31l6.384,6.38a.927.927,0,1,0,1.311-1.31Z" transform="translate(-10.366 -5.127)"/></g><g transform="translate(21.847 4.27)"><path class="a" d="M25.665,10.111,19.291,3.729a.926.926,0,0,0-1.31,1.31l6.375,6.382a.931.931,0,0,0,.656.27.915.915,0,0,0,.654-.27A.927.927,0,0,0,25.665,10.111Z" transform="translate(-17.71 -3.459)"/></g><g transform="translate(30.897 2.213)"><path class="a" d="M33,8.446,26.621,2.064a.926.926,0,1,0-1.31,1.31l6.376,6.382A.926.926,0,0,0,33,8.446Z" transform="translate(-25.04 -1.793)"/></g></g></g></svg>