<svg xmlns="http://www.w3.org/2000/svg" width="36" height="36" viewBox="0 0 36 36"><defs><style>.a,.d{fill:none;}.a{stroke:#fff;}.b{fill:#fafafa;stroke:#22343c;stroke-width:2px;}.c{stroke:none;}</style></defs><g transform="translate(-889 -488)"><g class="a" transform="translate(889 488)"><rect class="c" width="36" height="36" rx="5"/><rect class="d" x="0.5" y="0.5" width="35" height="35" rx="4.5"/></g><g transform="translate(901 495)"><path class="b" d="M22.918,0l-2.85,0C16.866,0,14.8,2.123,14.8,5.408V7.9H11.932a.448.448,0,0,0-.448.448v3.613a.448.448,0,0,0,.448.448H14.8v9.117a.448.448,0,0,0,.448.448h3.738a.448.448,0,0,0,.448-.448V12.411h3.35a.448.448,0,0,0,.448-.448V8.35a.448.448,0,0,0-.448-.448H19.432V5.788c0-1.016.242-1.532,1.566-1.532h1.92a.448.448,0,0,0,.448-.448V.453A.448.448,0,0,0,22.918,0Z" transform="translate(-11.484)"/></g></g></svg>