<svg xmlns="http://www.w3.org/2000/svg" width="30.152" height="29.505" viewBox="0 0 30.152 29.505"><defs><style>.a{fill:#4fabf7;}.b{fill:#e9efff;}.c{fill:#bec8f7;}.d{fill:#3c58a0;}.e{fill:#2a428c;}</style></defs><g transform="translate(0 -5.499)"><path class="a" d="M103.978,5.5a14.361,14.361,0,0,0-7.994,2.416l-.83,23.427h0A14.428,14.428,0,1,0,103.978,5.5Z" transform="translate(-89.549 0)"/><path class="b" d="M72.578,63.244v-13.6a3.132,3.132,0,0,0-3.122-3.122H48.86a14.508,14.508,0,0,0-3.78,3.67v.018H65.767a3.132,3.132,0,0,1,3.122,3.122V66.366h.566A3.132,3.132,0,0,0,72.578,63.244Z" transform="translate(-42.425 -38.608)"/><path class="c" d="M53.938,46.523H48.86a14.509,14.509,0,0,0-3.78,3.67v.018h8.854c.023-.067.039-.1.039-.1A2.368,2.368,0,0,1,53.938,46.523Z" transform="translate(-42.425 -38.608)"/><path class="d" d="M23.446,107.379H2.718A14.428,14.428,0,0,0,5.6,127.222h6.463l1.438-.582,1.438.582h1.393a2.019,2.019,0,0,1,1.6.8,7.048,7.048,0,0,0,5.511,2.862,1.021,1.021,0,0,0,.552-1.781,7.4,7.4,0,0,1-.963-1.029.527.527,0,0,1,.414-.851,3.132,3.132,0,0,0,3.122-3.122V110.5a3.132,3.132,0,0,0-3.122-3.122Z" transform="translate(0 -95.88)"/><path class="e" d="M11.548,107.379H2.718A14.428,14.428,0,0,0,5.6,127.222h6.463l1.438-.582V111.209c-3.264-.708-1.958-3.83-1.958-3.83Z" transform="translate(0 -95.88)"/><path class="b" d="M159.893,155.627h-1.76a4.113,4.113,0,0,0-4.113,4.113v2.775a.188.188,0,0,1-.188.188h-2.809a.188.188,0,0,0-.188.188v2.5a.188.188,0,0,0,.188.188h2.809a.188.188,0,0,1,.188.188v6.862H156.9v-6.862a.188.188,0,0,1,.188-.188h2.809a.188.188,0,0,0,.188-.188v-2.5a.188.188,0,0,0-.188-.188h-2.809a.188.188,0,0,1-.188-.188V159.74a1.237,1.237,0,0,1,1.237-1.237h1.76a.188.188,0,0,0,.188-.188v-2.5A.188.188,0,0,0,159.893,155.627Z" transform="translate(-141.952 -141.287)"/><path class="c" d="M156.895,162.514v-2.775a1.237,1.237,0,0,1,1.237-1.237h1.76a.188.188,0,0,0,.188-.188v-2.5a.188.188,0,0,0-.188-.188h-1.76a4.113,4.113,0,0,0-4.113,4.113v2.775a.188.188,0,0,1-.188.188h-2.809a.188.188,0,0,0-.188.188v2.5a.188.188,0,0,0,.188.188h2.809a.188.188,0,0,1,.188.188v6.862h2.876v-6.862a.188.188,0,0,1,.188-.188,2,2,0,0,1,0-2.876A.188.188,0,0,1,156.895,162.514Z" transform="translate(-141.951 -141.286)"/></g></svg>