<svg xmlns="http://www.w3.org/2000/svg" xmlns:xlink="http://www.w3.org/1999/xlink" width="47" height="47" viewBox="0 0 47 47"><defs><style>.a{fill:#fff;}.b{opacity:0.5;clip-path:url(#a);}</style><clipPath id="a"><rect class="a" width="47" height="47" transform="translate(57 487.465)"/></clipPath></defs><g class="b" transform="translate(-57 -487.465)"><g transform="translate(58.978 488.978)"><path class="a" d="M42.15,19.035H38.016C37.451,8.425,30.386,0,21.755,0S6.059,8.425,5.493,19.035H1.36A1.36,1.36,0,0,0,0,20.4C0,28.722,5.422,36.2,13.6,39.3V42.15a1.36,1.36,0,0,0,1.36,1.36h13.6a1.36,1.36,0,0,0,1.36-1.36V39.3c8.174-3.1,13.6-10.584,13.6-18.908A1.36,1.36,0,0,0,42.15,19.035ZM21.755,2.719c7.144,0,13.007,7.2,13.545,16.316H8.21C8.748,9.923,14.611,2.719,21.755,2.719Zm6.371,34.332a1.361,1.361,0,0,0-.933,1.292V40.79H16.316V38.343a1.362,1.362,0,0,0-.935-1.292,17.967,17.967,0,0,1-12.6-15.3H40.733A17.97,17.97,0,0,1,28.126,37.051Z"/><g transform="translate(12.175 6.001)"><path class="a" d="M18.182,5.792A1.358,1.358,0,0,0,16.4,5.075a12.274,12.274,0,0,0-6.225,6.913,1.356,1.356,0,0,0,.742,1.773,1.382,1.382,0,0,0,.514.1,1.361,1.361,0,0,0,1.259-.846,9.755,9.755,0,0,1,4.77-5.441A1.356,1.356,0,0,0,18.182,5.792Z" transform="translate(-10.074 -4.966)"/></g></g></g></svg>