<svg xmlns="http://www.w3.org/2000/svg" xmlns:xlink="http://www.w3.org/1999/xlink" width="19" height="22.08" viewBox="0 0 19 22.08"><defs><style>.a,.c{fill:#fff;}.a{stroke:#fff;stroke-width:0.5px;}.b{clip-path:url(#a);}</style><clipPath id="a"><rect class="a" width="15" height="16" transform="translate(0.48 -0.42)"/></clipPath></defs><g transform="translate(-24 -456.58)"><g class="b" transform="translate(25.52 457)"><g transform="translate(2.707 0.95)"><path class="a" d="M9.227,16.662H1.318A1.32,1.32,0,0,1,0,15.344V9.193A1.32,1.32,0,0,1,1.318,7.875H9.227a1.32,1.32,0,0,1,1.318,1.318v6.151A1.32,1.32,0,0,1,9.227,16.662ZM1.318,8.754a.44.44,0,0,0-.439.439v6.151a.44.44,0,0,0,.439.439H9.227a.44.44,0,0,0,.439-.439V9.193a.44.44,0,0,0-.439-.439Zm0,0" transform="translate(0 -2.603)"/><path class="a" d="M9.216,6.151a.44.44,0,0,1-.439-.439v-2.2a2.636,2.636,0,1,0-5.272,0v2.2a.439.439,0,0,1-.879,0v-2.2a3.515,3.515,0,1,1,7.03,0v2.2A.44.44,0,0,1,9.216,6.151Zm0,0" transform="translate(-0.868 0)"/></g></g><g transform="translate(24 471.308)"><g transform="translate(0 0)"><circle class="c" cx="0.76" cy="0.76" r="0.76" transform="translate(7.22 3.172)"/><circle class="c" cx="0.76" cy="0.76" r="0.76" transform="translate(4.18 3.172)"/><path class="c" d="M16.773,313.909a.742.742,0,1,0-.37,1.438,1.483,1.483,0,0,1,1.113,1.438v1.484a1.486,1.486,0,0,1-1.484,1.484H2.969a1.486,1.486,0,0,1-1.484-1.484v-1.484a1.492,1.492,0,0,1,1.063-1.424.742.742,0,0,0-.42-1.424A2.991,2.991,0,0,0,.6,314.99a2.943,2.943,0,0,0-.6,1.794v1.484a2.972,2.972,0,0,0,2.969,2.969H16.031A2.972,2.972,0,0,0,19,318.268v-1.484A2.967,2.967,0,0,0,16.773,313.909Z" transform="translate(0 -313.885)"/><circle class="c" cx="0.76" cy="0.76" r="0.76" transform="translate(10.26 3.172)"/><circle class="c" cx="0.76" cy="0.76" r="0.76" transform="translate(13.3 3.172)"/></g></g></g></svg>