<svg xmlns="http://www.w3.org/2000/svg" width="20.305" height="20.306" viewBox="0 0 20.305 20.306"><defs><style>.a{fill:#fff;}</style></defs><g transform="translate(-0.016 0.002)"><g transform="translate(0.016 -0.002)"><path class="a" d="M18.445,4.291a.17.17,0,0,0,0-.02c-.025-.036-.057-.067-.083-.1q-.284-.387-.6-.746c-.058-.065-.116-.13-.176-.194q-.327-.35-.686-.668c-.044-.039-.086-.08-.13-.118a10.167,10.167,0,0,0-1.925-1.3c-.028-.014-.057-.027-.085-.041a10.089,10.089,0,0,0-.943-.42C13.74.655,13.674.63,13.605.608q-.429-.154-.871-.271c-.087-.023-.174-.047-.263-.067C12.182.2,11.892.151,11.6.109c-.09-.013-.178-.03-.269-.041a9.537,9.537,0,0,0-2.3,0C8.934.079,8.846.1,8.756.109c-.3.042-.59.094-.877.161C7.79.291,7.7.315,7.616.338q-.445.116-.871.271L6.538.681A10.082,10.082,0,0,0,5.6,1.1c-.028.014-.057.027-.085.041a10.17,10.17,0,0,0-1.932,1.3c-.044.038-.086.079-.13.118a9.435,9.435,0,0,0-.686.668c-.059.064-.118.128-.176.194q-.318.358-.6.746c-.026.036-.057.067-.083.1a.165.165,0,0,0-.009.02,10.09,10.09,0,0,0,0,11.722.158.158,0,0,0,.009.02c.025.036.057.067.083.1q.284.387.6.746c.058.065.116.13.176.194q.328.35.686.668c.044.039.086.08.13.118a10.167,10.167,0,0,0,1.925,1.3c.028.014.057.027.085.041a10.088,10.088,0,0,0,.943.42c.073.026.139.051.207.073q.429.154.871.271c.087.023.174.047.263.067.29.067.58.119.877.161.09.013.178.03.269.041a9.537,9.537,0,0,0,2.3,0c.091-.011.179-.028.269-.041.3-.042.59-.094.877-.161.088-.02.176-.044.263-.067q.445-.116.871-.271l.207-.073a10.083,10.083,0,0,0,.943-.42c.028-.014.057-.027.085-.041a10.169,10.169,0,0,0,1.925-1.3c.044-.038.086-.079.13-.118a9.236,9.236,0,0,0,.686-.668c.059-.064.118-.128.176-.194q.318-.358.6-.746c.026-.036.057-.067.083-.1a.164.164,0,0,0,.009-.02A10.09,10.09,0,0,0,18.445,4.291Zm-.828,1.373a8.632,8.632,0,0,1,1.224,3.763H14.5a13.537,13.537,0,0,0-.406-2.56A13.036,13.036,0,0,0,17.617,5.663Zm-5.6-4.017c.041.009.08.022.12.032a7.807,7.807,0,0,1,.769.218c.038.013.076.028.114.042q.374.131.736.29l.126.061q.346.165.676.356l.145.088q.313.192.609.41c.051.037.1.073.152.113a6.619,6.619,0,0,1,.556.466c.046.042.094.083.14.127.186.176.363.363.534.556.022.025.045.049.067.073a12.168,12.168,0,0,1-3.094.994A18.446,18.446,0,0,0,11.715,1.6C11.816,1.615,11.919,1.625,12.018,1.647ZM7.3,9.426A12.1,12.1,0,0,1,7.7,7.1a20.787,20.787,0,0,0,2.477.145A20.835,20.835,0,0,0,12.651,7.1a12.082,12.082,0,0,1,.4,2.325Zm5.751,1.451a12.1,12.1,0,0,1-.4,2.321,21.232,21.232,0,0,0-4.955,0,12.085,12.085,0,0,1-.4-2.321ZM10.173,1.919a17.521,17.521,0,0,1,2.022,3.772,19.2,19.2,0,0,1-2.022.107,19.346,19.346,0,0,1-2.02-.108A17.659,17.659,0,0,1,10.173,1.919ZM3.651,4.4c.17-.193.348-.379.534-.556.046-.044.094-.085.14-.127q.268-.244.556-.466c.05-.038.1-.073.152-.113q.3-.218.609-.41l.145-.088q.33-.193.676-.356l.126-.061q.361-.163.736-.29c.038-.014.073-.029.114-.042.252-.084.508-.154.769-.218.041-.009.08-.022.121-.031.1-.022.2-.032.3-.05A18.447,18.447,0,0,0,6.678,5.472a12.168,12.168,0,0,1-3.094-.994C3.606,4.453,3.629,4.43,3.651,4.4ZM2.728,5.663a13.034,13.034,0,0,0,3.527,1.2,13.537,13.537,0,0,0-.406,2.56H1.5A8.633,8.633,0,0,1,2.728,5.663Zm0,8.977A8.632,8.632,0,0,1,1.5,10.877H5.85a13.537,13.537,0,0,0,.406,2.56A13.033,13.033,0,0,0,2.728,14.64Zm5.6,4.017c-.041-.009-.08-.022-.12-.032a7.806,7.806,0,0,1-.769-.218c-.038-.013-.076-.028-.114-.042q-.374-.131-.736-.29l-.126-.061q-.346-.165-.676-.356l-.145-.088q-.313-.192-.609-.41c-.051-.037-.1-.073-.152-.113a6.619,6.619,0,0,1-.556-.466c-.046-.042-.094-.083-.14-.127-.186-.176-.363-.363-.534-.556-.022-.025-.045-.049-.067-.073a12.168,12.168,0,0,1,3.094-.994A18.446,18.446,0,0,0,8.63,18.707C8.529,18.689,8.427,18.678,8.327,18.657Zm1.845-.273a17.521,17.521,0,0,1-2.022-3.772,18.885,18.885,0,0,1,4.042,0h0A17.655,17.655,0,0,1,10.173,18.384ZM16.694,15.9c-.17.193-.348.379-.534.556-.046.044-.094.085-.14.127q-.268.245-.556.466c-.05.038-.1.076-.152.113q-.3.218-.609.41l-.145.088q-.329.192-.676.356l-.126.061q-.361.163-.736.29c-.038.014-.073.029-.114.042-.252.084-.508.154-.769.218-.041.009-.08.022-.121.031-.1.022-.2.032-.3.05a18.444,18.444,0,0,0,1.953-3.875,12.168,12.168,0,0,1,3.094.994C16.739,15.85,16.716,15.873,16.694,15.9Zm.923-1.259a13.034,13.034,0,0,0-3.527-1.2,13.537,13.537,0,0,0,.406-2.56h4.345A8.633,8.633,0,0,1,17.617,14.64Z" transform="translate(-0.016 0.002)"/></g></g></svg>