<svg xmlns="http://www.w3.org/2000/svg" width="75.307" height="94.47" viewBox="0 0 75.307 94.47"><defs><style>.a{fill:#68c1d2;stroke:#68c1d2;stroke-width:3px;}</style></defs><path class="a" d="M381.024,1117.47a.525.525,0,0,0-.1-.134c-1.057-.684-1.4-1.413-1.108-2.36.267-.865.984-1.3,2.189-1.306q5.037-.006,10.074,0h2.858v-1.208q0-41.983-.015-83.966a2.377,2.377,0,0,1,1.441-2.5h54.2a2.376,2.376,0,0,1,1.446,2.5c-.035,6.49-.018,12.98-.02,19.471v1.057l-3.791,0s0-2.573,0-3.821c0-4.823-.018-9.646.01-14.469,0-.732-.188-.961-.939-.959-8.706.024-17.412.009-26.118.035a1.8,1.8,0,0,0-1.15.475q-10.428,10.393-20.8,20.841a1.806,1.806,0,0,0-.461,1.157q-.03,30.233-.011,60.467c0,.261.029.523.052.916h1.076q5.794,0,11.589,0c1.446,0,2.129.386,2.409,1.351.288.993-.071,1.684-1.271,2.445Zm17.752-87.628v15.89l15.86-15.89Z" transform="translate(-378.201 -1024.5)"/></svg>