<svg xmlns="http://www.w3.org/2000/svg" width="20" height="18.182" viewBox="0 0 20 18.182"><defs><style>.a{fill:#fff;}</style></defs><path class="a" d="M19.091,4.712H16.329l.912-3.4A.909.909,0,1,0,15.484.84L14.447,4.712H7.991l.912-3.4A.909.909,0,1,0,7.147.84L6.109,4.712H2.727a.909.909,0,0,0,0,1.818H5.621L4.158,11.985H.909a.909.909,0,0,0,0,1.818H3.671l-.912,3.4a.908.908,0,1,0,1.755.471L5.552,13.8h6.456L11.1,17.2a.909.909,0,1,0,1.755.471L13.891,13.8h3.382a.909.909,0,1,0,0-1.818H14.379L15.842,6.53h3.249a.909.909,0,0,0,0-1.818ZM12.5,11.985H6.04L7.5,6.53h6.456Zm0,0" transform="translate(0 -0.166)"/></svg>