<svg xmlns="http://www.w3.org/2000/svg" width="18.712" height="18.712" viewBox="0 0 18.712 18.712"><defs><style>.a{fill:#fff;}</style></defs><path class="a" d="M222.635,343.22a.981.981,0,0,0,0,1.962.981.981,0,1,0,0-1.962Z" transform="translate(-213.566 -330.676)"/><path class="a" d="M186.532,140c-1.72,0-2.51,1.019-2.51,1.707a.731.731,0,0,0,.764.726c.688,0,.408-.981,1.707-.981.637,0,1.147.28,1.147.866,0,.688-.713,1.083-1.134,1.44a2.332,2.332,0,0,0-.854,1.936c0,.662.178.854.7.854.624,0,.752-.28.752-.522a1.6,1.6,0,0,1,.713-1.592,3.261,3.261,0,0,0,1.427-2.331C189.245,140.907,188.162,140,186.532,140Z" transform="translate(-177.296 -134.885)"/><path class="a" d="M9.356,0A9.351,9.351,0,0,0,0,9.356v8.625a.731.731,0,0,0,.731.731H9.356A9.356,9.356,0,0,0,9.356,0Zm0,17.25H1.462V9.356A7.894,7.894,0,1,1,9.356,17.25Z"/></svg>