<svg xmlns="http://www.w3.org/2000/svg" xmlns:xlink="http://www.w3.org/1999/xlink" width="41" height="41" viewBox="0 0 41 41"><defs><style>.a{fill:#fff;}.b{opacity:0.5;clip-path:url(#a);}</style><clipPath id="a"><rect class="a" width="41" height="41" transform="translate(170 487)"/></clipPath></defs><g class="b" transform="translate(-170 -487)"><g transform="translate(172.563 487)"><path class="a" d="M34.594,40.583H4.7a4.7,4.7,0,0,1-4.7-4.7V4.281a1.281,1.281,0,1,1,2.562,0v31.6A2.139,2.139,0,0,0,4.7,38.021H33.312V7.7a1.281,1.281,0,1,1,2.562,0V39.3A1.282,1.282,0,0,1,34.594,40.583Zm0,0" transform="translate(0 0.417)"/><path class="a" d="M34.594,9.4H4.7A4.7,4.7,0,1,1,4.7,0H31.177a1.282,1.282,0,0,1,1.281,1.281V6.833h2.136a1.281,1.281,0,0,1,0,2.563ZM4.7,2.563a2.135,2.135,0,1,0,0,4.271H29.9V2.563Zm0,0" transform="translate(0 0)"/><path class="a" d="M17.1,33.458a11.1,11.1,0,1,1,11.1-11.1A11.117,11.117,0,0,1,17.1,33.458Zm0-19.646a8.542,8.542,0,1,0,8.542,8.542A8.551,8.551,0,0,0,17.1,13.812Zm0,0" transform="translate(0.833 1.563)"/><path class="a" d="M18.9,26a1.272,1.272,0,0,1-.905-.376L15,22.635a1.279,1.279,0,0,1-.376-.905v-4.7a1.281,1.281,0,1,1,2.562,0V21.2L19.8,23.812A1.282,1.282,0,0,1,18.9,26Zm0,0" transform="translate(2.031 2.188)"/></g></g></svg>