<svg xmlns="http://www.w3.org/2000/svg" width="18.879" height="18.879" viewBox="0 0 18.879 18.879"><defs><style>.a{fill:#fff;stroke:#fff;stroke-width:0.5px;}</style></defs><g transform="translate(0.25 0.25)"><path class="a" d="M9.19,0a9.19,9.19,0,1,0,9.19,9.19A9.184,9.184,0,0,0,9.19,0Zm0,17.1A7.907,7.907,0,1,1,17.1,9.19,7.916,7.916,0,0,1,9.19,17.1Z"/><g transform="translate(8.548 8.17)"><g transform="translate(0 0)"><path class="a" d="M238.781,203.609a.641.641,0,0,0-.641.641v5.257a.641.641,0,0,0,1.282,0V204.25A.641.641,0,0,0,238.781,203.609Z" transform="translate(-238.14 -203.609)"/></g></g><g transform="translate(8.548 4.531)"><path class="a" d="M238.781,126.214a.641.641,0,0,0-.641.641v.769a.641.641,0,0,0,1.282,0v-.769A.641.641,0,0,0,238.781,126.214Z" transform="translate(-238.14 -126.214)"/></g></g></svg>