<svg xmlns="http://www.w3.org/2000/svg" width="17.419" height="17.448" viewBox="0 0 17.419 17.448"><defs><style>.b{fill:#fff;stroke:#22343c;stroke-width:0.1px;}</style></defs><g class="a" transform="translate(-371.585 -1025.95)"><path class="b" d="M372.012,1043.348a.648.648,0,0,1-.377-.682c.013-.943,0-1.886,0-2.829,0-.441.184-.622.629-.622h4.477c0-.17,0-.327,0-.483a.505.505,0,0,1,.531-.532c.49,0,.98,0,1.487,0,0-.052.01-.1.01-.149,0-1.056,0-2.112,0-3.167a.465.465,0,0,0-.061-.239,3.012,3.012,0,0,1-.452-1.915c.038-.539.006-1.083.008-1.626a2.032,2.032,0,0,1,1.7-2.024.611.611,0,0,0,.067-.019,3.768,3.768,0,0,1-.59-.283,1.443,1.443,0,0,1-.631-1.548,1.471,1.471,0,0,1,1.139-1.187l.145-.041h.406a3.808,3.808,0,0,1,.62.251,1.466,1.466,0,0,1,.665,1.564,1.481,1.481,0,0,1-1.168,1.2c-.021.006-.044.008-.106.02a1.051,1.051,0,0,0,.127.045,2.03,2.03,0,0,1,1.687,2.015c0,.819,0,1.638,0,2.456a.73.73,0,0,1-.092.369,2.941,2.941,0,0,0-.42,1.8c.038.755.009,1.513.009,2.27v.2h.376c.366,0,.733,0,1.1,0a.513.513,0,0,1,.553.563c0,.429,0,.858,0,1.287v.182h.2c1.409,0,2.818.007,4.227,0a.649.649,0,0,1,.681.378v2.372a.78.78,0,0,1-.372.373Zm5.756-1.028h5.051v-3.1h-5.051Zm3.036-4.131v-.2c0-.818.031-1.638-.009-2.454a3.108,3.108,0,0,1,.451-1.916.5.5,0,0,0,.063-.255q.007-1.126,0-2.252a1.015,1.015,0,1,0-2.028.005c0,.491.028.984-.007,1.472a2.756,2.756,0,0,0,.4,1.72.864.864,0,0,1,.105.433c.009,1.089.005,2.178.005,3.267,0,.055,0,.11,0,.173Zm-8.142,4.131h4.07v-2.08h-4.07Zm11.193,0h4.076v-1.062h-4.076Zm-3.561-15.3a.508.508,0,1,0,.509.5A.513.513,0,0,0,380.295,1027.017Z" transform="translate(0)"/><path class="b" d="M746.766,1402.123a.781.781,0,0,0,.372-.373v.373Z" transform="translate(-358.184 -358.775)"/><path class="b" d="M644.917,1120.172c.047-.277.1-.6.16-.932a.243.243,0,0,0-.077-.254c-.219-.2-.427-.418-.642-.625a.5.5,0,0,1-.161-.535.5.5,0,0,1,.441-.365c.278-.041.556-.085.835-.118a.31.31,0,0,0,.292-.2c.109-.259.247-.506.368-.76a.512.512,0,0,1,.95-.006c.133.273.264.548.407.816a.277.277,0,0,0,.169.128c.276.052.555.09.834.125a.55.55,0,0,1,.528.375.541.541,0,0,1-.2.586c-.2.194-.409.389-.6.594a.3.3,0,0,0-.073.217c.038.29.1.578.146.867a.519.519,0,0,1-.789.575c-.257-.139-.52-.269-.775-.411a.21.21,0,0,0-.231,0c-.281.154-.563.308-.852.447A.508.508,0,0,1,644.917,1120.172Zm2.528-1.87a.757.757,0,0,1-.838-.57.782.782,0,0,1-.819.6.8.8,0,0,1,.314.976.751.751,0,0,1,1.011,0A.98.98,0,0,1,647.445,1118.3Z" transform="translate(-260.227 -85.988)"/><path class="b" d="M374.691,1120.172c.046-.275.094-.6.158-.919a.267.267,0,0,0-.09-.281c-.214-.2-.42-.409-.63-.614a.5.5,0,0,1-.156-.536.49.49,0,0,1,.427-.358c.295-.044.59-.089.885-.125a.267.267,0,0,0,.24-.172c.12-.267.258-.526.385-.789a.512.512,0,0,1,.95,0c.12.248.258.489.362.744a.333.333,0,0,0,.315.22c.29.036.581.073.868.13a.5.5,0,0,1,.271.85c-.038.042-.079.08-.12.119-.189.186-.384.366-.564.56a.3.3,0,0,0-.07.218c.039.29.1.578.146.867a.523.523,0,0,1-.19.559.515.515,0,0,1-.588.018c-.263-.141-.53-.274-.79-.419a.21.21,0,0,0-.231,0c-.276.151-.554.3-.836.44A.51.51,0,0,1,374.691,1120.172Zm2.205-.88a.866.866,0,0,0-.519-1.564.78.78,0,0,1-.812.607.793.793,0,0,1,.313.972A.775.775,0,0,1,376.9,1119.292Z" transform="translate(-2.209 -85.989)"/></g></svg>