<svg xmlns="http://www.w3.org/2000/svg" width="14" height="14" viewBox="0 0 14 14"><defs><style>.a{fill:#af1032;}.b{fill:#fe6686;}</style></defs><g transform="translate(-864.5 -23.5)"><g transform="translate(840.5 0.5)"><path class="a" d="M30.627,146.759a.672.672,0,0,0,.951.951l2.536-2.536a.672.672,0,0,0,0-.951l-2.536-2.536a.672.672,0,0,0-.951.951l1.388,1.388H24.672a.672.672,0,1,0,0,1.345h7.342Z" transform="translate(0 -114.199)"/><path class="a" d="M191.4,24h-6.276A1.121,1.121,0,0,0,184,25.121v.9a.672.672,0,0,0,1.345,0v-.672h5.828v10.31h-5.828v-.672a.672.672,0,0,0-1.345,0v.9A1.121,1.121,0,0,0,185.121,37H191.4a1.121,1.121,0,0,0,1.121-1.121V25.121A1.121,1.121,0,0,0,191.4,24Z" transform="translate(-155.517)"/></g><g transform="translate(841.5 -0.5)"><path class="b" d="M30.627,146.759a.672.672,0,0,0,.951.951l2.536-2.536a.672.672,0,0,0,0-.951l-2.536-2.536a.672.672,0,0,0-.951.951l1.388,1.388H24.672a.672.672,0,1,0,0,1.345h7.342Z" transform="translate(0 -114.199)"/><path class="b" d="M191.4,24h-6.276A1.121,1.121,0,0,0,184,25.121v.9a.672.672,0,0,0,1.345,0v-.672h5.828v10.31h-5.828v-.672a.672.672,0,0,0-1.345,0v.9A1.121,1.121,0,0,0,185.121,37H191.4a1.121,1.121,0,0,0,1.121-1.121V25.121A1.121,1.121,0,0,0,191.4,24Z" transform="translate(-155.517)"/></g></g></svg>