<svg xmlns="http://www.w3.org/2000/svg" width="59.473" height="46.566" viewBox="0 0 59.473 46.566"><defs><style>.b{fill:#fff;}</style></defs><g class="a" transform="translate(0 -55.624)"><path class="b" d="M55.59,83.541H52.583a.87.87,0,0,0,0,1.74H55.59a2.146,2.146,0,0,1,2.143,2.143V98.307a2.146,2.146,0,0,1-2.143,2.143H3.884A2.146,2.146,0,0,1,1.74,98.307V87.425a2.146,2.146,0,0,1,2.143-2.143H48.875a.87.87,0,1,0,0-1.74H45.125c.006-.172.01-.344.01-.515a15.371,15.371,0,0,0-5.054-11.379,2.244,2.244,0,0,0-1.108-.544V69.266a.87.87,0,1,0-1.74,0v1.8H34.8V64.8a5,5,0,0,0-10,0v6.264H22.356V64.8a7.439,7.439,0,0,1,14.877,0v.755a.87.87,0,1,0,1.74,0V64.8a9.179,9.179,0,0,0-18.357,0v6.3a2.242,2.242,0,0,0-1.108.544,15.442,15.442,0,0,0-2.365,2.7.87.87,0,1,0,1.434.986,13.7,13.7,0,0,1,2.1-2.4.511.511,0,0,1,.344-.131H38.57a.512.512,0,0,1,.345.131,13.628,13.628,0,0,1,4.481,10.088c0,.17,0,.342-.011.515H33.45l-.5-1.608a4.083,4.083,0,1,0-6.3,0s.006.009.007.007l-.508,1.6H16.207c0-.095-.009-.19-.01-.284a13.567,13.567,0,0,1,.792-4.818.87.87,0,0,0-1.638-.587,15.3,15.3,0,0,0-.894,5.434c0,.084.006.17.009.256H3.884A3.888,3.888,0,0,0,0,87.425V98.307a3.888,3.888,0,0,0,3.884,3.884H55.59a3.888,3.888,0,0,0,3.884-3.884V87.425A3.888,3.888,0,0,0,55.59,83.541ZM26.533,64.8a3.262,3.262,0,1,1,6.524,0v6.264H26.533Zm1.452,16.021A2.343,2.343,0,0,1,29.945,77a2.368,2.368,0,0,1,2.187,2.2,2.339,2.339,0,0,1-.53,1.632,1.736,1.736,0,0,0-.323,1.634l.343,1.082H27.967l.343-1.082A1.74,1.74,0,0,0,27.985,80.824Z" transform="translate(0)"/><path class="b" d="M230.535,353.841a2.991,2.991,0,1,0,2.991-2.991A2.994,2.994,0,0,0,230.535,353.841Zm4.241,0a1.251,1.251,0,1,1-1.251-1.251A1.252,1.252,0,0,1,234.776,353.841Z" transform="translate(-203.789 -260.975)"/><path class="b" d="M149.2,353.841a2.991,2.991,0,1,0,2.991-2.991A2.994,2.994,0,0,0,149.2,353.841Zm4.241,0a1.251,1.251,0,1,1-1.251-1.251A1.252,1.252,0,0,1,153.445,353.841Z" transform="translate(-131.894 -260.975)"/><path class="b" d="M67.874,353.841a2.991,2.991,0,1,0,2.991-2.991A2.994,2.994,0,0,0,67.874,353.841Zm4.241,0a1.251,1.251,0,1,1-1.251-1.251A1.252,1.252,0,0,1,72.115,353.841Z" transform="translate(-59.999 -260.975)"/><path class="b" d="M311.865,353.841a2.991,2.991,0,1,0,2.991-2.991A2.994,2.994,0,0,0,311.865,353.841Zm4.241,0a1.25,1.25,0,1,1-1.251-1.251A1.252,1.252,0,0,1,316.106,353.841Z" transform="translate(-275.684 -260.975)"/><path class="b" d="M393.2,353.841a2.991,2.991,0,1,0,2.991-2.991A2.994,2.994,0,0,0,393.2,353.841Zm4.241,0a1.25,1.25,0,1,1-1.25-1.251A1.252,1.252,0,0,1,397.436,353.841Z" transform="translate(-347.578 -260.975)"/></g></svg>