<svg xmlns="http://www.w3.org/2000/svg" xmlns:xlink="http://www.w3.org/1999/xlink" width="21" height="21" viewBox="0 0 21 21"><defs><style>.a,.c{fill:#fff;}.a{stroke:#ff5485;stroke-width:0.5px;}.b{clip-path:url(#a);}</style><clipPath id="a"><rect class="a" width="21" height="21"/></clipPath></defs><g class="b"><g transform="translate(3.563 1.25)"><path class="c" d="M12.141,19.438H1.734A1.736,1.736,0,0,1,0,17.7V9.609A1.736,1.736,0,0,1,1.734,7.875H12.141a1.736,1.736,0,0,1,1.734,1.734V17.7A1.736,1.736,0,0,1,12.141,19.438ZM1.734,9.031a.579.579,0,0,0-.578.578V17.7a.579.579,0,0,0,.578.578H12.141a.579.579,0,0,0,.578-.578V9.609a.579.579,0,0,0-.578-.578Zm0,0" transform="translate(0 -0.938)"/><path class="c" d="M11.3,8.094a.578.578,0,0,1-.578-.578V4.625a3.469,3.469,0,0,0-6.937,0V7.516a.578.578,0,0,1-1.156,0V4.625a4.625,4.625,0,0,1,9.25,0V7.516A.578.578,0,0,1,11.3,8.094Zm0,0" transform="translate(-0.313)"/></g></g></svg>