<svg xmlns="http://www.w3.org/2000/svg" width="27.5" height="27.5" viewBox="0 0 27.5 27.5"><defs><style>.a{fill:#fff;}</style></defs><g transform="translate(0 0)"><path class="a" d="M26.784,11.85,24.758,11.4a.438.438,0,0,1-.335-.31,10.991,10.991,0,0,0-1.247-3.008.425.425,0,0,1,.017-.445L24.31,5.882a.912.912,0,0,0-.125-1.141L22.759,3.315a.912.912,0,0,0-1.141-.125L19.865,4.308a.425.425,0,0,1-.445.016,10.991,10.991,0,0,0-3.008-1.247.438.438,0,0,1-.31-.336L15.65.716A.909.909,0,0,0,14.758,0H12.742a.91.91,0,0,0-.893.716L11.4,2.742a.438.438,0,0,1-.31.335A10.991,10.991,0,0,0,8.078,4.323a.424.424,0,0,1-.445-.017L5.878,3.189a.907.907,0,0,0-1.136.124l-1.43,1.43a.908.908,0,0,0-.124,1.137L4.306,7.635a.425.425,0,0,1,.017.445,10.991,10.991,0,0,0-1.247,3.008.438.438,0,0,1-.336.31L.713,11.85A.909.909,0,0,0,0,12.742v2.017a.909.909,0,0,0,.715.892l2.027.452a.438.438,0,0,1,.335.31,10.991,10.991,0,0,0,1.247,3.008.425.425,0,0,1-.017.445L3.19,21.618a.912.912,0,0,0,.125,1.141l1.425,1.425a.913.913,0,0,0,1.141.125l1.753-1.118a.425.425,0,0,1,.445-.016,10.991,10.991,0,0,0,3.008,1.247.438.438,0,0,1,.31.336l.452,2.025a.91.91,0,0,0,.892.717h2.017a.91.91,0,0,0,.893-.716L16.1,24.75c.127-.572.948-.181,3.223-1.53l2.545,2.543a2.75,2.75,0,1,0,3.887-3.889l-2.542-2.541c1.365-2.306.962-3.1,1.535-3.231l2.035-.453a.909.909,0,0,0,.715-.891V12.742a.91.91,0,0,0-.716-.892ZM25.647,23.82a1.833,1.833,0,0,1-3.128,1.3c-7.288-7.283-6.942-7.013-7.2-7.022a.432.432,0,0,0-.1.011.436.436,0,0,0-.064.007,4.578,4.578,0,0,1-5.946-5.005l2.528,2.524a.458.458,0,0,0,.422.123l2.654-.582a.458.458,0,0,0,.349-.349l.587-2.658a.458.458,0,0,0-.124-.423L13.1,9.218a4.583,4.583,0,0,1,5,5.952c-.125.387-.186.17,7,7.352a1.82,1.82,0,0,1,.537,1.3Zm-5.15-7.2-1.439-1.439a5.5,5.5,0,0,0-7-6.654.458.458,0,0,0-.183.76l2.933,2.93-.469,2.127-2.125.466-2.933-2.93a.458.458,0,0,0-.76.183,5.493,5.493,0,0,0,6.648,7l1.441,1.44A7.333,7.333,0,1,1,20.5,16.618Zm4.054-1.409a1.369,1.369,0,0,0-1.026,1.016,9.981,9.981,0,0,1-.976,2.445l-1.36-1.36a8.25,8.25,0,1,0-3.9,3.884l1.364,1.362a9.927,9.927,0,0,1-2.433.969,1.369,1.369,0,0,0-1.016,1.025l-.451,2.032H12.744l-.452-2.025a1.36,1.36,0,0,0-.983-1.025A10.054,10.054,0,0,1,8.552,22.39a1.349,1.349,0,0,0-1.41.029L5.389,23.536,3.963,22.11,5.08,20.357a1.348,1.348,0,0,0,.029-1.41A10.054,10.054,0,0,1,3.966,16.19a1.36,1.36,0,0,0-1.025-.983L.917,14.758V12.745l2.026-.452a1.36,1.36,0,0,0,1.025-.983A10.054,10.054,0,0,1,5.11,8.552a1.348,1.348,0,0,0-.029-1.41L3.961,5.391l1.425-1.43L7.142,5.08a1.347,1.347,0,0,0,1.41.029,10.054,10.054,0,0,1,2.757-1.143,1.36,1.36,0,0,0,.983-1.025L12.742.917h2.012l.452,2.026a1.36,1.36,0,0,0,.983,1.025A10.054,10.054,0,0,1,18.946,5.11a1.347,1.347,0,0,0,1.41-.029L22.11,3.965,23.535,5.39,22.418,7.144a1.348,1.348,0,0,0-.029,1.41,10.054,10.054,0,0,1,1.143,2.757,1.36,1.36,0,0,0,1.025.983l2.026.448v2.012Z" transform="translate(0)"/><path class="a" d="M29.375,7h-.917a.458.458,0,0,0,0,.917h.917a.458.458,0,1,0,0-.917Z" transform="translate(-15.167 -3.792)"/><path class="a" d="M28.458,51.917h.917a.458.458,0,1,0,0-.917h-.917a.458.458,0,0,0,0,.917Z" transform="translate(-15.167 -27.625)"/><path class="a" d="M13.525,12.877l-.649.649a.458.458,0,0,0,.648.648l.649-.649a.458.458,0,0,0-.648-.648Z" transform="translate(-6.905 -6.905)"/><path class="a" d="M7.458,28A.458.458,0,0,0,7,28.458v.917a.458.458,0,1,0,.917,0v-.917A.458.458,0,0,0,7.458,28Z" transform="translate(-3.792 -15.167)"/><path class="a" d="M51.458,28a.458.458,0,0,0-.458.458v.917a.458.458,0,1,0,.917,0v-.917A.458.458,0,0,0,51.458,28Z" transform="translate(-27.625 -15.167)"/><path class="a" d="M13.525,45.287a.458.458,0,0,0,.648-.648l-.649-.649a.458.458,0,0,0-.648.648Z" transform="translate(-6.905 -23.758)"/><path class="a" d="M44.638,12.877a.458.458,0,0,0-.648.648c.7.7.731.783.973.783a.458.458,0,0,0,.324-.782Z" transform="translate(-23.758 -6.905)"/><path class="a" d="M50.375,51.75A1.375,1.375,0,1,0,49,50.375,1.375,1.375,0,0,0,50.375,51.75Zm0-1.833a.458.458,0,1,1-.458.458A.458.458,0,0,1,50.375,49.917Z" transform="translate(-26.542 -26.542)"/><path class="a" d="M36.789,36.141a.458.458,0,0,0-.648.648l5.042,5.042a.458.458,0,1,0,.648-.648Z" transform="translate(-19.507 -19.507)"/></g></svg>