<svg xmlns="http://www.w3.org/2000/svg" width="55.359" height="55.359" viewBox="0 0 55.359 55.359"><defs><style>.a{opacity:0.05;}.b{fill:#fff;}</style></defs><g class="a" transform="translate(0 0)"><path class="b" d="M53.918,23.854l-4.078-.91a.881.881,0,0,1-.674-.625,22.125,22.125,0,0,0-2.51-6.055.856.856,0,0,1,.033-.895l2.249-3.529a1.835,1.835,0,0,0-.252-2.3L45.816,6.674a1.835,1.835,0,0,0-2.3-.252L39.99,8.673a.856.856,0,0,1-.895.033A22.125,22.125,0,0,0,33.039,6.2a.881.881,0,0,1-.625-.675l-.91-4.08A1.831,1.831,0,0,0,29.71,0H25.65a1.832,1.832,0,0,0-1.8,1.441l-.91,4.078a.881.881,0,0,1-.625.674A22.125,22.125,0,0,0,16.262,8.7a.854.854,0,0,1-.895-.033L11.832,6.419a1.825,1.825,0,0,0-2.287.25L6.666,9.548a1.827,1.827,0,0,0-.25,2.288L8.667,15.37a.856.856,0,0,1,.033.895,22.125,22.125,0,0,0-2.51,6.055.881.881,0,0,1-.675.625l-4.08.91A1.831,1.831,0,0,0,0,25.65v4.06a1.831,1.831,0,0,0,1.438,1.8l4.081.91a.881.881,0,0,1,.674.625A22.125,22.125,0,0,0,8.7,39.095a.856.856,0,0,1-.033.895L6.422,43.519a1.835,1.835,0,0,0,.252,2.3l2.869,2.869a1.837,1.837,0,0,0,2.3.252l3.529-2.251a.856.856,0,0,1,.895-.033,22.125,22.125,0,0,0,6.055,2.51.881.881,0,0,1,.625.675l.91,4.077a1.832,1.832,0,0,0,1.8,1.444h4.06a1.832,1.832,0,0,0,1.8-1.441l.91-4.095c.256-1.151,1.908-.364,6.487-3.08l5.124,5.12a5.536,5.536,0,1,0,7.824-7.828L46.735,38.92c2.749-4.643,1.938-6.247,3.09-6.5l4.1-.913a1.831,1.831,0,0,0,1.438-1.794V25.65a1.832,1.832,0,0,0-1.441-1.8Zm-2.288,24.1a3.691,3.691,0,0,1-6.3,2.61C30.663,35.9,31.357,36.445,30.838,36.426a.869.869,0,0,0-.195.022.878.878,0,0,0-.129.015A9.215,9.215,0,0,1,18.545,26.388l5.089,5.081a.923.923,0,0,0,.85.248l5.342-1.172a.923.923,0,0,0,.7-.7l1.182-5.351a.923.923,0,0,0-.249-.851l-5.084-5.084A9.227,9.227,0,0,1,36.452,30.54c-.251.779-.375.341,14.1,14.8a3.664,3.664,0,0,1,1.081,2.611Zm-10.367-14.5-2.9-2.9a11.072,11.072,0,0,0-14.1-13.4.923.923,0,0,0-.369,1.53l5.9,5.9-.945,4.281-4.277.937-5.9-5.9a.923.923,0,0,0-1.53.369,11.058,11.058,0,0,0,13.382,14.1l2.9,2.9a14.763,14.763,0,1,1,7.835-7.82Zm8.161-2.836a2.756,2.756,0,0,0-2.065,2.046,20.092,20.092,0,0,1-1.964,4.922l-2.738-2.738a16.608,16.608,0,1,0-7.843,7.819c1.725,1.721,1.094,1.091,2.746,2.741a19.984,19.984,0,0,1-4.9,1.951,2.755,2.755,0,0,0-2.045,2.064l-.908,4.091H25.655l-.91-4.076a2.738,2.738,0,0,0-1.979-2.063,20.238,20.238,0,0,1-5.55-2.3,2.716,2.716,0,0,0-2.839.058l-3.53,2.249L7.978,44.51l2.249-3.529a2.714,2.714,0,0,0,.058-2.839,20.239,20.239,0,0,1-2.3-5.55,2.738,2.738,0,0,0-2.063-1.978l-4.075-.9V25.656l4.078-.911a2.738,2.738,0,0,0,2.063-1.979,20.238,20.238,0,0,1,2.3-5.55,2.714,2.714,0,0,0-.058-2.839L7.974,10.852l2.869-2.878,3.535,2.252a2.713,2.713,0,0,0,2.839.058,20.239,20.239,0,0,1,5.55-2.3,2.738,2.738,0,0,0,1.979-2.063l.9-4.075H29.7l.911,4.078A2.737,2.737,0,0,0,32.59,7.986a20.238,20.238,0,0,1,5.55,2.3,2.713,2.713,0,0,0,2.839-.058l3.53-2.249,2.869,2.87L45.13,14.38a2.714,2.714,0,0,0-.058,2.839,20.238,20.238,0,0,1,2.3,5.55,2.738,2.738,0,0,0,2.063,1.979l4.078.9V29.7Z" transform="translate(0 0)"/><path class="b" d="M30.768,7H28.923a.923.923,0,0,0,0,1.845h1.845a.923.923,0,1,0,0-1.845Z" transform="translate(-2.166 -0.541)"/><path class="b" d="M28.923,52.845h1.845a.923.923,0,1,0,0-1.845H28.923a.923.923,0,0,0,0,1.845Z" transform="translate(-2.166 -3.945)"/><path class="b" d="M14.313,13.007l-1.306,1.306a.923.923,0,0,0,1.3,1.3l1.306-1.306a.923.923,0,0,0-1.3-1.3Z" transform="translate(-0.986 -0.986)"/><path class="b" d="M7.923,28A.923.923,0,0,0,7,28.923v1.845a.923.923,0,1,0,1.845,0V28.923A.923.923,0,0,0,7.923,28Z" transform="translate(-0.541 -2.166)"/><path class="b" d="M51.923,28a.923.923,0,0,0-.923.923v1.845a.923.923,0,1,0,1.845,0V28.923A.923.923,0,0,0,51.923,28Z" transform="translate(-3.945 -2.166)"/><path class="b" d="M14.313,46.73a.923.923,0,0,0,1.3-1.3L14.312,44.12a.923.923,0,0,0-1.3,1.3Z" transform="translate(-0.986 -3.392)"/><path class="b" d="M45.425,13.007a.923.923,0,0,0-1.3,1.3c1.419,1.419,1.472,1.576,1.958,1.576a.923.923,0,0,0,.652-1.575Z" transform="translate(-3.392 -0.986)"/><path class="b" d="M51.768,54.536A2.768,2.768,0,1,0,49,51.768,2.768,2.768,0,0,0,51.768,54.536Zm0-3.691a.923.923,0,1,1-.923.923A.923.923,0,0,1,51.768,50.845Z" transform="translate(-3.79 -3.79)"/><path class="b" d="M37.576,36.271a.923.923,0,0,0-1.3,1.3L46.421,47.725a.923.923,0,1,0,1.3-1.3Z" transform="translate(-2.785 -2.785)"/></g></svg>