<svg xmlns="http://www.w3.org/2000/svg" width="30" height="30.001" viewBox="0 0 30 30.001"><defs><style>.a{fill:#fff;}</style></defs><g transform="translate(-0.007)"><g transform="translate(0.007)"><path class="a" d="M25.013,8.716a.6.6,0,0,0,.6-.586V1.758A1.788,1.788,0,0,0,23.805,0H1.819A1.788,1.788,0,0,0,.007,1.758V28.243A1.788,1.788,0,0,0,1.819,30H23.805a1.788,1.788,0,0,0,1.812-1.758V23.926a.6.6,0,0,0-1.208,0v4.317a.6.6,0,0,1-.6.586H1.819a.6.6,0,0,1-.6-.586V1.758a.6.6,0,0,1,.6-.586H23.805a.6.6,0,0,1,.6.586V8.13A.6.6,0,0,0,25.013,8.716Z" transform="translate(-0.007)"/></g><g transform="translate(7.625 2.694)"><path class="a" d="M124.6,54a4.587,4.587,0,0,0-3.149,7.926.492.492,0,0,0,.054.05,4.581,4.581,0,0,0,6.19,0,.5.5,0,0,0,.054-.05A4.587,4.587,0,0,0,124.6,54Zm0,8.182a3.573,3.573,0,0,1-2.17-.732,2.494,2.494,0,0,1,4.339,0A3.573,3.573,0,0,1,124.6,62.182Zm-.8-3.792v-.324a.8.8,0,0,1,1.6,0v.324a.8.8,0,0,1-1.6,0Zm3.689,2.329a3.461,3.461,0,0,0-1.47-1.232,1.786,1.786,0,0,0,.375-1.1v-.324a1.8,1.8,0,1,0-3.592,0v.324a1.787,1.787,0,0,0,.375,1.1,3.461,3.461,0,0,0-1.47,1.232,3.592,3.592,0,1,1,5.781,0Z" transform="translate(-120.007 -54)"/></g><g transform="translate(12.14 26.309)"><path class="a" d="M205.2,438h-2.694a.5.5,0,1,0,0,1H205.2a.5.5,0,1,0,0-1Z" transform="translate(-202.007 -438)"/></g><g transform="translate(7.146 22.519)"><path class="a" d="M121.59,382h-7.084a.5.5,0,1,0,0,1h7.084a.5.5,0,1,0,0-1Z" transform="translate(-114.007 -382)"/></g><g transform="translate(7.146 19.217)"><path class="a" d="M121.59,326h-7.084a.5.5,0,1,0,0,1h7.084a.5.5,0,1,0,0-1Z" transform="translate(-114.007 -326)"/></g><g transform="translate(3.563 15.916)"><path class="a" d="M72.139,270.146a.5.5,0,1,0,.146.353A.5.5,0,0,0,72.139,270.146Z" transform="translate(-71.287 -270)"/></g><g transform="translate(3.563 19.217)"><path class="a" d="M72.139,326.146a.5.5,0,1,0,.146.353A.5.5,0,0,0,72.139,326.146Z" transform="translate(-71.287 -326)"/></g><g transform="translate(3.563 22.519)"><path class="a" d="M72.139,382.146a.5.5,0,1,0,.146.353A.5.5,0,0,0,72.139,382.146Z" transform="translate(-71.287 -382)"/></g><g transform="translate(7.146 15.916)"><path class="a" d="M121.59,270h-7.084a.5.5,0,1,0,0,1h7.084a.5.5,0,1,0,0-1Z" transform="translate(-114.007 -270)"/></g><g transform="translate(19.311 10.678)"><path class="a" d="M307.238,124.957a2.1,2.1,0,0,0-2.862.767L298.1,136.6a.5.5,0,0,0-.064.194l-.442,3.958a.5.5,0,0,0,.792.457l3.207-2.362a.5.5,0,0,0,.136-.152l6.278-10.874A2.1,2.1,0,0,0,307.238,124.957Zm-8.528,14.771.231-2.067,1.444.834Zm2.4-1.965-1.9-1.1,5.038-8.726,1.9,1.1Zm6.029-10.442-.492.852-1.9-1.1.492-.852a1.1,1.1,0,0,1,1.9,1.1Z" transform="translate(-297.589 -124.675)"/></g></g></svg>