<svg xmlns="http://www.w3.org/2000/svg" width="18.463" height="18.463" viewBox="0 0 18.463 18.463"><defs><style>.a{fill:#fff;stroke:#fff;stroke-width:0.2px;}</style></defs><g transform="translate(0.1 0.1)"><g transform="translate(0 0)"><path class="a" d="M151.435,363.07h5.218a.547.547,0,0,0,0-1.07h-5.218a.547.547,0,0,0,0,1.07Z" transform="translate(-144.744 -349.087)"/><path class="a" d="M18.106,3.01,15.253.157A.535.535,0,0,0,14.875,0H.535A.535.535,0,0,0,0,.535V17.728a.535.535,0,0,0,.535.535H17.728a.535.535,0,0,0,.535-.535V3.389A.535.535,0,0,0,18.106,3.01ZM4.316,1.07h7.491V4.637H4.316Zm9.631,16.123H4.316V9.7h9.631Zm3.246,0H15.017V9.167a.535.535,0,0,0-.535-.535H3.781a.535.535,0,0,0-.535.535v8.026H1.07V1.07H3.246v4.1a.535.535,0,0,0,.535.535h8.561a.535.535,0,0,0,.535-.535V1.07h1.776l2.54,2.54Z" transform="translate(0 0)"/></g></g></svg>