<svg xmlns="http://www.w3.org/2000/svg" width="19.538" height="18.798" viewBox="0 0 19.538 18.798"><defs><style>.a{fill:#fff;stroke:#22343c;stroke-width:1.5px;}</style></defs><g transform="translate(-16.235 0.75)"><g transform="translate(17.004)"><g transform="translate(0)"><path class="a" d="M188.093,6.483a1.564,1.564,0,0,0-1.221-1.058l-4.289-.742L180.553.834a1.564,1.564,0,0,0-2.766,0l-2.031,3.849-4.289.742a1.564,1.564,0,0,0-.855,2.631l3.033,3.121-.62,4.308a1.564,1.564,0,0,0,2.238,1.626l3.906-1.92,3.906,1.92a1.564,1.564,0,0,0,2.238-1.626l-.62-4.308,3.033-3.121A1.564,1.564,0,0,0,188.093,6.483Zm-6.178,3.066a1.564,1.564,0,0,0-.426,1.312L181.8,13l-1.936-.952a1.564,1.564,0,0,0-1.38,0L176.544,13l.307-2.135a1.564,1.564,0,0,0-.426-1.312L174.921,8l2.126-.368a1.564,1.564,0,0,0,1.116-.811l1.007-1.908,1.007,1.908a1.564,1.564,0,0,0,1.116.811L183.419,8Z" transform="translate(-170.17)"/></g></g></g></svg>