<svg xmlns="http://www.w3.org/2000/svg" xmlns:xlink="http://www.w3.org/1999/xlink" width="16.544" height="37.001" viewBox="0 0 16.544 37.001"><defs><style>.a{opacity:0.19;fill:url(#a);}</style><linearGradient id="a" x1="0.5" x2="0.5" y2="1" gradientUnits="objectBoundingBox"><stop offset="0" stop-color="#10a5f7"/><stop offset="1" stop-color="#31deb1"/></linearGradient></defs><path class="a" d="M-12314.184,36.717a3.267,3.267,0,0,1,3.251-3.282,3.265,3.265,0,0,1,3.251,3.282,3.268,3.268,0,0,1-3.251,3.285A3.27,3.27,0,0,1-12314.184,36.717Zm-10.042,0a3.264,3.264,0,0,1,3.247-3.282,3.265,3.265,0,0,1,3.251,3.282,3.268,3.268,0,0,1-3.251,3.285A3.267,3.267,0,0,1-12324.226,36.717Zm10.042-10.145a3.267,3.267,0,0,1,3.251-3.282,3.265,3.265,0,0,1,3.251,3.282,3.265,3.265,0,0,1-3.251,3.282A3.267,3.267,0,0,1-12314.184,26.572Zm-10.042,0a3.264,3.264,0,0,1,3.247-3.282,3.265,3.265,0,0,1,3.251,3.282,3.265,3.265,0,0,1-3.251,3.282A3.264,3.264,0,0,1-12324.226,26.572Zm10.042-10.145a3.267,3.267,0,0,1,3.251-3.282,3.265,3.265,0,0,1,3.251,3.282,3.265,3.265,0,0,1-3.251,3.282A3.267,3.267,0,0,1-12314.184,16.427Zm-10.042,0a3.264,3.264,0,0,1,3.247-3.282,3.265,3.265,0,0,1,3.251,3.282,3.265,3.265,0,0,1-3.251,3.282A3.264,3.264,0,0,1-12324.226,16.427Zm10.042-10.145A3.267,3.267,0,0,1-12310.933,3a3.265,3.265,0,0,1,3.251,3.282,3.265,3.265,0,0,1-3.251,3.282A3.267,3.267,0,0,1-12314.184,6.282Zm-10.042,0A3.264,3.264,0,0,1-12320.979,3a3.265,3.265,0,0,1,3.251,3.282,3.265,3.265,0,0,1-3.251,3.282A3.264,3.264,0,0,1-12324.226,6.282Z" transform="translate(12324.226 -3)"/></svg>