<svg xmlns="http://www.w3.org/2000/svg" width="325.79" height="115.715" viewBox="0 0 325.79 115.715"><defs><style>.a{fill:#ffc34d;}.b{fill:#f93;}.c{fill:#fcd274;}.d{fill:#f5b538;}.e{fill:#ff6a4d;}.f{fill:#f03800;}.g{fill:#f48c7f;}.h{fill:#f7cc7f;}.i{fill:#50bfa5;}.j{fill:#466eb6;}.k{fill:#f79c8d;}.l{fill:#f47458;}</style></defs><g transform="translate(-521.258 -99.251)"><g transform="translate(656 77.658)"><g transform="translate(7.497 67.589)"><path class="a" d="M68.683,134.458l2.422-12.112a1.64,1.64,0,0,1,2.918-.662l7.175,9.566c1.139,1.518-.27,1.873-4.99,7.694-6.253-3.067-7.929-2.465-7.525-4.487Z" transform="translate(-68.626 -121.03)"/></g><g transform="translate(35.495 67.589)"><g transform="translate(0 0)"><path class="b" d="M330.391,138.945c-4.747-5.7-6.268-6.136-5.1-7.694l7.175-9.566a1.64,1.64,0,0,1,2.918.662l2.422,12.112C338.228,136.566,336.2,136.033,330.391,138.945Z" transform="translate(-324.916 -121.03)"/></g></g><g transform="translate(0 61.035)"><g transform="translate(0 0)"><path class="c" d="M53.32,74.467,41.585,83.2,29.392,61.86a1.639,1.639,0,0,0-2.845,0L14.355,83.2,2.619,74.467a1.641,1.641,0,0,0-2.566,1.72L4.532,93.807,7.5,95.591,5.365,97.085l1.352,5.32a1.64,1.64,0,0,0,1.588,1.234H47.634a1.64,1.64,0,0,0,1.588-1.234l1.352-5.32-1.3-1.639,2.135-1.639,4.479-17.621A1.641,1.641,0,0,0,53.32,74.467Z" transform="translate(0 -61.035)"/></g></g><path class="d" d="M283.954,76.186l-4.479,17.621-2.135,1.639,1.3,1.639-1.352,5.32a1.64,1.64,0,0,1-1.588,1.234H256.039v-42.6a1.62,1.62,0,0,1,1.421.825L269.653,83.2l11.735-8.729a1.641,1.641,0,0,1,2.566,1.72Z" transform="translate(-228.068 0)"/><g transform="translate(21.415 77.421)"><g transform="translate(0 0)"><path class="e" d="M208.907,220.014l-4.916-8.193a1.638,1.638,0,0,0-2.81,0l-4.916,8.193a1.64,1.64,0,0,0,0,1.687l4.916,8.193a1.638,1.638,0,0,0,2.81,0l4.916-8.193A1.64,1.64,0,0,0,208.907,220.014Z" transform="translate(-196.031 -211.025)"/></g></g><path class="f" d="M262.359,221.7l-4.916,8.193a1.629,1.629,0,0,1-1.4.8V211.025a1.622,1.622,0,0,1,1.4.8l4.916,8.193A1.64,1.64,0,0,1,262.359,221.7Z" transform="translate(-228.068 -133.604)"/><g transform="translate(4.532 93.807)"><path class="a" d="M53.456,362.664a1.639,1.639,0,0,1-1.639,1.639h-9.5l-.832-3.277H51.817A1.639,1.639,0,0,1,53.456,362.664Z" transform="translate(-41.489 -361.025)"/></g><g transform="translate(39.44 93.807)"><path class="b" d="M373,361.025l-.832,3.277h-9.5a1.639,1.639,0,0,1,0-3.277Z" transform="translate(-361.029 -361.025)"/></g></g><g transform="translate(509 35)"><path class="g" d="M1075.436,406.1l1.946-9.55-8.761-2.4,1.5-9.492-8.09-3.323-.037-7.288-3.689.019.05,9.747,7.667,3.149-1.563,9.875,8.617,2.357-1.764,8.654Z" transform="translate(-203.199 -900.894) rotate(45)"/><path class="g" d="M1069.651,395.279l1.289-6.325-5.8-1.587,1-6.286-5.358-2.2-.025-4.826-2.443.013.033,6.455,5.078,2.085-1.035,6.54,5.707,1.561-1.168,5.731Z" transform="translate(-194.957 -948.581) rotate(45)"/><path class="h" d="M872.486,502.706l2.593,4.842,5.593-.313,2.522,5.634,5.854-2.171,3.134,6.245,5.637-1.334,4,5.516-2.088,1.513-2.989-4.124-5.948,1.407-3.012-6-5.952,2.207-2.783-6.217-5.462.306-2.4-4.488-3.545.951-.668-2.49Z" transform="translate(1214.088 -190.084) rotate(132)"/><path class="i" d="M744.005,627.8l-4.929.5-1.681-7.842-7.3-.157-2.218-5.663-2.867,1.123,2.966,7.574,6.915.149,1.749,8.158,7.417-.753Z" transform="translate(-406.013 -518.494)"/><path class="j" d="M1871.551,1042.664l3.8-6.416-3.132-6.766a1.024,1.024,0,0,1,1.154-1.43l7.276,1.63,5.468-5.07a1.024,1.024,0,0,1,1.716.655l.7,7.423,6.511,3.633a1.025,1.025,0,0,1-.092,1.835l-6.845,2.958-1.443,7.316a1.024,1.024,0,0,1-1.774.479l-4.928-5.6-7.4.888A1.025,1.025,0,0,1,1871.551,1042.664Z" transform="translate(-1628.406 -869.293)"/><path class="k" d="M1196.361,491.435l2.175-3.674-1.793-3.874a.587.587,0,0,1,.661-.819l4.166.933,3.13-2.9a.587.587,0,0,1,.983.375l.4,4.251,3.728,2.08a.587.587,0,0,1-.053,1.051l-3.919,1.694-.827,4.188a.587.587,0,0,1-1.016.274l-2.822-3.2-4.239.508A.587.587,0,0,1,1196.361,491.435Z" transform="matrix(0.616, -0.788, 0.788, 0.616, -807.794, 785.421)"/><path class="l" d="M1818.032,777.293l4.314,7.166a1.093,1.093,0,0,0,1.953-.164l3.063-7.782,8.148-1.888a1.093,1.093,0,0,0,.449-1.908l-6.455-5.319.721-8.333a1.093,1.093,0,0,0-1.676-1.016l-7.053,4.5-7.7-3.262a1.093,1.093,0,0,0-1.484,1.281l2.1,8.1-5.482,6.317a1.093,1.093,0,0,0,.759,1.808Z" transform="translate(-1578.079 -692.421)"/><path class="l" d="M1815.574,772.2l3.183,5.287a.806.806,0,0,0,1.441-.121l2.26-5.742,6.012-1.393a.806.806,0,0,0,.331-1.408l-4.762-3.924.532-6.148a.806.806,0,0,0-1.237-.75l-5.2,3.317-5.683-2.407a.807.807,0,0,0-1.1.945l1.547,5.974-4.045,4.661a.806.806,0,0,0,.56,1.334Z" transform="translate(-1501.447 -688.866)"/></g><g transform="translate(521.258 99.251)"><path class="g" d="M17.129,1.751l1.946,9.55-8.761,2.4,1.5,9.492-8.09,3.323L3.689,33.8,0,33.781l.05-9.747,7.667-3.149L6.154,11.011l8.617-2.357L13.007,0Z" transform="translate(81.307 71.586) rotate(135)"/><path class="g" d="M11.344,1.16l1.289,6.325-5.8,1.587,1,6.286-5.358,2.2-.025,4.826L0,22.373l.033-6.455,5.078-2.085L4.076,7.292,9.783,5.731,8.614,0Z" transform="translate(64.994 15.829) rotate(135)"/><path class="h" d="M5.52,19.933l2.593-4.842,5.593.313L16.229,9.77l5.854,2.171L25.217,5.7l5.637,1.334,4-5.516L32.764,0,29.775,4.124,23.826,2.717l-3.012,6L14.862,6.513,12.078,12.73l-5.462-.306-2.4,4.488L.668,15.962,0,18.452Z" transform="translate(92.47 40.232) rotate(48)"/><path class="i" d="M725.068,627.8l4.929.5,1.681-7.842,7.3-.157,2.218-5.663,2.867,1.123-2.966,7.574-6.915.149-1.749,8.158-7.417-.753Z" transform="translate(-725.013 -582.745)"/><path class="j" d="M1895.421,1042.663l-3.8-6.416,3.132-6.766a1.024,1.024,0,0,0-1.154-1.43l-7.276,1.63-5.468-5.07a1.024,1.024,0,0,0-1.716.655l-.7,7.423-6.511,3.633a1.025,1.025,0,0,0,.092,1.835l6.845,2.958,1.443,7.316a1.024,1.024,0,0,0,1.774.479l4.928-5.6,7.4.888A1.025,1.025,0,0,0,1895.421,1042.663Z" transform="translate(-1800.519 -933.544)"/><path class="k" d="M.083,3.776,2.258,7.45.464,11.324a.587.587,0,0,0,.661.819l4.166-.933,3.13,2.9a.587.587,0,0,0,.983-.375l.4-4.251,3.728-2.08a.587.587,0,0,0-.053-1.051L9.561,4.662,8.734.474A.587.587,0,0,0,7.719.2L4.9,3.4.658,2.895A.587.587,0,0,0,.083,3.776Z" transform="matrix(-0.616, -0.788, 0.788, -0.616, 19.107, 83.373)"/><path class="l" d="M1826.982,777.293l-4.314,7.166a1.093,1.093,0,0,1-1.953-.164l-3.063-7.782-8.148-1.888a1.093,1.093,0,0,1-.449-1.908l6.455-5.319-.721-8.333a1.093,1.093,0,0,1,1.676-1.016l7.053,4.5,7.7-3.262a1.093,1.093,0,0,1,1.484,1.281l-2.1,8.1,5.482,6.317a1.093,1.093,0,0,1-.759,1.808Z" transform="translate(-1728.887 -756.672)"/><path class="l" d="M1822.177,772.2l-3.183,5.287a.806.806,0,0,1-1.441-.121l-2.26-5.742-6.012-1.393a.806.806,0,0,1-.331-1.408l4.762-3.924-.532-6.148a.806.806,0,0,1,1.237-.75l5.2,3.317,5.683-2.407a.807.807,0,0,1,1.1.945l-1.547,5.974,4.045,4.661a.806.806,0,0,1-.56,1.334Z" transform="translate(-1798.256 -753.117)"/></g></g></svg>