<svg xmlns="http://www.w3.org/2000/svg" width="19.2" height="17.617" viewBox="0 0 19.2 17.617"><defs><style>.a{fill:#fff;stroke:#fff;stroke-width:0.2px;}</style></defs><g transform="translate(0.1 -0.9)"><g transform="translate(2.375 7.333)"><path class="a" d="M10.323,11.375a.594.594,0,0,1-.594-.594v-.594H4.188v.594a.594.594,0,0,1-1.187,0V9.594A.594.594,0,0,1,3.594,9h6.729a.594.594,0,0,1,.594.594v1.188A.594.594,0,0,1,10.323,11.375Z" transform="translate(-3 -9)"/></g><g transform="translate(5.74 7.531)"><path class="a" d="M7.844,16.771a.594.594,0,0,1-.594-.594V9.844a.594.594,0,0,1,1.188,0v6.333A.594.594,0,0,1,7.844,16.771Z" transform="translate(-7.25 -9.25)"/></g><g transform="translate(4.75 14.063)"><path class="a" d="M8.573,18.688H6.594a.594.594,0,0,1,0-1.187H8.573a.594.594,0,0,1,0,1.188Z" transform="translate(-6 -17.5)"/></g><g transform="translate(11.875 7.333)"><path class="a" d="M19.156,10.188H15.594a.594.594,0,0,1,0-1.187h3.563a.594.594,0,0,1,0,1.188Z" transform="translate(-15 -9)"/></g><g transform="translate(11.875 10.5)"><path class="a" d="M19.156,14.188H15.594a.594.594,0,0,1,0-1.187h3.563a.594.594,0,0,1,0,1.188Z" transform="translate(-15 -13)"/></g><g transform="translate(11.875 13.667)"><path class="a" d="M19.156,18.188H15.594a.594.594,0,0,1,0-1.187h3.563a.594.594,0,0,1,0,1.188Z" transform="translate(-15 -17)"/></g><g transform="translate(0 1)"><path class="a" d="M16.823,18.417H2.177A2.179,2.179,0,0,1,0,16.24V3.177A2.179,2.179,0,0,1,2.177,1H16.823A2.179,2.179,0,0,1,19,3.177V16.24A2.179,2.179,0,0,1,16.823,18.417ZM2.177,2.188a.991.991,0,0,0-.99.99V16.24a.991.991,0,0,0,.99.99H16.823a.991.991,0,0,0,.99-.99V3.177a.991.991,0,0,0-.99-.99Z" transform="translate(0 -1)"/></g><g transform="translate(0 3.771)"><path class="a" d="M18.406,5.688H.594a.594.594,0,0,1,0-1.187H18.406a.594.594,0,0,1,0,1.188Z" transform="translate(0 -4.5)"/></g></g></svg>