<svg xmlns="http://www.w3.org/2000/svg" xmlns:xlink="http://www.w3.org/1999/xlink" width="59" height="59" viewBox="0 0 59 59"><defs><style>.a{fill:#fff;}.b{opacity:0.5;clip-path:url(#a);}</style><clipPath id="a"><rect class="a" width="59" height="59" transform="translate(57.25 871.715)"/></clipPath></defs><g class="b" transform="translate(-57.25 -871.715)"><g transform="translate(59.866 881.84)"><g transform="translate(0 2.279)"><path class="a" d="M51.282,30.292h-18.8a1.14,1.14,0,0,1,0-2.279h18.8a1.154,1.154,0,0,0,1.14-1.162,1.211,1.211,0,0,0-.185-.606,10.831,10.831,0,0,0-9.206-5.069H10.949a3.408,3.408,0,0,1-3.262-2.391L5.607,12.172A3.4,3.4,0,0,0,2.345,9.779L2.279,22.315a5.706,5.706,0,0,0,5.7,5.7H22.222a1.14,1.14,0,0,1,0,2.279H7.977A7.986,7.986,0,0,1,0,22.315V9.845A2.349,2.349,0,0,1,2.345,7.5a5.673,5.673,0,0,1,5.436,3.989L9.862,18.1a1.135,1.135,0,0,0,1.087.8H43.032a13.112,13.112,0,0,1,11.152,6.163,3.525,3.525,0,0,1,.517,1.791,3.434,3.434,0,0,1-3.419,3.442Z" transform="translate(0 -7.5)"/></g><g transform="translate(15.955 18.233)"><path class="a" d="M15.952,38.513H11.64a1.138,1.138,0,0,1-1.067-1.538l6.838-18.234a1.14,1.14,0,0,1,2.133.8L13.285,36.234h2.667a3.4,3.4,0,0,0,2.9-1.607L28.909,18.536a1.14,1.14,0,0,1,1.933,1.208L20.784,35.835A5.667,5.667,0,0,1,15.952,38.513Z" transform="translate(-10.5 -18)"/></g><g transform="translate(15.955 0)"><path class="a" d="M16.768,21.954a1.141,1.141,0,0,1-1.067-.738L10.573,7.541A1.139,1.139,0,0,1,11.64,6h4.312a5.664,5.664,0,0,1,4.832,2.678l7.209,11.533a1.14,1.14,0,0,1-1.933,1.208L18.851,9.886a3.4,3.4,0,0,0-2.9-1.607H13.285l4.552,12.135a1.14,1.14,0,0,1-1.069,1.541Z" transform="translate(-10.5 -6)"/></g></g></g></svg>