<svg xmlns="http://www.w3.org/2000/svg" xmlns:xlink="http://www.w3.org/1999/xlink" width="50.929" height="59.334" viewBox="0 0 50.929 59.334"><defs><style>.a{fill:none;}.b{clip-path:url(#a);}.c{fill:#fdc00f;}.d{fill:#f99b1d;}.e{fill:#feb91e;}.f{fill:#fcd274;}.g{fill:#fff0c7;}.h{fill:#407fa3;}.i{fill:#0e3242;}.j{fill:#d67503;}.k{fill:#14b0bf;}.l{fill:#9fc8dd;}.m{fill:#7eaabc;}.n{fill:#1695a4;}.o{fill:#113d4f;}.p{fill:#286d94;}.q{fill:#fdd560;}.r{fill:#fff;}</style><clipPath id="a"><rect class="a" width="50.929" height="59.334"/></clipPath></defs><g class="b"><path class="c" d="M10.928,115.881a1.347,1.347,0,0,1-.556-.119C-2.121,110.1.153,96.7.177,96.566A1.346,1.346,0,0,1,1.5,95.461c8.864,0,11.994,5.123,12.123,5.341a1.345,1.345,0,0,1-2.31,1.378c-.105-.171-2.31-3.6-8.617-3.992-.2,2.837.061,10.212,7.294,14.361.707-2.158,2.366-4.569,5.618-4.411a1.345,1.345,0,0,1-.135,2.687c-2.8-.134-3.189,3.681-3.206,3.844a1.346,1.346,0,0,1-1.339,1.214" transform="translate(0 -78.063)"/><path class="d" d="M16.437,119.977c-4.67-4.215-4.838-10.024-4.669-12.468,4.448.276,6.853,2.062,7.923,3.151-.628-.827-3.044-3.458-8.556-3.8-.178,2.571.013,8.82,5.3,13.116" transform="translate(-9.073 -87.385)"/><path class="d" d="M44.354,166.246a1.356,1.356,0,0,1,.144.681,1.37,1.37,0,0,1-1.428,1.292c-2.832-.136-3.229,3.728-3.246,3.893a1.364,1.364,0,0,1-1.918,1.108,19.349,19.349,0,0,1-3.582-2.094,18.76,18.76,0,0,0,4.117,2.52,1.347,1.347,0,0,0,1.894-1.095c.017-.163.41-3.978,3.206-3.844a1.345,1.345,0,0,0,.814-2.462" transform="translate(-28.068 -135.947)"/><path class="c" d="M192.753,115.881a1.359,1.359,0,0,0,.555-.119C205.8,110.1,203.528,96.7,203.5,96.566a1.344,1.344,0,0,0-1.323-1.105c-8.864,0-11.994,5.123-12.122,5.341a1.345,1.345,0,0,0,2.31,1.378c.1-.171,2.309-3.6,8.617-3.992.2,2.837-.06,10.212-7.293,14.361-.707-2.158-2.366-4.569-5.618-4.411a1.345,1.345,0,0,0,.135,2.687c2.8-.134,3.188,3.681,3.205,3.844a1.345,1.345,0,0,0,1.34,1.214" transform="translate(-152.751 -78.063)"/><path class="d" d="M191.413,147.089a1.345,1.345,0,0,0,1.34,1.214,1.357,1.357,0,0,0,.555-.119,16.7,16.7,0,0,0,9.584-10.889l-2.187-2.187a14.072,14.072,0,0,1-7.014,9.861c-.707-2.158-2.366-4.569-5.618-4.411a1.345,1.345,0,0,0,.135,2.687c2.8-.134,3.188,3.681,3.205,3.844" transform="translate(-152.751 -110.484)"/><path class="d" d="M203.85,107.256a1.345,1.345,0,0,0,2.31,1.377,8.877,8.877,0,0,1,4.609-3.222l-2.059-2.059a11.054,11.054,0,0,0-4.86,3.9" transform="translate(-166.543 -84.516)"/><path class="d" d="M87.032,94.624H56.812c0,23.328,13.056,12.13,13.056,24.116,0,8.858-5.647,12.267-5.647,12.267v1.862h15.4v-1.862s-5.647-3.409-5.647-12.267c0-11.986,13.056-.787,13.056-24.116" transform="translate(-46.458 -77.378)"/><path class="e" d="M87.032,94.624H56.812c0,23.328,13.056,12.13,13.056,24.116,0,8.858-5.647,12.267-5.647,12.267v1.862h15.4v-1.862s-5.647-3.409-5.647-12.267c0-11.986,13.056-.787,13.056-24.116" transform="translate(-46.458 -77.378)"/><path class="f" d="M71.232,118.741c0-11.986,10.965-.787,10.965-24.116H56.813c0,23.328,13.055,12.13,13.055,24.116,0,8.858-5.647,12.267-5.647,12.267v1.861H75.974v-1.861s-4.742-3.409-4.742-12.267" transform="translate(-46.458 -77.379)"/><path class="g" d="M111.209,256.193h2.03a33.679,33.679,0,0,0,2.031-8.545c-.982,6.03-4.061,8.545-4.061,8.545" transform="translate(-90.94 -202.513)"/><rect class="d" width="2.03" height="1.81" transform="translate(20.268 53.68)"/><path class="d" d="M125.277,107.577l.7,3.243-4.175-4.174-3.992,16.474c1.156.995,1.924,2.521,1.935,5.388l4.7,4.695a18.029,18.029,0,0,1-.583-4.632c0-8.765,6.978-5.145,10.729-11.683Z" transform="translate(-96.339 -87.209)"/><path class="g" d="M74.144,101.229H71.109c0,10.4,3.1,12.6,6,13.9-1.728-2.461-2.962-6.547-2.962-13.9" transform="translate(-58.149 -82.779)"/><path class="h" d="M106.539,306.386a1.921,1.921,0,0,1-1.921,1.921H89.432a1.922,1.922,0,1,1,0-3.844h15.186a1.921,1.921,0,0,1,1.921,1.923" transform="translate(-71.561 -248.973)"/><path class="i" d="M87.51,315.013a1.922,1.922,0,0,0,1.922,1.921h15.186a1.921,1.921,0,0,0,1.921-1.921Z" transform="translate(-71.561 -257.6)"/><path class="j" d="M119.742,202.331c-.029-2.8-.789-4.311-1.932-5.294,1.143.984,1.9,2.49,1.932,5.294" transform="translate(-96.338 -161.126)"/><path class="j" d="M146.061,144.516c-2.55,11.109-10.136,5.052-10.136,15.023,0,.467.02.911.046,1.348l3.283,3.284a18.027,18.027,0,0,1-.583-4.632c0-8.765,6.978-5.145,10.729-11.683Z" transform="translate(-111.152 -118.177)"/><path class="k" d="M160.037,165.257V174.3l1.524,1.281V165.257Z" transform="translate(-130.869 -135.138)"/><path class="l" d="M119.36,165.257v9.048l3.71-3.151,3.7,3.151v-9.048Z" transform="translate(-97.606 -135.138)"/><path class="k" d="M111.044,165.257v10.324l1.516-1.28v-9.044Z" transform="translate(-90.805 -135.138)"/><path class="m" d="M119.36,169.349l1.678-.362,2.032,1.842,2.033-1.842,1.671.362v-4.092H119.36Z" transform="translate(-97.606 -135.138)"/><path class="n" d="M160.037,169.349l1.012.218.512-1.6v-2.711h-1.524Z" transform="translate(-130.869 -135.138)"/><path class="n" d="M111.044,167.968l.51,1.6,1.005-.218v-4.092h-1.516Z" transform="translate(-90.805 -135.138)"/><path class="d" d="M118.157,116.356a6.184,6.184,0,1,1-6.185-6.184,6.185,6.185,0,0,1,6.185,6.184" transform="translate(-86.508 -90.092)"/><path class="c" d="M113.016,122.276a4.865,4.865,0,1,0,4.864-4.865,4.865,4.865,0,0,0-4.864,4.865" transform="translate(-92.418 -96.012)"/><path class="g" d="M118.894,118.923a3.638,3.638,0,0,0-.833-.106,3.6,3.6,0,0,0-3.6,3.6,3.652,3.652,0,0,0,.107.837,5.526,5.526,0,0,1,4.326-4.329" transform="translate(-93.6 -97.162)"/><path class="o" d="M111.336,107.584l-1.592-1.753.5-2.317-2.254-.723-.725-2.255-2.315.5-1.756-1.59-1.754,1.59-2.316-.5-.722,2.255-2.257.723.5,2.317-1.59,1.753,1.59,1.754-.5,2.318,2.257.721.722,2.258,2.316-.5,1.754,1.593,1.756-1.593,2.315.5.725-2.258,2.254-.721-.5-2.318Zm-8.138,6.1a6.1,6.1,0,1,1,6.1-6.1,6.1,6.1,0,0,1-6.1,6.1" transform="translate(-77.731 -81.32)"/><path class="p" d="M104.069,116.215l1.434,1.3,1.437-1.3a6.621,6.621,0,0,1-2.871,0m-2.971-1.571.593,1.852,1.893-.411a6.455,6.455,0,0,1-2.487-1.441m6.326,1.441,1.892.411.593-1.852a6.452,6.452,0,0,1-2.485,1.441M98.9,113.7l1.851.592a6.507,6.507,0,0,1-1.442-2.489Zm12.8-1.9a6.5,6.5,0,0,1-1.442,2.488l1.851-.592Zm-13.82-1.918,1.3,1.436a6.519,6.519,0,0,1,0-2.873Zm13.948-1.436a6.578,6.578,0,0,1,0,2.873l1.3-1.436ZM98.9,106.077l.409,1.9a6.519,6.519,0,0,1,1.446-2.494Zm11.353-.6a6.514,6.514,0,0,1,1.446,2.494l.41-1.9Zm-8.56-2.2-.6,1.855a6.49,6.49,0,0,1,2.5-1.444Zm5.726.41a6.493,6.493,0,0,1,2.494,1.444l-.6-1.854Zm-1.914-1.432-1.439,1.3a6.64,6.64,0,0,1,2.879,0Z" transform="translate(-80.04 -83.627)"/><path class="g" d="M133.534,131.91v.9h2.253v-.9h-.552v-5.57h-1.361l-.34.9h.55v4.665Z" transform="translate(-109.196 -103.314)"/><path class="c" d="M123.974,0l1.084,2.2,2.425.352-1.755,1.71.414,2.415-2.168-1.14-2.169,1.14.414-2.415-1.755-1.71L122.89,2.2Z" transform="translate(-98.509 0)"/><path class="d" d="M125.838,7.487,127.1,8.72l-.124.726,1.943-2.675-.554-1.122-.782,1.584Z" transform="translate(-102.903 -4.62)"/><path class="d" d="M133.5,12.407l-2.425-.352-3.253,4.477,2.169-1.14,2.169,1.14-.414-2.415Z" transform="translate(-104.523 -9.858)"/><path class="q" d="M136.792,17.078l1.563.822-.3-1.741,1.265-1.233-1.239-.18-1.943,2.675Z" transform="translate(-111.327 -12.058)"/><path class="g" d="M129.062,16.044l.553.539.516-.7Z" transform="translate(-105.539 -12.985)"/><path class="c" d="M173.975,30l1.084,2.2,2.425.352-1.754,1.71.414,2.415-2.168-1.14-2.169,1.14.414-2.415-1.754-1.71,2.425-.352Z" transform="translate(-139.397 -24.532)"/><path class="d" d="M192.247,37.487l-1.748-.254-.782-1.584v3.99l1.563.822-.3-1.741Z" transform="translate(-155.14 -29.152)"/><path class="d" d="M177.014,46.91l-1.265-1.233.032-.032,1.265,1.233Z" transform="translate(-143.718 -37.325)"/><rect class="d" width="1.766" height="0.046" transform="translate(33.003 11.29) rotate(-27.793)"/><path class="d" d="M185.355,37.2l-.041-.02.782-1.584.041.02Z" transform="translate(-151.539 -29.107)"/><path class="d" d="M192.247,37.487l-1.748-.254-.782-1.584v3.99l1.563.822-.3-1.741Z" transform="translate(-155.14 -29.152)"/><rect class="g" width="1.766" height="0.045" transform="translate(32.992 11.305) rotate(-80.313)"/><path class="g" d="M175.826,44.515l-.006-.045,1.748-.254.006.045Z" transform="translate(-143.775 -36.157)"/><path class="c" d="M73.974,30l1.084,2.2,2.425.352-1.755,1.71.414,2.415-2.168-1.14-2.168,1.14.414-2.415-1.754-1.71L72.89,32.2Z" transform="translate(-57.623 -24.532)"/><path class="d" d="M92.247,37.487,90.5,37.233l-.782-1.584v3.99l1.563.822-.3-1.741Z" transform="translate(-73.366 -29.152)"/><path class="d" d="M77.015,46.91,75.75,45.677l.032-.032,1.265,1.233Z" transform="translate(-61.944 -37.325)"/><rect class="d" width="1.766" height="0.046" transform="translate(14.778 11.29) rotate(-27.793)"/><path class="d" d="M85.356,37.2l-.041-.02.782-1.584.041.02Z" transform="translate(-69.766 -29.107)"/><path class="d" d="M92.247,37.487,90.5,37.233l-.782-1.584v3.99l1.563.822-.3-1.741Z" transform="translate(-73.366 -29.152)"/><rect class="g" width="1.766" height="0.045" transform="translate(14.766 11.305) rotate(-80.313)"/><path class="g" d="M75.826,44.515l-.006-.045,1.748-.254.006.045Z" transform="translate(-62.001 -36.157)"/><path class="r" d="M64.316,92.627l-1.729-1.584-2.257.636,1.585-1.729-.636-2.257,1.729,1.585,2.257-.636L63.68,90.37Z" transform="translate(-49.335 -71.71)"/><path class="r" d="M127.369,11.714l-.837-.767-1.093.308.767-.837L125.9,9.324l.837.767,1.093-.308-.767.837Z" transform="translate(-102.576 -7.625)"/></g></svg>