<svg xmlns="http://www.w3.org/2000/svg" width="93.4" height="59.304" viewBox="0 0 93.4 59.304"><defs><style>.a{fill:#fff;}</style></defs><g transform="translate(0 -92.25)"><g transform="translate(0 92.25)"><path class="a" d="M80.778,118.344a10.663,10.663,0,1,0-12.234,0,18.476,18.476,0,0,0-6.3,3.7,23.907,23.907,0,0,0-8.649-4.713,13.509,13.509,0,1,0-13.971,0,24.107,24.107,0,0,0-8.556,4.657,18.626,18.626,0,0,0-6.228-3.622,10.663,10.663,0,1,0-12.234,0A18.717,18.717,0,0,0,0,136.049v1.22a.079.079,0,0,0,.074.074h22.6a24.856,24.856,0,0,0-.2,3.123v1.257a9.827,9.827,0,0,0,9.832,9.832H60.948a9.827,9.827,0,0,0,9.832-9.832v-1.257a24.856,24.856,0,0,0-.2-3.123H93.326a.079.079,0,0,0,.074-.074v-1.22A18.789,18.789,0,0,0,80.778,118.344ZM66.955,109.6a7.706,7.706,0,1,1,7.854,7.706h-.3A7.7,7.7,0,0,1,66.955,109.6Zm-30.936-3.844A10.552,10.552,0,1,1,47.18,116.293h-1.22A10.568,10.568,0,0,1,36.018,105.759ZM10.959,109.6a7.706,7.706,0,1,1,7.854,7.706h-.3A7.707,7.707,0,0,1,10.959,109.6Zm12.234,24.764H2.994a15.79,15.79,0,0,1,15.561-14.1h.222a15.626,15.626,0,0,1,10.072,3.752A24.265,24.265,0,0,0,23.193,134.367Zm44.593,7.355a6.885,6.885,0,0,1-6.875,6.875H32.267a6.885,6.885,0,0,1-6.875-6.875v-1.257a21.229,21.229,0,0,1,20.569-21.2c.2.018.425.018.628.018s.425,0,.628-.018a21.229,21.229,0,0,1,20.569,21.2Zm2.2-7.355a24.2,24.2,0,0,0-5.6-10.275,15.7,15.7,0,0,1,10.164-3.825h.222a15.79,15.79,0,0,1,15.561,14.1Z" transform="translate(0 -92.25)"/></g></g></svg>