<svg xmlns="http://www.w3.org/2000/svg" xmlns:xlink="http://www.w3.org/1999/xlink" width="21" height="21" viewBox="0 0 21 21"><defs><style>.a,.c{fill:#fff;}.a{stroke:#fff;stroke-width:0.5px;}.b{clip-path:url(#a);}</style><clipPath id="a"><rect class="a" width="21" height="21"/></clipPath></defs><g class="b"><g transform="translate(3 1.313)"><path class="c" d="M7.875,8.75A4.375,4.375,0,1,1,12.25,4.375,4.38,4.38,0,0,1,7.875,8.75Zm0-7.437a3.062,3.062,0,1,0,3.062,3.062A3.066,3.066,0,0,0,7.875,1.313Zm0,0" transform="translate(0 0)"/><path class="c" d="M15.093,18.375H.656A.656.656,0,0,1,0,17.719V14.656A4.161,4.161,0,0,1,4.156,10.5h7.437a4.161,4.161,0,0,1,4.156,4.156v3.062A.656.656,0,0,1,15.093,18.375ZM1.312,17.062H14.437V14.656a2.847,2.847,0,0,0-2.844-2.844H4.156a2.847,2.847,0,0,0-2.844,2.844Zm0,0" transform="translate(0 0)"/></g></g></svg>