<svg xmlns="http://www.w3.org/2000/svg" xmlns:xlink="http://www.w3.org/1999/xlink" width="35" height="35" viewBox="0 0 35 35"><defs><style>.a{fill:#fff;stroke:#707070;}.b{clip-path:url(#a);}.c{fill:#4fba6f;}.d{fill:#ff5364;}.e{fill:#df4d60;}.f{fill:#802d40;}.g{fill:#f3d55b;}</style><clipPath id="a"><rect class="a" width="35" height="35" transform="translate(123 320)"/></clipPath></defs><g class="b" transform="translate(-123 -320)"><g transform="translate(123 323.07)"><g transform="translate(0 0)"><path class="c" d="M31.713,22.04A17.49,17.49,0,0,1,3.578,1.287a.6.6,0,0,1,.856-.133l.959.712.489.356a15.078,15.078,0,1,0,24.269,17.9l.482.356.959.706a.6.6,0,0,1,.121.856Z" transform="translate(-0.499 0.172)"/><path class="d" d="M29.8,19.953A15.078,15.078,0,0,1,5.533,2.052l.482.356L12.246,7l.983.724L27.04,17.914l.006.006,1.26.929,1.013.748Z" transform="translate(-0.151 0.342)"/><path class="e" d="M26.013,17.109a18,18,0,0,1-3.956.434,18.389,18.389,0,0,1-12.707-5.1,1.829,1.829,0,0,1-.561-1.285,1.862,1.862,0,0,1,.519-1.309L12.2,6.917,26.007,17.1Z" transform="translate(0.882 1.153)"/><g transform="translate(5.523 8.928)"><path class="f" d="M11.214,18.1a1.289,1.289,0,0,1-1.776.376,1.288,1.288,0,0,1-.165-1.809c.445-.6,1.777-1.5,2.313-1.1s.074,1.934-.372,2.537Z" transform="translate(-4.61 -6.352)"/><path class="f" d="M15.859,19.3a1.215,1.215,0,1,1-2.4-.27c.084-.745.789-2.187,1.451-2.111s1.03,1.636.946,2.38Z" transform="translate(-3.868 -6.11)"/><path class="f" d="M20.479,17.949a1.215,1.215,0,1,1-2.21.965c-.3-.687-.41-2.292.2-2.555s1.71.9,2.01,1.59Z" transform="translate(-3.102 -6.208)"/><path class="f" d="M6.718,7.671A1.288,1.288,0,0,0,5.235,8.719a1.288,1.288,0,0,0,1.214,1.35c.744.084,2.307-.284,2.382-.946S7.463,7.755,6.718,7.671Z" transform="translate(-5.234 -7.653)"/><path class="f" d="M6.81,12.48a1.215,1.215,0,1,0,.965,2.211c.687-.3,1.857-1.4,1.59-2.011s-1.869-.5-2.555-.2Z" transform="translate(-5.115 -6.889)"/></g><path class="c" d="M33.759,11.223a17.189,17.189,0,0,1-23.75-.006A.619.619,0,0,1,10,10.342l.844-.862.422-.428a14.759,14.759,0,0,0,10.618,4.507A14.759,14.759,0,0,0,32.5,9.052l.422.428.844.862a.621.621,0,0,1-.006.881Z" transform="translate(1.054 1.509)"/><path class="d" d="M32.293,10.56a14.759,14.759,0,0,1-21.235,0l.422-.428L21.256.181a.59.59,0,0,1,.85,0l9.764,9.951Z" transform="translate(1.26 0)"/><path class="f" d="M16.81,8.777a1.312,1.312,0,0,0,.811,1.646,1.284,1.284,0,0,0,1.511-1.013c.193-.734.06-2.358-.578-2.533S17,8.042,16.81,8.777Z" transform="translate(2.208 1.144)"/><path class="f" d="M21.544,9.411a1.283,1.283,0,0,0,1.508,1.013,1.312,1.312,0,0,0,.811-1.646c-.194-.735-1.1-2.075-1.744-1.9s-.768,1.8-.575,2.533Z" transform="translate(2.994 1.144)"/><path class="g" d="M30.359,20.359A15.681,15.681,0,0,1,5.119,1.747l.489.356.482.356a14.479,14.479,0,0,0,23.3,17.189l.482.356Z" transform="translate(-0.225 0.291)"/><path class="g" d="M32.775,9.541a15.345,15.345,0,0,1-11.025,4.68h-.012A15.406,15.406,0,0,1,10.7,9.541l.422-.428.422-.428.006.006a14.206,14.206,0,0,0,10.193,4.324h.012A14.169,14.169,0,0,0,31.925,8.691l.006-.006.422.428Z" transform="translate(1.2 1.448)"/></g></g></g></svg>