<svg xmlns="http://www.w3.org/2000/svg" xmlns:xlink="http://www.w3.org/1999/xlink" width="45" height="45" viewBox="0 0 45 45"><defs><style>.a{fill:#fff;}.b{opacity:0.5;clip-path:url(#a);}</style><clipPath id="a"><rect class="a" width="45" height="45" transform="translate(283 487.465)"/></clipPath></defs><g class="b" transform="translate(-283 -487.465)"><g transform="translate(285.105 489.105)"><path class="a" d="M20.628,0A20.628,20.628,0,1,0,41.255,20.628,20.651,20.651,0,0,0,20.628,0Zm0,39.462A18.834,18.834,0,1,1,39.462,20.628,18.855,18.855,0,0,1,20.628,39.462Z"/><g transform="translate(8.969)"><path class="a" d="M19.485,0C12.947,0,7.826,9.062,7.826,20.628s5.121,20.628,11.659,20.628,11.659-9.062,11.659-20.628S26.023,0,19.485,0Zm0,39.462c-5.347,0-9.865-8.626-9.865-18.834S14.138,1.794,19.485,1.794s9.865,8.626,9.865,18.834S24.832,39.462,19.485,39.462Z" transform="translate(-7.826)"/></g><g transform="translate(0 19.731)"><path class="a" d="M40.359,17.217H.9a.9.9,0,1,0,0,1.794H40.359a.9.9,0,1,0,0-1.794Z" transform="translate(0 -17.217)"/></g><g transform="translate(3.191 8.969)"><path class="a" d="M36.759,7.826H3.681a.9.9,0,1,0,0,1.794h33.08a.9.9,0,0,0,0-1.794Z" transform="translate(-2.785 -7.826)"/></g><g transform="translate(3.191 30.493)"><path class="a" d="M36.759,26.609H3.681a.9.9,0,1,0,0,1.794h33.08a.9.9,0,0,0,0-1.794Z" transform="translate(-2.785 -26.609)"/></g><g transform="translate(19.731)"><path class="a" d="M18.114,0a.9.9,0,0,0-.9.9V40.359a.9.9,0,1,0,1.794,0V.9A.9.9,0,0,0,18.114,0Z" transform="translate(-17.217)"/></g></g></g></svg>