<svg xmlns="http://www.w3.org/2000/svg" width="19.93" height="19.93" viewBox="0 0 19.93 19.93"><defs><style>.a{fill:#6434e8;}</style></defs><g transform="translate(3.737 3.737)"><path class="a" d="M104.1,96H96.623a.623.623,0,0,0,0,1.246H104.1a.623.623,0,0,0,0-1.246Z" transform="translate(-96 -96)"/></g><g transform="translate(3.737 6.228)"><path class="a" d="M101.605,160H96.623a.623.623,0,0,0,0,1.246h4.982a.623.623,0,0,0,0-1.246Z" transform="translate(-96 -160)"/></g><path class="a" d="M13.7,0H2.491A2.494,2.494,0,0,0,0,2.491V14.947a.622.622,0,0,0,.359.564.632.632,0,0,0,.264.059.623.623,0,0,0,.4-.144l3.564-2.97H13.7a2.494,2.494,0,0,0,2.491-2.491V2.491A2.494,2.494,0,0,0,13.7,0Zm1.246,9.965A1.247,1.247,0,0,1,13.7,11.21H4.36a.622.622,0,0,0-.4.144L1.246,13.618V2.491A1.247,1.247,0,0,1,2.491,1.246H13.7a1.247,1.247,0,0,1,1.246,1.246Z"/><g transform="translate(4.982 4.982)"><path class="a" d="M140.456,128a.623.623,0,0,0,0,1.246,1.247,1.247,0,0,1,1.246,1.246v10.537l-2.1-1.682a.627.627,0,0,0-.389-.136h-8.719a1.247,1.247,0,0,1-1.246-1.246v-.623a.623.623,0,0,0-1.246,0v.623a2.494,2.494,0,0,0,2.491,2.491h8.5l2.943,2.355a.623.623,0,0,0,1.013-.487V130.491A2.494,2.494,0,0,0,140.456,128Z" transform="translate(-128 -128)"/></g></svg>