<svg xmlns="http://www.w3.org/2000/svg" width="19.932" height="19.932" viewBox="0 0 19.932 19.932"><defs><style>.a{fill:#6434e8;}</style></defs><g transform="translate(0 0)"><path class="a" d="M10.591,19.932H9.34A1.837,1.837,0,0,1,7.505,18.1v-.423a8.047,8.047,0,0,1-1.25-.519l-.3.3a1.835,1.835,0,0,1-2.6,0l-.884-.884a1.835,1.835,0,0,1,0-2.6l.3-.3a8.047,8.047,0,0,1-.519-1.25H1.835A1.837,1.837,0,0,1,0,10.591V9.34A1.837,1.837,0,0,1,1.835,7.506h.423a8.049,8.049,0,0,1,.519-1.25l-.3-.3a1.835,1.835,0,0,1,0-2.6l.884-.884a1.835,1.835,0,0,1,2.6,0l.3.3a8.054,8.054,0,0,1,1.25-.519V1.835A1.837,1.837,0,0,1,9.34,0h1.251a1.837,1.837,0,0,1,1.835,1.835v.423a8.047,8.047,0,0,1,1.25.519l.3-.3a1.835,1.835,0,0,1,2.6,0l.884.884a1.835,1.835,0,0,1,0,2.6l-.3.3a8.047,8.047,0,0,1,.519,1.25H18.1A1.837,1.837,0,0,1,19.932,9.34v1.251A1.837,1.837,0,0,1,18.1,12.426h-.423a8.049,8.049,0,0,1-.519,1.25l.3.3a1.835,1.835,0,0,1,0,2.6l-.884.884a1.835,1.835,0,0,1-2.6,0l-.3-.3a8.054,8.054,0,0,1-1.25.519V18.1A1.837,1.837,0,0,1,10.591,19.932Zm-4.14-4a6.883,6.883,0,0,0,1.784.741.584.584,0,0,1,.438.565V18.1a.668.668,0,0,0,.667.667h1.251a.668.668,0,0,0,.667-.667v-.862a.584.584,0,0,1,.438-.565,6.883,6.883,0,0,0,1.784-.741.584.584,0,0,1,.71.09l.611.611a.667.667,0,0,0,.943,0l.885-.885a.667.667,0,0,0,0-.943l-.611-.611a.584.584,0,0,1-.09-.71,6.882,6.882,0,0,0,.741-1.784.584.584,0,0,1,.565-.438H18.1a.668.668,0,0,0,.667-.667V9.34a.668.668,0,0,0-.667-.667h-.862a.584.584,0,0,1-.565-.438,6.883,6.883,0,0,0-.741-1.784.584.584,0,0,1,.09-.71l.611-.611a.667.667,0,0,0,0-.943L15.745,3.3a.667.667,0,0,0-.943,0l-.611.611a.584.584,0,0,1-.71.09A6.883,6.883,0,0,0,11.7,3.263a.584.584,0,0,1-.438-.565V1.835a.668.668,0,0,0-.667-.667H9.34a.668.668,0,0,0-.667.667V2.7a.584.584,0,0,1-.438.565A6.883,6.883,0,0,0,6.451,4a.584.584,0,0,1-.71-.09L5.13,3.3a.667.667,0,0,0-.943,0L3.3,4.187a.667.667,0,0,0,0,.943l.611.611a.584.584,0,0,1,.09.71,6.882,6.882,0,0,0-.741,1.784.584.584,0,0,1-.565.438H1.835a.668.668,0,0,0-.667.667v1.251a.668.668,0,0,0,.667.667H2.7a.584.584,0,0,1,.565.438A6.883,6.883,0,0,0,4,13.48a.584.584,0,0,1-.09.71L3.3,14.8a.667.667,0,0,0,0,.943l.885.885a.667.667,0,0,0,.943,0l.611-.611A.587.587,0,0,1,6.451,15.929Z"/><path class="a" d="M148.937,153.273a4.337,4.337,0,1,1,4.337-4.337A4.342,4.342,0,0,1,148.937,153.273Zm0-7.506a3.169,3.169,0,1,0,3.169,3.169A3.172,3.172,0,0,0,148.937,145.768Z" transform="translate(-138.971 -138.971)"/></g></svg>