<svg xmlns="http://www.w3.org/2000/svg" width="18.912" height="18.912" viewBox="0 0 18.912 18.912"><defs><style>.a{fill:#fff;stroke:#fff;stroke-width:0.2px;}</style></defs><g transform="translate(0.1 0.1)"><path class="a" d="M16.373,0H2.339A2.341,2.341,0,0,0,0,2.339V12.865A2.341,2.341,0,0,0,2.339,15.2H8.771v2.924a.585.585,0,0,0,1,.413L13.107,15.2h3.266a2.341,2.341,0,0,0,2.339-2.339V2.339A2.341,2.341,0,0,0,16.373,0Zm1.17,12.865a1.171,1.171,0,0,1-1.17,1.17H12.865a.582.582,0,0,0-.413.171l-2.51,2.51v-2.1a.585.585,0,0,0-.585-.585H2.339a1.171,1.171,0,0,1-1.17-1.17V2.339a1.171,1.171,0,0,1,1.17-1.17H16.373a1.171,1.171,0,0,1,1.17,1.17Z"/><g transform="translate(5.317 3.51)"><path class="a" d="M150.042,96.372a.585.585,0,0,0-1.062,0l-3.509,7.6,1.062.49,1.193-2.585H151.3l1.193,2.585,1.062-.49Zm-1.775,4.337,1.244-2.7,1.244,2.7Z" transform="translate(-145.472 -96.032)"/></g></g></svg>