<svg xmlns="http://www.w3.org/2000/svg" xmlns:xlink="http://www.w3.org/1999/xlink" width="35" height="35" viewBox="0 0 35 35"><defs><style>.a{fill:#fff;stroke:#707070;}.b{clip-path:url(#a);}.c{fill:#89df8f;}.d{fill:#ffcd69;}.e{fill:#ff7d97;}.f{fill:#80b6ff;}.g{fill:#a0c8ff;}</style><clipPath id="a"><rect class="a" width="35" height="35" transform="translate(173 368)"/></clipPath></defs><g class="b" transform="translate(-173 -368)"><g transform="translate(173 369.763)"><g transform="translate(0.684 0.684)"><g transform="translate(25.456 26.191)"><path class="c" d="M22.405,25.64V24.546H23.5a2.8,2.8,0,0,1,2.8,2.8v1.094H25.208A2.8,2.8,0,0,1,22.405,25.64Z" transform="translate(-22.405 -24.546)"/></g><g transform="translate(2.25)"><path class="d" d="M22.987,3.579,2.795,23.772a.95.95,0,0,0,.672,1.622H18.684A12.941,12.941,0,0,0,31.625,12.454v-5.3a5.06,5.06,0,0,0-8.638-3.578Z" transform="translate(-2.515 -2.097)"/></g><g transform="translate(0 12.08)"><path class="e" d="M.586,29.235a4.324,4.324,0,0,0,6.1-.019L20.408,15.491,17.37,12.452Z" transform="translate(-0.586 -12.452)"/></g><g transform="translate(0.912 6.509)"><path class="f" d="M1.368,24.46a13.956,13.956,0,0,0,16.768-2.265,10.273,10.273,0,0,0,.015-14.518Z" transform="translate(-1.368 -7.676)"/></g><g transform="translate(2.841 7.881)"><path class="g" d="M3.021,22.312a13.927,13.927,0,0,0,10.67-4.057l.03-.03A10.246,10.246,0,0,0,16.5,8.852Z" transform="translate(-3.021 -8.852)"/></g></g><g transform="translate(0 0)"><path d="M23.524,6.533a.683.683,0,1,0,.483-.2.686.686,0,0,0-.483.2Z" transform="translate(3.887 -0.707)"/><path d="M34.316,24.808H25.057a13.624,13.624,0,0,0,3.287-2.245.684.684,0,1,0-.928-1,12.219,12.219,0,0,1-8.313,3.25H17.61a14.614,14.614,0,0,0,1.237-1.1,10.959,10.959,0,0,0,.483-14.986L23.889,4.16a4.377,4.377,0,0,1,7.471,3.095v5.3a12.22,12.22,0,0,1-.735,4.191.684.684,0,1,0,1.285.467,13.583,13.583,0,0,0,.817-4.658V9.657h1.588A.684.684,0,0,0,34.8,8.49L32.655,6.345a5.744,5.744,0,0,0-9.733-3.152L1.112,25a.684.684,0,0,0,.145,1.077,14.515,14.515,0,0,0,2.36,1.077L.2,30.575a.684.684,0,0,0,0,.97,5.02,5.02,0,0,0,7.06-.022l3.755-3.755a14.692,14.692,0,0,0,4.537-1.593h7.407l2.493,2.493v.811a3.491,3.491,0,0,0,3.487,3.487h1.094a.684.684,0,0,0,.684-.684V31.189A3.491,3.491,0,0,0,27.233,27.7h-.811L24.9,26.176h9.419a.684.684,0,1,0,0-1.367ZM13.726,18.98A13.3,13.3,0,0,1,5.2,22.846L16.521,11.529A9.57,9.57,0,0,1,13.726,18.98ZM3.817,24.233c.173.006.346.01.518.01a14.663,14.663,0,0,0,10.358-4.3A10.931,10.931,0,0,0,17.747,10.3l.615-.615a9.593,9.593,0,0,1-.482,13.051A13.3,13.3,0,0,1,2.735,25.314ZM6.3,30.557a3.652,3.652,0,0,1-4.6.453L5.111,27.6a14.624,14.624,0,0,0,3.363.393c.131,0,.262,0,.393-.006Zm23.056.632v.41h-.41a2.122,2.122,0,0,1-2.12-2.12v-.41h.41A2.122,2.122,0,0,1,29.353,31.189Z" transform="translate(0 -1.511)"/><path d="M25.224,16.734a.683.683,0,1,0,.483-.2A.689.689,0,0,0,25.224,16.734Z" transform="translate(4.171 0.993)"/></g></g></g></svg>