<svg xmlns="http://www.w3.org/2000/svg" width="69" height="41.694" viewBox="0 0 69 41.694"><defs><style>.a{fill:#fff;}</style></defs><g transform="translate(0 -109)"><path class="a" d="M282.1,198.9c0-5.5-7.2-6.67-10.04-1.352-.145-.074-.1-1.533-.1,13.31,1.169-.965,2.568-2.169,3.963-3.487,5.731-5.419,6.178-7.855,6.178-8.472Z" transform="translate(-235.158 -71.006)"/><path class="a" d="M163.18,198.9c0,.617.446,3.054,6.176,8.472,1.388,1.312,2.78,2.51,3.947,3.472,0-14.81.037-13.356-.083-13.3C170.369,192.22,163.174,193.416,163.18,198.9Z" transform="translate(-141.103 -71.005)"/><path class="a" d="M7.576,122.824H0v17.047H7.576v10.824H32.2v-5.67c-4.511-3.439-14.179-11.444-14.182-17.124,0-7.7,8.349-11.213,14.182-7.165V109H7.576ZM4.059,135.812v-8.929H7.576v8.929Z"/><path class="a" d="M304.2,122.824h-7.577V109H272v11.745c5.877-4.094,14.2-.5,14.2,7.154,0,5.681-9.675,13.69-14.2,17.138v5.657h24.624V139.871H304.2Zm-4.059,12.988h-3.518v-8.929h3.518Z" transform="translate(-235.2)"/></g></svg>