<svg xmlns="http://www.w3.org/2000/svg" width="52" height="57.79" viewBox="0 0 52 57.79"><defs><style>.a{fill:#fff;}</style></defs><g transform="translate(-25.649 0)"><path class="a" d="M50.224.15A22.014,22.014,0,0,0,29.31,34.17a39.852,39.852,0,0,1,6.5,21.924v1.7H56.123V56.1A5.182,5.182,0,0,1,61.2,50.906h8.465V44.021H62.9V40.635h6.772V37.249h7.982S71,25.179,69.667,22.956V19.07A22.325,22.325,0,0,0,50.224.15Zm7.9,36.713H41.193V31.784a8.475,8.475,0,0,1,8.465-8.465,6.772,6.772,0,1,1,6.772-6.772,6.779,6.779,0,0,1-6.772,6.772,8.475,8.475,0,0,1,8.465,8.465Z" transform="translate(0 0)"/></g></svg>