<svg xmlns="http://www.w3.org/2000/svg" width="48" height="47.999" viewBox="0 0 48 47.999"><defs><style>.a{fill:#fff;}</style></defs><g transform="translate(0 -0.003)"><g transform="translate(39.562 11.347)"><path class="a" d="M430.279,121.785a1.409,1.409,0,0,0-1.887-.629l-5.625,2.813a1.406,1.406,0,1,0,1.258,2.516l5.625-2.812A1.406,1.406,0,0,0,430.279,121.785Z" transform="translate(-421.989 -121.008)"/></g><g transform="translate(39.562 25.409)"><path class="a" d="M429.65,273.958l-5.625-2.812a1.406,1.406,0,1,0-1.258,2.516l5.625,2.813a1.406,1.406,0,0,0,1.258-2.516Z" transform="translate(-421.989 -270.997)"/></g><g transform="translate(0 0.003)"><g transform="translate(0 0)"><path class="a" d="M32.343,22.69H11.25V15.472a7.031,7.031,0,0,1,14.062,0v2.813a1.405,1.405,0,0,0,1.406,1.406h5.625a1.405,1.405,0,0,0,1.406-1.406V15.472a15.469,15.469,0,0,0-30.937,0v7.478A4.212,4.212,0,0,0,0,26.909V43.784A4.223,4.223,0,0,0,4.219,48H32.343a4.223,4.223,0,0,0,4.219-4.219V26.909A4.223,4.223,0,0,0,32.343,22.69Zm-12.656,13.8v4.478a1.406,1.406,0,0,1-2.813,0V36.494a4.219,4.219,0,1,1,2.813,0Z" transform="translate(0 -0.003)"/></g></g><g transform="translate(39.562 19.784)"><path class="a" d="M429.026,211H423.4a1.406,1.406,0,0,0,0,2.813h5.625a1.406,1.406,0,0,0,0-2.812Z" transform="translate(-421.995 -211)"/></g></g></svg>