<svg xmlns="http://www.w3.org/2000/svg" width="50" height="50" viewBox="0 0 50 50"><defs><style>.a{fill:#fff;}</style></defs><path class="a" d="M246.859,0V7.422h-2.93a2.93,2.93,0,0,0,0,5.859h2.93v7.324h8.789V16.211a1.465,1.465,0,1,1,2.93,0v4.395h8.887V0Z" transform="translate(-217.465)"/><path class="a" d="M6.641,112.973a2.93,2.93,0,0,0,5.859,0v-2.93h6.641v-7.324h-2.93a1.465,1.465,0,0,1,0-2.93h2.93V91H0v19.043H6.641Z" transform="translate(0 -82.113)"/><path class="a" d="M238.5,261.859v-2.93a2.93,2.93,0,0,0-5.859,0v2.93H226v3.711a5.859,5.859,0,1,1,0,11.719V281h19.043V261.859Z" transform="translate(-203.93 -231)"/><path class="a" d="M22.07,328.5a2.93,2.93,0,0,0,0-5.859h-2.93V316H15.43a5.859,5.859,0,0,1-11.719,0H0v19.141H19.141V328.5Z" transform="translate(0 -285.141)"/></svg>